<svg xmlns="http://www.w3.org/2000/svg" width="85" height="57"><path fill="#FFF" d="M42.234.153H85.02v56.693H42.233z"/><path fill="#036334" d="M-.02.153h42.254v56.693H-.02z"/><path fill="#D31F36" d="m50.365 21.887.087 4.977 4.926 1.573-4.928 1.648.057 4.926-3.084-3.9-4.776 1.39 2.897-3.982-3.025-4.188 4.924 1.573"/><path fill="#D31F36" d="M46.272 39.92c-6.336 0-11.47-5.136-11.47-11.47 0-6.337 5.134-11.472 11.47-11.472 2.703 0 5.185.94 7.146 2.507a14.115 14.115 0 0 0-10.9-5.13c-7.813 0-14.146 6.332-14.146 14.145s6.333 14.146 14.146 14.146c4.5 0 8.502-2.108 11.093-5.385a11.415 11.415 0 0 1-7.338 2.66z"/></svg>
