<svg xmlns="http://www.w3.org/2000/svg" width="87" height="57"><path fill="#D01F3D" d="M0-1.7h88v61.6H0z"/><path fill="#FDDF00" d="M0-1.7h59.8v61.6H0z"/><path fill="#273894" d="M0-1.7h28.2v61.6H0z"/><path fill="#C8B480" d="m41.3 14.9 2.6.9c.7 0 1-.2 1.6-.5.4-.2.7-.3 1.1-.3.5 0 .8.1 1 .5.1.2.2.7.2.9-.1.5-.2.7-.4 1.1-.1.2-.2.3-.2.6 0 .6.8.8 1.3.8.1 0 1.1 0 1.7-.6-.3 0-.7-.3-.7-.6 0-.4.3-.6.6-.7h.2l.1-.2c.2-.1.3-.2.5-.2.1 0 .2 0 .3.1l.2.1.4-.1c.1 0 .2 0 .3.1l.2.2c.1 0 .3-.1.5-.1.3 0 .5.1.7.3.1.1.1.2.1.2.1 0 .4.1.5.2.1.1.1.1.1.2s.1.2.2.2.1 0 .2.1c.2.1.4.4.4.7 0 .1 0 .2-.1.3-.3.9-.9 1.2-1.5 2-.3.3-.5.6-.5 1 0 .1.1.3.2.4 0-.2.1-.4.3-.5.3 0 .5.2.6.5v.3c.2-.1.4-.2.5-.2h.3c.5 0 1 .3 1.3.5.9.8 1.1 2 1 2.3-.1.7 0 2-1.9 2.6.3.1.6.4.6.7 0 .3-.3.6-.6.6-.2 0-.3 0-.5-.2-.4.4-.5.8-.5 1.3 0 .3.1.5.2.8.1.3.2.5.5.7.1-.2.3-.4.5-.4s.4.1.5.3v.2c0 .1.1.1.2.2l.1.4c0 .1.1.1.2.2s.1.2.1.4c0 .4-.4.7-.8.7h-.3c.2.2.4.3.6.6.3.4.3.7.4 1.2v.2c0 .6-.1 1-.4 1.5-.3.5-.5.8-1 1.2-.7.5-1.3.7-2.2.9-.6.1-.9.2-1.5.2-.8 0-1.2 0-1.9.1-1 .1-1.7.2-2.4.9.3.2.6.5.6.9s-.3.7-.7.9h-.2c-.1.1-.1.2-.2.2-.2.1-.3.1-.5.1-.4 0-.6-.1-.9-.3-.3.3-.4.5-.7.7-.1.1-.2.1-.3.1-.2 0-.3-.1-.5-.2-.3-.2-.4-.3-.6-.6-.3.2-.5.3-.9.3-.2 0-.4 0-.5-.1-.1-.1-.1-.2-.2-.2l-.3-.1c-.4-.2-.7-.5-.7-.9s.3-.6.6-.8c-.7-.7-1.4-.8-2.3-.9-.8 0-1.2 0-1.9-.1-.6 0-.9-.1-1.5-.2-.4-.1-.7-.1-1.1-.3-1.4-.7-2.3-1.6-2.5-3.1v-.3c0-.8.3-1.3.9-1.9h-.4c-.4-.1-.6-.4-.6-.8 0-.1 0-.2.1-.4 0-.1.1-.1.2-.2v-.3l.1-.2c.1-.3.3-.5.6-.5.2 0 .4.1.5.3.2-.1.3-.3.4-.5.2-.4.3-.6.3-1.1 0-.3 0-.5-.1-.8l-.2-.5c-.1.1-.3.2-.5.2-.4 0-.7-.3-.7-.7 0-.3.1-.5.4-.6-.2-.2-.4-.2-.6-.3-.4-.2-.5-.5-.7-.8-.2-.2-.2-.4-.3-.7-.1-.3-.1-.5-.1-.8V25c.1-.7.2-1.1.6-1.6.3-.3.4-.5.8-.7.3-.1.5-.2.9-.2h.3c.2 0 .3 0 .4.1.1 0 .1.1.1.1v-.2c0-.3.2-.5.5-.5.2 0 .3.2.4.4.1-.1.1-.2.1-.3 0-.5-.3-.7-.5-1.1-.6-.8-1.4-1.2-1.4-2.2 0-.3.1-.5.4-.7h.3c.1 0 .1-.1.1-.2l.2-.2.4-.2.2-.2c.2-.2.3-.3.6-.3.1 0 .2 0 .4.1l.1.1.2-.2c.1-.1.2-.1.3-.1.2 0 .3.1.4.1.1 0 .1-.1.1-.1.1-.1.2-.1.4-.1l.4.1c.1.1.1.2.3.3h.2c.4.1.6.4.6.7 0 .2 0 .3-.2.5-.1.1-.2.1-.4.1.5.4.9.5 1.6.5.6 0 1.3-.2 1.3-.8 0-.3-.1-.4-.3-.7-.2-.4-.3-.7-.3-1.2 0-.4 0-.6.3-.9-.2-.4.1-.5.5-.5z"/><path stroke="#713E2A" stroke-width=".092" stroke-linejoin="round" d="M37.5 18c0 .1.2.3.3.3.1 0 .4 0 .5-.2.1-.2.1-.4.1-.6 0-.1-.1-.2-.2-.3l-.7.8z" fill="none"/><path stroke="#713E2A" stroke-width=".091" stroke-linecap="round" d="M55.1 28.6c-.2-.4-.6-.2-.6 0-.1.5.4.7.7.6.2 0 .3-.1.3-.3.1-.1.1-.3.1-.5 0-.1-.1-.2-.1-.2l-.2-.2c-.1-.1-.3-.1-.5-.1-.8 0-1.4.9-1.7 1.8-.1.3-.2 1 0 1.7s.5 1.2.8 1.5c.2.2.5.4.8.6.1.1.4.2.6.2.2.1.4 0 .5 0 .5-.1.7-.5.4-1-.2-.4-.7-.5-1-.1 0 0-.1.1-.1.2l.1.3c.2.1.5.1.5-.3" fill="none"/><path stroke="#713E2A" stroke-width=".112" d="M52.8 33.8c.2-.2.5-.5.9-.5.4-.1.8.1 1.1.3.7.4 1.1.8 1.4 1.6.1.2.1.5.1.8 0 .5-.1 1-.3 1.3-.1.2-.4 1.2-2.1 1.9-1 .4-2.5.5-3.5.5-1.4.1-2.8.1-3.5 1.1" fill="none"/><path d="M53.1 35.4c0-.2 0-.3.1-.5.2-.2.5-.3.8-.1.1.1.2.1.3.3 0 .1.1.2.2.2.1.2.1.3.1.3.3 1-.2 2-.9 2.4-.5.3-1.2.5-2 .6-.4 0-.6 0-.9.1h-2.4c-.4 0-.7 0-1 .1-.2 0-.5.1-.8.1-.1 0-.2 0-.2.1-.1 0-.1 0-.2.1-.5.1-1 .3-1.3.6l-.3.2-.2.2c-.3.3-.5.5-.6.9v.2c0 .2.2.6.7.7m.9-23.4c.1.2.2.3.1.5s-.2.4-.5.4c-.5 0-.9-.6-.6-1.1.4-.7 1.3-.3 2.1 0 0-.2-.1-.2-.1-.5 0-.6.4-.8.6-1.4.1-.3.1-.6-.1-.8-.2-.2-.4-.2-.7-.1-.5.2-1.2.8-2.3.8-1.1 0-1.8-.6-2.3-.8-.3-.1-.5-.1-.7.1-.2.2-.2.5-.1.8.2.5.6.8.6 1.4l-.1.5c.8-.4 1.7-.8 2.1 0 .2.4-.1 1.1-.6 1.1-.2 0-.4-.2-.5-.4-.1-.2 0-.4.1-.5m.9-.4c.2.2.4.4.3.7 0 .4-.1.4-.4.6m.3-.5c0 .2-.1.3-.3.4" stroke="#713E2A" stroke-width=".099" fill="none"/><path fill="#C8B480" d="m38.1 17.2.2.2.1.1v.5l-.1.1-.1.1-.1.1h-.3l-.1-.1-.1-.1-.2-.1-.1-.1v-.1l.8-.6z"/><path stroke="#713E2A" stroke-width=".092" stroke-linecap="round" d="M37.8 17.7c0-.2-.3-.3-.4-.1-.2.2 0 .6.3.7.1 0 .4 0 .5-.2.1-.2.1-.4.1-.6 0-.1-.1-.2-.2-.3-.4-.3-1-.2-1.2.3-.3.6.3 1.1.8 1.4.6.4 1.4.5 1.9.5 1.3 0 2.2-.6 2.8-1 .1-.1.3-.1.4 0 .1.1.1.3 0 .4" fill="none"/><path stroke="#713E2A" stroke-width=".093" d="m34.1 34.8-.3.1-.3.2-.1.2-.2.3-.1.2v.4m2.6-1.4v.4l-.1.3-.2.3-.2.2h-.4" fill="none"/><path stroke="#713E2A" stroke-width=".105" d="M44 41.4c-.1.2-.3.5-.7.6h-.1" fill="none"/><path stroke="#713E2A" stroke-width=".119" d="M55.6 34.1c.3.3.5.6.7 1.1.1.2.1.5.1.8 0 .5-.1 1-.3 1.3-.1.2-.4 1.2-2.1 1.9-1 .4-2.5.5-3.5.5-1.4.1-2.7.1-3.5 1" fill="none"/><path stroke="#713E2A" stroke-width=".082" d="M53.3 35c.1-.1.5-.3.8-.2.1.1.2.1.3.3" fill="none"/><path stroke="#713E2A" stroke-width=".119" d="m55.2 33.7.2.1c.2.1.4.1.5 0 .4-.1.6-.5.4-1 0-.1-.1-.2-.2-.3" fill="none"/><path stroke="#713E2A" stroke-width=".092" stroke-linecap="round" d="M33 23.6c-.3.2-.5.2-.7.4-.2.4-.3.6-.4.9m6.5-7.1c0 .2-.2.4-.4.4" fill="none"/><path stroke="#713E2A" stroke-width=".088" d="M54.6 22.5c.7 0 2.5.5 2.6 2.7 0 2.2-1.4 2.6-1.9 2.7" fill="none"/><path stroke="#713E2A" stroke-width=".091" d="M54.8 22.5c1.1 0 2.3.8 2.3 2.8 0 1.6-1.1 2.3-1.6 2.5" fill="none"/><path d="M54.1 30.3v-.2l.1-.3.1-.3.1-.2.2-.2m1.1-.6v.2l-.1.1-.1.2-.1.1-.2.1H55m-2-7.3v-.2l.1-.2.1-.2.2-.3.2-.2.3-.3.3-.3.2-.2.2-.3.2-.3.1-.2.1-.3v-.5m-1.7 17.7h.2l.2-.1.1-.1.1-.1v-.3m-21.8-1.7h.4l.2-.1m.7-5v.3l-.1.1-.1.1h-.3m1.3-2.2v.3l-.1.1-.1.2-.2.1-.2.1-.3.1m2.1-5.4-.1.2-.1.1-.1.1v.1l-.2.1h-.2m0-.8v.1" stroke="#713E2A" stroke-width=".078" fill="none"/><g stroke="#713E2A" stroke-width=".087" fill="none"><path d="m35 26.9-.3.2m20.7 6.2c.3.1.6 0 .5-.3m-1.2-4c.1.2.4.2.6.2.2 0 .3-.1.3-.3.1-.1.1-.3.1-.5 0-.1-.1-.2-.1-.2-.1-.1-.1-.2-.2-.2m.8 4.7c0-.3-.1-.4-.2-.5l-.1-.1m.1 0c0-.3-.2-.4-.5-.5m-.5.4-.2-.1c-.3-.4-.6-.9-.6-1.5s.2-1.1.5-1.4m-7.8 11.7.2-.2.2-.1.3-.2.4-.2.2-.1.4-.1.5-.1M45 42.4c-.2.3-.6.7-1 .8-.4-.2-.9-.6-1-.8m.2-.6-.3.6m.4-.9-.1.3m-.3.6-.1.1-.2.1-.3.1m-.8-24.4c0-.1.1-.2.1-.4 0-.6-.4-.8-.6-1.4-.1-.3-.1-.6.1-.8.2-.2.4-.2.7-.1.5.2 1.2.8 2.3.8-1.1 0-1.8-.6-2.3-.8-.3-.1-.5-.1-.7.1-.2.2-.2.5-.1.8.2.5.6.8.6 1.4-.1.2-.1.3-.1.4m2.5-1.8c1.1-.1 2-.8 2.4-.9.3-.1.4 0 .6.2-.2-.2-.4-.2-.7-.1-.5.2-1.2.8-2.3.8M55 32c-.5-.3-.9-1-.9-1.7 0-.6.2-1.1.5-1.4M45 42.4c-.2.3-.6.7-1 .8-.4-.2-.9-.6-1-.8m-.8-23.8.3-.2c.1-.1.3-.1.4 0 .1.1.1.3 0 .4m-2.4.6c.8-.2 1.4-.5 1.8-.8m4.5 22.6c.1 0 .1.1.1.1v.1c0 .2-.1.3-.3.4-.2 0-.4-.1-.5-.3m-5.6-22.2c.8-.2 1.4-.5 1.8-.8m13.4 14.8c-.1.1-.2 0-.4 0l-.3-.1c-.4-.2-.8-.5-1.2-1.2-.1-.2-.2-.4-.2-.6l-.1-.5c0-.3 0-.5.1-.9.1-.5.2-.8.6-1.2.2-.2.3-.3.6-.4m-19.7-5.5c.2.2.4.5.4.8 0 .4-.4 1.1-1.2 1.4-.3.1-.7 0-.9-.1m1.8-.6c.2.1.2.2.2.4 0 .1-.1.3-.3.5-.3.3-.7.5-1.2.6-.3 0-.5-.1-.8-.2-.3-.2-.5-.5-.5-.7m2.6.3c.2.2.2.4.2.6 0 .4-.2.7-.5 1l-.3.2m17.9-3v.5m-.1-.7v.7m.1-2.1v.9m-.1-1.1v1.2m-.2 11.2c-.2.3-.3.5-.6.8-.3.3-.5.4-.8.6-.3.2-.5.2-.9.3-.4.1-.6.1-.9.1h-.9c-.4 0-.6-.1-.9-.1-.3 0-.5-.1-.8 0-.3 0-.5 0-.8.1l-.7.2c-.4.1-.8.4-.9.5-.1-.1-.5-.4-.9-.5l-.7-.2c-.3-.1-.5-.1-.8-.1h-.8c-.4 0-.6.1-.9.1H39c-.4 0-.6 0-.9-.1-.4-.1-.6-.1-.9-.3-.3-.2-.5-.3-.8-.6l-.1-.1m5.8 7.4h.2m4.2-.4h.2l.2-.1.2-.1.2-.3v-.4M54 22.7c.1-.4 0-.7-.4-.7m-18.2 6.4c-.1.3-.3.5-.5.6m.6-6.4c-.1.3-.2.4-.5.6-.3.1-.5 0-.7-.1m-.8.8c.2.1.4-.1.4-.3 0-.1-.2-.3-.3-.3m.8 12.2.1.1c.1 0 .2.1.3-.1.1-.2.1-.4-.1-.5-.1-.2-.5-.3-.8-.1-.1.1-.2.1-.3.3 0 .1-.1.2-.2.2-.1.2-.1.3-.1.3-.3.8.1 1.6.6 2.2m12.9 3.3.1.1v.1c0 .2-.1.3-.3.4-.2 0-.4-.1-.5-.3m7.4-24.1c.5.1.9.5.9 1 0 .6-.2.8-.5 1.3S52.4 21 52.4 22c0 .6.2 1 .6 1.2.3.1.6 0 .7-.1.4-.3.2-.9-.2-1-.5-.1-.5.6-.1.6m2.5 9.3c0-.2-.2-.4-.5-.4s-.5.2-.5.5l.1.4m-2.2-9.6c-.2.2-.4.5-.4.8 0 .4.4 1.1 1.2 1.4.3.1.7.1.9 0m-21.4-1.5c-.2.1-.5.2-.7.5-.2.2-.3.6-.3.8 0 .1-.1.5 0 .9.1.3.2.6.3.8l.1.2s.1.1.2.1m8.8 12.7c.7.3 1.2.5 1.6 1.2.1.2.2.5.2.7 0 .4-.2.8-.5 1-.3.2-.6.3-.9.3-.3 0-.5-.2-.6-.4m-6.4-15.5c.4.3.5.6.5 1 0 .5-.3.8-.5 1m-.3-.3c.6.7.9 1.1.9 1.9 0 .8-.2 1.3-.7 1.9m10.5-13c.1-.1.2-.2.2-.3.1-.2.1-.4 0-.5.1.2.1.3.1.5 0 .1-.1.2-.3.3m7.2 11.8v2.7m-.1-2.9v2.7c0 .1 0 .3-.1.4m.1-5.9v2m.1-1.8V30m0-3.7v1.2m-.1-1.3v1.5m.1-2.6v.5m-.1-.6v.7m-.2 8.9c-.2.4-.4.6-.6.9-.3.3-.5.4-.8.6-.3.2-.5.2-.9.3-.4.1-.6.1-.9.1h-.9c-.4 0-.6-.1-.9-.1-.3 0-.5-.1-.8 0-.3 0-.5 0-.8.1l-.7.2c-.4.1-.8.4-.9.5-.1-.1-.5-.4-.9-.5l-.7-.2c-.3-.1-.5-.1-.8-.1h-.8c-.4 0-.6.1-.9.1H39c-.4 0-.6 0-.9-.1-.4-.1-.6-.1-.9-.3-.3-.2-.5-.3-.8-.6l-.3-.4m-.3-.4c.1.4-.1.9-.3 1.1-.1.1-.4.4-.7.4-.5 0-.7-.4-.7-.4m1-1.4.3.3c.1.2.1.7 0 .8v.1m-2.8 2.6c.3.3.8.7 1.5 1 1 .4 2.5.5 3.5.5 1.4.1 2.7.1 3.4 1m2.4-.6c.2.2.5.5.6.8m-1 1.5c-.4.3-.7.4-1 .4-.3 0-.5-.2-.6-.4m-.8-.3c.2.2.5.4.7.4m3.8-.1c-.2.3-.6.7-1 .8-.4-.2-.9-.6-1-.8v-.1m2 .1.1.1c.3.2.6.3.9.3.3 0 .5-.2.6-.4 0 0 0-.1.1-.1m-.2.1-.1.2-.2.1-.2.1h-.2m1.3-2c.1.1.2.2.3.4l.1.3c0 .2-.1.4-.2.6-.2.2-.4.3-.7.3h-.1m0 0c-.3 0-.5-.1-.7-.3m8.7-9.3c-.2-.2-.4-.5-.7-.9-.1-.2-.2-.4-.2-.6l-.1-.5c0-.3 0-.5.1-.9.1-.5.3-.9.6-1.2l.3-.3M54.4 18c.3 0 .7.4.7.8 0 .5-.2.8-.6 1.3-.4.5-1.5 1.2-1.4 2 0 .1.1.3.2.4m-.5.4.3.2c.2.1.4 0 .6 0m-3-6c.1.1.2.2.3.4.3.6-.3 1.1-.8 1.4-.4.3-.8.4-1.1.5m1-1.1c-.1 0-.3 0-.4-.2l-.1-.1m-2 .6-.2-.1c-.1-.1-.2-.3-.1-.6s.5-1 .5-1.5c0-.8-.3-1.2-.7-1.4m.7 1.2v.3l-.1.3-.2.4-.1.3-.1.3-.1.2v.2m5.2 17.4c0 .1.1.1.1.1.1.1.4.4.7.4.5 0 .6-.4.7-.4.1-.4-.1-.5-.3-.6 0 0-.1-.1-.3 0m-20.7-1.3h-.5c-.4-.1-.7-.5-.5-1m1.8-4.3.1.1c.1.5-.4.7-.7.6-.2 0-.3-.2-.4-.3-.1-.1-.1-.2-.1-.3m3-3.3c.1.1.1.2.2.2m-.2-1.1.2.2m0 .4c0 .1-.1.2-.2.3-.3.3-.7.5-1.2.6-.3 0-.5-.1-.8-.2-.3-.2-.5-.5-.6-.8m2.4-1.9c.2.1.3.3.3.5m.1.5c-.1.4-.5.9-1.2 1.1-.3.1-.8 0-.9-.1m-.4-1c0 .4.3.6.7.6.6 0 1-.9.5-1.6m-2.7 4.1.3.3c.2.2.5.4.8.5m.8.1c.6-.1.9-.5.8-1 0-.4-.4-.7-.6-.7m.8-4.3c.3 0 .4.2.4.4m-.5-3.9c.1.4.4.6.7.8m19.8 4.3c.2.3.1 1-.6 1-.3 0-.5-.1-.6-.3m-1.1-4.9v2.2m-19 2.3c.2.1.5-.1.4-.4-.1-.2-.3-.4-.7-.1-.4.3-.3 1.1.5 1.1.6 0 1-.9.5-1.6-.6-.6-1.6-.5-2.2 0-.3.2-.8.8-1 1.6-.1.2-.1.4-.1.7 0 .2 0 .3.1.6.1.5.3.8.4 1 .1.1.1.2.2.2.1.1.1.2.3.3.4.3.9.6 1.4.5.6 0 1-.5.9-1-.1-.5-.6-.8-.9-.5-.2.2-.3.7.1.8.2.1.4-.2.3-.4m17.7-9.9c.4-.2.7-.2.9.1.2.3.3.7.2 1-.1.4-.2.5-.5.8m.3-1.7c.4-.3.9-.2 1.1.2.2.3.2.5.2.8 0 .6-.4 1-.8 1.3m1.5-1.3c.3 0 .6.3.6.7 0 .5-.1.8-.6 1.3-.4.5-1.5 1.2-1.4 2 0 .3.3.6.5.6m1 1.3c-.2.1-.5-.1-.3-.3.1-.2.3-.4.6-.2.4.3.3 1.1-.5 1.1-.6 0-1.1-.9-.5-1.6.6-.6 1.6-.5 2.3 0 .3.2.8.8 1 1.6.1 1 .1 2.2-.9 2.9-.4.3-1 .4-1.5.4-.6 0-1-.5-.9-1 .1-.5.6-.7.9-.5.4.2.3.7-.1.8-.2 0-.4-.2-.3-.4m-.2-3.1c.1-.5.5-.5.8-.5.9 0 1.5 1.1 1.5 2.1 0 1.3-.6 2.1-1.5 2.1-.2 0-.7-.1-.7-.4m.5-3.5c1 .2 1.3 1.1 1.3 1.9 0 .7-.1 1.6-1.4 1.9m1.7 5.4c0-.4-.2-.6-.5-.6s-.5.2-.5.5c0 .2.1.3.2.4m-1.2-1.1c.2.3.4.6.9.8m-.2 1.4c-.5-.3-1.3-.7-2.1-.3-.3.1-.5.3-.6.6-.2.5 0 1.1.2 1.3.1.1.4.4.7.4.5 0 .6-.4.7-.4.1-.4-.2-.5-.3-.6-.1 0-.4 0-.4.2v.3m-6.3 5.8c.1.3 0 .4-.2.5-.3 0-.5-.2-.5-.4 0-.3.3-.7.6-.6.3 0 .6.2.7.5l.1.3c0 .2-.1.4-.2.6-.2.2-.4.3-.7.3-.6 0-1-.5-1-1.1 0-1.1 1.6-1.6 2.2-1.8.8-.2 1.2-.3 2.5-.3.5 0 .9 0 1.4-.1l1.2-.2c.6-.1 1.2-.4 1.7-.9.4-.4.6-.6.8-1.1.2-.4.2-1.3-.2-1.9-.4-.6-.9-.8-1.4-.9-.5-.1-1 .1-1.2.7-.1.2-.1.7 0 .8.1.2.3.4.7.4.5 0 .6-.4.7-.4.1-.4-.2-.5-.3-.6-.1 0-.4 0-.4.2v.3m-6.9 4c-.7.3-1.2.5-1.6 1.2-.1.2-.2.5-.2.7 0 .4.2.8.5 1 .3.2.6.3.9.3.3 0 .5-.2.6-.4M53 26.9c-.3.1-.5.6-.5 1 0 .5.3.8.5 1m.3-.3c-.6.7-.9 1.1-.9 1.9 0 .8.2 1.3.7 1.9M50.3 17c.3-.4.7-.5 1-.3.4.3.5.7.4 1.2-.1.3-.3.6-.6.7m-14.6-1.8c-.4-.2-.6-.1-.9.1-.3.3-.3.7-.2 1 .1.4.2.5.5.8m-.3-1.7c-.4-.3-.9-.2-1.1.2-.2.3-.2.5-.2.8 0 .6.4 1 .8 1.3m-.8-1.9c-.5.1-.8.4-.8.9 0 .6.1.9.5 1.3.3.5 1.5 1.3 1.5 2.3 0 .6-.2 1-.6 1.2-.3.1-.6 0-.7-.1-.4-.3-.2-.9.2-1 .5-.1.5.6.1.6m-.9-4.6c-.3 0-.7.3-.7.7 0 .5.2.8.6 1.3.4.5 1.4 1.2 1.4 2 0 .3-.2.6-.4.6m-1.8 6c.2-.4.6-.2.6 0 .1.5-.4.7-.7.6-.2 0-.3-.1-.3-.3-.1-.1-.1-.3-.1-.5 0-.1.1-.2.1-.2l.2-.2c.1-.1.3-.1.5-.1.8 0 1.4.9 1.7 1.8.1.3.2 1 0 1.7s-.5 1.2-.8 1.5c-.2.2-.5.4-.8.6-.1.1-.4.2-.6.2-.2.1-.4.1-.5 0-.4-.1-.6-.5-.4-1 .2-.4.7-.5 1-.1 0 0 .1.1.1.2l-.1.3c-.3.3-.6.2-.6-.1m.1.3c.1.1.2 0 .4 0l.3-.1c.4-.2.8-.5 1.2-1.2.1-.2.2-.4.2-.6l.1-.5c0-.3 0-.5-.1-.9-.1-.5-.2-.8-.6-1.2-.2-.2-.3-.3-.6-.4m-1.3 4.2c0-.4.2-.6.5-.6s.5.2.5.5c0 .2-.1.3-.2.4m-.6-.9c0-.2.2-.4.5-.4s.5.2.5.5l-.1.4m.1-.5c.5-.3.9-1 .9-1.7 0-.6-.2-1.1-.5-1.4m.3 2.9c-.2.3-.4.6-.9.8m2.3 1.1c-.1-.3-.4-.4-.8-.5-.4 0-.8.1-1.1.3-.7.4-1.1.8-1.4 1.6-.1.2-.1.5-.1.8 0 .5.1 1 .3 1.3.1.2.4 1.2 2.1 1.9 1 .4 2.5.5 3.5.5 1.4.1 2.8.1 3.5 1.1M33 34c.5-.3 1.3-.7 2.1-.3.3.1.5.3.6.6.2.5 0 1.1-.2 1.3-.2.2-.5.4-.8.4-.5 0-.6-.4-.7-.4 0-.4.2-.6.3-.6.1 0 .4 0 .4.2v.3m0-.1c0-.2 0-.3-.1-.5s-.5-.3-.8-.1c-.1.1-.2.1-.3.3 0 .1-.1.2-.2.2-.1.2-.1.3-.1.3-.3 1 .2 2 .9 2.4.6.4 1.2.5 2 .6.4 0 .6 0 .9.1h2.4c.4 0 .7 0 1 .1.2 0 .5.1.8.1.1 0 .2 0 .2.1.1 0 .1 0 .2.1.5.1 1 .3 1.3.6l.3.2.2.2c.3.3.5.5.6.9v.2c0 .2-.2.6-.7.7m-2.2-.6c-.1.3 0 .4.2.5.3 0 .5-.2.5-.4 0-.3-.3-.7-.6-.6-.3 0-.6.2-.7.5l-.1.3c0 .2.1.4.2.6.2.2.4.3.7.3.6 0 1-.5 1-1.1 0-1.1-1.6-1.6-2.2-1.8-.8-.2-1.2-.3-2.5-.3-.5 0-.9 0-1.4-.1L35 39c-.6-.1-1.2-.4-1.7-.9-.4-.4-.6-.6-.8-1.1-.2-.4-.2-1.3.2-1.9.4-.6.9-.8 1.4-.9.5-.1 1 .1 1.2.7.1.2.1.7 0 .8 0 .1-.3.3-.6.3-.5 0-.6-.4-.7-.4 0-.4.2-.6.3-.6.1 0 .4 0 .4.2v.3M37.6 17c-.3-.4-.7-.5-1-.3-.4.3-.5.7-.4 1.2.1.3.3.6.6.7m13.6-.6c-.6.6-1.1.8-1.9.8-.3 0-.8-.1-1-.3-.2-.1-.4-.4-.3-.7.1-.3.5-1 .5-1.5 0-.8-.3-1.2-.7-1.4-.9-.3-1.8.5-2.3.7-.3.1-.4.1-.7.1-.3 0-.4 0-.7-.1-.6-.2-1.5-1-2.3-.7-.5.2-.8.6-.7 1.4 0 .5.4 1.2.5 1.5.1.4-.1.6-.3.7-.3.2-.8.3-1 .3-.8 0-1.4-.2-1.9-.8m3.3 21.3.7.3c.7.3 1.1.6 1.6 1.2.1.2.2.5.2.7v.3m-2.5.5c.1.1.3.1.4.1.6 0 1-.5 1-1.1 0-.4-.2-.7-.5-1m-.7 1c-.1.3.1.5.3.5.3 0 .5-.2.5-.4s-.1-.5-.3-.6m12-23.4c.4 0 .8.5.8 1 0 .6-.3.9-.5 1.2l-.6.6m-.2-3.3c.2.1.3.2.4.3.2.3.2.5.2.8 0 .6-.4 1-.8 1.2m-.7-2.3c.1 0 .1.1 0 0 .3.4.4.8.3 1.1-.1.4-.2.5-.5.8m-.7-2c.4.3.5.7.4 1.2-.1.3-.3.6-.6.7m1.5 5.7c0 .1.1.2.2.3.2.2.5.4.8.5.3.1.6 0 .9-.1m-22.4 7.3c.2 0 .3.1.5.3 0 0 .1.1.1.2l-.1.3c-.3.2-.6.1-.6-.2m1.2-5.1c.7.1 1.3.9 1.5 1.8.1.3.2 1 0 1.7s-.5 1.2-.8 1.5l-.3.3-.1.1m-1-1.7c.3 0 .5.3.5.6l-.1.4m-.6-.7c.3 0 .6.3.6.6 0 .2-.1.3-.2.4m2.2-3.9c.3.4.4.7.5 1.1m0 1.2c0 .2-.1.4-.2.6-.1.2-.3.5-.5.6m.3-5.6c.3.2.4.4.5.7m0-1.3c-.1.2-.2.4-.5.6m-1.3-2.4.3-.1.2-.1.1-.2.1-.2v-.2m-1.3-.2-.3.1c-.2.1-.3.2-.5.4s-.3.6-.3.8c0 .1-.1.5 0 .9.1.3.2.6.3.8l.1.2c.2.2.3.3.6.2m1.8-4.7c0 .2-.1.4-.4.4m-.6.8c-.3-.3-.8-.3-1.4 0-.1 0-.1.1-.2.2l-.2.2-.2.3c-.1.1-.1.2-.1.4-.1.4-.1.8-.1.9v.4c.1.4.2.7.3.8.1.2.4.7 1.1.7.2 0 .7-.1.7-.4M50 17.7c0-.2.3-.3.4-.1.2.2.1.6-.3.7-.1 0-.4 0-.5-.2-.1-.2-.1-.4-.1-.6 0-.1.1-.2.2-.3.4-.3 1-.2 1.2.3.3.6-.3 1.1-.8 1.4-.6.4-1.4.5-1.9.5-1.3 0-2.2-.6-2.8-1-.1-.1-.3-.1-.4 0-.1.1-.1.3 0 .4m5.3-1.3c.1 0 .2.1.2.1.2.2 0 .6-.3.7m2.5 7c-.5.5 0 1.4.3 1.6l.3.1m-.6-2.7c-.2.1-.2.2-.2.4s0 .4.2.6c.3.3.8.5 1.3.5.3 0 .5-.1.8-.2.3-.2.5-.5.5-.7"/><path d="M52.4 33.4v.3c-.1.4-.1.6-.3 1-.2.3-.3.5-.6.8-.3.3-.5.4-.8.6-.3.2-.5.2-.9.3-.4.1-.6.1-.9.1H48c-.4 0-.6-.1-.9-.1-.3 0-.5-.1-.8 0-.3 0-.5 0-.8.1l-.7.2c-.4.1-.8.4-.9.5-.1-.1-.5-.4-.9-.5l-.7-.2c-.3-.1-.5-.1-.8-.1h-.8c-.4 0-.6.1-.9.1h-.9c-.4 0-.6 0-.9-.1-.4-.1-.6-.1-.9-.3-.3-.2-.5-.3-.8-.6-.3-.3-.4-.4-.6-.8-.2-.3-.2-.6-.3-1V19.4h16.9l.1 14z"/></g><g fill="#C8B480"><path stroke="#C8B480" stroke-width=".045" d="M34.1 35.4c0-.2.2-.3.3-.3.2 0 .3.2.3.3 0 .2-.2.3-.3.3-.2 0-.3-.1-.3-.3zM32 32.9c0-.2.1-.3.2-.3s.2.1.2.3c0 .2-.1.3-.2.3-.1.1-.2-.1-.2-.3z"/><path d="M33.2 26.8c0-.1.1-.3.2-.3s.2.1.2.3c0 .1-.1.3-.2.3s-.2-.1-.2-.3zm4.2-9c0-.1.1-.3.2-.3s.2.1.2.2-.1.3-.2.3c-.1.1-.2 0-.2-.2z"/></g><path d="M32.9 28.3c-.1 0-.1 0-.1.1 0 0 0 .1-.1.1v.2m.6 3.6c0-.1.1-.1.1-.1l.1-.1s0-.1.1-.1l.1-.2m-.2 1.8-.2.1-.2.1-.2.1-.2.1m2.2-5.1-.1-.1-.1-.1-.1-.1M35 27l-.2.1h-.2m-2-2.3c0 .1 0 .1.1.2l.1.2.2.2.2.2.2.1m-.1-.8.2.1c.1 0 .1 0 .2.1h.5m.9-5.7-.3-.2-.3-.2-.2-.2-.1-.2m1.1-.5c0 .1 0 .1.1.2l.2.3c.1.1.2.2.4.3m.2-.8c0 .1 0 .1.1.2l.1.2.2.2.3.2" stroke="#C8B480" stroke-width=".087" fill="none"/><path fill="#713E2A" stroke="#713E2A" stroke-width=".024" d="M45.8 16.9c0-.2-.2-.3-.3-.3-.3 0-.3.2-.6.3-.4.2-.6.3-.9.3-.4 0-.5-.1-.9-.3-.3-.2-.4-.3-.6-.3-.1 0-.3.1-.3.3v.1c0-.1 0-.2.1-.2.1-.1.2-.1.2-.1.3 0 .3.2.7.3.4.2.6.3.9.3.4 0 .5-.1.9-.3.3-.2.4-.3.7-.3 0 .1 0 .2.1.2v.1-.1z"/><path d="m36.4 36.5.1-.1h-.1s-.1 0-.1-.1h-.1c0 .1.1 0 .1.2 0 0 0 .1-.1.2l-.4.4v-.8l.1-.1s-.1 0-.2-.1c0 0-.1 0-.1-.1h-.1c.1 0 .1.1.1.1v1.1h.1l.7-.7zm.4.2c0-.1.1-.1.2-.1-.1 0-.1 0-.2-.1 0 0-.1 0-.2-.1h-.1c0 .1.2.1.1.2l-.2.8c0 .1-.1.1-.2.1h.2c.1 0 .2.1.2.1h.1c0-.1-.2 0-.1-.2l.2-.7zm.5.1c0-.1.1-.1.1-.1.1 0 .2.2.1.3 0 .1-.1.2-.3.1 0 0-.1 0-.1-.1l.2-.2zm-.4.7c-.1.2-.2.1-.2.2.1 0 .1 0 .2.1h.2c0-.1-.1 0-.1-.2l.1-.3c0-.1 0-.1.1 0 .1 0 .1 0 .1.1v.3c0 .1 0 .2.1.3h.2c0-.2-.1-.5-.1-.5h.1c.1 0 .1-.1.1-.2s.1-.3-.3-.4l-.3-.1c-.1 0-.1 0-.2-.1 0 .1.2 0 .1.2l-.1.6zm1.2.4c0 .2-.2.1-.2.1h.2c.1 0 .1 0 .2.1h.1s-.2 0-.1-.2l.2-.7c0-.1 0-.1.1-.1h.1c.2 0 .1.2.1.2V37c-.1 0-.2 0-.4-.1s-.3-.1-.4-.1l-.1.2v.1l.2-.2h.1c.1 0 .1 0 .1.1l-.2.9zm1.7-.5.1-.1h-.3c0 .1.1 0 .1.2 0 0 0 .1-.1.2l-.3.5-.1-.6v-.2l.1-.1h-.4c.1 0 .1 0 .1.1l.2 1v.1l.6-1.1zm.1.9c.1.1.2.2.3.2.2 0 .3-.1.4-.3 0-.2-.1-.3-.2-.4-.2-.1-.3-.2-.2-.3 0-.1.1-.2.2-.1.3 0 .2.3.3.4v-.3h-.1s-.1-.1-.2-.1c-.2 0-.3.1-.3.3 0 .2 0 .2.2.3.2.2.3.2.3.3 0 .1-.1.2-.2.2-.2 0-.2-.2-.2-.4v.1l-.3.1zm2.2-.6c0-.1.1-.1.1-.1h-.3c0 .1.1 0 .1.2 0 0 0 .1-.1.2l-.2.5-.2-.5v-.2l.1-.1h-.5c.1 0 .1 0 .1.1l.3 1v.1l.6-1.2zm.2.8c0 .2-.1.1-.1.2h.4c0-.1-.2.1-.3-.2l.1-.6.7.9v-.9c0-.2.1-.1.1-.2h-.4c0 .1.2 0 .2.2v.6l-.6-.7H42c0 .1.2 0 .2.3l.1.4zm1.4-.7c0-.2.1-.1.1-.2h-.6c0 .1.2 0 .2.2v.8c0 .2-.1.1-.1.2h.4c0-.1-.2 0-.2-.2l.2-.8zm.6.7c0 .2-.2.1-.2.2h.6s-.2 0-.2-.2v-.7c0-.1 0-.1.1-.1h.1c.2 0 .1.2.2.2v-.3h-1v.3c.1 0 0-.2.2-.2h.1c.1 0 .1 0 .1.1v.7zm.9-.3.1-.4.1.3v.1h-.2zm.3.1.1.1v.1c0 .1-.1.1-.1.1h.5l-.1-.1-.5-1v.1l-.3 1c0 .1-.1.1-.1.1h.3s-.2 0-.2-.1v-.1c0-.1.1-.1.1-.1l.3-.1zm1.1-.7c0-.1 0-.1.2-.1.3 0 .2.2.3.2v-.3c-.1 0-.2 0-.3.1h-.4l.2.1.1.8c0 .2-.1.1-.1.2h.5s-.2 0-.2-.2v-.3h.1c.2 0 .1.2.2.2v-.4s0 .2-.1.2H47c-.1 0-.1 0-.1-.1l-.3-.4zm.5.4c.1.3.3.5.6.5.5-.1.5-.5.4-.7-.1-.3-.3-.5-.6-.5s-.4.3-.4.7zm.2-.1c0-.2 0-.5.2-.5s.4.1.5.5c0 .3 0 .5-.2.6-.3-.1-.5-.4-.5-.6zm1.1-.6c0-.1 0-.1.1-.1s.3.1.3.2 0 .2-.2.2h-.1l-.1-.3zm0 .8c0 .2-.1.2-.1.2h.1c.1 0 .1 0 .2-.1h.1l-.2-.1-.1-.3c0-.1 0-.1.1-.1s.1 0 .2.1l.3.2c.1.1.1.2.3.1.1 0 .1-.1.1-.1h-.1c-.2-.2-.3-.4-.3-.4l.1-.1s.1-.1 0-.2c0-.1-.1-.3-.4-.2l-.3.1h-.2l.2.1v.8zm1.2-.3c0 .2-.1.2-.1.2h.1c.1 0 .1 0 .2-.1h.2s.1 0 .1-.1c0 0-.2 0-.2-.1l-.3-.7c0-.1 0-.1.1-.1h.1c.2-.1.2.1.2.1v-.2c-.1 0-.2.1-.4.1-.2.1-.3.1-.4.1v.3l.1-.3h.1c.1 0 .1 0 .1.1l.1.7zm.8-1c0-.2.1-.1.1-.2h-.1c-.1 0-.1 0-.2.1H50l.2.1.2.8c0 .2-.1.1-.1.2 0 0 .1 0 .2-.1.1 0 .2 0 .2-.1s-.2.1-.2-.1l-.1-.7zm.3.4c.1.3.4.5.6.4.4-.1.4-.6.3-.8-.1-.3-.4-.5-.7-.4-.2.1-.3.4-.2.8zm.1-.2c-.1-.2-.1-.5.2-.5.2-.1.4.1.5.4.1.3.1.5-.2.6-.2 0-.4-.3-.5-.5zm1.1-.7c0-.1 0-.1.1-.1.1-.1.3 0 .3.2 0 .1.1.2-.1.3h-.1l-.2-.4zm.1.8c.1.2-.1.2 0 .2h.1l.2-.1h.1c0-.1-.1.1-.2-.1l-.1-.3v-.1h.2l.2.2c.1.1.2.2.3.1.1 0 .1-.1.1-.1h-.1c-.2-.2-.4-.3-.4-.3l.1-.1v-.2c0-.1-.1-.3-.4-.2l-.3.1c-.1 0-.1 0-.2.1 0 .1.1-.1.2.1l.2.7z" fill="#713E2A"/><path fill="#D42E27" d="M36.3 20.2h7.2v7.2h-7.2v-7.2z"/><path fill="#fff" d="M39.7 25.9s0 .3-.1.5l-.2.4c-.1.2-.2.3-.3.3-.2.1-.3.2-.5.2-.5 0-.7-.6-.8-1-.1-.5-.4-.7-.7-.5-.1.1-.1.3 0 .4.1.2.4.2.4.2l-.3.3s-.6-.1-.7-.7c0-.2.1-.6.4-.7.5-.2.8.2.9.5.2.4.3 1.1.8 1 .3-.1.4-.5.4-.7l.2-.2h.5zm827.621 0s0 .3-.1.5l-.2.4c-.1.2-.2.3-.3.3-.2.1-.3.2-.5.2-.5 0-.7-.6-.8-1-.1-.5-.4-.7-.7-.5-.1.1-.1.3 0 .4.1.2.4.2.4.2l-.3.3s-.6-.1-.7-.7c0-.2.1-.6.4-.7.5-.2.8.2.9.5.2.4.3 1.1.8 1 .3-.1.4-.5.4-.7l.2-.2h.5z"/><path fill="#FDDF00" d="m40.6 22.8.9-1s.1-.1.1-.3h-.2v-.2l.3-.1V21h-.3v-.2h.4c.2-.3.8-.6 1.3-.1.3.3.3 1-.2 1.2-.2.1-.4 0-.6-.1l.2-.3c.2.1.4 0 .4-.2s-.2-.4-.4-.4-.3.1-.4.3c-.1.1 0 .2 0 .3v.3c0 .1-.1.2-.2.3l-1 1.1-3.8 4.1-.3-.3 3.8-4.2z"/><path fill="#fff" d="M37.8 23.2s.2 1.2 1 2.9c.4-.2.7-.2 1.1-.2.4 0 .7.1 1.1.2.8-1.8 1-2.9 1-2.9l-2.1-2.7-2.1 2.7z"/><path fill="#FDDF00" d="m40.1 21.4 1.5 1.9s-.2.9-.8 2.3c-.2-.1-.4-.1-.7-.1v-4.1zm-.4 0-1.5 1.9s.2.9.8 2.3c.2-.1.4-.1.7-.1v-4.1zm4.6-1.2h7.2v7.2h-7.2v-7.2z"/><path fill="#D42E27" d="M45.3 20.2h1.1v7.2h-1.1v-7.2zm2.1 0h1.1v7.2h-1.1v-7.2zm2.1 0h1.1v7.2h-1.1v-7.2z"/><path fill="#FDDF00" d="M36.3 33.7c0 .1.1.4.2.6.1.2.1.2.4.5.1.2.4.3.5.4.2.1.3.1.6.2.6.2 1 .2 1.5.1.4 0 .7-.1.9-.1.3 0 .6-.1 1-.1h.5c.2 0 .4 0 .6.1.5.1 1 .3 1 .3v-7.5h-7.2v5.5z"/><path fill="#D42E27" stroke="#D42E27" stroke-width=".045" d="m37.2 35 .3.2.5.2v-7.2h-.8V35zm4 .4v-7.1h-.8v7.3c0-.1.5-.2.8-.2zm1.6-7.2H42v7.2l.8.1v-7.3zm-3.2 0v7.3h-.8v-7.3h.8z"/><path fill="#FDDF00" d="M51.5 33.7c0 .1-.1.4-.2.6-.1.2-.1.2-.4.5-.1.2-.4.3-.5.4-.2.1-.3.1-.6.2-.6.2-1 .2-1.5.1-.4 0-.7-.1-.9-.1-.3 0-.6-.1-1-.1h-.5c-.2 0-.4 0-.6.1-.5.1-1 .3-1 .3v-7.5h7.2v5.2c.1 0 0 .2 0 .3z"/><path fill="#D42E27" d="m46.2 28.8-.1.1s-.1 0-.1.1h-.1v.1s0 .1-.1.1l-.1.1-.1.1-.1.1v.1l.1.1v.1h.3c.1 0 .1.1.1.1h.3l.2.1v.1c.1.2.1.3.1.3.1 0 .1.1.1.1-.1.1-.1.1-.1.2-.1.1-.1.1 0 .2l.1.2c0 .1 0 .1.1.2v.2h.1l.1-.1.1-.1v-.2l.1-.1s0-.1-.1-.1c-.1-.1-.1-.1-.1-.2v-.1l.2-.2h.3v1s-.1 0-.1.1v.1h.3v-.1h.1V31c0-.1 0-.1.1-.2v-.2h.9c.1.1.2.1.2.1v.2h.1v-.2h.2v.1-.2h.1v.2s0 .1-.1.1c0 .1-.1.1-.1.1v.1l-.1.1s0 .1-.1.1-.1 0-.2.1v.1h.2v-.1h.2s0-.1.1-.1c.1-.2.1-.2.3-.3l.1-.1v-.3l.1.1v.7c0 .1-.1.1-.1.1h-.1v.1h.2v-.1h.1v-.1c0-.2 0-.3.1-.4v-.3c.1-.2 0-.2-.1-.3 0-.1-.1-.1-.1-.1v-.5l.2-.2v-.4c-.1-.1-.2-.1-.2-.1H49c-.2 0-.3 0-.5.1h-.9c-.2 0-.2.1-.5.1h-.3l-.2-.1c.1 0 .1 0 .1-.1V29s0-.1.1-.1h-.3s-.1 0-.1.1c0 0-.1-.1-.2-.1.1 0 .1-.1 0-.1zm.1 1.1z"/><g stroke="#FDDF00"><path d="M50.1 29.9c-.2.1-.3.1-.3.1l-.6-.1-.3.1h-.1v-.1h-.3l.1-.1h-.1s-.1 0-.1-.1h.1l.3-.1c.1 0 .3 0 .7.1h.5c.1 0 .1-.1.1-.2s0-.1-.1-.2h-.1" fill="none"/><path fill="#FBD901" d="M46.2 29.2h-.1s0 .1-.1.1h.2v-.1z"/><path d="M47.2 30.3c.1.1.1.1.1.2v.3m.6-.6v.1l-.1.3v.1m-1-.4c.1 0 0 .3.2.4m2.3.1.3-.2m-1 .1c.3-.1.5-.2.7-.3m-.4-.1c.2 0 .2.1.3.1l.4.3h.1" fill="none"/><path fill="#FBD901" d="M45.6 29.5h.2-.1c0 .1-.1.1-.1 0z"/></g><path d="M46.2 30.3c-.1 0-.2-.1-.2-.1h.1s0-.1.1-.1c0 0 0-.1.1-.1h.1s.1 0 .1.1v.3c-.1 0-.2 0-.3-.1zm-.1.1c.1-.1.1 0 .1 0 0 .1 0 .1-.1 0 .1.1 0 .1 0 0zM46 29s0-.1-.1-.1v-.4h.1s0 .1.1.1v.3l-.1.1zm.3.9.2.1.3-.3c.1-.2.1-.2.1-.4l-.2-.1-.1.4-.3.3zm.4 1.6s0-.1.1-.1l.1-.1v.3c-.1 0-.2 0-.2-.1zm2.9.2h.1c.1 0 .1.1.1.1h-.4c.1 0 .2-.1.2-.1zm-.8-.2h.1c.1 0 .1.1.1.1h-.4l.2-.1zm-1.6.2h.1c.1 0 .1.1.1.1H47c.2 0 .2-.1.2-.1zm-.7-2.6c-.1 0-.1-.1-.1-.1v-.4l.1-.1v.2s0 .1.1.1v.2s0 .1-.1.1z" fill="#2166B1"/><path fill="#D42E27" d="m46.2 32-.1.1s-.1 0-.1.1h-.1v.1s0 .1-.1.1l-.1.1-.1.1-.1.1v.1l.1.1v.1h.3c.1 0 .1 0 .1.1h.3l.2.1v.1c.1.2.1.3.1.3.1 0 .1.1.1.1-.1.1-.1.1-.1.2-.1.1-.1.1 0 .2l.1.2c0 .1 0 .1.1.2v.2h.1l.1-.1.1-.1v-.2l.1-.1s0-.1-.1-.1c-.1-.1-.1-.1-.1-.2v-.1l.2-.2h.3v1s-.1 0-.1.1v.1h.3v-.1h.1v-.5c0-.1 0-.1.1-.2v-.2h.9c.1.1.2.1.2.1v.2h.1v-.2h.2v.1-.2h.1v.2s0 .1-.1.1c0 .1-.1.1-.1.1v.1l-.1.1s0 .1-.1.1-.1 0-.2.1v.1h.2v-.1h.2s0-.1.1-.1c.1-.2.1-.2.3-.3l.1-.1v-.3l.1.1v.7c0 .1-.1.1-.1.1h-.1v.1h.2v-.1h.1v-.1c0-.2 0-.3.1-.4v-.3c.1-.2 0-.2-.1-.3 0-.1-.1-.1-.1-.1V33l.2-.2v-.4c-.1-.1-.2-.1-.2-.1H49c-.2 0-.3 0-.5.1h-.9c-.2 0-.2.1-.5.1h-.3l-.2-.1c.1 0 .1 0 .1-.1v-.1s0-.1.1-.1h-.3s-.1 0-.1.1c0 0-.1-.1-.2-.1.1 0 .1 0 0-.1zm.1 1.1z"/><g stroke="#FDDF00"><path d="M50.1 33.2c-.1.1-.2.1-.3.1l-.6-.1-.3.1h-.1v-.1h-.3l.1-.1h-.1s-.1 0-.1-.1h.1l.3-.1c.1 0 .3 0 .7.1h.5c.1 0 .1-.1.1-.2s0-.1-.1-.2h-.1" fill="none"/><path fill="#FBD901" d="M46.2 32.4h-.1s0 .1-.1.1h.2v-.1z"/><path d="M47.2 33.5c.1.1.1.1.1.2v.3m.6-.6v.1l-.1.3v.1m-1-.3c.1 0 0 .3.2.4m2.3.1.3-.2m-1 0c.3-.1.5-.2.7-.3m-.4-.1c.2 0 .2.1.3.1l.4.3h.1" fill="none"/><path fill="#FBD901" d="M45.6 32.7h.2-.1c0 .1-.1.1-.1 0z"/></g><path d="M46.2 33.6c-.1 0-.2-.1-.2-.1h.1s0-.1.1-.1c0 0 0-.1.1-.1h.1s.1 0 .1.1v.3c-.1-.1-.2-.1-.3-.1zm-.1.1c.1-.1.1 0 .1 0h-.1zm-.1-1.5s0-.1-.1-.1v-.4h.1s0 .1.1.1v.3l-.1.1zm.3.9.2.1.3-.3c.1-.2.1-.2.1-.4l-.2-.1-.1.4-.3.3zm.4 1.6s0-.1.1-.1l.1-.1v.3c-.1 0-.2 0-.2-.1zm2.9.2h.1c.1 0 .1.1.1.1h-.4c.1 0 .2-.1.2-.1zm-.8-.2h.1c.1 0 .1.1.1.1h-.4l.2-.1zm-1.6.2h.1c.1 0 .1.1.1.1H47c.2 0 .2-.1.2-.1zm-.7-2.6c-.1 0-.1-.1-.1-.1v-.4l.1-.1v.2s0 .1.1.1v.2s0 .1-.1.1z" fill="#2166B1"/><path d="M36.3 20.2h7.2v7.2h-7.2v-7.2zm8 0h7.2v7.2h-7.2v-7.2zm-8 13.5c0 .1.1.4.2.6.1.2.1.2.4.5.1.2.4.3.5.4.2.1.3.1.6.2.6.2 1 .2 1.5.1.4 0 .7-.1.9-.1.3 0 .6-.1 1-.1h.5c.2 0 .4 0 .6.1.5.1 1 .3 1 .3v-7.5h-7.2v5.5zm15.2 0c0 .1-.1.4-.2.6-.1.2-.1.2-.4.5-.1.2-.4.3-.5.4-.2.1-.3.1-.6.2-.6.2-1 .2-1.5.1-.4 0-.7-.1-.9-.1-.3 0-.6-.1-1-.1h-.5c-.2 0-.4 0-.6.1-.5.1-1 .3-1 .3v-7.5h7.2v5.2c.1 0 0 .2 0 .3z" stroke="#713E2A" stroke-width=".07" fill="none"/></svg>
