<svg xmlns="http://www.w3.org/2000/svg" width="85" height="57"><path fill="#0499C4" d="M-.02.153h85.04V19.05H-.02z"/><path fill="#DF1D37" d="M-.02 19.052h85.04V37.95H-.02z"/><path fill="#04AE65" d="M-.02 37.95h85.04v18.896H-.02z"/><path d="M42.498 35.582a7.082 7.082 0 1 1 0-14.163c2.127 0 4.03.94 5.327 2.426a8.502 8.502 0 0 0-7.12-3.857 8.512 8.512 0 1 0 0 17.024c2.982 0 5.6-1.536 7.123-3.857a7.068 7.068 0 0 1-5.33 2.425zm7.656-11.762.897 2.518 2.415-1.148-1.147 2.414 2.518.897-2.518.896 1.147 2.415-2.414-1.147-.896 2.52-.894-2.52-2.416 1.148 1.148-2.414-2.52-.895 2.52-.896-1.148-2.414 2.416 1.148" fill="#FFF"/></svg>
