<svg xmlns="http://www.w3.org/2000/svg" width="85" height="57" xml:space="preserve"><path fill="#263678" d="M-.02.153h28.346v56.693H-.02z"/><path fill="#FFC829" d="M28.326.153h28.348v56.693H28.326z"/><path fill="#263678" d="M56.674.153H85.02v56.693H56.674z"/><g fill="#010101"><path d="M54.639 18.524c-5.5 8.938-5.68 14.375-5.531 16.761 0 0-4.656-.917-5.166-.627-1.428.366 0-2.652 0-2.652s1.666.144 3.072.362c1.094-8.406 2.617-10.441 2.617-10.441l-1.398-.145c-.001 0 2.484-2.773 6.406-3.258z"/><path d="M46.268 21.653c-2.207-2.301-3.223-5.566-3.768-6.992l-.002 6.551h-1.484v20.813h2.938V21.332c.579-.005 1.329.067 2.316.321z"/><path d="M30.361 18.524c5.5 8.938 5.678 14.375 5.531 16.761 0 0 4.656-.917 5.166-.627 1.428.366 0-2.652 0-2.652s-1.666.144-3.072.362c-1.094-8.406-2.619-10.441-2.619-10.441l1.398-.145c.001 0-2.482-2.773-6.404-3.258z"/><path d="M38.73 21.653c2.209-2.301 3.225-5.566 3.77-6.992l.002 6.551h1.484v20.813h-2.938V21.332c-.579-.005-1.331.067-2.318.321z"/></g></svg>
