<svg xmlns="http://www.w3.org/2000/svg" width="85" height="57"><path d="M72.59 56.847H-.02V.153h15.897m56.713 0h12.43v56.693H72.59z" fill="#293789"/><path fill="#FECC08" d="M15.877.153 72.59 56.847V.153"/><path fill="#FFF" d="m45.002 46.298 1.193-3.63-3.203-2.384h3.984l1.202-3.662 1.23 3.662h3.982l-3.23 2.383 1.195 3.63-3.177-2.157-3.176 2.158zm-10.968-16.28 3.177 2.157-1.193-3.63 3.23-2.384h-3.984l-1.23-3.66-1.2 3.66h-3.985l3.203 2.384-1.192 3.63 3.176-2.157zm7.064 7.04 3.177 2.158-1.194-3.63 3.23-2.384h-3.983l-1.23-3.662-1.2 3.662H35.91l3.203 2.383-1.193 3.63 3.176-2.157zM5.616 1.683 8.793 3.84 7.6.21l.076-.057h-4.12L3.63.21 2.44 3.84l3.178-2.157zm50.918 45.685-1.23-3.662-1.2 3.662h-3.985l3.202 2.383-1.193 3.632 3.178-2.158 3.177 2.158-1.194-3.63 3.23-2.384h-3.986zM13.97 4.91l-1.23-3.66-1.202 3.66H7.554l3.203 2.384-1.193 3.63 3.18-2.157 3.176 2.158-1.194-3.63 3.23-2.384H13.97zm12.98 18.025 3.178 2.158-1.194-3.63 3.23-2.384H28.18l-1.23-3.663-1.2 3.662h-3.985l3.203 2.382-1.193 3.63 3.176-2.157zm37.426 33.912-.004-.012 3.23-2.383h-3.984l-1.23-3.662-1.2 3.662h-3.985l3.203 2.383-.006.012h3.976zM19.826 15.85 23 18.01l-1.194-3.632 3.23-2.383h-3.984l-1.23-3.662-1.2 3.662h-3.985l3.202 2.383-1.193 3.63 3.175-2.157z"/></svg>
