<svg version="1.1" id="Layer_1" xmlns="http://www.w3.org/2000/svg" x="0" y="0" viewBox="0 0 85 57" style="enable-background:new 0 0 85 57" xml:space="preserve"><style>.st11{fill:#fff}.st112,.st113{fill:#a05a2c;stroke:#000;stroke-width:1.676818e-02}.st113{fill:#e7e7e7}.st114{fill:#00e519}.st114,.st115,.st116{stroke:#000;stroke-width:1.839091e-02}.st115{fill:#ffe533}.st116{stroke-linecap:round}.st116,.st117{fill:none}.st117,.st118,.st119,.st120{stroke:#000;stroke-width:1.839091e-02}.st118{fill:#a05a2c}.st119{fill:#cce5e5}.st120{fill:#e7e7e7}.st124,.st126{fill:none;stroke:#000;stroke-width:1.823636e-02}.st126{fill:#cce5e5}.st129,.st130{fill:#e7e7e7;stroke:#000;stroke-width:2.774091e-02}.st130{fill:#007934;stroke-width:.1159}.st130,.st131,.st132{fill-rule:evenodd;clip-rule:evenodd}.st131{fill:#d52b1e;stroke:#000;stroke-width:.1159}.st132{fill:#ffe000}.st132,.st133,.st134,.st135,.st136{stroke:#000;stroke-width:.1159}.st133{fill-rule:evenodd;clip-rule:evenodd;fill:#f7e214}.st134{fill:#d52b1e}.st135{fill:#ffe000}.st136{fill:#007934}.st137{fill:#f7e214}.st137,.st138,.st139,.st140{stroke:#000;stroke-width:.1159}.st141{stroke:#000}.st138{fill:#007a3d}.st139{fill:none}.st140,.st141{fill:#e8a30e}.st141{stroke-width:1.676818e-02}.st142,.st143{stroke-width:.1159}.st142{fill:#005000;stroke:#000}.st143{fill:#fff}.st143,.st144,.st145,.st146{fill-rule:evenodd;clip-rule:evenodd;stroke:#000}.st144{fill:#e8a30e;stroke-width:5.563636e-03}.st145,.st146{stroke-width:3.477273e-03}.st145{fill:#e7e7e7;stroke-linejoin:round}.st146{fill:#cccccf}.st147{fill:none}.st147,.st148,.st149{stroke:#000;stroke-width:.1168}.st151{stroke:#000}.st148{fill:none;stroke-linecap:round}.st149{fill:#e8a30e}.st151{fill-rule:evenodd;clip-rule:evenodd;fill:#007934;stroke-width:.1671}.st152{stroke:#000;stroke-width:.1314}.st152,.st153{fill:#d52b1e}.st153,.st157{stroke:#000}.st153{stroke-width:.1738}.st157{fill:#007934;stroke-width:.1872}.st157,.st168{fill-rule:evenodd;clip-rule:evenodd}.st168,.st169{fill:#007934;stroke:#000;stroke-width:.2418}.st172{fill-rule:evenodd;clip-rule:evenodd}.st172,.st173{fill:#007934;stroke:#000;stroke-width:.2348}.st176,.st177,.st189{fill-rule:evenodd;clip-rule:evenodd;stroke:#000}.st176{fill:#007934;stroke-width:.3276}.st177{stroke-width:.1102}.st189{fill:#007934;stroke-width:.3002}.st190{stroke-width:.101}.st190,.st207,.st208,.st217{fill-rule:evenodd;clip-rule:evenodd;stroke:#000}.st207{fill:#007934;stroke-width:.2681}.st208{stroke-width:9.017728e-02}.st217{fill:#007934;stroke-width:.2326}.st218{stroke-width:7.827727e-02}.st218,.st221,.st222{fill-rule:evenodd;clip-rule:evenodd;stroke:#000}.st221{fill:#007934;stroke-width:.2019}.st222{stroke-width:6.792273e-02}.st225{fill:#452c25}.st226{stroke:#000;stroke-width:4.520454e-02}.st226,.st227{fill:none}.st227,.st237{stroke:#000}.st227{stroke-width:3.655000e-02}.st237{fill:#007934;stroke-width:7.881818e-02}.st239,.st240{fill:#e8a30e;stroke:#000;stroke-width:9.844546e-02}.st240{fill:#e7e7e7;stroke-width:.2384}.st244{fill:none;stroke:#e7e7e7;stroke-width:3.268636e-02;stroke-linecap:round;stroke-linejoin:round}.st246{fill:#e7e7e7;stroke:#000;stroke-width:2.882273e-02}.st250{stroke:#000;stroke-width:9.883182e-02}.st250,.st252{fill:none}.st252,.st253{stroke:#000}.st252,.st253{stroke-width:.1095}.st253{fill:#452c25}.st259{fill:#bd8759}.st260{fill:#dcddde}.st261{fill:#d9c0b9}.st263,.st264{fill:none;stroke:#939598;stroke-width:2.318182e-04}.st264{stroke:#000}.st266{fill:#7a2e26}</style><path style="fill:#007934" d="M0-1h85v58H0z"/><path style="fill:#f9e300" d="M0-1h85v38.6H0z"/><path style="fill:#d52b1e" d="M0-1h85v19.3H0z"/><path class="st112" d="M48.4 24.5 36.6 36.3s-.1-.1-.2-.1c0 0 11.8-11.7 11.8-11.8 0-.1.2.1.2.1z"/><path class="st113" d="M49.1 23.7c0 .1-.2.3-.1.5l-.2-.2c.1.1 0 .2 0 .2 0 .1-.2 0-.3 0 .1.1.2.1.3.1h.2c-.1 0-.3.1-.4.1h-.2c-.1.1-.2 0-.2-.1v-.2c0-.1 0-.2.1-.4 0 .1 0 .1.1.2 0 .1.1.1.1.2 0-.1-.1-.1 0-.2s.2-.1.2 0l-.2-.2c.1 0 .4-.1.5-.2.1-.1.4-.3.6-.5-.2.4-.5.7-.5.7z"/><path class="st112" d="M50.6 25.9c-.1 0-15.1 8.5-15.2 8.6l-.1-.1c.1 0 15.1-8.5 15.2-8.6 0 0 .1.2.1.1z"/><path class="st113" d="M51.5 25.4c-.1.1-.3.2-.3.4l-.2-.2c0 .1 0 .2-.1.2h-.3l.2.2c.1 0 .1 0 .2.1h-.4c-.1 0-.2 0-.2-.1-.1 0-.2-.1-.1-.1v-.2c0-.1.1-.2.2-.3v.2c0 .1 0 .1.1.2 0-.1 0-.2.1-.2h.2l-.2-.2c.1 0 .4 0 .5-.1.1 0 .5-.2.7-.3.1.1-.3.3-.4.4z"/><path class="st112" d="M49.3 25.3c-.1.1-13.6 10.2-13.6 10.3l-.1-.1c.1 0 13.6-10.2 13.6-10.3l.1.1z"/><path class="st113" d="M50.2 24.7c-.1.1-.2.3-.2.4l-.2-.2v.2h-.3c.1.1.2.1.3.1h.2c-.1 0-.3.1-.4.1h-.2c-.1.1-.2-.1-.1-.1V25c0-.1 0-.2.1-.4v.2c0 .1.1.1.1.2v-.2c.1-.1.2 0 .2 0l-.2-.2c.1 0 .4-.1.5-.1.1 0 .5-.3.7-.4-.2.2-.5.5-.5.6z"/><path class="st112" d="m36.6 24.5 11.8 11.8s.1-.1.2-.1c0 0-11.8-11.7-11.8-11.8 0-.1-.2.1-.2.1z"/><path class="st113" d="M35.9 23.7c0 .1.2.3.1.5l.2-.2c-.1.1 0 .2 0 .2 0 .1.2 0 .3 0-.1.1-.2.1-.3.1H36c.1 0 .3.1.4.1h.2c.1.1.2 0 .2-.1v-.2c0-.1 0-.2-.1-.4 0 .1 0 .1-.1.2 0 .1-.1.1-.1.2 0-.1.1-.1 0-.2s-.2-.1-.2 0l.2-.2c-.1 0-.4-.1-.5-.2-.1-.1-.4-.3-.6-.5.2.4.5.7.5.7z"/><path class="st112" d="M34.4 25.9c.1 0 15.1 8.5 15.2 8.6l.1-.1c-.1 0-15.1-8.5-15.2-8.6 0 0-.1.2-.1.1z"/><path class="st113" d="M33.5 25.4c.1.1.3.2.3.4l.2-.2c0 .1 0 .2.1.2h.3l-.2.2c-.1 0-.1 0-.2.1h.4c.1 0 .2 0 .2-.1.1 0 .2-.1.1-.1v-.2c0-.1-.1-.2-.2-.3v.2c0 .1 0 .1-.1.2 0-.1 0-.2-.1-.2h-.2l.2-.2c-.1 0-.4 0-.5-.1-.1 0-.5-.2-.7-.3-.1.1.3.3.4.4z"/><path class="st112" d="M35.7 25.3c.1.1 13.6 10.2 13.6 10.3l.1-.1c-.1 0-13.6-10.2-13.6-10.3l-.1.1z"/><path class="st113" d="M34.8 24.7c.1.1.2.3.2.4l.2-.2v.2h.3c-.1.1-.2.1-.3.1H35c.1 0 .3.1.4.1h.2c.1.1.2-.1.1-.1V25c0-.1 0-.2-.1-.4v.2c0 .1-.1.1-.1.2v-.2c-.1-.1-.2 0-.2 0l.2-.2c-.1 0-.4-.1-.5-.1-.1 0-.5-.3-.7-.4.2.2.5.5.5.6z"/><path class="st114" d="M40.1 33.3c.5-.3 1.8-.5 2-.4-.9.7-1.9.7-2 .4z"/><path class="st115" d="M40.1 33.3c.1.3 1 .3 2-.4-1 .2-1.9.4-2 .4z"/><path class="st116" d="M40.1 33.3c.1.3 1 .3 2-.4-1 .2-1.9.4-2 .4z"/><path class="st117" d="M40.1 33.3c.5-.3 1.9-.5 2-.4-.9.7-1.9.7-2 .4z"/><path class="st118" d="m45.8 25.6-3.1 6.3c-.2.1-.3 0-.3 0-.2.2-.4.2-.5.3-.2.3-.1.5-.1.5.2.2-.2.4-.2.5-.1.1-.3.1-.4.2 0 0-.5 1-.6 1.1-.1.1-.4.7-.4.7-.3 0-1.2-.6-1.3-.6.6-.9 1.9-2.2 1.8-2.3.4-.6 1-1.3 1.2-1.3.4-.2.5-.7.5-.8.3 0 .4-.2.4-.2l2.3-4.5c.2-.1.2 0 .2.1 0 0 .1-.1.1-.2.3.1.4.2.4.2z"/><path class="st119" d="M45.9 24.2c-.1.1 0 .1.1.1h.1c.1 0 .2.1.2.1l-3.6 7.4c-.2.1-.3 0-.3 0l2.5-5.1s1-1.8 1.2-2.3l-.3-.1c-.1 0-.1-.1-.1-.2l1.5-2.6-1.3 2.7"/><path class="st120" d="M45.9 24.2c-.1.1 0 .1.1.1h.1c.1 0 .2.1.2.1l-3.6 7.4c-.2.1-.3 0-.3 0l2.5-5.1s1-1.8 1.2-2.3l-.3-.1c-.1 0-.1-.1-.1-.2l1.5-2.6-1.3 2.7"/><path class="st117" d="M41.1 31.9c-.4 0-.6.2-.3.6m.2-.3c-.1.1-.2 0-.2 0m1.8-1.6c-.2.7-.5 1.1-.6 1.3-.3.3-.5.9-.4 1l-1 1.6"/><path class="st119" d="M42.7 32c-.2-.1-.7-.5-1.2-.5-.4.5-.6.9-.7 1 .5.4.8.6.9.7.1 0 .1-.2.1-.2.1-.1 0-.2 0-.2 0-.3.2-.5.4-.5h.2l.3-.3z"/><path class="st117" d="M42.7 32c-.2-.1-.7-.5-1.2-.5-.4.5-.6.9-.7 1 .5.4.8.6.9.7.1 0 .1-.2.1-.2.1-.1 0-.2 0-.2 0-.3.2-.5.4-.5h.2l.3-.3z"/><path class="st119" d="M42.2 32c-.2 0-.5.1-.6.3l.6-.3"/><path class="st117" d="M42.2 32c-.2 0-.5.1-.6.3m-.4.1c0 .1.1.1.1.1.1 0 .1-.1.1-.1 0-.1-.1-.1-.1-.1-.1 0-.1 0-.1.1zm.3-.4c0 .1.1.1.1.1.1 0 .1-.1.1-.1 0-.1-.1-.1-.1-.1-.1 0-.1 0-.1.1z"/><path class="st119" d="M45.6 26.3c.1 0 .1-.1.1-.2l-.6-.2s-.1 0-.1.1c-.1.1 0 .1 0 .1l.6.2"/><path class="st117" d="M45.6 26.3c.1 0 .1-.1.1-.2l-.6-.2s-.1 0-.1.1c-.1.1 0 .1 0 .1l.6.2"/><path class="st114" d="M39.4 33.6c.5-.3 1.8-.5 2-.5-.9.8-1.9.8-2 .5z"/><path class="st115" d="M39.4 33.6c.1.3 1.1.3 2-.5-1 .3-1.9.5-2 .5z"/><path class="st116" d="M39.4 33.6c.1.3 1.1.3 2-.5-1 .3-1.9.5-2 .5z"/><path class="st117" d="M39.4 33.6c.5-.3 1.9-.5 2-.5-.9.8-1.9.8-2 .5z"/><path class="st118" d="m45 25.9-3 6.3c-.2.1-.3 0-.3 0-.2.2-.4.3-.5.3-.2.3-.1.5-.1.5.2.2-.2.4-.2.5-.1.1-.3.1-.4.2 0 0-.5 1-.6 1.1-.1.1-.4.7-.4.7-.3 0-1.2-.6-1.3-.6.5-.9 1.8-2.3 1.8-2.3.4-.6.9-1.3 1.2-1.3.4-.2.5-.7.5-.8.3 0 .4-.2.4-.2l2.2-4.6c.2-.1.2 0 .2.1 0 0 .1-.1.1-.2.3.1.4.2.4.3z"/><path class="st117" d="m45 25.9-3 6.3c-.2.1-.3 0-.3 0-.2.2-.4.3-.5.3-.2.3-.1.5-.1.5.2.2-.2.4-.2.5-.1.1-.3.1-.4.2 0 0-.5 1-.6 1.1-.1.1-.4.7-.4.7-.3 0-1.2-.6-1.3-.6.5-.9 1.8-2.3 1.8-2.3.4-.6.9-1.3 1.2-1.3.4-.2.5-.7.5-.8.3 0 .4-.2.4-.2l2.2-4.6c.2-.1.2 0 .2.1 0 0 .1-.1.1-.2.3.1.4.2.4.3z"/><path class="st119" d="M45.1 24.5c-.1.1 0 .1.1.1h.1c.1 0 .2.1.2.1L42 32.2c-.2.1-.3 0-.3 0l2.4-5.1s.9-1.8 1.2-2.3l-.3-.1c-.1 0-.1-.1-.1-.2l1.5-2.6-1.3 2.6"/><path class="st120" d="M45.1 24.5c-.1.1 0 .1.1.1h.1c.1 0 .2.1.2.1L42 32.2c-.2.1-.3 0-.3 0l2.4-5.1s.9-1.8 1.2-2.3l-.3-.1c-.1 0-.1-.1-.1-.2l1.5-2.6-1.3 2.6"/><path class="st117" d="M40.4 32.2c-.4 0-.5.3-.3.6m.2-.3c-.1.1-.2 0-.2 0m1.8-1.6c-.2.7-.5 1.1-.6 1.3-.3.3-.5.9-.4 1l-.9 1.6"/><path class="st119" d="M42 32.2c-.2-.1-.7-.5-1.2-.4-.4.5-.6.9-.7 1 .5.4.8.6.9.6.1-.1.1-.2.1-.2.1-.1 0-.2 0-.2 0-.3.2-.5.4-.5h.2c.2-.1.3-.3.3-.3z"/><path class="st117" d="M42 32.2c-.2-.1-.7-.5-1.2-.4-.4.5-.6.9-.7 1 .5.4.8.6.9.6.1-.1.1-.2.1-.2.1-.1 0-.2 0-.2 0-.3.2-.5.4-.5h.2c.2-.1.3-.3.3-.3z"/><path class="st119" d="M41.5 32.3c-.2 0-.5.1-.6.3l.6-.3"/><path class="st117" d="M41.5 32.3c-.2 0-.5.1-.6.3m-.4.1c0 .1.1.1.1.1.1 0 .1-.1.1-.1l-.1-.1c-.1 0-.1 0-.1.1zm.3-.4c0 .1.1.1.1.1.1 0 .1-.1.1-.1l-.1-.1c-.1 0-.1 0-.1.1z"/><path class="st119" d="M44.7 26.6c.1 0 .1-.1.1-.2l-.6-.2s-.1 0-.1.1c-.1.1 0 .1 0 .1l.6.2"/><path class="st117" d="M44.7 26.6c.1 0 .1-.1.1-.2l-.6-.2s-.1 0-.1.1c-.1.1 0 .1 0 .1l.6.2"/><path d="M45 33.2c-.5-.3-1.8-.5-2-.4.9.7 1.9.8 2 .4z" style="fill:#00e519;stroke:#000;stroke-width:1.823636e-02"/><path d="M45 33.3c-.1.3-1.1.3-2-.4 1 .2 1.9.4 2 .4z" style="fill:#ffe533;stroke:#000;stroke-width:1.823636e-02"/><path d="M45 33.3c-.1.3-1.1.3-2-.4 1 .2 1.9.4 2 .4z" style="fill:none;stroke:#000;stroke-width:1.823636e-02;stroke-linecap:round"/><path class="st124" d="M45 33.2c-.5-.3-1.9-.5-2-.4.9.7 1.9.8 2 .4z"/><path d="m39.2 25.5 3.1 6.4c.2.1.3 0 .3 0 .2.2.4.3.5.3.2.3.1.5.1.6-.2.2.2.4.2.5.1.1.3.1.4.2 0 0 .5 1 .6 1.1.1.1.4.7.4.7.3 0 1.2-.6 1.3-.6-.6-.9-1.9-2.3-1.9-2.3-.4-.6-1-1.3-1.2-1.3-.4-.2-.5-.7-.5-.8-.3 0-.4-.2-.5-.2l-2.3-4.6c-.2-.1-.2 0-.2.1 0 0-.1-.1-.1-.2-.1 0-.2.1-.2.1z" style="fill:#a05a2c;stroke:#000;stroke-width:1.823636e-02"/><path class="st126" d="M39.1 24.1c.1.1 0 .1-.1.1h-.1c-.1 0-.2.1-.2.1l3.7 7.5c.2.1.3 0 .3 0l-2.5-5.1s-1-1.8-1.2-2.3l.3-.1c.1 0 .1-.1.1-.2l-1.5-2.6 1.2 2.6"/><path d="M39.1 24.1c.1.1 0 .1-.1.1h-.1c-.1 0-.2.1-.2.1l3.7 7.5c.2.1.3 0 .3 0l-2.5-5.1s-1-1.8-1.2-2.3l.3-.1c.1 0 .1-.1.1-.2l-1.5-2.6 1.2 2.6" style="fill:#e7e7e7;stroke:#000;stroke-width:1.823636e-02"/><path class="st124" d="M43.9 31.9c.4 0 .6.2.3.6m-.1-.3c.1.1.2 0 .2 0m-1.9-1.6c.2.7.5 1.1.6 1.3.3.3.5.9.4 1l1 1.6"/><path class="st126" d="M42.3 31.9c.2-.1.7-.6 1.2-.5.4.5.6.9.7 1-.5.4-.8.6-.9.7-.1 0-.1-.2-.1-.2-.1-.1 0-.2 0-.2 0-.3-.2-.5-.5-.5h-.2c-.1-.1-.2-.3-.2-.3z"/><path class="st124" d="M42.3 31.9c.2-.1.7-.6 1.2-.5.4.5.6.9.7 1-.5.4-.8.6-.9.7-.1 0-.1-.2-.1-.2-.1-.1 0-.2 0-.2 0-.3-.2-.5-.5-.5h-.2c-.1-.1-.2-.3-.2-.3z"/><path class="st126" d="M42.9 31.9c.2 0 .5.1.6.3l-.6-.3"/><path class="st124" d="M42.9 31.9c.2 0 .5.1.6.3m.4.2c0 .1-.1.1-.1.1-.1 0-.1-.1-.1-.1 0-.1.1-.1.1-.1.1-.1.1 0 .1.1zm-.3-.5c0 .1-.1.1-.1.1-.1 0-.1-.1-.1-.1 0-.1.1-.1.1-.1.1 0 .1.1.1.1z"/><path class="st126" d="M39.5 26.3c-.1 0-.1-.1-.1-.2l.6-.2s.1 0 .1.1c.1.1 0 .1 0 .1l-.6.2"/><path class="st124" d="M39.5 26.3c-.1 0-.1-.1-.1-.2l.6-.2s.1 0 .1.1c.1.1 0 .1 0 .1l-.6.2"/><path class="st114" d="M45.6 33.6c-.5-.3-1.8-.5-2-.5.9.8 1.9.8 2 .5z"/><path class="st115" d="M45.6 33.6c-.1.3-1.1.3-2-.5 1 .3 1.9.5 2 .5z"/><path class="st116" d="M45.6 33.6c-.1.3-1.1.3-2-.5 1 .3 1.9.5 2 .5z"/><path class="st117" d="M45.6 33.6c-.5-.3-1.9-.5-2-.5.9.8 1.9.8 2 .5z"/><path class="st118" d="m40 25.9 2.9 6.4c.2.1.3 0 .3 0 .2.2.4.3.5.3.2.3.1.5.1.5-.2.2.2.4.2.5.1.1.3.1.4.2 0 0 .5 1 .6 1.1.1.1.4.7.4.7.3 0 1.2-.6 1.3-.6-.5-.9-1.8-2.3-1.8-2.3-.4-.6-.9-1.3-1.2-1.3-.4-.2-.5-.7-.5-.8-.3 0-.4-.2-.4-.2l-2.2-4.6c-.2-.1-.2 0-.2.1 0 0-.1-.1-.1-.2-.2 0-.3.1-.3.2z"/><path class="st117" d="m40 25.9 2.9 6.4c.2.1.3 0 .3 0 .2.2.4.3.5.3.2.3.1.5.1.5-.2.2.2.4.2.5.1.1.3.1.4.2 0 0 .5 1 .6 1.1.1.1.4.7.4.7.3 0 1.2-.6 1.3-.6-.5-.9-1.8-2.3-1.8-2.3-.4-.6-.9-1.3-1.2-1.3-.4-.2-.5-.7-.5-.8-.3 0-.4-.2-.4-.2l-2.2-4.6c-.2-.1-.2 0-.2.1 0 0-.1-.1-.1-.2-.2 0-.3.1-.3.2z"/><path class="st119" d="M39.9 24.5c.1.1 0 .1-.1.1h-.1c-.1 0-.2.1-.2.1l3.5 7.4c.2.1.3 0 .3 0L40.9 27s-.9-1.8-1.2-2.3l.3-.1c.1 0 .1-.1.1-.2l-1.5-2.6 1.3 2.7"/><path class="st120" d="M39.9 24.5c.1.1 0 .1-.1.1h-.1c-.1 0-.2.1-.2.1l3.5 7.4c.2.1.3 0 .3 0L40.9 27s-.9-1.8-1.2-2.3l.3-.1c.1 0 .1-.1.1-.2l-1.5-2.6 1.3 2.7"/><path class="st117" d="M44.6 32.2c.4 0 .5.3.3.6m-.2-.3c.1.1.2 0 .2 0m-1.8-1.6c.2.7.5 1.1.6 1.3.3.3.5.9.4 1l.9 1.6"/><path class="st119" d="M43 32.2c.2-.1.7-.5 1.2-.4.4.5.6.9.7 1-.5.4-.8.6-.9.6-.1-.1-.1-.2-.1-.2-.1-.1 0-.2 0-.2 0-.3-.2-.5-.4-.5h-.2c-.2-.1-.3-.3-.3-.3z"/><path class="st117" d="M43 32.2c.2-.1.7-.5 1.2-.4.4.5.6.9.7 1-.5.4-.8.6-.9.6-.1-.1-.1-.2-.1-.2-.1-.1 0-.2 0-.2 0-.3-.2-.5-.4-.5h-.2c-.2-.1-.3-.3-.3-.3z"/><path class="st119" d="M43.5 32.3c.2 0 .5.1.6.3l-.6-.3"/><path class="st117" d="M43.5 32.3c.2 0 .5.1.6.3m.4.1c0 .1-.1.1-.1.1-.1 0-.1-.1-.1-.1l.1-.1c.1 0 .1 0 .1.1zm-.3-.4c0 .1-.1.1-.1.1-.1 0-.1-.1-.1-.1l.1-.1c.1 0 .1 0 .1.1z"/><path class="st119" d="M40.3 26.6c-.1 0-.1-.1-.1-.2l.6-.2s.1 0 .1.1c.1.1 0 .1 0 .1l-.6.2"/><path class="st117" d="M40.3 26.6c-.1 0-.1-.1-.1-.2l.6-.2s.1 0 .1.1c.1.1 0 .1 0 .1l-.6.2"/><path class="st112" d="M41.9 29.3c.1-.1 4.2-4.5 4.3-4.6 0 0-.1-.1-.2-.1 0 0-4.2 4.5-4.3 4.6 0 0 .3.2.2.1z"/><path d="M250.2 1276.3c0 .4 0 .9.3 1.1-.3.4-1.2.2-1.3 0 .5-.3.3-1.1.3-1.1h.7z" style="fill-rule:evenodd;clip-rule:evenodd;fill:#e7e7e7;stroke:#000;stroke-width:1.383182e-02" transform="matrix(-.35384 .3844 -.45764 -.3157 718.74 331.429)"/><path class="st129" d="M249.6 1276.2c0-.3 0-.3-.1-.7 0-.3-.6-.4-.9-.4 0 0 .5-.7 1.2-.7s1.1.3 1.3.7c0 0-.8 0-.9.3-.1.3 0 .4 0 .7" transform="matrix(-.35384 .3844 -.45764 -.3157 718.74 331.429)"/><path class="st129" d="M249.4 1276h.9v.5h-.9z" transform="matrix(-.35384 .3844 -.45764 -.3157 718.74 331.429)"/><path class="st130" d="m41.1 34.1-.1 1.1s.2-.2.2-.3.2-.3.2-.9c0 0-.1-.4-.2-.4s-.1.5-.1.5zm.2-2.4s-.3 1.8-.3 1.9c0 .1.1.2.3-.1l.2-1.3s-.1-.4-.2-.5z"/><path class="st131" d="m42 33.4-.2-.2v.4s.2.2.2.5v-.2s.1-.2.1-.4l-.1-.1z"/><path class="st132" d="M41 35.2s.4-.3.4-1.2l.1-.2s0 .2.1 0 .1-.3.1-.3.1-.2.2 0c0 0-.1 1.1-.1 1.2v.3s-.1-.1-.2 0c-.2.1-.4.3-.6.2zm.5-3-.2 1.3s.1.1.2.4c0 .1.1.1.1 0v-.3l.1-.9c-.1 0-.2-.4-.2-.5z"/><path class="st132" d="M41.3 35.1v.3s.1 0 .2-.1.1-.3.1-.3-.1-.1-.2 0c0 .1-.1.1-.1.1zm.2-1.3c.1-.1.1-.3.1-.3l-.1.1v.2z"/><path class="st131" d="M41.9 33.7c-.1-.1-.1-.2-.1-.2l-.2 1.5s-.1.4-.3.5c0 0 .1 1.2.5.9.1 0 .1-.4.1-.7 0-.2-.1-.6-.1-.7 0-.2 0-.3.1-.6 0-.1.1-.3.1-.3 0-.1 0-.3-.1-.4z"/><path class="st131" d="m42.1 33.5.1.1-.3 2.3s0-.2-.1-.7c-.1-.4 0-.9.1-1.2.1.1.2 0 .2-.5z"/><path class="st133" d="M41.6 32.7s-.1.7-.1.9c0 0 .2-.3.3 0v-.4s-.1-.3-.2-.5z"/><path class="st130" d="M41.4 33.8s-.1-.7-.4-.2v.4c0 .1.1.2.2.3.1.1.2 0 .2 0v-.5z"/><path class="st134" d="M38.6 27.7c0-.4-.1-1.1-.2-1.6L37 24.6s-.2 1.2-.7 1.9l2.3 1.2"/><path class="st135" d="M38.7 27.7c.1-.3.1-.6.2-1.2l-.9-.9c0 .4-.4 1-.5 1.7"/><path class="st136" d="M39.5 28.6c.1-.5-.2-.6.2-1.3l-.9-.8c-.2.5-.3.8-.3 1.2l.7.5"/><path class="st134" d="M36.2 31.7c-.2-.5.1-1.5 0-2.2 0-.4.3-2 .3-2.5l-1.7-1.1s-.1 1.7-.3 3.6c-.2 1-.2 1.9 0 2.6.2 1 .4 1.5.8 1.9.8.8 2.4.3 2.4.3 1.4-.3 2.2-1.1 2.2-1.1s-.4.1-1.2.2c-1.6-.1-2.2.3-2.2-1.3"/><path class="st137" d="M40.7 32.7c-.3.1-.7.2-.7.2l-1 .1c-2.1 0-1.8-1.2-1.7-3.3 0-.8.2-1.8.1-2.1l-1.4-.8c-.5 1.3-.3 2.2-.4 2.8 0 .7-.2 2.1 0 2.7.3 1.4 1.4 1.3 2.9 1.2.7-.1 1.1-.3 1.1-.3l1.1-.5"/><path class="st138" d="M40.8 32.7c-.3.1-.7.3-.7.3l-1 .1c-1.5.1-2.4-.9-2.2-3.3 0-.8 0-1.2.3-2.4l.8.5v.1c0 .3-.2.8-.2 1.1.1 1.9 1.3 3.3 3 3.6"/><path class="st139" d="M35.2 26.9c.1.2 1 1.5 1.5 1.8m-1.3-1c.1.2 1.2 1.7 1.6 1.8m-1.8.4c.2.3.5.8 1.2 1.2m-.9.4c.5.4 1.6 1.4 2.8 1.4m-2.8-.7c.2.3.7 1.6 2.9 1m-3.2-.7c.1.3 1.2 2.1 3.1 1.4"/><path class="st134" d="M37.4 31c-.2-.5.1-1.5 0-2.2 0-.4.2-1.9.2-2.4L36 25.3s-.1 1.7-.3 3.6c-.2 1-.3 2.2-.2 2.9.2 1.2.8 1.5.9 1.6.8.7 2.7.7 2.8.6 1.3-.5 1.9-1.3 1.9-1.3s-.6 0-1.3.1c-1.5-.1-2.3-.1-2.4-1.8"/><path class="st135" d="M42 32.1c-.3.1-.7.2-.7.2l-1 .1c-2.1 0-1.8-1.2-1.7-3.3v-1.9l-1.2-.9c-.5 1.3-.3 2-.4 2.7 0 .7-.2 2.1 0 2.7.3 1.4 1.4 1.3 2.9 1.2.7-.1 1.1-.3 1.1-.3l1-.5"/><path class="st136" d="M42 32.1c-.3.1-.7.3-.7.3l-1 .1c-1.5.1-2.4-.9-2.2-3.3 0-.8 0-.9.3-2 .5.3 1.3 1.1 1.3 1.1s-.2.3-.2.8c0 1.7.8 2.7 2.5 3l.2-1.6"/><path class="st139" d="M36.5 26.2c.1.2 1 1.5 1.5 1.8m-1.4-.9c.1.2 1.2 1.7 1.6 1.8m-1.8.4c.2.3.5.8 1.2 1.2m-.9.4c.5.4 1.6 1.4 2.8 1.4m-2.8-.7c.2.3.7 1.6 2.9 1m-3.2-.7c.1.3 1.2 2.1 3.1 1.4"/><path class="st140" d="M34.8 26.1s-.1.6-.1.7V28l.1.7c-.1.1-.1.2-.3.1 0 0 .1-.7.1-.8v-1.2c0-.1.2-.8.2-.7 0-.1 0-.2 0 0"/><path class="st139" d="M34.8 26.1s-.1.6-.1.7V28s.1.9.1.7c-.1.1-.1.2-.3.1 0 0 .1-.7.1-.8v-1.2c0-.1.2-.8.2-.7 0-.1 0-.2 0 0z"/><path class="st137" d="M34.8 25.9s-.1.7-.2 1.2v1s0 .4-.1.5c0 .1 0 0 0 0-.1.1-.2 0-.2 0l.2-.5c.1-1.4.3-2.2.3-2.2s-.1.5 0 0"/><path class="st140" d="M34.8 25.9s-.1.7-.2 1.2v1s0 .4-.1.5c0 .1 0 0 0 0-.1.1-.2 0-.2 0l.2-.5c.1-1.4.3-2.2.3-2.2s-.1.5 0 0zm-.1 2.1h-.1m0-.2h.1m0-.1s-.1 0 0 0m0-.6s-.1 0 0 0m-.1.9h-.1m.1-.3h-.1m.1-.1s-.1 0 0 0m0 .3h-.1m1.5-2.4s-.1.6-.1.7v1.2l.1.7c-.1.1-.1.2-.3.1 0 0 .1-.7.1-.8v-1.2c.1-.2.2-.8.2-.7 0-.1 0-.3 0 0"/><path class="st139" d="M36 25.5s-.1.6-.1.7v1.2s.1.9.1.7c-.1.1-.1.2-.3.1 0 0 .1-.7.1-.8v-1.2c.1-.2.2-.8.2-.7 0-.1 0-.3 0 0z"/><path class="st140" d="M36 25.2s-.1.7-.2 1.2v1s0 .4-.1.5c0 .1 0 0 0 0-.1.1-.2 0-.2 0l.2-.5c.1-1.4.3-2.1.3-2.2"/><path class="st139" d="M36 25.2s-.1.7-.2 1.2v1s0 .4-.1.5c0 .1 0 0 0 0-.1.1-.2 0-.2 0l.2-.5c.1-1.4.3-2.1.3-2.2zm0 2.1h-.1m-.1-.1h.1m0-.2s0 .1 0 0m-.1.4h-.1m.1-.3h-.1m.1-.2s-.1 0 0 0m.1-.5s-.1 0 0 0m0-.2s-.1 0 0 0m-.1 1h-.1"/><path class="st141" d="M37 24.6s.1.6 0 1c0 .4 0 .5-.1.8v.5c0 .1 0 0 0 0 .1.1.2 0 .2 0s-.1-.4-.1-.5c.1-1.2 0-1.8 0-1.8"/><path class="st141" d="M37 24.6s.1.6 0 1c0 .4 0 .5-.1.8v.5c0 .1 0 0 0 0 .1.1.2 0 .2 0s-.1-.4-.1-.5c.1-1.2 0-1.8 0-1.8zm-.1 1.7h.1m0-.2h.1M37 26s.1 0 0 0m0-.5s.1 0 0 0m0-.2s.1.1 0 0m0 .9h.1"/><path class="st142" d="M40.8 25.8c.1 0 0 0 0 0z"/><path class="st143" d="M42.1 30c-.1 0 0 0 0 0zm-.1.1h.3"/><path class="st144" d="M39.1 33.4c0 .4-.9.8-1.5 0-.7-.5-.5-1.4 0-1.5l6.6-6.4c.3-.1.3-.3.4-.4.3.3.8.8 1.2 1.1l-.4.4-6.3 6.8z"/><path class="st145" d="M44.7 25c.3-.4 1.5.7 1.2 1-.4.4-1.5-.6-1.2-1z"/><path class="st146" d="M45.8 26c-.2.2-1.1-.6-1-.9.2-.3 1.2.7 1 .9z"/><path class="st147" d="M45.4 26.6c-.6-.2-.9-.5-1.2-1.1m-2.8 5.4c-.7-.2-1.2-.7-1.4-1.4m1.2 1.7c-.7-.2-1.2-.7-1.4-1.4m-.3 3.1c-.7-.2-1.3-.7-1.5-1.5m1.2 1.8c-.7-.2-1.3-.7-1.5-1.5"/><path class="st148" d="M37.6 33.5c0 .2-.1.2-.2.2m1.6-.3c-.3.4-.6.3-.8.3"/><path class="st149" d="M37.2 33.5c0 .1.1.2.2.2s.2-.1.2-.2-.1-.2-.2-.2-.2.1-.2.2"/><path class="st148" d="M37.6 33.4c0 .2-.1.2-.2.2m1.6-.2c-.3.4-.6.3-.8.3"/><path class="st130" d="m43.9 34.1.1 1.1s-.2-.2-.2-.3c0-.1-.2-.3-.2-.9 0 0 .1-.4.2-.4s.1.5.1.5zm-.2-2.4s.3 1.8.3 1.9c0 .1-.1.2-.3-.1l-.2-1.3s.1-.4.2-.5z"/><path class="st131" d="m43 33.4.2-.2v.4s-.2.2-.2.5v-.2s-.1-.2-.1-.4l.1-.1z"/><path class="st132" d="M44 35.2s-.4-.3-.4-1.2l-.1-.2s0 .2-.1 0-.1-.3-.1-.3-.1-.2-.2 0c0 0 .1 1.1.1 1.2v.3s.1-.1.2 0c.2.1.4.3.6.2zm-.5-3 .2 1.3s-.1.1-.2.4c0 .1-.1.1-.1 0v-.3l-.1-.9c.1 0 .2-.4.2-.5z"/><path class="st132" d="M43.7 35.1v.3s-.1 0-.2-.1-.1-.3-.1-.3.1-.1.2 0c0 .1.1.1.1.1zm-.2-1.3c-.1-.1-.1-.3-.1-.3l.1.1v.2z"/><path class="st131" d="M43.1 33.7c.1-.1.1-.2.1-.2l.2 1.4s.1.4.3.5c0 0-.1 1.2-.5.9-.1 0-.1-.4-.1-.7 0-.2.1-.6.1-.7 0-.2 0-.3-.1-.6 0-.1-.1-.3-.1-.3s0-.2.1-.3z"/><path class="st131" d="m42.9 33.5-.1.1.3 2.3s0-.2.1-.7c.1-.4 0-.9-.1-1.2-.1.1-.2 0-.2-.5z"/><path class="st133" d="M43.4 32.7s.1.7.1.9c0 0-.2-.3-.3 0v-.4s.1-.3.2-.5z"/><path class="st130" d="M43.6 33.8s.1-.7.4-.2v.4c0 .1-.1.2-.2.3-.1.1-.2 0-.2 0v-.5z"/><path class="st134" d="M46.4 27.7c0-.4.1-1.1.2-1.6l1.4-1.5s.2 1.2.7 1.9l-2.3 1.2"/><path class="st135" d="M46.3 27.7c-.1-.3-.1-.6-.2-1.2l.9-.9c0 .4.4 1 .5 1.7"/><path class="st136" d="M45.5 28.6c-.1-.5.2-.6-.2-1.3l.9-.8c.2.5.3.8.3 1.2l-.7.5"/><path class="st134" d="M48.8 31.7c.2-.5-.1-1.5 0-2.2 0-.4-.3-2-.3-2.5l1.7-1.1s.1 1.7.3 3.6c.2 1 .2 1.9 0 2.6-.2 1-.4 1.5-.8 1.9-.8.8-2.4.3-2.4.3-1.4-.3-2.2-1.1-2.2-1.1s.4.1 1.2.2c1.6-.1 2.2.3 2.2-1.3"/><path class="st137" d="M44.3 32.7c.3.1.7.2.7.2l1 .1c2.1 0 1.8-1.2 1.7-3.3 0-.8-.2-1.8-.1-2.1l1.4-.8c.5 1.3.3 2.2.4 2.8 0 .7.2 2.1 0 2.7-.3 1.4-1.4 1.3-2.9 1.2-.7-.1-1.1-.3-1.1-.3l-1.1-.5"/><path class="st138" d="M44.2 32.7c.3.1.7.3.7.3l1 .1c1.5.1 2.4-.9 2.2-3.3 0-.8 0-1.2-.3-2.4l-.8.4v.1c0 .3.2.8.2 1.1-.1 2-1.3 3.4-3 3.7"/><path class="st139" d="M49.8 26.9c-.1.2-1 1.5-1.5 1.8m1.3-1c-.1.2-1.2 1.7-1.6 1.8m1.8.4c-.2.3-.5.8-1.2 1.2m.9.4c-.5.5-1.6 1.4-2.7 1.5m2.7-.8c-.2.3-.7 1.6-2.9 1m3.2-.7c-.1.3-1.2 2.1-3.1 1.4"/><path class="st134" d="M47.6 31c.2-.5-.1-1.5 0-2.2 0-.4-.2-1.9-.2-2.4l1.6-1.2s.1 1.7.3 3.6c.2 1 .3 2.2.2 2.9-.2 1.2-.8 1.5-.9 1.6-.8.7-2.7.7-2.8.6-1.3-.5-1.9-1.3-1.9-1.3s.6 0 1.3.1c1.5 0 2.3 0 2.4-1.7"/><path class="st135" d="M43 32.1c.3.1.7.2.7.2l1 .1c2.1 0 1.8-1.2 1.7-3.3v-1.9l1.2-.9c.5 1.3.3 2 .4 2.7 0 .7.2 2.1 0 2.7-.3 1.4-1.4 1.3-2.9 1.2-.7-.1-1.1-.3-1.1-.3l-1-.5"/><path class="st136" d="M43 32.1c.3.1.7.3.7.3l1 .1c1.5.1 2.4-.9 2.2-3.3 0-.8 0-.9-.3-2-.5.3-1.3 1.1-1.3 1.1s.2.3.2.8c0 1.7-.8 2.7-2.5 3l-.2-1.6"/><path class="st139" d="M48.5 26.2c-.1.2-1 1.5-1.5 1.8m1.4-.9c-.1.2-1.2 1.7-1.6 1.8m1.8.4c-.2.3-.5.8-1.2 1.2m.9.4c-.5.4-1.6 1.4-2.8 1.4m2.8-.7c-.2.3-.7 1.6-2.9 1m3.2-.7c-.1.3-1.2 2.1-3.1 1.4"/><path class="st137" d="M50.2 26.1s.1.6.1.7V28l-.1.7c.1.1.1.2.3.1 0 0-.1-.7-.1-.8v-1.2c0-.1-.2-.8-.2-.7 0-.1 0-.2 0 0"/><path class="st140" d="M50.2 26.1s.1.6.1.7V28s-.1.9-.1.7c.1.1.1.2.3.1 0 0-.1-.7-.1-.8v-1.2c0-.1-.2-.8-.2-.7 0-.1 0-.2 0 0z"/><path class="st137" d="M50.2 25.9s.1.7.2 1.2v1s0 .4.1.5c0 .1 0 0 0 0 .1.1.2 0 .2 0l-.2-.5c-.1-1.4-.3-2.2-.3-2.2s.1.5 0 0"/><path class="st140" d="M50.2 25.9s.1.7.2 1.2v1s0 .4.1.5c0 .1 0 0 0 0 .1.1.2 0 .2 0l-.2-.5c-.1-1.4-.3-2.2-.3-2.2s.1.5 0 0zm.1 2.1h.1m0-.2h-.1m0-.1s.1 0 0 0m0-.6s.1 0 0 0m.1.9h.1m-.1-.3h.1m-.1-.1s.1 0 0 0m0 .3h.1"/><path class="st137" d="M49 25.5s.1.6.1.7v1.2l-.1.7c.1.1.1.2.3.1 0 0-.1-.7-.1-.8v-1.2c-.1-.2-.2-.8-.2-.7 0-.1 0-.3 0 0"/><path class="st140" d="M49 25.5s.1.6.1.7v1.2s-.1.9-.1.7c.1.1.1.2.3.1 0 0-.1-.7-.1-.8v-1.2c-.1-.2-.2-.8-.2-.7 0-.1 0-.3 0 0z"/><path class="st137" d="M49 25.2s.1.7.2 1.2v1s0 .4.1.5c0 .1 0 0 0 0 .1.1.2 0 .2 0l-.2-.5c-.1-1.4-.3-2.1-.3-2.2"/><path class="st140" d="M49 25.2s.1.7.2 1.2v1s0 .4.1.5c0 .1 0 0 0 0 .1.1.2 0 .2 0l-.2-.5c-.1-1.4-.3-2.1-.3-2.2zm0 2.1h.1m.1-.1h-.1m0-.2s0 .1 0 0m.1.4h.1m-.1-.3h.1m-.1-.2s.1 0 0 0m-.1-.5s.1 0 0 0m0-.2s.1 0 0 0m.1 1h.1"/><path class="st141" d="M48 24.6s-.1.6 0 1c0 .4 0 .5.1.8v.5c0 .1 0 0 0 0-.1.1-.2 0-.2 0s.1-.4.1-.5c-.1-1.2 0-1.8 0-1.8"/><path class="st141" d="M48 24.6s-.1.6 0 1c0 .4 0 .5.1.8v.5c0 .1 0 0 0 0-.1.1-.2 0-.2 0s.1-.4.1-.5c-.1-1.2 0-1.8 0-1.8zm.1 1.7H48m0-.2h-.1m.1-.1s-.1 0 0 0m0-.5s-.1 0 0 0m0-.2s-.1.1 0 0m0 .9h-.1"/><path class="st142" d="M44.2 25.8c-.1 0 0 0 0 0z"/><path class="st143" d="M42.9 30c.1 0 0 0 0 0zm.1.1h-.3"/><path class="st134" d="M39.1 25.1c0-.3.2-.4.3-.4.1-.1.2-.1.4-.2v.1s-.1.2-.2.3c-.2.1-.5.2-.5.2z"/><path d="m39.1 25 3.6 4.6.2-.2-3.7-4.7-.1.3z" style="fill-rule:evenodd;clip-rule:evenodd;fill:#a05a2c;stroke:#000;stroke-width:.1159"/><path class="st134" d="M39 24.1s.4 0 .3-.3c-.1-.2-.3-.2-.4-.2-.1 0-.5.1-.6.2-.1.1-.3.3-.3.6.1.3.2.5.3.7.1.2.1.4.1.5 0 0 0 .2.1.2.1.1.2.1.3-.1.1-.1.3-.4.3-.6 0-.3.2-.4.3-.4.1-.1.2-.1.4-.2 0 0-.1-.1-.2-.1l-.6-.3z"/><path class="st139" d="M39 24.1s.4 0 .3-.3c-.1-.2-.3-.2-.4-.2-.1 0-.5.1-.6.2-.1.1-.3.3-.3.6.1.3.2.5.3.7.1.2.1.4.1.5 0 0 0 .2.1.2.1.1.2.1.3-.1.1-.1.3-.4.3-.6 0-.3.2-.4.3-.4.1-.1.2-.1.4-.2 0 0-.1-.1-.2-.1l-.6-.3z"/><path class="st139" d="M39 24.1c-.1 0-.2-.1-.3 0-.1 0-.3.2-.3.4m1.3-.1-.4.2c-.1 0-.3.2-.4.4-.1.1-.2.3-.4.5m1-1.2s-.1.1-.2.1-.1.1-.1.2"/><path class="st144" d="M45.9 33.4c0 .4.9.8 1.5 0 .7-.5.5-1.4 0-1.5l-6.6-6.4c-.3-.1-.3-.3-.4-.4-.3.3-.8.8-1.2 1.1l.4.4 6.3 6.8z"/><path class="st145" d="M40.3 25c-.3-.4-1.5.7-1.2 1 .4.4 1.5-.6 1.2-1z"/><path class="st146" d="M39.2 26c.2.2 1.1-.6 1-.9-.2-.3-1.2.7-1 .9z"/><path class="st147" d="M39.6 26.6c.6-.2.9-.5 1.2-1.1m2.8 5.4c.7-.2 1.2-.7 1.4-1.4m-1.2 1.7c.7-.2 1.2-.7 1.4-1.4m.3 3.1c.7-.2 1.3-.7 1.5-1.5m-1.2 1.8c.7-.2 1.3-.7 1.5-1.5"/><path class="st148" d="M47.4 33.5c0 .2.1.2.2.2m-1.6-.3c.3.4.6.3.8.3"/><path class="st149" d="M47.8 33.5c0 .1-.1.2-.2.2s-.2-.1-.2-.2.1-.2.2-.2.2.1.2.2"/><path class="st148" d="M47.4 33.4c0 .2.1.2.2.2m-1.6-.2c.3.4.6.3.8.3"/><path class="st151" d="M44.9 20.2c.2.3.5 1 .6 1.4.2.9-.1 1.8-.9 2.5-.6.6-1.6.7-2 .8-.4.1-.7.2-.8.3 0-.1 0-.1.1-.2.2-.1.5-.1.9-.2.9-.2 1.8-.5 2.3-1.5.7-1.1.3-2.1-.2-3.1z"/><path class="st152" d="M45.1 23.9c0 .1-.1.1 0 0-.1 0-.1 0 0 0 0-.1 0-.1 0 0z"/><path class="st151" d="M45.7 23.8c-.1.1-.3.1-.4.1-.1 0-.2.1-.3.1 0 0-.1 0-.2.1-.1 0-.2.2-.2.2s.1.2.3.1c.1 0 .2-.1.3-.1.1 0 .1-.1.2-.1.2-.1.3-.3.3-.4zm-.7.1c0 .1-.1.1-.2.1.1 0 .2 0 .2-.1z"/><path class="st151" d="M45.7 23.8c-.1.1-.3.2-.6.3-.2.1-.5.1-.6.1.2 0 .4 0 .6-.1.3 0 .5-.2.6-.3zm-.3.5c-.2 0-.4.1-.6.1-.2 0-.4-.1-.6.1.6.4 1 .2 1.2-.2z"/><path class="st151" d="M44.9 24.8c-.1-.1-1-.4-1.1-.1.2.3.8.4 1.1.1z"/><path class="st151" d="M44.7 25.1h-.5c-.1 0-.3-.2-.7-.1.1.3.7.4 1.2.1zm.2-.3c-.5.1-1 0-1.2-.1.5.2 1 .2 1.2.1zm.5-.5c-.3.2-.6.3-1.4.2 1.1.2 1.2 0 1.4-.2z"/><path class="st151" d="M44.7 25.1c-.4 0-.6.2-1.2-.2-.1 0-.1 0-.2-.1h-.1.2c.9.5.8.3 1.3.3z"/><path class="st152" d="M43.4 24.6c-.1 0-.1 0 0 0 0 .1 0 .1 0 0 .1.1.1 0 0 0z"/><path class="st151" d="M43.4 24.7c-.1 0-.1.1-.1.2-.1-.1 0-.2.1-.2z"/><path class="st152" d="M45.6 21.6s0 .1 0 0h-.1c0-.1.1-.1.1 0 0-.1 0 0 0 0z"/><path class="st151" d="M45.1 23.6c0-.3-.1.1-.4-.5-.1-.2-.1-.3-.1-.5.1.2.4.3.5.4v.6z"/><path class="st151" d="M44.6 22.6s.1.3.3.5c.2.2.2.4.2.4"/><path class="st151" d="M44.7 22.9c.2.2.4.5.4.7 0-.4-.2-.5-.4-.7.1 0 0 0 0 0zm1.3.3c-.1.1-.2.1-.3.2-.1 0-.1.1-.2.1 0 0-.1 0-.2.1s-.3.2-.3.2.2.1.3.1c.3-.1.4-.2.5-.3.2-.1.2-.3.2-.4z"/><path class="st151" d="M45 23.8c.1 0 .4-.1.6-.2.2-.1.4-.2.5-.4-.1.2-.3.3-.5.4-.2 0-.5.2-.6.2zm1.1-1.2c-.1.1-.2.2-.3.2-.1 0-.1.1-.2.1 0 0-.1 0-.1.1-.1.1-.2.3-.2.3s.1.1.2 0c.3 0 .4-.2.5-.4.1-.1.1-.2.1-.3z"/><path class="st152" d="M45.1 23.1c0 .1.1.1 0 0 .1.1.1 0 0 0 .1 0 0-.1 0 0z"/><path class="st151" d="M45.2 23.4c.3-.1.8-.4.9-.8-.2.4-.5.6-.9.8zm1-1.3c-.1.1-.2.2-.3.2l-.1.1-.1.1c-.1.1-.2.3-.2.3s.1.1.2.1.2-.1.3-.2c.1-.1.1-.2.1-.3.1-.1.1-.2.1-.3z"/><path class="st151" d="M46 22.4c-.2.2-.4.4-.6.5.3-.1.4-.3.6-.5 0 .1 0 0 0 0zm.1-.6-.2.2c0 .1-.1.1-.1.1l-.1.1c0 .1-.1.3-.1.3s.1.1.1 0 .2-.1.2-.2.1-.2.1-.3c.1 0 .1-.1.1-.2zm-.5-.2c0 .1 0 .1-.1.2 0-.1 0-.1.1-.2z"/><path class="st151" d="M45.9 22.1c-.1.2-.3.4-.5.5.3-.2.4-.3.5-.5zm-.7 1.2c0-.1 0-.1-.1-.2.1.1.1.2.1.2z"/><path class="st153" d="M45.1 20.9c.1.1.1.1 0 0 0 .1 0 .1 0 0 0 .1 0 0 0 0z"/><path class="st151" d="M45.3 21.1s-.1-.1-.2-.1c.1 0 .2.1.2.1zm.7 0c-.1.3-.5.5-.3.9.3.3.3-.5.3-.9z"/><path class="st151" d="M45.7 20.5c-.1.3-.3.5-.1.9.4.1.2-.5.1-.9z"/><path class="st151" d="M45.4 20.1c.2.4.3.7 0 1 0 0-.1-.1-.2-.4 0-.3.1-.5.2-.6z"/><path class="st151" d="M45 19.8c.1.3-.2.4.2.8.2-.3.1-.4-.2-.8z"/><path class="st151" d="M44.9 20.3c-.4 0-.2-.3-.4-.6.2.1.6.2.4.6zm.2.5c-.1-.5-.5-.3-.7-.6.2.4.3.7.7.6zm.2.5c-.3 0-.6-.2-.7-.5.3.1.6.2.7.5z"/><path class="st151" d="M45.3 21.8c-.1-.1-.1-.2-.2-.3-.1-.2-.2-.3-.4-.4.1.3.2.7.6.7z"/><path class="st151" d="M45.4 22.2c-.2-.3-.4-.5-.7-.7.2.3.1.7.7.7z"/><path class="st151" d="M45.4 22.7c-.6 0-.5-.6-.5-.8.1.2.2.3.3.4.1.1.2.3.2.4z"/><path class="st151" d="M45.3 23.1c0-.1 0-.2-.1-.3-.1-.1-.3-.3-.5-.6 0 .2 0 .5.1.6.2.1.3.2.5.3zm-.5.8c-.5-.4-.2-.7-.1-.9 0 .3.4.6.1.9zm.2-3.5c-.2-.3-.2-.4-.4-.7.2.3.3.5.4.7"/><path class="st151" d="M44.8 24c0-.4-.1-.7-.1-1 0 .3.1.7.1 1zm.5-.9c0-.2-.5-.4-.6-.9.1.5.6.7.6.9zm.1-.3c-.1-.3-.5-.5-.6-.9.2.5.5.6.6.9zm.1-.5c-.2-.3-.5-.4-.8-.8.3.3.6.5.8.8zm0-.4c-.2-.1-.5-.4-.7-.9.2.4.4.7.7.9z"/><path class="st151" d="M45.4 21.4c-.3-.2-.6-.3-.9-.6l.9.6zm-.2-.5c-.3-.2-.5-.2-.7-.6.1.3.4.4.7.6zm.8.2c-.1.4-.2.8-.4 1 0-.1.2-.5.4-1zm-.3-.6c0 .4 0 .8-.2 1 .1-.2.1-.6.2-1zm-.3-.4c.1.3.1.6 0 1.2 0-.4.1-.7 0-1.2zm-.4-.3c.1.3.2.6.2.9 0-.3-.1-.6-.2-.9zm-.6 3.8c.2.4-.1.7-.3.8-.1-.6.3-.5.3-.8z"/><path class="st151" d="M44.5 23.6c0 .2-.2.5-.3.9 0-.5.3-.7.3-.9z"/><path class="st153" d="M45.4 20.9c0 .1-.1.1 0 0-.1.1-.1 0 0 0-.1 0-.1 0 0 0z"/><path class="st151" d="M45.3 21.1v-.2.2c0 .1 0 0 0 0z"/><path d="M45.3 20.9c-.1.1-.1 0 0 0-.1 0-.1 0 0 0-.1-.1-.1 0 0 0z" style="fill:#d52b1e;stroke:#000;stroke-width:.205"/><path class="st151" d="M45.3 21.1s0-.1-.1-.1c.1 0 .1 0 .1.1z"/><path class="st153" d="M45.5 21.6s0 .1 0 0c-.1.1-.1 0 0 0-.1 0-.1 0 0 0z"/><path class="st151" d="M45.5 21.8v-.2.2z"/><path d="M45.4 21.7c-.1 0-.1 0 0 0-.1 0-.1 0 0 0-.1-.1-.1-.1 0 0z" style="fill:#d52b1e;stroke:#000;stroke-width:.1702"/><path class="st151" d="m45.5 21.8-.1-.1c0 .1.1.1.1.1z"/><path class="st153" d="M45.3 23.1c-.1 0-.1 0 0 0 0-.1 0-.1 0 0 0-.1 0 0 0 0z"/><path class="st151" d="M45.3 23.3v-.2.2z"/><path class="st153" d="M45.4 23.2c0 .1 0 .1 0 0 .1 0 .1 0 0 0z"/><path class="st151" d="M45.2 23.3s.1-.1.2-.1c-.1.1-.1.1-.2.1 0 .1 0 0 0 0z"/><path class="st153" d="M45 23.8c-.1 0-.1-.1 0 0 0-.1 0-.1 0 0 0-.1 0 0 0 0z"/><path class="st151" d="m44.9 23.9.1-.1c-.1 0-.1.1-.1.1-.1 0 0 0 0 0z"/><path class="st152" d="M44.8 23.7c0 .1 0 .1 0 0 .1.1.1 0 .1 0h-.1z"/><path class="st151" d="M44.8 23.8v.1-.1zm-1.4 1.1c-.1 0-.1 0-.1-.1-.1.1 0 .2.1.1 0 .1 0 0 0 0z"/><path class="st152" d="M43.4 25c-.1 0-.1 0 0 0-.1-.1 0-.1 0 0 0-.1.1 0 0 0 .1 0 0 0 0 0z"/><path class="st151" d="M44 23.9c.1.4-.2.7-.5.8-.1-.5.4-.5.5-.8z"/><path class="st151" d="M44 23.9c-.1.3-.3.6-.6.9h-.1c.4-.3.6-.6.7-.9z"/><path d="M43.4 24.8c-.1-.1 0-.1 0 0 0-.1.1-.1 0 0 .1 0 .1 0 0 0z" style="fill:#d52b1e;stroke:#000;stroke-width:.1486"/><path class="st151" d="M43.2 24.9c.1 0 .1-.1.2-.1-.1 0-.2 0-.2.1z"/><path class="st157" d="M43.5 24.3c0 .1-.1.3-.2.4-.1.1-.1.1-.3.2-.1-.4.4-.5.5-.6z"/><path class="st157" d="M43.5 24.3c-.2.3-.4.5-.6.7.2-.4.4-.4.6-.7z"/><path class="st151" d="M40.1 20.2c-.2.3-.5 1-.6 1.4-.2.9.1 1.8.9 2.5.6.6 1.6.7 2 .8.4.1.7.2.8.3 0-.1 0-.1-.1-.2-.2-.1-.5-.1-.9-.2-.9-.2-1.8-.5-2.3-1.5-.7-1.1-.3-2.1.2-3.1z"/><path d="M41.8 24.8s-.5.5-.9.4c-.3 0-.4-.1-.4-.1s0-.1.2-.1c.3 0 .8-.2 1.1-.2z" style="fill-rule:evenodd;clip-rule:evenodd;fill:#007934;stroke:#000;stroke-width:.1315"/><path d="M40.5 25.2c.3 0 .7-.1.9-.2" style="fill:#007934;stroke:#000;stroke-width:.1315"/><path d="M41.4 24.2s.4.2.6.5l.1.2-.2-.1c-.1-.2-.4-.4-.5-.6z" style="fill-rule:evenodd;clip-rule:evenodd;fill:#007934;stroke:#000;stroke-width:.2161"/><path d="M42.1 24.9c-.1-.2-.3-.4-.5-.5" style="fill:#007934;stroke:#000;stroke-width:.2161"/><path d="M40.1 20.3s0-.4.2-.5l.2-.1-.1.2c0 .1-.1.3-.3.4z" style="fill-rule:evenodd;clip-rule:evenodd;fill:#007934;stroke:#000;stroke-width:.205"/><path d="M40.6 19.7c-.2.1-.3.3-.4.4" style="fill:#007934;stroke:#000;stroke-width:.205"/><path d="M40 20.5s-.1-.4 0-.6l.1-.2v.2c0 .1 0 .4-.1.6z" style="fill-rule:evenodd;clip-rule:evenodd;fill:#007934;stroke:#000;stroke-width:.2409"/><path d="M40.1 19.7c-.1.2-.1.4-.1.6" style="fill:#007934;stroke:#000;stroke-width:.2409"/><path d="M40 20.5s.3-.1.5-.3c.1-.1.1-.2.1-.2l-.1.1c-.2.1-.4.3-.5.4z" style="fill-rule:evenodd;clip-rule:evenodd;fill:#007934;stroke:#000;stroke-width:.2902"/><path d="M40.6 20.1c-.1.1-.3.2-.4.3" style="fill:#007934;stroke:#000;stroke-width:.2902"/><path class="st168" d="M39.9 20.7s-.2-.4-.1-.6c0-.2.1-.2.1-.2v.8z"/><path class="st169" d="M39.8 19.9v.6"/><path d="M39.8 21s-.3-.4-.3-.6c0-.2.1-.2.1-.2l.1.2c0 .1.1.4.1.6z" style="fill-rule:evenodd;clip-rule:evenodd;fill:#007934;stroke:#000;stroke-width:.2029"/><path d="M39.6 20.1c0 .2.1.4.1.6" style="fill:#007934;stroke:#000;stroke-width:.2029"/><path class="st168" d="M39.6 21.3s-.3-.3-.3-.6v-.2l.1.2c.1.1.2.4.2.6z"/><path class="st169" d="M39.3 20.5c0 .2.1.4.2.6"/><path class="st172" d="M39.9 20.7s.4 0 .5-.2c.1-.1.1-.2.1-.2h-.2c-.1.2-.3.3-.4.4z"/><path class="st173" d="M40.5 20.4c-.1.1-.3.2-.5.3"/><path class="st172" d="M39.8 21s.4 0 .6-.2c.1-.1.1-.2.1-.2h-.2c-.2.2-.4.3-.5.4z"/><path class="st173" d="M40.4 20.6c-.1.1-.3.2-.5.3"/><path d="M39.6 21.3s.4 0 .6-.2c.1-.1.1-.2.1-.2h-.2c-.1.1-.4.3-.5.4z" style="fill-rule:evenodd;clip-rule:evenodd;fill:#007934;stroke:#000;stroke-width:.2192"/><path d="M40.4 20.9c-.1.2-.3.2-.5.3" style="fill:#007934;stroke:#000;stroke-width:.2192"/><path class="st176" d="M39.7 21.1v-.2.1c-.1 0-.1 0 0 .1l-.1-.1v-.1.1c0 .1.1.2.1.1"/><path class="st177" d="M39.6 20.8c.1.1 0 .1 0 .1-.1 0-.1 0 0-.1-.1 0-.1 0 0 0z"/><path class="st177" d="M39.7 20.8s0 .1 0 0v.1c-.1 0-.1 0 0-.1z"/><path class="st176" d="M39.7 21.1s.1 0 .1-.1v-.1s0 .1-.1.1h.1-.1c.1.1 0 .2 0 .1"/><path class="st177" d="M40 21c-.1 0-.1.1 0 0-.1.1 0 .1 0 0zm-.1-.1s-.1 0 0 0c-.1.1-.1.1 0 .1v-.1z"/><path d="M39.5 21.6s-.3-.3-.3-.6v-.2l.1.2c.1.1.2.4.2.6z" style="fill-rule:evenodd;clip-rule:evenodd;fill:#007934;stroke:#000;stroke-width:.2321"/><path d="M39.2 20.8c0 .2.1.4.2.6" style="fill:#007934;stroke:#000;stroke-width:.2321"/><path d="M39.6 21.6s.4 0 .6-.3c.1-.1.1-.2.1-.2l-.2.1c-.1.1-.4.3-.5.4z" style="fill-rule:evenodd;clip-rule:evenodd;fill:#007934;stroke:#000;stroke-width:.2105"/><path d="M40.3 21.2c-.1.2-.3.3-.5.3" style="fill:#007934;stroke:#000;stroke-width:.2105"/><path d="M39.5 21.9s.4-.1.6-.3l.1-.2-.2.1c-.1.1-.4.3-.5.4z" style="fill-rule:evenodd;clip-rule:evenodd;fill:#007934;stroke:#000;stroke-width:.2265"/><path d="M40.2 21.4c-.1.2-.4.3-.5.4" style="fill:#007934;stroke:#000;stroke-width:.2265"/><path d="M39.5 21.9s-.4-.3-.5-.5v-.2l.1.1c.2.2.4.5.4.6z" style="fill-rule:evenodd;clip-rule:evenodd;fill:#007934;stroke:#000;stroke-width:.1891"/><path d="M39 21.2c0 .2.2.4.3.6" style="fill:#007934;stroke:#000;stroke-width:.1891"/><path d="M39.5 22.4s.4-.2.6-.4l.1-.2-.2.1c-.1.1-.4.3-.5.5z" style="fill-rule:evenodd;clip-rule:evenodd;fill:#007934;stroke:#000;stroke-width:.2196"/><path d="M40.1 21.7c-.1.2-.3.4-.5.5" style="fill:#007934;stroke:#000;stroke-width:.2196"/><path class="st157" d="M39.5 22.4s-.4-.2-.5-.5c-.1-.2 0-.3 0-.3l.2.1c0 .2.2.5.3.7z"/><path d="M38.9 21.6c.1.2.3.4.4.5" style="fill:#007934;stroke:#000;stroke-width:.1872"/><path class="st189" d="m39.5 22.2-.1-.1V22v.1l.1.1c-.1-.1-.1-.1-.2-.1 0 0 0 .1.1.1 0-.1.1 0 .1 0"/><path class="st190" d="M39.2 21.9c.1 0 .1 0 0 0l.1.1s-.1 0-.1-.1zm.2-.1s0 .1 0 0v.1c0 .1-.1 0 0-.1-.1.1 0 0 0 0z"/><path class="st189" d="m39.5 22.2.1-.1V22v.1l-.1.1c.1-.1.2-.1.2-.1s0 .1-.1.1c0-.1-.1 0-.1 0"/><path class="st190" d="M39.8 21.9s-.1 0 0 0l-.1.1c0 .1.1 0 .1-.1 0 .1 0 0 0 0z"/><path class="st190" d="M39.6 21.8s0 .1 0 0c-.1.1 0 .1 0 .1.1.1.1.1 0-.1.1.1.1.1 0 0z"/><path d="M39.5 22.7s-.5-.2-.6-.5l-.1-.2.2.1c.1.2.4.5.5.6z" style="fill-rule:evenodd;clip-rule:evenodd;fill:#007934;stroke:#000;stroke-width:.196"/><path d="M38.8 22c.1.2.3.4.5.6" style="fill:#007934;stroke:#000;stroke-width:.196"/><path d="M39.6 22.7s.5-.2.6-.5c.1-.2 0-.3 0-.3l-.2.1c-.1.2-.4.5-.4.7z" style="fill-rule:evenodd;clip-rule:evenodd;fill:#007934;stroke:#000;stroke-width:.1709"/><path d="M40.2 21.9c-.1.2-.3.4-.4.6" style="fill:#007934;stroke:#000;stroke-width:.1709"/><path d="M39.7 23.1s.4-.3.5-.6c.1-.2 0-.3 0-.3l-.2.2c0 .2-.3.5-.3.7z" style="fill-rule:evenodd;clip-rule:evenodd;fill:#007934;stroke:#000;stroke-width:.1805"/><path d="M40.3 22.3c-.1.2-.3.5-.4.6" style="fill:#007934;stroke:#000;stroke-width:.1805"/><path d="M39.6 23.1s-.6-.1-.8-.5c-.1-.2-.1-.3-.1-.3s0-.1.2.1c.3.2.6.5.7.7z" style="fill-rule:evenodd;clip-rule:evenodd;fill:#007934;stroke:#000;stroke-width:.1533"/><path d="M38.8 22.4c.1.2.4.4.6.6" style="fill:#007934;stroke:#000;stroke-width:.1533"/><path d="M40.1 23.9s.3-.4.3-.7v-.3l-.1.2c0 .2-.2.6-.2.8z" style="fill-rule:evenodd;clip-rule:evenodd;fill:#007934;stroke:#000;stroke-width:.202"/><path d="M40.4 23c0 .2-.1.5-.2.7" style="fill:#007934;stroke:#000;stroke-width:.202"/><path d="M40.1 23.9c-.1 0-.6 0-.9-.3-.2-.2-.2-.3-.2-.3s0-.1.3.1c.2.1.6.3.8.5z" style="fill-rule:evenodd;clip-rule:evenodd;fill:#007934;stroke:#000;stroke-width:.1448"/><path d="M39 23.4c.2.2.5.3.8.4" style="fill:#007934;stroke:#000;stroke-width:.1448"/><path d="M39.9 23.6s-.6-.1-.8-.4c-.2-.2-.2-.3-.2-.3l.2.1c.2.2.6.4.8.6z" style="fill-rule:evenodd;clip-rule:evenodd;fill:#007934;stroke:#000;stroke-width:.1717"/><path d="M38.9 22.9c.2.2.5.4.7.5" style="fill:#007934;stroke:#000;stroke-width:.1717"/><path d="M39.9 23.5s.4-.3.5-.7v-.3s-.1 0-.1.2c-.2.3-.4.6-.4.8z" style="fill-rule:evenodd;clip-rule:evenodd;fill:#007934;stroke:#000;stroke-width:.1641"/><path d="M40.3 22.6c0 .3-.2.5-.3.7" style="fill:#007934;stroke:#000;stroke-width:.1641"/><path class="st207" d="M39.8 23.4s-.1 0-.1-.1-.1-.1-.1-.1 0 .1.1.1h-.2.1c.1 0 .2.1.2.1"/><path class="st208" d="M39.4 23.2c0-.1.1 0 0 0l.1.1s-.1 0-.1-.1zm.1-.1c.1-.1.1 0 0 0 .1.1.1.1.1.2 0-.1-.1-.1-.1-.2z"/><path class="st207" d="M39.8 23.4v-.3.1s.1 0 .1-.1V23v.1c0 .2-.1.3-.1.3"/><path class="st208" d="M40 23s-.1 0 0 0c-.1.1-.1.2 0 .2s0-.1 0-.2zm-.2 0v.2c.1-.1.1-.1 0-.2.1 0 0 0 0 0z"/><path d="M40.3 24.1s-.5.1-.8 0c-.2-.1-.2-.2-.2-.2s0-.1.2 0 .6.1.8.2z" style="fill-rule:evenodd;clip-rule:evenodd;fill:#007934;stroke:#000;stroke-width:.1708"/><path d="M39.3 23.9c.2.1.5.2.8.2" style="fill:#007934;stroke:#000;stroke-width:.1708"/><path d="M40.3 24.1s.2-.3.2-.6v-.2l-.1.2c0 .1-.1.4-.1.6z" style="fill-rule:evenodd;clip-rule:evenodd;fill:#007934;stroke:#000;stroke-width:.227"/><path d="M40.5 23.3c0 .2-.1.4-.1.6" style="fill:#007934;stroke:#000;stroke-width:.227"/><path d="M40.8 24.4s-.6.2-1 0c-.3-.1-.3-.2-.3-.2s0-.1.3 0 .7.1 1 .2z" style="fill-rule:evenodd;clip-rule:evenodd;fill:#007934;stroke:#000;stroke-width:.1518"/><path d="M39.5 24.3c.3.1.6.1.9.1" style="fill:#007934;stroke:#000;stroke-width:.1518"/><path d="M40.8 24.4s.1-.5 0-.7c-.1-.2-.2-.2-.2-.2s-.1 0 0 .2c0 .3.1.6.2.7z" style="fill-rule:evenodd;clip-rule:evenodd;fill:#007934;stroke:#000;stroke-width:.1866"/><path d="M40.6 23.6c.1.2.1.4.2.6" style="fill:#007934;stroke:#000;stroke-width:.1866"/><path class="st217" d="M40.5 24.2s-.1.1-.1 0c-.1 0-.1-.1-.1-.1l.1.1h-.2.1c0 .1.2.1.2 0"/><path class="st218" d="M40 24.2h.1l.1.1s-.1.1-.2-.1c0 .1 0 .1 0 0z"/><path class="st218" d="M40.1 24.1h.1v.1h-.1v-.1z"/><path class="st217" d="M40.5 24.3s.1-.1 0-.1-.1-.2-.1-.2l.1.1v.1-.2.1s.1.2 0 .2"/><path class="st218" d="M40.5 23.8v.1l.1.1s0-.1-.1-.2c.1 0 .1 0 0 0zm-.2.1v.1h.1v-.1h-.1z"/><path d="M41.1 24.6s-.5.4-.9.3l-.3-.1s0-.1.2-.1c.3 0 .7-.1 1-.1z" style="fill-rule:evenodd;clip-rule:evenodd;fill:#007934;stroke:#000;stroke-width:.1418"/><path d="M39.9 24.8c.3.1.6 0 .9-.1" style="fill:#007934;stroke:#000;stroke-width:.1418"/><path class="st221" d="M41.4 24.7s-.1.1-.2.1-.1-.1-.1-.1.1 0 .2.1h.1l-.1.1h-.1.1c-.1 0 .1-.1.1-.2"/><path class="st222" d="m40.9 24.9.1-.1c.1 0 .1 0 .1.1s-.1.1-.2 0c0 .1 0 0 0 0z"/><path class="st222" d="M40.9 24.7h.1c.1 0 .1.1.1.1H41l-.1-.1z"/><path d="M41.2 24.7s.1-.5-.1-.7c-.1-.1-.2-.1-.2-.1s-.1 0 0 .2c.1.1.2.5.3.6z" style="fill-rule:evenodd;clip-rule:evenodd;fill:#007934;stroke:#000;stroke-width:.1754"/><path d="M40.9 23.9c.2.1.2.4.3.6" style="fill:#007934;stroke:#000;stroke-width:.1754"/><path class="st221" d="M41.5 24.8s0-.1-.1-.2l-.1-.1s.1 0 .1.1h.1v-.2l.1.1c-.1 0-.1.2-.1.3"/><path class="st222" d="M41.3 24.3v.1h.1v-.1s-.1-.1-.1 0zm-.2.2s0 .1.1.1h.1s0-.1-.1-.1c0-.1-.1-.1-.1 0z"/><path class="st225" d="M42.4 24.3s-.3.7-.2.7c0 0 .3-.5.5-.7.1-.1.2 0 .2-.1s-.3-.3-.3-.3l-.2.4"/><path class="st226" d="M42.4 24.3s-.3.7-.2.7c0 0 .3-.5.5-.7.1-.1.2 0 .2-.1s-.3-.3-.3-.3l-.2.4"/><path class="st225" d="M41.4 24.8s-.4.7-.3.7c.1 0 .5-.9.5-.9h-.1l-.1.2z"/><path class="st227" d="M41.4 24.8s-.4.7-.3.7c.1 0 .5-.9.5-.9h-.1l-.1.2z"/><path class="st225" d="M41.5 24.6s-.4.7-.3.7c.1 0 .6-.9.6-.9h-.2l-.1.2z"/><path class="st227" d="M41.5 24.6s-.4.7-.3.7c.1 0 .6-.9.6-.9h-.2l-.1.2z"/><path class="st225" d="M41.6 24.5s-.5.7-.4.7c.1 0 .6-.8.6-.8h-.2c.1-.1 0 .1 0 .1z"/><path class="st227" d="M41.6 24.5s-.5.7-.4.7c.1 0 .6-.8.6-.8h-.2c.1-.1 0 .1 0 .1z"/><path class="st225" d="M41.7 24.3s-.6.6-.5.6c.1 0 .8-.7.8-.7h-.2l-.1.1z"/><path class="st227" d="M41.7 24.3s-.6.6-.5.6c.1 0 .8-.7.8-.7h-.2l-.1.1z"/><path class="st225" d="M41.7 24.1s-.5.7-.4.7c.1 0 .7-.8.7-.8h-.2l-.1.1z"/><path class="st227" d="M41.7 24.1s-.5.7-.4.7c.1 0 .7-.8.7-.8h-.2l-.1.1z"/><path class="st225" d="M41.6 24.7s-.5.7-.4.7c.1 0 .6-.8.6-.8h-.2c.1-.1 0 .1 0 .1z"/><path class="st227" d="M41.6 24.7s-.5.7-.4.7c.1 0 .6-.8.6-.8h-.2c.1-.1 0 .1 0 .1z"/><path class="st225" d="M41.9 24.6s-.3.5-.3.6c0 0 .4-.3.6-.6.1-.4-.3-.1-.3 0"/><path class="st227" d="M41.9 24.6s-.3.5-.3.6c0 0 .4-.3.6-.6.1-.4-.3-.1-.3 0"/><path class="st225" d="M41.9 24.5s-.3.7-.2.7c0 0 .4-.4.4-.7.1-.3 0 0 0 0v-.3l-.2.3"/><path class="st226" d="M41.9 24.5s-.3.7-.2.7c0 0 .4-.4.4-.7.1-.3 0 0 0 0v-.3l-.2.3"/><path class="st225" d="M41.8 24.4s-.6.6-.5.6.8-.7.8-.7h-.2l-.1.1z"/><path class="st227" d="M41.8 24.4s-.6.6-.5.6.8-.7.8-.7h-.2l-.1.1z"/><path class="st225" d="M41.8 24.5s-.6.6-.5.6c.1 0 .8-.7.8-.7h-.2l-.1.1z"/><path class="st227" d="M41.8 24.5s-.6.6-.5.6c.1 0 .8-.7.8-.7h-.2l-.1.1z"/><path class="st225" d="M41.8 24.6s-.6.6-.5.6c.1 0 .8-.7.8-.7h-.2l-.1.1z"/><path class="st227" d="M41.8 24.6s-.6.6-.5.6c.1 0 .8-.7.8-.7h-.2l-.1.1z"/><path class="st225" d="M41.9 23.8s-.4.5-.4.6c.1.1.4-.2.6-.5.1-.2-.2-.1-.2-.1"/><path class="st227" d="M41.9 23.8s-.4.5-.4.6c.1.1.4-.2.6-.5.1-.2-.2-.1-.2-.1"/><path class="st225" d="M41.9 24.4s-.4.7-.3.7c.1 0 .5-.6.5-.7v-.2l-.2.2"/><path class="st227" d="M41.9 24.4s-.4.7-.3.7c.1 0 .5-.6.5-.7v-.2l-.2.2"/><path class="st225" d="M41.9 24.2s.3-.6 0 .1-.4.6-.4.6l.3-.5s.1-.4.2-.4"/><path d="M41.9 24.2s.3-.6 0 .1-.4.6-.4.6l.3-.5s.1-.4.2-.4" style="fill:none;stroke:#000;stroke-width:3.121818e-02"/><path class="st225" d="M42.2 24.1s.3-.6 0 .1-.5.5-.5.5l.3-.5s.2-.3.3-.4"/><path d="M42.2 24.1s.3-.6 0 .1-.5.5-.5.5l.3-.5s.2-.3.3-.4" style="fill:none;stroke:#000;stroke-width:3.330455e-02"/><path d="M42.1 23.9s-.4.5-.4.6c.1.1.4-.2.6-.5.1-.2-.2-.2-.2-.1" style="fill:#452c25;stroke:#000;stroke-width:3.655000e-02"/><path d="M46.5 29.4c0 2.5-1.8 4.5-4 4.5s-4-2-4-4.5 1.8-4.5 4-4.5 4 2 4 4.5z" style="fill:#e8a30e"/><path d="M39.3 29.4c0-2.1 1.5-3.7 3.2-3.7s3.2 1.6 3.2 3.7" style="fill:none;stroke:#390;stroke-width:.7727"/><path d="M38.5 29.6c.1 2.4 1.8 4.2 4 4.2s3.8-1.9 4-4.2h-8z" style="fill:#007934;stroke:#eee;stroke-width:7.727273e-02"/><path d="M46.5 29.4c0 2.5-1.8 4.5-4 4.5s-4-2-4-4.5 1.8-4.5 4-4.5 4 2 4 4.5z" style="fill:none;stroke:#000;stroke-width:.4996"/><path d="M41.8 26.3c0 .2 0 .3.1.4.1.1.1.2.1.3 0 0-.1 0-.1.1l-.7-.4.4.7c-.1-.1-.2-.1-.4 0-.2 0-.3 0-.4-.1.1.2.2.2.4.3.1 0 .2.1.3.2v.1l-.8.2.8.2c-.1 0-.2.1-.3.2-.1.1-.2.2-.4.3.2 0 .3 0 .4-.1.1-.1.2-.1.3-.1 0 0 0 .1.1.1l-.4.7.7-.5c-.1.1-.1.2 0 .4 0 .2 0 .3-.1.4.2-.1.2-.2.3-.4 0-.1.1-.2.2-.3h.1l.2.8.2-.8c0 .1.1.2.2.3.1.1.2.2.3.4 0-.2 0-.3-.1-.4-.2-.4-.2-.5-.2-.6 0 0 .1 0 .1-.1l.7.4-.5-.7c.1.1.2.1.4 0 .2 0 .3 0 .4.1-.1-.2-.2-.2-.4-.2-.1 0-.2-.1-.3-.2v-.1l.8-.2-.8-.2c.1 0 .2-.1.3-.2.1-.1.2-.2.4-.2-.2 0-.3 0-.4.1-.1.1-.2.1-.3.1 0 0 0-.1-.1-.1l.4-.7-.7.4c.1-.1.1-.2 0-.4 0-.2 0-.3.1-.4-.2.1-.2.2-.2.4 0 .1-.1.2-.2.3h-.1l-.2-.8-.2.8c0-.1-.1-.2-.2-.3-.1 0-.1-.1-.2-.2z" style="fill:#d52b1e;stroke:#000;stroke-width:.129"/><g transform="translate(557.004 374.72) scale(.22284)"><path d="M-2305.7-1557.6c-.9-.8-2-.9-2.6-.3-.4.6-.4 1.3.1 2 0 0-.1 0-.2.1-.4-.7-.5-1.5-.2-2.2.9-.7 2.1-.8 2.9.4"/><path d="M-2307.1-1557.8c-.5 0-.6.1-.9.3-.2.2-.3.2-.4.2 0 0 0 .2.1.1.1 0 .2-.1.5-.3.2-.2.5-.2.7-.2.7 0 1.1.6 1.2.5.1 0-.4-.6-1.2-.6"/><path d="M-2306.2-1557.2c-.5-.5-1.4-.6-1.8 0h.2c.4-.6 1.3-.3 1.4-.1v.1"/><circle cx="-2307.1" cy="-1557.2" r=".3"/><path d="M-2308-1557.1c.4.3 1.2.4 1.8 0h-.3c-.4.4-1 .4-1.4.1v-.1"/><path d="M-2306.1-1557c-.7.5-1.3.5-1.7.2-.4-.2-.4-.3-.3-.3.1 0 .2.1.5.2s.7.2 1.5-.1m-1.9 1.2c.1 0 .2.2.1.3s-.1.2-.2.2-.2-.1-.2-.2c0 .1-.2.3-.5.3h-.1l.1.1c.1 0 .3 0 .5-.1.1.1.3.2.4.1s.2-.2.2-.4c-.1-.2-.2-.3-.3-.3m.4 1.6c-.3-.2-.5-.6-.9-.6-.1 0-.2 0-.4.1h-.1l.1.1c.2 0 .4-.2.7 0s.4.3.6.4m-.1 0c-.8-.2-.9-.1-1.2-.1h-.1l.1.2c.4 0 .5-.3 1.2-.1"/><path d="M-2307.6-1554.2c-.8-.1-.6.4-1.3.4h-.1l.1.1c.9 0 .5-.4 1.3-.5"/></g><g transform="matrix(-.22284 0 0 .22284 542.996 374.72)"><path d="M2249.2-1557.6c-.9-.8-2-.9-2.6-.3-.4.6-.4 1.3.1 2 0 0-.1 0-.2.1-.4-.7-.5-1.5-.2-2.2.8-.7 2-.8 2.9.4"/><path d="M2247.8-1557.8c-.5 0-.6.1-.8.3-.2.2-.3.2-.4.2 0 0 0 .2.1.1.1 0 .2-.1.5-.3.2-.2.5-.2.7-.2.7 0 1.1.6 1.2.5-.1 0-.6-.6-1.3-.6"/><path d="M2248.7-1557.2c-.5-.5-1.4-.6-1.8 0h.2c.4-.6 1.3-.3 1.4-.1v.1"/><circle cx="2247.7" cy="-1557.2" r=".3"/><path d="M2246.8-1557.1c.4.3 1.2.4 1.8 0h-.3c-.4.4-1 .4-1.4.1v-.1"/><path d="M2248.7-1557c-.7.5-1.3.5-1.7.2-.4-.2-.4-.3-.3-.3.1 0 .2.1.5.2s.7.2 1.5-.1m-1.9 1.2c.1 0 .2.2.1.3s-.1.2-.2.2-.2-.1-.2-.2c0 .1-.2.3-.5.3h-.1l.1.1c.1 0 .3 0 .5-.1.1.1.3.2.4.1s.2-.2.2-.4-.1-.3-.3-.3m.5 1.6c-.3-.2-.5-.6-.9-.6-.1 0-.2 0-.4.1h-.1l.1.1c.2 0 .4-.2.7 0s.4.3.6.4m-.2 0c-.8-.2-.9-.1-1.2-.1h-.1l.1.2c.4 0 .6-.3 1.2-.1"/><path d="M2247.3-1554.2c-.8-.1-.6.4-1.3.4h-.1l.1.1c.8 0 .5-.4 1.3-.5"/></g><path d="M42.9 30.2h.6c.2-.1.3-.1.5-.1 0 0 .1 0 0-.1-.1 0-.1 0-.2-.1s-.2-.2-.3-.2c0 0-.1 0-.1-.1.3.4.9.2 1.4.1 0 0 .2 0 .3-.1.1 0 .4 0 .5-.1 0 0-.1-.1-.2-.1-.1-.1-.3-.1-.4-.2-.2-.2-.4-.2-.6-.4h-.2c-.1-.1 0-.1-.6-.6-.5-.2-.5-.4-.9-.5-.1-.1-.2-.2-.3-.1-.2 0-.6.3-.8.4-.1.1-.3.2-.5.3 0 0-.4.4-.9.6-.4.2-1.1.6-1.1.6 1.2.1-.6.4 3.8.7h0z" style="fill:#007934;stroke:#000;stroke-width:7.881818e-02;stroke-linecap:round"/><path class="st237" d="M40.5 29.1c.2-.1 1.2-.7 1.5-1 0 0 .1.1.1.2.1 0 0-.1.1-.1h.2c.1 0 0 0 0 0-.1.1-.3.2-.4.3h.1v.1c0 .1-.2.1-.2.1l-.2.2c.1 0 .1-.1.2-.1s.2-.1.3-.1c.1 0 .2-.1.3-.2 0 .1-.1.1-.1.2h.1l-.3.3h-.1c-.1 0 0 .1-.1.1l-.3.3s-.1.1-.2.1-.6.4-.6.3c0-.2-.5.2-1.6-.2m3.8.1s-.1 0 0 0c0-.1-.1-.1-.1-.1.1 0 .2.1.3.1v-.1h-.2s-.1-.1 0-.1.2.1.3 0c.1 0 .1 0 .2-.1h.1-.1c-.1 0-.1 0-.2.1h.1c.1 0 .2 0 .2-.1v-.1c0-.1.1 0 .1-.1-.1 0 0 .1-.1.1h.2s.1 0 .1-.1l-.1-.1c.1 0 .1 0 .1.1 0 0 0 .1.1.1s.1 0 .1-.1c.1 0 .2 0 .2.1l-.1.1h-.1v.1h.2l.1-.1c.1 0 0-.1-.1-.1h.1v-.1s.1 0 0 0h.1s.1 0 0 0-.1.1-.1.1-.1 0 0 .1c0 0 0 .1.1.1 0 0 .1.1.2 0 0-.1.2 0 .2-.1v-.1c.1 0 .3.1.4.2h-.5c-.1 0-.3.1-.4.1h-.2m-1.2.1"/><path class="st237" d="M42.6 30.3c.2 0 .3.2.4 0h.3c.3.1 1.3 0 1.3-.1-.1-.1-.3-.2-.4-.3h-.3c-.1-.1-.2-.1-.3-.2-.1 0-.1-.1-.1-.2-.1-.1-.2-.1-.2-.1-.1 0-.2-.1-.3-.2h-.1c-.1 0-.2-.1-.2-.1-.1 0-.2.1-.3.2-.1 0-.2.1-.3.2 0 0-.3.2-.6.3-.3.1-.8.3-.8.3s.3.2 1 .2l.4.1h.2c-.2-.1.3-.1.3-.1z"/><path class="st237" d="M41.3 29.8c.2-.1.7-.4.9-.5v.1c.1 0 0-.1.1-.1h.1c0 .1-.2.1-.2.2h.1s-.1 0-.1.1l-.1.1.1-.1c.1 0 .1 0 .2-.1.1 0 .1-.1.2-.1 0 0-.1.1 0 .1 0 .1-.1.1-.2.2h-.1v.1c-.1 0-.1.1-.2.2H42l-.3.2c0-.1-.3.1-1-.1"/><path d="M42.5 24.9c-2.2 0-4 2-4 4.5s1.8 4.5 4 4.5 4-2 4-4.5-1.8-4.5-4-4.5zm0 1c1.6 0 3 1.5 3 3.5s-1.4 3.5-3 3.5-3-1.5-3-3.5 1.4-3.5 3-3.5z" style="fill:#00a6de;stroke:#000;stroke-width:.1159"/><path class="st239" d="M43.1 31.3H43c0-.1 0-.1.1 0 0-.1 0-.1 0 0z"/><path class="st239" d="M43.1 31.3H43h.1c0-.1 0-.1 0 0zm-.4 1c.1-.3.1-.5 0-.7.2-.2.4-.1.5 0-.1.3-.1.5 0 .7-.1.1-.3.1-.5 0zm.3-.8v.9-.9z"/><path class="st239" d="M43 31.5c0 .3-.1.6 0 .9v-.9zm.1-.3s-.1 0 0 .1v-.1zm-.1 0s.1 0 0 .1v-.1zm0 .1s.1 0 0 0c0 .1 0 .1 0 0z"/><path class="st239" d="M43 31.3s.1 0 0 .1v-.1z"/><path class="st239" d="M43 31.4s.1 0 0 .1v-.1zm0 .1s.1 0 0 .1v-.1zm.1-.3c0 .1 0 .1 0 0 0 .1 0 .1 0 0zm0 .1c0 .1 0 .1 0 0zm0 0c0 .1 0 .1 0 0 0 .1 0 .1 0 0zm0 .1s-.1 0 0 0c0 .1 0 .1 0 0zm0 .1s-.1 0 0 0zm0 0c-.1.3-.1.5-.1.9.1-.4.1-.6.1-.9zm.2-.3s-.1 0-.1.1c.1 0 .1 0 .1-.1zm-.1.1s.1.1 0 .1v-.1z"/><path class="st239" d="M43.2 31.3s.1 0 0 .1c0 0-.1 0 0-.1zm-.1.1s.1.1 0 .1v-.1z"/><path class="st239" d="M43.1 31.4s.1.1 0 .1v-.1zm0 .1s.1.1 0 .1v-.1zm.2-.2s-.1 0 0 0c0 .1 0 .1 0 0zm0 .1c-.1 0-.1 0 0 0-.1 0-.1 0 0 0zm0 0c-.1 0-.1 0 0 0-.1.1-.1.1 0 0zm-.1.1s0-.1 0 0z"/><path class="st239" d="M43.2 31.5s-.1 0 0 0c0 .1 0 .1 0 0zm0 .1c-.1.2-.1.4-.1.8 0-.4 0-.6.1-.8zm.2-.3c-.1 0-.1 0 0 0 0 .1 0 .1 0 0zm-.1 0v.1-.1zm0 .1s.1.1 0 .1v-.1zm-.1 0v.1-.1zm0 .1s.1.1 0 .1v-.1z"/><path class="st239" d="M43.2 31.5s.1.1 0 .1v-.1zm.2-.1s-.1 0 0 0zm0 0s-.1 0-.1.1c.1 0 .1 0 .1-.1zm0 .1s-.1 0-.1.1c0-.1 0-.1.1-.1z"/><path class="st239" d="M43.3 31.5s-.1 0-.1.1c.1 0 .1 0 .1-.1zm0 .1s-.1 0 0 0zm-.4-.1v.9c.1-.3.1-.6 0-.9zm0-.3s.1 0 0 .1c-.1 0 0-.1 0-.1z"/><path class="st239" d="M42.9 31.2s-.1 0 0 .1v-.1zm0 .1s.1.1 0 0zm.1 0s-.1 0 0 .1v-.1z"/><path class="st239" d="M43 31.4s-.1 0 0 .1v-.1zm0 .1s-.1 0 0 .1v-.1zm-.2-.3c0 .1.1.1 0 0 0 .1 0 .1 0 0zm0 .1c.1 0 .1 0 0 0 0 0 0 .1 0 0z"/><path class="st239" d="M42.8 31.3c.1.1.1.1 0 0 0 .1 0 .1 0 0z"/><path class="st239" d="M42.8 31.4c.1 0 .1 0 0 0 .1.1.1.1 0 0zm.1.1zm-.1 0c.1.3.1.5.1.9.1-.4 0-.6-.1-.9zm-.1-.3s.1 0 .1.1c-.1 0-.1 0-.1-.1z"/><path class="st239" d="M42.8 31.2s-.1.1 0 .1v-.1zm0 .1s-.1 0 0 .1v-.1z"/><path class="st239" d="M42.8 31.4s-.1.1 0 .1v-.1zm.1 0s-.1.1 0 .1c0 0-.1 0 0-.1zm0 .1s-.1.1 0 .1v-.1zm-.2-.2c0 .1 0 .1 0 0zm0 .1s.1 0 0 0zm0 0s.1 0 0 0c0 .1 0 .1 0 0z"/><path class="st239" d="M42.7 31.5c.1 0 .1-.1 0 0 .1 0 .1 0 0 0zm.1 0c0 .1 0 .1 0 0zm0 .1s-.1 0 0 0c.1.2.1.4.1.8 0-.4 0-.6-.1-.8zm-.2-.3c0 .1 0 0 0 0zm.1 0v.1-.1zm0 .1s-.1 0 0 .1v-.1zm0 0v.1-.1z"/><path class="st239" d="M42.7 31.4s-.1.1 0 .1 0 0 0-.1zm.1.1s-.1.1 0 .1v-.1zm-.2-.1s0-.1 0 0z"/><path class="st239" d="M42.6 31.4s.1 0 .1.1c-.1 0-.1 0-.1-.1z"/><path class="st239" d="M42.6 31.4s.1 0 .1.1c-.1 0-.1 0-.1-.1zm0 .1s.1 0 .1.1c0 0 0-.1-.1-.1zm.1.1zm.2-.4s.1.1 0 .1v-.1zm.1 0s-.1 0 0 .1v-.1zm0 .1s0 .1 0 0zm0 0s-.1 0 0 .1v-.1z"/><path class="st239" d="M43 31.4s-.1 0-.1.1c.1 0 .1-.1.1-.1zm0 .1s-.1 0-.1.1l.1-.1zm-.1-.3c0 .1.1.1 0 0 0 .1 0 .1 0 0zm0 .1s.1 0 0 0z"/><path class="st239" d="M42.9 31.3c0 .1.1.1 0 0 0 .1 0 .1 0 0z"/><path class="st239" d="M42.9 31.4s.1 0 0 0c0 .1 0 .1 0 0zm0 .1c.1 0 .1 0 0 0zm0 0c.1.3.1.6.1.9 0-.3 0-.6-.1-.9zm-.1-.3s.1 0 .1.1c-.1 0-.1 0-.1-.1z"/><path class="st239" d="M42.9 31.2s-.1 0 0 .1v-.1zm0 .1s-.1 0 0 .1v-.1z"/><path class="st239" d="M42.9 31.3s-.1 0 0 .1v-.1z"/><path class="st239" d="M42.9 31.4s-.1 0 0 .1v-.1zm0 .1s-.1 0 0 .1v-.1zm-.2-.2c.1 0 .1 0 0 0 .1 0 .1 0 0 0zm.1 0c0 .1 0 .1 0 0zm0 .1s.1 0 0 0zm0 0s.1 0 0 0c0 .1 0 .1 0 0z"/><path class="st239" d="M42.8 31.5c.1 0 .1 0 0 0 0 0 0 .1 0 0zm-.1.1c.1.2.1.3.1.5v.3c.1-.3.1-.6-.1-.8z"/><path class="st239" d="M42.8 31.5c0 .1 0 .1 0 0 .1.3.1.5.1.8 0-.2 0-.5-.1-.8zm-.2-.2c.1 0 .1 0 0 0zm.1 0s-.1.1 0 .1c.1-.1 0-.1 0-.1zm.1 0s-.1 0 0 .1v-.1z"/><path class="st239" d="M42.8 31.4s-.1.1 0 .1v-.1z"/><path class="st239" d="M42.8 31.4s-.1.1 0 .1v-.1zm0 .1s-.1.1 0 .1v-.1zm-.2-.2s.1 0 0 0c0 .1 0 .1 0 0zm0 .1c.1 0 .1 0 0 0 .1 0 .1 0 0 0z"/><path class="st239" d="M42.7 31.4s.1 0 .1.1c-.1 0-.1 0-.1-.1zm0 .1s.1 0 .1.1l-.1-.1z"/><path class="st239" d="M42.7 31.5c.1 0 .1 0 0 0 0 .1.1.1 0 0zm-.2-.2c.1.1.1 0 0 0 0 .1 0 .1 0 0zm.1 0v.1-.1zm0 .1v.1c0-.1.1-.1 0-.1zm.1 0v.1-.1zm0 .1s-.1.1 0 .1v-.1z"/><path class="st239" d="M42.7 31.5v.1c.1 0 .1 0 0-.1zm-.2-.1s.1 0 .1.1c-.1-.1-.1 0-.1-.1zm0 .1h.1-.1zm.1 0h.1-.1zm0 0h.1c0 .1-.1.1-.1 0zm0 .1c.1 0 .1 0 0 0 .1 0 .1 0 0 0zm.5-.1c-.1.3-.1.6-.1.9 0-.3 0-.6.1-.9zm.1-.3s-.1 0-.1.1c.1 0 .1 0 .1-.1z"/><path class="st239" d="M43.1 31.2s.1.1 0 .1v-.1zm0 .1s.1 0 0 .1v-.1z"/><path class="st239" d="M43.1 31.4s.1.1 0 .1v-.1z"/><path class="st239" d="M43.1 31.4s.1.1 0 .1 0 0 0-.1zm-.1.1s.1.1 0 .1v-.1zm.2-.2zm0 0c0 .1-.1 0 0 0 0 .1 0 .1 0 0zm0 .1s-.1 0 0 0zm0 .1s-.1-.1 0 0c-.1 0 0 0 0 0zm0 0c-.1 0-.1 0 0 0-.1.1-.1.1 0 0zm0 0c-.1.3-.1.5-.1.9 0-.4 0-.6.1-.9 0 .1 0 .1 0 0zm.2-.2c-.1 0-.1 0 0 0-.1.1-.1 0 0 0z"/><path class="st239" d="M43.3 31.3s.1.1 0 .1c-.1-.1-.1-.1 0-.1z"/><path class="st239" d="M43.2 31.3s.1 0 0 .1v-.1z"/><path class="st239" d="M43.2 31.4s.1.1 0 .1v-.1z"/><path class="st239" d="M43.2 31.4s.1.1 0 .1v-.1zm0 .1s.1.1 0 .1-.1 0 0-.1zm.2-.2c-.1.1-.1 0 0 0-.1.1-.1.1 0 0zm-.1.1z"/><path class="st239" d="M43.3 31.4s-.1 0-.1.1c.1 0 .1 0 .1-.1zm0 .1s-.1 0-.1.1c0 0 0-.1.1-.1z"/><path class="st239" d="M43.3 31.5c-.1 0-.1 0 0 0-.1.1-.1.1 0 0zm0 .1c-.1.2-.1.5-.1.8v-.3c0-.2 0-.3.1-.5zm.2-.2c-.1 0-.1 0 0 0-.1 0 0 0 0 0zm-.1-.1v.1c-.1 0 0 0 0-.1zm-.1.1v.1-.1zm0 0v.1-.1z"/><path class="st239" d="M43.3 31.5v.1c-.1-.1 0-.1 0-.1zm-.1 0v.1-.1zm.3-.1h-.1c0 .1 0 .1.1 0zm0 .1h-.1.1zm-.1 0h-.1c.1.1.1.1.1 0zm0 .1h-.1.1zm-.1 0s0 .1 0 0zm-.4.3h.2-.2c-.1.1-.2.1-.2 0h.2z"/><path class="st239" d="M42.8 31.9c0 .1 0 .1 0 0 .1 0 0 0 0 0zm.1 0c.1 0 0 0 0 0zm.1 0zm.1 0c.1 0 .1 0 0 0z"/><path class="st240" d="M42.1 31.5s0 .2.1.3v.4h-.1v-.1L42 32v-.1c-.1-.1-.1-.4-.1-.3m-.8-.1.2.1-.1.3v.1c0 .1 0 .1.1.3h.3-.1l-.1-.1V32s0-.1.1-.2c0-.1.1-.2.1-.2l-.1-.2-.1-.1m-.2-.2c-.3.1-.2.4-.1.4m1.1-1 .1-.1-.1.1"/><path class="st240" d="M42.4 30.7s.1 0 0 0c.1 0 .1 0 0 0 0 0 .1 0 0 0 0-.1-.1-.1-.1-.2 0 0-.1 0-.1-.1h-.1c-.1 0-.1.1-.1.1s0 .3-.1.4h-.5c-.1 0-.2.1-.2.1s-.1.1-.1.2v.1c.1.3.2 0 .3 0 .1 0 .2.2.3.2.5.1.6-.1.6-.7v-.1h.1"/><path class="st240" d="m42.2 30.6.1-.1-.1.1m-1.2.8c0 .1.1.2.1.2v.3c0 .1.1.3.1.3v.2h.1v-.3s.1 0 .1-.1l.1-.1v-.2s0-.1-.1-.1m.7 0c-.1 0-.2.1-.2.1v.6h-.1v-.9m.4-.6h.3m-.1-.1z"/><path d="M42.2 30.6c.1 0 .1 0 0 0 .1 0 .1 0 0 0 .1 0 .1 0 0 0 .1 0 .1 0 0 0z"/><path d="M43.6 32s0 .1 0 0v.4h.2v-2.2h-.1v1.6c-.1 0-.1.1-.1.2 0-.1 0 0 0 0z" style="fill-rule:evenodd;clip-rule:evenodd;fill:#e7e7e7;stroke:#000;stroke-width:3.268636e-02"/><path d="M43.6 32.1h.1m-.1-.1h.1m-.1-.1h.1m-.1-.1h.1m-.1-.1h.1m-.1-.1h.1m-.1-.1h.1m-.1-.1h.1m-.1-.1h.1m-.1-.1h.1m-.1-.1h.1m-.1 0h.1m-.1-.1h.1m-.1-.1h.1m-.1-.1h.1m-.1-.1h.1m-.1-.1h.1m-.1-.1c.1 0 .1 0 0 0m0-.1c.1 0 .1 0 0 0m0-.1c.1 0 .1 0 0 0m0 1.9h.1m-.1.1h.2" style="fill-rule:evenodd;clip-rule:evenodd;fill:#e7e7e7;stroke:#000;stroke-width:3.268636e-02;stroke-linejoin:round"/><path d="M43.9 30.1h.3-.1.3-.1.3s-.1 0-.1-.1h.2s-.1 0-.1-.1h.3c-.3-.2-.7-.1-1 .1l.1-.1h-.1l.1-.1h-.1s.1-.1.2-.1H44c0-.1.1-.1.2-.1h-.1l.2-.2c-.4 0-.6.3-.6.6-.1-.2-.4-.5-.8-.4.1 0 .2.1.3.1h-.1c.1 0 .2.1.2.1h-.1c.1 0 .1.1.2.1h-.1c.1 0 .1.1.2.1h-.1c.1 0 .1.1.2.1-.3-.1-.6 0-.9.4 0 0 .2-.1.3-.1 0 0 0 .1-.1.1.1-.1.2-.1.2-.1v.1c.1 0 .1 0 .2-.1v.1s.1-.1.2-.1l-.1.1h.1c-.2.1-.4.4-.3.7l.1-.2v.1c0-.1.1-.2.1-.2v.1c0-.1.1-.1.1-.2v.1c0-.1.1-.2.1-.2v.1-.1l.1-.1c0 .1.1.1.1.2v-.1c0 .1.1.2.1.3v-.1c0 .1.1.2.1.3v-.1c0 .1.1.2.1.3.1-.4 0-.6-.2-.8 0 0 .1.1.2.1v-.1c.1 0 .2.1.2.2v-.1l.2.2v-.1c.1.1.1.2.2.2v-.1c.1.1.1.2.2.2-.3-.7-.7-1-1-1z" style="fill-rule:evenodd;clip-rule:evenodd;fill:#007934;stroke:#e7e7e7;stroke-width:3.268636e-02"/><path class="st244" d="M-997.4-771.1c.8-.1 1.9.6 1.9 1.4-.1-.1-.1-.3-.3-.5v.3c-.1-.1-.2-.4-.4-.5 0 .1 0 .2.1.3-.1-.1-.2-.3-.4-.4 0 .1.1.1.1.2l-.4-.4c0 .1.1.2.1.2l-.3-.3m-.6-.3c-.5-.3-1.6-.3-2.3.6.1-.1.5-.2.6-.2-.1.1-.1.1-.1.2.1-.1.3-.2.5-.3 0 .1-.1.1-.1.2.1-.1.2-.1.5-.2 0 0-.1.1-.1.2.1-.1.3-.1.5-.2 0 0-.1.1-.1.2l.2-.1" transform="translate(496.85 380.36) scale(.45427)"/><path class="st244" d="M-997.6-771.2c-.1-.6-.8-1.3-1.8-1.2.3.1.5.2.6.3h-.3c.2.1.4.1.5.2h-.2c.1 0 .3.1.5.2h-.2c.1 0 .3.1.4.2h-.2c.3.1.3.2.3.2m.4.3c-.7.2-1.4.9-1.3 1.8 0-.1.1-.4.2-.5v.3c.1-.2.1-.4.3-.5v.3c.1-.1.1-.3.3-.5v.3c.1-.1.2-.3.3-.5v.2c0-.1.2-.4.3-.4m-.5-.1c0 .1-.1.3-.1.4m-.1-.2c0 .1-.1.3-.1.5m-.2-.3c-.1.2-.1.4-.1.5m1-1v-.1" transform="translate(496.85 380.36) scale(.45427)"/><path class="st244" d="M-996.8-770v.4m-.3-.8v.4m-.2-.7v.3m1.3 0c.1.1.1.3.2.3m-.6-.6c.1.1.2.3.2.4m-.5-.5c.1.1.1.2.2.3m-2.9-.2c.1-.1.2-.2.5-.3m0 .2c.1-.1.2-.2.4-.3m-.1.3c.1-.1.2-.2.4-.3m0 .3c.1-.1.3-.2.4-.3m-1-1c.2 0 .4.1.6.2m-.3 0c.2 0 .4.1.5.1m-.3.2c.2 0 .4.1.5.2m-.3 0c.2 0 .4.1.5.2m.2 0c.5-.4 1.5-.7 2.3-.3h-.7c.1 0 .2.1.2.1h-.5c.1 0 .2.1.3.1-.2 0-.4-.1-.6 0 0 0 .2.1.3.1h-.6c.1 0 .2 0 .2.1h-.6m1.3-.4c-.2-.1-.4-.1-.6-.1m.3.2c-.3-.1-.5-.1-.7-.1m.4.2c-.2-.1-.5-.1-.7-.1m.3.2c-.2-.1-.4 0-.5 0m.2.3c.1.1.2.2.2.3m-.8-.9c0-.5.5-1.2 1.4-1.3-.2.1-.4.2-.5.3h.2c-.2.1-.3.2-.4.3h.2c-.1.1-.3.2-.4.2h.2c-.1 0-.2.2-.3.2h.2l-.3.3m.6-.9c-.1 0-.3.1-.4.2m.2.1c-.1 0-.3.1-.4.1m.3.1c-.1 0-.3.1-.4.2m.3.1c-.2 0-.3.1-.4.2m-.1.6c0 .1-.1.2-.1.3m.3-.5c.5.4 1.1 1 .8 2 0-.2-.1-.4-.1-.6 0 .1 0 .2-.1.2 0-.1-.1-.5-.2-.6 0 .1 0 .2-.1.3 0-.2-.1-.4-.2-.6 0 0 0 .1-.1.2 0-.2-.1-.4-.2-.6" transform="translate(496.85 380.36) scale(.45427)"/><path class="st140" d="m39.3 27.2.2.1v-.2l-.1-.1h-.2l.1.2m.2.1.2.1v-.2c-.1 0-.1 0-.2.1m-.3 0c0-.1 0-.1 0 0l.1-.1s0-.1.1-.1h.3l.1.1v.1l.1-.1h.1l.1.1v.5s-.1-.1-.2-.1l-.2-.1c-.5-.2-.5-.3-.5-.3-.1 0-.1 0 0 0m1-1.4c-.1.1-.1.2 0 .3.1.1.1.1.2.1h.2l.1-.1c0-.1 0-.1-.1-.2s-.1-.1-.2-.1h-.2m.5 0c.1.1.1.2.1.2 0 .1-.1.2-.1.2-.1.1-.2.1-.2.1-.1 0-.2 0-.2-.1-.1-.1-.1-.2-.1-.3s0-.2.1-.2c.1-.1.2-.1.3-.1-.1.1 0 .1.1.2m.9-.3v.1h.2v.1h-.1l-.3.1h-.1v-.2l-.1-.2c0-.1 0-.1-.1-.2h.2v.2l.3.1m1.2-.3v-.2h.2v.6h-.2v-.4m1.2.6c.2-.2.3-.3.4-.3-.3.2-.5.4-.6.4h-.1v-.7h.2c.1.2.1.4.1.6m1 .5.1-.1.1.1.1.1s-.1.1-.2.1l-.2.2-.1.1-.1-.1-.1-.1s.1-.1.2-.1l.2-.2m.6 1.2.2-.2h-.2c-.1 0-.1.1 0 .2 0-.1 0-.1 0 0m-.2-.2h-.2.7v.1c-.2.3-.4.4-.5.5v-.2l.2-.2v-.1c-.1 0-.1-.1-.2-.1"/><path d="m43.1 32.9-.1.3h-.3l.2.2-.1.3.2-.2.2.2-.1-.3.2-.2H43l.1-.3zm1.1-.4-.1.3h-.3l.2.2v.2l.2-.2.2.2-.1-.3.2-.2h-.3v-.2zm1.7-3.1-.1.3h-.3l.2.2-.1.3.2-.2.2.2-.1-.3.2-.2h-.3l.1-.3zm-.8 2.2.1.3h.3l-.3.1.1.3-.2-.2-.2.2.1-.3-.2-.2h.3v-.2zm.6-1 .1.3h.3l-.2.2.1.3-.2-.2-.2.2.1-.3-.2-.2h.3l-.1-.3zm-3.8 2.3.1.3h.3l-.2.2.1.3-.2-.2-.2.2.1-.3-.2-.2h.3l-.1-.3zm-1.1-.4.1.3h.3l-.2.1.1.3-.3-.2-.2.2.1-.3-.2-.2h.3v-.2zm-1.7-3.1.1.3h.3l-.2.2.1.3-.3-.2-.2.2.1-.3-.2-.2h.3v-.3zm.8 2.2-.1.3h-.3l.2.2-.1.3.2-.2.2.2.1-.4.2-.2H40l-.1-.2zm-.6-1-.1.3h-.3l.2.2-.1.3.2-.2.2.2-.1-.3.2-.2h-.3l.1-.3z" style="fill:#e8a30e;stroke:#000;stroke-width:.1385;stroke-linecap:square;stroke-linejoin:round"/><path class="st246" d="m42.6 29-.1-.1h-.1l-.1.1v.1l.3-.1"/><path class="st246" d="m42.6 29-.1-.1v-.1h-.1v.1l-.1.1v.1l.3-.1zm.1.1h-.3.3m0 0h-.3.3zm-.3 0 .3-.1v.1-.1.1"/><path class="st246" d="m42.4 29.1.3-.1v.1-.1.1m-.1-.1zm-.2 0zm.1 0"/><path class="st246" d="m42.6 29-.1.1V29h.1"/><path class="st246" d="m42.6 29-.1.1V29h.1zm-.2 0h.1m.1-.1h-.2.2m-.2.1c.1 0 .1 0 0 0 .1 0 0 0 0 0m.1 0zm0 0zm0 0"/><path d="M42.5 28.8z" style="fill-rule:evenodd;clip-rule:evenodd;fill:#e7e7e7;stroke:#000;stroke-width:1.004545e-02"/><path class="st225" d="M42.2 24.4s-.3.7-.2.7c0 0 .4-.4.4-.7.1-.3 0 0 0 0v-.3l-.2.3"/><path class="st226" d="M42.2 24.4s-.3.7-.2.7c0 0 .4-.4.4-.7.1-.3 0 0 0 0v-.3l-.2.3"/><path class="st225" d="M42.2 24.1s-.3.7-.3.8c0 0 .3-.3.4-.6.1-.3 0 0 0 0l.1-.5"/><path class="st227" d="M42.2 24.1s-.3.7-.3.8c0 0 .3-.3.4-.6.1-.3 0 0 0 0l.1-.5"/><path class="st225" d="M42.6 24s-.3.7-.3.8c0 0 .3-.3.4-.6.1-.3 0 0 0 0l.1-.5"/><path class="st227" d="M42.6 24s-.3.7-.3.8c0 0 .3-.3.4-.6.1-.3 0 0 0 0l.1-.5"/><path class="st225" d="m46.9 22.7.4.2s.1.1-.1 0c-.2 0-.7-.2-1.5-.8-.4-.3-.5-.2-.5-.2h.5l1.2.8z"/><path class="st250" d="m46.9 22.7.4.2s.1.1-.1 0c-.2 0-.7-.2-1.5-.8-.4-.3-.5-.2-.5-.2h.5l1.2.8z"/><path class="st225" d="m47.1 22.6.4.2s.1.1-.1 0c-.2 0-.7-.2-1.5-.8-.4-.3-.1.2-.1.2l.1-.3 1.2.7z"/><path class="st250" d="m47.1 22.6.4.2s.1.1-.1 0c-.2 0-.7-.2-1.5-.8-.4-.3-.1.2-.1.2l.1-.3 1.2.7z"/><path class="st225" d="M47.8 22.8s-.5-.1-.7-.2c0 0 0 .1-.2-.1 0 0 .1.2-.6-.2-.7-.5-.4-.2-.4-.2h.2s1 .4 1.1.4c.1 0 .6.3.6.3"/><path d="M47.8 22.8s-.5-.1-.7-.2c0 0 0 .1-.2-.1 0 0 .1.2-.6-.2-.7-.5-.4-.2-.4-.2h.2s1 .4 1.1.4c.1 0 .6.3.6.3z" style="fill:none;stroke:#000;stroke-width:9.628183e-02"/><path class="st225" d="m45.2 23 .2.2s-.1.2-.6-.2c-.6-.4-.5-.4-.5-.4h.3l.6.4"/><path class="st252" d="m45.2 23 .2.2s-.1.2-.6-.2c-.6-.4-.5-.4-.5-.4h.3l.6.4"/><path class="st225" d="M44.5 23.1s.3.3.2.4c-.1 0-.4 0-.6-.3v-.5l.4.4"/><path class="st252" d="M44.5 23.1s.3.3.2.4c-.1 0-.4 0-.6-.3v-.5l.4.4"/><path class="st225" d="M44.8 22.9s.3.3.2.4c0 0-.4 0-.7-.3-.3-.3 0-.4 0-.4l.5.3"/><path class="st252" d="M44.8 22.9s.3.3.2.4c0 0-.4 0-.7-.3-.3-.3 0-.4 0-.4l.5.3z"/><path class="st225" d="M46.2 22.7s.7.3.2.3c0 0-1-.3-1.6-.7l.2-.2 1.2.6"/><path class="st252" d="M46.2 22.7s.7.3.2.3c0 0-1-.3-1.6-.7l.2-.2 1.2.6"/><path class="st225" d="M46.6 22.6s.4.2.4.3c0 .1-1.2-.2-1.8-.8l.3-.1 1.1.6z"/><path class="st252" d="M46.6 22.6s.4.2.4.3c0 .1-1.2-.2-1.8-.8l.3-.1 1.1.6z"/><path class="st225" d="M45.5 22.9s.3.2.2.3c0 0-.6-.1-1-.4l.1-.2.7.3"/><path class="st252" d="M45.5 22.9s.3.2.2.3c0 0-.6-.1-1-.4l.1-.2.7.3"/><path class="st225" d="M45.9 22.8s.3.2.2.2c-.1 0-.3.2-1.3-.4l-.1-.1.2-.3 1 .6"/><path class="st252" d="M45.9 22.8s.3.2.2.2c-.1 0-.3.2-1.3-.4l-.1-.1.2-.3c0 .1 1 .6 1 .6z"/><path class="st225" d="m44.9 22.3.3.3s-.4-.1-.6-.2-.3-.3-.3-.3l.4-.1.2.3z"/><path class="st252" d="m44.9 22.3.3.3s-.4-.1-.6-.2-.3-.3-.3-.3l.4-.1.2.3z"/><path class="st225" d="m44.5 21.8.6.4s.5.3.4.4c-.1 0-.4-.1-.7-.2-.3-.2-.6-.5-.6-.5"/><path class="st252" d="m44.5 21.8.6.4s.5.3.4.4c-.1 0-.4-.1-.7-.2-.3-.2-.6-.5-.6-.5"/><path class="st225" d="M44.1 23.5s.1.3 0 .3-.2 0-.4-.3c-.1-.3.1-.2.1-.2l.3.2z"/><path class="st252" d="M44.1 23.5s.1.3 0 .3-.2 0-.4-.3c-.1-.3.1-.1.1-.1l.3.1z"/><path class="st225" d="M44.3 23.3s.2.3.1.3c0 0-.3.1-.5-.2-.2-.4.3-.3.3-.3l.1.2z"/><path class="st252" d="M44.3 23.3s.2.3.1.3c0 0-.3.1-.5-.2-.2-.4.3-.3.3-.3l.1.2z"/><path class="st225" d="M43.8 22s.6 1.1.5 1.2c0 .1-.3 0-.4-.3-.1-.3-.2-.7-.2-.7l.1-.2z"/><path class="st252" d="M43.8 22s.6 1.1.5 1.2c0 .1-.3 0-.4-.3-.1-.3-.2-.7-.2-.7l.1-.2z"/><path class="st225" d="M44.5 22.3s.5.4.4.5c-.1.1-.3 0-.6-.3s.2-.2.2-.2"/><path class="st252" d="M44.5 22.3s.5.4.4.5c-.1.1-.3 0-.6-.3s.2-.2.2-.2z"/><path class="st225" d="M44.2 22.3s.3.6.3.7c0 .1-.3-.2-.4-.3l-.2-.4"/><path class="st252" d="M44.2 22.3s.3.6.3.7c0 .1-.3-.2-.4-.3l-.2-.4"/><path class="st225" d="M41.6 23.6v.4s.2 0 .2-.3v-.3l-.2.2"/><path class="st252" d="M41.6 23.6v.4s.2 0 .2-.3v-.3l-.2.2"/><path class="st225" d="M41.8 23.2s-.1.4 0 .5c.1.1.2-.4.2-.5 0-.2-.2 0-.2 0"/><path class="st252" d="M41.8 23.2s-.1.4 0 .5c.1.1.2-.4.2-.5 0-.2-.2 0-.2 0z"/><path class="st225" d="M41.8 23.7s0 .4.1.4.2-.1.2-.2-.1-.3-.1-.3l-.2.1"/><path class="st252" d="M41.8 23.7s0 .4.1.4.2-.1.2-.2-.1-.3-.1-.3l-.2.1"/><path class="st253" d="M41.9 23.2s-.1.4 0 .5c.1.1.2-.4.2-.5 0-.1-.2 0-.2 0z"/><path class="st225" d="M41.9 22.6s-.2.2-.2.3c0 .1.3-.2.3-.2 0-.1-.1-.1-.1-.1"/><path class="st252" d="M41.9 22.6s-.2.2-.2.3c0 .1.3-.2.3-.2 0-.1-.1-.1-.1-.1z"/><path class="st225" d="M41.7 22.5s-.2.3-.1.4c0 .1.2-.1.3-.2 0-.1-.2-.2-.2-.2"/><path class="st252" d="M41.7 22.5s-.2.3-.1.4c0 .1.2-.1.3-.2 0-.1-.2-.2-.2-.2z"/><path class="st225" d="m43.9 22.1.2.5c-.1 0-.2-.1-.3-.2-.1-.2.1-.3.1-.3"/><path class="st252" d="m43.9 22.1.2.5c-.1 0-.2-.1-.3-.2-.1-.2.1-.3.1-.3z"/><path class="st253" d="M43.9 23s.1.4 0 .4c-.2.1-.2-.3-.2-.4-.1-.1.2 0 .2 0zm-.3.6v.3s-.1 0-.3-.2l-.1-.2.3-.1.1.2"/><path class="st253" d="M43.9 23.6v.3c-.1 0-.2-.1-.3-.3-.1-.2.3-.2.3-.2v.2z"/><path class="st253" d="M43.6 22.6s.3.7.3.8c-.1.2-.4-.4-.5-.7-.1-.2.2-.1.2-.1zm-.2.2s.4.8.2.8-.5-.6-.6-.7c.1-.2.4-.1.4-.1z"/><path class="st253" d="M43.4 22.9s.2.7.1.7c-.1-.1-.3-.6-.3-.8-.1-.1.2.1.2.1zm.8-1.1s.3.5.2.5c-.1 0-.5-.3-.5-.4l.3-.1z"/><path class="st253" d="M43.9 21.9s.4.6.3.6c-.1 0-.1-.1-.1-.1l-.4-.4.2-.1m.5 0s.3.3.2.4c-.1.1-.5-.4-.5-.4-.1-.1.3 0 .3 0m-.7.4s.5.9.4 1c-.1.1-.6-.7-.6-.8-.1-.1.2-.2.2-.2"/><path d="M43.4 22.4s.2.3.2.4c0 .2-.3-.2-.3-.3-.1-.1.1-.1.1-.1z" style="fill:#452c25;stroke:#000;stroke-width:.1277"/><path class="st253" d="M43.8 22.2s.1.3.1.4c0 .1-.2-.2-.3-.3-.1-.1.2-.1.2-.1z"/><path d="M43.1 22.5s.2.3.2.4c0 .1-.3-.2-.4-.3l.2-.1z" style="fill:#452c25;stroke:#000;stroke-width:.1314"/><path class="st253" d="M44.6 21.8s.3.3.3.4c-.1 0-.5-.3-.6-.3-.1-.2.3-.1.3-.1z"/><path class="st253" d="m44.3 21.8.3.2.2.2s-.4-.1-.5-.2c-.1-.1-.1-.2 0-.2-.1 0 0 0 0 0zm.9 0s1 .4 1 .5c0 .1-1.1-.3-1.2-.4-.2-.1.2-.1.2-.1"/><path class="st253" d="M45.2 22s.8.4.7.5-.6-.1-.9-.3c-.3-.2-.4-.3-.4-.3l.3-.1.3.2zm-1.9.5s.1.3.1.4c0 .1-.2-.1-.3-.2 0-.1.2-.2.2-.2zm.1.6s.1.4 0 .5c-.1.1-.2-.4-.2-.5-.1-.1.2 0 .2 0z"/><path class="st253" d="M42.8 22.4s.4-.2.5-.2c0 0 .1 0 .1-.1l.2-.1s-.1-.5.5-.5c.5.1 1.2.1 1.4.1.1 0 .7.2.8.2.1.1.9.4 1.1.5.1 0 .3.2.5.3.1.1 0 0 0 0s-1.4-.5-1.9-.6c-.1 0 0 .1 0 .1s-.3-.1-.4-.1c-.1-.1-.2-.1-.3-.1h-1.1l-.1.1h-.2c0-.1-.1.3-.2.4 0 .1-.2.1-.3.2l-.1.1-.2.1h-.3v-.4c-.1.1 0 0 0 0zm.5 1.2v.4s-.2 0-.2-.3.1-.3.1-.3l.1.2"/><path d="M43.4 23.4s0-.2-.1-.2-.1-.2-.1-.2v-.1l-.1-.1c-.1 0 0 0 0 0s-.1-.2-.2-.2c0 0-.1-.1-.2-.1h-.5c-.3 0-.4.2-.4.2v.3c0 .1 0 .2.1.3v.1c0 .1 0 .2.1.3 0 0 0 .1.1.1v.1s0 .1.1.1c0 0 .1.2.1.1v.2l.1-.1v.1h.1v.1s.1-.1.1-.2v-.1l.1-.1s.2.1.2.2v.2-.1.1l.1-.1c.1-.1.1-.2.1-.3s.1-.1.1-.2v-.4c0-.1 0 0 0 0h.2c-.1 0 0 0 0 0z" style="fill:#452c25;stroke:#000;stroke-width:.1097"/><path d="M43 22.8c.1 0 .1 0 0 0 .1.1.1.1 0 0 .1 0 .1 0 0 0m.1.1c.1.1.1.1.1.2-.1 0-.1-.1-.1-.2 0 0-.1 0 0 0m.1.1v.2-.2m0 .3v.1-.1m0 .2c0 .1 0 .1 0 0 0 .1 0 .1 0 0 0 .1 0 .1 0 0m-.1-.2v.1-.1c0-.1 0-.1 0 0m0 .3v.1-.1m.2-.1s0 .1 0 0c0 .1 0 .1 0 0 0 .1 0 .1 0 0 0 .1 0 0 0 0m0-.3s0 .1 0 0c0 .1 0 .1 0 0m-.2.2v.1-.1m-.1.1v.1-.1"/><path class="st225" d="M41.4 22.5s-.1.4 0 .4c.2.1.2-.3.3-.4-.1-.1-.3 0-.3 0"/><path class="st252" d="M41.4 22.5s-.1.4 0 .4c.2.1.2-.3.3-.4-.1-.1-.3 0-.3 0z"/><path class="st225" d="M41.6 22.5s-.2.2-.2.3c0 .1.3-.2.3-.2.1 0-.1-.1-.1-.1"/><path class="st252" d="M41.6 22.5s-.2.2-.2.3c0 .1.3-.2.3-.2.1 0-.1-.1-.1-.1z"/><path class="st225" d="M38.3 22.5s-.4.2-.4.3c0 .1 1.2-.1 1.9-.6l-.3-.2-1.2.5z"/><path class="st252" d="M38.3 22.5s-.4.2-.4.3c0 .1 1.2-.1 1.9-.6l-.3-.2-1.2.5z"/><path class="st225" d="M38.8 22.6s-.7.3-.2.3c0 0 1-.2 1.6-.6L40 22l-1.2.6"/><path class="st252" d="M38.8 22.6s-.7.3-.2.3c0 0 1-.2 1.6-.6L40 22l-1.2.6z"/><path class="st225" d="M39.8 21.9s-.8.4-.7.4c.1 0 .6-.1.9-.3.3-.2.4-.3.4-.3l-.3-.1c0 .1-.3.3-.3.3z"/><path class="st252" d="M39.8 21.9s-.8.4-.7.4c.1 0 .6-.1.9-.3.3-.2.4-.3.4-.3l-.3-.1c0 .1-.3.3-.3.3z"/><path class="st225" d="M39.5 22.7s-.3.2-.2.3c0 0 .6-.1 1-.4l-.1-.2-.7.3"/><path class="st252" d="M39.5 22.7s-.3.2-.2.3c0 0 .6-.1 1-.4l-.1-.2-.7.3"/><path class="st225" d="M39.1 22.7s-.3.2-.2.2c.1 0 .3.2 1.3-.5l.1-.1-.2-.2-1 .6"/><path class="st252" d="M39.1 22.7s-.3.2-.2.2c.1 0 .3.2 1.3-.5l.1-.1-.2-.2-1 .6z"/><path class="st225" d="M38.9 21.9c-.8.3-1.7.9-1.7.9.1 0 2.2-.9 2.2-.9m1.3 1.3s-.2.3-.1.3c0 0 .3.1.5-.2.3-.4-.2-.3-.2-.3l-.2.2z"/><path class="st252" d="M40.7 23.2s-.2.3-.1.3c0 0 .3.1.5-.2.3-.4-.2-.3-.2-.3l-.2.2z"/><path class="st225" d="m40.9 23.4-.1.3c.1 0 .2 0 .4-.3.1-.3-.1-.1-.1-.1l-.2.1zm-.4-.4s-.3.3-.2.4c.1 0 .4 0 .6-.3.2-.3 0 0 0 0l-.1-.3-.3.2"/><path class="st252" d="m40.9 23.4-.1.3c.1 0 .2 0 .4-.3.1-.3-.1-.1-.1-.1l-.2.1zm-.4-.4s-.3.3-.2.4c.1 0 .4 0 .6-.3.2-.3 0 0 0 0l-.1-.3-.3.2"/><path class="st225" d="M40.2 22.8s-.3.3-.2.4c0 .1.4 0 .7-.3.3-.3.1-.4.1-.4l-.6.3"/><path class="st252" d="M40.2 22.8s-.3.3-.2.4c0 .1.4 0 .7-.3.3-.3.1-.4.1-.4l-.6.3"/><path class="st225" d="m39.8 22.9-.2.2s0 .2.6-.2.5-.4.5-.4l-.3-.1-.6.5"/><path class="st252" d="m39.8 22.9-.2.2s0 .2.6-.2.5-.4.5-.4l-.3-.1-.6.5z"/><path class="st225" d="m37.9 22.5-.4.2s-.1.1.1.1.7-.1 1.4-.5l.6-.4-.3-.1c.1 0-1.4.7-1.4.7z"/><path class="st252" d="m37.9 22.5-.4.2s-.1.1.1.1.7-.1 1.4-.5l.6-.4-.3-.1c.1 0-1.4.7-1.4.7z"/><path class="st225" d="M37.3 22.8s.5-.1.7-.2c0 0 0 .1.2 0 0 0-.1.2.6-.2.8-.5 0 0 0 0l.9-.5-.1-.1s-1.7.7-1.8.7l-.5.3"/><path class="st252" d="m38.9 22.3.9-.5-.1-.1s-1.7.7-1.8.7c-.1 0-.6.3-.6.3s.5-.1.7-.2c0 0 0 .1.2 0 .1 0-.1.3.7-.2z"/><path class="st225" d="M41.1 23.4s-.1.4 0 .4.2-.1.3-.4c.1-.3-.3-.2-.3-.2v.2"/><path d="M41.1 23.4s-.1.4 0 .4.2-.1.3-.4c.1-.3-.3-.2-.3-.2v.2" style="fill:none;stroke:#000;stroke-width:.1284"/><path class="st225" d="M41.4 23.6v.3s.1 0 .3-.2l.1-.2-.3-.2-.1.3"/><path class="st252" d="M41.4 23.6v.3s.1 0 .3-.2l.1-.2-.3-.2c0 .1-.1.3-.1.3z"/><path class="st225" d="M41.5 23.1s-.2.5-.1.5.3-.4.3-.5c0-.1-.2 0-.2 0"/><path class="st252" d="M41.5 23.1s-.2.5-.1.5.3-.4.3-.5c0-.1-.2 0-.2 0z"/><path class="st225" d="M41.4 23.1s-.1.5 0 .5.2-.5.2-.5c.1-.2-.2 0-.2 0"/><path class="st252" d="M41.4 23.1s-.1.5 0 .5.2-.5.2-.5c.1-.2-.2 0-.2 0z"/><path class="st225" d="M41.6 23.1s-.1.4 0 .5c.1.1.2-.4.2-.5.1-.1-.2 0-.2 0"/><path class="st252" d="M41.6 23.1s-.1.4 0 .5c.1.1.2-.4.2-.5.1-.1-.2 0-.2 0z"/><path class="st253" d="m41.1 23-.1.4c.2.1.3-.3.3-.4.1-.1-.2 0-.2 0zm-1-.8-.3.3s.4 0 .6-.2c.2-.1.3-.2.3-.2l-.3-.1-.3.2z"/><path class="st252" d="m40.4 21.9-.2.2s.4-.1.5-.2c.1-.1.1-.2.1-.2l-.4.2z"/><path class="st253" d="M40.7 21.9s-.3.2-.2.3c.1.1.5-.3.5-.4 0 0-.4.1-.3.1"/><path class="st253" d="m40.5 21.8-.6.2s-.5.3-.5.4c.1 0 .4-.1.7-.2.3-.1.6-.4.6-.4m0 .3-.6.6c.1.1.5-.2.8-.4"/><path class="st253" d="M40.8 22.3s-.4.6-.3.7c0 .1.3-.1.4-.3l.2-.4"/><path class="st253" d="M41 22.3s-.4.7-.4.8c0 .1.3 0 .4-.3.1-.3.1-.5.1-.5H41zm.2.1s-.4.9-.4 1c.1.1.6-.7.6-.8.1-.2-.2-.3-.2-.2m-.9-.6s-.4.2-.3.2c.1 0 .5-.1.5-.1 0-.1-.2-.1-.2-.1z"/><path class="st253" d="m40.4 21.8-.2.2c.1.1.4-.2.5-.2h-.3z"/><path d="M40.9 21.8s-.3.5-.2.5c.1 0 .5-.3.5-.3-.1-.1-.3-.2-.3-.2z" style="fill:#452c25;stroke:#000;stroke-width:.1161"/><path class="st253" d="M41 21.9s-.4.5-.3.5h.1s.3-.2.3-.3c.1-.1-.1-.2-.1-.2"/><path class="st253" d="M41.1 22s-.3.5-.2.5c.1 0 .2-.1.3-.2.1-.1-.1-.3-.1-.3z"/><path class="st253" d="M41.2 22.2s-.2.3-.1.4c0 .1.2-.1.3-.2l-.2-.2zm.1.8s-.1.4 0 .4c.2.1.2-.3.3-.4-.1-.1-.3 0-.3 0z"/><path class="st253" d="M42 22.5h-.2s-.2-.2-.3-.2c-.1 0 0 0 0 0V22s0-.3-.2-.3h-.7c-.1 0-.3-.1-.8 0s-1.4.5-1.4.5 1-.2 1.3-.4c0 0 .3 0 .4-.1 0 0-.3.2 0 .1s.2 0 .2 0 0 .1.1 0h.2s.2.1.4 0c0 0 .1.3.2.3 0 0 .1.3.4.3l.1.1h.3"/><path class="st253" d="M39.9 21.7s-1 .4-1 .5c0 .1 1.1-.3 1.2-.4.2-.1-.2-.1-.2-.1"/><path d="M42.7 22.5s.1.1 0 0c.1.1.1.1 0 0 .1.1.1.1 0 0 .1 0 .1 0 0 0m-.8.8s0 .1 0 0c0 .1 0 .1 0 0 0 .1 0 0 0 0m.2-.8h.1-.1m.2 0h.1-.1m-.4.7c0 .1 0 .1 0 0 0 .1 0 .1 0 0 0 .1 0 .1 0 0 0 .1 0 .1 0 0"/><path class="st259" d="m42.1 24.9-.1.1v.1h.1l.1-.1c.1-.1.1-.2.1-.2s.1 0 .1.1h.1v-.1h.1s0-.1-.1-.1-.1 0-.1-.1l.1-.3-.1-.2-.1.2v.1s-.1.2-.1.3l-.3.1-.1.1v.1h.2s.1 0 .1-.1-.1 0 0 0"/><path class="st252" d="m42.1 24.9-.1.1v.1h.1l.1-.1c.1-.1.1-.2.1-.2s.1 0 .1.1h.1v-.1h.1s0-.1-.1-.1-.1 0-.1-.1l.1-.3-.1-.2-.1.2v.1s-.1.2-.1.3l-.3.1-.1.1v.1h.2s.1 0 .1-.1-.1 0 0 0"/><path class="st259" d="M42.9 24.3v.4s0 .1-.1.1h-.2v.1h.1v.1h.2v.2-.1s.1 0 .1.1v-.3l.2.1.1.1V25s0-.1-.1-.1-.1 0-.1-.1v-.4l-.2-.1"/><path class="st252" d="M42.9 24.3v.4s0 .1-.1.1h-.2v.1h.1v.1h.2v.2-.1s.1 0 .1.1v-.3l.2.1.1.1V25s0-.1-.1-.1-.1 0-.1-.1v-.4l-.2-.1z"/><path class="st260" d="M41.9 22.9v-.2s0-.1.2-.1c0 0 .1-.1.2-.1h.2c.1 0 .1.1.1.1h.1v.1l.1.1v.2s0 .1-.1.1v.2l-.1.1-.1.1-.1-.1h-.1s-.1.1-.2.1-.1-.1-.1-.1v-.1l-.1-.1v-.3z"/><path class="st252" d="M42.2 24.6s.1 0 0 0m-.1.2s.1 0 0 0m.8-.1c.1 0 .1 0 0 0m.1-.1s-.1 0 0 0m0-.1s-.1 0 0 0m-.1.5s.1 0 0 0m-.5-.2c-.1 0-.1 0 0 0m.8 0"/><path class="st261" d="M41.7 25c.1 0 0 .1 0 0 .1.1 0 .1 0 0"/><path class="st252" d="M41.7 25c.1 0 0 .1 0 0 .1.1 0 .1 0 0z"/><path class="st261" d="M42 25.1s-.1.1 0 .2v-.2z"/><path class="st252" d="M42 25.1s-.1.1 0 .2v-.2z"/><path class="st261" d="M42.5 24.9v-.1h.1l-.1.1s.1.1 0 0c0 .1 0 0 0 0"/><path class="st252" d="M42.5 24.9v-.1h.1l-.1.1s.1.1 0 0c0 .1 0 0 0 0z"/><path class="st261" d="M42.6 24.8v.2-.2"/><path class="st252" d="M42.6 24.8v.2-.2z"/><path class="st261" d="M42.9 25.1c.1 0 .1.1.1.1l-.1-.1c0 .1 0 0 0 0"/><path class="st252" d="M42.9 25.1c.1 0 .1.1.1.1l-.1-.1c0 .1 0 0 0 0z"/><path class="st261" d="m43.2 25 .1.1s.1-.1-.1-.1c.1-.1 0 0 0 0z"/><path class="st252" d="m43.2 25 .1.1s.1-.1-.1-.1c.1-.1 0 0 0 0z"/><path d="M42.9 22.9c0 .1.1.1 0 0 .1.1.1.1 0 0 .1.1 0 .1 0 0m0-.1c0-.1 0 0 0 0m0 .4v.1-.1m.1.1c0 .1 0 .1 0 0 0 .1 0 .1 0 0 0 .1 0 0 0 0m.2.5v.2-.2m0 .1v.1c-.1 0 0-.1 0-.1m-1.3-.4.1.1s0-.1-.1-.1m.1.2s0 .1.1.1c0 0-.1 0-.1-.1m.2.1s0 .1.1.1c-.1 0-.1 0-.1-.1m0 .1c0 .1 0 .1 0 0 0 .1 0 .1 0 0 0 .1 0 0 0 0s-.1 0 0 0m.1.1c0 .1 0 .1 0 0m-.1.1v.1c.1 0 .1 0 0-.1.1.1 0 0 0 0m.1-.5c.1 0 .1 0 0 0 0-.1 0 0 0 0m0 .1s.1 0 .1.1c0-.1-.1-.1-.1-.1m0 .2s.1 0 0 0c.1 0 .1 0 0 0 .1 0 0 0 0 0 0-.1 0-.1 0 0m.1.1c0 .1 0 .1 0 0 0 .1 0 .1 0 0 0 .1 0 .1 0 0 0 .1 0 .1 0 0m.1-.4c0-.1 0 0 0 0m.3-.1s-.1 0 0 0c-.1 0-.1 0 0 0-.1 0 0 0 0 0m.1-.1c0 .1 0 .1 0 0v.1-.1m0 .2c0 .1 0 .1 0 0 0 .1 0 .1 0 0 0 .1 0 .1 0 0m.1.2s0 .1 0 0l-.1.1c.1 0 .1 0 .1-.1m-.3-.2s0 .1 0 0c0 .1 0 .1 0 0 0 .1 0 .1 0 0 0 .1 0 .1 0 0m-.1.4s-.1-.1 0-.1v.1m-.1-.1c0-.1 0-.1 0 0 0-.1 0-.1 0 0m.3.1s0 .1 0 0c0 .1 0 .1 0 0 0 .1 0 0 0 0m.2.1v.1-.1m.1.1v.2-.2m.1-.2c0 .1 0 .1 0 0m-1.3-.6v.2-.2"/><path class="st11" d="M42.4 22.8c.1-.1.2-.2.3-.1-.1-.1-.3 0-.3.1 0-.1 0 0 0 0m.4 0c-.1-.1-.2-.1-.3 0h.3c0 .1 0 0 0 0m-.4.2c0 .1.1.2.1.4 0-.2 0-.3-.1-.4m-.1 0v.4-.4m.2 0c.1 0 .2.1.3.2-.1-.1-.2-.2-.3-.2 0-.1 0 0 0 0m-.1.1v.2-.2m.2 0c.1.1.1.1.1.2 0-.1-.1-.1-.1-.2m-.6.2c.1 0 .1-.1 0 0l.1-.1s0 .1-.1.1m.2-.6c0-.1-.1-.1-.1-.1s.1 0 .1.1m-.1 0h-.2.2m.2 0c0-.1 0-.1-.1-.2.1.1.1.1.1.2m.2.1h.2c-.1-.1-.1-.1-.2 0 0-.1 0 0 0 0m.1.1c.1 0 .2.1.2.1 0-.1-.1-.1-.2-.1m-.4.2c0 .1 0 .2-.1.2.1.1.1 0 .1-.2 0 .1 0 0 0 0"/><path class="st11" d="M42.4 23.1c0 .1.1.2.1.3 0-.1 0-.2-.1-.3 0-.1 0 0 0 0m.2 0c.1 0 .2.1.2.2-.1-.2-.1-.3-.2-.2 0-.1 0 0 0 0m0 .1v.2-.2m-.1-.3h.3c-.1-.1-.2-.1-.3 0 0-.1 0 0 0 0m-.1-.2c0-.1.1-.1.1-.2-.1 0-.1.1-.1.2-.1 0-.1 0 0 0-.1 0-.1 0 0 0m-.1 0c0-.1 0-.2-.1-.2 0 .1.1.2.1.2 0 .1 0 0 0 0m-.1.1c0-.1-.1-.1-.1-.2 0 .1.1.1.1.2m-.1-.1-.1-.1c0 .1 0 .1.1.1 0 .1 0 .1 0 0m.2.4v.2c.1 0 0-.1 0-.2"/><path class="st11" d="M42.4 23.1c0 .1.1.2.1.2 0-.1 0-.2-.1-.2 0-.1 0-.1 0 0m.1-.2c.1 0 .2 0 .2.1-.1 0-.1-.1-.2-.1m-.2-.1v-.2.2m-.2-.1c-.1 0-.1-.1-.2-.1.1.1.2.1.2.1 0 .1 0 0 0 0m0 .4c0 .1 0 .1 0 0-.1.1-.1.1-.1.2.1-.1.1-.1.1-.2 0 .1 0 0 0 0m.1.1c0 .1 0 .1-.1.1.1 0 .1 0 .1-.1m.3-.4c0-.1.2-.1.2-.1-.1 0-.2 0-.2.1 0-.1 0 0 0 0m-.5 0s-.1 0 0 0c-.1-.1-.1 0 0 0-.1 0 0 0 0 0m0 .3s-.1 0 0 0c-.1.1-.1.1 0 0-.1.1-.1.1 0 0-.1.1-.1.1 0 0-.1.1 0 .1 0 0 0 .1 0 0 0 0m0 0c0 .1 0 .1 0 0 0 .1 0 .1 0 0 0 .1 0 .1 0 0 .1.1 0 0 0 0m.2.1c0 .1-.1.1 0 .2-.1-.1 0-.1 0-.2m.1 0v.2-.2c0-.1 0 0 0 0m.2-.1c.1.1.1.1.1.2 0-.1-.1-.2-.1-.2m0-.1c.1.1.2.1.2.2 0-.1-.1-.1-.2-.2"/><path class="st11" d="M42.6 22.9c.1 0 .1 0 .2.1h.1v.1-.1l-.1-.1s-.1 0-.1-.1l-.1.1m.2.2s0 .1 0 0c0 .1 0 .1 0 0m-.3-.4h.2c0-.1-.1-.1-.2 0 0-.1 0 0 0 0m-.2 0s0-.1 0 0c.1-.1.1-.2.1-.2v.1c-.1 0-.1 0-.1.1m-.2.6v.2-.2m.1.1v.1-.1m.1-.1s0 .1 0 0v.1-.1m0-.2c0 .1 0 .1 0 0 0 .1 0 .1 0 0m0 .1s0-.1 0 0c0-.1 0-.1 0 0 0-.1 0 0 0 0m-.1-.1c0 .1 0 .1 0 0 0 .1 0 .1 0 0 0 .1 0 .1 0 0 0 .1 0 .1 0 0 0 .1 0 .1 0 0m0 0-.1.1.1-.1c0 .1 0 .1 0 0 0 .1 0 0 0 0m-.1.1s-.1 0 0 0c-.1 0-.1 0 0 0-.1 0 0 0 0 0m-.1-.1c-.1 0-.1 0 0 0-.1 0-.1.1 0 0-.1.1-.1.1 0 0m.3 0s0 .1 0 0c0 .1 0 .1 0 0 0 .1 0 .1 0 0m.1 0c0 .1 0 0 0 0m0 0c0-.1 0 0 0 0m0 0c.1 0 .1 0 0 0 .1 0 .1 0 0 0 .1 0 .1 0 0 0 .1-.1.1-.1 0 0 0-.1 0 0 0 0m.1-.1s0 .1 0 0c0 .1 0 0 0 0m0-.1s.1 0 0 0c.1 0 .1 0 0 0 .1 0 0 0 0 0m0-.1c.1 0 0 0 0 0s0-.1 0 0m0 0c0-.1 0-.1 0 0 0-.1 0-.1 0 0 0-.1 0-.1 0 0 0-.1 0-.1 0 0 0-.1 0-.1 0 0m-.1-.1.1-.1c-.1 0-.1.1-.1.1m-.1-.1v.1-.1c0 .1 0 .1 0 0 0 .1 0 0 0 0m-.1.1v.1-.1s0-.1 0 0c0-.1 0-.1 0 0m0 0v-.2c0 .1.1.2 0 .2m.2 0s0-.1 0 0c0-.1 0 0 0 0"/><path class="st11" d="M42.2 22.7v-.1.1c0 .1 0 .1 0 0m.4.3c.1 0 .1 0 0 0 .1.1.1 0 0 0 .1 0 .1 0 0 0 .1 0 .1 0 0 0 0-.1 0 0 0 0m-.1.2s0 .1 0 0c0 .1 0 .1 0 0 0 .1 0 .1 0 0 0 .1 0 0 0 0m-.1 0v.1-.1s0-.1 0 0c0-.1 0 0 0 0m0 0v.2-.2m.1 0v.1-.1m-.4.1c0-.1 0-.1 0 0 0-.1 0 0 0 0 .1 0 0-.1 0 0 0-.1 0-.1 0 0 0-.1 0-.1 0 0m.2-.1s0-.1 0 0c0-.1 0-.1 0 0 0-.1 0 0 0 0m0-.1c0 .1 0 .1 0 0 0 .1 0 .1 0 0 0 .1 0 .1 0 0 0 .1 0 .1 0 0 0 .1 0 .1 0 0 0 .1 0 .1 0 0m.1 0c0 .1 0 0 0 0m.1 0s0-.1 0 0c0-.1 0-.1 0 0 0-.1 0 0 0 0m0-.1c.1 0 .1 0 0 0 .1 0 .1 0 0 0 0-.1 0-.1 0 0m-.5-.3s-.1 0 0 0c-.1 0-.1.1 0 0 0 .1 0 .1 0 0 0 .1 0 .1 0 0 0 .1 0 0 0 0m.2 0c0-.1 0-.1 0 0m.1-.1v.1-.1s0-.1 0 0c0-.1 0 0 0 0m0 .1s.1 0 0 0l.1-.1-.1.1m.2.1c-.1 0-.1 0 0 0m0 .1s.1 0 .1.1c0-.1-.1-.2-.1-.1 0-.1 0 0 0 0"/><path class="st11" d="M42.5 22.9s.1 0 .1.1c0-.1-.1-.1-.1-.1m-.2-.1s0-.1 0 0c0-.1 0-.1 0 0 0-.1 0-.1 0 0 0-.1 0-.1 0 0 0-.1 0-.1 0 0 0-.1 0 0 0 0m-.3-.1.1.1s0 .1.1.1l-.1-.1c0-.1-.1-.2-.1-.1 0-.1 0-.1 0 0m.1.1c-.1 0-.1-.1 0 0-.1-.1-.1-.1 0 0-.1-.1-.1-.1 0 0-.1-.1-.1 0 0 0-.1 0-.1 0 0 0m-.1.3c0 .1 0 .1 0 0v.1-.1m.1 0c0 .1-.1.1 0 0v.1c-.1 0 0 0 0-.1m.1.2v-.2.2m0-.1c.1 0 .1 0 0 0v.1c.1-.1.1-.1 0-.1 0-.1 0-.1 0 0 0-.1 0 0 0 0m.1-.1v.1s0 .1 0 0c.1 0 .1-.1 0-.1"/><path class="st11" d="M42.3 23.1v.2c.1-.1.1-.2 0-.2m.1 0 .1.1-.1-.1c.1 0 0 0 0 0m.1-.1h.1c0-.1-.1-.1-.1 0 0-.1 0 0 0 0m0-.4-.1.1c.1 0 .1 0 .1-.1.1.1.1 0 0 0 .1 0 0 0 0 0m-.1 0v.1-.1c0 .1 0 .1 0 0 0 .1 0 0 0 0m-.1.1c0 .1 0 .1 0 0 0 .1 0 0 0 0m0 0c-.1 0-.1 0-.1-.1 0 .2 0 .2.1.1 0 .1 0 0 0 0"/><path d="M42.3 22.7h-.9l-.1.1-.1.1s0 .1.1.1l.1.1s.1.1.2.1c.2 0 .2-.1.5-.1.1 0 .4-.1.4-.1 0-.1.1-.1 0-.2 0-.1-.2-.1-.2-.1" style="fill:#dba05f"/><path class="st252" d="M42.3 22.7h-.9l-.1.1-.1.1s0 .1.1.1l.1.1s.1.1.2.1c.2 0 .2-.1.5-.1.1 0 .4-.1.4-.1 0-.1.1-.1 0-.2 0-.1-.2-.1-.2-.1z"/><path d="M41.5 23c0-.1 0 0 0 0 0-.1 0-.1 0 0 0-.1 0-.1 0 0l.1-.1s-.1 0-.1.1l.1-.1s-.1 0-.1.1l.1-.1-.1.1c0-.1 0-.1 0 0"/><path class="st263" d="M41.5 22.9c0-.1.1-.1.1-.1"/><path class="st264" d="M41.5 22.9s.1 0 0 0"/><path class="st263" d="M41.5 22.9s.1 0 0 0"/><path d="M41.6 22.9c-.1.1-.1.1 0 0-.1 0-.1 0-.1.1l.1-.1c-.1 0-.1 0-.1.1l.1-.1c-.1.1-.1.1 0 0-.1.1-.1.1 0 0-.1.1-.1.1 0 0-.1.1-.1.1 0 0-.1.1-.1.1 0 0-.1.1-.1.1 0 0"/><path class="st263" d="M41.6 22.9c-.1.1-.1.1 0 0l-.1.1"/><path class="st264" d="M41.5 23c.1-.1.1-.1 0 0m0 0"/><path d="M41.6 22.8s0-.1 0 0c-.1-.1-.2-.1-.2-.1h-.2v.1s-.1 0-.1.1.1 0 .1 0h.1l.1-.1h.2z" style="fill:#c6262c"/><path class="st252" d="M41.6 22.8s0-.1 0 0c-.1-.1-.2-.1-.2-.1h-.2v.1s-.1 0-.1.1.1 0 .1 0h.1l.1-.1h.2z"/><path d="M41.6 22.9s-.1.1 0 0c-.1.1-.1.1 0 0-.1 0-.1 0 0 0-.1 0 0 0 0 0"/><path class="st261" d="M41.1 23.2s-.1-.1.2-.2c0 0 .1 0 .1.1 0 0-.1 0-.3.1.1 0 0 0 0 0"/><path class="st252" d="M41.1 23.2s-.1-.1.2-.2c0 0 .1 0 .1.1 0 0-.1 0-.3.1.1 0 0 0 0 0z"/><path class="st261" d="M41.1 23.2h.3v-.1s-.1 0-.3.1c.1 0 .1-.1 0 0"/><path class="st252" d="M41.1 23.2h.3v-.1s-.1 0-.3.1c.1 0 .1-.1 0 0z"/><path class="st266" d="M41.4 23.1s.1 0 0 0c.1 0 .1 0 0 0 .1 0 0 0 0 0m0-.2s.1 0 0 0c.1 0 .1 0 0 0 .1 0 0 0 0 0m.1.1c.1 0 .1 0 0 0 .1 0 .1 0 0 0 .1 0 .1-.1 0 0 .1 0 .1 0 0 0m0-.1s-.1 0 0 0c-.1.1-.1.1 0 0-.1.1 0 .1 0 0m0 .3h.1c0-.1-.1 0-.1 0 0-.1 0 0 0 0m.2 0c.1 0 .1-.1.1-.1s-.1 0-.1.1c0-.1 0 0 0 0m0-.1.1-.1-.1.1m0-.3s.1 0 0 0c.1.1.1.1 0 0 .1 0 0 0 0 0m.8.1v-.2.2m-.6 0 .1.1-.1-.1m.2.2c.1 0 .1 0 0 0 .1 0 0 0 0 0"/><path d="M42.2 23.1c.1 0 .1 0 0 0m-.9-.1s-.1 0-.1.1l.1-.1" style="fill:#5e3f17"/><path d="M41.3 22.9s0-.1 0 0c0-.1 0-.1 0 0m.2-.1c-.1-.1-.1 0 0 0-.1 0 0 0 0 0m-.1-.1h.2-.2" style="fill:#842116"/><path class="st266" d="M41.2 23c0-.1 0-.1 0 0 0-.1 0-.1 0 0 0-.1 0-.1 0 0 0-.1 0-.1 0 0m1.2-.2c0 .1 0 .1 0 0 0 .1 0 .1 0 0 0 .1 0 .1 0 0m0 .1c0 .1 0 .1 0 0m-.1 0c0 .1 0 .1 0 0 0 .1 0 .1 0 0 0 .1 0 .1 0 0"/><path class="st225" d="M43 24.5z"/><path class="st260" d="M41.8 22.6c-.2 0-.4-.1-.4-.1-.3-.1-.3-.3-.3-.3-.1 0-.2-.3-.2-.3-.2.1-.4 0-.4 0h-.3s.1-.1-.2 0c-.3.1 0-.1 0-.1-.1 0-.4.1-.4.1-.1 0-.2.1-.3.1-.1 0-.2 0-.3.1-.2.1-.5.2-.8.4-.4.2-.7.3-.7.3s.4-.3.9-.5 1-.4 1.2-.5c.3-.1.6-.1.8 0h.7c.2 0 .2.3.2.3v.3s-.1 0 0 0c.3-.1.5.1.5.2.1-.1.1-.1 0 0l.2-.2c.1 0 .1 0 .2-.1h.6c.1-.1.4-.1.4-.1s.1 0 .1-.1l.2-.1s-.1-.5.5-.5c.5.1 1.3.1 1.4.1.1 0 .7.2.8.2.1.1.5.2.6.3.1 0 .3.1.5.2.3.1.5.3.5.3-.2-.1-.3-.2-.4-.2-.1 0-.2-.1-.3-.1-.2-.1-.3-.2-.4-.2-.5 0-.5-.1-.7-.1-.1 0 .1.1.1.1s-.4-.1-.5-.1c-.1-.1-.2-.1-.3-.1h-1.1l-.1.1h-.2c0-.1-.1.3-.2.4 0 .1-.3.1-.3.1-.1.1-.2.1-.2.1h-.4s-.1 0-.2-.1H42s-.1 0-.2.1"/><path d="M41.8 22.6c-.2 0-.4-.1-.4-.1-.3-.1-.3-.3-.3-.3-.1 0-.2-.3-.2-.3-.2.1-.4 0-.4 0h-.3s.1-.1-.2 0c-.3.1 0-.1 0-.1-.1 0-.4.1-.4.1-.1 0-.2.1-.3.1-.1 0-.2 0-.3.1-.2.1-.5.2-.8.4-.4.2-.7.3-.7.3s.4-.3.9-.5 1-.4 1.2-.5c.3-.1.6-.1.8 0h.7c.2 0 .2.3.2.3v.3s-.1 0 0 0c.3-.1.5.1.5.2.1-.1.1-.1 0 0l.2-.2c.1 0 .1 0 .2-.1h.6c.1-.1.4-.1.4-.1s.1 0 .1-.1l.2-.1s-.1-.5.5-.5c.5.1 1.3.1 1.4.1.1 0 .7.2.8.2.1.1.5.2.6.3.1 0 .3.1.5.2.3.1.5.3.5.3-.2-.1-.3-.2-.4-.2-.1 0-.2-.1-.3-.1-.2-.1-.3-.2-.4-.2-.5 0-.5-.1-.7-.1-.1 0 .1.1.1.1s-.4-.1-.5-.1c-.1-.1-.2-.1-.3-.1h-1.1l-.1.1h-.2c0-.1-.1.3-.2.4 0 .1-.3.1-.3.1-.1.1-.2.1-.2.1h-.4s-.1 0-.2-.1H42s-.1 0-.2.1" style="fill:#e7e7e7;stroke:#000;stroke-width:5.324091e-02"/><path class="st225" d="M41.9 22.5s-.1 0 0 0c-.1.1-.1.1 0 0"/><path d="M42.9 22.5s.1 0 0 0c.1 0 .1 0 0 0 .1 0 .1 0 0 0 0-.1 0-.1 0 0" style="fill:#574f4c"/></svg>
