<svg xmlns="http://www.w3.org/2000/svg" width="85" height="57"><path fill="#FFF" d="M-.02.153h85.04v56.693H-.02z"/><path fill="#FFC711" d="M28.153 16.635c.22.155 1.045.28 1.95-.278s.45-1.49 2.062-1.34c.722.068 1.705-.556 2.32-.574s1.04.685 1.53.66 1.212-.272 1.394-.938c.427-2.178.673-1.64.73-2.088s-.167-1.234 0-1.357.204.06.59.383 2.153.29 2.646.557 3.803.463 4.28.66 1.452.186 1.95.036.83-.743 1.077-.696.146.283 1.08.243.972-.685 1.53-.8 1.62.105 2.262.034.123-.34.452-.417.503.092 1.174 0 .69-.738.985-.696.474.22.94 0c1.168-.614.87-1.49 1.148-1.6.52-.14.807.49 1.53.348s1.047-.923 1.74-1.08.9-.146 1.253-.382 1.123-.787 1.427-.766.57-.352.766-.243-.943.8-1.07 1.08-.336.11-.81.312-1.132 1.168-1.357 1.427-.664-.002-.8.14-.63.66-1.114 1.077-.545-.084-.976.174-.33.558-.66.697-.153-.134-.696.104-1.14 1.663-1.497 1.81-1.21-.14-1.495-.034-1.113 1.457-1.003 2.323 1.055 1.536 1.246 1.713-.082.272.07.592l.372.313s.147.56.394.766.434.347.668.6.125.876-.047.845c-.382-.07-.516-.314-1.188-.44s-1.15.065-1.328.298-.564.766-.985.375c-.72-.703-1.344-.922-2.063-1.016s-1.364.46-1.672 1.016.066 1.762-.45 2.045-.112.512-.487.522.012-.427-.627-.278-2.497 1.64-3.264 1.82-3.427-.044-4.39.156-1.298 2.766-1.845 2.72-1.33-2.205-1.775-2.47-1.478-.143-1.91.067-1.816.293-2.207-.098c-.69-.653-1.054-.486-1.416-.526s-.588-.406-.837-.486-.048-.266-.14-.417-.627.17-.974-.313.134-1.06-.175-1.6-.556-.743-.696-1.22.082-1.068 0-1.148c-.376-.246-.536-.334-.593-.66s.28-.364.21-.767-1.212-1.103-.905-1.67 1.45.33 1.67.485z"/><path fill="#2F8540" d="M51.254 31.22c.347-.317.65-.654.918-1.007a2.46 2.46 0 0 0 1.396-.757c.508-.566.68-1.636.68-1.636s-1.03.272-1.552.854c-.48.535-.577 1.167-.597 1.427a7.17 7.17 0 0 1-1.016 1.044 2.32 2.32 0 0 0 .446-.91c.173-.742-.19-1.762-.19-1.762s-.773.734-.95 1.494a2.447 2.447 0 0 0 .18 1.575c-.405.302-.84.59-1.306.86.225-.225.514-.594.642-1.11.184-.738-.165-1.763-.165-1.763s-.783.724-.97 1.48a2.446 2.446 0 0 0 .157 1.58c-.466.258-.947.507-1.446.74.237-.2.516-.508.686-.94.278-.707.068-1.768.068-1.768s-.872.61-1.158 1.338c-.278.7-.123 1.354-.055 1.576-.52.234-1.047.46-1.576.674.24-.178.516-.44.71-.823.347-.678.24-1.754.24-1.754s-.928.527-1.282 1.223a2.44 2.44 0 0 0-.205 1.566c-.485.188-.967.374-1.436.55.24-.185.517-.46.706-.854.328-.687.193-1.76.193-1.76s-.914.55-1.25 1.255a2.446 2.446 0 0 0-.17 1.554c-.85.317-1.647.615-2.337.898-.69-.283-1.488-.58-2.338-.898.054-.24.15-.888-.17-1.553-.336-.703-1.25-1.254-1.25-1.254s-.134 1.073.194 1.76c.187.395.464.67.704.854-.47-.176-.95-.36-1.435-.55.045-.226.14-.894-.207-1.567-.354-.695-1.28-1.222-1.28-1.222s-.108 1.077.237 1.755c.194.382.47.646.712.823-.53-.213-1.058-.44-1.578-.674.068-.223.223-.875-.055-1.576-.287-.727-1.16-1.34-1.16-1.34s-.21 1.062.07 1.77c.17.432.448.74.685.94-.5-.234-.98-.483-1.447-.742.094-.2.344-.836.158-1.58-.188-.756-.972-1.48-.972-1.48s-.35 1.025-.165 1.765c.127.517.416.886.642 1.11-.468-.27-.9-.56-1.307-.86.097-.2.354-.83.18-1.574-.177-.76-.95-1.494-.95-1.494s-.363 1.02-.19 1.76c.09.384.27.687.445.912a7.147 7.147 0 0 1-1.014-1.043c-.02-.26-.117-.89-.597-1.426-.522-.58-1.552-.854-1.552-.854s.17 1.07.68 1.636c.51.57 1.177.722 1.395.757.267.353.57.69.918 1.006a2.305 2.305 0 0 0-.905-.24c-.78-.04-1.698.502-1.698.502s.88.63 1.64.67a2.468 2.468 0 0 0 1.525-.464c.397.313.823.61 1.28.892a2.37 2.37 0 0 0-1.227-.043c-.76.182-1.49.96-1.49.96s1.022.357 1.763.18c.753-.18 1.204-.703 1.335-.873.46.267.935.52 1.428.763a2.358 2.358 0 0 0-1.136.11c-.734.263-1.372 1.116-1.372 1.116s1.054.242 1.77-.016c.695-.25 1.08-.78 1.21-.987.498.232 1.002.455 1.508.667a2.325 2.325 0 0 0-.96.09c-.744.235-1.415 1.063-1.415 1.063s1.044.282 1.77.053a2.48 2.48 0 0 0 1.25-.94c.484.196.963.385 1.434.567a2.324 2.324 0 0 0-1.004.196c-.713.318-1.288 1.216-1.288 1.216s1.07.164 1.765-.146c.634-.283.98-.795 1.115-1.036.662.257 1.297.504 1.878.746-.553.24-1.025.476-1.362.706-.163.18.02.422.193.315.44-.273 1.006-.544 1.638-.82.63.276 1.195.547 1.637.82.172.106.356-.136.193-.315-.337-.23-.81-.465-1.36-.706.58-.242 1.214-.49 1.876-.746.136.24.482.753 1.116 1.036.695.31 1.765.146 1.765.146s-.574-.897-1.287-1.216a2.337 2.337 0 0 0-1.003-.196c.47-.183.95-.37 1.434-.568.138.2.544.717 1.25.94.726.23 1.77-.052 1.77-.052s-.67-.828-1.415-1.063a2.326 2.326 0 0 0-.96-.09 40.49 40.49 0 0 0 1.506-.667c.13.208.516.736 1.21.987.717.258 1.77.016 1.77.016s-.637-.854-1.37-1.117a2.4 2.4 0 0 0-1.137-.11c.49-.24.967-.495 1.427-.762.13.17.58.693 1.334.874.742.177 1.763-.182 1.763-.182s-.73-.777-1.49-.96a2.398 2.398 0 0 0-1.226.044c.457-.28.883-.578 1.28-.892.174.127.752.5 1.525.463.76-.038 1.64-.668 1.64-.668s-.92-.54-1.698-.5a2.3 2.3 0 0 0-.91.237z"/></svg>
