<svg xmlns="http://www.w3.org/2000/svg" width="87" height="57"><path fill="#EC2227" d="M0-.7h87v58H0z"/><path fill="#0751A0" d="M0-.7h87v43.5H0z"/><path fill="#FEDC00" d="M0-.7h87v29H0z"/><path fill="#B2BABF" stroke="#010101" stroke-width=".028" d="M33.3 38s-.2.1-.4.1c0 0-.2.6-.4.8.3-.2.7-.3.8-.3 0-.2 0-.4.1-.4 0-.1 0-.2-.1-.2z"/><path stroke="#010101" stroke-width=".014" d="m32.6 38.8.8-.7m-.1.4-.4-.4" fill="none"/><path fill="#B2BABF" stroke="#010101" stroke-width=".028" d="m34.7 36.5.2.3-1.4 1.3h-.1l-.1-.1v-.1l1.4-1.4z"/><path stroke="#010101" stroke-width=".014" d="m33.5 38 1.4-1.3" fill="none"/><path fill="#B2BABF" stroke="#010101" stroke-width=".028" d="m35.2 19.7.6.6-.2.1-.6-.7h.2"/><path fill="#0751A0" stroke="#010101" stroke-width=".028" d="m37.3 26.7.8.8.4-.9.1-.5c-.1-1.6 0-3.1 0-3.1l.2.2c-.3-.3-.5-.6-.9-.9l-.5-.5s-.1 3.3-.1 4.9z"/><path fill="#EC2227" stroke="#010101" stroke-width=".028" d="m38.5 26.1.8-2.3-.8-.8v3.1z"/><path fill="#FEDC00" stroke="#010101" stroke-width=".028" d="m37.4 21.8.5.5c-.9-.9-2-2.1-2.6-2.6-.1-.1-.1 2.3-.1 4.9l2.1 2.2c0-1.7.1-5 .1-5z"/><path stroke="#010101" stroke-width=".014" d="M39.1 23.5 35 19.3" fill="none"/><path fill="#B2BABF" stroke="#010101" stroke-width=".021" d="M35 19.4s-.1-.3-.1-.5c0 0-.7-.3-.9-.5.2.3.4.9.4 1 .2 0 .4.1.5.2l.1-.2z"/><path fill="#EC2227" stroke="#010101" stroke-width=".021" d="m35.6 20.1-.2-.2s0 .1-.1.2l-.1 1.5c0 .3-.1.7-.1.9 0 .2.1.5.1.5s.1.1.1 0v-.6c0-.1 0-.1.1-.6v-1c.1-.2.2-.7.2-.7z"/><path fill="#0751A0" stroke="#010101" stroke-width=".021" d="M35.3 19.7s-.2.6-.2 1-.1 1-.1 1.1c0 .1-.1.4-.1.7v.1s.1.1.2 0c0-.2.1-.6.1-.9 0-.3 0-1.2.1-1.5 0-.1.1-.2.1-.2v-.1l-.1-.2z"/><path fill="#EC2227" stroke="#010101" stroke-width=".021" d="m35.8 19.6-.5.1c.5 0 .6.3.6.3l.2-.2c.1-.2-.2-.3-.3-.2z"/><path fill="#EC2227" stroke="#010101" stroke-width=".014" d="M35.2 19.7c.1.1.3.5.5.4l.1-.1c.1 0-.1-.3-.6-.3z"/><path fill="#0751A0" stroke="#010101" stroke-width=".021" d="M35.3 19.7s.4-.3.5-.2c.1 0 .1.1.1.2s0 .1-.2.1c-.3-.1-.2-.1-.4-.1zm.7-.3c-.1-.3-.4-.2-.4-.2-.3.1-.3.4-.4.5.7-.6.6 0 .6 0 .2-.1.2-.3.2-.3z"/><path stroke="#010101" stroke-width=".014" d="m34 18.4 1 1.1m-.6-.1.5-.5" fill="none"/><path fill="#B2BABF" stroke="#010101" stroke-width=".021" d="M35.3 18.7c0 .2 0 .4-.1.6l-.1.2c0 .1-.1.1-.2.2-.2.2-.6.2-.9.1 0 0 .1 0 .1.1.5.3 1.1.2 1.2-.2.2-.5.1-.8 0-1z"/><circle fill="#E7B921" stroke="#010101" stroke-width=".028" cx="35" cy="22.5" r=".1"/><path fill="#E7B921" stroke="#010101" stroke-width=".028" d="M35.2 23.3h-.5c0-.3 0-.7.3-.7s.2.4.2.7z"/><path stroke="#010101" stroke-width=".028" d="M35 22.9v.4m.1-.4v.4" fill="none"/><circle fill="#E7B921" stroke="#010101" stroke-width=".028" cx="35.3" cy="22.9" r=".1"/><path fill="#E7B921" stroke="#010101" stroke-width=".028" d="M35.5 23.7H35c0-.3 0-.7.2-.7.3 0 .3.5.3.7z"/><path stroke="#010101" stroke-width=".028" d="M35.2 23.3v.4m.2-.4v.4" fill="none"/><g transform="matrix(1.146 0 0 1.171 33.178 82.138)" stroke="#010101"><path fill="#B2BABF" d="M17.8-37.7s.2.1.4.1c0 0 .2.5.4.7-.2-.2-.6-.3-.7-.3 0-.1 0-.3-.1-.4-.1 0 0-.1 0-.1z"/><path d="m18.4-37-.7-.6m.1.4.3-.4" fill="none"/><path fill="#B2BABF" d="m16.6-39-.2.2 1.2 1.1h.1l.1-.1v-.1L16.6-39z"/><path d="m17.7-37.7-1.2-1.1" fill="none"/><path fill="#B2BABF" d="m16.2-53.4-.5.5.1.1.5-.5-.1-.1"/><path fill="#0751A0" d="m14.3-47.3-.7.7-.3-.8-.1-.5v-2.6l-.2.2.8-.8.4-.4c.1 0 .1 2.8.1 4.2z"/><path fill="#EC2227" d="m13.3-47.9-.7-2 .7-.7v2.7z"/><path fill="#FEDC00" d="m14.3-51.5-.4.4c.8-.8 1.7-1.8 2.2-2.2.1-.1.1 1.9.1 4.2l-1.9 1.8v-4.2z"/><path d="m12.8-50 3.6-3.6" fill="none"/><path fill="#B2BABF" d="M16.3-53.6s.1-.2.1-.4c0 0 .6-.2.8-.5-.2.3-.3.7-.3.9-.2 0-.4 0-.4.2l-.2-.2z"/><path fill="#EC2227" d="m15.9-53 .2-.2s0 .1.1.2c.1.2 0 1 0 1.3 0 .3.1.6.1.8 0 .2-.1.4-.1.4s-.1.1-.1 0v-.5s0-.1-.1-.5v-.8c-.1-.3-.1-.7-.1-.7z"/><path fill="#0751A0" d="M16.1-53.3s.2.5.2.8c0 .4 0 .9.1.9 0 .1.1.4.1.6v.1s-.1.1-.2 0c0-.2-.1-.5-.1-.8V-53c0-.1 0-.2-.1-.2v-.1z"/><path fill="#EC2227" d="M15.7-53.4c.1 0 .4.1.4.1-.4 0-.6.2-.6.2l-.1-.2c-.1-.1.2-.1.3-.1zm.5.1c-.1.1-.2.4-.5.3l-.1-.1s.2-.2.6-.2z"/><path fill="#0751A0" d="m16.1-53.3-.4-.2c-.1 0-.1.1-.1.1s0 .1.2.1h.3zm-.6-.3c.1-.3.3-.2.3-.2.3 0 .3.4.3.5-.6-.5-.5 0-.5 0-.1-.1-.1-.3-.1-.3z"/><path d="m17.2-54.4-.8.9m.5-.1-.4-.4" fill="none"/><path fill="#B2BABF" d="M16.1-54.2c0 .1 0 .3.1.5 0 .1.1.1.1.1 0 .1.1.1.1.1.2.2.5.2.8.1h-.1c-.4.2-.9.2-1.1-.2 0-.1 0-.4.1-.6z"/><circle fill="#E7B921" cx="16.3" cy="-50.9" r=".1"/><path fill="#E7B921" d="M16.2-50.2h.4c0-.2 0-.6-.2-.6-.3 0-.2.3-.2.6z"/><path d="M16.4-50.6v.4m-.1-.4v.4" fill="none"/><circle fill="#E7B921" cx="16.1" cy="-50.6" r=".1"/><path fill="#E7B921" d="M15.9-49.9h.4c0-.2 0-.6-.2-.6s-.2.4-.2.6z"/><path d="M16.2-50.2v.4m-.1-.4v.4" fill="none"/></g><path stroke="#010101" stroke-width=".021" d="M4.8-51c-.2.1-.4.2-.7.2" transform="matrix(1.146 0 0 1.171 33.178 82.138)" fill="none"/><path fill="#3DB54A" stroke="#010101" stroke-width=".021" d="M3.7-50.5v-.5c0-.1.4-.4.3-1.2 0 0-.1-.3 0-.3 0 0-.4.7-.4.9v.6c0 .1.1.3.1.3" transform="matrix(1.146 0 0 1.171 33.178 82.138)"/><path stroke="#010101" stroke-width=".021" d="M3.9-52.4c0 .1 0 .2-.1.3 0 .1 0 .2-.1.3 0 .1-.1.2-.1.4v.3m.1 0c0-.1.1-.2.2-.3m-.2 0-.1-.3m.1.4c0-.2.2-.2.2-.3m-.1-.1-.1-.2m.1.1.1-.1.1-.2m-.1.1v-.3" transform="matrix(1.146 0 0 1.171 33.178 82.138)" fill="none"/><path fill="#3DB54A" stroke="#010101" stroke-width=".021" d="M4.1-51.1c0-.2 0-.3.2-.4.1-.1.3-.1.3-.3v.2c0 .1 0 .1-.1.2 0 .1-.1.2-.2.3m-.8.6c.1-.2.3-.4.5-.5.2-.1.4-.1.6-.1h.3l.3-.1c-.3.2-.5.5-.9.7l-.9.2" transform="matrix(1.146 0 0 1.171 33.178 82.138)"/><path stroke="#010101" stroke-width=".021" d="M3.5-50.5c.2-.2.4-.3.6-.4l.6-.2m-.5.3c.1 0 .2.1.2.1m0-.2h.2m-.4 0c-.1-.1.1-.1.1-.2" transform="matrix(1.146 0 0 1.171 33.178 82.138)" fill="none"/><path fill="#3DB54A" stroke="#010101" stroke-width=".021" d="m5.2-51.8.1-.4c0-.1.1-.2.2-.3v.4c-.1.2-.2.3-.3.3" transform="matrix(1.146 0 0 1.171 33.178 82.138)"/><path stroke="#010101" stroke-width=".021" d="m5.3-51.9.1-.3" transform="matrix(1.146 0 0 1.171 33.178 82.138)" fill="none"/><path fill="#3DB54A" stroke="#010101" stroke-width=".021" d="M3.3-48c.1.2.3.5.1.8 0-.1 0-.2-.1-.2h-.2c-.1-.2-.1-.3-.2-.4v-.1l.4-.1z" transform="matrix(1.146 0 0 1.171 33.178 82.138)"/><path stroke="#010101" stroke-width=".021" d="M3.2-47.9c.2.1.3.3.3.5m-.4-.5v.3m.1-.2c.1.1.2.1.3.3" transform="matrix(1.146 0 0 1.171 33.178 82.138)" fill="none"/><path fill="#3DB54A" stroke="#010101" stroke-width=".021" d="M2.7-48.6c.1-.1.1-.2.1-.3.1-.1.2-.2.4-.3.1-.1.3-.1.4-.1.1 0 .3.1.4 0-.3.1-.6.1-.8.3-.1.1-.3.3-.5.4 0 .2-.1.3-.1.4" transform="matrix(1.146 0 0 1.171 33.178 82.138)"/><path stroke="#010101" stroke-width=".021" d="M2.7-48.5c.1-.2.2-.3.3-.4.1-.1.3-.2.5-.2m-.7.4.3-.2" transform="matrix(1.146 0 0 1.171 33.178 82.138)" fill="none"/><path fill="#3DB54A" stroke="#010101" stroke-width=".021" d="M3.3-49.1c.1-.1.2-.1.3-.1m-1 1.1s.1-.1.1-.2l.1-.2.3-.4c.2 0 .3-.1.4-.1.1 0 .4 0 .5-.1l-.2.3-.4.4-.4.2c-.1-.1-.3-.1-.4.1 0-.1 0-.1.1-.1" transform="matrix(1.146 0 0 1.171 33.178 82.138)"/><path stroke="#010101" stroke-width=".021" d="M2.7-48.2c.1 0 .1-.1.2-.2l.2-.2.3-.2.3-.1m-.6.4c.1 0 .2-.1.2-.1h.1m-.2 0c.1-.1.2-.2.2-.3" transform="matrix(1.146 0 0 1.171 33.178 82.138)" fill="none"/><path fill="#3DB54A" stroke="#010101" stroke-width=".021" d="m4.5-51.2.4-.4c.1 0 .1-.1.3-.1.3-.1.6.1.9.1l-.4.2-.4.1c-.3-.1-.6-.1-.8.1" transform="matrix(1.146 0 0 1.171 33.178 82.138)"/><path stroke="#010101" stroke-width=".021" d="m4.7-51.3.5-.2.5-.1m-.5.1h.4m-.6 0 .2-.1.1-.1" transform="matrix(1.146 0 0 1.171 33.178 82.138)" fill="none"/><path fill="#3DB54A" stroke="#010101" stroke-width=".021" d="M3.3-49.6c.1 0 .2-.2.2-.3 0-.1.1-.3.2-.4.1-.1.2-.1.2-.2.1-.1.1-.1.3-.1h.9c-.1 0-.3.2-.4.3-.1.2-.2.3-.4.5-.2.1-.4.2-.6.2-.2-.1-.4-.1-.4 0" transform="matrix(1.146 0 0 1.171 33.178 82.138)"/><path stroke="#010101" stroke-width=".021" d="M3.5-49.7c.2-.2.3-.5.6-.6.2-.1.5-.1.7-.3m-1.2.7c.1-.1.2-.1.3-.1h.3m-.1-.4h.4m-.6.1c0-.1.1-.2.2-.3" transform="matrix(1.146 0 0 1.171 33.178 82.138)" fill="none"/><path fill="#3DB54A" stroke="#010101" stroke-width=".021" d="M3.1-49.2c.1 0 .1-.1.2-.2 0-.1.1-.2.1-.2s.1-.1.2-.1h.9l-.3.1c-.1.1-.2.2-.3.2-.1.1-.3.1-.5.1-.1 0-.2 0-.3.1" transform="matrix(1.146 0 0 1.171 33.178 82.138)"/><path stroke="#010101" stroke-width=".021" d="M3.3-49.3c.2-.1.3-.3.5-.3s.4 0 .5-.1m-.9.3c.1 0 .1-.1.2 0h.2m0-.2H4m-.4 0c0-.1.1-.1.1-.1" transform="matrix(1.146 0 0 1.171 33.178 82.138)" fill="none"/><path fill="#3DB54A" stroke="#010101" stroke-width=".021" d="M2.5-47.9s-.8-.9-.4-1.9v.3s.5.7.4 1.3v.3z" transform="matrix(1.146 0 0 1.171 33.178 82.138)"/><path stroke="#010101" stroke-width=".021" d="M2.5-48s-.1-.7-.2-.9c-.1-.2-.1-.6-.1-.7m.1.7.1-.1m0 .4s0-.1.1-.2m-.1.3c0-.1-.2-.1-.2-.1m0-.2L2-49m.1-.2c-.1 0-.1-.1-.1-.2m.4 1.2c-.1-.1-.1-.1-.2-.1m.2-.1.1-.2" transform="matrix(1.146 0 0 1.171 33.178 82.138)" fill="none"/><path fill="#3DB54A" stroke="#010101" stroke-width=".021" d="M3.9-51.4s.2-.4.2-.5c0 0 .6-.1.8-.9 0 0 0-.3.1-.3 0 0-.6.5-.8.6 0 .2-.1.5-.2.6v.3" transform="matrix(1.146 0 0 1.171 33.178 82.138)"/><path stroke="#010101" stroke-width=".021" d="M4.9-52.9c0 .1-.1.2-.2.2-.1.1-.1.2-.2.2l-.3.3-.2.3m.1 0c0-.1.2-.1.3-.1m-.1-.2.1-.3m-.2.3.4-.1m-.2-.1c0-.1-.1-.2 0-.2m.2.1.1-.1s.1 0 .1-.1m-.1.1.1-.3" transform="matrix(1.146 0 0 1.171 33.178 82.138)" fill="none"/><path fill="#3DB54A" stroke="#010101" stroke-width=".021" d="M2.8-51.1v-.3s-.3-.2-.2-.7c0 0 .1-.2 0-.2 0 0 .3.4.3.5v.6" transform="matrix(1.146 0 0 1.171 33.178 82.138)"/><path stroke="#010101" stroke-width=".021" d="M2.7-52.2v.4l.1.2v.2m.1 0-.1-.2m.1 0s0-.1.1-.2m-.1.2-.2-.2m.1.1.1-.1m-.1 0-.1-.1m.1 0v-.2" transform="matrix(1.146 0 0 1.171 33.178 82.138)" fill="none"/><path fill="#3DB54A" stroke="#010101" stroke-width=".021" d="M2.8-49.9s0-.6.1-.6c0-.1.5-.4.4-1.4v-.4l-.5 1c-.1.2 0 .6 0 .7v.4" transform="matrix(1.146 0 0 1.171 33.178 82.138)"/><path stroke="#010101" stroke-width=".021" d="m3.2-52-.1.3c0 .1 0 .2-.1.3 0 .2-.1.3-.1.4 0 .1 0 .3-.1.4m0 .1c0-.1.1-.2.2-.3m-.1-.1v-.3m0 .3c0-.2.3-.2.3-.3m-.2 0-.1-.3m.2.1.1-.2.1-.1m-.2.2v-.3" transform="matrix(1.146 0 0 1.171 33.178 82.138)" fill="none"/><path fill="#3DB54A" stroke="#010101" stroke-width=".021" d="M2.8-50.5s-.2-.3-.2-.4c-.1-.1-.1-.3-.2-.3 0 0 .4.2.4.3" transform="matrix(1.146 0 0 1.171 33.178 82.138)"/><path stroke="#010101" stroke-width=".021" d="M2.8-50.7c-.1-.1-.1-.3-.3-.4m.2.4c0-.1-.1-.1-.1-.1m.1 0v-.2" transform="matrix(1.146 0 0 1.171 33.178 82.138)" fill="none"/><path fill="#3DB54A" stroke="#010101" stroke-width=".021" d="M2.8-49.6s0-.6.3-.7c0 0 .3-.1.4-.2l.1-.1c-.1.1-.2.9-.2.9s-.1.3-.3.6c-.2.2-.3.4-.3.4 0 .1-.1.3-.1.3" transform="matrix(1.146 0 0 1.171 33.178 82.138)"/><path stroke="#010101" stroke-width=".021" d="m2.8-48.9.2-.3c0-.1.1-.2.1-.4l.1-.4c.1-.1.2-.2.2-.3m-.3.7.3-.2m-.5.6c.1-.1.2-.1.2-.2m-.1-.1-.1-.3m.2 0c-.1-.2-.1-.3 0-.4m-.3.3c0-.1.1-.3.1-.5 0-.1.1-.2.1-.2l.1-.2" transform="matrix(1.146 0 0 1.171 33.178 82.138)" fill="none"/><path fill="#FEDF50" stroke="#010101" stroke-width=".014" d="M3.2-50.8h.1s.1 0 0-.1v-.1h-.2v.1s.1 0 .1.1m.1.3h.1s.1 0 0-.1v-.1h-.2v.1s0 .1.1.1" transform="matrix(1.146 0 0 1.171 33.178 82.138)"/><path stroke="#010101" stroke-width=".021" d="M3.2-50.5c-.3.2-.5.5-.4.8" transform="matrix(1.146 0 0 1.171 33.178 82.138)" fill="none"/><path fill="#3DB54A" stroke="#010101" stroke-width=".021" d="m3.8-51.3.5-.5c.1-.1.3-.1.5-.1.1 0 .3 0 .3-.1l-.3.3c-.1.1-.2.2-.4.2-.1 0-.2 0-.4.1 0 0-.1.1-.2.1z" transform="matrix(1.146 0 0 1.171 33.178 82.138)"/><path stroke="#010101" stroke-width=".021" d="M4.1-51.4c.1-.1.2-.2.3-.2.1-.1.3-.1.4-.1m-.6.1.3-.1m-.1 0 .2-.1m-.7 1.1c-.1.1-.4.1-.4.3" transform="matrix(1.146 0 0 1.171 33.178 82.138)" fill="none"/><path fill="#FEDF50" stroke="#010101" stroke-width=".014" d="m3.9-50.7.1.1c.1 0 .1 0 .1-.1v-.1c.1-.1-.1-.1-.1-.1s-.1 0 0 .1c-.2 0-.2.1-.1.1" transform="matrix(1.146 0 0 1.171 33.178 82.138)"/><path fill="#DD2427" d="M37.762 22.651c0 .117.115-.117 0 0"/><path fill="#FEDF50" stroke="#010101" stroke-width=".014" d="m4.4-50.4.1.1c.1 0 .1 0 .1-.1v-.1c.1-.1-.1-.1-.1-.1s-.1 0 0 .1c-.2.1-.2.1-.1.1" transform="matrix(1.146 0 0 1.171 33.178 82.138)"/><path fill="#DD2427" d="M38.22 23.12c0 .117.115-.117 0 0"/><path fill="#FEDF50" stroke="#010101" stroke-width=".014" d="m4.1-50.1.1.1c.1 0 .1 0 .1-.1v-.1c.1-.1-.1-.1-.1-.1s-.1 0 0 .1c-.2 0-.2 0-.1.1" transform="matrix(1.146 0 0 1.171 33.178 82.138)"/><path fill="#DD2427" d="M37.877 23.354c0 .117.115-.117 0 0"/><path fill="#FEDF50" d="m37.418 23.471.115.117c.115 0 .115 0 .115-.117v-.117c.115-.117-.115-.117-.115-.117s-.115 0 0 .117c-.229 0-.229.117-.115.117"/><path fill="#DD2427" d="M37.533 23.354c0 .117.115-.117 0 0"/><path fill="#FEDF50" stroke="#010101" stroke-width=".014" d="m3.4-49.8.1.1c.1 0 .1 0 .1-.1v-.1c.1-.1-.1-.2-.1-.1 0 0-.1 0 0 .1-.1 0-.1.1-.1.1" transform="matrix(1.146 0 0 1.171 33.178 82.138)"/><path fill="#DD2427" d="M37.189 23.705c0 .117.115 0 0 0"/><path fill="#FEDF50" stroke="#010101" stroke-width=".014" d="m4.8-50.9.1.1c.1 0 .1 0 .1-.1v-.1c.1-.1-.1-.1-.1-.1s-.1 0 0 .1c-.1 0-.1.1-.1.1" transform="matrix(1.146 0 0 1.171 33.178 82.138)"/><path fill="#DD2427" d="M38.793 22.417c0 .234.115 0 0 0"/><path fill="#FEDF50" stroke="#010101" stroke-width=".014" d="m5.3-51.6.1.1c.1 0 .1 0 .1-.1v-.1c.1-.1-.1-.1-.1-.1s-.1 0 0 .1c-.1 0-.1 0-.1.1" transform="matrix(1.146 0 0 1.171 33.178 82.138)"/><path fill="#DD2427" d="M39.366 21.597c0 .117.115-.117 0 0"/><path fill="#FEDF50" stroke="#010101" stroke-width=".014" d="m4.9-51.7.1.1c.1 0 .1 0 .1-.1v-.1c.1-.1-.1-.1-.1 0 0 0-.1 0 0 .1-.1-.1-.1 0-.1 0" transform="matrix(1.146 0 0 1.171 33.178 82.138)"/><path fill="#DD2427" d="M38.908 21.48c0 .234.115 0 0 0"/><path fill="#FEDF50" stroke="#010101" stroke-width=".014" d="m3.9-49.5.1.1c.1 0 .1 0 .1-.1v-.1c.1-.1-.1-.1-.1-.1s-.1 0 0 .1c-.2 0-.2.1-.1.1" transform="matrix(1.146 0 0 1.171 33.178 82.138)"/><path fill="#DD2427" d="M37.647 24.056c0 .117.115-.117 0 0"/><path fill="#FEDF50" stroke="#010101" stroke-width=".014" d="m3.4-49.4.1.1c.1 0 .1 0 .1-.1v-.1c.1-.1-.1-.1-.1-.1s-.1 0 0 .1c-.1 0-.1.1-.1.1" transform="matrix(1.146 0 0 1.171 33.178 82.138)"/><path fill="#DD2427" d="M37.189 24.174c0 .234.115 0 0 0"/><path fill="#FEDF50" stroke="#010101" stroke-width=".014" d="m3.4-48.7.1.1c.1 0 .1 0 .1-.1v-.1c.1-.1-.1-.1-.1-.1s-.1 0 0 .1c-.1 0-.1.1-.1.1" transform="matrix(1.146 0 0 1.171 33.178 82.138)"/><path fill="#DD2427" d="M37.189 24.993c0 .117.115-.117 0 0"/><path fill="#FEDF50" stroke="#010101" stroke-width=".014" d="m3-48.5.1.1c.1 0 .1 0 .1-.1v-.1c.1-.1-.1-.1-.1-.1s-.1 0 0 .1l-.1.1" transform="matrix(1.146 0 0 1.171 33.178 82.138)"/><path fill="#DD2427" d="M36.731 25.345c0 .117.115-.117 0 0"/><path fill="#FEDF50" stroke="#010101" stroke-width=".014" d="m4.2-51.2.1.1c.1 0 .1 0 .1-.1v-.1c.1-.1-.1-.1-.1-.1s-.1 0 0 .1c-.1 0-.1.1-.1.1" transform="matrix(1.146 0 0 1.171 33.178 82.138)"/><path fill="#DD2427" d="M38.106 22.066c0 .117.115 0 0 0"/><path fill="#3DB54A" stroke="#010101" stroke-width=".021" d="M5.3-51.8c.2-.2.2-.4.4-.5l.4-.2c-.2.3-.5.5-.8.7m0 0c.1 0 .2-.1.3-.2.1-.1.2 0 .3 0 .1 0 .2 0 .4-.1-.3.3-.7.1-1 .3" transform="matrix(1.146 0 0 1.171 33.178 82.138)"/><path stroke="#010101" stroke-width=".021" d="M5.4-51.9c.1 0 .2-.1.2-.2l.3-.2M3-48.9c0-.1.1-.2.1-.2" transform="matrix(1.146 0 0 1.171 33.178 82.138)" fill="none"/><path fill="#3DB54A" stroke="#010101" stroke-width=".021" d="m2.6-47.8.1-.3c.1-.1.2-.2.3-.2.3-.1.6-.1.9-.3-.1.3-.4.5-.7.6-.1.1-.2.1-.3.1-.2.1-.3.1-.3.1" transform="matrix(1.146 0 0 1.171 33.178 82.138)"/><path stroke="#010101" stroke-width=".021" d="M2.6-47.8c.1 0 .1-.1.2-.2l.3-.1c.1 0 .2-.1.4-.1l.2-.1m-.9.3c.1 0 .2.1.3 0m-.1-.1h.4m-.5.1s0-.1.1-.1l.1-.1m0 .1.1-.1s.1 0 .1-.1m-.8.4.1-.3.1-.3" transform="matrix(1.146 0 0 1.171 33.178 82.138)" fill="none"/><path fill="#3DB54A" stroke="#010101" stroke-width=".021" d="M2.6-48.1v-.7c0-.1-.5-.5-.3-1.6 0 0 .1-.4.1-.5 0 0 .4.9.4 1.2 0 .3 0 .7-.1.8 0 .1-.1.4-.1.4" transform="matrix(1.146 0 0 1.171 33.178 82.138)"/><path stroke="#010101" stroke-width=".021" d="M2.4-50.5v.4c0 .1 0 .2.1.4l.1.5v.4" transform="matrix(1.146 0 0 1.171 33.178 82.138)" fill="none"/><path fill="#3DB54A" stroke="#010101" stroke-width=".021" d="M2.7-48.8c0-.1-.1-.3-.2-.4" transform="matrix(1.146 0 0 1.171 33.178 82.138)"/><path stroke="#010101" stroke-width=".021" d="m2.6-49.3.1-.4" transform="matrix(1.146 0 0 1.171 33.178 82.138)" fill="none"/><path fill="#3DB54A" stroke="#010101" stroke-width=".021" d="m2.7-49.2-.3-.4" transform="matrix(1.146 0 0 1.171 33.178 82.138)"/><path stroke="#010101" stroke-width=".021" d="M2.6-49.6c0-.1.2-.2.1-.3m-.2.1-.1-.2c0-.1-.1-.1-.1-.1m.2.1v-.4" transform="matrix(1.146 0 0 1.171 33.178 82.138)" fill="none"/><g stroke="#010101"><path d="M50.947 25.454c0-.82-.459-3.982-1.146-5.036 0 0 .688 1.054.802 5.387l.344-.351zm-.115-.468c-.344-2.577-1.72-4.685-1.72-4.685.459 1.054 1.376 3.865 1.605 5.504l.115-.117v-.703zm-2.063-4.685c1.146 2.108 1.605 5.153 1.72 5.739l.344-.351c-.344-2.459-2.063-5.387-2.063-5.387m-.689-.118c.229.351 1.032 2.108 1.376 3.162.344.82.573 2.342.688 3.045l.459-.468c-.344-2.342-2.293-5.387-2.522-5.739m-.689-.234s1.49 2.342 1.949 3.865c.115.468.573 1.991.688 2.694l.573-.468c-.573-1.405-1.949-4.802-3.21-6.09m0 1.287c.802 1.054 2.063 3.513 2.407 5.387l.688-.586c-.688-1.523-2.407-3.982-3.095-4.802m.459 1.406c.917 1.171 1.605 3.279 1.605 4.216l.573-.468c-.573-1.523-2.178-3.748-2.178-3.748" fill="#059C4E"/><path d="M49.8 26.6c-.2-.9-.6-1.8-1-2.6m1.3 2.2c-.4-1.2-1.1-2.5-1.9-3.7m1.8 2.6c-.5-1.2-1.5-3.6-2.2-4.6m2.6 5.1c-.3-1.3-1.1-3.1-1.5-3.9m1.6 3.5c-.4-1.5-.8-2.7-1.1-3.4m1.4 3.6c-.1-1.2-.7-3.1-1.2-4.1m1 2.7c0-.6-.2-1.7-.4-2.2" fill="none"/></g><path fill="#B2BABF" stroke="#010101" stroke-width=".028" d="M35.7 40.5s-.2.1-.4.1c0 0-.2.6-.4.8.3-.2.7-.3.8-.3 0-.2 0-.4.1-.4 0-.1 0-.2-.1-.2z"/><path stroke="#010101" stroke-width=".014" d="m35 41.3.8-.7m-.1.4-.4-.4" fill="none"/><path fill="#B2BABF" stroke="#010101" stroke-width=".028" d="M38.6 38.1 36 40.6h-.1l-.2-.1v-.1l2.6-2.5.3.2"/><path stroke="#010101" stroke-width=".014" d="m35.9 40.5 2.4-2.3" fill="none"/><path fill="#FEDC00" stroke="#010101" stroke-width=".028" d="M37.8 36.1c-1.7-1.1-2-4.5-2-4.9v-5.8l.5.5c-.9-.9-2-2.1-2.6-2.6-.2-.2 0 7 0 10.3 0 1.5.9 6.8 6.3 4.1 0 0 2.7-1 3.5-2.2H43l-.3.1c-3 2.1-4.9.5-4.9.5z"/><path fill="#0751A0" stroke="#010101" stroke-width=".028" d="M35.9 31.2c0 .5.3 3.8 2 4.9 0 0 1.9 1.6 5-.6-.9.4-1.7.5-2.2.3-1.5-.5-3.1-2.2-3.3-4-.3-1.8-.2-5.3-.2-5.3l.2.2c-.3-.3-.5-.6-.9-.9l-.5-.5c-.1 0-.1 5.4-.1 5.9z"/><path fill="#EC2227" stroke="#010101" stroke-width=".028" d="M38.1 28.8v-1.4l-.8-.8-.2-.2v.1c0 .5 0 3.6.2 5.3.3 1.8 1.8 3.6 3.3 4 .5.2 1.3.1 2.3-.3l.2-.1c-2.8-.4-4.7-3-5-6.6z"/><path stroke="#010101" stroke-width=".014" d="m38 27.4-4.1-4.2" fill="none"/><path fill="#B2BABF" stroke="#010101" stroke-width=".021" d="M33.8 23c-.1-.1-.1-.1-.2-.1v-.1c-.1-.1-.2 0-.3.1-.1.1-.1.2-.1.3h.1c0 .1.1.2.1.2.1.1.3.2.4.1.2-.2.1-.4 0-.5z"/><path stroke="#010101" stroke-width=".028" d="M33.8 23.2zm.6.3z" fill="none"/><path fill="#EC2227" stroke="#010101" stroke-width=".021" d="M33.9 27.2v-.7c0-.1 0-.2.1-.7.1-.5 0-.8 0-1.2 0-.3.1-1 .1-1l-.2-.1c0 .1 0 .1-.1.3l-.1 1.8c0 .4-.1.9-.1 1.1 0 .3.1.6.1.6"/><path fill="#0751A0" stroke="#010101" stroke-width=".021" d="M33.8 23.2s-.2.6-.2 1.1c0 .5-.1 1.2-.1 1.3 0 .1-.1.8-.1 1.1l.1.1s.1-.1.1-.3c0-.2.1-.7.1-1.1 0-.4 0-1.5.1-1.8 0-.2.1-.2.1-.3v-.1h-.1z"/><path fill="#EC2227" stroke="#010101" stroke-width=".021" d="m34.3 23-.5.1c.5 0 .6.3.6.3l.2-.2c.1-.2-.2-.2-.3-.2zm-.5.2c.1.1.3.5.5.4l.1-.1s-.2-.3-.6-.3z"/><path fill="#0751A0" stroke="#010101" stroke-width=".021" d="m33.8 23.2.4-.4c.1 0 .1.1.1.1 0 .1 0 .1-.2.2l-.3.1zm.6-.5c-.2-.3-.4-.1-.4-.1-.3.1-.2.5-.2.6.5-.8.6-.2.6-.2v-.3z"/><path fill="#E7B921" stroke="#010101" stroke-width=".032" d="M33.7 27.7c0-.3 0-.7-.2-.7s-.2.4-.3.7c.2-.1.3 0 .5 0"/><circle fill="#E7B921" stroke="#010101" stroke-width=".028" cx="33.6" cy="26.8" r=".1"/><path stroke="#010101" stroke-width=".028" d="M33.5 27.2v.4m.1-.4v.4" fill="none"/><path fill="#E7B921" stroke="#010101" stroke-width=".032" d="M33.9 27.3v.4m-.1-.4v.4m.2 0h-.5c0-.3 0-.7.2-.7.3.1.3.5.3.7z"/><circle fill="#E7B921" stroke="#010101" stroke-width=".028" cx="33.8" cy="27" r=".1"/><path fill="#C0CAD0" stroke="#010101" stroke-width=".014" d="M33.5 22.8c.1.1 0 .2-.1.3-.1.1-.2.1-.3.1-.1-.1 0-.2.1-.3.2-.2.3-.2.3-.1z"/><path fill="#B2BABF" stroke="#010101" stroke-width=".021" d="M33.1 23.7s-.2-.1-.2-.3c0-.2.1-.3.2-.4h.1l.1-.2.1-.1.1-.1c.1-.1.4-.5.3-.5-.1-.1-.4.2-.5.3h-.2c0-.1-.2-.4-.2-.7 0 0-1.1-.3-1.4-.8.3.5.7 1.3.7 1.5.3 0 .6 0 .8.2v.2s-.2.2-.3.2c-.2 0-.4-.2-.4-.2v.2c0 .4.3.8.7.8l.1-.1z"/><path stroke="#010101" stroke-width=".014" d="m31.5 21 1.5 1.5m-.9-.1.8-.8" fill="none"/><path stroke="#010101" stroke-width=".021" d="M32.9 22.7c0-.1.1-.2.2-.2s.2.1.2.2-.1.2-.2.2-.2-.1-.2-.2z" fill="none"/><path stroke="#010101" stroke-width=".016" d="M32.2 22.8c0 .1.1.4.2.6.1.1.4.3.6.2" fill="none"/><g transform="matrix(1.146 0 0 1.171 33.178 82.138)" stroke="#010101"><path fill="#B2BABF" d="M15.8-35.6s.2.1.4.1c0 0 .2.5.4.7-.2-.2-.6-.3-.7-.3 0-.1 0-.3-.1-.4-.1 0-.1 0 0-.1z"/><path d="m16.4-34.9-.7-.6m.1.4.3-.4" fill="none"/><path fill="#B2BABF" d="m13.3-37.6 2.3 2.2h.1l.1-.1v-.1l-2.3-2.2-.2.2"/><path d="m15.7-35.6-2.1-2" fill="none"/><path fill="#FEDC00" d="M13.9-39.3c1.5-.9 1.7-3.8 1.7-4.2v-5l-.4.4c.8-.8 1.7-1.8 2.2-2.2.2-.2 0 6 0 8.8 0 1.3-.8 5.8-5.5 3.5 0 0-2.3-.8-3-1.9h.5l.2.1c2.7 1.8 4.3.5 4.3.5z"/><path fill="#0751A0" d="M15.7-43.5c0 .4-.2 3.3-1.7 4.2 0 0-1.6 1.3-4.3-.5.8.3 1.5.4 1.9.3 1.3-.4 2.7-1.9 2.9-3.4.2-1.5.2-4.5.2-4.5l-.2.2.8-.8.4-.4c-.1-.1-.1 4.5 0 4.9z"/><path fill="#EC2227" d="M13.7-45.5v-1.2l.7-.7.2-.2v.1c0 .4 0 3.1-.2 4.5-.2 1.5-1.6 3-2.9 3.4-.4.1-1.1.1-2-.3l-.2-.1c2.5-.3 4.2-2.5 4.4-5.5z"/><path d="m13.8-46.7 3.6-3.6" fill="none"/><path fill="#B2BABF" d="M17.5-50.5c.1-.1.1-.1.2-.1v-.1c.1 0 .2 0 .3.1.1.1.1.2.1.3H18c0 .1 0 .1-.1.2s-.3.1-.4 0c-.2-.1-.1-.3 0-.4z"/><path d="M17.5-50.3zm-.6.2z" fill="none"/><path fill="#EC2227" d="M17.4-46.9v-.6c0-.1 0-.2-.1-.6-.1-.5 0-.7 0-1 0-.3-.1-.9-.1-.9l.2-.1s0 .1.1.3c.1.3 0 1.2 0 1.5 0 .3.1.8.1 1 0 .2-.1.5-.1.5"/><path fill="#0751A0" d="M17.5-50.3s.2.5.2.9 0 1 .1 1.1c0 .1.1.7.1.9l-.1.1s-.1-.1-.1-.2c0-.2-.1-.6-.1-1V-50c0-.1 0-.2-.1-.3v-.1.1z"/><path fill="#EC2227" d="M17-50.5c.1 0 .4.1.4.1-.4 0-.6.2-.6.2l-.1-.2c0-.1.2-.1.3-.1zm.5.1c-.1.1-.2.4-.5.3l-.1-.1.6-.2z"/><path fill="#0751A0" d="M17.5-50.4s-.3-.3-.4-.3c-.1 0-.1.1-.1.1s0 .1.2.2h.3zm-.6-.4c.1-.2.4-.1.4-.1.2.1.2.4.2.5-.5-.6-.5-.1-.5-.1-.1-.1-.1-.3-.1-.3z"/><path fill="#E7B921" d="M17.5-46.5c0-.2 0-.6.2-.6s.2.3.2.6h-.4"/><circle fill="#E7B921" cx="17.7" cy="-47.2" r=".1"/><path d="M17.8-46.9v.4m-.1-.4v.4" fill="none"/><path fill="#E7B921" d="M17.4-46.8v.4m.1-.4v.4m-.2 0h.4c0-.2 0-.6-.2-.6s-.2.3-.2.6z"/><circle fill="#E7B921" cx="17.5" cy="-47.1" r=".1"/><path fill="#C0CAD0" d="M17.7-50.7s0 .2.1.2c.1.1.2.1.2.1s0-.2-.1-.2c-.1-.1-.2-.1-.2-.1z"/><path fill="#B2BABF" d="M18.1-49.9s.2-.1.2-.3c0-.1-.1-.3-.1-.3h-.1l-.1-.1-.1-.1-.1-.1c-.1-.1-.3-.4-.2-.5.1-.1.4.2.5.2h.1c0-.1.2-.3.2-.6 0 0 1-.3 1.3-.6-.3.4-.6 1.1-.6 1.3-.2 0-.5 0-.7.2v.2s.2.1.3.2c.2 0 .3-.2.3-.2v.2c0 .4-.3.7-.7.7-.1-.1-.2-.1-.2-.2z"/><path d="m19.5-52.2-1.3 1.3m.7-.1-.7-.6m0 .8c0-.1-.1-.2-.2-.2s-.2.1-.2.2.1.2.2.2c.2 0 .2-.1.2-.2zm.7.2c0 .1 0 .4-.2.5-.1.1-.3.2-.5.2" fill="none"/></g><path fill="#FEDC00" stroke="#010101" stroke-width=".028" d="M42.3 37.4c-.4 0-1.2.1-1.2.1s-1.4 1.9-1.4 2.3c0 .4 0 .7.9.6 0 0 .4-.1.8-.1.4-.1.4 0 .5 0 0-.1.1-.5.2-.9.2-.8.4-1.8.5-1.9-.1-.1-.2-.1-.3-.1z"/><path fill="#EC2227" stroke="#010101" stroke-width=".028" d="M42.7 36.7s0 .1-.1.4l.4.2s0 .5-.1.9c0 .2-.2 1.7-.2 2.7 0 .3-.1.6-.1.7 0 .3-.2.6-.2.6-.2.2-.2.3-.3.4v.1c0 .2.3.2.4.2.3 0 .8-.4.8-.4v-5.2l-.6-.6z"/><path fill="#0751A0" stroke="#010101" stroke-width=".028" stroke-linecap="round" d="M42.6 37v.4c-.1.1-.3 1.1-.5 1.9-.1.4-.2.9-.2 1 0 .1-.7.9-.8 1.2 0 .1.1.2.3.2.4 0 .6-.1.8-.1.2-.1.3-.1.4.1v-.1c0-.1 0-.4.1-.7.1-1 .2-2.4.2-2.7 0-.3.1-.9.1-.9l-.4-.3z"/><path fill="#EAC91C" stroke="#010101" stroke-width=".028" d="M41.8 40.2s0-.1-.5 0c-.1.5-.2 1.3-.2 1.3 0-.3.5-.8.7-1.1 0-.1.1-.2 0-.2z"/><path fill="#1E4485" stroke="#010101" stroke-width=".028" d="M42.6 41.7v-.1c-.1-.2-.2-.1-.4-.1v.9c0-.1.1-.2.3-.4-.1 0 0-.1.1-.3z"/><g stroke="#010101" stroke-width=".028"><path fill="#FEDC00" d="M44.413 37.4c.459 0 1.261.117 1.261.117s1.376 1.874 1.376 2.225 0 .703-.917.586c0 0-.459-.117-.802-.117-.459-.117-.459 0-.459 0 0-.117-.115-.468-.229-.937-.229-.82-.459-1.757-.459-1.874h.229z"/><path fill="#EC2227" d="M44.069 36.697v.351l-.344.234v.82c0 .234.115 1.64.229 2.694 0 .351.115.586.115.703 0 .351.229.586.229.586.115.117.229.234.229.351v.117c0 .234-.229.234-.459.234-.229 0-.802-.351-.802-.351v-5.153l.802-.586z"/><path fill="#0751A0" d="M44.069 37.049v.351c.115.117.344 1.054.459 1.874.115.351.229.82.229 1.054 0 .117.688.937.802 1.171 0 .117-.115.117-.344.117-.344 0-.573-.117-.802-.117-.229 0-.344-.117-.459.117v-.117c0-.117 0-.468-.115-.703-.115-.937-.229-2.459-.229-2.694v-.82l.459-.234z"/><path fill="#EAC91C" d="M44.871 40.211s0-.117.459 0c.115.468.229 1.288.229 1.288 0-.234-.573-.82-.688-1.054v-.234z"/><path fill="#1E4485" d="M44.183 41.733v-.117c.115-.117.229-.117.459-.117v.937c0-.117-.115-.234-.229-.351-.115 0-.229-.117-.229-.351z"/></g><path d="M43.148 19.489s-.573 1.405-.344 1.522c0 0 .573-1.054 1.146-1.405l.458-.234c0-.234-.688-.586-.688-.586l-.573.703m-2.176.937s-.802 1.522-.573 1.522c.229 0 1.146-1.874 1.146-1.874H41.2l-.229.351zm.229-.351s-.917 1.405-.688 1.522c.229 0 1.146-1.874 1.146-1.874h-.344l-.115.351zm.229-.234s-1.031 1.405-.802 1.405c.229 0 1.375-1.756 1.375-1.756h-.344l-.229.351zm.229-.234s-1.146 1.171-.917 1.288c.229.117 1.604-1.522 1.604-1.522h-.344l-.344.234zm.115-.468s-1.031 1.405-.802 1.405l1.375-1.756h-.344l-.229.351zm-.344 1.171s-1.031 1.405-.802 1.405c.229 0 1.375-1.756 1.375-1.756h-.344l-.229.351zm.573-.351s-.573 1.054-.573 1.171c.115 0 .802-.586 1.146-1.288.458-.586-.573.117-.573.117m.573-.235s-.573 1.405-.344 1.522c0 0 .688-.82.917-1.522v-.703l-.573.703m-.458.234s-.573 1.405-.344 1.522c0 0 .688-.82.917-1.522v-.703l-.573.703m-.344-.117s-1.146 1.171-.917 1.288c.229 0 1.49-1.639 1.49-1.639h-.344l-.229.351zm.115.117s-1.146 1.171-.917 1.288c.229.117 1.604-1.522 1.604-1.522h-.344l-.344.234zm.115.234s-1.146 1.171-.917 1.288c.229.117 1.604-1.522 1.604-1.522h-.344l-.344.234zm.115-1.756s-.917 1.171-.802 1.288c.115.234.917-.468 1.146-1.054.344-.351-.344-.234-.344-.234m-.115 1.288s-.802 1.405-.573 1.405c.229-.117.917-1.171 1.031-1.405.115-.234 0-.468 0-.468l-.573.351.115.117m-.001-.586s.573-1.171 0 .234l-.917 1.171c0-.117.573-1.054.573-1.054s.458-.703.573-.82m.459.352s.688-1.171 0 .234l-.917 1.171c0-.117.573-.937.573-.937s.458-.703.573-.82m-.115.469s-.688 1.522-.573 1.639c0 0 .573-.703.688-1.171l.229-.937m.344.117s-.688 1.522-.573 1.639c0 0 .573-.703.688-1.171l.229-.937m-1.375.234s-.917 1.171-.802 1.288c.115.234.917-.468 1.146-1.054.344-.468-.344-.234-.344-.234" fill="#462D26" stroke="#010101"/><path fill="#B2BABF" stroke="#010101" stroke-width=".028" d="M49.2 36.8c0 .2-.1.2-.1.2H38.9v-.5h10.3v.3z"/><path fill="#B8772A" stroke="#010101" stroke-width=".032" d="M39.6 36.8v.2h7.6v-.4h-7.6v.2z"/><path fill="#B67029" stroke="#010101" stroke-width=".032" d="M39.6 36.5h7.6v-.3h-7.6v.3z"/><path fill="#AC6427" stroke="#010101" stroke-width=".032" d="M39.6 36.2h7.6v-.3h-7.5l-.1.3z"/><path fill="#A25725" stroke="#010101" stroke-width=".032" d="M46.9 35.5h-7c-.1 0-.2.2-.2.3h7.5c0-.1-.1-.3-.3-.3z"/><path fill="#B67029" stroke="#010101" stroke-width=".032" d="M39.6 37.4h7.6V37h-7.6v.4z"/><path fill="#AC6427" stroke="#010101" stroke-width=".032" d="M39.7 37.7h7.5v-.3h-7.6l.1.3z"/><path fill="#A25725" stroke="#010101" stroke-width=".032" d="M39.9 38h7c.1 0 .2-.2.3-.3h-7.5c0 .1.1.3.2.3z"/><path fill="#C5902C" stroke="#010101" stroke-width=".032" d="M40.6 38c-.1-.2-.1-.7-.1-1.3 0-.5.2-1.2.2-1.2h-.4s-.2.7-.2 1.2.1 1 .1 1.3h.4zm5.7 0c.1-.2.1-.7.1-1.3 0-.5-.2-1.2-.2-1.2h.4s.2.7.2 1.2-.1 1-.1 1.3h-.4zm-3.5 0c-.1-.3-.1-.8-.1-1.3s.1-1.1.1-1.2h-.4c-.1.2-.1.8-.1 1.2 0 .4 0 .9.1 1.3h.4zm1.2 0c.1-.3.1-.8.1-1.3s-.1-1.1-.1-1.2h.4c.1.2.1.8.1 1.2 0 .4 0 .9-.1 1.3H44z"/><path fill="#C5902C" stroke="#010101" stroke-width=".033" d="M41.5 36.8c.2.4.7 1.2.7 1.2h.3s-.2-.4-.7-1.2c-.5-.9-.8-1.3-.8-1.3h-.3c-.1 0 .5.9.8 1.3zm3.9 0c-.2.4-.7 1.2-.7 1.2h-.3s.2-.4.7-1.2c.5-.9.8-1.3.8-1.3h.3c.1 0-.6.9-.8 1.3zm-.1 0c.2.4.7 1.2.7 1.2h.3s-.2-.4-.7-1.2c-.5-.9-.8-1.3-.8-1.3h-.3c-.1 0 .5.9.8 1.3z"/><path fill="#B2BABF" stroke="#010101" stroke-width=".032" d="M38.3 37.2s.2-.8-.1-1.3c-.3-.5-.6-.6-.7-.6-.1 0 .8-1.4 1.8 0 0 0-.9.1-.7 1.8"/><path fill="#D3DCE0" d="M37.7 35.4c.3-.3.9-.8 1.6 0h.1c-1-1.3-1.9.1-1.8 0h.1"/><path fill="#B2BABF" stroke="#010101" stroke-width=".032" d="M38.2 36.9c-.1 0-.3.1-.5.3 0 0-.7-.4-1.1-.4h-.1.1c.4-.1 1-.3 1.1-.4.2.2.4.3.5.3"/><path stroke="#010101" stroke-width=".024" d="M36.6 36.8h1.6m-.5-.5v.8" fill="none"/><path fill="#B2BABF" stroke="#010101" stroke-width=".032" d="M38.7 37.2c0 .3-.1.4-.2.4s-.2-.2-.2-.5"/><path fill="#B2BABF" stroke="#010101" stroke-width=".032" d="M38.1 36.4h.8v.8h-.8z"/><path stroke="#010101" stroke-width=".032" d="M38.3 36.5h.5v.5h-.5zm.1.2h.2v.2h-.2zm.8-1.3h.1c-1-1.3-1.9.1-1.8 0h.1" fill="none"/><path stroke="#010101" stroke-width=".016" d="M39.2 35.4c-.7-.8-1.3-.3-1.6 0" fill="none"/><path fill="#C5902C" stroke="#010101" stroke-width=".033" d="M41.6 36.8c-.2.4-.7 1.2-.7 1.2h-.3s.2-.4.7-1.2c.5-.9.8-1.3.8-1.3h.3c.1 0-.6.9-.8 1.3z"/><linearGradient id="a" gradientUnits="userSpaceOnUse" x1="8.954" y1="102.821" x2="9.163" y2="106.731" gradientTransform="matrix(1.146 0 0 -1.171 33.179 148.895)"><stop offset="0" stop-color="#fff"/><stop offset="1" stop-color="#1DA8D1"/></linearGradient><path fill="url(#a)" d="M38.1 28.1c0 3.8 2.4 6.8 5.3 6.8s5.3-3.1 5.3-6.8c0-3.8-2.4-6.8-5.3-6.8s-5.3 3-5.3 6.8"/><path fill="#3B5155" stroke="#010101" stroke-width=".028" d="M46.4 27.5c.2-.2.5-.1.7-.2.2-.1.4-.1.6-.1.2 0 .7.3.9.4v.5s-.9.1-1.2 0c-.2-.2-1-.6-1-.6"/><path fill="#066D3C" d="M41.3 28.7c.1.1 0 .1 0 .2 0 0 .2.2.4.3l.2.1.2.2c.1.1 0 .1.3.1s.4.1.5.1c.1 0 .2 0 .4.1h1.1s-.6.1-.7.2h-.4l-.2.1c-.1 0 0 .1 0 .1.1 0 .1 0 .2.1s.1.1.4.1h1.9c.2 0 .3.2.1.2h-.4l-.3.2c-.2.1 0 .2 0 .2s.1 0 .2.1c.1 0 .1 0 .3.1.2.1.2.1.4.1.1 0 .3.1.3.1s.2.1.4.1c.1 0 .1 0 .2.1.2.1.2 0 .3 0 .1 0 .2 0 .2.1.1 0 .2.1.2.1s-.1.2-.6 1c-.5.9-1.3 1.4-1.9 1.7-.6.3-1.4.4-2.5.3-1.1-.1-2.2-1.3-2.6-1.8-.5-.6-.6-1.2-.6-1.2h.5c.1 0 .1 0 .2-.1l.2-.1h.3c.1 0 .2-.1.1-.1v-.1h.6c.1 0 0-.1 0-.2l-.1-.1s-.1 0-.2-.1l-.3-.1c-.2-.1 0 .1-.3 0h-.4c-.2-.1-.3-.2-.1-.2h.9v-.1h.5l.2-.1c.1 0 0-.1 0-.1l-.1-.1-.2-.1h-.6s0-.2.2-.2h.5c.2 0 .1 0 .2-.1.1 0 .2 0 .3-.1.1 0 0-.1-.2-.1l-.1-.1c-.1-.1-.5-.4-.7-.5l.4-.1s.1-.1-.1-.2c-.1 0-.1 0-.3-.1l-.3-.2c-.1 0-.2-.1-.2-.1"/><path fill="#70BF46" d="M41.3 28.7c-.1 0-.1.1 0 .2 0 0 .1.2.3.3.1 0 .2 0 .3.1l.2.2c.1.1 0 .1.3.1s.4.1.5.1c.1 0 .2 0 .4.1h1.1l-.8.2c-.1 0-.2-.1-.2 0l-.2.1c-.1 0 0 .1 0 .1.1 0 .1 0 .2.1s.1.1.4.1h.8c.3 0 .1.1.4 0h.7c.2 0 .5.1.4.1h-.7l-.3.2c-.2.1 0 .2 0 .2s.1 0 .2.1c.1 0 .1 0 .3.1.2.1.2.1.4.1.1 0 .3.1.3.1s.2.1.4.1c.1 0 .1 0 .2.1.2.1.2 0 .3 0 .1 0 .2 0 .2.1l.1.1s.3-.9.5-1.3c.1-.4.3-1.6.3-1.6 0-.1-.2-.2-.2-.2h-1.5c-.1 0-.1.1-.2 0l-.4-.1h-2.8c-.1.1-.3.1-.3.1l-.4.1-.6.1c-.2-.1-.6-.1-.6-.1"/><path fill="#010101" d="M41.3 28.7c-.1.1-.1.2 0 .2l.3.3c.1 0 .2 0 .2.1l.1.1.1.1.1.1h.4c.1 0 .1 0 .2.1.1 0 .2.1.4.1h1.3-.3l-.4.1c-.1 0-.2 0-.2.1-.1 0-.1 0-.2-.1 0 0-.1 0-.1.1l-.1.1c0 .1.2.1.2.1l.2.1h.6l.4.1h.9c.2 0 .3 0 .5.1h.1-.6l-.2.1-.1.1.2.2c.1 0 .2 0 .2.1.1 0 .2.1.4.1h.3c.1 0 .1 0 .2.1l.3.1.3.1h.3l.3.1.2-.6c.1-.3.2-.6.3-.8l.2-.9.1-.6-.1-.2h-1.7l-.3-.1h-2.9c-.1 0-.1 0-.2.1h-.3l-.5.1-.6.1c-.2.1-.4.1-.5.1.2 0 .5.1.7 0l.9-.1c.1 0 .2 0 .2-.1h3l.3.1h1.7c.1 0 .1 0 .2.1v.2c0 .1 0 .3-.1.4 0 .3-.1.6-.2.9-.1.3-.2.6-.3.8l-.2.6-.2-.1h-.5l-.2-.1h-.2c-.1 0-.1 0-.2-.1-.1 0-.2-.1-.4-.1l-.5-.1c-.1 0-.3 0-.4-.1h-.1c-.1-.1 0-.1.1-.2l.2-.2c.1-.1.1 0 .2 0h.6-1.6c-.1 0-.2 0-.4-.1h-.4l-.3-.1c-.1 0-.1 0-.2-.1l.1-.1.1-.1c.1 0 .1 0 .2.1h.1c.1 0 .2 0 .3-.1l.3-.1h.2-.6c-.3 0-.6 0-.8-.1-.1 0-.2-.1-.4-.1h-.4l-.1-.1-.1-.1s0-.1-.1-.1c-.1-.1-.2-.1-.3-.1-.1 0-.2-.1-.2-.2 0-.2-.1-.4 0-.5"/><path fill="#70BF46" d="m41.1 28.9-.2.1c-.2.1.7.5.8.6l.1.1c.1.1.3.1.2.1-.1 0-.2 0-.3.1-.1 0 0 .1-.2.1h-.8.6c.1 0 .1 0 .3.1l.2.1c.1 0 .1.1.1.1s.2 0 0 .1c-.1 0 0 .1-.2.1h-.5v.1h-.8l-.1.1h-.1l.6.1.3.1.3.1.2.1s.1 0 .1.1.1.2 0 .2h-.6s-.1 0 0 .1c.1 0 0 .1-.1.1h-.3c-.2 0-.1.1-.2.1s-.1 0-.2.1h-.6s-.4-.6-.6-1.4c-.2-.8-.3-2-.3-2 0-.1.3-.1.4 0 .1 0 .5.1.7.1.2 0 .7.1.7.1s.2-.1.3 0c-.1.1.2.3.2.3"/><path fill="#010101" d="M41.1 28.9c-.1.1-.2.1-.2.2v.1l.3.2.3.2s.1 0 .1.1h.1s.1 0 .1.1c.1 0 0 .1 0 .1h-.2c-.1 0-.1 0-.2.1h-1.1c.3 0 .7 0 1 .2l.1.1h.1c.1 0-.1.1-.1.1h-.6v.1H40v.1h-.2.4c.1 0 .2 0 .3.1.1.1.2.1.3.1l.2.1h.2s0 .1.1.1v.1h-.6v.1c-.1.1-.2.1-.4.1-.1 0-.1 0-.2.1l-.2.1-.5.1h-.1v-.1c-.1-.1-.1-.2-.2-.4-.2-.4-.3-.8-.4-1.2-.1-.4-.1-.8-.2-1.1v-.6c.1-.1.3 0 .4 0 .1 0 .3 0 .4.1l.9.1h.3l.2.1.2.1c.1.2.2.3.2.3l-.3-.3-.2-.1h-.2c-.3-.1-.5-.1-.8-.1-.2 0-.3 0-.5-.1-.1 0-.2-.1-.4-.1 0 0-.2 0-.2.1v.2c.1 1.1.2 2.3.8 3.2l.9-.2c.1-.1.2-.1.3-.1.1 0 .3-.1.3-.2 0 0-.1 0-.1-.1h.2c.1 0 .2.1.4 0v-.2h-.2l-.2-.1h-.1c-.1 0-.1 0-.2-.1l-.2-.1h-.7.7s.2.1.2 0v-.1h.6l.1-.1c.1 0 0-.1-.1-.1 0 0-.1 0-.1-.1l-.1-.1-.3-.1h-.6 1l.2-.1s.3 0 .3-.1l-.2-.1-.1-.1-.2-.1-.4-.3-.1-.1V29l.1-.1c.3.1.4.1.4 0"/><path fill="#567276" d="M38.4 28.5s0-.1.3-.1.2 0 .6.1c.4 0 .6 0 .8.1.1 0 .4 0 .5.1.1 0 .3.1.3.1h.8c.4 0 .1.1.6 0s.9-.1 1-.2c.1 0-.1-.1.3-.1.5.1.7 0 .8 0h1.5c.2 0 .3-.1.4 0 .2.1.4 0 .6 0h1.6v-.8c0-.1.2-.2-.1-.2-1.1-.1-.7-.2-1.3-.2-.2 0-.9-.2-1.1-.3-.2 0-1-.3-1.3-.3H42s-.5-.2-.6-.2h-.6c-.4 0-.5.1-.9 0H39c-.2 0-.4.1-.4.1l-.2 1.9z"/><path fill="#010101" d="M38.4 28.6c0-.1.1-.1 0 0 .2-.1.3-.1.4-.1h.2c.1 0 .3 0 .4.1.2 0 .5 0 .7.1.1 0 .2 0 .4.1l.3.1v.1H42c.1 0 .2 0 .3-.1l.6-.1h3.2s.1 0 .1.1h.6c.3 0 .6.1.9 0h.6V28h-.6c-.1 0-.2 0-.3-.1-.1 0-.2-.1-.4-.1h-.3l-.4-.1c-.2-.1-.4-.1-.7-.2-.3-.1-.6-.2-.9-.2h-3.3l-.4-.1-.4-.1c-.3 0-.6 0-.9.1h-1c-.2 0-.5.1-.7.2.4 0 .4.6.4 1.2v-1.7c.1 0 .2-.1.2-.1l.5-.1h2c.2.1.4.2.6.2h2.9c.3 0 .6.1.9.2l1.4.3h.5c.2.1.4.1.6.1h.3c.1 0 .1 0 .1.1v.9h-2c-.1 0-.2 0-.2-.1H43c-.2 0-.4.1-.5.1-.2 0-.4.1-.5.1h-1.1l-.3-.1c-.1 0-.3 0-.4-.1-.2 0-.5 0-.7-.1-.2 0-.4-.1-.7-.1-.1.2-.4.2-.4.4"/><path d="m47.4 28.1-.1.2s.1-.1.1-.2m-8.2-.1-.1.2c.1-.1.1-.1.1-.2m.2-.1.3-.1c0 .1 0 .1-.1.2.1 0 .1-.1.1-.2m.1 0v.1-.1m.2-.2c-.1.1-.2.3-.2.4 0-.1.1-.2.2-.4m0 0c0 .1 0 .2-.1.3.1-.1.1-.2.1-.3m.1 0v.2-.2m.1 0v.2c0-.1.1-.2 0-.2m-.7.7s.1 0 .1-.1c0 .1-.1.1-.1.1m.2-.1 1.2-.9c0 .1-.1.1 0 0-.1.1 0 .1 0 0m0 .3c.1-.1.1-.2.1-.3 0 .1 0 .2-.1.3m.3-.4v.2c-.1 0 0-.1 0-.2m-.2.1c0 .1-.1.2-.1.2s0-.1.1-.2m-.9.8s0 .1-.1.1l.1-.1m.1 0-.1.1.1-.1m.2 0c-.1 0-.1.1 0 0v.1c-.1 0-.1 0 0-.1m0-.1c0 .1-.1.2-.1.2.1 0 .1-.1.1-.2m1.9-.6-.1.3c.1-.1.2-.2.2-.4 0 .2-.1.3-.2.4m-.8.2c0 .1-.1.1-.1.1l.1-.1m-.3.4c.2-.1.3-.2.4-.4 0 .2-.2.3-.4.4m.3.2c.1 0 .1-.1.2-.2 0 .1-.1.1-.2.2m.4-.3c-.1.1-.2.3-.4.4.2 0 .3-.2.4-.4m.1 0s0-.1.1-.1l-.1.1m.4.3.2-.3c-.1 0-.2.1-.2.3m.2-.3-.2.2c.1 0 .2-.1.2-.2m.8-.1v-.3.3m-.1-.3c0 .1 0 .2-.1.3.1-.1.1-.2.1-.3m.2 0v.3-.3m.1.1c0 .1 0 .2-.1.3.1-.1.1-.2.1-.3m.1.1c0 .2-.1.4-.2.5.1-.2.2-.4.2-.5m.1 0c0 .1-.1.2-.1.2s.1-.1.1-.2m.1 0-.1.2c0-.1 0-.2.1-.2m0 .1-.2.3c.1-.1.2-.2.2-.3m.1-.1v.1-.1m.1 0c-.1.1-.1.2-.2.4 0-.1.1-.3.2-.4m.4-.3v.1-.1m0 .4c.1-.1.2-.3.2-.5-.1.2-.1.4-.2.5m.3-.5v.1-.1m-.6.5-.2.3c0-.1.1-.2.2-.3m.1.1c-.1.1-.2.2-.2.3 0-.1.1-.2.2-.3m0 .1-.1.1c.1 0 .1 0 .1-.1m1-.5-.1.1s.1 0 .1-.1m0 .2c.1 0 .1-.1.1-.2 0 .1 0 .1-.1.2m-.4.2v.1-.1m.1.3.1-.3c0 .1 0 .2-.1.3m0-.3-.1.2c.1-.1.1-.2.1-.2m.2-.1c0 .1-.1.2-.1.2s.1-.1.1-.2m.1.3.1-.2c-.1.1-.1.1-.1.2m.2-.6-.1.2s0-.1.1-.2m.1.1c0 .1 0 .1-.1.2.1 0 .1-.1.1-.2m.2.1c0 .1 0 .1-.1.2 0-.1 0-.1.1-.2m.1.3v-.2.2m.1-.1c0 .1-.1.2-.2.3.1-.1.2-.2.2-.3m-.4.1-.1.1s.1 0 .1-.1m.2 0-.2.2.2-.2m.6-.4h.1c0 .1 0 .1-.1.2.1-.1.1-.2.1-.2m.2 0-.1.3c0-.1 0-.2.1-.3m.1.1c0 .1 0 .2-.1.2 0 0 .1-.1.1-.2m.1.1-.2.3c.1-.1.2-.2.2-.3m.1.1-.1.3.1-.3m.2.1-.2.3c0-.1.1-.2.2-.3 0 .1-.1 0 0 0m-.7.2.1-.1s-.1 0-.1.1m.2-.1c0 .1 0 .1-.1.2l.1-.2m.1 0-.1.2s.1-.1.1-.2m.8-.4c0 .1-.1.2-.2.3.1-.1.2-.2.2-.3m0 .3c.1-.1.1-.1.1-.2 0 0 0 .1-.1.2m.2-.2c0 .1-.1.2-.2.3.2-.1.2-.2.2-.3m.2 0c-.1.1-.1.2-.2.2.1 0 .1-.1.2-.2m.1 0c0 .1 0 .1-.1.2.1 0 .1-.1.1-.2m-.1.3-.3.2c.1 0 .2-.1.3-.2m-.5.1s.1-.1.2-.1l-.2.1m.6-.1c0 .1-.1.1-.2.2.1 0 .2-.1.2-.2m-2.2-.9c0 .1-.1.1-.2.1.1 0 .2 0 .2-.1m-2.9.3c0 .1 0 .2-.1.3l.1-.3m-3.2-.6-.3.2c.1 0 .2-.1.3-.2m-.5 0-.2.2c.1 0 .2-.1.2-.2" fill="#9AB0CA"/><linearGradient id="b" gradientUnits="userSpaceOnUse" x1="9.065" y1="103.781" x2="9.086" y2="99.366" gradientTransform="matrix(1.146 0 0 -1.171 33.179 148.895)"><stop offset="0" stop-color="#fff"/><stop offset=".131" stop-color="#C2D3E8"/><stop offset=".299" stop-color="#89B0D6"/><stop offset=".463" stop-color="#5A99C6"/><stop offset=".619" stop-color="#2E88BD"/><stop offset=".764" stop-color="#057EB6"/><stop offset=".896" stop-color="#0877B0"/><stop offset="1" stop-color="#0276B0"/></linearGradient><path fill="url(#b)" d="M43.7 29.9c.1 0 .2 0 .2-.1 0 .1-.1.1-.2.1m.3 0c.1 0 .3-.1.3-.1.1 0-.1 0-.3.1zm-3.3-2.1c-.1 0-.3.2-.5.2-.1.1-.1.2-.1.2s.4.2.4.3c0 0-.1.1-.2.1v.1c.2.2.8.2.7.3 0 0-.2 0-.1.2.1.1.3.3.4.3.2.1.2.2.2.2.1.1 0 .1.2.1.1.1.3.1.2.1-.1 0-.2 0-.3.1-.1 0 0 .1-.2.1h-.5c-.2 0-.5-.1-.6-.1.1 0 .5.1.6.2h.2c.1 0 .2 0 .3.1l.2.1c.1 0 .1.1.1.1s.2 0 0 .1c-.1 0 0 .1-.2.1H41v.1h-.8s.1.1-.1 0h.1l.3.1.3.1.3.1.2.1s.1 0 .1.1.1.2 0 .2h-.6s-.1 0 0 .1c.1 0 0 .1-.1.1h-.3c-.2 0-.1.1-.2.1s-.1 0-.2.1h-.5s.2.6.6 1.2c.5.6 1.5 1.7 2.6 1.8 1.1.1 1.9.1 2.5-.3.6-.3 1.4-.9 1.9-1.7.5-.9.6-1 .6-1h-.2l-.2-.2c-.1 0-.1.1-.3 0l-.2-.1c-.1 0-.4-.1-.4-.1s-.2 0-.3-.1c-.1 0-.2 0-.4-.1l-.3-.1c-.1 0-.1 0-.2-.1 0 0-.2-.1 0-.2l.3-.2.3-.1h.3c.2 0-.1-.1-.2-.1H44c-.2 0-.2 0-.4-.1-.1-.1-.2-.1-.2-.1-.1 0-.1 0 0-.1.1 0 .3-.2.4-.3h.1-.4c-.3 0-.3 0-.4-.1-.1 0-.2-.1-.5-.1s-.2 0-.3-.1c-.1-.1-.2-.1-.2-.2 0 0-.1-.1-.2-.1-.2-.1-.4-.2-.4-.3.1-.1.1-.1 0-.2s-.7-.2-.8-.2c0 0 .1 0 .2-.1s0-.1-.1-.1c-.1-.1-.3-.2-.4-.2-.1-.1.1-.2.3-.3.2-.1.7-.5.8-.6-.2 0-.7.4-.8.5"/><path fill="#010101" d="m41.3 27.3-.4.3-.3.2-.3.2c-.1 0-.2.1-.2.2l.1.1c.1.1.2.1.4.2s-.1.1-.1.2l.8.2.1.1-.1.1c0 .1.1.1.1.1.1.1.2.1.3.1l.2.1.2.2.1.1h.5c.1 0 .1 0 .2.1l.4.1h.5c.1 0 .2 0 .2-.1.1 0 .2 0 .2-.1h.1c-.1 0-.2 0-.3.1l-.4.1c-.1 0-.2.1-.3.2l-.2.1v.1s.1 0 .1.1c.1 0 .2.1.2.1.1.1.3.1.4.1.1 0 .3 0 .4.1h1.7-.1l-.5.1c-.1 0-.1.1-.1.1-.1.1-.2.1-.2.2-.1.2.4.3.5.3l.5.1c.1 0 .2 0 .3.1l.2.1h.2l.2.1h.4l.1.1h.2c0 .1-.1.2-.2.3-.2.4-.4.7-.7 1.1-.3.3-.6.6-.9.8-.3.2-.6.4-.9.5-.3.2-.6.2-1 .2h-1.3c-.4 0-.8-.2-1.1-.4-.6-.4-1.2-.9-1.6-1.5-.3-.3-.5-.7-.6-1.1v-.1l.5-.1c.1 0 .1 0 .2-.1l.2-.1c.1 0 .2-.1.4-.1 0 0 .1 0 .1-.1l-.1-.1h.6c0-.1 0-.1-.1-.2 0-.1 0-.1-.1-.1h-.1c-.1 0-.1-.1-.1-.1h-.1c-.1 0-.2 0-.3-.1l-.3-.1h-.2l-.3-.1s.2.1.2 0h.5s.2.1.2 0v-.1h.6l.1-.1c.1 0 0-.1-.1-.1 0 0-.1 0-.1-.1l-.1-.1c-.1-.1-.2-.1-.3-.1l-.9-.2.3.1h.8c.1 0 .1 0 .2-.1s.1-.1.2-.1c0 0 .2 0 .2-.1-.1-.1-.2-.1-.3-.1l-.2-.2c-.1-.1-.2-.1-.2-.1-.1-.1-.2-.1-.2-.2 0 0-.2-.1-.1-.2 0 0 .1-.1.2-.1v-.1l-.3-.1c-.1 0-.3-.1-.4-.2-.1-.1.1-.1.1-.2l-.2-.1-.2-.1c-.1 0 0-.1 0-.2.1-.1.1-.1.2-.1l.2-.1.4-.3c.7.5.8.4.9.3-.2.1-.3.2-.5.4l-.2.2c-.1 0-.2.1-.2.1-.1 0-.2.1-.2.1s-.1.1 0 .2c0 0 .1 0 .1.1l.2.1.1.1-.1.1v.1l.1.1c.1.1.3.1.4.1h.3s-.1.1-.2.1c0 0-.1 0-.1.1v.1l.2.2c.1.1.1.1.2.1s.2.1.2.2c0 0 0 .1.1.1l.1.1s.1 0 .1.1c.1 0 0 .1 0 .1-.1 0-.2 0-.3.1 0 0-.1 0-.1.1h-.7l-.6-.1c.2.1.4.1.7.2.2 0 .4.1.5.1.1 0 .1.1.2.2h.1c.1 0 0 .1-.1.1h-.4s-.1-.1-.1 0h-.7s-.1 0-.1.1h-.2c.1 0 .2.1.4.1.1 0 .2 0 .4.1l.3.1h.1l.2.1h.2v.1c0 .1 0 .1-.1.1H41h.1v.1l-.3.1c-.1 0-.1 0-.2.1l-.3.1c-.1 0-.2 0-.3.1h-.3c.2.6.6 1.1 1 1.6.5.6 1.1 1.1 1.9 1.4.2.1.4.1.6.1h.7c.4 0 .8 0 1.1-.1.3-.1.6-.2.9-.4.3-.2.6-.4.9-.7.2-.2.4-.4.6-.7.2-.2.3-.5.5-.8.1-.1.1-.2.2-.4V32h-.2c-.1 0-.1-.1-.1-.1 0-.1-.1-.1-.2 0h-.2l-.2-.1H47l-.3-.1c-.1 0-.3 0-.5-.1l-.5-.1c-.1 0-.2 0-.2-.1h-.1c-.1-.1 0-.1.1-.2s.2-.2.4-.3c.1 0 .2 0 .2-.1h.2-1.8l-.4-.1c-.1 0-.3 0-.4-.1l-.2-.1s-.1 0-.1-.1c0 0-.2 0-.1-.1s.2-.2.4-.3h.1c.1 0 .2 0 .3-.1h.3-.1c-.1 0-.2 0-.2.1-.1 0-.2 0-.2.1h-.5c-.1 0-.3 0-.4-.1-.1 0-.1 0-.2-.1h-.5l-.1-.1-.2-.2-.2-.2-.3-.1s-.1 0-.1-.1v-.1c.2-.2-.3-.3-.4-.3-.1 0-.2 0-.3-.1h-.1.1s.1 0 .1-.1-.1-.1-.2-.1l-.4-.2c-.1-.1.3-.3.3-.3l.3-.2.5-.5m-2.5.3-.1.2c0-.1.1-.2.1-.2m.1 0-.1.1c0 .1.1 0 .1-.1"/><path d="M42.5 29.9h.4-.4m.1.1-.2-.1h.2c-.1-.1-.2-.1-.2 0m-.4.2c-.1-.1-.3 0-.4 0 .1 0 .3-.1.4 0m-.3 0h-.2c.1.1.2 0 .2 0m-.1.1h-.2s.1-.1.2 0m.2 3.4h-.3c-.1-.1-.1 0-.2 0 .1 0 .2-.1.2 0h.3m-1.1-1.9c.1-.1.3 0 .4 0-.1 0-.2-.1-.4 0m-1.1.3h.8-.6c-.1-.1-.1-.1-.2 0m.1.1c.1-.1.3 0 .5 0-.2 0-.3-.1-.5 0m1.3-.5c.1-.1.3 0 .4 0-.1-.1-.3-.1-.4 0m.4-.2h.2-.2m-1.3 1.1h.5c-.2.1-.4-.1-.5 0m.1.2c.1 0 .2 0 .3-.1-.1 0-.2 0-.3.1m.3-.4.3-.1-.3.1m.6.5.4-.1-.4.1m-.1-.3h.2l.2.1c-.1 0-.1 0-.2-.1H41m.1.9c.1-.1.2-.1.4 0 .1 0 .2.1.3 0-.1.1-.2.1-.3 0h-.4m1.1-.3h.4l.2-.1h.2-.2c-.1 0-.1 0-.2.1h-.4m.9-.1h.3c.1 0 .2.1.3 0h-.6m.8 0c.2-.1.4.1.6.1-.2 0-.4-.2-.6-.1m.8 0h.6c-.1 0-.2.1-.3 0h-.3m.7.1c.1-.1.3-.1.5-.1l-.5.1m-1.1.5c.1-.1.2-.1.2 0h.2c-.1.1-.1 0-.2 0h-.2m.1.2c.1-.1.3-.1.4-.1-.1 0-.3 0-.4.1m1.5-.4h.4-.4m0 .2h.3-.1c-.1-.1-.1-.1-.2 0m.3-.3h.2c-.1-.1-.2-.1-.2 0m-3.8.2c.1-.1.2-.1.3-.1.1 0 .2 0 .3-.1-.1.1-.2.1-.3.1-.2 0-.2 0-.3.1m.1.1.4-.1-.4.1m-.2-.3c.2-.1.4.1.6-.1-.2.2-.4 0-.6.1m.6.7c.1-.1.1 0 .2 0h.3-.5m0 .2c.1-.1.3.1.5 0-.2 0-.4-.2-.5 0m-.9-2.7c.1-.1.3 0 .5 0-.2 0-.4-.1-.5 0m.1.1h.3-.3m-.8.8c.1-.1.2 0 .4 0-.2-.1-.3-.1-.4 0m4.4.2c.1-.1.2-.1.4-.1-.2 0-.3 0-.4.1m-.4.3.5-.1c-.1.1-.3-.1-.5.1m-3.5.2c.1-.1.2-.1.3-.1-.1 0-.2 0-.3.1m5.1-1.2h.5-.2c-.2-.1-.3-.1-.3 0m-.1.1h.3-.3m-.2-.3c.1 0 .3.1.3-.1-.1.2-.2.1-.3.1m.4.4h.4-.2c-.1-.1-.2 0-.2 0m-.8-.4h.4c-.1 0-.3-.2-.4 0m-.2-.1c0-.1.1 0 .2 0s.1 0 .2-.1c0 0-.1.1-.2.1s-.2-.1-.2 0m-3.1-1.3h.3c-.1 0-.2-.1-.3 0m.1.1h.2c-.1 0-.1-.1-.2 0m2.2 2.8h.2-.2m-3.9-2.5H41h.3m0 .1c-.1-.1-.3 0-.4 0 .1 0 .3-.1.4 0m-.2.1-.2-.1h-.3.2c.2 0 .2.1.3.1m-.3 1.5.4-.1c-.1 0-.3-.1-.4.1m0 0s.1 0 .1-.1h.1-.1c0 .1 0 .1-.1.1m.1.3c0-.1.1-.1 0 0h.2c0-.1-.1-.1-.2 0 .1-.1 0-.1 0 0m.1-.5h.2-.1c-.1-.1-.1-.1-.1 0m-.4-.1h.3-.3m.9.9.3-.1-.3.1m1.7.1c.1-.1.2 0 .3 0-.1 0-.2-.1-.3 0m.7 0c.1 0 .2.1.4.1-.2 0-.3-.2-.4-.1m.9 0c.1 0 .3.1.3 0 0 .1-.2 0-.3 0m.6.1c0-.1.1 0 .2 0s.2 0 .2-.1c-.1.1-.2.1-.2 0-.1 0-.1 0-.2.1m-2.9 0c.1 0 .1 0 .2-.1h.2-.2s-.1 0-.2.1m.5.6.4-.1c-.1.1-.3-.1-.4.1m.1 0c.1 0 .3 0 .3-.1 0 .1-.2.1-.3.1m1 .5c.1-.1.2-.1.3-.1h.4-.3c-.2 0-.3 0-.4.1m.1 0 .2-.1c-.1 0-.2 0-.2.1m-2.1-1.4.2-.1c-.1.1-.2.1-.2.1m.3 0 .2-.1-.2.1m.7 0h-.2c-.1 0-.1 0-.2.1.1 0 .1 0 .2-.1h.2m.2 0h.4-.4m.8 0h.3-.3m.5 0c.1-.2.4 0 .5 0-.2 0-.4-.1-.5 0m-3.2 0c.1-.1.1-.1.2-.1 0 .1-.1.1-.2.1m2.5 0c.1-.1.2-.1.2-.1-.1 0-.2 0-.2.1m1.3 0 .2-.1c-.1 0-.2 0-.2.1m.3-.1h.2c-.1-.1-.1-.1-.2 0m0-.2c.1 0 .1 0 .2-.1-.1 0-.1 0-.2.1m-4.3 0h.2-.2" fill="#5092C5"/><path fill="#fff" stroke="#010101" stroke-width=".028" d="M38.3 26.7s.6-.1.5 0c0 .1 0 .1.2.1s.6-.1.6 0 .4 0 .6-.1h.3c.1 0 .2-.1.2 0v.2s.2.2.3.2c.1 0 .2 0 .2.1 0 0 0 .1.1.1l.3-.1.2-.1c.1-.1.2-.1.3-.1l.3.1h.3c.2.1.4.1.5.1h1.3l.2-.1c.1 0 .1-.1.1-.1l.3.1c.1.1.4.1.5.1h.3c.2.1.3.1.4.1h.4-.1c-.2-.1-.1 0-.4-.2-.3-.2-.2-.1-.6-.2-.4-.1-.3-.2-.5-.3-.1-.1-.2 0-.3 0-.2 0-.1-.1-.5-.4-.4-.3-.3-.2-.5-.3-.1-.1-.4-.3-.6-.4-.2-.1-.5-.1-.6-.1-.3 0-.4-.3-.7-.2-.1 0-.3-.2-.6-.2-.3-.1-.6.2-.8.3-.2.1-.7.4-1 .6-.2.2-.7.5-1 .6 0 .2-.2.2-.2.2"/><path d="M41.7 25.7s-.1 0-.1.1c0 0 .1 0 .1-.1m1.9.3-.4.3c.1 0 .2-.1.4-.3m0-.2-.3.3c.1 0 .2-.1.3-.3m-.1-.1-.2.1c.1.1.1 0 .2-.1m0 .1c-.1.1-.2.2-.3.2.2 0 .2-.1.3-.2m.1.4-.2.3s.1-.1.2-.3m-.1.3c0 .1-.1.1-.1.1l.1-.1m0 .1c.1 0 .1.1.2.2l-.2-.2m.2.4-2.1-1c-.1.1-.2.2-.3.2.1 0 .2-.1.3-.2m-.4.5-.3.3c.1 0 .2-.2.3-.3m-.7.1c-.1 0-.2.1-.2.1s.1 0 .2-.1m-.2 0 1.1.2s-.1 0-.1.1l.1-.1m1.5 0-.2.1c.1 0 .1 0 .2-.1m.4 0-.1.1c0-.1 0-.1.1-.1" fill="#010101"/><path d="M39.8 30.4v.2-.2m-.1.2-.1-.1c.1 0 .1.1.1.1m-.1 0c-.1-.1-.1-.2-.1-.4 0 .1 0 .3.1.4m.3 0h.1l-.6-.1c0-.1 0-.2-.1-.3.1.1.1.2.1.3m.1-.8v.2-.2m-.1.2h.1v-.1.1m.5-.2v.1s.1 0 0-.1m-.4.2c.1 0 .1-.1.1-.2-.1.1-.1.1-.1.2m.4 0-.2-.3v.2c-.1 0 0-.1 0-.2m.3.3.6.1v-.2.2m-.9-.1c.1-.1.1-.2.1-.2-.1 0-.1.1-.1.2m-.2 0c.1 0 .1-.2 0-.3.1.1.1.2 0 .3m.3-.2v.1-.1m.2.2h-.2c.1-.1.1-.2.1-.2s0 .1-.1.2m-.6 0 .2.6c-.1-.1-.1-.2-.1-.3 0 .2.1.3.1.3m-.2 0h.8l.5.6v.1l3.2-1.3c.1 0 .1-.1.1-.2 0 .1 0 .2-.1.2m.1 0c.1-.1 0-.3 0-.4.1.1.1.3 0 .4m3 .4h.4-.3l.1-.3c-.1.1-.1.2-.1.3m.2 0v-.2.2m-.1 0c0-.1.1-.2.1-.4l-.1.4m-.2 0v-.1.1m.1 0V30c0 .1.1.2 0 .3m-.1 0v-.2c.1.1.1.2 0 .2m.2 0v-.2.2m-3.2-.4c.1-.1.1-.1.1-.2l-.1.2m-.2 0 .1-.1c0 .1 0 .1-.1.1m.3 0v-.1.1m.2-.1c0-.1 0-.2.1-.3-.1.1-.1.2-.1.3m.1 0v-.1.1m0-.1c0-.1 0-.2.1-.3 0 .1 0 .2-.1.3m.2 0v-.2.2m.1 0 .1-.2c-.1.1-.1.2-.1.2m.1 0c.1-.1.1-.1.1-.2 0 0 0 .1-.1.2m.3 0c.1-.1 0-.2 0-.2v.2m.1-.1c.1 0 .1-.1.1-.2 0 .1 0 .2-.1.2m-.2.1v-.1.1m-.4.1v-.1.1m-.1 0v-.1.1m-.1 0v-.2.2m-.1.1h-.1l.1-.3c-.1.1-.1.2-.1.3m.5-.2v-.2c.1.1.1.2 0 .2m.2 0h.1v-.3c0 .1.1.2 0 .3m.2 0 .1-.3c-.1.1-.1.2-.1.3m-1.4 0v.2c-.1 0-.1-.1 0-.2m0 .2v-.1.1m.5-.1h.2v-.2.2m.3-.1.1-.2c-.1.1-.1.1-.1.2m.9.9.1-.2c-.1 0-.1.1-.1.2m.2-.1.1-.2c-.1.1-.1.2-.1.2m.1 0c.1-.1.1-.2.1-.3 0 .1 0 .2-.1.3m.2 0c.1-.1 0-.2 0-.3v.3m-.4-.1v.1-.1m.1.1v-.1c.1 0 .1.1 0 .1m.2 0v-.1.1m-.3 0-.2.1v-.1.1m.5-.4v.2c-.1-.1 0-.1 0-.2m-.2.2h.1v-.1.1m-.1 0v-.1.1m.3 0-.2.1v-.1.1m-.2-.1 1.9.7.1-.3s-.1.1-.1.3m0-.1v-.1.1m-.1 0 .1-.1c-.1 0-.1.1-.1.1m.2 0v-.2.2m-.3 0h.3c.1-.1.1-.3.1-.4 0 .2 0 .3-.1.4m-.5-.7v-.2.2m.6.7.1-.3c-.1.1-.1.2-.1.3m-1.2 0-3.1-1.2c.1 0 .1-.1.1-.2-.1 0-.1.1-.1.2m3.1 1.3h.1V31v.1m-3.2-1.6c0 .1 0 .2-.1.2.1 0 .1-.1.1-.2m.2.5.1-.3c-.1 0-.1.1-.1.3m-.4-.2.3.1-.3-.1 3.2-.6c.1-.1 0-.1 0 0m1 0v-.1.1m-.5 0v-.4.4m-.1 0 .4.1-.5-.1V29v.2m.3 0V29c.1.1.1.2 0 .2m-.5 0v-.1.1m.3 0v-.1.1m-.1.1c0-.1.1-.2.1-.2s-.1 0-.1.2m-.1-.1h.4l.3-.1v.1-.1m-.2.2v-.1.1m.1 0V29c.1.1 0 .2 0 .3m-.3-.1V29v.2m-.3 0v-.1.1m-.1 0h.7V29v.2m.2 0h-.8V29v.2m.1.1V29v.3m.2-.1V29v.2m.1.1v-.1.1m.1-.2v.1c.1 0 .1 0 0-.1m-.6.1h.9-.3v-.3.3m-.3 1.1v-.1.1m.2 0v-.2.2m.6.6-1 .1v-.3.2m-.6-.5v-.2.2m0 .2.1-.1c-.1 0-.1.1-.1.1m.5.5V31v.1m-.5-.6v.1-.1m-.1.1v-.1.1m-.4-.5v.2c.1 0 0-.1 0-.2m.1.5.5-.3c0 .1 0 .1-.1.2.1 0 .1-.1.1-.2m-.4-.1v.2c-.1-.1 0-.1 0-.2m.1.4s.1-.1.1-.2c0 0-.1.1-.1.2m-1.4-.9-.3.1v-.1.1m-.1 0v-.1.1m-.3.1v-.1.1m-.3 0 .1-.2c-.1 0-.1.1 0 0-.1.1 0 .1 0 0m.1.2.1-.1-.1.1m1-.3v.1-.1m.2 0v.1-.1m.1.1.2-.1-1.7-.7v-.1.1m.5 0v-.2.2m-.3-.2v.1c.1 0 .1-.1 0-.1m.2.1c-.1 0-.1-.1 0 0m-.2-.1v.1-.1m.2.1-.3.1.1-.1-.1.1.2-.1.1.1h-4.7v-.3.3m-.3 0c-.1-.1-.1-.3-.1-.4-.1.1 0 .3.1.4m.2 0v-.1c-.1 0 0 .1 0 .1m.1 0v-.1.1m-.2 0-.1-.2c0 .1 0 .2.1.2m.1 0v-.1.1m-.1 0v-.2c-.1 0 0 .1 0 .2m-.2-.1c0-.1 0-.2.1-.2-.1.1-.1.2-.1.2m.4.1-.2-.2v.1-.1m-.1.2h.2c-.1 0-.1-.1 0 0m.1 0h-.4v-.2.2" opacity=".59" fill="#05773D"/><path fill="#999A9E" d="M41.9 27.9c-.1.1-.1 0 0 0m-.4-.2c-.1 0-.1.1-.2.2l.2-.2"/><path fill="#949699" stroke="#010101" stroke-width=".014" d="M47.7 24.7c.1.1.3.9.3.9-.8-.8-2.5-1.4-4.6-1.4-2 0-3.8.6-4.5 1.4 0 0 .1-.4.3-.8.1-.4.3-.7.3-.7.9-.6 2.3-.9 3.9-.9s3.1.4 4 .9c0 0 .3.4.3.6z"/><g fill="#FEDC00" stroke="#010101" stroke-width=".028"><path d="M43.4 24.4s.1.4.1.6c0 0 .2-.4.2-.6m-.6-.2s-.1.4-.1.6l.4-.4m-.5-.4s-.3.3-.3.5c0 0 .4-.2.5-.2m-.3-.5s-.4.2-.5.3h.6m-.1-.6s-.4 0-.6.1c0 0 .4.2.5.2m.2-.5s-.4-.1-.6-.1l.4.4m.4-.5s-.3-.2-.5-.3c0 0 .2.4.3.5m.5-.3s-.2-.4-.3-.5v.6m.5-.1s-.1-.4-.1-.6c0 0-.2.4-.2.6m.6.1s.1-.4.1-.6l-.4.4m.5.4s.2-.3.3-.5c0 0-.4.2-.5.3m.3.5s.4-.2.5-.3c0 0-.5 0-.6.1m.1.4s.4-.1.5-.2c0 0-.4-.1-.5-.1m-.1.5s.4.1.6 0c0 0-.4-.3-.5-.3m-.3.5s.4.2.5.2c0 0-.2-.4-.3-.5m-.4.5s.2.3.4.4c0 0 0-.5-.1-.6"/><circle cx="43.5" cy="23.7" r=".7"/></g><path fill="#010101" d="M43.3 23.5c-.1.1-.1 0-.1 0-.1-.1 0-.1.1 0-.1-.1 0-.1 0 0"/><path stroke="#010101" stroke-width=".041" d="M43.1 23.5c.1-.1.2-.1.3 0" fill="none"/><path fill="#010101" d="M43.9 23.5c-.1.1-.1 0-.1 0-.1-.1 0-.1.1 0-.1-.1 0-.1 0 0"/><path stroke="#010101" stroke-width=".041" d="M43.7 23.5c.1-.1.2-.1.3 0m-.6.2h.2" fill="none"/><path stroke="#010101" stroke-width=".049" d="M43.4 24.1h.1" fill="none"/><path stroke="#010101" stroke-width=".055" d="m40.6 24-.1-.1s-.2 0-.3.2c0 0-.1-.2-.4-.1v.2s.2-.2.3-.1c0 0-.1.3.1.3s.1-.3 0-.3c.1 0 .2-.2.4-.1zm-.3.2zm1.5-.7h-.1c0-.1.1 0 .1 0-.1 0-.1.1-.1.1s-.2 0-.3.1h-.1s-.1 0-.1.1l.1.1.2.3c.1 0 .1-.3.1-.4.1-.2.4-.3.2-.3zm-.2.4c-.1 0-.2-.2-.1-.2.1-.1.2-.1.2-.1s0 .3-.1.3z" fill="none"/><path stroke="#010101" stroke-width=".097" d="M45.4 23.7v-.1l-.1-.1h-.1c0 .1 0 .1.2.2l.3.1h.2s.1-.1 0-.1h-.2s-.1 0-.1.1v.2c0 .1.1.2.1.1v-.2l-.3-.1h-.2v.1h.1l.1-.1v-.1z" fill="none"/><path stroke="#010101" stroke-width=".055" d="M46.7 24.2s-.1-.1-.2.1c0 0-.2 0-.1-.4 0 0-.1.1-.1.3 0 0 0 .2.2.3 0 0 .2 0 .2-.1.1-.1.1-.1 0-.2zm0 .2zm-.1-.2s.1 0 .1-.1c0 0 .2 0 .2.4 0 0 .1-.1.1-.3 0 0-.1-.2-.3-.2 0-.1-.2-.1-.1.2zm0-.2z" fill="none"/><path fill="#FEDC00" d="m40.6 24-.1-.1s-.2 0-.3.2c0 0-.1-.2-.4-.1v.2s.2-.2.3-.1c0 0-.1.3.1.3s.1-.3 0-.3c.1 0 .2-.2.4-.1m-.3.2 1.5-.7h-.1c0-.1.1 0 .1 0-.1 0-.1.1-.1.1s-.2 0-.3.1h-.1s-.1 0-.1.1l.1.1.2.3c.1 0 .1-.3.1-.4.1-.2.4-.3.2-.3m-.2.4c-.1 0-.2-.2-.1-.2.1-.1.2-.1.2-.1s0 .3-.1.3"/><path stroke="#FEDC00" stroke-width=".055" d="M45.4 23.7v-.1l-.1-.1h-.1c0 .1 0 .1.2.2l.3.1h.2s.1-.1 0-.1h-.2s-.1 0-.1.1v.2c0 .1.1.2.1.1v-.2l-.3-.1h-.2v.1h.1l.1-.1v-.1z" fill="none"/><path fill="#FEDC00" d="M46.7 24.2s-.1-.1-.2.1c0 0-.2 0-.1-.4 0 0-.1.1-.1.3 0 0 0 .2.2.3 0 0 .2 0 .2-.1.1-.1.1-.1 0-.2m0 .2-.1-.2s.1 0 .1-.1c0 0 .2 0 .2.4 0 0 .1-.1.1-.3 0 0-.1-.2-.3-.2 0-.1-.2-.1-.1.2m0-.2-3.314 8.499v-.256s.96.085 1.483 0v.171c0 .085-1.308.085-1.483.085"/><path fill="#5D5443" d="M44.943 32.157h.349v.085h-.349z"/><path d="M45.554 32.157v.171-.171l-.262-1.11.262 1.11.174-.427m-.261.684s.087-.085.174-.085h.087-.087l-.174.085m.174 0s.087-.085.174-.085h.087-.087l-.174.085m-.174-.427v.171-.171m0 .171v-.085.085m-.436-.94h-.523.523m-.524-.341.262 1.366-.262-.768.174.598-.174-1.11v-.085zm.175 1.366-.087-.854.087.854m-.087 0v-.427.427m0-.683-.087.683.087-.683m-.088-.342-.087.939.087-.939m0 .256-.785.512.785-.512" fill="#010101"/><path fill="#858E8E" d="M45.031 32.072h.349v.085l-.349-.085z"/><path fill="#755439" d="m45.641 32.243.087-.512-.087.512"/><path fill="#FEDC00" d="M45.99 31.987c-.087 0-.087-.085-.174-.171 0-.085-.087 0-.087 0v.085h.087s.087.171.174.085l-.087.171.087-.171z"/><path fill="#0751A0" d="M45.816 31.901c0-.085-.087 0-.087 0h.087c0 .085.087.171.087.171v.085-.085l-.087-.171"/><path fill="#EC2227" d="M45.729 31.901c.087 0 .087.085.087.085l.087.085v-.085c-.087 0-.087-.085-.174-.171.087.085 0 .085 0 .085"/><path d="m44.595 31.56.785-.512-.785.512m0-.342v1.793-1.793zm-.088 1.025h1.221-1.221" fill="#A47954"/><path fill="#626364" d="M43.984 32.072h.174-.174l-.174.171h-.174s.087-.085.087-.171c0 0 .087-.085.174-.085l.087.085"/><path fill="#A3A5A8" stroke="#010101" stroke-width=".008" d="M84.2 120c-.1-.2-.2-.3-.4-.3-.3 0-.3.1-.4.3h.8z" transform="matrix(.872 0 0 .854 -28.942 -70.134)"/><path d="M44.393 32.261v-.086h-.087v-.085h-.349l-.087.085c0 .085-.087.085 0 0m-.087.086" fill="#7A7B7D"/><path fill="#939598" stroke="#010101" stroke-width=".008" d="M83.7 119.7c-.3 0-.3.1-.5.3h.1c.2-.2.2-.3.4-.3z" transform="matrix(.872 0 0 .854 -28.942 -70.134)"/><g fill="#442E17" stroke="#010101" stroke-width=".007"><path d="M43.3 32.3v-.2h.3l-.1.1-.2.1"/><path d="M43.4 31.8v.4-.4zm.2 0v.4-.4zm.1.3v-.4.4zm.3-.1.1-.4-.1.4zm-.3-.3-.2.5.2-.5zm.1 0v.3-.3z"/></g><path fill="#A48B58" stroke="#010101" stroke-width=".007" d="M83.7 119.2h-.4l-.3.1h.3l.4-.1z" transform="matrix(.872 0 0 .854 -28.942 -70.134)"/><path fill="#A47954" stroke="#010101" stroke-width=".007" d="m83 119.4.3-.1h.4-.4l-.3.1z" transform="matrix(.872 0 0 .854 -28.942 -70.134)"/><path fill="#010101" stroke="#010101" stroke-width=".008" d="M83.2 119.7c0-.1 0-.1.1-.1 0 0 .1 0 .1.1 0-.1 0-.1-.1-.1s-.1 0-.1.1z" transform="matrix(.872 0 0 .854 -28.942 -70.134)"/><path fill="#939598" stroke="#010101" stroke-width=".008" d="M83.1 119.9c.1-.1.1-.3.5-.3h-.1c-.3.1-.3.2-.4.3z" transform="matrix(.872 0 0 .854 -28.942 -70.134)"/><path fill="#FEDC00" d="M44.916 32.431s.785 0 .785-.085h-.959"/><path opacity=".75" fill="#6A6262" d="M42.736 31.407h-.087s-.087.085 0 .085c0 0 .087 0 .087.085.087 0 .087 0 .087-.085h.174c.087 0 .087 0 .087-.085 0 .085.087.085.174.085s.174 0 .262-.085l.087.085h.087l.087-.085h.087c.087 0 .087.085.174 0h.261c.087 0 0-.085 0-.085h-.261c0-.085-.087-.085-.174 0h-.087c-.087-.085-.174-.085-.349 0-.087-.085-.174 0-.174 0h-.174s-.087.085-.087 0h-.174l-.087.085"/><path fill="#84858A" d="M42.736 32.517c-.087.085-.087 0-.087 0v-.854s0-.085.087-.085c0 0 .087 0 .087.085v.854z"/><path fill="#463819" d="m43.26 32.346-.087.085h-.174v.085h.262v-.171z"/><path fill="#6B5F47" d="M43.085 32.346h-.174v.171h.174"/><path d="M42.911 32.431zm0 0zm0 0zm.087 0zm0 0zm0 0z" fill="#463819"/><path fill="#2F2414" d="M42.824 32.431v-.256.256zm-.524-.085h-.087v-.17.256h.262v-.085h-.174z"/><path fill="#876E47" d="M42.475 32.431z"/><path fill="#ADADAE" d="M42.736 31.919h-.174.174"/><path fill="#876E47" d="M42.736 32.346h-.087v.085h.174l-.087-.085"/><path fill="#2F2414" d="M42.475 32.431h.174v-.085l-.174.085"/><path fill="#463819" d="M42.126 32.431v-.085h-.261v-.085.171h-.174v-.171.171s-.087 0-.174-.085l.087.085h.523"/><path fill="#8A6033" d="m41.428 32.431-.349-.085c-.349-.085-.436-.171-.523-.171 0 0-.087 0 .087.085.087 0 .61.171.785.171"/><path fill="#fff" d="M42.736 31.407h-.087s-.087.085 0 .085c0 0 .087 0 .087.085.087 0 .087 0 .087-.085h.174c.087 0 .087 0 .087-.085 0 .085.087.085.174.085s.174 0 .262-.085l.087.085h.087l.087-.085h.087c.087 0 .087.085.174 0h.261c.087 0 0-.085 0-.085h-.261c0-.085-.087-.085-.174 0h-.087c-.087-.085-.174-.085-.349 0-.087-.085-.174 0-.174 0h-.174s-.087.085-.087 0h-.174l-.087.085"/><path fill="#FEE600" d="m44.742 32.431-1.482.085h-1.744c-.262 0-.523-.085-.523-.085l.087.171.436.085h2.964c.087 0 1.134-.085 1.134-.085v-.085l-.872-.085z"/><path fill="#010101" d="m41.254 32.688-.523-.427.523.427z"/><path fill="#57585A" stroke="#010101" stroke-width=".008" d="M80.6 120.3v-.1c-.1-.1-.1 0 0 .1h-.2.2z" transform="matrix(.872 0 0 .854 -28.942 -70.134)"/><path d="M41.603 32.517h1.831c.087.085 0 .085 0 0m.174.085h.175c0-.085.087-.085 0 0m.174 0 .175-.085h.261c.087.085 0 .085 0 0m-1.831 0h.174" fill="#010101"/><path fill="#EC2227" d="M41.254 32.602a.642.642 0 0 0 .262.256h4.012v-.171c-.087 0-.262 0-.436.085h-2.877l-.698-.085c-.087 0-.174 0-.262-.085z"/><path fill="#0751A0" d="M45.614 32.517s-1.046.085-1.134.085h-2.964l-.436-.085h-.087s.087.085.174.085h.087c.087 0 .174.085.174.085.087 0 .698.085.698.085h2.703l.61-.085.087-.085c.087 0 .087-.085.087-.085"/><path fill="#FEDC00" d="M43.26 32.517v-.256s.959.085 1.482 0v.171c0 .085-1.308.085-1.482.085"/><path d="M44.044 32.858v-.171.171zm0-.17-.087.171.087-.171m-.174.085.087-.085-.087.085zm0-.085h.087-.087zm.349.17v-.171.171zm0-.085v-.085h-.087l.087.085zm.087 0z" fill="#9C7F38"/><path fill="#fff" stroke="#999A9E" d="M82.8 118.4h.3-.6s0-.1-.1 0h-.6.5s0 .1.1.1h.1l.3-.1c-.1 0 0-.1 0 0" transform="matrix(.872 0 0 .854 -28.942 -70.134)"/><path stroke="#D0C8CE" d="M83.1 118.3s-.1 0-.1-.1-.1 0 .1.1l-.1-.1m0 0h.1-.1m0 .1-.1-.1m0 .1s-.1 0-.1-.1m.1.1s-.1 0-.1-.1m.1.1-.1.1v-.1l-.1.1v-.2l.1-.1m-.1.2v-.1c0 .1.1.1 0 0 .1.1.1 0 0 0m.1 0h.1m0 0-.2.1h.4-.1l-.2-.1h.2-.1v.1l-.2-.1h-.1l.1.1h-.2v-.1l-.1-.1m.1.1h-.4.1m-.1.1h.1m-.1 0h.1c.1 0 .1-.1 0 0m0 0 .1-.1m0 .1h.1v.1l.1-.1h-.1v-.1c-.1 0-.1.1 0 0-.1.1-.1 0 0 0m-.2 0h.1-.1l.1.1-.1-.1h.3-.1v-.1h-.1l.1.1v.1h-.2.1l.1-.1h-.1.1l-.1.1h-.1" transform="matrix(.872 0 0 .854 -28.942 -70.134)" fill="none"/><path fill="#303C31" stroke="#fff" stroke-width=".008" d="M82.5 119.8s0-.1.1-.1l.1-.1c0-.1 0-.1-.1-.1 0 0 .1-.1.1-.2l-.1-.2s.2-.1.2-.2l-.1-.3h-.1s0 .1.1.1c0 0 .1.1.1.2l-.2.2v.1s.1.1.1.2l-.1.2v.1l.1.1c0 .1-.1.1-.1.1s-.1-.2-.1-.1m.2 0s0-.1-.1-.1l-.1-.1c0-.1 0-.1.1-.1 0 0-.1-.1-.1-.2l.1-.2s-.2-.1-.2-.2l.1-.3h.1s0 .1-.1.1c0 0-.1.1-.1.2l.2.2v.1s-.1.1-.1.2l.1.2v.1l-.1.1c0 .1.1.1.1.1s.1-.2.1-.1" transform="matrix(.872 0 0 .854 -28.942 -70.134)"/><path fill="#65482E" d="M42.998 30.723h.087v1.708h-.087zm0 0c.087-.085.087 0 .087 0h-.087"/><path stroke="#010101" stroke-width=".078" d="M45.7 21.4c1.9 1.2 3.2 3.7 3.2 6.7 0 3.5-1.8 6.5-4.3 7.2" fill="none"/><path stroke="#010101" stroke-width=".039" d="M45.6 21.5c1.9 1.1 3.1 3.6 3.1 6.6 0 3.5-1.8 6.4-4.2 7" fill="none"/><path stroke="#010101" stroke-width=".078" d="M42.3 35.2c.4.1.8.2 1.2.2.4 0 .8-.1 1.2-.2m2.9-3.6c-.7 1.6-1.9 2.8-3.3 3.2v-.1c-.3.1-.6.1-.9.1-.3 0-.7 0-1-.1v.1c-1.3-.4-2.4-1.4-3.1-2.9v.1c.7 1.4 1.8 2.5 3 2.8v-.1c.3.1.7.1 1 .1.3 0 .6 0 .9-.1v.1c1.5-.4 2.7-1.5 3.4-3.2" fill="none"/><path fill="#B2BABF" d="M45.7 21.3s-1-.6-2.4-.6c-1 0-2.1.6-2.1.6-1.1.7-2 1.9-2.6 3.3-.4 1-.6 2.2-.6 3.4 0 3.6 2 6.4 4.5 7.1 0 0 .4.2.9.2l1-.1c2.5-.6 4.5-3.5 4.5-7.2 0-4.6-3.7-7-3.2-6.7m-1.3 13.5s-.5.1-1 .1l-.9-.1c-2.2-.6-4-3.3-4-6.6 0-1.1.3-2.3.6-3.2.5-1.3 1.4-2.4 2.4-3 0 0 1-.6 1.9-.6 1.2 0 2.1.7 2.1.7 1.7 1.1 2.9 3.4 2.9 6.1 0 3.2-1.8 6-4 6.6"/><g fill="#C5902C" stroke="#0C0707"><path d="M41.3 21.4c-1.9 1.1-3.2 3.7-3.2 6.6 0 3.5 1.8 6.4 4.2 7.1l-.1.1c-2.4-.7-4.2-3.6-4.2-7.2 0-3 1.3-5.5 3.1-6.7l.2.1zm4.4 0c1.9 1.1 3.2 3.7 3.2 6.6 0 3.5-1.8 6.4-4.3 7.1l.1.1c2.5-.7 4.3-3.7 4.3-7.2 0-3-1.3-5.5-3.2-6.7l-.1.1zm-4.2.6c-1.7 1-2.9 3.4-2.9 6.1 0 3.2 1.7 5.9 3.9 6.5v.2h-.1c-2.2-.7-3.9-3.4-3.9-6.6 0-2.7 1.2-5.1 2.9-6.2h.1zm4.2-.7-.3.7c-.3-.2-1.1-.6-2-.6-.8 0-1.6.5-1.8.6.1-.2-.4-.7-.4-.7l.1-.1s1.1-.6 2.1-.7c1.3 0 2.3.8 2.3.8"/><path d="M45.4 22c1.7 1 2.9 3.4 2.9 6.1 0 3.2-1.7 5.9-3.9 6.5v.1h.1c2.2-.7 3.9-3.4 3.9-6.6 0-2.7-1.2-5.1-2.9-6.2l-.1-.1v.2zm.4-.6c-.2.1-.3.3-.3.5v.2l-.2-.1v-.2c.1-.3.2-.5.4-.5l.1.1zm-4.8 0c.2.1.3.3.3.5v.2l.2-.1v-.2c-.1-.3-.2-.5-.4-.5.1 0-.1.1-.1.1zm3.6 13.8c-.1-.3-.2-.4-.2-.4v-.3c-.3.1-.6.1-1 .1-.3 0-.6-.1-.8-.1v.3s-.1.1-.1.3c0 .1-.1.1-.1.1h.1c0 .2.2.2.3.2 0 .2.2.2.3.2 0 .2.1.2.2.3 0 0 .1 0 .1.1.1.1.2.4.3.4.1 0 .2-.3.3-.4l.1-.1c.1-.1.2-.1.2-.3.1 0 .2.1.3-.2-.2.1 0 .1 0-.2zm.1 0c-.1-.1-.2-.2-.3-.5v-.2h-.1v.2c0 .2.2.4.3.5h.1zm-2.5 0c.1-.1.2-.2.3-.5v-.2h.1v.2c0 .2-.2.4-.3.5h-.1z"/></g><path d="M42.588 35.487c.087-.085.174-.256.174-.342 0 .085 0 .256-.174.342m.262.171.262-.342c0 .085-.087.256-.262.342m.349.342a.645.645 0 0 0 .174-.427l-.174.427m1.047-.513c-.087-.085-.174-.256-.174-.342 0 .171.087.256.174.342m-.262.171-.262-.342c.087.085.174.342.262.342m-.262.342c-.087-.085-.087-.256-.174-.427 0 .171.087.342.174.427" fill="#010101"/><path d="M40 17.7s-.3.6-.1.6c.1.1.5 0 .8-.6.3-.5-.2-.3-.2-.3l-.5.3zm1.6.4v.8c0 .1.4.1.5-.5 0-.6-.1-.6-.1-.6l-.4.3m.2-.9s-.3.9 0 1c.3.2.5-.9.5-1.1 0-.2-.5.1-.5.1zm.2 1.1s.1.8.2.8.4-.2.4-.4l-.3-.7-.3.3m0-1s-.3.9 0 1c.3.2.5-.9.5-1.1 0-.2-.5.1-.5.1zm0-1.4s-.4.4-.4.6c0 .2.6-.3.6-.4.1-.1-.2-.2-.2-.2zm-.2-.2s-.3.6-.2.8c.1.2.4-.1.5-.3.1-.3-.3-.5-.3-.5zm-.8.1s-.2.8-.1.9c.3.2.5-.6.5-.8.2-.4-.4-.1-.4-.1zm.5 0s-.4.4-.4.6c0 .2.6-.3.6-.4.1-.1-.2-.2-.2-.2zm-6.9 0s-.8.4-.9.6c-.1.2 2.5-.3 3.9-1.3l-.6-.3-2.4 1zm1 .2s-1.5.6-.4.6c0 0 2.2-.5 3.3-1.3l-.3-.4-2.6 1.1zm2.2-1.5s-1.6.8-1.4.9c.2.1 1.3-.2 1.9-.5.6-.4.8-.6.8-.6l-.7-.2-.6.4zm-.6 1.8s-.6.5-.5.5c.1.1 1.2-.1 2.1-.8l-.1-.4-1.5.7m-1-.1s-.5.4-.4.5c.1 0 .6.4 2.6-1l.2-.1-.3-.6-2.1 1.2zm-.4-1.6c-1.7.6-3.5 1.8-3.5 1.8.2-.1 4.4-1.8 4.4-1.8m2.9 2.7s-.4.6-.3.6c.1.1.5.3 1.1-.4.5-.7-.5-.6-.5-.6l-.3.4zm-.4-.5s-.6.7-.4.8c.1.1.8.1 1.2-.6l-.1-.6-.7.4zm-.5-.3s-.5.6-.5.7c.1.1.8.1 1.4-.6.6-.6.1-.9.1-.9l-1 .8m-1 0-.3.5s.1.4 1.3-.4l1.1-.7-.6-.1-1.5.7zm-3.8-.7-.8.3s-.2.1.3.2c.4 0 1.4-.1 2.9-1 .7-.4 1.2-.8 1.2-.8l-.5-.2-3.1 1.5zm-1.3.5s1.1-.1 1.5-.4c0 0-.1.1.5-.1l3.1-1.5-.1-.2s-3.4 1.5-3.7 1.5c-.2.1-1.3.7-1.3.7zm7.9 1.4s-.1.9 0 .9.5-.2.6-.8c.1-.5-.6-.5-.6-.5v.4m.5.3s-.1.6 0 .7c.1.1.3.1.6-.4l.1-.3-.6-.3-.1.3zm.2-1.1s-.5 1-.2 1 .6-.8.7-.9c0-.2-.5-.1-.5-.1zm0 0s-.2 1.1.1 1c.3-.1.4-.9.4-1.1-.1-.1-.5.1-.5.1zm.3.1s-.3.9 0 1c.3.2.5-.9.5-1.1 0-.1-.5.1-.5.1zm-1-.2s-.2.8-.1.9c.3.2.5-.6.5-.8.1-.4-.4-.1-.4-.1zm-2-1.7s-.7.6-.6.7c.1.1.9-.1 1.3-.3.4-.3.5-.4.5-.4l-.7-.4-.5.4zm.6-.6s-.5.4-.4.5c.1.1.9-.2 1-.4.1-.2.1-.3.1-.3l-.7.2zm.4 0s-.6.5-.4.7c.1.2 1-.6 1.1-.7.1-.2-.7 0-.7 0zm-.2-.3-1.2.6s-1 .7-.9.7c.1.1.9-.1 1.5-.4.6-.3 1.2-.8 1.2-.8m-.3.6s-1.3 1.2-1.1 1.3c.2.1.9-.2 1.5-.8m-.1-.2s-.8 1.3-.7 1.5c.1.1.6-.3.9-.6.3-.3.5-.8.5-.8m-.3.1s-.8 1.5-.7 1.7c.1.1.6 0 .9-.6.3-.6.3-1 .3-1l-.5-.1zm.4.1s-.9 1.9-.7 2.1c.2.2 1.2-1.4 1.2-1.7.1-.4-.5-.5-.5-.4m-1.9-1.3s-.8.4-.7.5c.2.1.9-.3 1-.3.2 0-.3-.2-.3-.2zm.1.2s-.5.4-.4.5c.1.1.9-.3 1-.4.2-.2-.6-.1-.6-.1zm1.1 0s-.7.9-.5 1c.2 0 1-.6 1-.7.1-.2-.5-.3-.5-.3zm.3.2s-.7.9-.5 1c.2.1.2-.1.2-.1s.6-.5.6-.6c.1-.1-.3-.3-.3-.3m.2.2s-.5.9-.4 1c.1.1.4-.2.6-.4.2-.3-.2-.6-.2-.6zm.2.4s-.3.6-.2.8c.1.2.4-.1.5-.3.1-.2-.3-.5-.3-.5zm.1 1.7s-.2.8-.1.9c.3.2.5-.6.5-.8.1-.4-.4-.1-.4-.1zm1.5-1.1s-.2-.1-.4-.1c0 0-.5-.4-.7-.4s0-.6-.1-.7c0 0 0-.6-.4-.7h-1.4c-.2-.1-.6-.3-1.6 0-.9.3-2.8 1.1-2.9 1.1-.1 0 2.1-.5 2.8-.8 0 0 .6 0 .8-.1 0 0-.7.3-.1.2.7-.1.5 0 .5 0s-.1.1.3.1c.4-.1.4 0 .4 0s.4.1.8 0c0 0 .2.6.4.7 0 0 .3.5.8.6l.3.2.3.1.2-.2m-4.4-1.6s-2.1.8-2 1c.1.2 2.2-.6 2.6-.8.3-.3-.5-.2-.6-.2" fill="#462D26" stroke="#010101"/><g fill="#462D26" stroke="#010101"><path d="m52.5 16.1.8.5s.2.2-.2.1-1.4-.4-3.2-1.6c-.8-.5-1.1-.5-1.1-.5h1.1l2.6 1.5zm.3-.2.8.5s.2.2-.2.1-1.4-.4-3.2-1.6c-.8-.5-.2.4-.2.4l.1-.6 2.7 1.2zm1.4.4s-1-.2-1.4-.4c0 0 .1.1-.4-.1 0 0 .2.4-1.2-.5l-.9-.5.4-.1s2.1.8 2.3.9c.3.1 1.2.7 1.2.7zm-5.2.4.3.5s-.1.4-1.3-.4c-1.1-.9-1-.8-1-.8l.6-.1 1.4.8m-1.5.3s.5.7.4.8c-.1.1-.8 0-1.2-.6v-1.1l.8.9m.5-.4s.5.7.5.8c-.1.1-.8 0-1.4-.6-.6-.7-.1-.9-.1-.9l1 .7m3-.4s1.5.6.4.6c0 0-2.1-.6-3.2-1.5l.3-.4 2.5 1.3m.8-.1s.8.5.9.7c.1.2-2.5-.5-3.8-1.6l.6-.3 2.3 1.2zm-2.4.4s.6.5.5.5c-.1.1-1.2-.1-2.2-.8l.1-.4 1.6.7m1 0s.6.4.5.4c-.1 0-.6.4-2.7-.8L48 16l.3-.5 2.1 1m-2.1-1.2s.7.6.6.7c-.1.1-.9-.1-1.3-.4-.4-.2-.6-.6-.6-.6l.8-.2.5.5zm-.9-1 1.3.7s1 .7.9.8c-.1.1-.9-.2-1.5-.5l-1.2-1m-.3 3.5s.2.6.1.6c-.1.1-.5-.1-.8-.6-.3-.5.1-.3.1-.3l.6.3zm.5-.4s.4.6.3.6c-.1.1-.5.3-1-.5-.5-.7.5-.6.5-.6l.2.5zM46 14.8s1.2 2.3 1.1 2.4c-.1.1-.6 0-.8-.6-.3-.6-.5-1.4-.5-1.4l.2-.4zm1.4.6s1 .8.8 1c-.2.1-.6 0-1.2-.6-.6-.7.4-.5.4-.4m-.5 0s.7 1.3.6 1.4c-.1.1-.6-.3-.9-.7-.3-.3-.5-.8-.5-.8m.1-.4s.5 1 .4 1c-.1.1-.4-.2-.6-.5-.2-.3.2-.5.2-.5zm0 1.9s.2.8 0 .9c-.3.1-.5-.6-.5-.8 0-.3.5-.1.5-.1zm-.6 1.3v.7c-.1.1-.3.1-.5-.4l-.1-.3.6-.3v.3m.6-.1s.1.6 0 .6-.5-.2-.6-.6c-.1-.4.6-.3.6-.3v.3m-.6-2s.7 1.5.5 1.7c-.2.4-.8-.9-1-1.4-.2-.6.5-.3.5-.3zm-.3.3s.9 1.6.5 1.6-1.1-1.2-1.2-1.4c-.1-.3.7-.2.7-.2zm-.1.3s.4 1.5.2 1.4c-.3-.1-.6-1.3-.7-1.5 0-.3.5.1.5.1zm1.6-2.2s.7 1 .5 1.1c-.2 0-1-.7-1-.8-.1-.2.5-.3.5-.3zm-.5.1s.9 1.2.6 1.2c-.3.1-.3-.1-.3-.1s-.7-.6-.7-.8c0-.2.4-.4.4-.3m1.7-.1s.8.4.6.5c-.2.1-.9-.3-1-.3-.1-.1.4-.2.4-.2zm-.8.1s.6.6.4.8c-.2.2-1-.8-1.1-.9-.1-.1.8.1.7.1m-1.4.8s1 1.9.8 2c-.2.2-1.2-1.4-1.3-1.6-.1-.2.5-.4.5-.4m-.6.2s.4.6.4.9c0 .3-.6-.4-.6-.6-.1-.1.2-.3.2-.3zm.8-.3s.3.6.2.8c-.1.2-.5-.4-.6-.6-.2-.2.4-.2.4-.2zm-1.4.6s.5.5.4.8c0 .3-.7-.4-.8-.5 0-.2.4-.3.4-.3zm3-1.5s.7.6.6.7c-.1.1-1.1-.6-1.2-.7-.1-.1.6 0 .6 0zm-.6-.1.6.5s.5.3.4.4c-.1.1-.9-.3-1-.4-.1-.2-.1-.3-.1-.3l.1-.2zm1.8.2s2.1.8 2 1.1c-.1.2-2.2-.7-2.5-.9-.3-.3.5-.2.5-.2m.1.3s1.6.9 1.4 1c-.2.1-1.3-.2-1.9-.6-.6-.4-.8-.6-.8-.6l.7-.2.6.4zm-3.8 1s.3.6.2.8c-.1.2-.4-.2-.5-.4-.2-.2.3-.4.3-.4zm0 1.4s.2.9 0 1c-.3.2-.4-.9-.4-1.1 0-.2.4.1.4.1zm-1.2-1.5s.9-.4 1-.4c0 0 .2 0 .3-.1l.3-.3s-.2-1.1 1-.9c1.1.1 2.6.2 2.9.3.3 0 1.4.4 1.6.5l2.2 1c.2.1.6.3 1 .6s-2.7-1.4-3.6-1.6c-.2 0 0 .3 0 .3l-.9-.3c-.3-.1-.5-.2-.7-.1-.2 0-.4 0-.6-.1-.1 0-.9-.1-1.1-.1H47l.1.1-.4-.1-.1.2s-.4.1-.4 0l-.3.8c-.1.2-.5.2-.6.3l-.2.2-.4.2H44l-.1-.5zm1.2 2.5v.8c0 .1-.4 0-.4-.5 0-.6.1-.6.1-.6l.3.3"/><path d="M44.9 17.2s.2.9 0 1c-.3.2-.4-.9-.4-1.1-.1-.2.4.1.4.1zm-.2.1s.2.9 0 1c-.3.2-.4-.9-.4-1.1-.1-.2.4.1.4.1z"/></g><path d="M44.8 20.9s.2.2.1.2c0 0 .2-.2 0-.4l-.1.2zm-1.2-.4.1.1v.1h-.1s-.1 0-.1.1c0 0 0-.2.1-.3zm.6.7.1-.1.1.1s0 .3-.1.3v-.1c0-.1-.1-.2-.1-.2zm-1-.4v-.1l.1-.1h.1s.1.2 0 .3c0 0 0-.1-.1-.1h-.1zm-1 .2s-.2.3 0 .4c0 0 0-.2.1-.3l-.1-.1zm-.5-.1h.1l-.1.2v-.2z" fill="#D9C0B9" stroke="#010101" stroke-width=".033"/><path fill="#BD8759" stroke="#010101" stroke-width=".033" d="M44.1 19.5v.6c0 .1 0 .2-.1.3 0 .1-.1.1-.2.1s-.3 0-.3.1l-.1.1s.1-.1.1 0v.1h.2c.1-.1.2-.1.2-.1l.1.1v.3c0 .1 0 .3.1.3 0 0 0-.1.1-.1l.1.1v-.3c0-.1-.1-.2-.1-.2s.3.1.4.2l.1.1s0-.1.1-.1h.1s-.1-.2-.2-.3c-.1-.1-.2-.1-.3-.1-.1-.1-.1-.1-.1-.2v-.7l-.2-.3zm-1.6 1.2-.3.3v.2s.2 0 .2.1c0 0 .1 0 .2-.2.1-.3.2-.4.3-.4.1 0 .2.1.2.1.1.1.1.1.2.1 0 0-.1-.1 0-.2h.1s-.1-.2-.2-.2c-.2 0-.3-.1-.2-.1 0-.1.2-.6.2-.6l-.3-.4-.1.3v.3c0 .1-.2.5-.2.5s-.6.2-.7.3c-.1 0-.2.2-.2.2v.1s.1-.1.1 0l.1-.1h.1l.1-.1h.2"/><path d="m42.9 19.9-.1.2-.2.3 1.6-.2h.1m0-.1v-.2h-.1m0 .5h.1m-.1.2v.4l-1.2-.6.2.1-.1.1m-1.1.1s.1 0 .1.1m2.5-.3.1.1" stroke="#010101" stroke-width=".033" fill="none"/><path fill="#462D26" stroke="#010101" stroke-width=".033" d="M45.2 17.5s-.1-.3-.1-.4c-.1 0 0-.1 0-.1s-.1-.3-.2-.4c-.1-.1 0-.1 0-.1s-.1-.2-.3-.3c-.1-.1 0-.1 0-.1s-.1-.3-.4-.5c0 0-.2-.2-.3-.2-.2 0-.6-.1-1.1-.1-.6 0-.8.4-.8.4v.4l.1-.1-.1.6c0 .1.1.3.1.6v.3c0 .2.1.5.2.7v.1l.1.2s0 .3.1.2c0 0 .1.2.2.3 0 0 .1.3.1.2 0-.2.1.3.1.4l.1-.2.1.2h.1v.2s.3-.2.3-.3v-.2l.1-.1.1-.2s.4.3.4.4c0 .1.1.2.1.2l.1-.1.1.2.1-.1.1.1v.1s.1 0 .2-.1c.2-.3.1-.5.2-.5l.1.1s-.1-.3-.1-.4c0-.2.1-.1.1-.1v-.5c0-.1.1-.1.1-.1s-.1-.5 0-.7z"/><path d="M44.4 16.4c.1 0 .1.1.1.2 0-.2 0-.3-.1-.2m.1.3c.1.1.1.3.1.5 0-.2 0-.4-.1-.5m.3.1c.1.1.1.3.1.4 0-.1 0-.3-.1-.4m.1.6v.3c-.1-.1 0-.1 0-.3m-.1.5v.2-.2m-.2-.6v.3-.3m-.1.7v.3-.3m.4-.1s.1.1.1.2c0-.2 0-.2-.1-.2m0-.7.1.1s0-.1-.1-.1m-.3.5v.3-.3m-.2.2v.2-.2m-.6-2.1s.1 0 .1.1c0 0 0-.1-.1-.1 0-.1-.1-.1-.1-.1s0 .1.1.1m-1.7 1.6c0 .1 0 .1.1.2 0-.1 0-.1-.1-.2m.3-1.6h.2-.2m.4 0h.2c0-.1-.1-.1-.2 0m-.7.3v1.4-.2m2.1-1.1v.5s.1.1.1.2c0-.1-.1-.2-.1-.2m-.1-.4.1.1-.1-.1m.1.9v.2-.2m.1.2v.1-.1m.5 1v.3-.3m-.1.2c0 .1-.1.2-.1.2.1 0 .1-.1.1-.2m-2.5-.7.2.3c-.1-.2-.2-.3-.2-.3m.4 0c-.1 0-.1-.1-.1-.1s0 .1.1.1m-.2.4.1.3c-.1-.2-.1-.2-.1-.3m.3.1c.1.1.1.1.1.2 0-.1-.1-.2-.1-.2m-.1.3c0 .1 0 .1.1.2 0-.1 0-.2-.1-.2m.3.1v.2-.2m-.1.2c0 .1 0 .2.1.2-.1 0-.1-.1-.1-.2m.1-1.1.2.1c-.1 0-.2-.1-.2-.1m0 .3c.1 0 .2.1.2.1s-.1-.1-.2-.1m.1.3c0 .1.1.1.1.1s-.1 0-.1-.1m.1.4.1.2c-.1-.1-.1-.1-.1-.2m.2-.9v.1-.1m.6-.3s0 .1-.1.1c.1 0 .1 0 .1-.1m.2 0v.2-.2m.1.4v.2-.2m.2.3-.1.2s.1-.1.1-.2m-.6-.3-.1.1s.1 0 .1-.1m0 .5-.1.1c.1 0 .1-.1.1-.1m-.2.2c-.1-.1-.1-.2-.1-.3 0 .1 0 .2.1.3m-.2-.2v.1-.1m.6.3c0 .1 0 .1-.1.2l.1-.2m.4.1-.1.2s.1-.1.1-.2m.2.3v.3-.3m.3-.4v.1-.1m-2.8-1.2v.3-.3" fill="#010101"/><path fill="#DCDDDE" d="M42.1 16.5s0-.3.1-.4c0 0 0-.3.4-.3 0 0 .1-.2.3-.1 0 0 .2-.1.3 0 .1.1.3.2.3.2h.2v.3s.2.1.2.3v.2s.1.1.1.2l-.1.2s0 .3-.1.3c-.1.1-.2.1-.2.1l-.2.2c-.1 0-.2-.1-.2-.2l-.1-.1s-.3.3-.5.2c-.2 0-.3-.2-.3-.2l-.1-.2s-.2-.1-.2-.2l.1-.3v-.2z"/><path d="M43.1 16.3c.2-.2.4-.3.7-.3-.3-.1-.6.1-.7.3m.8.2c-.2-.1-.5-.2-.7 0 .2-.2.5-.1.7 0m-.7.2c.1.2.2.5.1.7.1-.2 0-.4-.1-.7m-.3.2v.7c.1-.2.1-.5 0-.7m.4-.2c.2.1.5.2.6.4-.1-.2-.3-.4-.6-.4m-.2.3v.4-.4m.4 0c.1.1.3.3.3.5-.1-.2-.2-.4-.3-.5m-1.1.4c0-.1.1-.1.2-.2-.1 0-.2.1-.2.2m.3-1.2c0-.1-.1-.2-.2-.3.1.1.2.1.2.3m-.2-.1c-.1-.1-.2-.1-.4-.1.2.1.3.1.4.1m.4 0c0-.1 0-.2-.1-.3.1.1.1.2.1.3m.5.2c.1-.1.2 0 .4 0-.2-.1-.3-.1-.4 0m.2.3c.2 0 .3.1.4.2v-.1c-.1-.1-.2-.2-.4-.1m-.8.5c0 .2 0 .4-.2.5v.1c.2-.2.2-.4.2-.6m.4-.2c.1.2.2.4.1.6v.1c.1-.3 0-.5-.1-.7m.3 0c.2 0 .3.2.3.4 0-.3-.1-.4-.3-.4m0 .3c0 .1.1.3 0 .4v.1c.1-.2 0-.4 0-.5m-.1-.7c.2 0 .4-.1.6.1v-.1c-.2-.1-.4-.1-.6 0m-.4-.4c0-.2.2-.3.3-.3v-.1c-.1.1-.2.2-.3.4m-.1.1c0-.2-.1-.3-.2-.5v.1c.1.2.2.3.2.4m-.2.1c0-.2-.1-.3-.3-.3v.1c.2 0 .3.1.3.2m-.3 0c-.1-.1-.2-.1-.3-.1v.1c.2-.1.3 0 .3 0m.6.7v.6c.1-.2 0-.5 0-.6m.2-.1c.1.2.1.3.1.5 0-.2 0-.4-.1-.5m.1-.2c.2 0 .3.1.4.2v-.1c-.1-.1-.2-.1-.4-.1m-.4-.4v-.4.4m-.3-.1-.3-.2v.1c.1.1.2.2.3.1m0 .9c-.1 0-.1.1-.2.2 0-.1.1-.1.2-.2m.2.1-.1.3v.1c0-.2.1-.3.1-.4m.5-.9c.1-.1.3-.2.5-.2V16c-.2.1-.4.1-.5.3m-1 0h-.1.1m0 .8-.1.1s0-.1.1-.1m.1 0-.2.1c.1 0 .1 0 .2-.1m.3.1c-.1.1-.2.3-.1.5v-.1c-.1-.2 0-.3.1-.4m.2 0v.5c-.1-.2 0-.4 0-.5m.4-.2c.1.1.2.3.2.5v-.1c0-.2-.1-.3-.2-.4m.1-.1c.2.1.4.3.5.4v-.1c-.2-.1-.3-.3-.5-.3m.1-.3h.2l.2.1c.1 0 .1.1.1.1v.3-.2c0-.1-.1-.1-.1-.1l-.2-.1c-.1-.1-.1-.1-.2-.1m.4.4c0 .1 0 .1.1.2-.1-.1-.1-.2-.1-.2m-.5-.9c.1 0 .2-.1.4-.1v-.1l-.4.2m-.5.1c0-.1 0-.1.1-.2 0-.1.1-.2.1-.2v-.1l-.1.2c0 .1-.1.1-.1.3m-.4 1.1v.3-.3m.2.2v.2-.2m.2-.1c0 .1 0 .1-.1.2.1 0 .1-.1.1-.2m0-.3v.1-.1m-.1 0c.1 0 .1.1 0 0v.1c.1 0 .1-.1 0-.1m-.1 0v.1-.1m-.1 0-.2.2v.1c.1-.1.2-.2.2-.3m-.1 0s-.1 0-.1.1v.1c0-.1 0-.1.1-.2m-.3-.1h-.1v.1c.1 0 .1 0 .1-.1m.7 0v.1c.1 0 .1 0 0-.1m.2 0v.1-.1m0 0c.1 0 .1.1 0 0 .1 0 .1-.1 0 0m.1-.1c.1.1.1 0 0 0m.1-.1.1.1v-.1h-.1m.1-.2h.1v-.1s-.1 0-.1.1m0-.2.1-.1c-.1 0-.1 0-.1.1m-.1-.1v-.1.1c-.1-.1-.1 0 0 0m-.1-.1.1-.2c-.1 0-.1.1-.1.2M43 16v.2-.2m-.3.1c0 .1.1.1.1.1v.1c0-.1 0-.1-.1-.2m-.1.1-.1-.1c0 .1.1.1.1.1m.2.1v-.4.4m.3-.2-.3.2V16v.3m.8.5.2.1v-.1c0-.1-.1-.1-.2 0m-.2.4v.2-.2m-.2-.1v.3-.3m-.1.1-.1.3v.1c.1-.1.1-.2.1-.4m.1.1v.4c.1-.2.1-.3 0-.4.1 0 .1-.1 0 0m-.6 0v.1-.1m.3-.2v.1-.1m.1 0 .1-.1.2-.1.1.2-.1-.2m.1-.2.1.1-.1-.1m-1.1-.4s-.1 0-.1-.1l.1.1m.3-.2.3-.2v.3-.3m.1.4c.1 0 .1-.1.1-.2V16c0 .1-.1.1-.1.3m.1-.1.1-.1-.1.1m.3.1h-.2v.1c.1 0 .1 0 .2-.1m-.1.2c.1 0 .2.1.2.1v-.1h-.2m0 .2c.1 0 .2.1.2.1 0-.1-.1-.2-.2-.1m-.4-.4v-.1.1m-.6-.2.2.2c.1 0 .1.1.2.2v-.1c-.1 0-.1-.1-.1-.1-.2-.2-.2-.2-.3-.2m.1.2-.1-.1.1.1m-.1.7s0 .1-.1.1c.1.1.1 0 .1-.1m.1.1v.3-.3m.3.4V17v.5m.1-.4v.3c.1-.1.1-.2 0-.3m.2 0c.1.1.1.2.1.2-.1-.1-.1-.2-.1-.2m0-.1.1.4v-.1L43 17m.1 0c.1.1.1.2.1.3v-.1c.1-.1 0-.2-.1-.2m.3-.2-.1-.1v.1h.1m-.1-.1h.3v-.1c-.1 0-.2 0-.3.1m.1-.7c-.1.1-.1.2-.1.3v.1c0-.1.1-.2.1-.4m-.3.1c0 .1 0 .2.1.2v-.1l-.1-.1m-.1.1-.1-.1.1.1c-.1 0 0 .1 0 0m-.1.1-.3-.1v.1h.3" fill="#fff"/><path fill="#D9C0B9" stroke="#010101" stroke-width=".033" d="M40.5 17.2s-.2-.3.3-.5c0 0 .1.1.2.1 0 0-.1.1-.4.2l-.1.2z"/><path fill="#5E4019" d="M40.8 16.9c-.1 0-.2.1-.2.2 0-.2.1-.2.2-.2"/><path fill="#D9C0B9" stroke="#010101" stroke-width=".033" d="M40.6 17.2s.2 0 .3-.1c.1-.1.1 0 .2 0 0 0 0-.1-.1-.2 0 0-.1.1-.2.1-.1.1-.2.1-.2.2z"/><path fill="#DCA160" stroke="#010101" stroke-width=".033" d="M43 16.2s-.4.1-.5.1l-.5.1-.3-.1c-.1 0-.4-.1-.5.1l-.2.2-.2.2c0 .1 0 .1.1.1l.2.2c0 .1.2.1.4.1.3 0 .5-.2 1-.1.3 0 .8-.2.9-.3.1-.1.1-.3.1-.4-.2-.2-.5-.2-.5-.2z"/><path fill="#010101" d="M41.2 16.7c0-.1 0-.1.1-.1 0 0 0-.1.1-.1h.4-.4c-.1.1-.1.2-.2.2"/><path d="M41.2 16.7c.1-.1.2-.2.3-.2h.1m-.3 0c-.1.1-.2.1-.2.1m.2 0h.1m-.1 0h.1" fill="none"/><path fill="#010101" d="M41.5 16.7c-.1 0-.1.1-.1.1h-.3.2s.1-.1.2-.1"/><path d="M41.4 16.6c-.1.1-.1.1-.2.1m.1 0 .1-.1m-.1.1c.1 0 0 .1 0 0" fill="none"/><path fill="#C6272D" stroke="#010101" stroke-width=".033" d="M41.6 16.3s0-.1-.1-.2l-.3-.1H41v.1l-.1.2v.1s-.2.1-.2.2l.1.1.1-.1.2-.2.2-.1h.3z"/><path fill="#010101" d="M41.4 16.6c-.1.1-.2.1-.2.1l.2-.1"/><path fill="#5E4019" d="M42.8 17s.1 0 .1-.1"/><path d="M40.9 16.6v-.1s.1 0 0 .1m.2-.2c0-.1 0-.1-.1-.1l.1.1m.1 0v-.1.1m-.2-.2c.1-.1.4-.1.4 0-.1-.1-.3-.1-.4 0" fill="#85231A"/><path d="M41.1 17.1h.1-.1m-.1-.5.1.1.2.1h.1l.1-.1c-.1 0-.1 0-.1.1m-.2-.2c0 .1-.1.1 0 0l-.1.1s.1 0 .1-.1m.1.5h.2-.2m.4 0c.1-.1.2-.1.2-.3 0 .1-.1.2-.2.3m0-.2c.1 0 .1-.1.2-.2 0 .1-.1.1-.2.2m0-.5c.1 0 .1 0 .2.1-.1-.1-.1-.1-.2-.1m1.6.3c.1-.1 0-.2 0-.3v.3m-1.2-.2c.1.1.3.2.2.3.1-.1-.1-.2-.2-.3m.5.5v-.1.1m-1.9-.3v-.1.1m1.2.4.1-.1s-.1 0-.1.1m.2-.1 1.1-.5v.2-.2m-.1.1v.2-.2m-.1.1v.1-.1" fill="#7B2F27"/><path fill="#DCDDDE" stroke="#010101" stroke-width=".016" d="M42 15.9c-.4 0-.8-.3-.8-.3-.5-.1-.6-.6-.6-.6-.2-.1-.4-.6-.4-.6-.3.2-.7 0-.7 0s0-.1-.4 0l-.3-.1s.1-.1-.5 0c-.7.1.1-.2.1-.2-.2.1-.8.1-.8.1-.2 0-.5.1-.7.2-.2 0-.4.1-.6.2-.4.2-1.1.5-1.7.7-.8.3-1.4.5-1.4.5s.9-.5 1.9-1c.9-.4 2-.8 2.6-1 .7-.2 1.3-.1 1.6 0 .2.1 1 0 1.4 0 .4 0 .4.7.4.7.1 0 .1.7.1.7.3 0 .7.4.7.4h.2l.2-.2c.1 0 .2-.1.4-.1h.5c.1 0 .3 0 .5.1.2 0 .2 0 .3.1h.1c.3-.1.7-.3.9-.3 0 0 .2 0 .3-.1l.3-.3s-.2-1.1 1-1c1.1.1 2.6.2 2.9.3.3 0 1.4.3 1.6.5.3.1 1 .4 1.3.6.1.1.6.3 1 .4.6.2 1 .6 1 .6l-.9-.4c-.2-.1-.5-.1-.6-.2-.4-.2-.7-.3-.9-.4-.9-.4-.9-.4-1.2-.4-.2 0 .2.3.2.3s-.8-.3-1-.4c-.3-.1-.5-.2-.7-.1-.2 0-.4 0-.6-.1-.1 0-.9-.1-1.1-.1h-.3l.1.1-.4-.1-.1.2s-.4.1-.4 0l-.3.8c-.1.2-.5.1-.7.3-.1.1-.4.2-.4.2h-.9c-.1 0-.3-.1-.3-.1H43l-.4.1c-.1 0-.3.2-.3.2"/><path fill="#462D26" d="m42 15.8-.1.1v.1"/><path fill="#58504D" d="m44.2 15.7.2.1c-.1-.1-.2-.1-.2-.1"/></svg>
