<svg xmlns="http://www.w3.org/2000/svg" width="87" height="57"><path fill="#010101" d="M0 0h87v58H0z"/><path fill="#fff" d="M0 0h87v38.7H0z"/><path fill="#CE2028" d="M0 0h87v19.3H0z"/><path fill="#fff" stroke="#BE942D" stroke-width=".123" stroke-linejoin="round" d="m43.6 29.2 6.6 6.1-.5-11.2c-.1-1.7-1.5-1.3-2.6-.7-1.1.7-2.3.7-3.6.2-1.3.5-2.5.5-3.6-.2-1.1-.6-2.5-1-2.6.7l-.5 11.2 6.8-6.1z"/><path fill="#BE942D" d="m38 23.8-.5 10.9-.8.7.5-11.2c.3-.1.7-.4.8-.4zm1 .8-.4 9.1-.8.8.5-10.5.7.6zm.8.7-.3 7.6-.6.6.4-8.6.5.4zm.9.4-.3 6.5-.6.5.3-7.2c.2 0 .5.2.6.2zm.9 0-.2 5.4-.6.6.2-5.9c.1 0 .5 0 .6-.1zm7.4-1.9.5 10.9.8.7-.5-11.2c-.3-.1-.7-.4-.8-.4zm-1 .8.4 9.1.8.8-.5-10.5-.7.6zm-.8.7.3 7.6.6.6-.4-8.6-.5.4zm-.9.4.3 6.5.6.5-.3-7.2c-.2 0-.5.2-.6.2zm-.9 0 .2 5.4.6.6-.2-5.9c-.1 0-.5 0-.6-.1z"/><path fill="#BE942D" stroke="#BE942D" stroke-width=".104" d="m43.8 30.5.9 4.2-.3.3-.3-.2-.5-3.8.2 3.8-.3.4-.3-.4.2-3.8-.5 3.8-.3.2-.3-.3.9-4.2h.6z"/><g stroke="#BE942D" stroke-linejoin="round"><path fill="#fff" d="m41.4 28.6-1.8 6.5 2.5.4 1.1-4.9-1.8-2z"/><path d="m40.8 30.8.2.5 1.2-1.1m-.6-.7.3 2.4.8-1m-.4.3.4 1.4m.2-.5-.8 1.3m.2 1.3-.3-1.3-.2-1.3-.6.8-.2-.9-.8.8.4 1.5.6-.9.3.9.6-.9m-2 1.6.5-.7.3 1.1.5-.8.3.9" fill="none"/></g><g stroke="#BE942D" stroke-linejoin="round"><path fill="#fff" d="m854.4 28.6-1.8 6.5 2.5.4 1.1-4.9-1.8-2z"/><path d="m853.8 30.8.2.6 1.2-1.1m-.6-.8.3 2.4.8-1m-.4.3.4 1.4m.2-.5-.8 1.3m.2 1.3-.3-1.3-.2-1.3-.6.8-.2-.9-.8.8.4 1.5.6-.9.3.9.6-.9m-2 1.6.5-.7.4 1.1.5-.8.3.9" fill="none"/></g><path fill="#fff" stroke="#BE942D" stroke-width=".23" stroke-linecap="round" stroke-linejoin="round" d="M43.5 38.1c1.9 0 3.8-.2 4.9-.5.5-.1.5-.3.5-.6.5-.2.2-.7.5-.7-.3.1-.4-.5-.8-.5 0-.5-.5-.6-1-.5-.9.3-2.5.4-4.1.4-1.5-.1-3.1-.1-4.1-.4-.5-.2-1-.1-1 .5-.4-.1-.5.5-.8.5.3 0 .1.5.5.7 0 .3 0 .5.5.6 1.1.3 3 .5 4.9.5z"/><path fill="#fff" stroke="#BE942D" stroke-width=".123" stroke-linecap="round" stroke-linejoin="round" d="M40.9 35.1c.6.1 1.3.2 1.9.1.3 0 .5.5-.1.6-.5.1-1.4 0-1.8-.1-.4-.1-1.2-.2-1.8-.4-.5-.2-.2-.7.2-.6.4.2 1 .4 1.6.4zm5.2 0c-.6.1-1.3.2-1.8.1-.3 0-.5.5.1.6.5.1 1.4 0 1.8-.1.4-.1 1.2-.2 1.8-.4.5-.2.2-.7-.2-.6-.5.2-1.1.4-1.7.4zm-7.1-.3c-.5-.1-.7.5-.5.8.1-.2.4-.2.5-.3 0-.2-.2-.2 0-.5zm1.8 1.5.3-.6c0-.2-.1-.4-.2-.4-.2 0-.3.2-.3.3-.1.3.2.4.2.7zm2.2-.9c.5 0 .4.6.2.9l-.4-.5c0-.2.4-.2.2-.4zm5-.6c.5-.1.7.5.5.8-.1-.2-.4-.2-.5-.3 0-.2.2-.2 0-.5zm-1.8 1.5-.3-.6c0-.2.1-.4.2-.4.2 0 .3.2.3.3.1.3-.2.4-.2.7zm-2.2-.9c-.5 0-.4.6-.2.9l.4-.5c0-.2-.4-.2-.2-.4z"/><path d="M39.1 35c.2 0 .4.1.5.2l-.5-.2zm.8.2c.1 0 .4.1.5.2l-.5-.2zm2.8.3c-.2 0-.5 0-.5.1l.5-.1zm-.9 0c-.1-.1-.4-.1-.5 0h.5zm6.1-.5c-.2 0-.4.1-.5.2l.5-.2zm-.8.2c-.1 0-.4.1-.5.2l.5-.2zm-2.8.3c.2 0 .5 0 .5.1l-.5-.1zm.9 0c.1-.1.4-.1.5 0h-.5z" fill="#fff" stroke="#BE942D" stroke-width=".086" stroke-linecap="round" stroke-linejoin="round"/><path d="M39 36.2V36l.1.1s0 .1-.1.1zm5.3.4v-.2h.1v.1c0 .1-.1.1-.1.1zm0 .2c-.1-.1-.1-.1 0-.2 0 0 .1 0 .1.1.1.1 0 .1-.1.1zm-4.9-1h-.1c-.1 0-.1.1-.2 0-.1 0-.1 0-.1.1s.1.1.2.1c0-.1.1-.1.2 0 0 .1 0 .2-.1.2v.1h-.1c-.1 0-.1 0-.2.1l-.1.2c0 .1.1.1.2.1s.1 0 .2.1l.3.1.5.1c.1 0 .1-.1.1-.1l.1-.3v-.1s-.1.1-.2.1v.3h-.2c-.1 0-.2 0-.1-.1v-.4c0-.1-.1 0-.1 0s-.2 0-.1.1c.1 0 0 .1 0 .2l-.1.1c-.1 0-.1 0-.1-.1v-.2c0-.1 0-.1.1-.2 0-.1 0-.1.1-.2-.2-.2-.1-.2-.2-.3zm-.3.7zm-.1.5v-.1h.1c.1 0 .1.1 0 .1H39zm.3.1-.1-.1h.1c.1 0 .1 0 .1.1 0-.1 0-.1-.1 0zm8.6 0V37h.1v.1h-.1zm-8.2.1c-.1 0-.1-.1 0 0-.1-.1-.1-.1 0-.1h.2c.1 0 .1.1 0 .1h-.2zm2.1.1v-1s0-.1.1-.1c0 .1.1.1.1.1v.9l-.2.1zm2.8-1-.1.1c-.1 0 0 .1.1.1v.4l-.1.1-.1.1v.3h.7c.1 0 .1 0 .1-.1v-.4c0-.1-.1-.1-.1 0 0 0-.1 0-.1.1l.1.1v.1c0 .1-.1.1-.1.1h-.2v-.7c-.1-.2-.1-.3-.2-.3zm0 .8c0 .1-.1.1 0 0zm-2.9-.9-.1.1c-.1 0-.1.1 0 .1v.9c0 .1-.1.1-.1 0v-.1c0-.1 0-.1-.1-.1l-.1-.1h.1c.1 0 .1-.1 0-.2l-.1-.2c0-.1 0-.2-.1-.2s-.2.1-.2.2h-.1c-.1 0-.2.1-.1.2.1 0 .2.1.1.1 0 .1-.1.1-.2.1s-.1 0-.1-.1v-.2c0-.1-.1-.1-.1 0-.1.1-.1.1 0 .2v.2c0 .1-.1.1-.2.1 0 0-.2 0-.1.1h.2l.2-.1c.1-.1.1 0 .2 0s.2.1.2 0l.1-.1c0 .1.1.1.1.1.1 0 .1.1.1.1l.1.2h.1c.1 0 .2-.1.2-.1 0-.1 0-.1.1-.2v-.6c-.1-.2-.1-.3-.1-.4zm-.7.4c0 .1 0 .1.1.1h-.2s.1 0 .1-.1zm6.4-.7h-.2c-.1 0-.2.1-.1.2h.2s.2.2.2.3c0 .1 0 .2.1.3.1.1-.1.2-.1.1-.1-.1-.2-.1-.3-.1l-.2.2c-.1 0-.1-.1-.2-.2s-.2-.1-.3-.1c0-.1 0-.2-.1-.3-.1 0-.2.2-.1.2.1.1 0 .1-.1.2s-.1.2-.1.3c-.1.1-.1-.1-.2-.2 0-.1-.1-.1-.2 0-.1 0-.1.1-.2.2v.2c0 .1.1 0 .2 0l.1.1-.2.1h.2c.1 0 .2-.1.2-.2l.2-.1c.1 0 .2 0 .2.1.1.1.2.2.3.1.1 0 .1-.1.1-.2s.1-.1.2 0 .2.1.3 0c.1-.1.1-.2.2-.2.2-.1.4-.1.5-.1.1 0 0-.1-.1-.2l-.3.1c-.1-.1-.1-.2-.1-.3 0-.1 0-.3-.1-.4.2-.1.1-.1 0-.1zm-.6.9c.1 0 .1.1.1.1h-.1c-.1 0-.1 0 0-.1zm.6 0c.1.1.1.1 0 .1s-.1 0 0-.1zm-.9 0c.1 0 .1.1 0 0l.1.1h-.1v-.1zm-.5.2c0 .1-.1.1-.1.1s0-.1.1-.1zm.9.1zm-1.7.4c.1-.1.2-.1.2-.2v-.2s0-.1-.1-.1c0 0-.1 0-.1-.1v-.1s0-.1.1-.1h.1v.1l.1.1v.4l-.1.1-.1.1h-.1zm-.6.1c-.1 0-.1-.1 0 0v-.1h.4v.2h-.1s-.1 0-.1-.1h-.2zm-2-.9c-.1 0-.1.1-.1.1 0 .1.1.1 0 .2 0 .1-.1.1-.1.1l-.1-.3-.2.1.1.2c0 .1 0 .2-.1.2l-.2.1c-.1.1.1.1.1.1.1 0 .2 0 .3-.1l.2-.2h.5c.1 0 .2 0 .3.1 0 .1.1.2.2.2 0 0 .1 0 .1-.1.1 0 .1-.1.1-.2h.5l.1-.1v-.2c0-.1 0-.2-.1-.2l-.2.1c-.1 0-.2.1-.2.2-.1.1-.1 0-.1-.1v-.1c0-.1-.1 0-.2 0h-.6c-.2.1-.2 0-.3-.1zm.2.4h.6v.3h-.1v-.1h-.6c0-.2 0-.2.1-.2zm1.1 0c.1 0 .1.1 0 0v.1-.1z" fill="#BE942D"/><path fill="#fff" stroke="#BE942D" stroke-width=".111" d="M43.5 31.6c3.2-2.4 2.9-6 2.9-6h-.2c-.7 0-2.2-.4-2.6-.9-.4.4-2 .9-2.7.9h-.2c-.1.1-.4 3.6 2.8 6z"/><path fill="#fff" stroke="#BE942D" stroke-width=".089" d="M46.1 25.9c-.7 0-2.1-.3-2.6-.8-.6.4-2 .8-2.6.8h-.1v.4c0 .5.1.9.2 1.4.4 1.4 1.2 2.7 2.4 3.6 1.2-.9 2-2.2 2.4-3.6.1-.5.2-.9.2-1.4.1-.1.1-.3.1-.4z"/><path fill="#BE942D" d="M42.5 25.6c-.6.2-1.2.3-1.5.3h-.1v.4c0 .5.1.9.2 1.4.3 1 .7 1.8 1.4 2.6v-4.7zm2 0v4.8c.7-.8 1.1-1.7 1.4-2.7.1-.5.2-.9.2-1.4v-.4H46c-.3 0-1-.1-1.5-.3z"/><path fill="#fff" stroke="#BE942D" stroke-width=".118" d="M44.7 24.5c.1 0-.1-.3-.1-.3.2.2.8.2.8.2-.4-.2-.8-1.5-.7-2.5 0-1-.1-1.4-.3-1.6-.2-.2-.8-.4-1.2-.4-.3 0-.2.1-.2.1-.4-.1-.9-.2-1 0-.2.1-.2.7-.1.6.3-.3.6 0 .8.3.2.2.2.9-.1 1.8-.3.9-1 1.7-1 1.7.4 0 .9-.3.9-.3l-.1.5c.4-.2.7-.5.7-.5l.4.4c.1-.2.4-.4.4-.4s.3.3.8.4z"/><path stroke="#BE942D" stroke-width=".123" d="M43.1 22s-.2 1.6-.6 2m1-2s-.1 1.6-.4 2.1m.7-2.1s0 1.8.1 2.1m.3-2s.1 1.5.5 2" fill="none"/><path fill="#BE942D" stroke="#BE942D" stroke-width=".034" d="M42.7 21.2c0-.1-.1-.3-.1-.3-.2-.3-.5-.5-.8-.3 0 0 .1-.3.3-.4.2 0 .6.1 1 .8 0 0-.3-.1-.3 0l-.1.2zm-.9-1c0-.1.1-.2.1-.2.2-.1.6-.1 1 0 0 0 0-.2.2-.2.4 0 1 .2 1.2.4 0 0 .1.1.1.2-.1-.1-.4-.1-.4-.1h-.3c-.1 0-.2 0-.2.1l-.1.2c-.1 0-.1 0-.1-.1l-.1-.1c-.1 0-.3-.1-.5-.2-.2-.2-.3-.2-.6-.2-.2.1-.3.2-.3.2z"/><circle fill="#fff" cx="43.4" cy="20.4" r=".1"/></svg>
