<svg xmlns="http://www.w3.org/2000/svg" width="87" height="57"><path fill="#264DA1" d="M-8.7-1.6h104V57h-104z"/><path fill="#fff" d="M-8.7 17.9h104v19.5h-104z"/><path d="M43.2 32.9c.1 0 .3 0 1-.2s1.2-.6 1.4-.6c.1-.1.3 0 .3 0-.1-.1-.3-.3-.6-.3s-.2 0-.4.1c-.3.1-.8.4-1.7.4-.9 0-1.4-.3-1.7-.4-.3-.1-.1-.1-.4-.1-.3 0-.5.2-.6.3h.3c.1.1.7.5 1.4.6.7.2.9.2 1 .2zm-2.6-.6c.1 0 0-.2 0-.2l.3-.1c-.1-.1-.3 0-.3 0l-.1.1v.1l.1.1zm.3-.2-.3.1s.1.1 0 .2l.5-.1c0-.1-.1-.1-.2-.2zm5 .2c-.1 0 0-.2 0-.2l-.3-.1c.1-.1.3 0 .3 0l.1.1v.1l-.1.1zm-.3-.2.3.1s-.1.1 0 .2l-.5-.1c0-.1.1-.1.2-.2z" fill="#fff" stroke="#010101" stroke-width=".03"/><path d="m41.4 31.9-.1.3h.1c.1 0 .2 0 .2-.1l-.2-.2zm0 .1c.1 0 .1.1.1.2s-.1.1-.2 0l.1-.2zm.1.3.1-.3h.1l-.2.3zm.3-.2c-.1 0-.1 0-.1.1s0 .2.1.2.2 0 .2-.1l-.2-.2zm0 .1c.1 0 .1.1.1.2l-.1.1c-.1-.1-.1-.2 0-.3zm.4.1v.2c0 .1-.1.1-.1.1l-.1-.1v.1h.1c0-.2 0-.2.1-.3l-.1.1v-.1c-.1-.1 0-.1.1 0zm.2 0-.1.2v.1c.1 0 .1 0 .1-.1l.1-.2-.1.2c0 .1-.1.1-.1.1-.1 0-.1-.1-.1-.1l.2-.2zm.4.5-.2-.3v.2l.1-.3.2.3v-.2l-.1.3zm.1 0v-.3.3zm.3-.3c-.1 0-.2.1-.2.2s.1.2.2.2.2-.1.2-.2c-.1-.2-.1-.2-.2-.2zm0 0c.1 0 .1.1.1.1 0 .1-.1.1-.1.1-.1 0-.1-.1-.1-.1s0-.1.1-.1zm.4.3-.2-.2v.2-.3l.2.3-.1-.3.1.3zm.2-.1-.1-.3.1.3.1-.1-.1.1zm.2 0-.1-.3.1.3zm.1-.4v.3h.1c.1 0 .1-.1.1-.1s0-.1-.1-.1l-.1-.1c.1.1.1 0 0 0zm0 .1zm.1.1v.1-.1zm.2-.1-.1.1v.1h.1l-.2.1-.1-.3.2-.1.1.1h-.1v.1l.1-.1zm.2-.2h-.1l.1.3v-.1l.1.1-.1-.1c0-.1.1-.1 0-.2zm0 0c.1.1 0 .1 0 .1v-.1zm0-.1.2-.1h-.1l.1.3-.2-.2zm.3-.1v.4-.1l.1-.1.1.1-.2-.3zm.1.1v.1-.1zm.2-.2-.1.1.2.3c.1-.1.1-.1.1-.2-.1-.2-.1-.2-.2-.2zm0 0c.1.1.1.2 0 .2l-.1-.1.1-.1z" fill="#010101"/><g stroke="#010101" stroke-miterlimit="2.613"><path d="M40.3 33.1c.1 0 .1-.1 0 0 .1-.1.1-.2 0-.2 0 0-.1 0 0 .2zm-.5.6c.1 0 .1-.1 0 0 .1-.1.1-.2 0-.2 0 0-.1.1 0 .2zm-1.1-2c.1-.1 0-.2 0-.2-.1.1-.1.1 0 .2zm-.8.4c.1-.1.1-.2 0-.2 0 0-.1.1 0 .2zm-.1-2.2c.1-.1.1-.2 0-.2 0 0-.1.1 0 .2zm-.6.2c.1-.2.1-.2 0-.2s-.1.1 0 .2zm.3-1.9c.1 0 .1-.1 0 0 .1-.2.1-.2 0-.2 0 0-.1 0 0 .2zm-.5-1.8c.1-.1.1-.2 0-.2s-.1 0 0 .2c-.1-.1-.1 0 0 0zm.7.2c.1-.1.1-.2 0-.2s-.1 0 0 .2c-.1-.1-.1 0 0 0zm.6-1.5c.1 0 .1-.1 0 0 .1-.1.1-.2 0-.2 0 0-.1 0 0 .2zm-.5-.4c.1 0 .1-.1 0 0 .1-.1.1-.2 0-.2 0 0-.1 0 0 .2zm1.1-1c.1-.2.1-.2 0-.2s-.1 0 0 .2c-.1-.1-.1 0 0 0zm-2.2 4.5c.1 0 .1-.1 0 0 .1-.1.1-.2 0-.2v.2z" fill="#E41E26"/><path d="M40.4 33.4s-.1-.3-.1-.4l.1-.1m-.1.7h-.4v.1m-1.3-1.5s0-.4.1-.4c0 0 .1 0 .1-.1m-.5.3H38s0 .1-.1.1m0-2.2c-.1.1-.3.4-.3.4s-.2-.2-.3-.2h-.1m-.5-2s.1.1.1 0c0 0 .3.2.3.3 0 0 .3-.3.4-.3h.1m-.6-1.8c.1.1.2.3.2.4l.3-.2h.1m.1-1.9s.1.1.1 0c0 0 .2.2.1.4 0 0 .3-.1.3 0 0 0 0 .1.1 0" fill="none"/><path d="M45 35.3h-.4l-.3-.3c-.1 0-1.1-.5-1.7-.6-.6-.1-1.6-.5-1.9-.6-1.1-.5-2.3-1.5-2.5-1.9-.3-.4-.6-1.4-.7-1.9-.1-.2-.4-1.2-.4-1.9 0-.8.1-1.4.2-1.9s1-2 1.5-2.6c0 0-1.2 1.8-1.4 2.5-.2.7-.3 1.6-.3 2.1 0 .4.4 1.9.9 3 .4.9.7 1 1.4 1.5.3.2.9.6 1.3.8l1.7.6c.3 0 1.6.4 1.8.5.2.2.7.6.8.7zm-6.7-3.4c0-.1 0-.2.1-.3 0 0 .2-.2.2-.3v-.6l-.1-.3c-.1 0-.2-.3-.2-.3v.2l-.1.3v.4c0 .1-.1.2 0 .3 0 .2.1.6.1.6zm-.1-.1s-.3-.4-.3-.6c0-.2 0-.3-.1-.3s-.2-.3 0-.5c.1-.1.1-.1.1-.2l.2-.3s0 .2.1.4v.9c0-.2-.1.4 0 .6zm3.8 2.3h-.4c-.1 0-.3-.1-.3-.1-.1 0-.3-.1-.4-.3-.3-.3-.2-.4-.3-.5h.3c.1 0 .3.1.4.2.1.1.3.2.3.3l.2.1c0 .1 0 .1.2.3zm.4.2s-.7-.3-.8-.4l-.3-.3c-.1-.1-.4-.2-.4-.3 0-.1-.2-.3-.3-.5-.1-.1.5 0 .5 0 .4.2.2.1.5.2l.3.3c.1.1.1.3.2.5 0 .1.1.3.3.5zm.4.1s-.6-.2-.9-.5c-.2-.3-.2-.2-.3-.3-.1-.1-.3-.2-.4-.4l-.2-.6s.2 0 .4.1l.4.3c.2.1.2.4.3.5.1.2.1.3.1.3l.1.3c.1 0 .3 0 .5.3zm-1-.2s-.5-.2-.6-.2l-.2-.1c-.1 0-.2-.1-.4 0-.1 0-.5.1-.5.1-.1 0 .1.3.2.3.1.1.3.1.4.1h.6c.3-.2.3-.2.5-.2zm.4 0s-.6-.1-.7-.1h-1c-.1 0-.5.1-.7.1-.1 0 .2.3.4.4.5.1.3.1.6 0 .2 0 .4-.1.5-.1l.2-.1c.2-.1.4-.2.7-.2zm.4.2s-.6-.2-1-.1c-.3.1-.3.1-.4.1-.1 0-.3-.1-.5 0l-.7.2c-.1 0 .4.3.5.3.4-.1.9.1 1.1 0 .2-.1.3-.1.4-.2.1 0 .1-.1.2-.2.1.1.1 0 .4-.1zm-3-1.3s-.3-.4-.4-.4l-.3-.2c-.1-.1-.1-.2-.3-.2l-.4-.1c-.1-.1 0 .3.1.4.1.1.2.2.4.3.1.1.3.2.4.2l.2.1c.1-.2.1-.2.3-.1zm.3.2s-.5-.4-.6-.4l-.3-.1-.5-.2c-.1 0-.3 0-.4-.1-.1-.1 0 .3.1.4l.4.3c.2 0 .4.1.5.2h.2c.1-.2.4-.2.6-.1zm.2.1s-.2-.1-.7-.2c-.3-.1-.3-.1-.4-.1-.1 0-.2 0-.4-.1l-.7.1c-.1-.1.1.1.3.2l.4.3c.2.1.5.2.6.1l.3-.1c.1 0 .3-.2.6-.2zm0-.1s.1-.5 0-.7c0-.1-.1-.1-.1-.3 0-.1-.1-.4-.2-.4-.1-.1-.2-.4-.1-.5 0 0-.3.3-.3.5v.2l.1.5.1.4c.1.1.5.3.5.3zm0 .1s-.2-.2-.3-.2c-.1 0-.5-.2-.5-.3 0-.1-.4-.5-.4-.5l-.1-.3c0-.1 0-.3.1-.4 0-.1.1-.4.3-.4 0 0 .1.3.1.4l.1.3.2.4.1.5c0 .1.3.4.4.5zm-1.8-1.5c0 .1-.2-.1-.3-.1h-.6c-.1-.1-.2-.3-.3-.3 0 0-.2-.3-.3-.4 0-.1-.4-.4-.4-.4s.4-.1.7.1l.3.2c.1 0 .5.4.5.6.2 0 .4.2.4.3zm0 0s-.4-.3-.5-.3c-.1 0-.5-.3-.5-.5 0-.1-.2-.2-.3-.3-.1-.2-.2-.6-.3-.7 0 0 .4.1.5.1.2 0 .4.1.4.2.1.2.1.3.2.3l.2.4c0 .4.3.8.3.8zm-.7-2c.1.1.1-.6.1-.7 0-.1.1-.2.2-.3.1-.1.1-.3.1-.3V28l-.2.2c-.1.1-.2.1-.2.2l-.1.2c0 .1-.1.2-.1.4v.3c-.1 0 .1.5.2.6zm0 .1v-.3c.1-.1.1-.1.2-.1v-.2c0-.1.1-.2.1-.2 0-.2.1-.3 0-.5l-.2.1s-.2.1-.2.3c0 .1 0 .1-.1.2 0 .1-.1.3 0 .4.2.1.2.3.2.3zm-.5-2.3s0-.4.1-.6c.1-.1.1-.4.4-.5v.6l-.2.3c0 .1-.1.2-.2.2h-.1zm0 .3s0-.3.1-.4l.2-.2c0-.1.1-.2.2-.3.1-.1.3-.2.3-.3 0 0 0 .4-.1.6-.1.2-.1.3-.2.3l-.2.1s-.1.1-.2.1l-.1.1zm.4 2c0 .1.1-.2-.2-.2s-.6-.1-.7-.2l-.2-.2s-.2-.2-.2-.3l-.1-.5s.2 0 .2.1c.1.1.2.1.3.1l.2.2s.2 0 .2.1c.1.1.2.3.2.4 0 .1.1.2.2.2s.1.2.1.3zm-.1-.2s-.2-.3-.3-.3c-.1 0-.4-.3-.4-.4 0-.1-.1-.3-.2-.4-.1 0-.2-.1-.1-.3v-.5l.1.2c.1 0 .3.1.3.2l.2.2c0 .2 0 .2.1.2 0 .1.1.1.1.3.1.2.3.5.2.8zm-.3-1.6c0 .1.1-.2-.2-.2-.3-.1-.5-.3-.5-.4-.1-.1-.1-.2-.1-.3l-.1-.3c0-.1 0-.4.1-.5 0 0 .1.1.2.1.1.1.2.1.2.2.1.1.1.2.1.2 0 .1.1.1.2.2l.1.4.1.3-.1.3zm0-.1s-.1-.3-.2-.3-.2-.3-.3-.4c0-.1 0-.3-.1-.4 0-.1-.1-.2-.1-.4l.2-.4s.1.1.1.2c.1.2.2.2.2.2l.1.2v.2c0 .1.1.1.1.3.1.2.2.5 0 .8zm.3-1.8s.1-.1.2-.1l.3-.3c.1-.1.1-.2.2-.2.1-.1.1-.2.2-.4l-.3.1c-.1 0-.2.1-.3.2-.1.1-.1.2-.2.2s-.1.2-.1.3v.2zm0-.1v-.3c0-.1-.1-.3.1-.5.1-.1.4-.4.5-.4 0 0 .1.2 0 .3 0 .1-.1.4-.2.4-.1.1-.2.4-.4.5zm-.1.1c0 .1 0-.2-.1-.3-.1-.1-.1-.2-.1-.3v-.3l.2-.5s.1.3.2.4v.3c0 .1.1.3 0 .3 0 .2-.2.3-.2.4zm.8-1.5h.1s.3 0 .4-.1c.1-.1.2-.1.2-.2.1 0 .2-.2.2-.2 0-.1.1-.2.2-.2h-.3c-.2 0-.4.1-.5.3-.1.1-.3.4-.3.4zm0 0c0 .1.3-.1.3-.2.1-.1.1-.2.1-.2s.1-.2.2-.2c.1-.2.1-.5 0-.4 0 0-.2.1-.3.1 0 0-.1 0-.2.1 0 .1-.1.2-.1.2.1.1-.1.2 0 .6zm-.1 0s.2-.1.3-.2l.1-.3.1-.3c0-.1-.1-.3-.1-.3l-.2.2c-.1.1-.1.1-.1.2l-.1.2v.5z" fill="#246130"/><path d="M41.3 34.1s-1 0-1.1-.1m1.6.2s-.6.2-1 .1h-.6c-.1 0-.4-.1-.4-.1m2.7.2s-.5.1-.6.1c-.1 0-.6.2-.8.2H40m.6-1.5s.4.2.4.3c.1.1.4.3.4.3m-.8-1s.6.5.7.6l.8.8m-.9-1.6s.5.4.6.6l.2.4s.2.4.3.5c.1.1.2.2.4.3m-4.4-2.2s.5.4.7.5m-.9-.2s.5.4.8.5c.2.1.4.2.9.2m.2.2h-.7l-.7-.1c-.1 0-.6-.1-.6-.1m1.1-1.8v.5c0 .1.3.5.2.6 0 .1.1.5.2.6m.2-1.7s-.1.3-.1.4l.1.4.1.4c0 .1 0 .3.1.4l.2.2m-3.5-2.5s.5.2.5.3l.2.2m1-1s.1.5.1.6v.4l-.1.5m-.2-1.9s0 .3-.1.4v.4c0 .1-.1.5 0 .6m-1.2-1s.4.3.5.4c.1.1.5.5.5.6 0 .1.3.4.4.5m-2-3.1s.4.4.4.5c0 .1.2.2.3.3m1-.6s-.1.2-.1.3c0 .1-.1.3-.1.3 0 .1-.2.3-.1.4m.2-1.7s-.1.2-.1.4l-.1.4c0 .1-.1.5-.1.8m-1-1.6s0 .2.1.3l.3.3c0 .1.1.5.3.7.1.1.2.3.2.3m-1.1-3.1s0 .3.1.3c0 .1.1.4.3.5m.9-.7s-.1.2-.1.3c0 .1-.1.2-.1.2l-.1.2m.6-.5c0 .1-.2.4-.2.4s-.1.3-.2.3c-.1.1-.4.3-.3.3m-.5-1.6v.4l.2.4v.3l.1.4m1.2-2.5-.3.3c-.1.1-.5.5-.5.6m.5-1.1s-.2.5-.3.5c0 .1-.1.2-.1.2m-.1-.7v.7s0 .4-.1.4m1.8-2s-.5.3-.5.4m.2-.8-.3.5-.1.1m0-.6s-.1.3-.1.4l-.2.5m.7-1.1s0 .1.1.1" fill="none"/></g><path d="M46.2 33.1c-.1 0-.1-.1 0 0-.1-.1-.1-.2 0-.2 0 0 .1 0 0 .2zm.5.6c-.1 0-.1-.1 0 0-.1-.1-.1-.2 0-.2 0 0 .1.1 0 .2zm1.1-2c-.1-.1 0-.2 0-.2.1.1.1.1 0 .2zm.8.4c-.1-.1-.1-.2 0-.2 0 0 .1.1 0 .2zm.1-2.2c-.1-.1-.1-.2 0-.2 0 0 .1.1 0 .2zm.6.2c-.1-.2-.1-.2 0-.2s.1.1 0 .2zm-.3-1.9c-.1 0-.1-.1 0 0-.1-.2-.1-.2 0-.2 0 0 .1 0 0 .2zm.5-1.8c-.1-.1-.1-.2 0-.2s.1 0 0 .2c.1-.1.1 0 0 0zm-.7.2c-.1-.1-.1-.2 0-.2s.1 0 0 .2c.1-.1.1 0 0 0zm-.6-1.5c-.1 0-.1-.1 0 0-.1-.1-.1-.2 0-.2 0 0 .1 0 0 .2zm.5-.4c-.1 0-.1-.1 0 0-.1-.1-.1-.2 0-.2 0 0 .1 0 0 .2zm-1-1c-.1 0-.1-.1 0 0-.1-.2-.1-.2 0-.2v.2zm2.1 4.5c-.1 0-.1-.1 0 0-.1-.1-.1-.2 0-.2v.2z" fill="#E41E26" stroke="#010101" stroke-width=".013" stroke-miterlimit="2.613"/><path d="M46.1 33.4s.1-.3.1-.4h-.1m.1.6h.4v.1m1.3-1.5s0-.4-.1-.4c0 0-.1 0-.1-.1m.5.3h.3s0 .1.1.1m0-2.2c.1.1.3.4.3.4s.2-.2.3-.2h.1m.5-2s-.1.1-.1 0c0 0-.3.2-.3.3 0 0-.3-.3-.4-.3h-.1m.6-1.8c-.1.1-.2.3-.2.4l-.3-.2h-.1m-.1-1.9s-.1.1-.1 0c0 0-.2.2-.1.4 0 0-.3-.1-.3 0 0 0 0 .1-.1 0" stroke="#010101" stroke-width=".025" stroke-miterlimit="2.613" fill="none"/><path d="M41.5 35.3h.4l.3-.3c.1 0 1.1-.5 1.7-.6.6-.1 1.6-.5 1.9-.6 1.1-.5 2.3-1.5 2.5-1.9.3-.4.6-1.4.7-1.9.1-.2.4-1.2.4-1.9 0-.8-.1-1.4-.2-1.9s-1-2-1.5-2.6c0 0 1.2 1.8 1.4 2.5.2.7.3 1.6.3 2.1 0 .4-.4 1.9-.9 3-.4.9-.7 1-1.4 1.5-.3.2-.9.6-1.3.8l-1.7.6c-.3 0-1.6.4-1.8.5-.2.2-.7.6-.8.7zm6.7-3.4c0-.1 0-.2-.1-.3 0 0-.2-.2-.2-.3v-.6l.1-.3c.1 0 .2-.3.2-.3v.2l.1.3v.4c0 .1.1.2 0 .3.1.2-.1.6-.1.6zm.1-.1s.3-.4.3-.6c0-.2 0-.3.1-.3 0 0 .2-.3 0-.5-.1-.1-.1-.1-.1-.2l-.2-.3s0 .2-.1.4v.9c0-.2.1.4 0 .6zm-3.8 2.3h.4c.1 0 .3-.1.3-.1.1 0 .3-.1.4-.3.3-.3.2-.4.3-.5h-.3c-.1 0-.3.1-.4.2-.1.1-.3.2-.3.3l-.2.1c0 .1 0 .1-.2.3zm-.4.2s.7-.3.8-.4l.3-.3c.1-.1.4-.2.4-.3 0-.1.2-.3.3-.5.1-.1-.5 0-.5 0-.4.2-.2.1-.4.3l-.3.3c-.1.1-.1.3-.2.5-.1 0-.2.2-.4.4zm-.4.1s.6-.2.9-.5c.2-.3.2-.2.3-.3.1-.1.3-.2.4-.4l.2-.6s-.2 0-.4.1l-.4.3c-.2.1-.2.4-.3.5-.1.2-.1.3-.1.3l-.1.3c-.1 0-.3 0-.5.3zm1-.2s.5-.2.6-.2l.2-.1c.1 0 .2-.1.4 0 .1 0 .5.1.5.1.1 0-.1.3-.2.3-.1.1-.3.1-.4.1h-.6c-.3-.2-.3-.2-.5-.2zm-.4 0s.6-.1.7-.1h1c.1 0 .5.1.7.1.1 0-.2.3-.4.4-.5.1-.3.1-.6 0-.2 0-.4-.1-.5-.1l-.2-.1c-.2-.1-.4-.2-.7-.2zm-.4.2s.6-.2 1-.1c.3.1.3.1.4.1.1 0 .3-.1.5 0l.7.2c.1 0-.4.3-.5.3-.4-.1-.9.1-1.1 0-.2-.1-.3-.1-.4-.2-.1 0-.1-.1-.2-.2-.1.1-.1 0-.4-.1zm3-1.3s.3-.4.4-.4l.3-.2c.1-.1.1-.2.3-.2l.4-.1c.1-.1 0 .3-.1.4-.1.1-.2.2-.4.3-.1.1-.3.2-.4.2l-.2.1c-.1-.2-.1-.2-.3-.1zm-.3.2s.5-.4.6-.4l.3-.1.5-.2s.3 0 .4-.1c.1-.1 0 .3-.1.4-.3.2-.1.1-.4.1-.2 0-.4.1-.5.2h-.2c-.1 0-.4 0-.6.1zm-.2.1s.2-.1.7-.2c.3-.1.3-.1.4-.1.1 0 .2 0 .4-.1l.7.1c.1-.1-.1.1-.3.2l-.4.3c-.2.1-.5.2-.6.1l-.3-.1c-.1 0-.3-.2-.6-.2zm0-.1s-.1-.5 0-.7c0-.1.1-.1.1-.3 0-.1.1-.4.2-.4.1-.1.2-.4.1-.5 0 0 .3.3.3.5v.2l-.1.5-.1.4c-.1.1-.5.3-.5.3zm0 .1s.2-.2.3-.2c.1 0 .5-.2.5-.3 0-.1.4-.5.4-.5l.1-.3c0-.1 0-.3-.1-.4 0-.1-.1-.4-.3-.4 0 0-.1.3-.1.4l-.1.3-.2.4-.1.5c0 .1-.3.4-.4.5zm1.8-1.5c0 .1.2-.1.3-.1h.6c.1-.1.2-.3.3-.3 0 0 .2-.3.3-.4 0-.1.4-.4.4-.4s-.4-.1-.7.1l-.3.2c-.1 0-.5.4-.5.6-.2 0-.4.2-.4.3zm0 0s.4-.3.5-.3c.1 0 .5-.3.5-.5 0-.1.2-.2.3-.3.1-.2.2-.6.3-.7 0 0-.4.1-.5.1-.2 0-.4.1-.4.2-.1.2-.1.3-.2.3l-.2.4c0 .4-.3.8-.3.8zm.7-2c-.1.1-.1-.6-.1-.7 0-.1-.1-.2-.2-.3-.1-.1-.1-.3-.1-.3V28l.2.2c.1.1.2.1.2.2l.1.2c0 .1.1.2.1.4v.3c.1 0-.1.5-.2.6zm0 .1v-.3c-.1-.1-.1-.1-.2-.1v-.2c0-.1-.1-.2-.1-.2 0-.2-.1-.3 0-.5l.2.1s.2.1.2.3c0 .1 0 .1.1.2 0 .1.1.3 0 .4-.2.1-.2.3-.2.3zm.5-2.3s0-.4-.1-.6c-.1-.1-.1-.4-.4-.5v.6l.2.3c0 .1.1.2.2.2h.1zm0 .3s0-.3-.1-.4l-.2-.2c0-.1-.1-.2-.2-.3-.1-.1-.3-.2-.3-.3 0 0 0 .4.1.6.1.2.1.3.2.3l.2.1s.1.1.2.1l.1.1zm-.4 2c0 .1-.1-.2.2-.2s.6-.1.7-.2l.2-.2s.2-.2.2-.3l.1-.5s-.2 0-.2.1c-.1.1-.2.1-.3.1l-.2.2s-.2 0-.2.1c-.1.1-.2.3-.2.4 0 .1-.1.2-.2.2s-.1.2-.1.3zm.1-.2s.2-.3.3-.3c.1 0 .4-.3.4-.4 0-.1.1-.3.2-.4.1 0 .2-.1.1-.3v-.5l-.1.2c-.1 0-.3.1-.3.2l-.2.2c0 .2 0 .2-.1.2 0 .1-.1.1-.1.3-.1.2-.3.5-.2.8zm.3-1.6c0 .1-.1-.2.2-.2.3-.1.5-.3.5-.4.1-.1.1-.2.1-.3l.1-.3c0-.1 0-.4-.1-.5 0 0-.1.1-.2.1-.1.1-.2.1-.2.2-.1.1-.1.2-.1.2 0 .1-.1.1-.2.2l-.1.4-.1.3.1.3zm0-.1s.1-.3.2-.3.2-.3.3-.4c0-.1 0-.3.1-.4 0-.1.1-.2.1-.4l-.2-.4s-.1.1-.1.2c-.1.2-.2.2-.2.2l-.1.2v.2c0 .1-.1.1-.1.3-.1.2-.2.5 0 .8zm-.3-1.8s-.1-.1-.2-.1l-.3-.3c-.1-.1-.1-.2-.2-.2-.1-.1-.1-.2-.2-.4l.3.1c.1 0 .2.1.3.2.1.1.1.2.2.2s.1.2.1.3v.2zm0-.1v-.3c0-.1.1-.3-.1-.5 0-.1-.3-.4-.4-.4 0 0-.1.2 0 .3 0 .1.1.4.2.4 0 .1.1.4.3.5zm.1.1c0 .1 0-.2.1-.3.1-.1.1-.2.1-.3v-.3l-.2-.5s-.1.3-.2.4v.3c0 .1-.1.3 0 .3 0 .2.2.3.2.4zm-.8-1.5h-.1c-.1 0-.3 0-.4-.1-.1-.1-.2-.1-.2-.2-.1 0-.2-.2-.2-.2 0-.1-.1-.2-.2-.2h.3c.2 0 .4.1.5.3.1.1.3.4.3.4zm0 0c0 .1-.3-.1-.3-.2-.1-.1-.1-.2-.1-.2s-.1-.2-.2-.2c-.1-.2-.1-.5 0-.4 0 0 .2.1.3.1 0 0 .1 0 .2.1 0 .1.1.2.1.2-.1.1.1.2 0 .6zm.1 0s-.2-.1-.3-.2l-.1-.3-.1-.3c0-.1.1-.3.1-.3l.2.2c.1.1.1.1.1.2l.1.2v.5z" fill="#246130" stroke="#010101" stroke-width=".025" stroke-miterlimit="2.613"/><path d="M45.2 34.1s1 0 1.1-.1m-1.6.2s.6.2 1 .1h.6c.1 0 .4-.1.4-.1m-2.7.2s.5.1.6.1c.1 0 .6.2.8.2h1.1m-.6-1.5s-.4.2-.4.3c-.1.1-.4.3-.4.3m.8-1s-.6.5-.7.6l-.8.8m.9-1.6s-.5.4-.6.6l-.2.4s-.2.4-.3.5c-.1.1-.2.2-.4.3m4.4-2.2s-.5.4-.7.5m.9-.2s-.5.4-.8.5c-.2.1-.4.2-.9.2m-.2.2h.7l.7-.1c.1 0 .6-.1.6-.1m-1.1-1.8v.5c0 .1-.3.5-.2.6 0 .1-.1.5-.2.6m-.2-1.7s.1.3.1.4l-.1.4-.1.4c0 .1 0 .3-.1.4l-.2.2m3.5-2.5s-.5.2-.5.3l-.2.2m-1-1s-.1.5-.1.6v.4l.1.5m.2-1.9s0 .3.1.4v.4c0 .1.1.5 0 .6m1.2-1s-.4.3-.5.4c-.1.1-.5.5-.5.6 0 .1-.3.4-.4.5m2-3.1s-.4.4-.4.5c0 .1-.2.2-.3.3m-1-.6s.1.2.1.3c0 .1.1.3.1.3 0 .1.2.3.1.4m-.2-1.7s.1.2.1.4l.1.4c0 .1.1.5.1.8m1-1.6s0 .2-.1.3l-.3.3c0 .1-.1.5-.3.7-.1.1-.2.3-.2.3m1.1-3.1s0 .3-.1.3c0 .1-.1.4-.3.5m-.9-.7s.1.2.1.3c0 .1.1.2.1.2l.1.2m-.6-.5c0 .1.2.4.2.4s.1.3.2.3c.1.1.4.3.3.3m.5-1.6v.4l-.2.4v.3l-.1.4m-1.2-2.5.3.3c.1.1.5.5.5.6m-.5-1.1s.2.5.3.5c0 .1.1.2.1.2m.1-.7v.7s0 .4.1.4m-1.8-2s.5.3.5.4m-.2-.8.3.5.1.1m0-.6s.1.3.1.4l.2.5m-.7-1.1s0 .1-.1.1" stroke="#010101" stroke-miterlimit="2.613" fill="none"/><path fill="#283890" d="M43.2 34.1s.1-.2.2 0c0 0 .2.4 0 .4h-.3c.1 0 .1-.4.1-.4zm.2 0s0-.6.1-.7c.1 0 .4-.2.5 0 .2.1 0 .8 0 .8-.1.1-.1.2-.5.2v-.2s.2 0 .3-.1c.1-.1.2-.1.1-.2 0-.1 0-.4-.1-.4l-.2-.1s-.1.6-.2.7z"/><path fill="#283890" stroke="#010101" stroke-width=".017" stroke-miterlimit="2.613" d="M43.2 34.5s-.6.4-.3.9l-.2-.1s-.1.2 0 .3c0 0-.4-.4-.1-.8.3-.4.6-.4.6-.4v.1zm0-.3s-.3-.2-.6-.1c0 0-.2-.5-.1-.7 0-.1.1-.1.1-.1s-.2-.1-.1.4l.2.7h.6l-.1-.2zm0 0s-.5-.9-.7-.9c0 0-.2 0 .2-.1.1 0 .3 0 .4.2.1.2.2.5.2.6l-.1.2z"/><path fill="#0B1723" stroke="#010101" stroke-width=".017" stroke-miterlimit="2.613" d="m43.2 34.2-.4-.2-.1-.5s-.1-.2-.2-.2c0 0-.1.1-.1.3l.1.6s.3-.2.7 0z"/><path fill="#283890" stroke="#010101" stroke-width=".017" stroke-miterlimit="2.613" d="M43.5 34.5s.2.1.2.3.1.6.3.7c0 0 0-.2.1-.2l.2.2s-.1-.2-.1-.3c0-.1-.1-.4-.2-.5-.1-.1-.3-.3-.5-.4v.2z"/><path fill="#0B1723" stroke="#010101" stroke-width=".017" stroke-miterlimit="2.613" d="m43.6 33.5-.2.6v.1s.1 0 .1-.1.1-.6.2-.6h-.1z"/><path fill="#081E32" d="M43.2 34.5s-.3.1-.4.3c0 0-.1-.2.4-.3zm.3 0s.2.1.3.2c0 0-.2-.2-.3-.2zm-.3-.2s-.4.1-.5.1l.5-.1zm.7-.3.1.2s.1-.4.1-.5c0-.2-.1-.2-.1-.2-.1 0-.1.2-.1.2v.3zm-.5.1s.2.4 0 .4c-.1 0 .1 0 0-.3 0-.1-.1-.2-.1-.2 0 .1.1.1.1.1z"/><path stroke="#010101" stroke-width=".017" stroke-miterlimit="2.613" d="M43.2 34.1s.1-.2.2 0c0 0 .2.4 0 .4h-.3c.1 0 .1-.4.1-.4zm.2 0s0-.6.1-.7c.1 0 .4-.2.5 0 .2.1 0 .8 0 .8-.1.1-.1.2-.5.2v-.2s.2 0 .3-.1c.1-.1.2-.1.1-.2 0-.1 0-.4-.1-.4l-.2-.1s-.1.6-.2.7z" fill="none"/><path fill="#283890" d="M42.7 23.4v-.8c0-.2.3-1 .4-1.1l.1-.2.1-.1c.1.1.1.3.1.4 0 0-.1.4-.1.6 0 .2-.2.4-.2.5-.1.1-.1.2 0 .2l-.4.5z"/><path fill="#fff" d="M43.2 22.5c.2-.1.2-.4.2-.4l-.1-.6s-.1.4-.1.6c0 .2-.2.4-.2.5-.1.2 0 .2 0 .2l.2-.3z"/><path fill="#283890" d="M43.3 22.6c.1-.1.1-.4.1-.4s.1.5 0 .6c-.1.1-.1.1 0 .1l-.1-.3z"/><path stroke="#010101" stroke-width=".025" stroke-miterlimit="2.613" d="M43.4 22.9v-.1c.1-.1 0-.6 0-.6l-.1-.6-.1-.4-.1.1c0 .1 0 .1-.1.2s-.4.9-.4 1.1v.8" fill="none"/><path fill="#FFCD05" stroke="#010101" stroke-width=".013" stroke-miterlimit="2.613" d="M43.2 21.2v-.1s.1.1 0 .1c.2 0 .3.1.3.1 0 .1-.1.2-.2.1l-.1-.1v-.1z"/><path stroke="#010101" stroke-width=".013" stroke-miterlimit="2.613" d="m43.3 21.2.1.1.2.1m-.3-.2c.1 0 .1.1.2.2" fill="none"/><path fill="#FFCD05" stroke="#010101" stroke-width=".013" stroke-miterlimit="2.613" d="M43.2 21.2s.1 0 .1-.1l-.1.1c.1.1 0 .3 0 .3-.1 0-.1 0-.2-.1 0 0 0-.1.1-.1 0-.1 0-.1.1-.1z"/><path stroke="#010101" stroke-width=".013" stroke-miterlimit="2.613" d="M43.2 21.1v.1c0 .1 0 .1-.1.2m.1-.2-.1.2" fill="none"/><path fill="#FFCD05" stroke="#010101" stroke-width=".013" stroke-miterlimit="2.613" d="M43.3 21.1c.1-.1.2-.1.2-.1l.1.1v.1c-.1 0-.2 0-.3-.1l.2.1c.1 0 .1 0 .1-.1l-.1-.2c-.1.1-.2.1-.2.2zm-.1 0c0-.1-.1-.1-.2-.1l-.1.1v.1c.1 0 .2 0 .3-.1l-.2.1c-.1 0-.1 0-.1-.1l.1-.2c.1.1.2.1.2.2zm.1 0c-.1 0-.1.1 0 0z"/><path fill="#FFCD05" d="M43.3 20.5s0 .2.2.4c.1.2-.1.1-.2.2 0 0-.1-.2-.2-.2l.2-.4z"/><path stroke="#010101" stroke-width=".013" stroke-miterlimit="2.613" d="M43.3 20.5s0 .2.2.4l-.2.2s-.1-.2-.2-.2l.2-.4" fill="none"/><path stroke="#010101" stroke-width=".013" stroke-miterlimit="2.613" d="M43.2 20.7s0 .1.1.2c0 0-.1 0-.1.1 0 0 0-.1-.1-.1.1 0 .1-.1.1-.2z" fill="none"/><path fill="#fff" d="M43.2 32c-.1 0-.1 0-.2-.1v-.5c.1-.3.1-.5.2-.7.1.2.1.5.1.7 0 .1.1.4 0 .5.1.1 0 .1-.1.1z"/><path fill="#283890" d="m43.2 30.8.2.7c0 .1.1.3 0 .4h.1v-.1h.1c.1 0 .1-.1.1-.1v-.2s0-.1-.1-.1c0 0 0-.1-.1-.1v-.2l-.1-.2v-.1h-.2zm0 0-.2.7c0 .1-.1.3 0 .4h-.1v-.1h-.1c-.1 0-.1-.1-.1-.1v-.2s0-.1.1-.1c0 0 0-.1.1-.1v-.2l.1-.2v-.1h.2z"/><g fill="none"><path stroke="#0B1723" d="M43.2 30.8s-.1.4-.2.5c-.1.1-.3.3-.1.6"/><path stroke="#081E32" d="M43.2 30.8s-.1.4-.2.5c-.1.1-.3.3-.1.6"/><path stroke="#042843" d="M43.2 30.8s-.1.4-.2.5c-.1.1-.3.3-.1.6"/><path stroke="#113154" d="M43.2 30.8s-.1.4-.2.5c-.1.1-.3.3-.1.6"/><path stroke="#143C65" d="M43.2 30.8s-.1.4-.2.5c-.1.1-.3.3-.1.6"/><path stroke="#081E32" d="M43.2 30.8s-.1.4-.2.5c-.1.1-.3.3-.1.6"/><path stroke="#042843" d="M43.2 30.8s-.1.4-.2.5c-.1.1-.3.3-.1.6"/><path stroke="#113154" d="M43.1 30.8s-.1.4-.2.5c-.1.1-.3.3-.1.6"/><path stroke="#143C65" d="M43.1 30.8s-.1.3-.2.5c-.1.1-.3.3-.1.6"/><path stroke="#283890" d="M43.1 30.8s-.1.3-.2.5c-.1.1-.3.3-.1.6m.4-1.1s-.1.4-.2.5c-.1.1-.3.3-.1.6"/></g><g fill="none"><path stroke="#0B1723" d="M986.75 30.8s-.1.4-.2.5c-.1.1-.3.3-.1.6"/><path stroke="#081E32" d="M986.75 30.8s-.1.4-.2.5c-.1.1-.3.3-.1.6"/><path stroke="#042843" d="M986.75 30.8s-.1.4-.2.5c-.1.1-.3.3-.1.6"/><path stroke="#113154" d="M986.75 30.8s-.1.4-.2.5c-.1.1-.3.3-.1.6"/><path stroke="#143C65" d="M986.75 30.8s-.1.4-.2.5c-.1.1-.3.3-.1.6"/><path stroke="#081E32" d="M986.75 30.8s-.1.4-.2.5c-.1.1-.3.3-.1.6"/><path stroke="#042843" d="M986.75 30.8s-.1.4-.2.5c-.1.1-.3.3-.1.6"/><path stroke="#113154" d="M986.65 30.8s-.1.4-.2.5c-.1.1-.3.3-.1.6"/><path stroke="#143C65" d="M986.65 30.8s-.1.3-.2.5c-.1.1-.3.3-.1.6"/><path stroke="#283890" d="M986.65 30.8s-.1.3-.2.5c-.1.1-.3.3-.1.6m.4-1.1s-.1.4-.2.5c-.1.1-.3.3-.1.6"/></g><path stroke="#010101" stroke-width=".017" stroke-miterlimit="2.613" d="M43.6 31.1c.1.1.1.1.1.2 0 0 0 .1.1.1 0 0 0 .1.1.1v.2c0 .1-.1.1-.1.1h-.1v.1h-.4v-.1h-.1c-.1 0-.1-.1-.1-.1v-.2s0-.1.1-.1c0 0 0-.1.1-.1v-.2" fill="none"/><path fill="#fff" d="M40.5 27c-.1-.4-.3-1.1-.3-1.3 0-.7 0-.9.1-1.6l.7.8v.5c0 .1 0 .4.1.5l-.6 1.1z"/><path fill="#283890" d="M41.2 26c-.1-.1-.1-.4-.1-.5V25l.4.5-.3.5zm-1.9.7v-.4c0-.5-.1-.8 0-1.3l.1-1.4v-.4l.9 1c-.1.7-.1.9-.1 1.6 0 .2.1.9.3 1.3l-.2.3-1-.7zM40 28c-.1-.1-.1-.4-.1-.4v-.5l.5.3-.4.6zm-1.4 2.4c-.1 0-.1-.1-.2-.2l-.1-.4c0-.1 0-.2-.1-.3l-.2-.6c0-.5-.2-.8-.1-1.3l.1-1.3V26l1 .7v1.5c0 .2.1.8.3 1.1l-.7 1.1zm1.6.4c.2.2.5.3.6.3.1.1.3.2.6.2.2 0 .3 0 .6-.1h.2c.1 0 .1-.1.3-.1.1 0 .3-.1.3-.2l.1-.1h.2c0 .1 0 .1-.1.2v.1l-.1.1-.1.1-.1.1-.4.1c-.2 0-.1 0-.2.1-.1 0-.2.1-.2.1-.1 0-.1 0-.2.1-.3.1-.6 0-.8 0l-.5-.1c-.2-.1-.6-.2-.7-.3 0 0-.1-.1-.2-.1L39 31l1.2-.2zm1.4 0H43c0 .1 0 .1-.1.1l-.3.2h-.4c-.5-.2-.5-.3-.6-.3z"/><path fill="#fff" d="M41.6 30.8c.1.1.2.2.5.3l.4.1-.3.1H42c-.2 0-.3.1-.6.1s-.5-.1-.6-.2c-.1 0-.4-.1-.6-.3l1.4-.1z"/><g fill="none"><path stroke="#042843" d="M39.5 23.7s.2 1.5.7 1.4"/><path stroke="#092947" d="M40.2 25.1c-.3 0-.5-.3-.6-.7-.1-.3-.2-.7-.2-.7"/><path stroke="#0C2C4C" d="M40.2 25.1c-.3 0-.5-.4-.6-.7-.1-.3-.2-.7-.2-.7"/><path stroke="#0D2E4F" d="M40.2 25.1c-.3 0-.5-.4-.6-.7-.1-.3-.2-.7-.2-.7"/><path stroke="#103053" d="M40.2 25.1c-.3 0-.5-.4-.6-.7-.1-.3-.2-.7-.2-.7"/><path stroke="#123358" d="M40.2 25.1c-.3-.1-.5-.4-.6-.7-.1-.3-.2-.7-.2-.7"/><path stroke="#13355B" d="M40.2 25.1c-.3-.1-.5-.5-.6-.7-.1-.3-.2-.7-.2-.7"/><path stroke="#13375E" d="M40.2 25.1c-.3-.1-.5-.5-.6-.7-.1-.3-.2-.7-.2-.7"/><path stroke="#143A62" d="M40.2 25.1c-.3-.1-.5-.5-.5-.7-.1-.3-.2-.7-.2-.7"/><path stroke="#153D67" d="M40.2 25.1c-.3-.1-.5-.6-.5-.7-.1-.3-.2-.7-.2-.7"/><path stroke="#143F6A" d="M40.3 25.1c-.3-.1-.5-.6-.5-.7-.1-.3-.2-.7-.2-.7"/><path stroke="#15416E" d="M40.3 25.1c-.3-.2-.5-.6-.5-.7-.1-.3-.2-.6-.2-.7"/><path stroke="#154272" d="M40.3 25.1c-.3-.2-.5-.6-.5-.7-.1-.2-.2-.6-.2-.7"/><path stroke="#283890" d="M39.5 23.7s.1.4.2.7c0 .1.2.5.5.7"/><path stroke="#042843" d="M39.5 23.4s.5 1.2.8 1"/><path stroke="#092B49" d="M40.3 24.4c-.1.1-.3-.2-.5-.4-.2-.3-.3-.6-.3-.6"/><path stroke="#0D2E4F" d="M40.3 24.4c-.1.1-.3-.2-.5-.5l-.3-.6"/><path stroke="#113154" d="M40.3 24.4c-.1 0-.3-.2-.5-.5l-.3-.6"/><path stroke="#123459" d="M40.3 24.4c-.1 0-.3-.2-.5-.5l-.3-.6"/><path stroke="#133960" d="M40.3 24.4c-.1 0-.3-.2-.5-.5l-.3-.6"/><path stroke="#143C65" d="M40.3 24.4c-.1 0-.3-.2-.5-.5l-.3-.6"/><path stroke="#143F6A" d="M40.3 24.4s-.3-.2-.5-.5l-.3-.6"/><path stroke="#144371" d="M40.3 24.4s-.3-.2-.5-.5l-.3-.6"/><path stroke="#283890" d="M39.5 23.4s.1.1.3.6c.2.3.4.5.4.5m.9 1.1.4-.1m-.4-.3.4.2"/><path stroke="#144371" d="m41.1 25.2.4.2"/><path stroke="#14406C" d="m41.1 25.3.4.2"/><path stroke="#153D67" d="m41.1 25.3.4.2"/><path stroke="#143A62" d="m41.1 25.3.4.2"/><path stroke="#13365C" d="m41.1 25.3.4.1"/><path stroke="#123358" d="m41.1 25.3.4.1"/><path stroke="#103053" d="m41.1 25.3.4.1"/><path stroke="#0C2D4D" d="m41.1 25.4.4.1"/><path stroke="#092B49" d="m41.1 25.4.4.1"/><path stroke="#144371" d="m41.1 25.6.4-.1"/><path stroke="#14406C" d="M41.1 25.6h.4"/><path stroke="#153D67" d="M41.1 25.5h.4"/><path stroke="#143A62" d="M41.1 25.5h.4"/><path stroke="#13365C" d="M41.1 25.5h.4"/><path stroke="#123358" d="M41.1 25.5h.4"/><path stroke="#103053" d="M41.1 25.5h.4"/><path stroke="#0C2D4D" d="M41.1 25.4h.4"/><path stroke="#092B49" d="m41.1 25.4.4.1"/><path stroke="#042843" d="m41.1 25.4.4.1m-2.2 0s0 .3.1.4c.1.2.4.5.7.7"/><path stroke="#092947" d="M40.1 26.6c-.2-.1-.4-.3-.5-.5-.1-.1-.1-.2-.2-.2-.1-.1-.1-.4-.1-.4"/><path stroke="#0C2C4C" d="M40.1 26.6c-.2-.1-.4-.3-.5-.5-.1-.1-.1-.2-.2-.2-.1-.1-.1-.4-.1-.4"/><path stroke="#0D2E4F" d="M40.2 26.6c-.2-.1-.4-.3-.5-.5-.1-.1-.1-.2-.2-.2-.1-.1-.1-.4-.1-.4"/><path stroke="#103053" d="M40.2 26.6c-.2-.1-.4-.3-.5-.5-.1-.1-.1-.2-.2-.2-.1-.1-.1-.4-.1-.4"/><path stroke="#123358" d="M40.2 26.6c-.2-.1-.4-.3-.5-.5l-.2-.2c-.1-.2-.1-.4-.1-.4"/><path stroke="#13355B" d="M40.2 26.6c-.2-.1-.4-.4-.5-.5l-.2-.2-.2-.4"/><path stroke="#13375E" d="M40.2 26.6c-.2-.1-.4-.4-.5-.5l-.2-.2-.2-.4"/><path stroke="#143A62" d="M40.2 26.6c-.2-.1-.4-.4-.5-.5l-.2-.2-.2-.4"/><path stroke="#153D67" d="M40.2 26.6c-.2-.1-.4-.4-.5-.5l-.2-.2-.2-.4"/><path stroke="#143F6A" d="M40.2 26.6c-.2-.1-.4-.4-.5-.5l-.2-.2-.2-.4"/><path stroke="#15416E" d="m40.2 26.6-.5-.5c0-.1-.1-.1-.2-.2l-.2-.4"/><path stroke="#154272" d="m40.2 26.6-.5-.5c0-.1-.1-.1-.2-.2l-.2-.4"/><path stroke="#283890" d="M39.3 25.4s.3.5.4.7c.1.1.3.4.5.5"/><path stroke="#081E32" d="M39.4 26.7c.3.2.4.3 1 .6l.2-.3s-.1-.2-.1-.3"/><path stroke="#081F33" d="M39.4 26.7c.3.2.4.3 1 .6l.2-.3v-.1c0-.1 0-.1-.1-.2"/><path stroke="#082136" d="M39.4 26.7c.3.2.4.3 1 .6l.2-.3v-.1c0-.1 0-.1-.1-.2"/><path stroke="#072238" d="M39.4 26.7c.3.2.4.3 1 .6 0 0 .2-.3.1-.3v-.1c0-.1 0-.1-.1-.2"/><path stroke="#06233B" d="M39.4 26.7c.3.2.4.3 1 .6l.1-.3v-.2"/><path stroke="#05243D" d="M39.4 26.7c.3.2.4.3 1 .6l.1-.3v-.2"/><path stroke="#022640" d="M39.4 26.7c.2.2.5.3 1 .6l.1-.3v-.2"/><path stroke="#042541" d="M39.4 26.7c.2.2.5.3 1 .6l.1-.3v-.2"/><path stroke="#042843" d="M39.4 26.7c.2.1.5.3 1 .6l.1-.3v-.1"/><path stroke="#092947" d="M39.4 26.7c.2.1.5.3 1 .6l.1-.3v-.1"/><path stroke="#092B49" d="M39.4 26.7c.2.1.5.3 1 .5l.1-.3v-.1"/><path stroke="#0B2A4A" d="M39.4 26.7c.2.1.5.3 1 .5l.1-.3v-.1"/><path stroke="#0C2C4C" d="m39.4 26.7 1 .5s.1-.3 0-.3v-.1"/><path stroke="#0D2E4F" d="m39.4 26.7 1 .5v-.4"/><path stroke="#0D2F50" d="M39.4 26.7c.2.1.6.4 1 .5v-.4"/><path stroke="#103053" d="M39.4 26.7c.2.1.6.4 1 .5v-.4"/><path stroke="#123256" d="M39.4 26.7c.1.1.6.4 1 .5v-.4"/><path stroke="#123358" d="M39.4 26.7c.1.1.6.4 1 .5v-.3"/><path stroke="#123459" d="M39.4 26.7c.1.1.7.4 1 .5v-.3"/><path stroke="#13365C" d="M39.4 26.7c.1.1.7.4 1 .4v-.3"/><path stroke="#13375E" d="M39.4 26.7c.1.1.7.4 1 .4v-.3"/><path stroke="#133960" d="M39.4 26.7c.1.1.7.4 1 .4 0-.1 0-.2-.1-.3h.1"/><path stroke="#143A62" d="M39.4 26.7c.1.1.7.4 1 .4l-.1-.3h.2"/><path stroke="#143C65" d="M39.4 26.7c.1.1.7.4 1 .4l-.1-.3h.2"/><path stroke="#153D67" d="M39.4 26.7c.1 0 .7.4 1 .4l-.1-.3h.2"/><path stroke="#143D68" d="M39.4 26.7c.1 0 .8.4 1 .4 0-.1-.1-.2-.1-.2h.2"/><path stroke="#14406C" d="M39.4 26.6c.1 0 .8.4 1 .4 0-.1-.1-.2-.1-.2h.1s0 .1.1 0"/><path stroke="#15416E" d="M39.4 26.6s.8.4 1 .4c0-.1-.1-.2-.1-.2h.1s.1.1.1 0"/><path stroke="#16416F" d="M39.4 26.6s.8.5 1 .4c0-.1-.1-.2-.1-.2h.1s.1.1.1 0"/><path stroke="#144371" d="M39.4 26.6s.8.5 1 .3c0-.1-.1-.2-.1-.2h.1s.1.1.1 0"/><path stroke="#144474" d="M39.4 26.6s.8.5 1 .3c0-.1-.1-.2-.2-.2h.1l.1.1"/><path stroke="#283890" d="M39.4 26.6s.9.5 1 .3c0-.1-.2-.2-.2-.2h.1l.1.1"/><path stroke="#081E32" d="m39.3 29.2-.7 1.2c-.1 0-.1-.1-.2-.2l-.1-.4v-.3l-.2-.6m-.1 0 .2.6v.3c0 .2 0 .2.1.3 0 .1.1.2.2.2l.7-1.2"/><path stroke="#081F33" d="m38 28.9.2.6c0 .1 0 .2.1.3 0 .2 0 .2.1.3 0 .1.1.2.2.2l.7-1.2m-1.3-.2.2.6c0 .1 0 .2.1.3 0 .2 0 .2.1.3 0 .1.1.2.2.2l.7-1.2"/><path stroke="#072135" d="m38 28.9.2.6c0 .1 0 .2.1.3 0 .2 0 .2.1.3 0 .1.1.2.2.2l.7-1.2m-1.3-.2.2.6c0 .1 0 .2.1.3 0 .2 0 .2.1.3 0 .1.1.2.2.2l.7-1.2"/><path stroke="#082136" d="m38 28.9.2.6c0 .1 0 .2.1.3 0 .2 0 .2.1.3 0 .1.1.2.2.2l.7-1.1m-1.3-.3.2.6c0 .1 0 .2.1.3 0 .2 0 .2.1.3 0 .1.1.2.2.2l.7-1.1"/><path stroke="#072238" d="m38 28.9.2.6c0 .1 0 .2.1.3 0 .2 0 .2.1.3 0 .1.1.2.2.2l.7-1.1m-1.3-.3c0 .1.2.4.2.6 0 .1 0 .2.1.3 0 .2 0 .2.1.3 0 .1.1.2.2.2l.7-1.1m-1.3-.3c0 .1.1.4.2.5 0 .1 0 .2.1.3 0 .2 0 .2.1.3 0 .1.1.2.2.2l.7-1.1"/><path stroke="#06233B" d="M38 28.9c0 .1.1.4.2.5 0 .1 0 .2.1.3 0 .2 0 .2.1.3 0 .1.1.2.2.2l.7-1.1m-1.3-.2c0 .1.1.4.2.5 0 .1 0 .2.1.3 0 .2 0 .2.1.3 0 .1.1.2.2.2l.7-1.1"/><path stroke="#05243D" d="M38 28.9c0 .1.1.4.2.5 0 .1 0 .2.1.3 0 .2 0 .2.1.3 0 .1.1.2.2.2 0 0 .7-1 .7-1.1m-1.3-.2c0 .1.1.4.2.5 0 .1 0 .2.1.3 0 .2 0 .2.1.3 0 .1.1.2.2.2l.7-1"/><path stroke="#05243E" d="M38 28.9c0 .1.1.4.2.5 0 .1 0 .2.1.3 0 .2 0 .2.1.3 0 .1.1.2.2.2l.7-1m-1.3-.3c0 .1.1.4.2.5 0 .1 0 .2.1.3 0 .2 0 .2.1.3 0 .1.1.2.2.2l.7-1"/><path stroke="#022640" d="M38 28.9c0 .1.1.4.2.5 0 .1 0 .2.1.3 0 .2 0 .2.1.3 0 .1.1.2.2.2l.7-1m-1.3-.3c0 .1.1.4.2.5 0 .1 0 .2.1.3 0 .2 0 .2.1.3 0 .1.1.1.2.2l.7-1m-1.3-.3c0 .1.1.4.2.5 0 .1 0 .2.1.3 0 .1 0 .2.1.3 0 .1.1.1.2.2 0 0 .7-.9.7-1"/><path stroke="#042541" d="M38 28.9c0 .1.1.4.2.5 0 .1 0 .2.1.3 0 .1 0 .1.1.3 0 .1.1.1.2.2 0 0 .7-.9.7-1m-1.3-.3c0 .1.1.4.2.5 0 .1 0 .2.1.3 0 .1 0 .1.1.3 0 .1.1.1.2.2l.7-.9"/><path stroke="#042843" d="M38 28.9c0 .1.1.4.2.5 0 .1 0 .2.1.3 0 .1 0 .1.1.3 0 .1.1.1.2.2.1 0 .7-.9.7-.9m-1.3-.4c0 .1.1.4.2.5 0 .1 0 .2.1.3 0 .1 0 .1.1.3 0 .1.1.1.2.2.1 0 .7-.9.7-.9"/><path stroke="#062845" d="M38 28.9c0 .1.1.4.2.5 0 .1 0 .2.1.3 0 .1 0 .1.1.3 0 .1.1.1.2.2.1 0 .7-.9.7-.9m-1.3-.4c0 .1.1.4.2.5 0 .1 0 .2.1.3 0 .1.1.1.1.3 0 .1.1.1.2.2.1 0 .7-.9.7-.9"/><path stroke="#092947" d="M38 28.9c0 .1.1.4.2.5 0 .1 0 .2.1.3 0 .1.1.1.1.3 0 .1.1.1.2.2.1 0 .7-.8.7-.9m-1.3-.4c0 .1.1.4.2.5 0 .1 0 .2.1.3 0 .1 0 .1.1.3 0 .1.1.1.2.2.1 0 .7-.8.7-.9m-1.3-.4c0 .1.1.4.2.4 0 .1 0 .2.1.3 0 .1.1.1.1.3 0 .1.1.1.2.2l.7-.8"/><path stroke="#092B49" d="M38 28.9c0 .1.1.4.2.4 0 .1 0 .2.1.2 0 .1.1.1.1.3 0 .1.1.1.2.2l.7-.8m-1.3-.3c0 .1.1.3.2.4 0 .1 0 .2.1.2 0 .1.1.1.1.3 0 .1.1.1.2.2l.7-.8"/><path stroke="#0B2A4A" d="M38 28.9c0 .1.1.3.2.4 0 .1 0 .2.1.2 0 .1.1.1.1.3 0 .1.1.1.2.2l.7-.8m-1.3-.3c0 .1.1.3.2.4 0 .1 0 .2.1.2 0 .1.1.1.1.3 0 .1.1.1.2.2l.7-.8"/><path stroke="#0C2C4C" d="M38 28.9c0 .1.1.3.2.4 0 .1 0 .2.1.2l.1.2c0 .1.1.1.2.2.1 0 .6-.7.7-.8m-1.3-.2c0 .1.1.3.2.4 0 .1 0 .2.1.2l.1.2c0 .1.1.1.2.1s.6-.7.7-.8"/><path stroke="#0C2D4D" d="M38 28.9c0 .1.1.3.2.4 0 .1 0 .2.1.2l.1.2c0 .1.1.1.2.1s.6-.7.7-.8m-1.3-.1c0 .1.1.3.2.4 0 .1 0 .2.1.2l.1.2c0 .1.1.1.2.1l.7-.7m-1.3-.2c0 .1.1.3.2.4 0 .1 0 .2.1.2l.1.2c0 .1.1.1.2.1l.7-.7"/><path stroke="#0D2E4F" d="M38 28.9c0 .1.1.3.2.4 0 .1 0 .2.1.2l.1.2c0 .1.1.1.2.1l.7-.7m-1.3-.2c0 .1.1.3.2.4 0 .1 0 .1.1.2l.1.2c0 .1.1.1.2.1l.7-.7"/><path stroke="#0D2F50" d="M38 28.9c0 .1.1.3.2.4 0 .1 0 .1.1.2l.1.2c0 .1.1.1.2.1l.7-.7m-1.3-.2c0 .1.1.3.2.4 0 .1 0 .1.1.2l.1.2c0 .1.1.1.2.1l.7-.7"/><path stroke="#103053" d="M38 28.9c0 .1.1.3.2.4 0 .1 0 .1.1.2l.1.2c0 .1.1.1.1.1.1 0 .6-.6.7-.7m-1.2-.2c0 .1.1.3.2.4 0 .1 0 .1.1.2l.1.2c0 .1.1.1.1.1l.7-.6"/><path stroke="#113154" d="M38 28.9c0 .1.1.3.2.4 0 .1 0 .1.1.2l.1.2s.1.1.2.1l.7-.6m-1.3-.3c0 .1.1.3.2.4 0 .1 0 .1.1.2l.1.2s.1.1.2.1l.7-.6m-1.3-.3c0 .1.1.3.2.3l.1.2.1.2.1.1.7-.6"/><path stroke="#123256" d="M38 28.9c0 .1.1.3.2.3l.1.2.1.2.1.1c.1 0 .6-.5.7-.6m-1.2-.2c0 .1.1.3.2.3l.1.2.1.2.1.1c.1 0 .6-.5.7-.6"/><path stroke="#123358" d="M38 28.9c0 .1.1.3.2.3l.1.2.1.2.1.1c.1 0 .6-.5.7-.6m-1.2-.2c0 .1.1.2.2.3l.1.2.1.2.1.1.7-.5"/><path stroke="#123459" d="M38 28.9c0 .1.1.2.2.3l.1.2.1.2.1.1.7-.5m-1.2-.3c0 .1.1.2.2.3l.1.2.1.2.1.1.7-.5"/><path stroke="#13355B" d="M38 28.9c0 .1.1.2.2.3l.1.2.1.2.1.1c.1 0 .6-.4.7-.5m-1.2-.3c0 .1.1.2.2.3l.1.2.1.2.1.1c.1 0 .6-.4.7-.5m-1.2-.3c0 .1.1.2.2.3l.1.2.1.2.1.1c.1 0 .6-.4.7-.5"/><path stroke="#13365C" d="M38 28.9c0 .1.1.2.2.3l.1.2.1.2.1.1c.1 0 .6-.4.7-.5m-1.2-.3c0 .1.1.2.2.3l.1.2.1.2.1.1.7-.4"/><path stroke="#13375E" d="M38 28.9c0 .1.1.2.2.3l.1.2.1.2.1.1.7-.4m-1.2-.4c0 .1.1.2.2.3l.1.2.1.2.1.1.7-.4"/><path stroke="#133960" d="M38 28.9c0 .1.1.2.2.3l.1.2.1.2.1.1c.1 0 .5-.3.7-.4m-1.2-.4s.1.2.2.3c0 0 .1.1.1.2l.1.2.1.1c.1 0 .5-.3.7-.4"/><path stroke="#143A62" d="M38 28.9s.1.2.2.3l.1.2.1.2.1.1c.1 0 .5-.3.7-.4m-1.2-.4s.1.2.2.3l.1.1.1.2.1.1c.1 0 .5-.3.7-.4m-1.2-.3s.1.2.2.2c0 .1.1.1.1.1 0 .1.1.1.1.1l.1.1c.1 0 .5-.3.7-.4"/><path stroke="#143B63" d="M38 28.9s.1.2.2.2l.1.1c0 .1.1.1.1.1l.1.1c.1 0 .5-.3.7-.3m-1.2-.2s.1.2.2.2l.1.1c0 .1.1.1.1.1l.1.1.7-.3"/><path stroke="#143C65" d="M38 28.9s.1.2.2.2l.1.1c0 .1.1.1.1.1l.1.1.7-.3m-1.2-.2s.1.2.2.2l.1.1c0 .1.1.1.1.1l.1.1c.2.1.5-.2.7-.3"/><path stroke="#153D67" d="m38 28.9.2.2.1.1c0 .1.1.1.1.1l.1.1c.2 0 .5-.2.7-.3m-1.2-.2.2.2.1.1c0 .1.1.1.1.1l.1.1c.2 0 .5-.2.7-.3"/><path stroke="#143D68" d="m38 28.9.2.2.1.1c0 .1.1.1.1.1l.1.1c.2.1.5-.2.7-.3m-1.2-.2.2.2.1.1c0 .1.1.1.1.1l.1.1c.2.1.5-.2.7-.2m-1.2-.3.2.2.1.1c0 .1.1.1.1.1l.1.1c.2.1.5-.2.7-.2"/><path stroke="#143F6A" d="m38 28.9.2.2.1.1c0 .1.1.1.1.1l.1.1c.2.1.5-.1.7-.2m-1.2-.3.2.2.1.1.1.1.1.1c.2.1.5-.1.7-.2"/><path stroke="#14406C" d="m38 28.9.2.2.1.1.1.1.1.1c.2.1.5-.1.7-.2m-1.2-.3.2.2.1.1.1.1.1.1c.2.1.5-.1.7-.2"/><path stroke="#15416E" d="m38 28.9.2.2.1.1.1.1.1.1c.2.1.5-.1.7-.2m-1.2-.3.2.2.1.1.1.1.1.1c.2.1.5-.1.7-.1"/><path stroke="#16416F" d="m38 28.9.2.2.1.1.1.1s.1 0 .1.1c.2.1.5-.1.7-.1m-1.2-.4.2.2.1.1.1.1s.1 0 .1.1c.2.1.5 0 .7-.1m-1.2-.4s.1.1.2.1l.1.1.1.1s.1 0 .1.1c.2.1.5 0 .7-.1"/><path stroke="#144371" d="M38 28.9s.1.1.2.1l.1.1.1.1s.1 0 .1.1c.2.1.5 0 .7-.1m-1.2-.3s.1.1.2.1l.1.1.1.1s.1 0 .1.1c.2.1.5 0 .7-.1"/><path stroke="#154272" d="M38 28.9s.1.1.2.1l.1.1.1.1s.1 0 .1.1c.2.1.5 0 .7-.1m-1.2-.3s.1.1.2.1l.1.1.1.1s.1 0 .1.1c.2.1.5 0 .7-.1"/><path stroke="#144474" d="M38 28.9s.1.1.2.1c0 0 .1 0 .1.1l.1.1h.1c.2.1.5 0 .7 0m-1.2-.3s.1.1.2.1c0 0 .1 0 .1.1 0 0 .1 0 .1.1h.1c.2.1.5.1.7 0"/><path stroke="#283890" d="M38 28.9s.1.1.2.1c0 0 .1 0 .1.1 0 0 .1 0 .1.1h.1c.2.1.5.1.7 0m-1.2-.3s.6.5 1.2.3"/><path stroke="#042843" d="M38 26.9s.1.8.2.9c0 .1.3.6.7.7"/><path stroke="#092B49" d="M38 26.9s.1.8.2.9c0 .1.3.5.7.7"/><path stroke="#0C2C4C" d="M38 26.9s.1.8.2.9c0 .1.3.5.7.7"/><path stroke="#0D2F50" d="M38 26.9s.1.8.2.9c0 .1.2.5.6.7"/><path stroke="#113154" d="M38 26.9s.1.8.2.9c.1.1.2.5.6.7"/><path stroke="#123459" d="M38 26.9s.2.8.2.9c0 .1.2.4.6.7"/><path stroke="#13365C" d="M38 26.9s.2.8.2.9c.1.1.2.4.6.7"/><path stroke="#133960" d="M38 26.9s.2.8.2.9c.1.1.2.4.6.7"/><path stroke="#143C65" d="M38 26.9s.2.7.2.9c.1.1.2.4.6.7"/><path stroke="#143D68" d="M38 26.9s.2.7.2.9c.1.1.2.3.6.7"/><path stroke="#15416E" d="M38 26.9s.2.7.3.9c.1.1.1.3.6.7"/><path stroke="#154272" d="M38 26.9s.2.7.3.8c.1.1.1.3.6.7"/><path stroke="#283890" d="M38 26.9s.2.7.3.8c.1.1.1.3.6.7"/><path stroke="#042843" d="M38.1 26.4s.1 1.1.9 1.4"/><path stroke="#092B49" d="M38.1 26.4s0 .4.2.7c.1.3.3.6.7.7"/><path stroke="#0C2C4C" d="M38.1 26.4s.1.4.2.7c.1.2.3.6.7.7"/><path stroke="#0D2F50" d="M38.1 26.4s.1.4.2.7c.1.2.3.6.7.7"/><path stroke="#113154" d="M38.1 26.4s.1.4.2.7c.1.2.3.6.7.7"/><path stroke="#123459" d="M38.1 26.4s.1.4.2.7c.1.2.3.5.7.7"/><path stroke="#13365C" d="M38.1 26.4s.1.4.2.7c.1.2.3.5.6.7"/><path stroke="#133960" d="M38.1 26.4s.1.4.3.7c.1.2.3.5.6.7"/><path stroke="#143C65" d="M38.1 26.4s.1.4.3.7c.1.1.3.5.6.7"/><path stroke="#143D68" d="M38.1 26.4s.1.4.3.7c.1.1.3.5.6.7"/><path stroke="#15416E" d="M38.1 26.4s.1.4.3.7c.1.1.3.5.6.7"/><path stroke="#154272" d="M38.1 26.4s.1.5.3.7c.1.1.3.5.6.7"/><path stroke="#283890" d="M38.1 26.4s.2.5.3.6c0 .1.2.5.6.8"/><path stroke="#042843" d="M38.1 26.1s.2.9.9 1.1"/><path stroke="#092947" d="M38.1 26.1s.1.3.3.6c.1.2.3.4.6.5"/><path stroke="#0B2A4A" d="M38.1 26.1s.1.3.3.6c.1.2.4.4.6.5"/><path stroke="#0C2D4D" d="M38.1 26.1s.1.3.3.6c.2.2.4.4.6.5"/><path stroke="#103053" d="M38.1 26.1s.1.3.3.6c.2.2.4.4.6.5"/><path stroke="#123256" d="M38.1 26.1s.1.3.3.6c.2.2.4.5.6.5"/><path stroke="#123459" d="M38.1 26.1s.1.3.3.6c.2.2.4.5.6.5"/><path stroke="#13365C" d="M38.1 26.1s.1.3.3.6c.2.2.4.5.5.5"/><path stroke="#133960" d="M38.1 26.1s.1.3.3.6c.2.2.4.5.5.5"/><path stroke="#143B63" d="M38.1 26.1s.1.3.4.6c.2.2.4.5.5.5"/><path stroke="#153D67" d="M38.1 26.1s.1.3.4.6c.2.2.4.5.5.5"/><path stroke="#14406C" d="M38.1 26.1s.1.3.4.6l.5.5"/><path stroke="#16416F" d="M38.1 26.1s.1.3.4.6l.5.6"/><path stroke="#154272" d="M38.1 26.1s.1.3.4.6c.2.3.5.6.5.6"/><path stroke="#283890" d="M38.1 26.1s.1.3.4.6c.2.3.5.6.5.6m.8 0 .4.1m-.3.3.4-.2"/><path stroke="#144371" d="m39.8 27.4.4.1"/><path stroke="#14406C" d="m39.8 27.4.4.1"/><path stroke="#153D67" d="M39.8 27.4h.4"/><path stroke="#143A62" d="M39.8 27.4h.5"/><path stroke="#13365C" d="M39.8 27.4h.5"/><path stroke="#123358" d="M39.8 27.4h.5"/><path stroke="#103053" d="M39.8 27.4h.5"/><path stroke="#0C2D4D" d="M39.8 27.5h.5"/><path stroke="#092B49" d="M39.8 27.5h.5"/><path stroke="#144371" d="m39.9 27.7.4-.2"/><path stroke="#14406C" d="m39.9 27.6.4-.1"/><path stroke="#153D67" d="m39.9 27.6.4-.1"/><path stroke="#143A62" d="m39.9 27.6.4-.1"/><path stroke="#13365C" d="m39.8 27.6.4-.1"/><path stroke="#123358" d="m39.8 27.6.4-.1"/><path stroke="#103053" d="m39.8 27.6.4-.1"/><path stroke="#0C2D4D" d="m39.8 27.5.5-.1"/><path stroke="#092B49" d="m39.8 27.5.5-.1"/><path stroke="#042843" d="m39.8 27.5.5-.1"/><path stroke="#0C2C4C" d="M40.2 30.8h-1.3"/><path stroke="#0D2F50" d="M40.2 30.8h-1.3"/><path stroke="#113154" d="M40.2 30.8H39"/><path stroke="#123459" d="M40.3 30.8h-1.2"/><path stroke="#13365C" d="M40.3 30.8s-.2 0-.3.1c-.1 0-.9-.1-.9-.1"/><path stroke="#133960" d="M40.3 30.8s-.2.1-.3.1c-.1 0-.9-.1-.9-.1"/><path stroke="#143C65" d="M40.3 30.8s-.2.1-.3.1c-.1 0-.9-.1-.9-.1"/><path stroke="#143D68" d="M40.3 30.8s-.2.1-.3.1c-.1 0-.9-.1-.9-.1"/><path stroke="#15416E" d="M40.3 30.8s-.2.1-.3.1c-.1 0-.9-.1-.9-.1"/><path stroke="#154272" d="M40.3 30.8s-.2.1-.3.1c-.1 0-.9-.1-.9-.1"/><path stroke="#283890" d="M39.1 30.8s.7.1.8.1c.1 0 .3-.1.3-.1"/><path stroke="#092B49" stroke-width=".017" d="M40.4 31.3s.4.1.5.1h.3l.2-.1"/><path stroke="#0D2E4F" stroke-width=".017" d="m40.4 31.3.5.1h.5"/><path stroke="#113154" stroke-width=".017" d="m40.4 31.3.5.1h.5"/><path stroke="#123459" stroke-width=".017" d="m40.3 31.3.5.1h.4"/><path stroke="#133960" stroke-width=".017" d="M40.3 31.3s.5.1.6.1h.4"/><path stroke="#143C65" stroke-width=".017" d="M40.3 31.2s.5.1.6.1h.3"/><path stroke="#143F6A" stroke-width=".017" d="M40.3 31.2s.5.1.6.1h.3"/><path stroke="#144371" stroke-width=".017" d="M40.2 31.2s.5.1.7.1h.3"/><path stroke="#042843" stroke-width=".016" d="m40.4 31.3.4.1h.3l.2-.1"/><path stroke="#283890" stroke-width=".017" d="M40.2 31.2s.5.1.7.1h.3"/><path stroke="#283890" d="M42.3 31.3s.3-.1.4-.2c.3-.1.3-.4.3-.4m-.7.5s.2-.1.3-.1c.4-.1.3-.3.3-.3"/><path stroke="#14406C" d="M42.3 31.2s.2-.1.3-.1l.2-.1c.1 0 .1-.1.1-.1v-.1"/><path stroke="#143A62" d="M42.3 31.2s.3-.1.4-.1c0 0 .1-.1.2-.1l.1-.1v-.1"/><path stroke="#123358" d="M42.2 31.2s.3-.1.4-.1c0 0 .1-.1.2-.1l.1-.1v-.2"/><path stroke="#0C2D4D" d="M42.2 31.3s.4-.1.4-.2l.2-.1s.1-.1.2-.1l.1-.2"/><path stroke="#14406C" d="M42.3 31.3s.3-.1.5-.2c.1 0 .2-.1.2-.2.1-.1.1-.2.1-.2"/><path stroke="#143A62" d="M42.3 31.3s.4-.1.5-.2c.1 0 .2-.1.2-.1 0-.1.1-.2.1-.2"/><path stroke="#123358" d="m42.3 31.3.5-.2.2-.1.1-.2"/><path stroke="#0C2D4D" d="M42.2 31.3s.5-.2.6-.2l.2-.1.1-.2"/><path stroke="#042843" d="m42.2 31.3.6-.2.2-.1.1-.2"/><path stroke="#0C2C4C" d="M42.9 30.8h-1.3"/><path stroke="#0D2F50" d="M42.9 30.8h-1.3"/><path stroke="#113154" d="M42.9 30.8h-1.3"/><path stroke="#123459" d="M42.9 30.8h-1.3"/><path stroke="#13365C" d="M42.9 30.8s-.2 0-.3.1c-.1 0-1-.1-1-.1"/><path stroke="#133960" d="M42.9 30.8s-.2.1-.3.1c-.1 0-.9-.1-.9-.1"/><path stroke="#143C65" d="M42.9 30.8s-.2.1-.3.1c-.1 0-.9-.1-.9-.1"/><path stroke="#143D68" d="M42.9 30.8s-.2.1-.3.1c-.1 0-.9-.1-.9-.1"/><path stroke="#15416E" d="M42.9 30.8s-.2.1-.3.1c-.1 0-.9-.1-.9-.1"/><path stroke="#154272" d="M42.9 30.8s-.2.1-.3.1c-.1 0-.9-.1-.9-.1"/><path stroke="#283890" d="M41.7 30.8s.7.1.9.1c.2 0 .3-.1.3-.1"/></g><path d="M39.3 26.7v-.3c0-.5-.1-.9 0-1.4l.1-1.4v-.4l2 2.3m-2.8 4.9c-.1 0-.1-.1-.2-.2l-.1-.4c0-.1 0-.2-.1-.3l-.2-.6c0-.5-.2-.8-.1-1.3l.1-1.3V26l2.3 1.5m2.8 3.3c0 .1 0 .1-.1.2v.1l-.1.1-.1.1-.1.1-.4.1c-.2 0-.1 0-.2.1-.1 0-.2.1-.2.1-.1 0-.1 0-.2.1-.3.1-.6 0-.8 0l-.5-.1c-.2-.1-.6-.2-.7-.3 0 0-.1-.1-.2-.1L39 31" stroke="#010101" stroke-width=".017" stroke-miterlimit="2.613" fill="none"/><g stroke="#010101" stroke-miterlimit="2.613"><path fill="#FFCD05" d="M40.4 27.4 38 25.8v.1l2.3 1.5zM38 25.8c0-.1 0-.2.1-.2h.2c-.1.1-.2.2-.3.2.1 0 .1 0 .2-.1.1 0 .1-.1 0-.2H38c-.1.2-.1.3 0 .3zm-.1.1c-.1 0-.2 0-.2.1v.1l.1.1c.1-.1.1-.2.1-.3.1-.1.1 0 0 0v.2c0 .1-.1.1-.2 0 0 0-.1-.2 0-.2.1-.1.2-.1.2 0 .1-.1.1 0 0 0zm0-.1c0 .1.1.1 0 0 .1.1.1 0 0 0zm-.5-.3s.2.1.4.1c0 0 0 .2.1.2h-.3c.1 0 0-.2-.2-.3z"/><path d="M37.6 25.6h.2v.1h-.1l-.1-.1z" fill="none"/><path fill="#FFCD05" d="M37.9 26s0-.1.1-.1c0 0 0 .1-.1.1.2.1.2.2.2.3-.1 0-.1.1-.2 0V26z"/><path d="M38 25.9c.1.1.1.2.1.3M38 26v.2m0-.1v.1" fill="none"/><path fill="#FFCD05" d="m41.6 25.4-2.1-2.3h-.1l2.1 2.4zm-2.1-2.3c0-.1.1-.2.1-.2h.1l.1.1s-.1.1-.3.1h.2c.1 0 .1-.1.1-.2 0 0-.2-.1-.2 0-.1 0-.1.1-.1.2zm-.1 0h-.2v.2c.1.1.2 0 .2-.2 0 .1 0 .1-.1.2h-.2v-.2h.3zm0 0c.1.1.1 0 0 0zm-.4-.4s.2.2.4.2v.2s-.2-.1-.3-.1c.1 0 0-.2-.1-.3z"/><path d="M39.2 22.8s.1.1.2.1v.1h-.1s-.1-.1-.1-.2z" fill="none"/><path fill="#FFCD05" d="M39.4 23.3c.1-.1.1 0 0 0 .1.1.1.3.1.3h-.2v-.1c0-.1.1-.2.1-.2z"/><path d="M39.5 23.2v.3m0-.2v.2m-.1 0v.1" fill="none"/></g><path fill="#fff" d="M46 27c.1-.4.3-1.1.3-1.3 0-.7 0-.9-.1-1.6l-.8.9v.5c0 .1 0 .4-.1.5l.7 1z"/><path fill="#283890" d="M45.3 26c.1-.1.1-.4.1-.5V25l-.4.5.3.5zm1.9.7v-.4c0-.5.1-.8 0-1.3l-.1-1.4v-.4l-.9 1c.1.7.1.9.1 1.6 0 .2-.1.9-.3 1.3l.2.3 1-.7zm-.7 1.3c.1-.1.1-.4.1-.4v-.5l-.5.3.4.6zm1.4 2.4c.1 0 .1-.1.2-.2l.1-.4c0-.1 0-.2.1-.3l.2-.6c0-.5.2-.8.1-1.3l-.1-1.3V26l-1 .7v1.5c0 .2-.1.8-.3 1.1l.7 1.1zm-1.6.4c-.2.2-.5.3-.6.3-.1.1-.3.2-.6.2-.2 0-.3 0-.6-.1h-.2c-.1 0-.1-.1-.3-.1-.1 0-.3-.1-.3-.2l-.1-.1h-.2c0 .1 0 .1.1.2v.1l.1.1.1.1.1.1.4.1c.2 0 .1 0 .2.1.1 0 .2.1.2.1.1 0 .1 0 .2.1.3.1.6 0 .8 0l.5-.1c.2-.1.6-.2.7-.3 0 0 .1-.1.2-.1l.5-.3-1.2-.2zm-1.4 0h-1.4c0 .1 0 .1.1.1l.3.2h.4c.5-.2.5-.3.6-.3z"/><path fill="#fff" d="M44.9 30.8c-.1.1-.2.2-.5.3l-.4.1.3.1h.2c.2 0 .3.1.6.1s.5-.1.6-.2c.1 0 .4-.1.6-.3l-1.4-.1z"/><g fill="none"><path stroke="#042843" d="M47 23.7s-.2 1.5-.7 1.4"/><path stroke="#092947" d="M46.3 25.1c.3 0 .5-.3.6-.7.1-.3.2-.7.2-.7"/><path stroke="#0C2C4C" d="M46.3 25.1c.3 0 .5-.4.6-.7.1-.3.2-.7.2-.7"/><path stroke="#0D2E4F" d="M46.3 25.1c.3 0 .5-.4.6-.7.1-.3.2-.7.2-.7"/><path stroke="#103053" d="M46.3 25.1c.3 0 .5-.4.6-.7.1-.3.2-.7.2-.7"/><path stroke="#123358" d="M46.3 25.1c.3-.1.5-.4.6-.7.1-.3.2-.7.2-.7"/><path stroke="#13355B" d="M46.3 25.1c.3-.1.5-.5.6-.7.1-.3.2-.7.2-.7"/><path stroke="#13375E" d="M46.3 25.1c.3-.1.5-.5.6-.7.1-.3.2-.7.2-.7"/><path stroke="#143A62" d="M46.3 25.1c.3-.1.5-.5.5-.7.1-.3.2-.7.2-.7"/><path stroke="#153D67" d="M46.3 25.1c.3-.1.5-.6.5-.7.1-.3.2-.7.2-.7"/><path stroke="#143F6A" d="M46.3 25.1c.3-.1.5-.6.5-.7.1-.3.2-.7.2-.7"/><path stroke="#15416E" d="M46.3 25.1c.3-.2.5-.6.5-.7.1-.3.2-.6.2-.7"/><path stroke="#154272" d="M46.2 25.1c.3-.2.5-.6.5-.7.1-.2.2-.6.2-.7"/><path stroke="#283890" d="M47 23.7s-.1.4-.2.7c0 .1-.2.5-.5.7"/><path stroke="#042843" d="M47 23.4s-.5 1.2-.8 1"/><path stroke="#092B49" d="M46.2 24.4c.1.1.3-.2.5-.4.2-.3.3-.6.3-.6"/><path stroke="#0D2E4F" d="M46.2 24.4c.1.1.3-.2.5-.5l.3-.6"/><path stroke="#113154" d="M46.2 24.4c.1 0 .3-.2.5-.5l.3-.6"/><path stroke="#123459" d="M46.2 24.4c.1 0 .3-.2.5-.5l.3-.6"/><path stroke="#133960" d="M46.2 24.4c.1 0 .3-.2.5-.5l.3-.6"/><path stroke="#143C65" d="M46.2 24.4c.1 0 .3-.2.5-.5l.3-.6"/><path stroke="#143F6A" d="M46.2 24.4s.3-.2.5-.5l.3-.6"/><path stroke="#144371" d="M46.2 24.4s.3-.2.5-.5l.3-.6"/><path stroke="#283890" d="M47 23.4s-.1.1-.3.6c-.2.3-.4.5-.4.5m-.9 1.1-.4-.1m.4-.3-.4.2"/><path stroke="#144371" d="m45.4 25.2-.4.2"/><path stroke="#14406C" d="m45.4 25.3-.4.1"/><path stroke="#153D67" d="m45.4 25.3-.4.1"/><path stroke="#143A62" d="m45.4 25.3-.4.1"/><path stroke="#13365C" d="m45.4 25.3-.4.1"/><path stroke="#123358" d="m45.4 25.3-.4.2"/><path stroke="#103053" d="m45.4 25.3-.4.2"/><path stroke="#0C2D4D" d="m45.4 25.4-.4.1"/><path stroke="#092B49" d="m45.4 25.4-.4.1"/><path stroke="#144371" d="m45.4 25.6-.4-.1"/><path stroke="#14406C" d="M45.4 25.6H45"/><path stroke="#153D67" d="M45.4 25.5H45"/><path stroke="#143A62" d="M45.4 25.5H45"/><path stroke="#13365C" d="M45.4 25.5H45"/><path stroke="#123358" d="M45.4 25.5H45"/><path stroke="#103053" d="M45.4 25.5H45"/><path stroke="#0C2D4D" d="M45.4 25.4H45"/><path stroke="#092B49" d="m45.4 25.4-.4.1"/><path stroke="#042843" d="m45.4 25.4-.4.1m2.2 0s0 .3-.1.4c-.1.2-.4.5-.7.7"/><path stroke="#092947" d="M46.4 26.6c.2-.1.4-.3.5-.5.1-.1.1-.2.2-.2.1-.1.1-.4.1-.4"/><path stroke="#0C2C4C" d="M46.4 26.6c.2-.1.4-.3.5-.5.1 0 .1-.1.1-.2.1-.1.1-.4.1-.4"/><path stroke="#0D2E4F" d="M46.3 26.6c.2-.1.4-.3.5-.5.1-.1.1-.2.2-.2.1-.1.1-.4.1-.4"/><path stroke="#103053" d="M46.3 26.6c.2-.1.4-.3.5-.5.1-.1.1-.2.2-.2.1-.1.1-.4.1-.4"/><path stroke="#123358" d="M46.3 26.6c.2-.1.4-.3.5-.5l.2-.2c.1-.2.1-.4.1-.4"/><path stroke="#13355B" d="M46.3 26.6c.2-.1.4-.4.5-.5l.2-.2.2-.4"/><path stroke="#13375E" d="M46.3 26.6c.2-.1.4-.4.5-.5l.2-.2.2-.4"/><path stroke="#143A62" d="M46.3 26.6c.2-.1.4-.4.5-.5l.2-.2.2-.4"/><path stroke="#153D67" d="M46.3 26.6c.2-.1.4-.4.5-.5l.2-.2.2-.4"/><path stroke="#143F6A" d="M46.3 26.6c.2-.1.4-.4.5-.5l.2-.2.2-.4"/><path stroke="#15416E" d="m46.3 26.6.5-.5c0-.1.1-.1.2-.2l.2-.4"/><path stroke="#154272" d="m46.3 26.6.5-.5c0-.1.1-.1.2-.2l.2-.4"/><path stroke="#283890" d="M47.2 25.4s-.3.5-.4.7c-.1.1-.3.4-.5.5"/><path stroke="#081E32" d="M47.1 26.7c-.3.2-.4.3-1 .6L46 27s.1-.2.1-.3"/><path stroke="#081F33" d="M47.1 26.7c-.3.2-.4.3-1 .6l-.2-.3v-.1c0-.1 0-.1.1-.2"/><path stroke="#082136" d="M47.1 26.7c-.3.2-.4.3-1 .6l-.2-.3v-.1c0-.1 0-.1.1-.2"/><path stroke="#072238" d="M47.1 26.7c-.3.2-.4.3-1 .6 0 0-.2-.3-.1-.3v-.1c0-.1 0-.1.1-.2"/><path stroke="#06233B" d="M47.1 26.7c-.3.2-.4.3-1 .6L46 27v-.2"/><path stroke="#05243D" d="M47.1 26.7c-.3.2-.4.3-1 .6L46 27v-.2"/><path stroke="#022640" d="M47.1 26.7c-.2.2-.5.3-1 .6L46 27v-.2"/><path stroke="#042541" d="M47.1 26.7c-.2.2-.5.3-1 .6L46 27v-.2"/><path stroke="#042843" d="M47.1 26.7c-.2.1-.5.3-1 .6L46 27v-.1"/><path stroke="#092947" d="M47.1 26.7c-.2.1-.5.3-1 .6L46 27v-.1"/><path stroke="#092B49" d="M47.1 26.7c-.2.1-.5.3-1 .5l-.1-.3v-.1"/><path stroke="#0B2A4A" d="M47.1 26.7c-.2.1-.5.3-1 .5l-.1-.3v-.1"/><path stroke="#0C2C4C" d="m47.1 26.7-1 .5s-.1-.3 0-.3v-.1"/><path stroke="#0D2E4F" d="m47.1 26.7-1 .5v-.4"/><path stroke="#0D2F50" d="M47.1 26.7c-.2.1-.6.4-1 .5v-.4"/><path stroke="#103053" d="M47.1 26.7c-.2.1-.6.4-1 .5v-.4"/><path stroke="#123256" d="M47.1 26.7c-.1.1-.6.4-1 .5v-.4"/><path stroke="#123358" d="M47.1 26.7c-.1.1-.6.4-1 .5v-.3"/><path stroke="#123459" d="M47.1 26.7c-.1.1-.7.4-1 .5v-.3"/><path stroke="#13365C" d="M47.1 26.7c-.1.1-.7.4-1 .4v-.3"/><path stroke="#13375E" d="M47.1 26.7c-.1.1-.7.4-1 .4v-.3"/><path stroke="#133960" d="M47.1 26.7c-.1.1-.7.4-1 .4 0-.1 0-.2.1-.3h-.1"/><path stroke="#143A62" d="M47.1 26.7c-.1.1-.7.4-1 .4l.1-.3H46"/><path stroke="#143C65" d="M47.1 26.7c-.1.1-.7.4-1 .4l.1-.3H46"/><path stroke="#153D67" d="M47.1 26.7c-.1 0-.7.4-1 .4l.1-.3H46"/><path stroke="#143D68" d="M47.1 26.7c-.1 0-.8.4-1 .4 0-.1.1-.2.1-.2H46"/><path stroke="#14406C" d="M47.1 26.6c-.1 0-.8.4-1 .4 0-.1.1-.2.1-.2h-.1s0 .1-.1 0"/><path stroke="#15416E" d="M47.1 26.6s-.8.4-1 .4c0-.1.1-.2.1-.2h-.1s-.1.1-.1 0"/><path stroke="#16416F" d="M47.1 26.6s-.8.5-1 .4c0-.1.1-.2.1-.2h-.1s-.1.1-.1 0"/><path stroke="#144371" d="M47.1 26.6s-.8.5-1 .3c0-.1.1-.2.1-.2h-.1s-.1.1-.1 0"/><path stroke="#144474" d="M47.1 26.6s-.8.5-1 .3c0-.1.1-.2.2-.2h-.1l-.1.1"/><path stroke="#283890" d="M47.1 26.6s-.9.5-1 .3c0-.1.2-.2.2-.2h-.1l-.1.1"/><path stroke="#081E32" d="m47.2 29.2.7 1.2c.1 0 .1-.1.2-.2l.1-.4v-.3l.2-.6m.1 0-.2.6v.3c0 .2 0 .2-.1.3 0 .1-.1.2-.2.2l-.7-1.2"/><path stroke="#081F33" d="m48.5 28.9-.2.6c0 .1 0 .2-.1.3 0 .2 0 .2-.1.3 0 .1-.1.2-.2.2l-.7-1.2m1.3-.2-.2.6c0 .1 0 .2-.1.3 0 .2 0 .2-.1.3 0 .1-.1.2-.2.2l-.7-1.2"/><path stroke="#072135" d="m48.5 28.9-.2.6c0 .1 0 .2-.1.3 0 .2 0 .2-.1.3 0 .1-.1.2-.2.2l-.7-1.2m1.3-.2-.2.6c0 .1 0 .2-.1.3 0 .2 0 .2-.1.3 0 .1-.1.2-.2.2l-.7-1.2"/><path stroke="#082136" d="m48.5 28.9-.2.6c0 .1 0 .2-.1.3 0 .2 0 .2-.1.3 0 .1-.1.2-.2.2l-.7-1.1m1.3-.3-.2.6c0 .1 0 .2-.1.3 0 .2 0 .2-.1.3 0 .1-.1.2-.2.2l-.7-1.1"/><path stroke="#072238" d="m48.5 28.9-.2.6c0 .1 0 .2-.1.3 0 .2 0 .2-.1.3 0 .1-.1.2-.2.2l-.7-1.1m1.3-.3c0 .1-.2.4-.2.6 0 .1 0 .2-.1.3 0 .2 0 .2-.1.3 0 .1-.1.2-.2.2l-.7-1.1m1.3-.3c0 .1-.1.4-.2.5 0 .1 0 .2-.1.3 0 .2 0 .2-.1.3 0 .1-.1.2-.2.2l-.7-1.1"/><path stroke="#06233B" d="M48.5 28.9c0 .1-.1.4-.2.5 0 .1 0 .2-.1.3 0 .2 0 .2-.1.3 0 .1-.1.2-.2.2l-.7-1.1m1.3-.2c0 .1-.1.4-.2.5 0 .1 0 .2-.1.3 0 .2 0 .2-.1.3 0 .1-.1.2-.2.2l-.7-1.1"/><path stroke="#05243D" d="M48.5 28.9c0 .1-.1.4-.2.5 0 .1 0 .2-.1.3 0 .2 0 .2-.1.3 0 .1-.1.2-.2.2 0 0-.7-1-.7-1.1m1.3-.2c0 .1-.1.4-.2.5 0 .1 0 .2-.1.3 0 .2 0 .2-.1.3 0 .1-.1.2-.2.2l-.7-1"/><path stroke="#05243E" d="M48.5 28.9c0 .1-.1.4-.2.5 0 .1 0 .2-.1.3 0 .2 0 .2-.1.3 0 .1-.1.2-.2.2l-.7-1m1.3-.3c0 .1-.1.4-.2.5 0 .1 0 .2-.1.3 0 .2 0 .2-.1.3 0 .1-.1.2-.2.2l-.7-1"/><path stroke="#022640" d="M48.5 28.9c0 .1-.1.4-.2.5 0 .1 0 .2-.1.3 0 .2 0 .2-.1.3 0 .1-.1.2-.2.2l-.7-1m1.3-.3c0 .1-.1.4-.2.5 0 .1 0 .2-.1.3 0 .2 0 .2-.1.3 0 .1-.1.1-.2.2l-.7-1m1.3-.3c0 .1-.1.4-.2.5 0 .1 0 .2-.1.3 0 .1 0 .2-.1.3 0 .1-.1.1-.2.2 0 0-.7-.9-.7-1"/><path stroke="#042541" d="M48.5 28.9c0 .1-.1.4-.2.5 0 .1 0 .2-.1.3 0 .1 0 .1-.1.3 0 .1-.1.1-.2.2 0 0-.7-.9-.7-1m1.3-.3c0 .1-.1.4-.2.5 0 .1 0 .2-.1.3 0 .1 0 .1-.1.3 0 .1-.1.1-.2.2l-.7-.9"/><path stroke="#042843" d="M48.5 28.9c0 .1-.1.4-.2.5 0 .1 0 .2-.1.3 0 .1 0 .1-.1.3 0 .1-.1.1-.2.2-.1 0-.7-.9-.7-.9m1.3-.4c0 .1-.1.4-.2.5 0 .1 0 .2-.1.3 0 .1 0 .1-.1.3 0 .1-.1.1-.2.2-.1 0-.7-.9-.7-.9"/><path stroke="#062845" d="M48.5 28.9c0 .1-.1.4-.2.5 0 .1 0 .2-.1.3 0 .1 0 .1-.1.3 0 .1-.1.1-.2.2-.1 0-.7-.9-.7-.9m1.3-.4c0 .1-.1.4-.2.5 0 .1 0 .2-.1.3 0 .1-.1.1-.1.3 0 .1-.1.1-.2.2-.1 0-.7-.9-.7-.9"/><path stroke="#092947" d="M48.5 28.9c0 .1-.1.4-.2.5 0 .1 0 .2-.1.3 0 .1-.1.1-.1.3 0 .1-.1.1-.2.2-.1 0-.7-.8-.7-.9m1.3-.4c0 .1-.1.4-.2.5 0 .1 0 .2-.1.3 0 .1 0 .1-.1.3 0 .1-.1.1-.2.2-.1 0-.7-.8-.7-.9m1.3-.4c0 .1-.1.4-.2.4 0 .1 0 .2-.1.3 0 .1-.1.1-.1.3 0 .1-.1.1-.2.2l-.7-.8"/><path stroke="#092B49" d="M48.5 28.9c0 .1-.1.4-.2.4 0 .1 0 .2-.1.2 0 .1-.1.1-.1.3 0 .1-.1.1-.2.2l-.7-.8m1.3-.3c0 .1-.1.3-.2.4 0 .1 0 .2-.1.2 0 .1-.1.1-.1.3 0 .1-.1.1-.2.2l-.7-.8"/><path stroke="#0B2A4A" d="M48.5 28.9c0 .1-.1.3-.2.4 0 .1 0 .2-.1.2 0 .1-.1.1-.1.3 0 .1-.1.1-.2.2l-.7-.8m1.3-.3c0 .1-.1.3-.2.4 0 .1 0 .2-.1.2 0 .1-.1.1-.1.3 0 .1-.1.1-.2.2l-.7-.8"/><path stroke="#0C2C4C" d="M48.5 28.9c0 .1-.1.3-.2.4 0 .1 0 .2-.1.2l-.1.2c0 .1-.1.1-.2.2-.1 0-.6-.7-.7-.8m1.3-.2c0 .1-.1.3-.2.4 0 .1 0 .2-.1.2l-.1.2c0 .1-.1.1-.2.1s-.6-.7-.7-.8"/><path stroke="#0C2D4D" d="M48.5 28.9c0 .1-.1.3-.2.4 0 .1 0 .2-.1.2l-.1.2c0 .1-.1.1-.2.1s-.6-.7-.7-.8m1.3-.1c0 .1-.1.3-.2.4 0 .1 0 .2-.1.2l-.1.2c0 .1-.1.1-.2.1l-.7-.7m1.3-.2c0 .1-.1.3-.2.4 0 .1 0 .2-.1.2l-.1.2c0 .1-.1.1-.2.1l-.7-.7"/><path stroke="#0D2E4F" d="M48.5 28.9c0 .1-.1.3-.2.4 0 .1 0 .2-.1.2l-.1.2c0 .1-.1.1-.2.1l-.7-.7m1.3-.2c0 .1-.1.3-.2.4 0 .1 0 .1-.1.2l-.1.2c0 .1-.1.1-.2.1l-.7-.7"/><path stroke="#0D2F50" d="M48.5 28.9c0 .1-.1.3-.2.4 0 .1 0 .1-.1.2l-.1.2c0 .1-.1.1-.2.1l-.7-.7m1.3-.2c0 .1-.1.3-.2.4 0 .1 0 .1-.1.2l-.1.2c0 .1-.1.1-.2.1l-.7-.7"/><path stroke="#103053" d="M48.5 28.9c0 .1-.1.3-.2.4 0 .1 0 .1-.1.2l-.1.2c0 .1-.1.1-.1.1-.1 0-.6-.6-.7-.7m1.2-.2c0 .1-.1.3-.2.4 0 .1 0 .1-.1.2l-.1.2c0 .1-.1.1-.1.1l-.7-.6"/><path stroke="#113154" d="M48.5 28.9c0 .1-.1.3-.2.4 0 .1 0 .1-.1.2l-.1.2s-.1.1-.2.1l-.7-.6m1.3-.3c0 .1-.1.3-.2.4 0 .1 0 .1-.1.2l-.1.2s-.1.1-.2.1l-.7-.6m1.3-.3c0 .1-.1.3-.2.3l-.1.2-.1.2-.1.1-.7-.6"/><path stroke="#123256" d="M48.5 28.9c0 .1-.1.3-.2.3l-.1.2-.1.2-.1.1c-.1 0-.6-.5-.7-.6m1.2-.2c0 .1-.1.3-.2.3l-.1.2-.1.2-.1.1c-.1 0-.6-.5-.7-.6"/><path stroke="#123358" d="M48.5 28.9c0 .1-.1.3-.2.3l-.1.2-.1.2-.1.1c-.1 0-.6-.5-.7-.6m1.2-.2c0 .1-.1.2-.2.3l-.1.2-.1.2-.1.1-.7-.5"/><path stroke="#123459" d="M48.5 28.9c0 .1-.1.2-.2.3l-.1.2-.1.2-.1.1-.7-.5m1.2-.3c0 .1-.1.2-.2.3l-.1.2-.1.2-.1.1-.7-.5"/><path stroke="#13355B" d="M48.5 28.9c0 .1-.1.2-.2.3l-.1.2-.1.2-.1.1c-.1 0-.6-.4-.7-.5m1.2-.3c0 .1-.1.2-.2.3l-.1.2-.1.2-.1.1c-.1 0-.6-.4-.7-.5m1.2-.3c0 .1-.1.2-.2.3l-.1.2-.1.2-.1.1c-.1 0-.6-.4-.7-.5"/><path stroke="#13365C" d="M48.5 28.9c0 .1-.1.2-.2.3l-.1.2-.1.2-.1.1c-.1 0-.6-.4-.7-.5m1.2-.3c0 .1-.1.2-.2.3l-.1.2-.1.2-.1.1-.7-.4"/><path stroke="#13375E" d="M48.5 28.9c0 .1-.1.2-.2.3l-.1.2-.1.2-.1.1-.7-.4m1.2-.4c0 .1-.1.2-.2.3l-.1.2-.1.2-.1.1-.7-.4"/><path stroke="#133960" d="M48.5 28.9c0 .1-.1.2-.2.3l-.1.2-.1.2-.1.1c-.1 0-.5-.3-.7-.4m1.2-.4s-.1.2-.2.3c0 0-.1.1-.1.2l-.1.2-.1.1c-.1 0-.5-.3-.7-.4"/><path stroke="#143A62" d="M48.5 28.9s-.1.2-.2.3l-.1.2-.1.2-.1.1c-.1 0-.5-.3-.7-.4m1.2-.4s-.1.2-.2.3l-.1.1-.1.2-.1.1c-.1 0-.5-.3-.7-.4m1.2-.3s-.1.2-.2.2c0 .1-.1.1-.1.1 0 .1-.1.1-.1.1l-.1.1c-.1 0-.5-.3-.7-.4"/><path stroke="#143B63" d="M48.5 28.9s-.1.2-.2.2l-.1.1c0 .1-.1.1-.1.1l-.1.1c-.1 0-.5-.3-.7-.3m1.2-.2s-.1.2-.2.2l-.1.1c0 .1-.1.1-.1.1l-.1.1-.7-.3"/><path stroke="#143C65" d="M48.5 28.9s-.1.2-.2.2l-.1.1c0 .1-.1.1-.1.1l-.1.1-.7-.3m1.2-.2s-.1.2-.2.2l-.1.1c0 .1-.1.1-.1.1l-.1.1c-.2.1-.5-.2-.7-.3"/><path stroke="#153D67" d="m48.5 28.9-.2.2-.1.1c0 .1-.1.1-.1.1l-.1.1c-.2 0-.5-.2-.7-.3m1.2-.2-.2.2-.1.1c0 .1-.1.1-.1.1l-.1.1c-.2 0-.5-.2-.7-.3"/><path stroke="#143D68" d="m48.5 28.9-.2.2-.1.1c0 .1-.1.1-.1.1l-.1.1c-.2.1-.5-.2-.7-.3m1.2-.2-.2.2-.1.1c0 .1-.1.1-.1.1l-.1.1c-.2.1-.5-.2-.7-.2m1.2-.3-.2.2-.1.1c0 .1-.1.1-.1.1l-.1.1c-.2.1-.5-.2-.7-.2"/><path stroke="#143F6A" d="m48.5 28.9-.2.2-.1.1c0 .1-.1.1-.1.1l-.1.1c-.2.1-.5-.1-.7-.2m1.2-.3-.2.2-.1.1-.1.1-.1.1c-.2.1-.5-.1-.7-.2"/><path stroke="#14406C" d="m48.5 28.9-.2.2-.1.1-.1.1-.1.1c-.2.1-.5-.1-.7-.2m1.2-.3-.2.2-.1.1-.1.1-.1.1c-.2.1-.5-.1-.7-.2"/><path stroke="#15416E" d="m48.5 28.9-.2.2-.1.1-.1.1-.1.1c-.2.1-.5-.1-.7-.2m1.2-.3-.2.2-.1.1-.1.1-.1.1c-.2.1-.5-.1-.7-.1"/><path stroke="#16416F" d="m48.5 28.9-.2.2-.1.1-.1.1s-.1 0-.1.1c-.2.1-.5-.1-.7-.1m1.2-.4-.2.2-.1.1-.1.1s-.1 0-.1.1c-.2.1-.5 0-.7-.1m1.2-.4s-.1.1-.2.1l-.1.1-.1.1s-.1 0-.1.1c-.2.1-.5 0-.7-.1"/><path stroke="#144371" d="M48.5 28.9s-.1.1-.2.1l-.1.1-.1.1s-.1 0-.1.1c-.2.1-.5 0-.7-.1m1.2-.3s-.1.1-.2.1l-.1.1-.1.1s-.1 0-.1.1c-.2.1-.5 0-.7-.1"/><path stroke="#154272" d="M48.5 28.9s-.1.1-.2.1l-.1.1-.1.1s-.1 0-.1.1c-.2.1-.5 0-.7-.1m1.2-.3s-.1.1-.2.1l-.1.1-.1.1s-.1 0-.1.1c-.2.1-.5 0-.7-.1"/><path stroke="#144474" d="M48.5 28.9s-.1.1-.2.1c0 0-.1 0-.1.1l-.1.1H48c-.2.1-.5 0-.7 0m1.2-.3s-.1.1-.2.1c0 0-.1 0-.1.1 0 0-.1 0-.1.1H48c-.2.1-.5.1-.7 0"/><path stroke="#283890" d="M48.5 28.9s-.1.1-.2.1c0 0-.1 0-.1.1 0 0-.1 0-.1.1H48c-.2.1-.5.1-.7 0m1.2-.3s-.6.5-1.2.3"/><path stroke="#042843" d="M48.5 26.9s-.1.8-.2.9c0 .1-.3.6-.7.7"/><path stroke="#092B49" d="M48.5 26.9s-.1.8-.2.9c0 .1-.3.5-.7.7"/><path stroke="#0C2C4C" d="M48.5 26.9s-.1.8-.2.9c0 .1-.3.5-.7.7"/><path stroke="#0D2F50" d="M48.5 26.9s-.1.8-.2.9c0 .1-.2.5-.6.7"/><path stroke="#113154" d="M48.5 26.9s-.1.8-.2.9c-.1.1-.2.5-.6.7"/><path stroke="#123459" d="M48.5 26.9s-.2.8-.2.9c0 .1-.2.4-.6.7"/><path stroke="#13365C" d="M48.5 26.9s-.2.8-.2.9c-.1.1-.2.4-.6.7"/><path stroke="#133960" d="M48.5 26.9s-.2.8-.2.9c-.1.1-.2.4-.6.7"/><path stroke="#143C65" d="M48.5 26.9s-.2.7-.2.9c-.1.1-.2.4-.6.7"/><path stroke="#143D68" d="M48.5 26.9s-.2.7-.2.9c-.1.1-.2.3-.6.7"/><path stroke="#15416E" d="M48.5 26.9s-.2.7-.3.9c-.1.1-.1.3-.6.7"/><path stroke="#154272" d="M48.5 26.9s-.2.7-.3.8c-.1.1-.1.3-.6.7"/><path stroke="#283890" d="M48.5 26.9s-.2.7-.3.8c-.1.1-.1.3-.6.7"/><path stroke="#042843" d="M48.4 26.4s-.1 1.1-.9 1.4"/><path stroke="#092B49" d="M48.4 26.4s0 .4-.2.7c-.1.3-.3.6-.7.7"/><path stroke="#0C2C4C" d="M48.4 26.4s-.1.4-.2.7c-.1.2-.3.6-.7.7"/><path stroke="#0D2F50" d="M48.4 26.4s-.1.4-.2.7c-.1.2-.3.6-.7.7"/><path stroke="#113154" d="M48.4 26.4s-.1.4-.2.7c-.1.2-.3.6-.7.7"/><path stroke="#123459" d="M48.4 26.4s-.1.4-.2.7c-.1.2-.3.5-.7.7"/><path stroke="#13365C" d="M48.4 26.4s-.1.4-.2.7c-.1.2-.3.5-.6.7"/><path stroke="#133960" d="M48.4 26.4s-.1.4-.3.7c-.1.2-.3.5-.6.7"/><path stroke="#143C65" d="M48.4 26.4s-.1.4-.3.7c-.1.1-.3.5-.6.7"/><path stroke="#143D68" d="M48.4 26.4s-.1.4-.3.7c-.1.1-.3.5-.6.7"/><path stroke="#15416E" d="M48.4 26.4s-.1.4-.3.7c-.1.1-.3.5-.6.7"/><path stroke="#154272" d="M48.4 26.4s-.1.5-.3.7c-.1.1-.3.5-.6.7"/><path stroke="#283890" d="M48.4 26.4s-.2.5-.3.6c0 .1-.2.5-.6.8"/><path stroke="#042843" d="M48.4 26.1s-.2.9-.9 1.1"/><path stroke="#092947" d="M48.4 26.1s-.1.3-.3.6c-.1.2-.3.4-.6.5"/><path stroke="#0B2A4A" d="M48.4 26.1s-.1.3-.3.6c-.1.2-.4.4-.6.5"/><path stroke="#0C2D4D" d="M48.4 26.1s-.1.3-.3.6c-.2.2-.4.4-.6.5"/><path stroke="#103053" d="M48.4 26.1s-.1.3-.3.6c-.2.2-.4.4-.6.5"/><path stroke="#123256" d="M48.4 26.1s-.1.3-.3.6c-.2.2-.4.5-.6.5"/><path stroke="#123459" d="M48.4 26.1s-.1.3-.3.6c-.2.2-.4.5-.6.5"/><path stroke="#13365C" d="M48.4 26.1s-.1.3-.3.6c-.2.2-.4.5-.5.5"/><path stroke="#133960" d="M48.4 26.1s-.1.3-.3.6c-.2.2-.4.5-.5.5"/><path stroke="#143B63" d="M48.4 26.1s-.1.3-.4.6c-.2.2-.4.5-.5.5"/><path stroke="#153D67" d="M48.4 26.1s-.1.3-.4.6c-.2.2-.4.5-.5.5"/><path stroke="#14406C" d="M48.4 26.1s-.1.3-.4.6l-.5.5"/><path stroke="#16416F" d="M48.4 26.1s-.1.3-.4.6l-.5.6"/><path stroke="#154272" d="M48.4 26.1s-.1.3-.4.6c-.2.3-.5.6-.5.6"/><path stroke="#283890" d="M48.4 26.1s-.1.3-.4.6c-.2.3-.5.6-.5.6m-.8 0-.4.1m.3.3-.4-.2"/><path stroke="#144371" d="m46.7 27.4-.4.1"/><path stroke="#14406C" d="m46.7 27.4-.4.1"/><path stroke="#153D67" d="M46.7 27.4h-.4"/><path stroke="#143A62" d="M46.7 27.4h-.5"/><path stroke="#13365C" d="M46.7 27.4h-.5"/><path stroke="#123358" d="M46.7 27.4h-.5"/><path stroke="#103053" d="M46.7 27.4h-.5"/><path stroke="#0C2D4D" d="M46.7 27.5h-.5"/><path stroke="#092B49" d="M46.7 27.5h-.5"/><path stroke="#144371" d="m46.6 27.7-.4-.2"/><path stroke="#14406C" d="m46.6 27.6-.4-.1"/><path stroke="#153D67" d="m46.6 27.6-.4-.1"/><path stroke="#143A62" d="m46.6 27.6-.4-.1"/><path stroke="#13365C" d="m46.7 27.6-.4-.1"/><path stroke="#123358" d="m46.7 27.6-.4-.1"/><path stroke="#103053" d="m46.7 27.6-.4-.1"/><path stroke="#0C2D4D" d="m46.7 27.5-.5-.1"/><path stroke="#092B49" d="m46.7 27.5-.5-.1"/><path stroke="#042843" d="m46.7 27.5-.5-.1"/><path stroke="#0C2C4C" d="M46.3 30.8h1.3"/><path stroke="#0D2F50" d="M46.3 30.8h1.3"/><path stroke="#113154" d="M46.3 30.8h1.2"/><path stroke="#123459" d="M46.3 30.8h1.2"/><path stroke="#13365C" d="M46.3 30.8s.2 0 .3.1c.1 0 .9-.1.9-.1"/><path stroke="#133960" d="M46.3 30.8s.2.1.3.1c.1 0 .9-.1.9-.1"/><path stroke="#143C65" d="M46.2 30.8s.2.1.3.1c.1 0 .9-.1.9-.1"/><path stroke="#143D68" d="M46.2 30.8s.2.1.3.1c.1 0 .9-.1.9-.1"/><path stroke="#15416E" d="M46.2 30.8s.2.1.3.1c.1 0 .9-.1.9-.1"/><path stroke="#154272" d="M46.2 30.8s.2.1.3.1c.1 0 .9-.1.9-.1"/><path stroke="#283890" d="M47.4 30.8s-.7.1-.8.1c-.1 0-.3-.1-.3-.1"/><path stroke="#092B49" stroke-width=".017" d="M46.1 31.3s-.4.1-.5.1h-.3l-.2-.1"/><path stroke="#0D2E4F" stroke-width=".017" d="m46.1 31.3-.5.1h-.5"/><path stroke="#113154" stroke-width=".017" d="m46.1 31.3-.5.1h-.5"/><path stroke="#123459" stroke-width=".017" d="m46.2 31.3-.5.1h-.4"/><path stroke="#133960" stroke-width=".017" d="M46.2 31.3s-.5.1-.6.1h-.4"/><path stroke="#143C65" stroke-width=".017" d="M46.2 31.2s-.5.1-.6.1h-.3"/><path stroke="#143F6A" stroke-width=".017" d="M46.2 31.2s-.5.1-.6.1h-.3"/><path stroke="#144371" stroke-width=".017" d="M46.3 31.2s-.5.1-.7.1h-.3"/><path stroke="#042843" stroke-width=".016" d="m46.1 31.3-.4.1h-.3l-.2-.1"/><path stroke="#283890" stroke-width=".017" d="M46.3 31.2s-.5.1-.7.1h-.3"/><path stroke="#283890" d="M44.2 31.3s-.3-.1-.4-.2c-.3-.1-.3-.4-.3-.4m.7.5s-.2-.1-.3-.1c-.4-.1-.3-.3-.3-.3"/><path stroke="#14406C" d="M44.2 31.2s-.2-.1-.3-.1l-.2-.1c-.1 0-.1-.1-.1-.1v-.1"/><path stroke="#143A62" d="M44.2 31.2s-.3-.1-.4-.1c0 0-.1-.1-.2-.1l-.1-.1v-.1"/><path stroke="#123358" d="M44.3 31.2s-.3-.1-.4-.1c0 0-.1-.1-.2-.1l-.1-.1v-.2"/><path stroke="#0C2D4D" d="M44.3 31.3s-.4-.1-.4-.2l-.2-.1s-.1-.1-.2-.1l-.1-.2"/><path stroke="#14406C" d="M44.2 31.3s-.3-.1-.5-.2c-.1 0-.2-.1-.2-.2-.1-.1-.1-.2-.1-.2"/><path stroke="#143A62" d="M44.2 31.3s-.4-.1-.5-.2c-.1 0-.2-.1-.2-.1 0-.1-.1-.2-.1-.2"/><path stroke="#123358" d="m44.2 31.3-.5-.2-.2-.1-.1-.2"/><path stroke="#0C2D4D" d="M44.3 31.3s-.5-.2-.6-.2l-.2-.1-.1-.2"/><path stroke="#042843" d="m44.3 31.3-.6-.2-.2-.1-.1-.2"/><path stroke="#0C2C4C" d="M43.6 30.8h1.3"/><path stroke="#0D2F50" d="M43.6 30.8h1.3"/><path stroke="#113154" d="M43.6 30.8h1.3"/><path stroke="#123459" d="M43.6 30.8h1.3"/><path stroke="#13365C" d="M43.6 30.8s.2 0 .3.1c.1 0 1-.1 1-.1"/><path stroke="#133960" d="M43.6 30.8s.2.1.3.1c.1 0 .9-.1.9-.1"/><path stroke="#143C65" d="M43.6 30.8s.2.1.3.1c.1 0 .9-.1.9-.1"/><path stroke="#143D68" d="M43.6 30.8s.2.1.3.1c.1 0 .9-.1.9-.1"/><path stroke="#15416E" d="M43.6 30.8s.2.1.3.1c.1 0 .9-.1.9-.1"/><path stroke="#154272" d="M43.6 30.8s.2.1.3.1c.1 0 .9-.1.9-.1"/><path stroke="#283890" d="M44.8 30.8s-.7.1-.9.1c-.2 0-.3-.1-.3-.1"/></g><path d="M47.2 26.7v-.3c0-.5.1-.9 0-1.4l-.1-1.4v-.4l-2 2.3m2.8 4.9c.1 0 .1-.1.2-.2l.1-.4c0-.1 0-.2.1-.3l.2-.6c0-.5.2-.8.1-1.3l-.1-1.3V26l-2.3 1.5m-2.8 3.3c0 .1 0 .1.1.2v.1l.1.1.1.1.1.1.4.1c.2 0 .1 0 .2.1.1 0 .2.1.2.1.1 0 .1 0 .2.1.3.1.6 0 .8 0l.5-.1c.2-.1.6-.2.7-.3 0 0 .1-.1.2-.1l.5-.3" stroke="#010101" stroke-width=".017" stroke-miterlimit="2.613" fill="none"/><g stroke="#010101" stroke-miterlimit="2.613"><path fill="#FFCD05" d="m46.1 27.4 2.4-1.6v.1l-2.3 1.5zm2.4-1.6c0-.1 0-.2-.1-.2h-.2c.1.1.2.2.3.2-.1 0-.1 0-.2-.1-.1 0-.1-.1 0-.2h.2c.1.2.1.3 0 .3zm.1.1c.1 0 .2 0 .2.1v.1l-.1.1c-.1-.1-.1-.2-.1-.3-.1-.1-.1 0 0 0v.2c0 .1.1.1.2 0 0 0 .1-.2 0-.2-.1-.1-.2-.1-.2 0-.1-.1-.1 0 0 0zm0-.1c0 .1-.1.1 0 0-.1.1-.1 0 0 0zm.5-.3s-.2.1-.4.1c0 0 0 .2-.1.2h.3c-.1 0 0-.2.2-.3z"/><path d="M48.9 25.6h-.2v.1h.1l.1-.1z" fill="none"/><path fill="#FFCD05" d="M48.6 26s0-.1-.1-.1c0 0 0 .1.1.1-.2.1-.2.2-.2.3.1 0 .1.1.2 0V26z"/><path d="M48.5 25.9c-.1.1-.1.2-.1.3m.1-.2v.2m0-.1v.1" fill="none"/><path fill="#FFCD05" d="m44.9 25.4 2.1-2.3h.1L45 25.5zm2.1-2.3c0-.1-.1-.2-.1-.2h-.1l-.1.1s.1.1.3.1h-.2c-.1 0-.1-.1-.1-.2 0 0 .2-.1.2 0 .1 0 .1.1.1.2zm.1 0h.2v.2c-.1.1-.2 0-.2-.2 0 .1 0 .1.1.2h.2v-.2h-.3zm0 0c-.1.1-.1 0 0 0zm.4-.4s-.2.2-.4.2v.2s.2-.1.3-.1c-.1 0 0-.2.1-.3z"/><path d="M47.3 22.8s-.1.1-.2.1v.1h.1s.1-.1.1-.2z" fill="none"/><path fill="#FFCD05" d="M47.1 23.3c-.1-.1-.1 0 0 0-.1.1-.1.2-.1.3h.2v-.1c0-.1-.1-.2-.1-.2z"/><path d="M47 23.2v.3m0-.2v.2m.1 0v.1" fill="none"/></g><path fill="#FFCD05" stroke="#010101" stroke-width=".041" stroke-miterlimit="2.613" d="m43.2 22.5-4.9 8.2h9.8l-4.9-8.2z"/><path fill="#fff" stroke="#fff" stroke-width=".012" stroke-miterlimit="2.613" d="m43.2 23.1-4.4 7.4h8.9l-4.5-7.4z"/><path fill="#037E93" stroke="#037E93" stroke-width=".025" stroke-miterlimit="2.613" d="m40.1 28.3-1.3 2.2h8.9l-1.3-2.2h-6.3z"/><g fill="none"><path stroke="#0D6BAE" d="M42.5 24.4c.2-.2.5-.3.8-.3.3 0 .6.1.8.3"/><path stroke="#0D64AB" d="M42.5 24.4c.2-.2.5-.3.8-.3.3 0 .6.1.8.3"/><path stroke="#0C60A9" d="M42.5 24.4c.2-.2.5-.3.8-.3.3 0 .6.1.8.3"/><path stroke="#0F59A5" d="M42.5 24.4c.2-.2.5-.3.8-.3.3 0 .6.1.8.3"/><path stroke="#0D54A1" d="M42.5 24.4c.2-.2.5-.3.8-.3.3 0 .6.1.8.3"/><path stroke="#0E4F9E" d="M42.4 24.4c.2-.2.5-.3.8-.3.3 0 .6.1.8.3"/><path stroke="#144A9B" d="M42.4 24.4c.2-.2.5-.3.8-.3.3 0 .6.1.8.3"/><path stroke="#2F2A78" d="M42.4 24.5c.2-.2.5-.3.9-.3s.7.1.9.4"/><path stroke="#2D2B7C" d="M42.4 24.5c.2-.2.5-.3.9-.3s.7.1.9.4"/><path stroke="#2E2D7E" d="M42.4 24.5c.2-.2.5-.3.8-.3.4 0 .7.1.9.4"/><path stroke="#2E2F82" d="M42.4 24.5c.2-.2.5-.3.8-.3.4 0 .7.1.9.4"/><path stroke="#2C3285" d="M42.4 24.5c.2-.2.5-.3.8-.3.4 0 .7.1.9.4"/><path stroke="#2A388A" d="M42.4 24.5c.2-.2.5-.3.8-.3.3 0 .7.1.9.3"/><path stroke="#273B8C" d="M42.4 24.5c.2-.2.5-.3.8-.3.3 0 .7.1.8.3"/><path stroke="#214193" d="M42.4 24.4c.2-.2.5-.3.8-.3.3 0 .6.1.8.3"/><path stroke="#EE2524" d="M42.8 23.9c.1-.1.3-.1.5-.1s.3 0 .5.1"/><path stroke="#EE2724" d="M42.8 23.9c.1-.1.3-.1.5-.1s.3 0 .5.1"/><path stroke="#EE2924" d="M42.8 23.9c.1-.1.3-.1.5-.1s.4 0 .5.1"/><path stroke="#EE2C24" d="M42.7 23.9c.1-.1.3-.1.5-.1s.4 0 .5.1"/><path stroke="#EE3024" d="M42.7 23.9c.1-.1.3-.1.5-.1s.4 0 .5.1"/><path stroke="#EE3624" d="M42.7 23.9c.1-.1.3-.1.5-.1s.4 0 .5.1"/><path stroke="#EF3B24" d="M42.7 23.9c.1-.1.3-.1.5-.1s.4 0 .5.1"/><path stroke="#EF3D23" d="M42.7 23.9c.1-.1.3-.1.5-.1s.4 0 .5.1"/><path stroke="#EF4323" d="M42.7 24c.1-.1.3-.1.5-.1s.4 0 .5.1"/><path stroke="#EF4823" d="M42.7 24c.2-.1.3-.1.5-.1s.4 0 .5.1"/><path stroke="#F04B23" d="M42.7 24c.2-.1.3-.1.5-.1s.4 0 .5.1"/><path stroke="#FBED26" d="M42.6 24.2c.2-.2.4-.2.7-.2.2 0 .5.1.7.2"/><path stroke="#FEEA00" d="M42.6 24.1c.2-.1.4-.1.7-.1.2 0 .5.1.6.2"/><path stroke="#FEE000" d="M42.6 24.1c.2-.1.4-.1.7-.1.2 0 .5.1.6.2"/><path stroke="#FED600" d="M42.6 24.1c.2-.1.4-.2.6-.2.2 0 .5.1.6.2"/><path stroke="#FECF09" d="M42.6 24.1c.2-.1.4-.2.6-.2.2 0 .5.1.6.2"/><path stroke="#FEC40D" d="M42.6 24.1c.2-.1.4-.2.6-.2.2 0 .5.1.6.2"/><path stroke="#FDBA12" d="M42.6 24.1c.2-.1.4-.2.6-.2.2 0 .4.1.6.2"/><path stroke="#FCB017" d="M42.7 24.1c.2-.1.4-.2.6-.2s.4.1.6.2"/><path stroke="#FAA51A" d="M42.7 24.1c.2-.1.4-.2.6-.2.2 0 .4.1.6.2"/><path stroke="#F99B1C" d="M42.7 24.1c.2-.1.4-.2.6-.2.2 0 .4.1.6.2"/><path stroke="#F7911E" d="M42.7 24.1c.2-.1.4-.2.6-.2.2 0 .4.1.6.2"/><path stroke="#F6871F" d="M42.7 24c.2-.1.4-.2.6-.2.2 0 .4.1.6.2"/><path stroke="#F47D20" d="M42.7 24c.2-.1.4-.2.6-.2.2 0 .4.1.6.2"/><path stroke="#F47621" d="M42.7 24c.2-.1.4-.2.6-.2.2 0 .4.1.6.2"/><path stroke="#F36D21" d="M42.7 24c.2-.1.3-.2.6-.2.2 0 .4 0 .6.2"/><path stroke="#F26322" d="M42.7 24c.2-.1.3-.2.6-.2.2 0 .4 0 .6.2"/><path stroke="#F15A22" d="M42.7 24c.2-.1.3-.2.5-.2s.4 0 .5.1"/><path stroke="#E6E520" d="M42.6 24.2c.2-.2.4-.2.7-.2.2 0 .5.1.7.2"/><path stroke="#D4DE25" d="M42.6 24.2c.2-.2.4-.2.7-.2.2 0 .5.1.7.2"/><path stroke="#C1D82F" d="M42.6 24.2c.2-.2.4-.2.7-.2.2 0 .5.1.7.2"/><path stroke="#ADD136" d="M42.6 24.2c.2-.2.4-.2.7-.2.2 0 .5.1.7.2"/><path stroke="#9ACA3C" d="M42.6 24.2c.2-.2.4-.2.7-.2.3 0 .5.1.7.2"/><path stroke="#86C440" d="M42.5 24.2c.2-.2.4-.2.7-.2.3 0 .5.1.7.2"/><path stroke="#71BC44" d="M42.5 24.3c.2-.2.4-.2.7-.2.3 0 .5.1.7.2"/><path stroke="#5EB346" d="M42.5 24.3c.2-.2.4-.2.7-.2.3 0 .5.1.7.2"/><path stroke="#4AAA48" d="M42.5 24.3c.2-.2.4-.2.7-.2.3 0 .5.1.7.2"/><path stroke="#1074A4" d="M42.5 24.3c.2-.2.5-.3.8-.3.3 0 .6.1.8.3"/><path stroke="#167A97" d="M42.5 24.3c.2-.2.5-.3.8-.3.3 0 .6.1.8.3"/><path stroke="#1B818C" d="M42.5 24.3c.2-.2.5-.3.8-.3.3 0 .6.1.8.3"/><path stroke="#1D857E" d="M42.5 24.3c.2-.2.5-.3.8-.3.3 0 .6.1.7.2"/><path stroke="#1F8B6E" d="M42.5 24.3c.2-.2.5-.3.7-.3.3 0 .6.1.7.2"/><path stroke="#23905F" d="M42.5 24.3c.2-.2.5-.3.7-.3.3 0 .6.1.7.2"/><path stroke="#2B944D" d="M42.5 24.3c.2-.2.5-.3.7-.3.3 0 .6.1.7.2"/><path stroke="#319C47" d="M42.5 24.3c.2-.2.4-.3.7-.3.3 0 .6.1.7.2"/><path stroke="#ED2224" d="M43.7 23.9c-.1-.1-.3-.1-.5-.1s-.3 0-.5.1"/><path stroke="#322876" d="M44.2 24.6c-.2-.3-.5-.4-.9-.4s-.6.1-.9.3"/><path stroke="#0772B1" d="M44 24.3c-.2-.2-.5-.3-.8-.3-.3 0-.6.1-.8.3"/><path stroke="#1B4695" d="M44.1 24.5c-.2-.2-.5-.3-.8-.3-.3 0-.6.1-.8.3"/><path stroke="#F6EB16" d="M43.9 24.2c-.2-.2-.4-.2-.6-.2-.2 0-.5.1-.7.2"/><path stroke="#F05123" d="M43.8 24c-.1-.1-.3-.1-.5-.1s-.4 0-.5.2"/><path stroke="#36A047" d="M44 24.3c-.2-.2-.5-.2-.7-.2-.3 0-.5 0-.7.3"/></g><g fill="none"><path stroke="#FFF2EC" d="M42.3 24.6c.3-.1.6-.2.9-.2.3 0 .7.1.9.3l.9 1.6c0 1-.8 1.9-1.9 1.9-1 0-1.9-.8-1.9-1.9l1.1-1.7z"/><path stroke="#FFF3EB" d="M43.2 24.4c.3 0 .6.1.9.3 0 0 .9 1.5.9 1.6 0 1-.8 1.9-1.8 1.9s-1.8-.8-1.8-1.8l1-1.6c.2-.3.5-.4.8-.4z"/><path stroke="#FFF1E7" d="M43.2 24.4c.3 0 .6.1.9.3l.9 1.5c0 1-.8 1.8-1.8 1.8s-1.8-.8-1.8-1.8l.9-1.6c.4-.1.6-.2.9-.2z"/><path stroke="#FEEEE4" d="M43.2 24.5c.3 0 .6.1.9.2l.9 1.5c0 1-.8 1.8-1.7 1.8-1 0-1.7-.8-1.7-1.8l.9-1.5c.2-.2.4-.2.7-.2z"/><path stroke="#FEE7DC" d="M43.2 24.5c.3 0 .6.1.8.2l.8 1.4c0 .9-.8 1.7-1.7 1.7-.9 0-1.7-.7-1.7-1.7 0 0 .8-1.4.9-1.4.4-.1.7-.2.9-.2z"/><path stroke="#FEE5D4" d="M43.2 24.6c.3 0 .6.1.8.2 0 0 .8 1.3.8 1.4 0 .9-.7 1.6-1.6 1.6-.9 0-1.6-.7-1.6-1.6l.8-1.4c.3-.1.6-.2.8-.2z"/><path stroke="#FEE3CF" d="M43.2 24.7c.3 0 .6.1.8.2 0 0 .8 1.2.8 1.3 0 .9-.7 1.6-1.5 1.6s-1.5-.7-1.5-1.5c0-.1.8-1.3.8-1.3.1-.3.4-.3.6-.3z"/><path stroke="#FEE0CC" d="M43.2 24.7c.3 0 .5.1.7.2.1 0 .8 1.2.8 1.3 0 .8-.7 1.5-1.5 1.5s-1.5-.7-1.5-1.5c0-.1.7-1.3.8-1.3.2-.1.5-.2.7-.2z"/><path stroke="#FEDEC6" d="M43.2 24.8c.3 0 .5.1.7.2.1 0 .7 1.1.7 1.2 0 .8-.6 1.5-1.4 1.5-.8 0-1.4-.6-1.4-1.5l.7-1.3c.3-.1.5-.1.7-.1z"/><path stroke="#FDCEAB" d="M43.2 25.1c.2 0 .4.1.6.2.1.1.6.8.6.9 0 .6-.5 1.1-1.1 1.1-.6 0-1.1-.5-1.1-1.1 0-.1.5-.9.6-1 .1-.1.2-.1.4-.1zm0 0c.2 0 .4.1.5.2.1.1.5.8.5.9 0 .6-.5 1.1-1.1 1.1-.6 0-1.1-.5-1.1-1.1 0-.1.5-.9.6-1 .3 0 .4-.1.6-.1z"/><path stroke="#FCC69F" d="m43.2 25.2.5.1c.1.1.5.7.5.8 0 .5-.4 1-1 1-.5 0-1-.4-1-1 0-.2.4-.8.5-.8.2 0 .4-.1.5-.1zm0 .1.5.1c.1.1.5.6.5.8 0 .5-.4.9-.9.9s-.9-.4-.9-.9c0-.2.4-.7.5-.8 0-.1.2-.1.3-.1z"/><path stroke="#FFF1EA" d="M43.2 24.4c.3 0 .6.1.9.3l.9 1.5c0 1-.8 1.8-1.8 1.8s-1.8-.8-1.8-1.8l.9-1.6c.3-.1.6-.2.9-.2z"/><path stroke="#FEEEE4" d="M43.2 24.4c.3 0 .6.1.9.3l.9 1.5c0 1-.8 1.8-1.8 1.8s-1.8-.8-1.8-1.8l.9-1.5c.4-.2.6-.3.9-.3z"/><path stroke="#FEEBDF" d="M43.2 24.5c.3 0 .6.1.9.2 0 0 .9 1.4.9 1.5 0 .9-.8 1.7-1.7 1.7-.9 0-1.7-.8-1.7-1.7l.9-1.5c.2-.1.4-.2.7-.2z"/><path stroke="#FEEBDD" d="M43.2 24.5c.3 0 .6.1.8.2l.9 1.4c0 .9-.8 1.7-1.7 1.7-.9 0-1.7-.8-1.7-1.7l.9-1.5.8-.1z"/><path stroke="#FEE8D9" d="M43.2 24.6c.3 0 .6.1.8.2 0 0 .8 1.3.8 1.4 0 .9-.7 1.7-1.6 1.7-.9 0-1.6-.7-1.6-1.6 0 0 .8-1.4.9-1.4.2-.3.5-.3.7-.3z"/><path stroke="#FEE6D3" d="M43.2 24.6c.3 0 .6.1.8.2l.8 1.3c0 .9-.7 1.6-1.6 1.6-.9 0-1.6-.7-1.6-1.6 0-.1.8-1.4.8-1.4.3 0 .6-.1.8-.1z"/><path stroke="#FEE3D3" d="M43.2 24.6c.3 0 .6.1.8.2l.8 1.3c0 .9-.7 1.6-1.6 1.6-.9 0-1.6-.7-1.6-1.6l.8-1.4c.3 0 .6-.1.8-.1z"/><path stroke="#FEE0CC" d="M43.2 24.7c.3 0 .5.1.8.2.1 0 .8 1.2.8 1.3 0 .8-.7 1.5-1.5 1.5s-1.5-.7-1.5-1.5c0-.1.7-1.3.8-1.3.1-.1.4-.2.6-.2z"/><path stroke="#FEDEC8" d="M43.2 24.7c.3 0 .5.1.7.2.1 0 .7 1.2.7 1.2 0 .8-.7 1.5-1.5 1.5s-1.5-.7-1.5-1.5c0-.1.7-1.2.8-1.3.4 0 .6-.1.8-.1z"/><path stroke="#FCDAC5" d="M43.2 24.8c.3 0 .5.1.7.2.1 0 .7 1.1.7 1.2 0 .8-.6 1.4-1.4 1.4-.8 0-1.4-.6-1.4-1.4 0-.1.7-1.2.7-1.2.3-.1.5-.2.7-.2z"/><path stroke="#FCDAC2" d="M43.2 24.8c.2 0 .5.1.7.2.1 0 .7 1.1.7 1.2 0 .8-.6 1.4-1.4 1.4-.8 0-1.4-.6-1.4-1.4 0-.1.7-1.2.7-1.2.3-.1.5-.2.7-.2z"/><path stroke="#FCD8BF" d="M43.2 24.8c.2 0 .5.1.7.2.1 0 .7 1.1.7 1.2 0 .8-.6 1.4-1.4 1.4-.8 0-1.4-.6-1.4-1.4 0-.1.6-1.1.7-1.2.3-.1.5-.2.7-.2zm0 .1c.2 0 .5.1.7.2.1 0 .7 1 .7 1.1 0 .7-.6 1.4-1.3 1.4-.7 0-1.3-.6-1.3-1.3 0-.1.6-1.1.7-1.2.1-.2.3-.2.5-.2z"/><path stroke="#FDD6BC" d="M43.2 24.9c.2 0 .5.1.7.2.1 0 .7 1 .7 1.1 0 .7-.6 1.3-1.3 1.3-.7 0-1.3-.6-1.3-1.3 0-.1.6-1.1.7-1.1.1-.2.3-.2.5-.2z"/><path stroke="#FDD7B9" d="M43.2 24.9c.2 0 .5.1.6.2.1 0 .6 1 .6 1.1 0 .7-.6 1.3-1.3 1.3-.7 0-1.3-.6-1.3-1.3 0-.1.6-1.1.7-1.1.3-.1.5-.2.7-.2z"/><path stroke="#FDD4B8" d="M43.2 24.9c.2 0 .5.1.6.2.1.1.6 1 .6 1.1 0 .7-.6 1.3-1.3 1.3-.7 0-1.3-.6-1.3-1.3 0-.1.6-1.1.7-1.1.3-.1.5-.2.7-.2z"/><path stroke="#FDD4B6" d="M43.2 25c.2 0 .4.1.6.2.1.1.6.9.6 1.1 0 .7-.6 1.3-1.2 1.3-.7 0-1.2-.6-1.2-1.3l.6-1.1c.2-.2.4-.2.6-.2z"/><path stroke="#FDD2B3" d="M43.2 25c.2 0 .4.1.6.2.1.1.6.9.6 1 0 .7-.6 1.2-1.2 1.2-.7 0-1.2-.5-1.2-1.2 0-.1.5-1 .6-1.1.2-.1.4-.1.6-.1z"/><path stroke="#FDD2B1" d="M43.2 25c.2 0 .4.1.6.2.1.1.6.9.6 1 0 .7-.5 1.2-1.2 1.2s-1.2-.5-1.2-1.2c0-.1.5-1 .6-1 .2-.1.4-.2.6-.2z"/><path stroke="#FDD1B1" d="M43.2 25c.2 0 .4.1.6.2.1.1.6.9.6 1 0 .6-.5 1.2-1.2 1.2-.6 0-1.2-.5-1.2-1.2 0-.1.5-1 .6-1 .2-.1.4-.2.6-.2z"/><path stroke="#FDD1AE" d="M43.2 25.1c.2 0 .4.1.6.2.1.1.6.8.6 1 0 .6-.5 1.1-1.1 1.1-.6 0-1.1-.5-1.1-1.1 0-.1.5-.9.6-1 .1-.2.2-.2.4-.2z"/><path stroke="#FCCAA7" d="M43.2 25.1c.2 0 .4.1.5.2.1.1.5.8.5.9 0 .6-.5 1.1-1.1 1.1-.6 0-1.1-.5-1.1-1.1 0-.1.4-.9.6-.9.3-.1.5-.2.6-.2z"/><path stroke="#FDCBA5" d="M43.2 25.2c.2 0 .4.1.5.1.1.1.5.7.5.9 0 .6-.5 1.1-1 1.1-.6 0-1-.5-1-1 0-.1.4-.8.5-.9.2-.2.4-.2.5-.2z"/><path stroke="#FCC9A6" d="M43.2 25.2c.2 0 .4.1.5.1.1.1.5.7.5.9 0 .6-.5 1-1 1-.6 0-1-.5-1-1 0-.1.4-.8.5-.9.2-.1.4-.1.5-.1z"/><path stroke="#FCC9A2" d="M43.2 25.2c.2 0 .4.1.5.1.1.1.5.7.5.8 0 .6-.4 1-1 1-.5 0-1-.4-1-1 0-.2.4-.8.5-.9.2.1.4 0 .5 0z"/><path stroke="#FCC39C" d="m43.2 25.3.5.1c.1.1.5.6.5.8 0 .5-.4.9-.9.9s-.9-.4-.9-.9c0-.2.3-.7.5-.8 0-.1.2-.1.3-.1z"/><path stroke="#FCC499" d="M43.2 25.3c.2 0 .3.1.4.1.1.1.4.6.4.8 0 .5-.4.9-.9.9s-.9-.4-.9-.9c0-.2.3-.7.5-.8.2-.1.4-.1.5-.1z"/><path stroke="#FCC098" d="M43.2 25.3c.2 0 .3.1.4.1.1.1.4.6.4.7 0 .5-.4.9-.9.9s-.9-.4-.9-.9c0-.2.3-.7.4-.8.3.1.5 0 .6 0z"/><path stroke="#FCC196" d="M43.2 25.4c.2 0 .3 0 .4.1.1.1.4.5.4.7 0 .5-.4.8-.8.8-.5 0-.8-.4-.8-.8 0-.2.3-.7.4-.7.2-.1.3-.1.4-.1z"/><path stroke="#FCBE92" d="m43.2 25.4.4.1c.1.1.4.5.4.7 0 .5-.4.8-.8.8-.5 0-.8-.4-.8-.8 0-.2.3-.6.4-.7.2-.1.3-.1.4-.1z"/><path stroke="#FCBE90" d="M43.2 25.4c.1 0 .3 0 .4.1.1.1.4.5.4.7 0 .4-.4.8-.8.8s-.8-.4-.8-.8c0-.2.3-.6.4-.7.2-.1.3-.1.4-.1z"/><path stroke="#FBBA8F" d="M43.2 25.4c.1 0 .3 0 .4.1.1.1.4.5.4.7 0 .4-.3.8-.8.8-.4 0-.8-.3-.8-.8 0-.2.2-.6.4-.7.2 0 .3-.1.4-.1z"/><path stroke="#FBBB8D" d="M43.2 25.5c.1 0 .3 0 .4.1.2.1.4.4.4.6 0 .4-.3.7-.7.7-.4 0-.7-.3-.7-.7 0-.2.2-.6.4-.6 0-.1.1-.1.2-.1z"/><path stroke="#FBB98A" d="M43.2 25.5c.1 0 .3 0 .4.1.2.1.4.4.4.6 0 .4-.3.7-.7.7-.4 0-.7-.3-.7-.7 0-.2.2-.5.4-.6 0-.1.1-.1.2-.1zm0 0c.1 0 .3 0 .4.1.2.1.3.4.3.6 0 .4-.3.7-.7.7-.4 0-.7-.3-.7-.7 0-.2.2-.5.4-.6.1-.1.2-.1.3-.1z"/><path stroke="#FBB687" d="M43.2 25.5c.1 0 .2 0 .3.1.2.1.3.4.3.6 0 .4-.3.7-.7.7-.4 0-.7-.3-.7-.7 0-.2.2-.5.3-.6.3 0 .4-.1.5-.1z"/><path stroke="#FBB685" d="M43.2 25.5c.1 0 .2 0 .3.1.2.1.3.3.3.6 0 .4-.3.6-.6.6-.4 0-.6-.3-.6-.6 0-.2.2-.5.3-.6l.3-.1z"/><path stroke="#FAB485" d="M43.2 25.6c.1 0 .2 0 .3.1.2.1.3.3.3.5 0 .3-.3.6-.6.6s-.6-.3-.6-.6c0-.2.1-.4.3-.5.1-.1.2-.1.3-.1z"/><path stroke="#FAB482" d="M43.2 26.8c.3 0 .6-.3.6-.6s-.3-.6-.6-.6-.6.3-.6.6.3.6.6.6z"/></g><path fill="#fff" stroke="#fff" stroke-width=".013" stroke-miterlimit="2.613" d="M43.2 26.8c.3 0 .6-.3.6-.6s-.3-.6-.6-.6-.6.3-.6.6c.1.3.3.6.6.6z"/><g stroke="#010101" stroke-width=".013"><path d="m43.4 25.6.1-.3m-.2.3v-.3m-.1.3v-.3m0 .3v-.3m-.1.3-.1-.3m.1.3-.1-.3m0 .4-.1-.3m.1.3-.2-.3m.1.3-.2-.3m.2.4-.2-.2m.1.2-.2-.2m.2.2-.3-.2m.2.3-.3-.2m.3.3-.3-.1m.3.1-.3-.1m.3.2-.4-.1m.4.1h-.3m.2.1h-.3m.4.1h-.3m.3 0-.3.1m.3 0-.3.1m.3-.1-.3.1m.3 0-.3.2m.4-.1-.7.5m.7-.5-.8.7m.8-.7-.6.7m.7-.6-.5.6m.5-.6-.5.9m.6-.9-.3.6m.4-.5-.3.9m.3-.9-.1.6m.2-.6-.1.9m.2-.9v.3m.1-.3.2.8m-.2-.8.2.5m-.1-.5.4.8m-.4-.9.4.7m-.3-.7.6.8m-.6-.9.5.6m-.4-.6.8.7m-.8-.7.4.3m-.3-.4.3.2m-.3-.3.3.1m-.3-.1.3.1m-.3-.2.3.1m-.3-.1h.3m-.3-.1h.3m-.3-.1h.3m-.3 0 .3-.1m-.3 0 .3-.1m-.3.1.3-.1m-.3 0 .3-.2m-.4.2.3-.2m-.3.1.2-.2m-.2.2.2-.2m-.3.1.2-.3m-.2.3.2-.3m-.3.3.1-.3m-.2.2.1-.3m-.3-.5v-.3m-.2.4-.1-.2m-.2.3-.1-.2m-.1.3-.1-.2m-.2.4-.2-.2m.1.4-.2-.1m.1.4-.2-.1m.1.4h-.3m.3.2h-.3m.4.3-.2.1m2.6.2.2.1m-.1-.4.2.1m-.1-.4h.3m-.3-.2h.3m-.4-.3.2-.1m-.3-.2.2-.1m-.3-.1.2-.2m-.4 0 .1-.2m-.4.1.1-.2m-.4.1.1-.2" fill="none"/><path fill="#E41E26" d="M43.6 26.5h-.5c-.1 0-.1.1-.1.1s.1.1.2.1h.3c0-.2.1-.2.1-.2zm-.6-.1s0-.2.1-.4c0 0 0 .1-.1.1h-.1V26s0-.1.1-.1h.1c.1 0 .1 0 .2.1l.1.2c.1.1.1.2.1.2v.1h-.1c0-.1-.2-.1-.4-.1v.1-.1z"/><path d="M43 26.4h.6" fill="none"/><path fill="#FFCD05" d="M43.2 27.3v-.9h.1l-.1.9c.1 0 .1.7 0 .7v-.7z"/></g><path d="m42.3 26.6-.2.1v.1s0-.1-.1 0l.3-.2zm-.2-.1v-.1s.1 0 .1.1h-.1c.1 0 .1 0 .1-.1h-.1v.1H42v-.1l.1.1zm0-.5c-.1 0-.1.1 0 0-.1.1-.1.1 0 .1V26h.1c.1 0 .1.1.1.1v.1h-.1s.1 0 .1-.1V26c-.1 0-.1.1-.2 0l.1.1s0 .1-.1.1-.1 0 0-.2zm0-.1.1-.1v.1h.1l.1-.2-.1.3-.2-.1v-.2.2zm.1-.4-.1.1.2.1-.1-.1v-.1c.1.1.1 0 0 0zm.1 0v.1-.1zm.2 0-.2-.1-.1.1.1-.2-.1.1.3.1zm.1-.1-.2-.2.2.2zm0-.3h.2l-.1.1v.1l.1-.1-.2.1v-.2l.1-.1-.1.1zm.5.1v-.3.3H43l-.1-.2v.3-.3h.1l.1.2V25h.1l-.1.2zm.1-.3v.3h.1c.1 0 .1 0 .1-.1v-.2s0-.1-.1-.1l-.1.1zm.1.1h.1s-.1.1-.1 0zm-.1.1h.1c.1.1 0 .1-.1 0zm.3-.1-.1.3v-.1h.1v.2-.1l.1-.1c0-.1 0-.1-.1-.1V25zm0 0c.1 0 .1 0 .1.1h-.1V25zm.3.1.1.1-.1-.1-.1.2.1.1-.2-.1.2-.2.2.1-.2-.1zm.3.2-.2.2.1.1c.1.1.1 0 .2 0 0-.1.1-.2-.1-.3zm0 .1c.1.1.1.1 0 .2H44l.1-.2zm.2.2v.2l-.1-.1h-.1l.1.1-.1-.2h.2l.1.1-.1-.1zm-.1.5.2-.1v-.1s0 .1.1.1l-.3.1zm.1.1c-.1.1 0 .2 0 .2h.2s.1 0 .1-.1 0-.1-.1-.1h-.2zm0 0c.1.1 0 .1 0 0zm.1 0c.1.1 0 .1 0 0zm0 .2c.1 0 .1.1.1.1l-.1.1c-.1 0-.1-.1 0-.2l-.1.1v-.3.1c0 .1 0 .1.1.1-.1.1 0 .1 0 .1v-.1zm-.3.3h.2v-.1.1h-.2z" fill="#E41E26"/><path stroke="#010101" stroke-width=".029" stroke-miterlimit="2.613" d="m43.2 23.1-4.4 7.4h8.9l-4.5-7.4z" fill="none"/><g fill="none"><path stroke="#010101" stroke-width=".013" d="M43.5 29.6h.4c.2 0 .4-.2.6-.1l.6.2c.3 0 .4-.1.6-.1h.4c.2 0 .3.2.6.1"/><path stroke="#fff" stroke-width=".047" d="M40.1 29.9c.1-.1.4-.2.6-.1.3.1.4.1.7.1l.6-.1c.4 0 .4.1.7.1h.3l.3-.1c.1-.1.3 0 .5 0s.3.1.4.1h.4c.2-.1.4-.2.6-.2l.6.2c.3 0 .4-.1.6-.2h.4c.2 0 .3.2.6.1"/><path stroke="#fff" stroke-width=".034" d="M39.6 29.6c.1-.1.4-.1.6-.1.3.1.4.1.7.1l.6-.1c.4 0 .4.1.7.1h.3l.3-.1h.5c.2 0 .3.1.4.1h.4c.2-.1.4-.2.6-.1l.6.2c.3 0 .4-.1.6-.1h.4c.2 0 .3.2.6.1"/><path stroke="#fff" stroke-width=".059" d="M39.1 30.4c.1-.1.4-.2.6-.1.3.1.4.1.7.1l.6-.2c.4 0 .4.1.7.1h.3l.3-.1c.1-.1.3 0 .5 0s.3.1.4.1c.1 0 .3.1.4 0 .2-.1.4-.2.6-.2l.6.2c.3 0 .4-.1.6-.2h.4c.2.1.3.2.6.2"/><path stroke="#fff" stroke-width=".034" d="M39.2 29.9c.2-.1.4-.1.6-.1.3.1.4.1.7.1.1 0 .2 0 .3-.1"/><path stroke="#010101" stroke-width=".03" d="M40.6 29.5s.2-.1.3-.1c.4 0 .1 0 .4.1h.4m3.1 1 .3-.1h.5c.2 0 .3.1.4.1h.4c.2 0 .4-.2.6-.1l.6.2"/><path stroke="#fff" stroke-width=".034" d="M45.4 29.5c.3 0 .4-.1.6-.1h.4c.2 0 .3.2.6.1"/><path stroke="#010101" stroke-width=".013" d="M39.1 30.4c.2-.1.4-.1.6-.1.3.1.4.1.7.1l.6-.1c.4 0 .4.1.7.1h.3l.3-.1h.5c.2 0 .3.1.4.1"/><path stroke="#010101" stroke-width=".059" d="M39.7 30.1c.2-.1.4-.1.6-.1.3.1.4.1.7.1l.6-.1c.4 0 .4.1.7.1h.3l.3-.1h.5c.2 0 .3.1.4.1h.4c.2 0 .4-.2.6-.1l.6.2c.3 0 .4-.1.6-.1h.4c.2 0 .3.2.6.1"/></g><path d="M39.8 28.8s.1-.1.2-.1l.1-.1s.1-.1.2-.1c.2-.1.3-.2.4-.4.2-.3.4-.5.7-.6.1-.1.2 0 .3 0 0 0 .1 0 .1.1.1.1.3.2.5.2l.4.3c.1.1.2.1.2.2l.3.2c.1.1.3.2.4.4 0 0 0 .1.1.1.1.1.2.2.3.2l.3.2h-4.8l.3-.6zm4.4.6-.3-.2c-.1-.1-.2-.2-.3-.2 0 0 0-.1-.1-.1l-.4-.4-.3-.2c-.1 0-.2-.1-.2-.2-.1-.1-.1-.2-.2-.2 0 0 .1-.1.2-.1h.3s.1 0 .1.1c.1.1.2.1.4.2.2 0 .2.1.3.3.1.1.1.1.2.1.1.1.1.1.2.1l.3.3v.1c.1.1.2.2.3.2.1 0 .2.1.3.2h-.8zm-1-1.4h.1c.2 0 .2.1.3.3.1.1.1.1.2.1.1.1.1.1.2.1l.3.3v.1c.1.1.2.2.3.2.1 0 .2.1.2.1h.6l-.3-.2c-.1 0-.2-.1-.2-.2v-.1l-.3-.3c-.1-.1-.1-.1-.2-.1l-.2-.1c-.1-.1-.1-.2-.3-.2-.1 0-.3-.1-.4-.2 0 0-.1 0-.1-.1h-.2c.1.2.1.2 0 .3zm1.1.2.1.1c.1.1.1.1.2.1l.2.1.3.3v.1l.2.2.2.1h.7l-.2-.1c-.1 0-.1-.1-.2-.2v-.1l-.2-.2s-.1-.1-.2-.1l-.1-.1c-.1-.1-.1-.2-.2-.2l-.3-.1h-.3c-.1 0-.2.1-.2.1zm1.9 1s-.1-.1-.2-.1l-.2-.2v-.1l-.2-.2s-.1-.1-.2-.1l-.1-.1-.2-.2.1-.1h.3c.1 0 .1.1.3.1.1 0 .1.1.2.2l.1.1.1.1.2.2.2.1.2.1c-.3.2-.4.2-.6.2z" fill="#FFCD05" stroke="#010101" stroke-width=".025"/><path d="M41.2 27.6h.1m-.2.1h.1m-.1 0h.1m-.2.1h.1m-.2 0h.2m-.3.1h.2m-.2.1h.2m-.3.1h.2m-1.4 1.3h.7m.5-1.3h.2m-.3.1h.2m0 .1h-.2m.1 0h-.2m-.1.1h.3m-.4.1h.3m-.3 0h.4m-.1.1h-.4m.3 0h-.4m-.1.1h.5m-.5 0h.4m-.5.1h.5m-.6 0h.6m-.6.1h.5m-.6.1h.6m-.6.1h.7m-.8 0h.6m-.6.1h.7m-.7.1h.7m.8-1v.1l-.1.1h.1m-.1.1h.2m-.3 0h.2m-.2.1h.2m-.2 0h.2m-.3.1h.2m-.2 0h.3m-.4.1h.3m-.3.1h.2m-.2 0h.3m-.4.1h.4m-.4 0h.4m-.5.1h.4m-.4.1h.4m-.4 0h.5m.4-.9-.1.1v.1h.1m-.1 0h.1m-.1.1h.1m-.2 0h.1m-.1.1h.2m-.2.1h.2m-.2 0h.2m-.2.1h.2m-.2.1h.2m-.3 0h.3m-.3.1h.3m-.3.1h.4m-.4 0h.5m-.5.1h.6m-1.4-.1h.1m.6.1.7-.1h.5m-.6 0h.6m-1.1 0h-.8m1.5-1.5v.2h.1l-.1.1h.1v.1h.1-.1m0 .1h.1m0 0h-.1m0 .1h.1m.1.1H42m0 .1c.1-.1.1 0 .1 0m.1 0H42m0 .1h.2m-.2.1h.2m.1 0h-.2m0 .1h.3m0 0h-.3m0 .1h.3m0 0h-.3m0 .1c.1-.1.2 0 .3 0m.1 0h-.4m.1.1h.4m0 0h-.4m0 .1h.4m-.4.1h.4m.1-.1h.5m-.5.1h.5m-.1-.4c0 .1.1 0 0 0m0 .1.1.1h.1m-.1 0h.1m-.1.1h.2m-.2 0h.3m-.3.1h.3m.1 0h.6m-.7-.1h.6M42.6 28h.1m0 .1h.1m-.1 0h.1m-.1 0h.2m.1.1h-.2m.1.1h.1m.1 0H43m0 0h.1m.1.1h-.1m0 0h.1m.1 0h-.1m.1.1h.2m0 .1h-.1m.2.1h-.2m.1.1h.2m0 .1h.3m0 0h-.4m.2.1h.3m.1.1h-.3m0 0c.1-.1.2 0 .3 0m.1.1H44m.1 0h.4m0 0h-.4m.1.1h.3m-.3 0h.3M42.6 28h.1m-.2-.1h.1m.8.8h.2m0 .1h.2m.1 0h-.3m-1-.9h-.1m1 .2h.1m-.1 0h.1m-.1.1c0-.1.1-.1 0 0h.1m0 0h.2m0 0h-.1m0 .1h.2m0 0h-.2m.1.1h.2m0 0h-.1m0 .1h.2m0 0H44m.1 0h.1m0 .1h-.1m.3.1h-.2m.1.1h.2m-.1.1h.3m0 0h-.3m.1.1h.3m.1 0h-.3m0 .1c.1-.1.2 0 .3 0m.1 0h-.3m.1.1h.4m0 0h-.4m.1.1h.4m-.4 0h.3M43.4 28h.1m-.1 0h.1m.7.7c0-.1.1-.1 0 0h.2m-.1.1h.2m.1 0h-.2m-.9-.9c-.1 0-.1 0-.2.1m1 .3h.1m0 0h.1m-.1.1h.1m-.1 0h.1m.1 0h-.1m.1.1h.1m0 0h-.1m0 0h.1m.1 0h-.1m0 .1h.1m.1 0h-.1m0 .1h.1m.1 0h-.1m.2.1H45m0 0h.2m-.1.1h.2m.1 0h-.2m0 .1h.2m.1 0h-.3m0 .1h.3m.1 0h-.3m.1.1h.4m-.1 0h-.3m0 0h.2m-.1 0h.3m-1.5-.9h.1m-.1-.1h.1m.5.5h.1m0 .2h.1m.1 0H45m-.6-.7h-.1m.8.1h.1m0 .1h.1m-.1 0h.1m-.1 0h.1m.1 0h-.1m0 .1h.1m.1 0h-.1m0 0h.1m0 .1h-.1m.1 0h.1m0 0h-.1m.1.1h.1m0 0h-.1m.2.1h-.1m0 0h.2m-.1.1h.2m.1 0h-.2m0 .1h.2m.1 0h-.3m.1.1h.3m0 0h-.2m0 0h.2m.1 0h-.2m0 .1h.2m-.2 0h.3m-1.4-.9h.1m-.1 0h.1m.4.4h.1m.1.1h.1m.1.1h-.2m-.6-.7" stroke="#03643C" stroke-width=".013" fill="none"/><path fill="#FFCD05" d="m39.4 34.8.1.5c-.1 0-.3 0-.3.2-.1.2 0 .4.2.5l.3.1.5-1-.2-.1-.2.4v-.5l-.4-.1zm.1.8h.1l-.1.3c-.1 0-.1-.1-.1-.2s0-.2.1-.1zm-1-.8.3.2.1-.2-.3-.2.1-.2.5.3-.6.9-.5-.3.1-.2.3.2.2-.2-.3-.2zm-.2-.7-.3.3v-.1c-.2-.1-.3-.1-.5 0-.2.2-.1.3.1.5l.2.2.7-.8-.2-.1zm-.5.3s.1 0 .1.1l-.2.2c-.1-.1-.1-.1 0-.2l.1-.1zm-.8-.1-.1-.2.4-.4c.1-.1.2-.2.1-.4-.1-.1-.3 0-.4.1l-.4.4-.1-.2.5-.4c.2-.2.4-.2.6 0 .2.2.1.4-.1.6l-.5.5zm-.4-2c-.1 0-.1 0-.2.1s-.2.2-.1.3h-.2c-.2.1-.2.3-.1.4l.2.2.9-.6-.2-.3-.3-.1zm0 .3c.1 0 .1 0 .2.1l-.2.2c-.1-.1-.1-.2 0-.3zm-.3.3s.1 0 .1.1l-.2.1c0-.1 0-.1.1-.2zm-.1-1.3.1-.1.3.5-1 .5-.1-.2.8-.4zm-.1-.5.1.2-.9.5-.1-.2zm-1.1-.7c-.1.1-.1.2 0 .3.1.2.3.3.5.2.2-.1.3-.2.2-.4 0-.1-.1-.2-.2-.2l.2-.1c.1.1.1.1.1.2.1.3-.1.6-.4.7-.3.1-.6 0-.7-.3v-.3l.3-.1zm.6-1.4-1 .6v.2l1.2.2v-.2l-.2-.1-.1-.4.2-.1-.1-.2zm-.4.4v.3h-.4l.4-.3zM35 27c-.3 0-.5.2-.5.5v.3l1.1.1v-.3c0-.4-.2-.6-.6-.6zm0 .2c.3 0 .4.1.4.4l-.6-.1c-.1-.2 0-.3.2-.3zm.3-1.1-.1.4h.3l.1-.3h.1l-.1.6-1-.2.1-.6h.2l-.1.4h.2l.1-.3zm.4-1.3-.1.3.3.1.1-.3.2.1-.2.5-1-.4.2-.5.1.1-.1.3.2.1.2-.3zm.7-.6.1.1-.2.4-1-.5.1-.2.8.4zm.1-1.4c-.1 0-.1 0-.2.1v.2c.1.1.3-.3.6-.1.2.1.2.3.1.5-.1.1-.2.2-.4.1v-.2c.1 0 .2 0 .2-.1.1-.1 0-.2 0-.2-.1-.1-.2 0-.3.1-.1.1-.2.1-.4 0-.1-.1-.2-.3-.1-.4.1-.1.2-.2.3-.2l.2.2zm.5-1-.1.2.5 1.1.2-.2-.1-.2.3-.3.2.1.2-.2-1.2-.5zm.2.3.3.2-.2.2-.1-.4zm1.3-.4.1.1-.4.4-.6-.9.1-.1.6.7zm.3-1.2.2-.1.2 1.1-.1.1-.9-.7.2-.2.6.5zm.9-.5h-.1l.1 1.2.2-.1v-.2l.3-.2.2.2.2-.1-.9-.8zm.1.3.3.3-.2.1-.1-.4zm1.1-.7h-.2l-.3.1.3 1 .3-.1c.3-.1.5-.4.4-.7 0-.2-.2-.3-.5-.3zm0 .2c.1 0 .2.1.3.2.1.2 0 .3-.2.4l-.2-.6h.1zm1.3-.5c-.4 0-.6.3-.5.6 0 .3.3.5.6.5s.5-.3.5-.6c-.1-.3-.3-.5-.6-.5zm0 .2c.2 0 .3.1.3.3 0 .1-.1.3-.3.4-.2 0-.3-.1-.3-.3 0-.2.1-.4.3-.4zm.9-.3v1.1h.2v-.4l.3.4h.3l-.3-.5c.1 0 .2-.2.2-.3 0-.2-.1-.3-.4-.3h-.3zm.2.2c.1 0 .2 0 .2.1s-.1.1-.2.1v-.2zm2.3.7h-.3l-.1.2.3.1v.2l-.6-.1.3-1.1.5.2v.1h-.3l-.1.2.3.1zm1 .5.2-.6h.2l-.4 1.1-.1-.1-.3-.9-.2.7-.2-.1.4-1h.1l.3.9zm1.2.9-.1.2-.4-.3.6-.9.2.1-.5.8zm1.1-.3-1 .6.2.1.2-.1.3.2-.1.2.2.1.4-1.1h-.2zm-.2.3-.1.4-.2-.1.3-.3zm1.8 1.3-1.1.3.1.2.2-.1.2.3-.1.2.1.2.6-1v-.1zm-.3.3-.2.3-.1-.2.3-.1zm.3 2-.1-.2.6-.4-.7.1.4-.6-.6.2-.1-.2 1.1-.3v.2l-.5.5.8-.1.1.2zm.7.6-.1-.3-.2.1.1.3-.2.1-.2-.6 1-.3.2.5-.2.1-.1-.3h-.2l.1.4zm.7.2-1 .2v.2l.4-.1-.3.4.1.3.4-.4c.1.1.2.2.3.2.2 0 .3-.2.2-.4l-.1-.4zm-.1.3c0 .1 0 .2-.1.2s-.2 0-.2-.1l.3-.1zm-.7 1.1v-.2l1-.1v.2zm.8 1c.1-.1.1-.2.1-.2 0-.2-.2-.3-.4-.3s-.4.1-.4.3c0 .1 0 .2.1.2h-.2L51 28c0-.3.3-.5.5-.6.3 0 .6.2.6.5 0 .1 0 .2-.1.2l-.1.2zm-.8.2v.2l.2.1v.4l-.3.1v.2l1.1-.3V29l-1-.5zm.4.5.3.2-.4.1.1-.3zm-.3 2.6c.1 0 .2-.1.2-.2.1-.2-.1-.4-.2-.4-.2-.1-.4 0-.5.2v.3l-.2-.1v-.3c.1-.3.4-.4.7-.3.3.1.4.4.3.7 0 .1-.1.2-.1.2l-.2-.1zm-.7.7.1-.3-.2-.2-.2.4-.2-.1.3-.5.9.5-.2.5-.2-.1.2-.3-.2-.1-.2.3zm-.8.8.6.4-.1.2-.9-.6.1-.1.9-.1h.1l-.6-.4.1-.2.9.7-.1.1h-1zm0 .9.1-.1.2.1-.5.5-.1-.2.1-.1-.6-.6.1-.2zm-1.1-.1-.2.1.3.3-.5-.2-.2.3.5.1c-.1.1-.1.3 0 .4.1.2.3.1.5 0l.2-.2-.6-.8zm.2.6.2.2c-.1.1-.2.1-.2 0-.2-.1-.1-.1 0-.2zm-.9-.1-.2.1v.2l-.3.3-.2-.1-.2.1.9.7.1-.1-.1-1.2zm-.1.6.1.4-.3-.2.2-.2zm-1.3.4-.1-.1.4-.3.5 1-.2.1-.4-.8z"/></svg>
