<svg xmlns="http://www.w3.org/2000/svg" width="85" height="57"><path fill="#FFF" d="M-.02.154h85.04v56.692H-.02z"/><path d="M-.02 38.072v11.844l18.17-11.844M-.02 7.412V18.93h17.672M76.248.154H50.283v16.924M34.718.154H8.478l26.24 17.105M8.98 56.846h25.738V40.068M85.02 18.93V7.23l-17.948 11.7M50.283 56.846h25.463L50.283 40.248m34.737 9.848V38.072H66.574" fill="#263271"/><path fill="#C22126" d="M46.9 22.982h38.12v11.036H46.9v22.828h-8.8V34.018H-.02V22.982H38.1V.154h8.802v22.828zM-.02 56.275v.57H5.7L34.505 38.07H27.91L-.02 56.275zM79.54.155 50.733 18.928h6.596L85.02.877V.154h-5.48zM56.895 38.07 85.02 56.4v-4.297L63.493 38.07h-6.596zM27.768 18.93-.02.817v4.3L21.17 18.93h6.598z"/></svg>
