<svg xmlns="http://www.w3.org/2000/svg" width="87" height="57"><path fill="#4A98D0" d="M-2.5 0h90.7v56.7H-2.5z"/><path fill="#fff" d="M27.8 0H58v56.7H27.8z"/><path d="M40.2 35.7c.3 0 .4-.1.6-.2m.2-.4.3.4m-.8-.4.3.4m-4.7-12.9c-.1.2-.3.3-.5.3m.1 0v-.4m-.2.4s0 .1.1.2m.1.1h-.2m-.3-.1c0 .2 0 .5.1.7m-.3 0 .1.2m-.3.6c0 .1.1.2.1.4m.3-.5s-.1.1-.2.1m.2.5-.3.2m-.4 3.8c.1.2.2.3.4.4m0 .2-.3-.1m.5.8.2.1m-.1.3.4.4m-.2.3.3.1m-.1.2h.2m.1-.5v.4m.1.1v-.2m.5.6v.3m3.7 2.7-.1.2m-.3-.4-.1-.2" stroke="#2A421D" stroke-width=".041" fill="none"/><g stroke="#2A421D" stroke-width=".015"><path fill="#41642F" d="m43.4 36.4-.3-.3c-.7-.4-1.5-.6-2.3-.7-.2 0-.4-.2-.6-.3-.5-.2-1-.3-1.4-.5 0 0-.1-.1-.2-.1l-.7-.5c-.8-.7-1.6-1.4-2.1-2.4-.5-1.2-1.2-2.4-1.1-3.8.1-.9-.1-1.7.1-2.6.3-1.2.7-2.4 1.5-3.4l-.1.1c-.7 1-1.1 2.2-1.5 3.4-.2.8-.1 1.7-.1 2.6-.1 1.4.6 2.6 1.1 3.8.4 1 1.3 1.7 2.1 2.4l.7.5c.1.1.2.1.2.1.5.2 1 .3 1.4.5.2.1.4.3.6.3.8.1 1.5.3 2.3.7.1.1.2.1.3.3l.1-.1"/><path d="M35.9 31.3c-.3-.6-.1-2 0-2.2.6 1.2.4 2.2 0 2.2zm4.3 4.3c-.7 0-1.9.9-2.1 1.1 1.5 0 2.3-.7 2.1-1.1zm.7-.4c-.6-.5-1.3-2.2-1.3-2.5 1.4 1 1.8 2.3 1.3 2.5zm-.4 0c-.7-.4-1.5-1.9-1.5-2.1 1.4.7 1.9 1.9 1.5 2.1zm-1.5-.6c.1-.7-.5-2.3-.7-2.5-.3 1.6.3 2.6.7 2.5zm-2.6-2.3c-.2-.5-.1-1.8 0-2 .6 1.1.4 2 0 2zM35.1 25c.3-.6 1.7-1.5 2-1.5-.6 1.4-1.7 1.9-2 1.5zm.1-.5c.2-.7 1.4-1.8 1.6-1.9-.3 1.5-1.3 2.2-1.6 1.9zm2.6 9.4c-.5-.6-.8-2.3-.7-2.5 1.1 1.1 1.2 2.4.7 2.5zm-2.7-3.5c-.7.1-2-.4-2.2-.6 1.4-.3 2.3.2 2.2.6zm-.2-.9c.1-.5.8-1.5 1-1.6-.1 1.2-.7 1.8-1 1.6zm4.9 5.5c-.8 0-2.3 1-2.5 1.3 1.7 0 2.7-.8 2.5-1.3z" fill="#68933E"/><path d="M35.9 31.3c.4 0 .6-1 0-2.2.1 1.2.1 2.1 0 2.2zm1.1 1.9c-.4-.5-1.8-1.1-2.1-1.1.9 1.2 1.9 1.5 2.1 1.1zm-2.3-5c-.1-.8-1.2-2.1-1.4-2.3.1 1.6 1 2.5 1.4 2.3zm.8 3.2c-.5-.3-1.8-.5-2-.4.9.8 1.9.8 2 .4zm-.9-2.3c-.3-.5-1.4-1.3-1.6-1.3.5 1.2 1.4 1.6 1.6 1.3zm.2-4.5c.1-.7-.5-2.2-.7-2.4-.2 1.5.3 2.5.7 2.4zm.5-1.4c.3-.6.1-2.1 0-2.3-.7 1.3-.5 2.3 0 2.3zm.4-.7c.3-.5.4-1.7.3-1.8-.6.8-.6 1.7-.3 1.8zm.6-.6c.4-.3.9-1.5.9-1.6-1 .6-1.2 1.4-.9 1.6zM34.8 26c0 .1-.1-.8-.9-1.7 0 1.3.5 1.9.9 1.7zm3 8.1c-.6-.4-2.2-.6-2.4-.6 1.2 1 2.4 1 2.4.6zm1.2.5c-.4.2-1-.9-.7-2.4.2 1.2.6 2.3.7 2.4zm1.2 1c.2.4-.6 1.1-2.1 1.1 1.2-.5 2.1-1 2.1-1.1zm.7-.4c.5-.2.1-1.5-1.3-2.5.8 1.2 1.4 2.3 1.3 2.5zm-.4 0c.4-.3-.1-1.4-1.5-2.1.9 1 1.5 1.9 1.5 2.1zm-4.1-2.9c.4 0 .6-.9 0-2 .1 1 .1 1.9 0 2zM35.1 25c.3.4 1.3-.1 2-1.5-1 .9-1.8 1.5-2 1.5zm.1-.5c.3.3 1.3-.4 1.6-1.9-.7 1.1-1.4 1.9-1.6 1.9zm2.6 9.4c.4-.1.4-1.3-.7-2.5.5 1.2.8 2.3.7 2.5zm-2.7-3.5c.1-.4-.8-.9-2.2-.6 1.2.2 2.1.5 2.2.6zm-.2-.9c.3.2.9-.4 1-1.6-.5.9-.9 1.6-1 1.6zm4.8 5.5c.2.5-.8 1.3-2.5 1.3 1.4-.5 2.5-1.1 2.5-1.3zm-4.4-4.2c-.3-.6-1.4-1.5-1.6-1.5.4 1.3 1.3 1.8 1.6 1.5z" fill="#41642F"/><path d="M34.6 25.9c.4-.4 1.6-.9 1.9-.8-.8.9-1.7 1.1-1.9.8zm2.4 7.3c-.2.4-1.2.1-2-1.1.9.7 1.8 1.1 2 1.1zm-2.3-5c-.4.3-1.2-.6-1.4-2.3.6 1.3 1.2 2.2 1.4 2.3zm.8 3.2c-.1.4-1 .3-2-.4 1 .3 1.8.5 2 .4zm-.9-2.3c-.2.3-1.1-.1-1.6-1.3.7.7 1.4 1.3 1.6 1.3zm.2-4.5c-.4.1-1-.9-.7-2.4.3 1.3.6 2.3.7 2.4zm.4-1.4c-.4 0-.6-1 0-2.3-.1 1.2 0 2.2 0 2.3zm.5-.7c-.3 0-.4-.9.3-1.8-.2.9-.3 1.7-.3 1.8zm.6-.6c-.3-.2-.1-1 .9-1.6-.6.8-.9 1.5-.9 1.6zM34.8 26c-.4.2-.9-.3-.9-1.7.4 1 .7 1.6.9 1.7zm3 8.1c-.1.4-1.2.4-2.4-.6 1.3.4 2.3.6 2.4.6zm-.7-.9c-.4-.4-.7-1.6-.6-1.8.8.8.9 1.7.6 1.8zm-1.6-2.4c-.3-.5-.4-2-.3-2.2.8 1.2.7 2.2.3 2.2zm-.3 0c-.3.3-1.1-.2-1.6-1.5.8.9 1.5 1.5 1.6 1.5z" fill="#68933E"/><path d="M34.6 25.9c.2.3 1.1.1 1.8-.8-1.1.6-1.5.9-1.8.8zm.9 4.9c.4 0 .5-1-.3-2.2.2 1.2.4 2.1.3 2.2zm1.6 2.4c.3-.1.2-1-.6-1.8.4.9.6 1.7.6 1.8zm-2.3-5.6c.2-.8-.2-2.1-.4-2.4-.5 1.4-.1 2.5.4 2.4z" fill="#41642F"/><path fill="#68933E" d="M34.7 27.7c-.6.1-.8-1.1-.4-2.6.2 1.4.3 2.6.4 2.6zm-.1 0c-.1-.7.7-2.2.8-2.3.3 1.5-.4 2.5-.8 2.3z"/><path fill="#41642F" d="M34.6 27.7c.4.2 1-.8.8-2.3-.3 1.3-.6 2.3-.8 2.3z"/><path fill="#68933E" d="M34.8 28.6c0-.7.8-2.1 1-2.2 0 1.5-.6 2.4-1 2.2z"/><path fill="#41642F" d="M34.8 28.7c.4.2 1.1-.7 1-2.2-.5 1.1-.9 2.1-1 2.2z"/></g><g fill="#BB1F40" stroke="#501525"><circle cx="35" cy="23.7" r=".1"/><circle cx="35.8" cy="23.1" r=".1"/><circle cx="35.5" cy="22.8" r=".1"/><circle cx="34.6" cy="29.6" r=".1"/><circle cx="34.8" cy="28.1" r=".1"/><circle cx="36.1" cy="31.6" r=".1"/><circle cx="35.5" cy="31.8" r=".1"/><circle cx="39.7" cy="34.7" r=".1"/><circle cx="40" cy="35.4" r=".1"/></g><path d="m50.5 24.5.2.2m-.6-1.9c0-.1-.1-.3-.1-.5m.4.4c0 .2 0 .4-.1.5m-.4-.1.5.4m.3.1c0 .2 0 .4-.1.6m.1.1.1-.2m-.2 1.2c.1 0 .3.2.3.3m.1-.1.2-.2m.1 2.9-.2.3m-.4 0 .2.4m.3.5c-.1.2-.3.3-.4.4m0 .4-.3.4m.7-1.8H51m-.1-.7.1.1m-.8 3.6H50m-.2-.2.1.2m-.8.4v.5m.4-.8.1.2m.4 0h-.2m-3 2.4-.1.2m1.2-.4h-.4m-.5.6-.3-.1m-1.4.2c-.1.1-.2.2-.3.4m-.1-.4c-.2.1-.3.4-.4.5m.3.3c-.1 0-.3-.1-.5-.2m1.6-.1c-.2-.1-.4-.1-.7-.1m1 0c-.3-.1-.7-.1-1 0m.8-.3-.1-.1m-.6.6-.2-.1m5.5-4.7-.4.4m.2-7.5-.2-.1" stroke="#2A421D" stroke-width=".041" fill="none"/><g stroke="#2A421D" stroke-width=".015"><path fill="#41642F" d="m42.3 36.3.3-.3c.7-.4 1.5-.6 2.3-.7.2 0 .4-.2.6-.3.5-.2 1-.3 1.4-.5 0 0 .1-.1.2-.1l.7-.5c.8-.7 1.6-1.4 2.1-2.4.5-1.2 1.2-2.4 1.1-3.8-.1-.9.1-1.7-.1-2.6-.3-1.2-.7-2.4-1.5-3.4l.1.1c.7 1 1.1 2.2 1.5 3.4.2.8.1 1.7.1 2.6.1 1.4-.6 2.6-1.1 3.8-.4 1-1.3 1.7-2.1 2.4l-.7.5c-.1.1-.2.1-.2.1-.5.2-1 .3-1.4.5-.2.1-.4.3-.6.3-.8.1-1.5.3-2.3.7-.1.1-.2.1-.3.3l-.1-.1"/><path d="M49.8 31.6c.3-.7 0-2.3-.1-2.5-.6 1.4-.3 2.6.1 2.5zm-.6.7c.2-.5.1-1.8 0-2-.6 1.1-.4 2 0 2zm1.5-7c-.3-.6-1.6-1.4-1.8-1.4.6 1.2 1.6 1.7 1.8 1.4zm-.1-.8c-.2-.6-1.2-1.5-1.4-1.6.3 1.3 1.1 1.9 1.4 1.6zm.4 1.4c-.3-.4-1.4-.7-1.6-.7.7.8 1.5 1 1.6.7zm-.2 4.4c.6.1 1.8-.4 1.9-.5-1.2-.3-2 .1-1.9.5zm0-.5c0-.5-.6-1.6-.8-1.7 0 1.1.5 1.8.8 1.7zm0-1.3c0-.7-.8-2.1-1-2.2-.1 1.5.6 2.4 1 2.2zm-5 7.1c.4.5 1.9 1.1 2.1 1-.8-1.1-1.9-1.4-2.1-1z" fill="#41642F"/><path d="M49.8 31.6c-.5.1-.8-1.1-.1-2.5-.1 1.3 0 2.4.1 2.5zm-5 4.1c.7 0 1.9.9 2.1 1.1-1.5 0-2.3-.7-2.1-1.1zm0-.7c.2-.8 1.4-2 1.7-2.1-.4 1.6-1.4 2.4-1.7 2.1zm2-.4c-.1-.7.5-2.3.7-2.5.3 1.6-.3 2.6-.7 2.5zm2-1.4c.4-.5 1.8-1.1 2.1-1.1-.9 1.2-1.9 1.5-2.1 1.1zm2.4-5c.1-.6.9-1.7 1.1-1.8-.1 1.3-.7 2-1.1 1.8zm-1.1 3.6c.5-.4 2.1-.6 2.3-.5-1.1.8-2.2.9-2.3.5zm1-2.4c.3-.6 1.5-1.3 1.7-1.4-.6 1.3-1.5 1.8-1.7 1.4zm-.1-4.3c0-.7.8-2.1.9-2.3.1 1.6-.5 2.5-.9 2.3zm-.7-2.4c-.2-.5-.1-1.7 0-1.9.5 1 .4 1.9 0 1.9zm-.4-.2c-.5-.4-1-1.9-1-2.1 1.1.9 1.4 1.9 1 2.1zm1.1 3.2c0 .1.3-.7 1.3-1.4-.3 1.3-1 1.7-1.3 1.4zm-3.2 8.5c.7-.5 2.5-.7 2.8-.6-1.4 1.1-2.7 1.1-2.8.6zm1.3-1.9c-.4 0-.6-.9 0-2-.1 1 0 1.9 0 2zm1.6-7c-.3.3-1.2-.1-1.8-1.4.9.8 1.7 1.4 1.8 1.4zm-.1-.8c-.3.2-1.1-.3-1.4-1.6.7.9 1.3 1.6 1.4 1.6zm.4 1.4c-.1.3-.9.1-1.6-.7 1 .6 1.4.8 1.6.7zm-.2 4.4c-.1-.4.7-.8 1.9-.5-1 .1-1.8.4-1.9.5zm-.1-.5c-.3.1-.8-.6-.7-1.7.3.9.6 1.6.7 1.7zm.1-1.3c-.4.2-1.1-.7-1-2.2.4 1.2.9 2.1 1 2.2zm-5 7.1c.2-.4 1.2-.1 2.1 1-1.1-.6-1.9-1.1-2.1-1z" fill="#68933E"/><path d="M46.8 34.6c.4.2 1-.9.7-2.4-.3 1.2-.6 2.3-.7 2.4zm1-.5c.4-.6.5-2.3.4-2.5-.9 1.2-.9 2.4-.4 2.5zm-3 1.6c-.2.4.6 1.1 2.1 1.1-1.2-.5-2.1-1-2.1-1.1zm0-.7c.4.3 1.3-.5 1.6-2.1-.7 1.1-1.5 2-1.6 2.1zm4-1.8c.2.4 1.2.1 2-1.1-1 .7-1.8 1.1-2 1.1zm2.4-5c.3.2 1-.5 1.1-1.8-.5 1-.9 1.7-1.1 1.8zm-1.1 3.6c.1.4 1.2.4 2.3-.5-1.1.3-2.1.5-2.3.5zm1-2.4c.2.3 1.1-.1 1.7-1.4-.8.9-1.5 1.4-1.7 1.4zm-.1-4.3c.4.2 1-.8.9-2.3-.4 1.3-.8 2.3-.9 2.3zm-.7-2.4c.3 0 .5-.9 0-1.9.1 1 .1 1.8 0 1.9zm-.4-.2c.4-.2.1-1.2-1-2.1.7 1 1.1 1.9 1 2.1zm1.1 3.2c.3.3 1-.1 1.3-1.4-.7.9-1.1 1.4-1.3 1.4zm-3.2 8.5c.1.5 1.4.5 2.8-.6-1.5.5-2.6.7-2.8.6zm.7-.7c.3-.5.4-1.7.3-1.9-.7 1-.7 1.9-.3 1.9zm1.8-2.7c.3-.5.4-2 .3-2.2-.8 1.1-.7 2.2-.3 2.2z" fill="#41642F"/><path d="M47.8 34.1c-.5-.1-.5-1.3.4-2.5-.4 1.2-.5 2.3-.4 2.5zm3.3-6.5c-.1-.7.4-1.9.6-2.1.2 1.3-.2 2.2-.6 2.1zm-2.7 5.9c-.3 0-.4-.9.3-1.9-.2 1-.3 1.8-.3 1.9zm2.3-9.8c-.2-.6 0-1.9.1-2.1.5 1.2.2 2.1-.1 2.1zM45.2 35c.2-.8 1.5-2 1.8-2.1-.5 1.7-1.5 2.4-1.8 2.1zm5.1-3.9c.3-.6 1.4-1.5 1.6-1.5-.4 1.3-1.3 1.8-1.6 1.5zm0-.3c-.4 0-.5-1 .3-2.2-.3 1.1-.4 2.1-.3 2.2z" fill="#68933E"/><path fill="#41642F" d="M51.1 27.8c.5.2.9-.9.6-2.3-.2 1.2-.5 2.2-.6 2.3zm.1-.1c.1-.7-.7-2.2-.8-2.3-.3 1.5.3 2.5.8 2.3zm-.5-4c.4 0 .6-.9.1-2 0 1-.1 1.9-.1 2zM45.2 35c.4.3 1.4-.4 1.8-2.1-.9 1.2-1.7 2.1-1.8 2.1zm5.1-3.9c.3.3 1.1-.2 1.6-1.5-.7.8-1.4 1.5-1.6 1.5z"/><path fill="#68933E" d="M51.1 27.7c-.4.2-1-.8-.8-2.3.3 1.3.7 2.2.8 2.3z"/></g><g fill="#BB1F40" stroke="#501525" stroke-width=".021"><circle cx="50.9" cy="24.1" r=".1"/><circle cx="51.2" cy="25.2" r=".1"/><circle cx="51.3" cy="28.7" r=".1"/><circle cx="50.9" cy="28.1" r=".1"/><circle cx="49.5" cy="31.8" r=".1"/><circle cx="50.1" cy="32.1" r=".1"/><circle cx="46.1" cy="35.2" r=".1"/><circle cx="45.4" cy="35.6" r=".1"/><circle cx="50.1" cy="23.5" r=".1"/></g><path fill="#8C959D" stroke="#495755" stroke-width=".01" d="M38.5 31.8c0 .1.1.2.2.2h-.1c0-.2 0-.3-.1-.2z"/><path fill="#8C959D" d="M38.8 32c-.1.1-.2.2-.3.1-.1-.1-.1-.1 0-.2l-.1.1.2.2s.2-.1.2-.2c.1-.1.2-.2.2-.3 0-.1-.1-.1-.2-.2l-.1.1h.2c.1.1 0 .3-.1.4z"/><path fill="#495755" d="m38.8 32-.1.1h-.2v-.3l-.1.2.1.1h.3V32c.1 0 .1 0 .1-.1v-.4l-.1-.1-.1.1h.2l.1.1v.1c-.1.2-.1.2-.2.3zm0 0 .1-.1v-.1s0-.1-.1-.1h-.1l.1-.1c.1 0 .1.1.1.1l.1.1v.3c0-.2-.1-.1-.2-.1 0 .1 0 .1-.1.2h-.4l-.1-.1.1-.1v.3h.2l.3-.3z"/><path fill="#6D311F" stroke="#351912" stroke-width=".021" stroke-linejoin="round" d="m46.2 23.5-3.8 3.7-3.9 3.7c-.1.1-.4.5-.4.5-.2.2-.4.5-.7.8l-.2.1-.5.4-1.1 1.3c-.1.1-.1.1 0 .2l.6.8c.1.1.2.2.3.1.3-.5 1-1.3 1.3-1.9.2-.4.4-1 .5-1.2.2-.2.7-.7 1.1-1.2l.1-.1.1-.1c2.3-2.3 4.8-5 6.6-7.1 0 .1.1.1 0 0z"/><path fill="#8C959D" stroke="#495755" stroke-width=".01" d="m38.3 31-.3-.1c.1 0 .2.1.3 0v.1z"/><path fill="#B3B6BA" stroke="#495755" stroke-width=".021" d="m50.1 20.8-3 2.5H47l-.2-.3.1-.1v-.1l-.1-.1h-.1l-.1.1c-.1 0-.1.1-.1.1L41.3 28l-2.1 2c-.1.1-.4.3-.6.4-.1.1-.1.1-.2.1l-.2.5c-.1.1-.2.4-.2.4l.4.4c.2-.2.6-.7 1-1.1l.1-.1s-.1-.1-.1-.2l-.1-.1-.1-.1v-.1c2.5-2.4 5.2-5.1 7.4-7.2h.1l.3.3c.1.1.1.1.2 0l2.9-2.4z"/><path fill="#495755" d="M38.2 31.2h.1c0-.1 0-.1.1-.2 0-.1 0-.1.1-.2h-.1.1c0 .1 0 .2-.1.2 0 .1 0 .1-.1.2h-.1z"/><circle stroke="#495755" stroke-width=".015" cx="38.9" cy="31" r=".1" fill="none"/><circle stroke="#495755" stroke-width=".015" cx="38.6" cy="31.3" r=".1" fill="none"/><path fill="#495755" d="m39.2 30.4-.2-.2c0 .1.1.1.2.2z"/><path fill="#8C959D" stroke="#495755" stroke-width=".01" d="m45 24.5.3.3.1-.1-.4-.2z"/><g transform="scale(-1 1) rotate(-2.87 -13.25 19471.489)"><path fill="#8C959D" stroke="#495755" stroke-width=".01" d="M46.9 31.9c0 .1-.1.2-.2.2h.1c.1-.1.1-.2.1-.2z"/><path fill="#8C959D" d="M46.7 32.1c.1.1.2.2.3.1.1-.1.1-.1.1-.2l.1.1-.2.2c-.2 0-.3 0-.3-.2-.1-.1-.2-.2-.1-.3 0-.1.1-.1.2-.2l.1.1h-.2c-.2.2-.1.3 0 .4z"/><path fill="#495755" d="m46.7 32.1.1.1h.2l.1-.1v-.2l.1.1-.1.1h-.2c-.1 0-.1 0-.1-.1-.1.2-.2.2-.1.1-.1 0-.1 0-.1-.1v-.3l.1-.1.1-.1.1.1h-.2l-.1.1v.1c0 .2 0 .3.1.3zm0 0-.1-.1v-.1l.1-.1h.1l-.1-.1c-.1 0-.1 0-.1.1l-.1.1v.3c0-.1.1-.1.2-.1 0 .1 0 .1.1.2 0 0 .1.1.2.1h.2l.1-.1-.3-.3v.3h-.2c-.1-.1-.1-.2-.1-.2z"/><path fill="#6D311F" stroke="#351912" stroke-width=".021" stroke-linejoin="round" d="m39.7 23.3 3.6 3.9 3.7 3.9c.1.1.4.5.4.5.2.2.4.5.6.8l.2.1.5.4 1.1 1.3c.1.1.1.1 0 .2l-.7.8c-.1.1-.3.2-.3.1-.3-.5-1-1.3-1.2-2-.1-.4-.3-1.1-.5-1.2-.2-.2-.6-.8-1.1-1.3l-.1-.1-.1-.1c-2.1-2.4-4.5-5.2-6.3-7.3.2.1.1.1.2 0z"/><path fill="#8C959D" stroke="#495755" stroke-width=".01" d="m47.2 31.2.3-.1c-.1 0-.2.1-.3 0v.1z"/><path fill="#B3B6BA" stroke="#495755" stroke-width=".021" d="m35.9 20.4 2.9 2.6h.1l.3-.2-.2-.2v-.1l.1-.1h.1l.1.1c.1 0 .1.1.1.1 1.7 1.9 3.2 3.5 4.9 5.3l2 2.1c.1.1.4.3.6.4l.2.2.1.5c0 .1.2.4.2.4-.2.2-.2.2-.4.3-.2-.2-.6-.7-1-1.2l-.1-.1.1-.1.1-.1h.1v-.1c-2.4-2.5-4.9-5.3-7-7.6h-.1l-.3.3c-.1.1-.1.1-.2 0l-2.7-2.5z"/><path fill="#495755" d="M47.3 31.4h-.1c0-.1 0-.2-.1-.2 0-.1 0-.2-.1-.2h.1-.1c0 .1 0 .2.1.2 0 .1 0 .2.1.2h.1z"/><circle stroke="#495755" stroke-width=".015" cx="46.6" cy="31.1" r=".1" fill="none"/><circle stroke="#495755" stroke-width=".015" cx="47" cy="31.5" r=".1" fill="none"/><path fill="#495755" d="M46.4 30.6c.1-.1.1-.1.2-.1-.1 0-.1 0-.2.1z"/><path fill="#8C959D" stroke="#495755" stroke-width=".01" d="m40.9 24.3-.3.3-.1-.1.4-.2z"/></g><g stroke="#2A421D" stroke-width=".015"><path fill="#68933E" d="M38.5 34.5c-.7-.3-2.5-.1-2.8.1 1.6.8 2.8.4 2.8-.1zm8.4.3c.7-.3 2.5-.1 2.8.1-1.6.8-2.8.4-2.8-.1z"/><path fill="#41642F" d="M38.5 34.5c0 .5-1.2.8-2.7.1 1.4.1 2.6 0 2.7-.1zm8.4.3c0 .5 1.2.8 2.7.1-1.4.1-2.5.1-2.7-.1z"/></g><path fill="#B3B6BA" stroke="#495755" stroke-width=".021" d="M45.6 34c-2-2.8-4.9-5.2-7.2-6.4.3 0 1.1.4 1.4.6 2.3 1.5 4.2 3.4 6.2 5.6-.2.1-.2.2-.4.2z"/><path fill="#8C959D" d="m45.8 34-.1.1c-2.2-2.8-5.2-5.5-7.2-6.5 2.7 1.3 5.1 3.9 7.3 6.4z"/><path fill="#495755" d="m45.8 34-.1.1c-.5-.6-1-1.3-1.6-1.9-.6-.6-1.1-1.2-1.7-1.7-.6-.6-1.2-1.1-1.9-1.6l-1-.7c-.3-.2-.7-.4-1.1-.6.7.3 1.4.8 2.1 1.3.7.5 1.3 1 1.9 1.6.6.6 1.2 1.1 1.7 1.7.6.5 1.1 1.2 1.7 1.8l-1.6-1.8c-.6-.6-1.1-1.2-1.7-1.7-.6-.6-1.2-1.1-1.9-1.6s-1.4-.9-2.1-1.2l1.1.6 1 .7c.6.5 1.3 1 1.9 1.6.6.6 1.2 1.1 1.7 1.7.6.6 1.1 1.2 1.6 1.9V34z"/><path d="M46.4 33.5c-.2 0-.4.1-.5.2 0 .1-.2.3-.3.3l-.1-.1h-.1c-.1 0-.1 0-.2.1 0 .1 0 .2.1.3.1.1.1.1.2.1l.2-.1c.4.4.6.7 1.1 1 .2 0 .3-.1.2-.3l-.1-.1c.2-.2.3-.5.1-.9-.1-.3-.4-.5-.6-.5zm.6.5.1.2c.1.3 0 .6-.2.7 0-.1-.1-.2-.1-.2 0-.1-.1-.2-.1-.2 0-.1-.1-.2-.1-.1 0-.1 0-.2-.1-.2 0-.1 0-.2-.1-.2v-.1l.3-.3s.2.2.3.4zm.1.3-.1-.1h.1l.1.1h-.1zm0-.1-.1-.1h.1l.1.1h-.1zm-.1-.1-.1-.1h.1l.1.1H47zm-.1-.1-.1-.1h.1l.1.1h-.1zm-.1-.1-.1-.1h.2l.1.1h-.2z" fill="#F8B81C" stroke="#6D311F"/><path d="M45.8 34.3c.1-.2.2-.3.3-.4m-.3.5c.1 0 .3-.1.4-.2m-.2.3c.2 0 .3-.1.4-.2m-.3.3c.2 0 .3-.1.4-.2m-.3.4c.2 0 .3-.1.3-.2m-.1.3c.2 0 .3-.1.3-.2m-.2.4c.2 0 .3-.1.3-.2m-.1.3c.2 0 .3-.1.3-.2" fill="#F8B81C"/><path d="M45.8 34.3s0-.1.1-.1c0 0 0-.1.1-.1l.1-.1s.1 0 .1-.1c0 0-.1 0-.1.1l-.1.1c-.1.1-.1.2-.2.2zm0 .1h.1s.1 0 .1-.1c0 0 .1 0 .1-.1 0 0 0-.1.1-.1 0 0 0 .1-.1.1l-.1.1s-.1 0-.1.1h-.1zm.2.1h.1s.1 0 .1-.1c0 0 .1 0 .1-.1 0 0 0-.1.1-.1 0 0 0 .1-.1.1l-.1.1s-.1 0-.1.1H46zm.1.1h.2s.1 0 .1-.1c0 0 0-.1.1-.1l-.1.2h-.1c-.1 0-.2.1-.2 0zm.1.2c.1 0 .1 0 .2-.1 0 0 .1 0 .1-.1 0 0 0-.1.1-.1 0 0 0 .1-.1.1l-.1.1h-.1c0 .1 0 .1-.1.1zm.2.1h.2s.1 0 .1-.1c0 0 0-.1.1-.1 0 0 0 .1-.1.1 0 0-.1 0-.1.1h-.2zm.1.2h.2s.1 0 .1-.1l.1-.1s0 .1-.1.1c0 0-.1 0-.1.1h-.2zm.2.1h.2l.1-.1.1-.1c0 .1-.1.1-.1.1-.1.1-.2.1-.3.1z" fill="#6D311F"/><path fill="#B3B6BA" stroke="#495755" stroke-width=".021" d="M937.153 59.667c-1.936-2.82-4.9-5.2-7.23-6.441.299.018 1.08.365 1.368.582 2.219 1.434 4.208 3.356 6.173 5.677l-.311.182z"/><path fill="#8C959D" d="m937.259 59.573-.106.094c-2.135-2.832-5.181-5.518-7.224-6.541 2.824 1.37 5.27 4.02 7.33 6.447z"/><path fill="#495755" d="m937.359 59.579-.106.094c-.463-.629-1.027-1.263-1.59-1.898-.563-.635-1.132-1.169-1.702-1.704-.569-.535-1.238-1.076-1.907-1.616-.288-.217-.675-.441-.957-.758l-1.062-.664c.781.347 1.456.788 2.131 1.229.675.441 1.244.976 1.907 1.616l1.702 1.704c.452.828 1.021 1.363 1.584 1.998-.563-.635-1.127-1.269-1.696-1.804-.563-.635-1.132-1.169-1.702-1.704-.569-.535-1.238-1.076-1.907-1.616-.675-.441-1.35-.882-2.131-1.229l1.062.664c.387.223.675.441.957.758l1.907 1.616 1.702 1.704c.563.635 1.127 1.269 1.59 1.898l.217-.288z"/><path d="m937.987 59.116-.511.17c-.006.1-.217.288-.317.282l-.094-.106-.1-.006c-.1-.006-.1-.006-.206.088-.006.1-.012.2.082.305.094.106.094.106.194.112.1.006.206-.088.212-.188.376.423.663.641 1.045.964.2.012.305-.082.217-.288l-.094-.106c.212-.188.329-.481.053-.898a.55.55 0 0 0-.481-.329zm.575.435.088.206c.182.311.064.605-.241.687.006-.1-.088-.206-.094-.106.006-.1-.088-.206-.088-.206.006-.1-.088-.206-.094-.106.006-.1.012-.2-.088-.206.006-.1.012-.2-.094-.106.006-.1.006-.1-.094-.106l.317-.282c.106-.094.294.118.387.223zm.082.305c-.1-.006-.094-.106-.094-.106l.1.006c.1.006.094.106.094.106l-.1-.006zm.006-.1c-.1-.006-.094-.106-.094-.106l.1.006c.1.006.094.106.094.106s-.106.094-.1-.006zm-.094-.105c-.1-.006-.094-.106-.094-.106l.1.006c.1.006.094.106.094.106s-.006.1-.1-.006zm-.093-.106c-.1-.006-.094-.106-.094-.106l.1.006c.1.006.094.106.094.106s-.006.1-.1-.006zm-.1-.006c-.1-.006-.094-.106-.094-.106l.1.006.1.006c.1.006.094.106.094.106l-.2-.012z" fill="#F8B81C" stroke="#6D311F"/><path d="M937.335 59.979a1.36 1.36 0 0 1 .323-.381m-.223.387c.1.006.305-.082.317-.282m-.224.387c.2.012.305-.082.411-.176m-.323.382c.2.012.305-.082.311-.182m-.117.294c.2.012.305-.082.311-.182m-.217.287c.2.012.305-.082.311-.182m-.123.394c.2.012.305-.082.311-.182m-.118.294c.2.012.206-.088.311-.182" fill="#F8B81C"/><path d="m937.335 59.979.006-.1s.006-.1.106-.094l.106-.094s.1.006.106-.094c0 0-.1-.006-.106.094l-.106.094s-.006.1-.112.194zm.1.006.1.006s.1.006.106-.094l.106-.094s.006-.1.106-.094c0 0-.006.1-.106.094l-.106.094s-.1-.006-.106.094l-.1-.006zm.093.105.1.006s.1.006.106-.094l.106-.094s.006-.1.106-.094c0 0-.006.1-.106.094l-.106.094s-.1-.006-.106.094l-.1-.006zm.088.206.1.006s.1.006.106-.094c0 0 .1.006.106-.094 0 0 .006-.1.106-.094l-.112.194s-.1-.006-.106.094l-.2-.012zm.194.112c.1.006.1.006.206-.088 0 0 .1.006.106-.094 0 0 .006-.1.106-.094 0 0-.006.1-.106.094 0 0-.006.1-.106.094 0 0-.1-.006-.106.094l-.1-.006zm.094.105.1.006.1.006s.1.006.106-.094c0 0 .006-.1.106-.094 0 0-.006.1-.106.094 0 0-.1-.006-.106.094l-.2-.012zm.188.212c.1.006.2.012.206-.088 0 0 .1.006.106-.094l.106-.094-.006.1-.106.094c-.1-.006-.2-.012-.305.082zm.193.112c.1.006.1.006.206-.088l.106-.094.006-.1c-.006.1-.106.094-.106.094-.112.194-.112.194-.212.188z" fill="#6D311F"/><g stroke="#2A421D" stroke-width=".015"><path fill="#41642F" d="M36.2 22.7c.7-.2 1.8-1.5 1.8-1.7-1.4.4-2.1 1.3-1.8 1.7zm13.7.4c-.2-.7-1.3-1.8-1.5-1.9.3 1.5 1.2 2.2 1.5 1.9z"/><path fill="#68933E" d="M36.2 22.7c-.3-.3.4-1.3 1.8-1.7-1 .8-1.8 1.5-1.8 1.7zm13.7.4c-.3.3-1.2-.4-1.5-1.9.8 1.1 1.4 1.9 1.5 1.9z"/></g><radialGradient id="a" cx="39.789" cy="27.886" r="1.562" gradientTransform="matrix(1 0 0 -1 0 57)" gradientUnits="userSpaceOnUse"><stop offset=".216" stop-color="#F9F0AA"/><stop offset="1" stop-color="#AF802C"/></radialGradient><path fill="url(#a)" stroke="#999270" stroke-width=".015" d="M40.2 30s-.6.1-.7-.7c-.2-.9.5-.9.5-.9s.8-.1 1.2-.1l.2 1.7h-1.2z"/><radialGradient id="b" cx="40.181" cy="27.439" r="1.03" gradientTransform="matrix(1 0 0 -1 0 57)" gradientUnits="userSpaceOnUse"><stop offset=".216" stop-color="#F9F0AA"/><stop offset="1" stop-color="#AF802C"/></radialGradient><path fill="url(#b)" stroke="#999270" stroke-width=".015" d="M40.3 29.8s-.4.1-.5-.5c-.1-.4.2-.5.2-.5l.9.1v.8l-.6.1z"/><radialGradient id="c" cx="40.422" cy="27.85" r=".924" gradientTransform="matrix(1 0 0 -1 0 57)" gradientUnits="userSpaceOnUse"><stop offset=".216" stop-color="#F9F0AA"/><stop offset="1" stop-color="#AF802C"/></radialGradient><path fill="url(#c)" stroke="#999270" stroke-width=".015" d="M40.1 28.8s.6 0 .8-.1l.1.5h-.7c.1.1 0-.4-.2-.4z"/><radialGradient id="d" cx="40.826" cy="28" r="1.639" gradientTransform="matrix(1 0 0 -1 0 57)" gradientUnits="userSpaceOnUse"><stop offset=".216" stop-color="#F9F0AA"/><stop offset="1" stop-color="#AF802C"/></radialGradient><path fill="url(#d)" stroke="#999270" stroke-width=".015" d="M40 28.4s.7-.2.8.6c0 .2-.1.7-.4.8l1.3-.1-.1-1.4h-.4c-.1 0-1.1 0-1.2.1z"/><path fill="#F9F0AA" stroke="#999270" stroke-width=".015" d="M40.2 30s4.9-.3 5.4-.3c1.5-.8 0-4-1.3-5.8.1-.4-2.8-1.3-4.2-1.2h-.5c-.7.1-.7 1-.4 1.6.3.6 2.9 5.2 1.1 5.7h-.1z"/><linearGradient id="e" gradientUnits="userSpaceOnUse" x1="42.291" y1="32.523" x2="42.144" y2="35.092" gradientTransform="matrix(1 0 0 -1 0 57)"><stop offset=".216" stop-color="#AF802C" stop-opacity="0"/><stop offset="1" stop-color="#AF802C"/></linearGradient><path fill="url(#e)" stroke="#999270" stroke-width=".015" d="M45.5 25.8c-.3-.7-.7-1.4-1.1-1.9.1-.4-2.8-1.3-4.2-1.2h-.5c-.7.1-.7 1-.4 1.6.1.2.4.8.7 1.5"/><linearGradient id="f" gradientUnits="userSpaceOnUse" x1="43.162" y1="28.982" x2="43.385" y2="26.156" gradientTransform="matrix(1 0 0 -1 0 57)"><stop offset=".216" stop-color="#AF802C" stop-opacity="0"/><stop offset="1" stop-color="#AF802C"/></linearGradient><path fill="url(#f)" stroke="#999270" stroke-width=".015" d="M40.5 26.9c.5 1.4.8 2.8-.2 3.1h-.1s4.9-.3 5.4-.3c.8-.4.7-1.6.3-2.8"/><radialGradient id="g" cx="39.653" cy="33.166" r="1.23" gradientTransform="matrix(1 0 0 -1 0 57)" gradientUnits="userSpaceOnUse"><stop offset=".216" stop-color="#F9F0AA"/><stop offset="1" stop-color="#AF802C"/></radialGradient><path fill="url(#g)" stroke="#999270" stroke-width=".015" d="M39.8 23c-.3 0-.4.3-.4.5 0 .6.4.6.4.6h.6l.3-1.1h-.9z"/><linearGradient id="h" gradientUnits="userSpaceOnUse" x1="40.179" y1="33.434" x2="40.54" y2="34.279" gradientTransform="matrix(1 0 0 -1 0 57)"><stop offset=".216" stop-color="#F9F0AA"/><stop offset="1" stop-color="#AF802C"/></linearGradient><path fill="url(#h)" stroke="#999270" stroke-width=".015" d="M39.8 23h.8l.1.9H40c0-.1.2-.7-.2-.9z"/><linearGradient id="i" gradientUnits="userSpaceOnUse" x1="42.236" y1="34.593" x2="42.483" y2="31.458" gradientTransform="matrix(1 0 0 -1 0 57)"><stop offset=".216" stop-color="#F9F0AA"/><stop offset="1" stop-color="#AF802C"/></linearGradient><path fill="url(#i)" stroke="#999270" stroke-width=".015" d="M44.4 23.9c.6-.1.6-1 .2-1.3-1.5-.1-3.4 0-4.8.1.2 0 .6 0 .6.6 0 .3-.1.5-.3.7-.2.1-.4.1-.4.1h.6c2.1-.3 4.1-.2 4.1-.2z"/><path d="m40.8 25.3-.1-.1h.3c-.1 0-.1 0-.2.1.1.1.2.2.2.3 0 0 0 .1.1.1h.1v-.1.1h-.4.1v-.1c0-.2 0-.3-.1-.3zm.5-.1-.1-.1h.3l-.2.1c.1.1.2.2.2.3 0 0 0 .1.1.1h.2-.3v-.1c-.1-.1-.2-.2-.2-.3zm.4.1h.1s0-.1-.1-.1h-.1c.1 0 .1 0 .1.1zm.1.1.1.1v-.1h-.1zm-.2-.2-.1-.1h.3c.1 0 .1.1.1.1s0 .1-.1.1c.1 0 .1.1.1.1v.1h-.3v-.1c.1 0 0-.1 0-.2zm.7-.2.1.1c-.1.1-.1.1-.1-.1-.1.1-.1.1-.2.1v.1s0 .1.1.1h.1v-.1.2h-.2s0 .1.1.1h.2v-.1.2H42s.1 0 .1-.1v-.1l-.1-.3s0-.1-.1-.1h.4zm.2.2-.1-.1h.3c.1 0 .1.1.1.2 0 0 0 .1-.1.1.1 0 .1.1.1.1s0 .1.1 0c0 0 0 .1-.1.1 0 0-.1 0-.1-.1l-.1-.2h-.1s0 .1.1.1h.1-.3c.2 0 .2-.1.1-.2zm.1 0c0 .1.1.1 0 0 .1 0 .1 0 .1-.1 0 0 0-.1-.1-.1h-.1c.1.1.1.2.1.2zm.7.2.1.1h-.3c.1 0 .1 0 .2-.1-.1 0-.1 0-.1-.1l-.1-.3h-.2v.1-.1h.4v.1h-.1s0-.1-.1-.1H43v.1c.2.1.3.2.3.3zm.4-.1v.1h.1-.1c-.1 0-.1 0 0-.1-.1-.1-.1-.2-.1-.4h.1l.3.4h.1-.2v-.1l-.1-.1c0 .2 0 .2-.1.2zm.1 0-.1-.2v.2h.1zm.3-.2c-.1-.1-.2-.1-.2-.1h.4c.1 0 .3.2.3.3 0 .1 0 .1-.1.2h-.3v-.1c-.1-.1-.1-.2-.1-.3zm.2.2.1.1s.1 0 .1-.1 0-.1-.1-.2c0-.1-.1-.1-.2-.1h-.1l.2.3zm-2 1.2.1.1h-.3s.1 0 .2-.1h-.1l-.1-.3h-.2.2l.2.3zm0-.4h.2v.1s0 .1-.1.1c.1-.1 0-.1-.1-.2.1.1.1.2.1.2h.1c.1 0 .2.1.2.1v.1s-.1.1-.2.1c0 0-.1 0-.1-.1v-.1s.1 0 .1.1h.1s.1 0 .1-.1v-.1l-.1-.1h-.1v-.1c-.1.1-.2.1-.2 0zm.7.1c0-.1-.1-.1 0 0l-.1-.1h.4c.1 0 .3.2.3.3 0 .1 0 .1-.1.1h-.3v-.1c-.1 0-.2-.1-.2-.2zm.2.2.1.1s.1 0 .1-.1 0-.1-.1-.2c0-.1-.1-.1-.2-.1H43l.2.3zm.6-.4.1.1c-.1.1-.1 0-.1-.1l-.2.1v.1s0 .1.1.1h.1v-.1.2h-.2s0 .1.1.1h.2v-.1.1h-.4.1v-.1l-.1-.3s0-.1-.1-.1h.4zm-2.6 1.4.1.1c.1 0 .2 0 .2.1v.1s0 .1-.1.1h-.2v-.2c0 .1.1.1.2.1 0 0 .1 0 .1-.1s0-.1-.1-.1-.1 0-.2-.1c-.1.1-.1 0 0 0-.1-.1-.1-.1 0-.1h.2v.2c0-.2-.1-.2-.2-.1.1-.1 0-.1 0 0zm.6-.2c0 .1.1.1.1.1h-.1v-.1c-.1.1-.1.1-.2.1v.2h.1v-.1.2h-.2s0 .1.1.1h.2v-.1.1h-.4.1v-.1l-.1-.3s0-.1-.1-.1h.5zm.4.4.1.1H42c.1 0 .1 0 .2-.1h-.1l-.1-.3s0-.1-.1-.1h-.1.3c.1 0 .1 0 .2.1v.1l-.1.1v.1zm0-.2c.1 0 .1 0 .1-.1 0 0 0-.1-.1-.1h-.1c0 .1.1.2.1.2zm.6.2.1.1h-.3c0-.1.1-.1.2-.1-.1 0-.1 0-.1-.1l-.1-.3h-.2v.1-.1h.4v.1s0-.1-.1-.1h-.1v.1l.2.3zm.2-.3-.1-.1h.3c-.1 0-.2 0-.2.1.1 0 .1.1.1.1 0 .1 0 .1.1.2h.2-.3v-.1c-.1-.1-.1-.2-.1-.2zm.5-.2c0 .1.1.1.1.1h-.1v-.1c-.1.1-.1.1-.2.1v.2h.1v-.1.2h-.1s0 .1.1.1h.2v-.1.1h-.4v-.1l-.1-.3s0-.1-.1-.1h.5zm.2.1c.1-.1.1 0 .1 0l.2.3v-.3h.2s-.1 0-.1.1l.1.3s0 .1.1 0H44s.1 0 .1-.1l-.1-.3v.4l-.3-.4c.1.2.1.2.2.3h.1-.1v-.1c-.2 0-.2-.1-.2-.2zm.8.1h.1v-.1h-.1v.1zm.1.1.1.1c0-.1 0-.1-.1-.1-.1-.1-.1 0 0 0zm-.2-.2-.1-.1h.4c.1 0 .1.1.1.1s0 .1-.1.1l.1.1v.1h-.3v-.1c-.1 0-.1-.1-.1-.2zm.5 0c0-.1-.1-.1 0 0l-.1-.1h.3l.2.1v.1c.1 0 .1.1.1.1v.2h-.1s-.1 0-.1-.1l-.1-.2H45v.1h.2-.3v-.2zm.1.1h.1s0-.1-.1-.1h-.1c.1 0 .1 0 .1.1zm.6-.3c.1 0 .1.1 0 0 0 .1.1.1.1.1-.1 0-.1 0-.1-.1-.1 0-.1 0-.2.1v.2h.1v-.1.2h-.1v.1h.2v-.1.1h-.4v-.1l-.1-.3s0-.1-.1-.1h.6zm-3.1 1.3-.1-.1h.3c.1 0 .2.1.2.2v.2c0 .1-.1.1-.2.1h-.2.1v-.1c0-.2-.1-.3-.1-.3zm.2.2.1.1s.1 0 .1-.1v-.2c0-.1-.1-.1-.1-.1h-.1c-.1.1 0 .2 0 .3zm.7-.4c0 .1 0 .1.1.1-.1 0-.2-.1-.1-.1-.1.1-.1.1-.2.1v.2h.1v-.1.2h-.1v.1h.2v-.1.1H43v-.1c0-.1 0-.2-.1-.3 0 0 0-.1-.1-.1h.6zm.6.4.1.1h-.4c.1-.1.2-.1.3-.1h-.1c0-.1 0-.2-.1-.3h-.2.2c.1 0 .1.1.2.3zm.3-.3c-.1-.1-.1-.1-.1 0v.1c0-.1.1-.1.1-.1zm.1.2-.1-.1v.1c-.1.1 0 .1.1 0-.1.1 0 .1 0 0zm.1 0v.1h-.2c-.1 0-.1-.1-.1-.1v-.1l-.1-.1s0-.1.1-.1.2 0 .2.1v.1h-.1c.1 0 .1 0 .2.1zm.3.1c.1-.1.1-.1.1 0h-.1c-.1.1-.1.1-.2.1h-.1v-.1c0-.1.1-.1.1-.1l.1-.1v-.1s-.1-.1-.1 0v.1h.1v.1s-.1 0-.1-.1v-.1h.2c.1 0 .1.1.1.1v.1c0 .1-.1.1-.2.2v.1c-.1-.2 0-.2.1-.2zm.4-.1.1.1h-.4c.1 0 .2 0 .3-.1h-.1c0-.1 0-.2-.1-.3h-.2.2l.2.3z" fill="#AF802C"/><radialGradient id="j" cx="42.664" cy="36.669" r=".033" gradientTransform="matrix(1 0 0 -1 0 57)" gradientUnits="userSpaceOnUse"><stop offset=".259" stop-color="#A41E21"/><stop offset="1" stop-color="#481212"/></radialGradient><path fill="url(#j)" stroke="#481212" stroke-width=".021" d="m42.5 20.7-.4.4c-.1.5.2.9.7 1.2.4.3 1.3.3 1.5.1L43 21.2l-.5-.5z"/><path fill="#45823D" stroke="#365528" stroke-width=".021" d="M45.1 33.5c-.1-.1-.1-.2-.2-.2-.8 1.1-1.8 2-3.1 2.7 1.4-.5 2.4-1.5 3.3-2.5zm-1.5 3.3c.5-1 1.1-2 1.7-3.1-.1-.1-.1-.2-.2-.2-.6 1.2-1.5 2.6-1.5 3.3zm4-10.8c-.1-.4-.2-.8-.4-1.2-.3-.5-.6-1-1.1-1.6-.9-1-1.8-1.9-3-2.6h.5-.3v-.1h-.1v-.1h-.1L43 20v-.3.2h-.1v-1.3 1.9s.1 0 .1.1v.1c-.8.1-1 .3-1 .6.1-.2.2-.3.4-.3-.1.1-.1.6 0 .6l.1-.1v.2l.1-.2c0 .1 0 .3.1.3 0-.1.1-.1.2-.1v.3c.1-.1.1-.2.2-.2v.4c0-.2.1-.2.1-.3v.4c.1-.2.1-.1.2-.2v.4c0-.1.1-.2.2-.3 0 .2.1.2-.1.3.1 0 .2 0 .3-.1 0 .1 0 .2-.1.3l.3-.2-.1.4c0-.1.1-.2.2-.2 0 .1 0 .2-.1.3.2 0 .3-.1.4-.3 0 .1 0 .2.1.4 0-.2 0-.2.1-.3.1.2.1.4.3.6-.1-.2-.1-.3-.1-.5l.2.4c0-.1 0-.3.1-.4.1.2.1.3.1.5l.1-.3c1.9 1.9 2.3 4.4.2 7 .7-.5.9-1.3 1.3-2-.4.9-.6 1.9-1.3 2.6.7-.6.8-1.1 1.2-1.7-.4 1.2-1 2.5-1.9 3.7l.4.5.4-.6c1.3-1.3 2.7-3.4 2-6.6z"/><path fill="#E9C11E" stroke="#9F842F" stroke-width=".021" d="m42.2 20.3-.2.1h.2v-.1z"/><path fill="#9F842F" d="M42 20.5c.1 0 .1-.1 0 0h.2-.2z"/><circle fill="#010101" stroke="#010101" stroke-width=".009" cx="42.6" cy="20.3" r=".1"/><path d="m43.6 36.8.1-.4.2-.4.4-.8.4-.8c.1-.1.2-.3.2-.4l.2-.4-.1.4c-.1.1-.2.3-.2.4l-.4.8-.4.8-.2.4-.2.4zm-1.7-.9.5-.2c.2-.1.3-.2.4-.3.3-.2.6-.4.8-.6.3-.2.5-.5.7-.7l.3-.4.3-.4-.3.4-.3.4c-.2.3-.5.5-.7.7l-.8.6-.4.3c-.2.1-.4.1-.5.2zm3.5-2.8.2-.3.2-.3.4-.6c.1-.2.2-.4.4-.7l.3-.7-.2.3-.2.3c-.1.2-.2.4-.4.7-.1.2-.2.4-.4.6 0 .3-.2.5-.3.7zm.5-2.3c.2-.2.3-.4.4-.6.1-.2.3-.4.4-.7.2-.5.4-.9.5-1.4v-1.6l-.1-.7-.2-.7c.1.2.2.5.2.7.1.2.1.5.1.7v1.6c-.1.5-.3 1-.5 1.4-.1.2-.2.4-.4.7 0 .2-.2.4-.4.6zm-.1-.6.5-.6.4-.6c.1-.2.2-.4.3-.7l.1-.3v-.2c0-.1 0-.1.1-.2l.1-.7c0-.2 0-.5-.1-.7 0-.2-.1-.5-.2-.7-.1-.2-.2-.5-.2-.7l.3.7.2.7.1.7c0 .2 0 .5-.1.7 0 .1 0 .1-.1.2v.2l-.1.3c-.1.2-.2.4-.3.7-.1.2-.2.4-.4.6-.3.3-.4.5-.6.6zm-.6 2.8.3-.5.2-.2c.1-.1.1-.2.2-.2l.3-.5.3-.5c.2-.3.3-.7.5-1.1l.3-1.1c.1-.4.1-.8.2-1.1v-1.2c0-.4-.1-.8-.3-1.1-.1-.4-.3-.7-.5-1.1.2.3.4.7.5 1.1l.3 1.1v1.2c0 .4-.1.8-.2 1.1-.1.4-.2.8-.3 1.1-.1.4-.3.7-.5 1.1l-.3.5-.3.5c-.1.1-.1.2-.2.2l-.2.2c0 .2-.2.3-.3.5zm.3.3c.2-.4.4-.7.7-1.1l.6-1.1.5-1.2.2-.6c0-.1 0-.2.1-.3v-.3c.1-.4.1-.8.1-1.3 0-.4 0-.9-.1-1.3s-.2-.8-.4-1.2c-.2-.4-.4-.8-.7-1.1.3.3.5.7.7 1.1.2.4.3.8.4 1.2.1.4.1.8.1 1.3 0 .4 0 .9-.1 1.3v.3c0 .1 0 .2-.1.3 0 .2-.1.4-.2.6-.1.4-.3.8-.5 1.2-.2.4-.4.8-.6 1.1-.3.3-.5.7-.7 1.1zm-2.6-12.4h.2l.3.1.5.3c.1.1.3.2.4.4l.2.2.2.2-.2-.2-.2-.2c-.1-.1-.3-.2-.4-.4-.1-.1-.3-.2-.5-.3-.1 0-.2-.1-.2-.1h-.3z" fill="#365528"/><path fill="#45823D" d="M44.4 21.9s.3.2.4.4c0 0-.4-.1-.8-.4"/><path fill="#365528" d="m44.4 21.9.1.1.1.1.1.1.1.1c-.1 0-.1 0-.2-.1l-.2-.1-.3-.3c.1.1.2.2.4.3l.2.1c.1 0 .1 0 .2.1l-.1-.1-.1-.1-.1-.1c-.1-.1-.1-.1-.2-.1z"/><path fill="#45823D" d="M43.8 21.8s.7.4.8.5c0 0-.2-.3-.5-.5"/><path fill="#365528" d="m43.8 21.8.4.2.2.1s.1 0 .1.1c0 0 .1 0 .1.1 0-.1-.1-.1-.1-.1l-.1-.1-.1-.1-.1-.1c.1 0 .1 0 .2.1l.1.1.1.1.1.1-.2-.1-.2-.1c-.3-.1-.4-.2-.5-.3z"/><path fill="#45823D" d="M44 21.6s.4.2.4.4l-.8-.4"/><path fill="#365528" d="M44 21.6s.1 0 .1.1l.1.1.1.1.1.1-.2-.1-.2-.1-.2-.1s-.1 0-.1-.1c0 0-.1 0-.1-.1 0 0 .1 0 .1.1 0 0 .1 0 .1.1l.2.1.4.2s0-.1-.1-.1l-.1-.1-.1-.1c0-.1 0-.1-.1-.1z"/><path fill="#45823D" d="M43.5 21.8s.6.4.8.4c0 0-.2-.3-.5-.4"/><path fill="#365528" d="m43.5 21.8.2.1.2.1.2.1h.2l-.1-.1-.1-.1-.1-.1-.1-.1c.1 0 .2.1.3.2l.1.1.1.1h-.2L44 22l-.2-.1c-.2 0-.2 0-.3-.1z"/><path fill="#45823D" d="M43.5 22s.3.3.5.3c0 0-.2-.3-.5-.4"/><path fill="#365528" d="m43.5 22 .1.1.1.1s.1 0 .1.1h.2l-.1-.1-.1-.1-.1-.1-.1-.1c.1 0 .2.1.3.2l.1.1.1.1H44s-.1 0-.1-.1l-.1-.1c-.2-.1-.3-.1-.3-.1z"/><path fill="#45823D" d="M43.3 21.4s.7.5.8.7c0 0-.6-.3-.7-.4"/><path fill="#365528" d="m43.3 21.4.2.2.2.2.2.2.1.1.1.1-.2-.1-.2-.1-.2-.1s-.1 0-.1-.1c0 0-.1 0-.1-.1 0 0 .1 0 .1.1 0 0 .1 0 .1.1l.2.1.4.2s0-.1-.1-.1l-.1-.1-.2-.2-.2-.2c0-.1-.1-.2-.2-.2z"/><g stroke="#2A421D" stroke-width=".015"><path fill="#41642F" d="M39.6 35c-.5.3-1.8.5-1.9.5.9-.9 1.8-.9 1.9-.5zm6.6.4c.5.5 2 .8 2.2.7-1-1-2.1-1.1-2.2-.7z"/><path fill="#68933E" d="M39.6 35c-.1-.3-1-.3-1.9.5.9-.4 1.8-.6 1.9-.5zm6.6.4c.1-.4 1.2-.3 2.2.7-1.2-.5-2.1-.8-2.2-.7z"/></g></svg>
