<svg xmlns="http://www.w3.org/2000/svg" width="87" height="57"><path fill="#C6233A" d="M0-.4h87v57.9H0z"/><path fill="#263575" d="M2.6 2.2h81.7v52.6H2.6z"/><path fill="#C6233A" d="M43.4 12.7s-10.6 7.2-10.6 15.7l10.6 15.9s10.5-6.8 10.5-15.9c0-9.1-10.5-15.7-10.5-15.7"/><path fill="#6DAEDF" d="M52.3 31.2c.2-.9.4-1.8.4-2.8 0-8.1-9.3-14.2-9.3-14.2S34 20.5 34 28.4c0 1 .1 1.9.4 2.8h17.9"/><path fill="#3578BD" d="M43.4 42.7s7.3-4.8 9-11.5h-18c1.7 6.6 9 11.5 9 11.5"/><path fill="#9C8430" d="M52.7 29.4c-1.6 1.1-10.6.6-10.6.6l-.5 1.3h10.7l.1-.5.3-1.4"/><path d="M42.9 37.4c-.1-.9-4.3-2-6.5-1.9.7 1.1 1.5 2.1 2.3 3 1.1-1.2 4.2-.8 4.2-1.1m8.5-3.5c-.5 0-1.5.1-2.2.4-1 .5-3.1 1-4 .8-1-.3-2.5.6-2.3.8.3.3 2.5 0 2.5 1.9 0 1.6-2.5.9-3.5 1.6-.6.4-1 .9-1.3 1.1 1.6 1.4 2.8 2.3 2.8 2.3s2.9-1.9 5.5-5l1.2-1.6 1.3-2.3" fill="#FCEE21"/><path d="M42.9 21.3s-1.4-.8-3.4-.4l-2.4 1.6.7-.3v.3l.6-.4v.3l.5-.5.1.3.5-.4v.2l.7-.5v.3l.6-.3-.1.3 1.1-.2s-2.7.9-3 3l.5-.6.1.3.3-.6.1.3.3-.6.1.4.4-.6v.4l.5-.7v.3l.5-.6v.4s.5-.4.7-.4l-.6.8.2.1s-.4.4-.5.4c0 .1.3 0 .3 0s-.4.4-.4.5c0 .1.3 0 .3 0s-.4.5-.4.6c-.1.2.2 0 .2 0s-.2.5-.2.7c0 .2.3 0 .3 0l.2.9.3-1.1.2.3V25l.2.1v-.5l.2.2-.1-.6.2.3V24l.2.2v-.7l.2.2v-.5l.2.1s0-.6.3-.6.6.3.5.4l.2-.1-.1.6.2-.1v.4l.2-.1-.1.5.2-.1v.7l.3-.2v.8l.3-.2v.6l.2-.2.3.6-.1-.9.2.2-.3-.7h.3l-.3-.4h.3l-.4-.4.3-.1-.8-.5.3-.1-.6-.4.2-.1-.4-.4.4.2.1-.3.5.4v-.4l.4.6.1-.4.3.5.1-.2.2.5.1-.4.2.5.1-.4.2.6.2-.2.1.6.2-.2.2.5.2-.2.2.6s.6-3.1-4.3-3.1l-1.1-.4m-2.2-2.7.3.3-.2.1.5.3-.1.2.5.2-.2.1.4.2-.3.1.5.2-.1.2.4.1-.2.2.5.4.6.4.4-.1-.2-.7c0-.1-1.6-2.3-2.8-2.2m1.4-2.2.2.4-.3.1.6.6h-.5l.6.4-.2.1.5.5-.3.1.5.5-.4.1.6.5h-.3l.4.5-.3.1s.4.7.4 1h.7s.1-2 0-2.2l-.2.1.1-.7-.3.2-.1-.7-.3.3-.1-.8-.2.3-.2-.8-.2.3-.2-.5-.2.2-.3-.6m1.8 5c.2-1.2 1.4-2.9 3.8-3l-.5.3.3.1-.7.2.3.2-.7.1.4.3-.5.1-.4.1.3.3-.7-.1.4.2s-1 .3-1 .4c0 0 3.3-.8 4.1.7l-.6-.3.1.3-.4-.3.1.2-.5-.2.1.3-.5-.3.1.3-.6-.3.1.3-.5-.2.1.3H46l.1.3h-1.6l-.6-.3" fill="#009271"/><g fill="#7B4B1E"><path d="M43.4 22.4h.3c-.2 3.2 0 7.9.4 9.6.7 2.9 2.9 4 3.5 4.3.3.2.2.8-.4.8-.6 0-2.6-1.6-3.4-4.3-.9-3.7-.5-10-.4-10.4"/><circle cx="43.9" cy="21.7" r=".4"/><circle cx="43.3" cy="21.6" r=".4"/><circle cx="43.3" cy="22.2" r=".3"/><circle cx="43.7" cy="22" r=".4"/></g><path fill="#010101" d="M40.1 33.4h.4v-4.1h-.4v4.1z"/><path fill="#7B4B1E" d="M41.3 34.2s-.2 0-.4.1V34h-.3v.4h-.9c-.4 0-.7 0-1-.1V34h-.3v.3c-.2 0-.4-.1-.4-.1s-.1.4 1.7.4l1.6-.4m-1.6-.8c1.4 0 2.6-.2 2.6-.2s.2.9-2.6.9l-2.5-.8s1.1.1 2.5.1"/><path fill="#fff" d="M38.5 29.5s2.2.8 3 3.7c0 0-2-.4-3.1 0h-.6s1.1-1.6.7-3.7"/><path d="M38.8 27.4h-.4c0-.2-.1-.3-.2-.4l-.2-.1c-.2 0-.3.1-.4.2-.1.2-.2.4-.2.7 0 .3.1.5.2.7.1.1.2.2.4.2.1 0 .3-.1.3-.2.1-.1.1-.2.2-.4H38v-.4h.8v1.4h-.3v-.3l-.2.3c-.1.1-.2.1-.4.1-.3 0-.5-.1-.6-.4-.2-.2-.3-.6-.3-1s.1-.7.3-1c.2-.2.4-.4.7-.4.2 0 .5.1.6.2.1.3.2.5.2.8m1.9.7v-1.6h.4v2c0 .1.2.2.3.2.2 0 .3-.1.3-.2v-2h.4v1.6c0 .3 0 .5-.1.6-.1.3-.4.4-.7.4-.3 0-.6-.1-.7-.4.2-.1.1-.3.1-.6m4.4-1.5-.7 2.5h.4l.1-.5h.7l.1.5h.4l-.7-2.5h-.3zm.3.5.2 1h-.5l.3-1zm3.5 1.5.4-2h.6v2.5h-.4V27l-.4 2.1h-.4l-.4-2.1v2.1h-.4v-2.5h.6l.4 2" fill="#C6233A"/></svg>
