<svg xmlns="http://www.w3.org/2000/svg" width="87" height="57" xml:space="preserve"><path fill="#D31F36" d="M-4.3-.5h95.8V57H-4.3z"/><path fill="#283890" d="M-4.3-.5h95.8v28.8H-4.3z"/><path fill="#FFF" d="M34.5 21h18.1v14.4H34.5z"/><path fill="#0E6B37" stroke="#0E6B37" stroke-width=".035" d="m47.2 31.5-3.7.1h-3.7s-1.9.7-2.7.9c-.8.2-.7.4-1.3.5-.5.1-.5.1-.8.2-.2 0-.4.1-.6.3v2h18.1v-1.9c-.2-.1-.4-.2-.6-.2-.3-.1-.4-.2-.9-.3-.6-.1-.5-.4-1.3-.5-.6-.3-2.5-1.1-2.5-1.1z"/><g stroke-width=".035"><g stroke="#010101"><path fill="#F0B51C" d="M42.5 27h.3l.5 2.1-.1.6-.7-2.7z"/><path fill="#FFF" d="m42.3 25.6.2 1.6h.2l-.4-1.6z"/><path fill="#F0B51C" d="m42.8 29.1-.8-2.2h.3l1 2.7-.5-.5z"/><path fill="#FFF" d="m41.6 25.7.3 1.5h.3l-.6-1.5z"/><path fill="#F0B51C" d="m42 28.4-.5-1h.2l.9 1.7-.6-.7z"/><path fill="#FFF" d="m40.9 26.1.5 1.5h.3l-.8-1.5z"/></g><path fill="#263C86" stroke="#010101" d="m42.1 28.5-2.2-2.4c-.7.5-.6 1.5-.6 1.5l2.5 1.9.3-1z"/><path fill="#D22027" stroke="#010101" d="m43.4 29.8-1.6-1.6c-.7 0-.1 1.1-.1 1.2l1.7 1.5v-1.1z"/><path fill="#F0B51C" stroke="#010101" d="m43.2 29.5-3.4-3.6-.1.1 3.6 4-.1-.5zm-3.5-3.8-.1-.3-.7-.4.3.7h.2l.1.1.2-.1z"/><path fill="#F0B51C" stroke="#010101" d="M39.3 26c.1-.1.3-.3.5-.4l.2.3-.4.3-.3-.2z"/><path fill="#263C86" stroke="#263C86" d="m38.9 26.6.1.2c.1 0 .8-.7.8-.7h.5l.1-.2c-.4-.4-.7.1-.7.1l-.8.6z"/><path fill="#D22027" stroke="#D22027" d="M39.3 26.9c0-.2.4-.6.4-.6.2.1.5.2.7-.4-.2.3-.7 0-.7 0l-.2.2v.1l-.6.5.4.2z"/><path fill="#263C86" stroke="#010101" d="M41.1 29.1 38.4 27c-.5.5-.1 2-.1 2l2.7 1.5.1-1.4z"/><path fill="#D22027" stroke="#010101" d="m43.4 30.9-2.3-1.8c-.8.1-.2 1.2-.1 1.4l2.4 1.3v-.9z"/><path fill="#F0B51C" stroke="#010101" d="m43.3 30.6-4.9-3.7-.1.1 5.1 4-.1-.4zm-5.1-3.9-.1-.2-.8-.3.4.6h.2l.1.1.2-.2z"/><path fill="#F0B51C" stroke="#010101" d="M37.9 27c.1-.2.2-.3.4-.5l.2.2-.3.4-.3-.1z"/><path fill="#263C86" stroke="#263C86" d="M37.6 27.6v.2c.1 0 .7-.7.7-.7l.5-.1.1-.2c-.3-.4-.7.1-.7.1l-.6.7z"/><path fill="#D22027" stroke="#D22027" d="M38 28c0-.2.2-.7.3-.8.3.1.6.2.7-.4-.2.3-.7.1-.7.1l-.2.2v.1l-.5.6.4.2z"/><path fill="#263C86" stroke="#010101" d="m40.9 30.5-3.5-2c-.3.4 0 1.1.1 1.2 0 .3-.1.4.1 1 .1.4.3.8.5 1 .3 1.2 1.6 1.3 2.1.3l.7-1.5z"/><path fill="#D22027" stroke="#010101" d="m43.3 31.8-2.4-1.4c-.8.1 0 1.5.1 1.7l2.3.8v-1.1z"/><path fill="#F0B51C" stroke="#010101" d="m42.9 31.3-5.4-2.9-.1.1 5.7 3.2-.2-.4zm-5.7-3.1L37 28l-.8-.2.5.6h.2l.1.1.2-.3z"/><path fill="#F0B51C" stroke="#010101" d="M36.9 28.6c.1-.2.1-.4.3-.6l.3.2-.3.5-.3-.1z"/><path fill="#263C86" stroke="#263C86" d="m36.7 29.2.1.2c.1 0 .6-.9.6-.9l.5-.2.1-.2c-.4-.4-.7.3-.7.3l-.6.8z"/><path fill="#D22027" stroke="#D22027" d="M37.2 29.6c0-.2.1-.8.1-.8.3.1.5.1.6-.5-.2.3-.6.2-.6.2l-.1.2v.1l-.4.8h.4z"/></g><g stroke-width=".035"><g stroke="#010101"><path fill="#F0B51C" d="M455.259 27h.3l.5 2.1-.1.6-.7-2.7z"/><path fill="#FFF" d="m454.959 25.6.2 1.6h.2l-.4-1.6z"/><path fill="#F0B51C" d="m455.459 29.1-.8-2.2h.3l1 2.7-.5-.5z"/><path fill="#FFF" d="m454.259 25.7.3 1.5h.3l-.6-1.5z"/><path fill="#F0B51C" d="m454.759 28.4-.5-1h.2l.9 1.6-.6-.6z"/><path fill="#FFF" d="m453.659 26.1.5 1.5h.3l-.8-1.5z"/></g><path fill="#263C86" stroke="#010101" d="m454.859 28.5-2.2-2.4c-.7.5-.6 1.5-.6 1.5l2.5 1.9.3-1z"/><path fill="#D22027" stroke="#010101" d="m456.059 29.8-1.6-1.6c-.7 0-.1 1.1-.1 1.2l1.7 1.5v-1.1z"/><path fill="#F0B51C" stroke="#010101" d="m455.959 29.5-3.4-3.6-.1.1 3.6 4-.1-.5zm-3.6-3.8-.1-.3-.7-.4.3.7h.2l.1.1.2-.1z"/><path fill="#F0B51C" stroke="#010101" d="M452.059 26c.1-.1.3-.3.5-.4l.2.3-.4.3-.3-.2z"/><path fill="#263C86" stroke="#263C86" d="m451.659 26.6.1.2c.1 0 .8-.7.8-.7h.5l.1-.2c-.4-.4-.7.1-.7.1l-.8.6z"/><path fill="#D22027" stroke="#D22027" d="M452.059 26.9c0-.2.4-.6.4-.6.2.1.5.2.7-.4-.2.3-.7 0-.7 0l-.2.2v.1l-.6.5.4.2z"/><path fill="#263C86" stroke="#010101" d="m453.859 29.1-2.8-2.2c-.5.5-.1 2-.1 2l2.7 1.5.2-1.3z"/><path fill="#D22027" stroke="#010101" d="m456.159 30.9-2.3-1.8c-.8.1-.2 1.2-.1 1.4l2.4 1.3v-.9z"/><path fill="#F0B51C" stroke="#010101" d="m456.059 30.6-4.9-3.7-.1.1 5.1 4-.1-.4zm-5.1-3.9-.1-.2-.8-.3.4.6h.2l.1.1.2-.2z"/><path fill="#F0B51C" stroke="#010101" d="M450.659 27c.1-.2.2-.3.4-.5l.2.2-.3.4-.3-.1z"/><path fill="#263C86" stroke="#263C86" d="M450.359 27.6v.2c.1 0 .7-.7.7-.7l.5-.1.1-.2c-.3-.4-.7.1-.7.1l-.6.7z"/><path fill="#D22027" stroke="#D22027" d="M450.759 28c0-.2.2-.7.3-.8.3.1.6.2.7-.4-.2.3-.7.1-.7.1l-.2.2v.1l-.5.6.4.2z"/><path fill="#263C86" stroke="#010101" d="m453.659 30.5-3.5-2c-.3.4 0 1.1.1 1.2 0 .3-.1.4.1 1 .1.4.3.8.5 1 .3 1.2 1.6 1.3 2.1.3l.7-1.5z"/><path fill="#D22027" stroke="#010101" d="m455.959 31.8-2.4-1.4c-.8.1 0 1.5.1 1.7l2.3.8v-1.1z"/><path fill="#F0B51C" stroke="#010101" d="m455.559 31.3-5.4-2.9-.1.1 5.7 3.2-.2-.4zm-5.7-3.1-.1-.2-.8-.2.5.6h.2l.1.1.1-.3z"/><path fill="#F0B51C" stroke="#010101" d="M449.659 28.6c.1-.2.1-.4.3-.6l.3.2-.3.5-.3-.1z"/><path fill="#263C86" stroke="#263C86" d="m449.459 29.2.1.2c.1 0 .6-.9.6-.9l.5-.2.1-.2c-.4-.4-.7.3-.7.3l-.6.8z"/><path fill="#D22027" stroke="#D22027" d="M449.959 29.6c0-.2.1-.8.1-.8.3.1.5.1.6-.5-.2.3-.6.2-.6.2l-.1.2v.1l-.4.8h.4z"/></g><path fill="#0E6B37" stroke="#0E6B37" stroke-width=".035" d="m43.3 23.6-.1 1.7h.6l-.1-1.7.6-.1-.1-.7-1.4.1v.6l.5.1z"/><g fill="#0E6B37" stroke="#010101" stroke-width=".035"><path d="M43.5 22.9c-1.5-1.5-2.7-.8-2.9-.6.2 0 .3-.1.4-.1l-.2.2.5-.2c-.1.1-.1.2-.1.2l.3-.2c-.1.1-.1.3-.1.3l.2-.1c.1 0 0 .1 0 .1.4 0 .9.3 1 .5"/><path d="M43.2 23.1c-.2-.4-3-1-3.6 0 .2.1.4-.2.4-.2v.2l.4-.3-.1.3.3-.2v.2l.4-.4v.2l.3-.1v.2"/><path d="M43.1 23.2c-.7-.5-1.9-.2-1.9-.2-.7.4-1.1.3-1.2 1.1.1 0 .3-.3.3-.3l.1.3v-.4l.1.3.2-.5v.4l.3-.4.1.1.1-.3.1.2s.2-.1.3 0l.2-.2v.2l.2-.2.1.1.2-.2v.1h.6"/><path d="M42.9 23.3c-.5 0-2 .5-2.3 1.1.1-.1.2-.1.2-.1l.1.2.1-.2v.2c.1-.1.1-.2.2 0v-.2l.1.2.1-.2.1.2.2-.4v.3l.1-.3.1.2V24l.1.2s.1-.2.1-.3l.1.1.6-.5"/><path d="M43 23.4c-.7.3-1.3 1.2-1.2 1.6.3-.4.2-.3.4.1l.1-.4.1.3v-.4h.1v-.2l.1.1c0-.1-.1-.2.1-.3 0 0-.2 0 0-.3l.1.1v-.2l.5-.2"/><path d="m43.1 23.5-.3.5h.1l-.3.2h.2s-.4.1-.4.5l.4-.2s-.3.3-.4.5l.2-.2s-.2.2-.2.6l.2-.2c0 .4 0 .5.2.8 0 0-.1-.5 0-.6l.4.4-.2-.5s.3.4.4.4l-.3-.5.3.3-.4-.6.4.1s-.3-.3-.2-.5l.2.3s-.1-.3-.1-.4h.1l-.2-.3h.2v-.2h.1v-.2"/><path d="M43.3 23.6c-.4.6-.2 1.4-.5 1.9"/></g><g fill="#0E6B37" stroke="#010101" stroke-width=".035"><path d="M456.259 22.9c-1.5-1.5-2.7-.8-2.9-.6.2 0 .3-.1.4-.1l-.2.2.5-.2c-.1.1-.1.2-.1.2l.3-.2c-.1.1-.1.3-.1.3l.2-.1c.1 0 0 .1 0 .1.4 0 .9.3 1 .5"/><path d="M455.859 23.1c-.2-.4-3-1-3.6 0 .2.1.4-.2.4-.2v.2l.4-.3-.1.3.3-.1v.2l.4-.4v.2l.3-.1v.2"/><path d="M455.759 23.2c-.7-.5-1.9-.2-1.9-.2-.7.4-1.1.3-1.2 1.1.1 0 .3-.3.3-.3l.1.3v-.4l.2.3.2-.5v.4l.3-.4.1.1.1-.3.1.2s.2-.1.3 0l.2-.2v.2l.3-.3.1.1.2-.2v.1h.6"/><path d="M455.559 23.3c-.5 0-2 .5-2.3 1.1.1-.1.2-.1.2-.1l.1.2.1-.2v.2c.1-.1.1-.2.2 0v-.2l.1.2.1-.2.1.2.2-.4v.3l.2-.4.1.2v-.3l.1.2s.1-.2.1-.3l.2.2.6-.5"/><path d="M455.659 23.4c-.7.3-1.3 1.2-1.2 1.6.3-.4.2-.3.4.1l.1-.4.1.3v-.4h.1v-.2l.1.1c0-.1-.1-.2.1-.3 0 0-.2 0 0-.3l.1.1v-.2l.5-.2"/><path d="m455.759 23.5-.3.5h.1l-.3.2h.2s-.4.1-.4.5l.4-.2s-.3.3-.4.5l.2-.2s-.2.2-.2.6l.2-.2c0 .4 0 .5.2.8 0 0-.1-.5 0-.6l.4.4-.2-.6s.3.4.4.4l-.3-.5.3.3-.4-.6.5.2s-.3-.3-.2-.5l.2.3s-.1-.3-.1-.4h.1l-.2-.3h.2v-.2h.1v-.2"/><path d="M456.059 23.6c-.4.6-.2 1.4-.5 1.9"/></g><g fill="#F0B51C" stroke="#010101" stroke-width=".035"><path d="M43.8 31.4s.2-1.9.2-2.7c0-.6-.2-2.1-.2-2.1h-.7S43 28 43 28.7c0 .8.2 2.7.2 2.7h.6z"/><path d="M43.1 26.7h.8l-.1-.5h-.6l-.1.5z"/><path d="M43.2 26.3h.7l-.1-.5h-.4l-.2.5z"/><path d="M43.2 25.9h.6l-.1-.5h-.4l-.1.5z"/><path d="M43.7 25.3h-.4v.2h.5l-.1-.2zm.1 5.7h-.5m.5-.4h-.6m.7-.3h-.7m.7-.5h-.7m.7-.4h-.8m.9-.4h-.9m.9-.3h-.9m.9-.4h-.9m.8-.4H43m.9-.4h-.8m.8-.4h-.7"/></g><g stroke-width=".035"><path fill="#263C86" stroke="#263C86" d="M43.6 22.3c-.1-.1-.4-.3-.3-.4l.1-.2c.2-.4 0-.3 0-.4 0-.1.7 0 .8.3 0 .1-.1 0 0 .5l-.1.3c-.3 0-.4 0-.5-.1z"/><path fill="#F0B51C" stroke="#010101" d="m43.7 23.4-.2-.2.1-1.4.2.1c-.1.1-.1 1.5-.1 1.5z"/><path fill="#D22027" stroke="#D22027" d="M43.9 22.4c.1-.1.2-.3.1-.4-.2-.2-.3-.1-.6-.3-.1.1-.2.2-.2.3.4.2.3 0 .4.1.1 0 .1.1.3.3z"/></g><path fill="#0E6B37" stroke="#FFF" stroke-width=".045" stroke-linecap="round" d="M41.398 290.17c-.1.1-.2.2-.4.2s-.3-.1-.4-.2v.1c0 .1.2.2.4.2s.4-.1.4-.3c0 0 0 0 0 0h0z"/><path fill="#0E6B37" stroke="#FFF" stroke-width=".035" stroke-linecap="round" d="M41.4 30.5c0 .2-.2.5-.3.5s-.3-.2-.3-.5v-.2h.7v.2z"/><ellipse fill="#FFF" cx="41" cy="30.2" rx=".3" ry=".2"/><path fill="#0E6B37" stroke="#F0B51C" stroke-width=".035" d="m40.9 30.4-.1-.6h.3v.6h-.2z"/><path fill="#0E6B37" stroke="#FFF" stroke-width=".045" stroke-linecap="round" d="M41.4 30.2c-.1.1-.2.2-.4.2s-.3-.1-.4-.2v.1c0 .1.2.2.4.2s.4-.1.4-.3c0 0 0 0 0 0h0z"/><g stroke-width=".035"><path fill="#F0B51C" stroke="#010101" d="m42.8 32.6-1.4-.4-.6-1-2.1-.1.1.8 1.8.3.2.3 2 .6v-.5z"/><g stroke="#010101"><path fill="#4F3513" d="m41.4 32.9-2.1-3.1-.1.1 2.1 3.2.1-.2z"/><path fill="#FFF" d="m39.5 29.9-.2-.4c0-.1-.1-.1-.2 0-.1 0-.1.1 0 .2l.2.4.2-.2z"/></g><g fill="#F0B51C" stroke="#010101"><path d="m41.7 31-4.3-.4-.1.6 4.3.4.1-.6z"/><path d="m37.3 30.4-.1.9h.2l.1-.8-.2-.1zm.7.1v.8h.1l.1-.7-.2-.1zm2.9.3-.1.7h.2l.1-.7h-.2zm.7.1-.1.8h.2l.1-.4c0 .1.1.2.2.2s.2-.1.2-.2-.1-.2-.2-.2-.1 0-.2.1v-.3h-.2zM40 31l-.6.7.1.1.8-.5-.3-.3zm-1.4 1.7.6-.7-.1-.1-.8.5.3.3zm1.6-.2-.7-.6-.1.1.6.7.2-.2zm-1.8-1.3.7.5.1-.1-.6-.6-.2.2z"/><path d="m39.2 30.8.1.9h.1l.2-.9h-.4zm.2 2.1V32h-.1l-.1.9h.2zm1-1.2-.9.1v.1l.9.1v-.3zm-2.2.3.9-.1v-.1l-.9-.1v.3z"/><circle cx="39.3" cy="31.8" r=".2"/><path stroke-linecap="round" d="M40.6 31.8c0 .7-.6 1.2-1.3 1.2s-1.3-.5-1.3-1.2.6-1.2 1.3-1.2 1.3.5 1.3 1.2zm-.3 0c0 .6-.5 1-1 1s-1-.4-1-1 .5-1 1-1c.6 0 1 .5 1 1z"/><path d="m38.5 31.2-.2-.2m1.6 0 .2-.2m.2 1.8-.2-.2m-1.6.4.2-.2"/></g><g stroke="#010101"><path fill="#F0B51C" d="m42.9 30.6.2 1.1-.2.1-.2-1.2h.2z"/><path fill="#FFF" d="M42.7 30.4c-.1 0-.2 0-.5-.2-.4.3 0 .4 0 .7.1 0 .2-.3.4-.3h.4l-.1-.1c.2-.1-.1-.1-.2-.1z"/><path fill="#FFF" d="M42.9 30.6v-.3c0-.1-.2 0-.2.1v.3l.2-.1z"/></g><path fill="#F0B51C" stroke="#010101" d="M41.8 31.6v.3c-.1 0-.1.1-.1.2v.9c0 .1-.1.1-.2.1s0 .1.2.2h.2c.3-.1.3-.2.2-.2-.1 0-.2-.1-.2-.1v-.2h.2s.1-.1.1-.2v-.5c0-.3-.2-.3-.3-.3v-.2h-.1zm.3.5c0-.1-.1-.1-.1-.1s-.1.1-.1.2v.2c0 .1.1.3.2.3s.1-.1.1-.1l-.1-.5z"/><path d="M40.6 32.5c-.1 0-.1.2-.1.2h.2c.1 0 .2.2.1.2 0 .1-.4-.1-.4 0 .1.4.6.5.7.4.2-.2.2-.6-.3-.7l-.2-.1zm.1.1-.1.1" fill="#FFF" stroke="#010101"/><path fill="#F0B51C" stroke="#010101" d="m36.9 32.7-.2-.8m.4.7-.3-.6m.8.5-.6-.3m.9.2-1.2-.5"/><path fill="#D22027" stroke="#D22027" d="M36 31.3h-.5l.1.2c-.1.2-.8.2-.9.1-.1-.1.7-.1.7-.2s-.1-.2-.1-.3c0-.1.3-.2.3-.2l.4.4z"/><path fill="#4F3513" stroke="#010101" d="m36.5 31.7-1-.8h-.1v.1l1 .8.1-.1z"/><path fill="#F0B51C" stroke="#010101" d="m37.5 32.5-.8-.7-.1-.2s-.1.1-.2.1l-.1.2h.2l.7.6h.3z"/><g fill="#F0B51C" stroke="#010101"><circle cx="40.2" cy="33.4" r=".1"/><circle cx="39.9" cy="33.2" r=".1"/><circle cx="39.4" cy="33.3" r=".1"/><circle cx="38.6" cy="33.5" r=".1"/><circle cx="38.3" cy="33.5" r=".1"/><circle cx="38" cy="33.5" r=".1"/><circle cx="37.7" cy="33.5" r=".1"/><circle cx="37.8" cy="33.3" r=".1"/><circle cx="38.1" cy="33.3" r=".1"/><circle cx="38.4" cy="33.3" r=".1"/><circle cx="38.3" cy="33" r=".1"/><circle cx="38" cy="33" r=".1"/></g><path fill="#F0B51C" stroke="#010101" d="M41 33.6c0-.1-.1 0-.1-.1s.2 0 .3 0c.1-.1.2 0 .3 0 .1-.2.2-.2.4 0 .1-.1.3-.1.3 0 .1-.1.2-.1.3 0 0-.1.1-.1.1 0 .1-.1.2-.1.3 0 .1-.1.1 0 .2 0 .1-.1.1 0 .1 0 0 .1-.1 0-.1.1 0 0 .1 0 .1.1 0 0-.1.1-.2 0 0 .1-.2.1-.2 0-.1.1-.2.1-.2 0-.1 0-.1.1-.2 0-.1.1-.3.1-.3 0H42c-.1.1-.2.1-.3 0-.2.1-.3.1-.4 0 0 .1-.2.1-.3-.1 0 .1-.1.1-.1.1 0-.1.1 0 .1-.1zm.3 0c0 .1 0 .1 0 0h-.2.2zm.4 0s0 .1-.1.1-.1 0-.1-.1c0 0 0-.1.1-.1l.1.1zm.6 0c0 .1 0 .1 0 0-.1.1-.2 0-.2 0h.2zm-.3 0c0 .1-.1.1 0 0-.1.1-.2 0-.2 0s0-.1.2 0c-.1-.1 0 0 0 0zm.8 0c0 .1-.1.1 0 0-.1.1-.2 0-.2 0h.2c-.1 0 0 0 0 0zm-.3 0c0 .1 0 .1 0 0h-.1.1zm.5.1c-.1.1-.1 0-.1 0s0-.1.1 0c0-.1 0-.1 0 0z"/></g><g stroke-width=".035"><path fill="#F0B51C" stroke="#010101" d="m455.559 32.6-1.4-.4-.6-1-2.1-.1.1.8 1.8.3.2.3 2 .6v-.5z"/><g stroke="#010101"><path fill="#4F3513" d="m454.159 32.9-2.1-3.1-.1.1 2 3.1.2-.1z"/><path fill="#FFF" d="m452.159 29.9-.2-.4c0-.1-.1-.1-.2 0-.1 0-.1.1 0 .2l.2.3.2-.1z"/></g><g fill="#F0B51C" stroke="#010101" transform="matrix(-1 0 0 1 499.859 0)"><path d="m45.5 31 4.3-.4.1.6-4.3.4-.1-.6z"/><path d="m49.9 30.4.1.9h-.2l-.1-.8.2-.1zm-.8.1v.8H49v-.7l.1-.1zm-2.9.3.1.7h-.2l-.1-.7h.2zm-.6.1.1.8h-.2l-.1-.4c0 .1-.1.2-.2.2s-.2-.1-.2-.2.1-.2.2-.2.1 0 .2.1v-.3h.2zm1.5.1.6.7-.1.1-.8-.5.3-.3zm1.4 1.7-.6-.7.1-.1.8.5-.3.3zm-1.5-.2.7-.6.1.1-.6.7-.2-.2zm1.7-1.3-.7.5-.1-.1.6-.7.2.3z"/><path d="m47.9 30.8-.1.9h-.1l-.2-.9h.4zm-.2 2.1.1-.9h.1l.1.9h-.3zm-1-1.2.9.1v.1l-.9.1v-.3zm2.2.3-.9-.1v-.1l.9-.1v.3z"/><circle cx="47.8" cy="31.8" r=".2"/><path stroke-linecap="round" d="M46.5 31.8c0 .7.6 1.2 1.3 1.2s1.3-.6 1.3-1.2c0-.7-.6-1.2-1.3-1.2s-1.3.5-1.3 1.2zm.3 0c0 .6.5 1 1 1 .6 0 1-.4 1-1s-.5-1-1-1-1 .5-1 1z"/><path d="m48.6 31.2.2-.2m-1.6 0-.2-.1m-.2 1.7.2-.2m1.6.4-.2-.2"/></g><g stroke="#010101"><path fill="#F0B51C" d="m455.559 30.6.2 1.1-.2.1-.2-1.2h.2z"/><path fill="#FFF" d="M455.459 30.4c-.1 0-.2 0-.5-.2-.4.3 0 .4 0 .7.1 0 .2-.3.4-.3h.4l-.1-.1c.2-.1-.1-.1-.2-.1z"/><path fill="#FFF" d="M455.559 30.6v-.3c0-.1-.2 0-.2.1v.3l.2-.1z"/></g><path fill="#F0B51C" stroke="#010101" d="M454.559 31.6v.3c-.1 0-.1.1-.1.2v.9c0 .1-.1.1-.2.1s0 .1.2.2h.2c.3-.1.3-.2.2-.2-.1 0-.2-.1-.2-.1v-.2h.2s.1-.1.1-.2v-.5c0-.3-.2-.3-.3-.3v-.2h-.1zm.3.5c0-.1-.1-.1-.2-.1 0 0-.1.1-.1.2v.2c0 .1.1.3.2.3s.1-.1.1-.1v-.5z"/><path d="M453.259 32.5c-.1 0-.1.2-.1.2h.2c.1 0 .2.2.1.2 0 .1-.4-.1-.4 0 .1.4.6.5.7.4.2-.2.2-.6-.3-.7l-.2-.1zm.1.1-.1.1" fill="#FFF" stroke="#010101"/><path fill="#F0B51C" stroke="#010101" d="m449.559 32.7-.2-.8m.4.7-.3-.6m.8.5-.6-.3m.9.2-1.2-.5"/><path fill="#D22027" stroke="#D22027" d="M448.659 31.3h-.5l.1.2c-.1.2-.8.2-.9.1-.1-.1.7-.1.7-.2s-.1-.2-.1-.3c0-.1.3-.2.3-.2l.4.4z"/><path fill="#4F3513" stroke="#010101" d="m449.259 31.7-1-.8h-.1v.1l1 .8.1-.1z"/><path fill="#F0B51C" stroke="#010101" d="m450.159 32.5-.8-.7-.1-.2s-.1.1-.2.1l-.1.2h.2l.7.6h.3z"/><g fill="#F0B51C" stroke="#010101" transform="matrix(-1 0 0 1 499.859 0)"><circle cx="46.9" cy="33.4" r=".1"/><circle cx="47.3" cy="33.2" r=".1"/><circle cx="47.8" cy="33.3" r=".1"/><circle cx="48.5" cy="33.5" r=".1"/><circle cx="48.8" cy="33.5" r=".1"/><circle cx="49.1" cy="33.5" r=".1"/><circle cx="49.5" cy="33.5" r=".1"/><circle cx="49.3" cy="33.3" r=".1"/><circle cx="49" cy="33.3" r=".1"/><circle cx="48.7" cy="33.3" r=".1"/><circle cx="48.9" cy="33" r=".1"/><circle cx="49.1" cy="33" r=".1"/></g><path fill="#F0B51C" stroke="#010101" d="M453.759 33.6c0-.1-.1 0-.1-.1s.2 0 .3 0c.1-.1.2 0 .3 0 .1-.2.2-.2.4 0 .1-.1.3-.1.3 0 .1-.1.2-.1.3 0 0-.1.1-.1.1 0 .1-.1.2-.1.3 0 .1-.1.1 0 .2 0 .1-.1.1 0 .1 0 0 .1-.1 0-.1.1 0 0 .1 0 .1.1 0 0-.1.1-.2 0 0 .1-.2.1-.2 0-.1.1-.2.1-.2 0-.1 0-.1.1-.2 0-.1.1-.3.1-.3 0h-.1c-.1.1-.2.1-.3 0-.2.1-.3.1-.4 0-.1.1-.2.1-.3-.1 0 .1-.1.1-.1.1-.1-.1.1 0 .1-.1zm.3 0c0 .1-.1.1 0 0h-.2.2c-.1 0 0 0 0 0zm.3 0s0 .1-.1.1-.1 0-.1-.1c0 0 0-.1.1-.1s.1.1.1.1zm.7 0c0 .1 0 .1 0 0-.1.1-.2 0-.2 0h.2zm-.4 0c0 .1 0 .1 0 0-.1.1-.2 0-.2 0s.1-.1.2 0c0-.1 0 0 0 0zm.8 0c0 .1 0 .1 0 0-.1.1-.2 0-.2 0h.2zm-.2 0c0 .1 0 .1 0 0h-.1.1zm.4.1c-.1.1-.1 0-.1 0s.1-.1.1 0c0-.1 0-.1 0 0z"/></g><path fill="#263C86" stroke="#263C86" stroke-width=".044" d="M43.6 31.3c-.5 0-.9.2-.9.4v.1c.1.1.4.2.8.2s.7-.1.8-.2v-.1c.1-.3-.3-.4-.7-.4z"/><path fill="#F0B51C" stroke="#010101" stroke-width=".036" d="M44.4 31.7V33c0 .2-.4.3-.9.3s-.9-.1-.9-.3v-1.4c0 .2.4.3.9.3s.9 0 .9-.2z"/><path fill="#D22027" stroke="#D22027" stroke-width=".035" d="M42.7 31.7v.2l.4 1.3.3-1 .4 1 .3-1 .3.7v-.4l-.3-.6H44l-.2.7-.3-.6h-.1l-.3.7-.3-.8c-.1-.1-.1-.2-.1-.2z"/><path fill="#263C86" stroke="#263C86" stroke-width=".036" d="M44.4 32.8v.2c0 .2-.4.3-.9.3s-.9-.1-.9-.3v-.3c0 .2.4.3.9.3s.9 0 .9-.2z"/><path fill="#F0B51C" stroke="#010101" stroke-width=".036" d="M43.9 33.1h-.2v.3h.2v-.3zM43 33v.3h.2V33H43zm-.3-.2v.2s0 .1.1.1v-.2c-.1 0-.1-.1-.1-.1zm1.7 0c0 .1-.1.1-.2.1v.3c.1 0 .2-.1.2-.2v-.2z"/><path fill="none" stroke="#010101" stroke-width=".036" d="M44.4 31.7V33c0 .2-.4.3-.9.3s-.9-.1-.9-.3v-1.3"/><path fill="#FFF" stroke="#FFF" stroke-width=".037" d="M44.2 31.6c0 .1-.3.2-.7.2s-.7-.1-.7-.2.3-.2.7-.2c.4 0 .7.1.7.2z"/><path fill="#F0B51C" stroke="#010101" stroke-width=".044" d="M43.3 31.7v.2h.2v-.2h-.2zm.8 0h-.2v.2h.2v-.2zm-1-.4s-.1 0-.1.1v.2h.1v-.3zm.5-.1c-.1 0-.1 0 0 0v.2h.1v-.2h-.1zm.5.1v.2h.1v-.2c0 .1-.1 0-.1 0z"/><path fill="#F0B51C" stroke="#010101" stroke-width=".035" d="M42.8 31.9v-.2l-.2-.1v.3h.2zm1.6-.1v-.2l-.2.1.2.1z"/><g stroke-width=".035"><path fill="#F0B51C" stroke="#010101" d="M46.2 30.2c.2 0 .4.2.4.5 0 .2-.3.2-.3.2 0 .1-.2.2-.4.2-.1 0 0-.3 0-.3-.1-.2 0-.5 0-.5l.3-.1z"/><path fill="#F0B51C" stroke="#010101" d="M46 30.7h.2v.1l.1-.1h.2"/><path fill="#D22027" stroke="#F0B51C" d="M46.3 30.3c.1-.1 0-.3-.1-.3H46c-.1 0-.3.1-.2.2 0 .1.1.1.2.1 0 0 .1-.1.2-.1-.1 0 0 .2.1.1z"/></g><path fill="#F0B51C" stroke="#010101" stroke-width=".035" d="M36.7 33c-.1 0-.1.2-.1.3-.5.1-1 .3-1.4.5 0-.1.2-.4.2-.4.1 0 .1.2.1.2 0-.3.3-.5.3-.5-.2 0-.7.2-.8.3h.2s-.4.4-.4.6c.1.1.8.3.8.3l-.2.2c.3.1.7-.1.8-.3 0 0-.3 0-.6-.2 0 0 .1.1 0 .2 0 0-.4-.1-.4-.2 0 0 1-.3 1.4-.4 0 .1.1.2.2.2s0-.2 0-.3h.1c.1 0 .1-.1.1-.1 0-.1-.1-.1-.1-.1-.1 0-.1 0-.1.1.1-.2 0-.4-.1-.4zm.4.3s0 .1 0 0c-.1.1-.1 0-.1 0s0-.1.1 0c0-.1 0 0 0 0z"/><g fill="#F0B51C" stroke="#010101" stroke-width=".035"><path d="M51.8 33.6v-.4c-.1 0-.2.1-.2.1.1-.3-.2-.8-.2-.8.2 0 .8.6.8.7l-.3-.1c0 .3.2.4.3.6 0 0-.3.1-.3.3h-.2c-.1-.1 0-.2 0-.2l-1.5-.6c-.1 0-.3-.1-.3-.3 0-.1.4 0 .5.1l1.4.6z"/><path d="m50.4 33.3.2-.3c.1-.1-.1-.2-.2-.1l-.2.3c-.1.2.1.2.2.1z"/></g><g fill="#FFF" stroke="#010101" stroke-width=".035"><path d="M40 34.1v-.3h-.4v.4l.4-.1z"/><path d="m36.9 34.6-.6-.3c2.3.2 2.8-.6 3.4-.6.3 0 .4.4-.3.2l.2.4s-1.7.9-3.3.5l.6-.2zm10.2-.5v-.3h.5v.4l-.5-.1z"/><path d="m50.3 34.5.5-.3c-2.7.1-2.1-.4-3.4-.6-.3 0-.6.4.3.2l-.2.4h.4c.9.6 2.1.7 3 .5l-.6-.2z"/><path d="M39.4 33.8v.6s1.5.5 4.1.5c2.7 0 4.1-.5 4.1-.5v-.6s-1.1.5-4.1.5c-2.9 0-4.1-.5-4.1-.5z"/></g><path fill="#010101" d="m39.7 34.4.1-.4h.1l-.2.4h.3v.1l-.3-.1zm.4-.2V34h.1l-.1.2zm.6 0v.4l-.1.1h-.2v-.2l.1-.3h.1l-.1.3v.2h.2s0-.1.1-.1l-.1-.4zm.1.5.1-.5h.1l.2.4.1-.4h.1l-.1.5h-.1l-.2-.4-.2.4zm.5 0 .1-.5h.1l-.2.5zm.2-.2c0-.1 0-.1.1-.2 0 0 .1-.1.2 0h.1l.1.1v.2l-.1.1h-.2l-.1-.1c-.1 0-.1 0-.1-.1zm0 0v.1l.1.1h.1l.1-.1v-.2h-.2l-.1.1zm.5.3v-.5h.1l.2.4v-.4h.1v.5h-.1l-.2-.4-.1.4zm.6.1v-.5h.3v.1h-.3v.1h.2v.1h-.2v.2zm.4 0 .2-.5h.1l.2.5h-.1l-.1-.1h-.2l-.1.1zm.1-.2h.2v-.2.1l-.2.1zm.4.2v-.5h.1l-.1.5zm.3 0v-.4h-.2v-.1h.4v.1h-.2v.4zm.5 0v-.5h.1l-.1.5.3-.1v.1h-.3zm.3-.1.1-.5h.1l.2.4h-.1l-.1-.1h-.2v.2zm.1-.1h.2l-.1-.1v-.1.1l-.1.1zm.6.1-.1-.5h.3v.1h-.3v.1h.2v.1h-.2l.1.2zm.3-.3v-.2s.1-.1.2-.1h.1s.1 0 .1.1v.2s0 .1-.1.1h-.2s-.1 0-.1-.1c0 .1 0 .1 0 0zm.1 0c0 .1 0 .1.1.1h.1s.1 0 .1-.1v-.2l-.1-.1h-.1s-.1 0-.1.1v.2zm.5.2-.1-.5h.4v.2l-.1.1.1.1.1.1h-.1l-.1-.1-.1-.1h-.1v.2zm0-.3h.2-.2zm.8 0c.1.1 0 .1 0 .1l-.1.1h-.1s-.1 0-.1-.1c0 0 0-.1-.1-.1v-.1s0-.1.1-.1.1 0 .1-.1h.1s.1 0 .1.1h-.1s0-.1-.1-.1h-.2v.3l.1.1h.1c.1 0 .1 0 .2-.1-.1 0 0 0 0 0zm.1.1L47 34l.3-.1v.1l-.3.1v.1l.3-.1v.1l-.3.1.1.2.3-.1v.1h-.3z"/></svg>
