<svg xmlns="http://www.w3.org/2000/svg" width="85" height="57"><path fill="#DD2E26" d="M.25.154h85.038v56.694H.248z"/><path fill="#FFF" d="M40.343 25.92c-.97-2.077-.543-4.958.46-6.347l.23.168c-.956 1.32-1.36 4.073-.435 6.062.38.81.996 1.582 1.623 2.082a3.303 3.303 0 0 1-.46-.717 3.526 3.526 0 0 1 1.582-4.62l.285-.17a4.452 4.452 0 0 0 2.15-5.71c-.16-.373-.404-.725-.506-.94-.638-1.37-.03-3.003 1.355-3.65l.246-.085c-1.466-.184-3.02.04-4.524.74-4.254 1.98-6.5 6.973-4.52 11.227a8.457 8.457 0 0 0 4.29 4.183 6.131 6.131 0 0 1-1.773-2.222zm.974-7.774.02-.99.772.62.944-.284-.35.924.564.814-.99-.047-.6.787-.258-.955-.936-.328.833-.54zm16.3 5.018c-3.21-3.422-8.655-3.998-12.077-.79a8.47 8.47 0 0 0-2.635 5.35c.29-.81.85-1.683 1.555-2.345 1.674-1.567 4.543-2.065 6.174-1.544l-.086.27c-1.555-.497-4.295-.02-5.895 1.48a6.044 6.044 0 0 0-1.465 2.178 3.45 3.45 0 0 1 .53-.648 3.527 3.527 0 0 1 4.884.063l.25.216a4.454 4.454 0 0 0 6.096.26c.307-.27.563-.61.736-.775 1.102-1.03 2.844-.966 3.89.15l.157.206c-.282-1.453-.977-2.863-2.114-4.072zm-4.868 1.35.567.812-.988-.043-.6.787-.265-.95-.934-.33.827-.542.018-.988.775.617.947-.29-.348.926zM36.932 31.76a8.465 8.465 0 0 0 5.305-2.766c-.71.49-1.682.87-2.654.985-2.277.272-4.885-1.03-5.89-2.414l.228-.168c.96 1.322 3.45 2.563 5.625 2.3a6.067 6.067 0 0 0 2.467-.88 3.563 3.563 0 0 1-.807.204 3.528 3.528 0 0 1-3.898-2.946l-.07-.32a4.453 4.453 0 0 0-4.757-3.822c-.408.033-.814.16-1.053.188-1.498.18-2.863-.906-3.045-2.426l-.004-.258c-.634 1.336-.907 2.88-.71 4.53.556 4.658 4.604 8.348 9.263 7.794zm-4.543-6 .023-.987.77.623.95-.283-.35.924.556.813-.985-.047-.602.783-.258-.958-.934-.326.83-.543zm11.093 2.58a6.07 6.07 0 0 1 2.75.742c2.008 1.11 3.363 3.688 3.37 5.398l-.282.002c-.007-1.63-1.304-4.092-3.224-5.15a5.992 5.992 0 0 0-2.506-.72c.26.07.516.167.764.302a3.535 3.535 0 0 1 1.447 4.668l-.132.3a4.456 4.456 0 0 0 1.635 5.88c.35.21.752.346.963.463 1.32.73 1.797 2.406 1.06 3.746l-.15.213c1.296-.717 2.42-1.813 3.222-3.266 2.266-4.11 1.133-9.467-2.973-11.734a8.444 8.444 0 0 0-5.942-.845zm7.118 8.41-.987-.047-.598.79-.264-.952-.933-.326.824-.545.022-.988.77.615.948-.288-.348.928.57.812zm-7.494-7.674c.256.826.33 1.87.145 2.842-.427 2.252-2.456 4.344-4.08 4.883l-.09-.27c1.55-.514 3.483-2.512 3.894-4.666a6.095 6.095 0 0 0-.092-2.6c.014.268-.002.54-.053.814a3.53 3.53 0 0 1-3.985 2.825l-.33-.03a4.455 4.455 0 0 0-5.08 3.38c-.092.398-.092.824-.14 1.06-.282 1.483-1.728 2.456-3.23 2.17l-.25-.075c1.082 1.008 2.474 1.734 4.106 2.047 4.61.875 9.35-1.863 10.228-6.473a8.452 8.452 0 0 0-1.042-5.906zm-4.197 8.627-.99-.04-.595.788-.265-.953-.936-.322.824-.547.018-.987.775.613.946-.285-.344.927.567.808z"/></svg>
