<svg xmlns="http://www.w3.org/2000/svg" width="85" height="57"><path fill="#FFF" d="M.044 19.052h85.04V37.95H.043z"/><path fill="#1E8943" d="M.044 37.95h85.04v18.895H.043z"/><path fill="#F89939" d="M.044.154h85.04v18.898H.043z"/><circle fill="#2A2C7A" cx="42.563" cy="28.5" r="7.566"/><path d="m41.393 29.088-.073-.188-1.155.473-3.978.832c.05.184.082.373.146.55l.01-.01a.311.311 0 0 1 .312.539l-.097.014.278.487 3.408-2.22 1.15-.48zm.295-1.566.173-.116-.758-1-1.828-3.632c-.16.092-.332.17-.484.275l.07.053a.314.314 0 0 1-.116.427.314.314 0 0 1-.427-.116v-.005c-.152.126-.28.278-.42.417l3.03 2.712.76.982zm-.366.568.076-.188-1.15-.48-3.402-2.227c-.1.173-.21.338-.295.52l.098.012c.15.085.2.275.115.426a.312.312 0 0 1-.425.117l-.01-.012c-.06.166-.09.346-.137.518l3.978.84 1.154.473zm-.029.676-.04-.2-1.232.157-4.087-.227 4.088-.227 1.234.155.04-.203-1.244-.17-3.86-1.274c-.052.192-.118.378-.152.576l.015-.006c.172 0 .31.14.31.313s-.138.314-.31.314l-.092-.038a7.006 7.006 0 0 0-.027.564l.028.566.093-.037a.31.31 0 0 1 .31.312.312.312 0 0 1-.31.313l-.014-.006c.032.188.097.368.146.552l3.862-1.267 1.245-.17zm.683-1.436.188-.073-.474-1.157-.83-3.978c-.182.048-.368.08-.543.145.084.15.034.34-.116.426a.311.311 0 0 1-.425-.115l-.01-.083-.488.277 2.218 3.408.48 1.15zm-.5.46.114-.17-.982-.76-2.712-3.03c-.145.146-.303.278-.436.437l.022.002c.148.085.2.274.114.425s-.275.202-.425.117l-.06-.08c-.103.146-.176.31-.264.463l3.628 1.836 1.002.76zm.822-.56.2-.04-.157-1.233.228-4.088h-.004c-.188 0-.373.012-.56.027l.034.078a.313.313 0 0 1-.626 0c-.19.033-.367.098-.55.146l1.265 3.863.17 1.246zm.979.184.167.112.76-.98 3.03-2.713c-.144-.143-.273-.3-.43-.428v.004a.314.314 0 0 1-.543-.311l.07-.055-.447-.254-1.845 3.626-.76.998zm.457.496.073.19 1.155-.473 3.978-.83c-.05-.182-.082-.37-.145-.544a.312.312 0 0 1-.312-.542l.083-.01c-.08-.17-.185-.323-.277-.486l-3.407 2.218-1.15.48zm-.76-.652.19.078.483-1.147 2.233-3.4c-.175-.1-.34-.213-.524-.298l-.01.083a.313.313 0 0 1-.544-.309l-.516-.138-.84 3.977-.473 1.154zm-.337-.068.203.04.17-1.243 1.274-3.86c-.188-.05-.37-.116-.566-.15 0 .17-.14.312-.313.312s-.313-.142-.313-.314l.032-.078a6.88 6.88 0 0 0-.558-.028l.227 4.088-.156 1.232zm.905.435.115.172 1-.758 3.632-1.83c-.093-.16-.172-.33-.277-.483l-.053.068a.312.312 0 1 1-.311-.541h.004c-.126-.152-.278-.28-.42-.42l-2.71 3.03-.982.76zm.263 1.285-.076.188 1.148.48 3.402 2.227c.098-.172.208-.334.29-.512l-.082-.012a.311.311 0 1 1 .31-.54c.06-.166.09-.344.137-.516l-3.975-.84-1.155-.474zm-.367.57-.172.114.758 1 1.827 3.63c.165-.09.338-.17.493-.28l-.08-.06a.312.312 0 0 1 .117-.425.311.311 0 0 1 .426.112l.003.02c.15-.127.278-.28.418-.42l-3.03-2.71-.76-.983zm.212-.27-.113.17.982.76 2.71 3.03c.144-.143.3-.273.43-.43h-.006c-.15-.086-.202-.275-.116-.426s.277-.2.426-.117l.054.07c.1-.145.174-.307.262-.46l-3.628-1.837-1-.76zm.223-.637-.04.203 1.244.172 3.86 1.273c.05-.188.115-.37.15-.565a.313.313 0 0 1 0-.626l.078.032c.016-.185.028-.37.028-.558l-4.088.227-1.232-.157zm5.293-.631-.078.032a.312.312 0 1 1 0-.625c-.033-.19-.098-.366-.146-.55l-3.86 1.266-1.247.17.04.2 1.232-.157 4.088.227V28.5c0-.19-.013-.375-.03-.558zm-7.013 1.8-.19-.08-.483 1.148-2.233 3.4c.177.102.346.215.532.3l.012-.095a.31.31 0 0 1 .425-.115.31.31 0 0 1 .117.424l-.012.01.52.14.838-3.98.473-1.152zm-.568-.367-.115-.172-1 .758-3.632 1.83c.093.163.173.335.28.49l.062-.08a.312.312 0 0 1 .311.542l-.02.004c.128.152.28.28.42.418l2.713-3.03.982-.76zm.265.211-.167-.113-.76.982-3.03 2.713c.146.145.278.303.437.436l.003-.023a.312.312 0 0 1 .542.312l-.08.063.448.256 1.845-3.624.76-1zm.64.224-.202-.042-.172 1.246-1.272 3.86c.19.05.377.116.575.15l-.007-.013c0-.17.14-.31.313-.31s.313.14.313.31l-.04.093a6.5 6.5 0 0 0 .56.027l-.226-4.088.156-1.233zm.34-.04-.2.04.156 1.233-.227 4.088h.003c.19 0 .38-.01.567-.028l-.038-.09c0-.172.14-.31.313-.31s.313.138.313.31l-.006.014c.19-.033.368-.098.552-.148L43 31.018l-.17-1.248zm.322-.1-.188.074.473 1.154.83 3.98c.185-.05.375-.085.553-.15l-.012-.007a.312.312 0 0 1 .542-.312l.013.098c.17-.08.324-.186.486-.28l-2.218-3.405-.48-1.15z" fill="#FFF"/></svg>
