<svg xmlns="http://www.w3.org/2000/svg" width="85" height="57"><path fill="#FFF" d="M.17 19.053h85.04V37.95H.17z"/><path fill="#D0202F" d="M.17 37.95h85.04v18.896H.17z"/><path fill="#096A37" d="M.17.153h85.04v18.9H.17z"/><path d="M84.06 37.95v.308h-3.33v-.31h3.33zm-3.747 0h-3.426v.308h3.426v-.31zm3.44 2.246h-.446V38.71h-.31v1.486h-.446V38.71h-.307v.73H80.73v1.063h1.066v-.308h-.758v-.447h1.204v.755h1.817V38.71h-.308v1.486zm-4.628-.447h.88v.446H78.68v-.756h-1.793v1.063h.31v-.755h1.175v.755h1.94V39.44h-1.187v.31zm-1.496.754h.31v-.308h-.31v.308zm4.167-1.8h-4.91v.31h4.91v-.31zm-5.292-.753v.308h-3.33v-.31h3.33zm-3.748 0H69.33v.308h3.426v-.31zm3.44 2.246h-.446V38.71h-.31v1.486h-.446V38.71h-.31v.73h-1.51v1.063h1.063v-.308h-.756v-.447h1.204v.755h1.818V38.71h-.31v1.486zm-4.628-.447h.88v.446H71.12v-.756h-1.79v1.063h.31v-.755h1.175v.755h1.94V39.44H71.57v.31zm-1.496.754h.31v-.308h-.31v.308zm4.166-1.8H69.33v.31h4.908v-.31zm-5.291-.753v.308h-3.33v-.31h3.33zm-3.748 0h-3.427v.308H65.2v-.31zm3.44 2.246h-.446V38.71h-.31v1.486h-.446V38.71h-.31v.73h-1.51v1.063h1.063v-.308h-.755v-.447h1.203v.755h1.818V38.71h-.31v1.486zm-4.628-.447h.88v.446h-1.327v-.756h-1.79v1.063h.308v-.755h1.176v.755h1.94V39.44H64.01v.31zm-1.496.754h.31v-.308h-.31v.308zm4.166-1.8h-4.908v.31h4.908v-.31zm-5.291-.753v.308h-3.33v-.31h3.33zm-3.747 0h-3.426v.308h3.426v-.31zm3.44 2.246h-.448V38.71h-.307v1.486h-.447V38.71h-.308v.73H58.06v1.063h1.064v-.308h-.756v-.447h1.203v.755h1.82V38.71h-.31v1.486zm-4.628-.447h.88v.446h-1.327v-.756h-1.79v1.063h.308v-.755h1.176v.755h1.94V39.44h-1.187v.31zm-1.496.754h.308v-.308h-.31v.308zm4.165-1.8h-4.908v.31h4.908v-.31zm-5.29-.753v.308h-3.33v-.31h3.33zm-3.748 0H46.66v.308h3.426v-.31zm3.44 2.246h-.448V38.71h-.307v1.486h-.446V38.71h-.31v.73h-1.51v1.063h1.063v-.308h-.756v-.447h1.204v.755h1.818V38.71h-.31v1.486zm-4.628-.447h.88v.446H48.45v-.756h-1.79v1.063h.31v-.755h1.173v.755h1.943V39.44h-1.188v.31zm-1.496.754h.31v-.308h-.31v.308zm4.166-1.8H46.66v.31h4.908v-.31zm-5.291-.753v.308h-3.33v-.31h3.33zm-3.748 0h-3.427v.308h3.426v-.31zm3.44 2.246h-.448V38.71h-.31v1.486h-.444V38.71h-.31v.73h-1.51v1.063h1.063v-.308h-.755v-.447h1.203v.755h1.818V38.71h-.31v1.486zm-4.628-.447h.88v.446h-1.327v-.756h-1.79v1.063h.308v-.755h1.174v.755h1.943V39.44h-1.188v.31zm-1.496.754h.31v-.308h-.31v.308zm4.166-1.8h-4.908v.31h4.908v-.31zm-5.291-.753v.308h-3.33v-.31h3.33zm-3.75 0h-3.423v.308h3.424v-.31zm3.442 2.246h-.447V38.71h-.31v1.486h-.446V38.71H36.9v.73h-1.51v1.063h1.064v-.308h-.758v-.447H36.9v.755h1.82V38.71h-.31v1.486zm-4.627-.447h.88v.446h-1.327v-.756h-1.79v1.063h.306v-.755h1.176v.755h1.94V39.44h-1.185v.31zm-1.498.754h.31v-.308h-.31v.308zm4.168-1.8h-4.908v.31h4.908v-.31zm-5.293-.753v.308h-3.328v-.31h3.328zm-3.748 0H23.99v.308h3.424v-.31zm3.44 2.246h-.446V38.71H30.1v1.486h-.447V38.71h-.307v.73h-1.512v1.063h1.064v-.308h-.758v-.447h1.205v.755h1.816V38.71h-.306v1.486zm-4.625-.447h.878v.446h-1.326v-.756H23.99v1.063h.307v-.755h1.176v.755h1.94V39.44H26.23v.31zm-1.5.754h.31v-.308h-.31v.308zm4.168-1.8H23.99v.31h4.908v-.31zm-5.292-.753v.308h-3.33v-.31h3.33zm-3.748 0H16.43v.308h3.427v-.31zm3.442 2.246h-.448V38.71h-.31v1.486h-.446V38.71h-.31v.73h-1.51v1.063h1.065v-.308h-.757v-.447h1.203v.755h1.818V38.71h-.307v1.486zm-4.63-.447h.88v.446h-1.325v-.756h-1.793v1.063h.31v-.755h1.175v.755h1.94V39.44H18.67v.31zm-1.496.754h.31v-.308h-.31v.308zm4.168-1.8h-4.91v.31h4.91v-.31zm-5.291-.753v.308h-3.33v-.31h3.33zm-3.75 0H8.876v.308H12.3v-.31zm3.44 2.246h-.445V38.71h-.31v1.486h-.446V38.71h-.31v.73h-1.512v1.063h1.064v-.308h-.756v-.447h1.203v.755h1.817V38.71h-.307v1.486zm-4.627-.447h.88v.446h-1.327v-.756h-1.79v1.063h.308v-.755h1.176v.755h1.94V39.44h-1.187v.31zm-1.496.754h.31v-.308h-.31v.308zm4.166-1.8H8.875v.31h4.908v-.31zm-5.291-.753v.308h-3.33v-.31h3.33zm-3.748 0H1.318v.308h3.426v-.31zm3.44 2.246h-.448V38.71H7.43v1.486h-.448V38.71h-.308v.73H5.162v1.063h1.064v-.308H5.47v-.447h1.204v.755h1.818V38.71h-.308v1.486zm-4.627-.447h.88v.446H3.108v-.756H1.317v1.063h.31v-.755h1.175v.755h1.94V39.44H3.558v.31zm-1.496.754h.31v-.308h-.31v.308zm4.167-1.8h-4.91v.31h4.91v-.31zm72.912-21.15h.872v.393h-1.266v-.75h-1.828v1.107h.357v-.75h1.116v.75h1.98v-1.107h-1.23m1.593 1.5h3.357v.356h-3.356zm-3.816 0h3.45v.356h-3.45zm6.816-2.226v1.477h-.393V16.47h-.354v1.477h-.395V16.47h-.356v.727h-1.5v1.106h3.357V16.47h-.356zm-1.5 1.083v.394H81.09v-.394h1.144zm-4.58.393h.357v.356h-.356zm-.736-1.473h4.924v.357h-4.924zm-5.341 1.08h.872v.393h-1.266v-.75h-1.83v1.107h.357v-.75h1.118v.75h1.98v-1.107h-1.23m1.592 1.5h3.36v.356h-3.36zm-3.816 0h3.453v.356h-3.453zm6.818-2.226v1.477h-.393V16.47h-.358v1.477h-.393V16.47h-.358v.727h-1.5v1.106h3.36V16.47h-.358zm-1.5 1.083v.394h-1.145v-.394h1.145zm-4.58.393h.357v.356h-.358zm-.738-1.473h4.926v.357h-4.926zm-5.34 1.08h.873v.393H63.62v-.75h-1.83v1.107h.358v-.75h1.118v.75h1.978v-1.107h-1.23m1.593 1.5h3.36v.356h-3.36zm-3.817 0h3.454v.356H61.79zm6.82-2.226v1.477h-.394V16.47h-.357v1.477h-.394V16.47h-.357v.727h-1.503v1.106h3.36V16.47h-.358zm-1.5 1.083v.394h-1.146v-.394h1.145zm-4.58.393h.356v.356h-.357zm-.74-1.473h4.927v.357H61.79zm-5.338 1.08h.872v.393H56.06v-.75h-1.83v1.107h.356v-.75h1.117v.75h1.98v-1.107h-1.23m1.592 1.5h3.36v.356h-3.36zm-3.815 0h3.452v.356H54.23zm6.817-2.226v1.477h-.393V16.47h-.357v1.477h-.393V16.47h-.357v.727h-1.502v1.106h3.36V16.47h-.358zm-1.5 1.083v.394h-1.145v-.394h1.145zm-4.582.393h.36v.356h-.36zm-.735-1.473h4.925v.357H54.23zm-5.34 1.08h.87v.393h-1.264v-.75h-1.83v1.107h.357v-.75h1.116v.75h1.98v-1.107h-1.23m1.593 1.5h3.36v.356h-3.36zm-3.816 0h3.453v.356h-3.454zm6.816-2.226v1.477h-.392V16.47h-.357v1.477h-.39V16.47h-.36v.727h-1.5v1.106h3.36V16.47h-.36zm-1.5 1.083v.394H50.84v-.394h1.142zm-4.58.393h.36v.356h-.36zm-.736-1.473h4.926v.357h-4.926zm-5.342 1.08h.873v.393h-1.265v-.75h-1.828v1.107h.357v-.75h1.116v.75h1.98v-1.107h-1.232m1.593 1.5h3.36v.356h-3.36zm-3.814 0h3.45v.356h-3.45zm6.816-2.226v1.477h-.393V16.47h-.357v1.477h-.393V16.47h-.357v.727h-1.502v1.106h3.36V16.47h-.358zm-1.5 1.083v.394h-1.145v-.394h1.145zm-4.58.393h.357v.356h-.357zm-.736-1.473h4.924v.357h-4.924zm-5.342 1.08h.873v.393H33.37v-.75h-1.83v1.107h.356v-.75h1.118v.75h1.978v-1.107h-1.23m1.593 1.5h3.36v.356h-3.36zm-3.815 0h3.452v.356H31.54zm6.817-2.226v1.477h-.393V16.47h-.357v1.477h-.393V16.47h-.357v.727h-1.502v1.106h3.36V16.47h-.358zm-1.5 1.083v.394h-1.145v-.394h1.145zm-4.58.393h.357v.356h-.357zm-.737-1.473h4.925v.357H31.54zm-5.34 1.08h.872v.393h-1.265v-.75h-1.83v1.107h.357v-.75h1.117v.75h1.98v-1.107H26.2m1.593 1.5h3.36v.356h-3.36zm-3.816 0h3.453v.356h-3.453zm6.818-2.226v1.477h-.393V16.47h-.357v1.477h-.393V16.47h-.357v.727h-1.502v1.106h3.36V16.47h-.358zm-1.5 1.083v.394H28.15v-.394h1.145zm-4.582.393h.36v.356h-.36zm-.736-1.473h4.926v.357h-4.926zm-5.34 1.08h.873v.393h-1.266v-.75h-1.83v1.107h.357v-.75h1.117v.75h1.978v-1.107h-1.228m1.592 1.5h3.357v.356H20.23zm-3.816 0h3.45v.356h-3.45zm6.816-2.226v1.477h-.393V16.47h-.355v1.477h-.395V16.47h-.357v.727h-1.5v1.106h3.357V16.47h-.357zm-1.5 1.083v.394h-1.143v-.394h1.143zm-4.58.393h.357v.356h-.357zm-.736-1.473h4.924v.357h-4.924zm-5.342 1.08h.873v.393H10.68v-.75H8.852v1.107h.357v-.75h1.114v.75h1.98v-1.107H11.07m1.596 1.5h3.36v.356h-3.36zm-3.814 0h3.45v.356h-3.45zm6.816-2.226v1.477h-.393V16.47h-.357v1.477h-.393V16.47h-.357v.727h-1.502v1.106h3.36V16.47h-.358zm-1.5 1.083v.394h-1.145v-.394h1.145zm-4.58.393h.357v.356h-.357zm-.736-1.473h4.924v.357H8.852zm-5.342 1.08h.873v.393H3.118v-.75h-1.83v1.107h.357v-.75h1.117v.75H4.74v-1.107H3.51m1.594 1.5h3.36v.356h-3.36zm-3.817 0H4.74v.356H1.287zm6.818-2.226v1.477h-.392V16.47h-.358v1.477h-.392V16.47h-.358v.727h-1.5v1.106h3.358V16.47h-.358zm-1.5 1.083v.394H5.46v-.394h1.145zm-4.58.393h.357v.356h-.357zm-.738-1.473h4.926v.357H1.287z" fill="#FFF"/><path d="M46.34 34.384c-5.23-.04-9.105-5.563-5.98-10.833-4.27 3.46-2.126 12.293 5.98 10.834zM39.87 23.34c-2.48 1.837-4.202 5.563-1.468 9.784-3.21-1.823-4.24-8.007 1.467-9.785zm-.83 11.044c5.23-.04 9.105-5.563 5.98-10.833 4.27 3.46 2.125 12.293-5.98 10.834zm6.472-11.044c2.477 1.837 4.2 5.563 1.467 9.784 3.208-1.823 4.24-8.007-1.468-9.785zm-2.842-.353v12.28l.73-.935.16-10.575m-.89-.77v12.28l-.732-.935-.16-10.575m2.562-2.023c.75 1.29-1.75 2.094-1.67.25.326.735 1.42.697 1.67-.25zm-3.344 0c-.75 1.29 1.75 2.094 1.67.25-.326.735-1.42.697-1.67-.25z" fill="#D91F26"/></svg>
