<svg xmlns="http://www.w3.org/2000/svg" width="85" height="57"><path fill="#FFF" d="M.045.154h85.04v56.694H.044z"/><path fill="#010101" d="M.045.154h85.04V17.09H.044z"/><path fill="#166734" d="M.045 39.912h85.04v16.936H.044z"/><path fill="#BA2025" d="M.045 20.033h85.04V36.97H.044z"/><path fill="#010101" d="M31.886 45.393 48.65 16.788c-.772-1.905 4.543-7.458 5.163-8.097l.563-.578-.23.774c-.254.852-2.5 8.207-4.54 8.462L32.845 45.95l-.958-.557z"/><path fill="#FFF" d="M53.955 8.83s-6.072 6.253-5.08 7.967L32.156 45.32l.615.36L49.49 17.155c1.978.028 4.465-8.326 4.465-8.326z"/><path fill="#010101" d="M53.243 45.393 36.48 16.788c.77-1.905-4.544-7.458-5.164-8.097l-.563-.578.23.774c.254.852 2.5 8.207 4.54 8.462L52.284 45.95l.958-.557z"/><path fill="#FFF" d="M31.174 8.83s6.072 6.253 5.08 7.967L52.973 45.32l-.615.36L35.64 17.156c-1.98.027-4.466-8.327-4.466-8.327z"/><path fill="#BA2025" d="M51.072 28.478c0 9.4-6.62 17.018-8.508 17.018s-8.508-7.62-8.508-17.018c0-9.396 6.565-17.014 8.508-17.014s8.508 7.618 8.508 17.014z"/><ellipse fill="#FFF" cx="42.564" cy="28.48" rx="1.415" ry="2.125"/><path d="M49.337 36.92c1.02-2.488 1.735-5.365 1.735-8.442 0-3.08-.712-5.963-1.73-8.455-1.108 2.3-1.774 5.244-1.774 8.457 0 3.204.663 6.143 1.77 8.44zM35.795 20c-1.022 2.498-1.738 5.388-1.738 8.478 0 3.084.72 5.97 1.745 8.465 1.11-2.3 1.78-5.25 1.78-8.463 0-3.223-.672-6.177-1.787-8.48z" fill="#010101"/><path d="M42.226 30.623c-.846 1.19-1.438 4.027-1.438 7.342s.593 6.152 1.438 7.344V30.622zm.677 0c.846 1.19 1.438 4.027 1.438 7.342s-.592 6.152-1.437 7.344V30.622zm-.677-18.983c-.846 1.192-1.438 4.03-1.438 7.344s.593 6.15 1.438 7.343V11.64zm.677 0c.846 1.192 1.438 4.03 1.438 7.344s-.592 6.15-1.437 7.343V11.64z" fill="#FFF"/></svg>
