<svg xmlns="http://www.w3.org/2000/svg" width="87" height="57"><path fill="#294DA1" d="M.2-2.4H87v62H.2z"/><path fill="#D1A750" d="m34.5 27 .2-.1c.1 0 .3-.1.3-.1s.1-.1.2-.1l.3.1c0 .1.3.2.3.2s.2.1.2 0 .1-.1.2-.1l.1-.1c0-.1 0-.1.1-.2l.2-.1s.2-.1.2-.2.2-.2.3-.2c.1 0 0-.1.2 0 .2 0 .3-.1.3-.1 0-.1 0-.1.1-.1s.2 0 .2-.1.1-.1-.1-.2l-.2-.1c0-.1 0-.1-.2-.1s-.1-.1-.1-.2l-.1-.2H37c0-.1 0-.1-.1-.1s-.1 0-.1-.1 0-.1.1-.1l.1-.1v-.3l.1-.1.4-.3c0-.1.1-.1.2 0s.1.1.1.2h.2c0-.1 0-.3.1-.4.1-.1.1-.2.2-.2s.1-.2.2-.2.2-.1.2-.2 0-.1.2-.2c.1 0 .2-.1.2 0s.1.1.2.1.2.1.2 0c.1-.1.1-.1.2-.1.1.1.1 0 .2-.1v-.2s0-.1.2-.1 0-.1.1-.1c.1-.1.1-.1.2-.1s.2 0 .2-.1c-.1-.1-.2-.2-.2-.3.1-.1.1-.3 0-.3s-.2 0-.2-.1-.1-.2.1-.2c.1 0 .3 0 .4-.1s.2-.1.2-.2c0-.2.1-.2.1-.3 0-.1 0-.3-.1-.4l-.4-.3c0-.1-.1-.1-.2-.2-.1 0-.2-.1-.2-.1s.1 0 .1-.2l-.2-.3-.2-.2s-.4-.1-.5-.1c-.1 0-.2-.1-.1-.2s.2-.2.1-.3-.1-.2-.3-.2c-.2 0-.2-.1-.1-.2s.1-.2.2-.1.3.1.4 0c.1-.1.2-.1.2 0 .1.1.1.1.2 0l.3-.1h.3s.2-.1.2-.2.1-.2.2-.2l.3-.2.1-.1.1-.2s.2-.1.3 0c.1.1.3.1.3.1h.2c.1 0 .2-.1.3 0 .1.1.3.1.3.1v-.4c-.1 0-.1-.1 0-.2s.1-.1.3-.1h.3c.1 0 .3.1.3.2l.1.2s.2.1.1.2c0 .1 0 .1.1.1s.1 0 .1.1 0 .1.1.1.1.1.1.2v.2c0 .1.1.2.1.2s.2.2 0 .1c-.3 0-.4-.1-.4-.1-.1 0-.1.1-.1.1h-.2s-.2.2 0 .2.2.1.2.2 0 .1-.1.1h-.2s-.1.1-.1.2 0 .1.1.1c0 .1.1.1.2 0s.1-.1.2 0c0 .1.1.1.2.1h.2s.2 0 .2.1l.2.2c.1 0 .1.1.1.1l.1.1c.1 0 .2-.1.3 0 0 .1.1.2.1.2v.1l.3.1v.1c0 .1 0 .1.1.1h.2s.1 0 .1-.1 0-.1.1-.1.3.1.3 0 .2-.1.3-.1c.1 0 .4.2.4.2l.1.2c.1.1.3.1.3.1v.2c0 .1.2.1.3 0s.2-.1.3-.1.2 0 .2-.1l-.1-.2s.1-.1.1-.2h.2s.1.1.1.2.1.3.2.3h.3c.1-.1.2-.1.2.1s0 .2.1.2c.1.1.1.3 0 .3s-.1.1-.1.2v.3c.1.1.1.1.1.2l.1.3v.3s0 .2.1.1c.1 0 .2 0 .2.1v.2c-.1 0-.1.2 0 .2s.1.1.2.1c0 .1.1.2.2.1s.1-.1.2-.1.1-.1 0-.1-.1-.1 0-.2c.1 0 .1-.2.1-.2s.1-.1.2 0 .1.1.2.1l.1.1s.2.1.2.2v.4s0 .2.1.2.1.1 0 .1v.3c-.1.1-.1.1-.1.2s0 .1.2.2c.1.1.1.1.1.2l.1.2s.1.2.2.2.2.1.2.2v.3h.1s.2.1.2 0l.2-.2c.1 0 .2-.1.3 0h.6s.1 0 .1.1.2.2.1.3-.1.2 0 .2.2 0 .2.1 0 .1.1.1.1-.1.2 0c0 .1.1.1.2.1h.2c0-.1.2-.1.2-.1s.3-.1.3 0c.1 0 .2.1.2.1s.1.1 0 .2c0 .1-.1.1 0 .2 0 .1 0 .1-.1.1s-.1 0-.1.1l-.1.2c0 .1 0 .1-.1.1s-.1.1 0 .1.1.1.1.2v.2s0 .1-.1.1-.2 0-.2.1-.1.2 0 .3c.1.1.1.1 0 .1s-.1.2 0 .2.1.1 0 .1-.2.1-.2.2 0 .1-.1.1-.1.1 0 .3c.1.1.1.1.2.1l.1-.1h.6c.1 0 .2-.1.2 0s0 .1.1.2.1 0 .2.1.1 0 .1-.1.1-.2.2-.1.1.1.2.1.1 0 .1.1.1.1.2.1.1.1.2.1l.1.1c.1 0 .1 0 .2-.1s.1-.1.2 0 .2.1.2 0 .2-.2.3-.1c.1.1.1.1.2.1s.2 0 .2.1.2.2.1.3c-.1.1-.2.2-.1.2l.2.1c.1.1.3.1.4.1.1 0 .2 0 .3-.1.1-.1.2-.1.2 0v.2l-.3.7s0 .1.1.2.1.1.2.1c.1-.1.1-.1.1-.2v-.2s.2 0 .2-.1.3-.2.4-.1c.1.1.1 0 .2 0h.3s.2 0 .3-.1c.1-.1.1-.1.2 0s.1.2 0 .2 0 .2.1.2l.1.1v.2s0 .1.2.1l.2.2s0 .1-.1.1-.1 0-.1.1l-.1.2h-.1s-.1 0-.1.1l-.1.3c.1.1.1.2 0 .2s-.1.3-.2.2h-.2c-.1 0 0 .2.1.3l.2.2.1.2-.1.1c0 .1-.1.2 0 .2v.2s-.2 0-.2.1-.1.1-.2.1-.3-.1-.4 0c-.1.1-.1.2-.2.1s-.1.2 0 .2l.1.2s.1.1.1.2-.1.2-.1.1-.2-.1-.2 0 0 .3-.1.3-.2 0-.2.1l-.1.2s0 .1-.1.1l-.1.2s-.2 0-.2.1 0 .2-.1.2-.3.1-.3.2-.1.1 0 .2.1.3.2.3.1.1.1.2-.1.2 0 .2.2 0 .2.1 0 .1-.1.2c-.1 0-.1 0-.1.2v.2c-.1 0-.1.1-.1.2s0 .1-.1.2-.2.1-.3.1-.1 0-.1-.1l-.2-.1-.2.1s-.1.1-.1.2c.1.1 0 .2-.1.2s-.4.1-.4 0c-.1-.1-.3-.2-.3 0s.1.2.1.3 0 .2-.1.2c-.1.1-.1.1-.1.2s0 .2.1.3c.1.1.2.2.2.3s0 .2.1.2.2 0 .2-.1.2-.2.3 0c0 .2 0 .3.1.4.1.1.1.2.2.2l.2.4c-.2 0-.2.2-.3.3h-.2s0 .1-.1.1c-.1.1-.1-.1-.2-.1-.1.1-.1.2-.3.1-.1 0-.2-.4-.2-.5 0-.1-.1-.2-.1-.2-.1-.2-.3 0-.4 0-.1-.1-.1-.2-.2-.2-.3 0-.1.2-.2.2-.3.1-.3-.2-.5-.1-.1.1.1.1.1.2l-.2.3.2.3c.1.3-.1.5-.4.3-.2-.1-.2-.4-.5-.4-.1 0-.1.1-.1.1-.1 0-.1-.1-.2 0-.1 0 0 .1 0 .2l-.1.1-.1.3-.2.1-.2.4c-.1.1-.1-.2-.2 0v.2c.2.3-.2.4-.3.7 0 .1.1.2 0 .3 0 .1-.2.2-.2.2s0 .1-.1.1c0 0-.1 0-.1.1l.1.1v.1c.2.2.1.1.2.3h.1v.1l.1.2c0 .1-.2.2-.3.2-.1 0 .1-.3-.1-.3-.1 0-.1.2-.1.3h-.1c-.2 0-.3.2-.3.2h-.2l-.2.1h-.1l-.3-.1s-.1.1-.2 0l-.1-.2-.1-.2.1-.4-.3-.4c0-.1-.1-.3-.2-.4-.1-.1-.2-.2-.2-.3v-.1c0-.1-.1-.1-.1-.1 0-.1 0-.2-.1-.3l-.7-.1c-.1 0-.1 0-.2-.1l-.1-.1h-.2c-.2.1-.2.2-.3.4-.1.1-.3.1-.5.2l-.3.4h-.1c-.1.1-.2.2-.3.2v.1h-.4l-.3.2h-.1l-.1.1h-.1l-.2.1c-.1 0-.4-.1-.5 0-.1 0-.3.2-.3.3h-.1l-.1.3-.3.3-.1.1-.1.1c-.1 0-.2 0-.2-.1h-.6c-.1 0-.1.3-.3.4-.2 0-.3 0-.5.1 0 0-.1-.1-.2 0 0 0-.1.1-.1.2v.2c-.1.1-.2.2-.2.3v.1l-.2.1.1.3c0 .1-.2.3-.3.4l.1.3-.1.6v.2l.1.1s.2.4.2.5c0 .3-.4.2-.1.5l.1.1c.1.1.4.3.4.3l-.3.1c-.1.1-.2.4-.4.5-.1.1-.1 0-.2.2v.3c-.1.1-.1 0-.2 0 0 0 0 .1-.1.1-.1.1-.7.4-.8.4 0 0-.1-.1-.1-.2 0 0 0-.1-.1-.1-.2-.1-.4-.2-.6 0 0 0 0 .1-.1.2l-.3.2-.1.1-.3-.2c-.1-.1-.3-.3-.3-.4 0-.3-.3-.7-.4-1h.2c.2-.1.1-.4.4-.3 0-.1 0-.1.1-.2 0 0 .1 0 .1-.1.1-.2.2-.8.1-.9-.1-.1-.2-.1-.3-.4v-.2c0-.1-.1-.4-.1-.4l-.1-.1v-.4c-.1-.3-.5-.5-.5-.5 0-.1-.1-.2-.1-.2-.1-.1-.1-.1-.1-.2l-.1-.1c0-.1.2-.2.2-.4l-.1-.2.2-.3-.2-.5c0-.1.1-.1.1-.1 0-.1-.2-.2-.3-.3 0 0 .1-.1 0-.2v-.1l-.1-.2-.2-.8-.1-.1s0-.1-.1-.2c0 0-.2-.1-.3-.1 0-.1 0-.2-.1-.3 0 0-.1 0-.1-.1v-.1c-.1-.1-.2 0-.3-.3l-.3-.2-.1-.1c-.1 0-.2 0-.3-.1h-.3s0-.1-.1-.1-.3 0-.4-.1c-.1-.1-.1-.4-.2-.3h-.1L35 41h-.1v-.2l-.2-.2c-.1 0-.1 0-.1-.1-.2 0-.2 0-.3.1 0 0-.1 0-.1.1-.1 0-.1.2-.2.1 0 0-.1 0-.1-.1-.1 0-.1 0-.1-.1-.2-.1-.6.2-.7 0-.1 0-.1 0-.2-.1 0 0 .1-.4-.2-.5.1-.1.2-.1.2-.2v-.3l-.1-.1v-.2l-.1-.1c-.1-.1-.2-.1-.2-.2v-.1c-.1 0-.3-.1-.2-.2l.1-.1v-.1c.1-.1.3-.1.3-.3l-.1-.3s0-.1-.1-.1c-.2 0-.2-.2-.2-.3-.2-.1-.4-.1-.1-.3l-.2-.3-.1-.3s-.2-.1-.2-.2c0 0 0-.1-.1-.1v-.1h-.1c-.2-.2-.4-.2-.7-.3l-.1-.1-.4-.2-.1-.2-.1-.1c0-.1-.1-.2-.2-.2v-.1l.1-.3.1-.2c0-.1 0-.2-.1-.3-.1-.3-.2-.2-.2-.6v-.2s.1-.1.2-.1c.1-.1.1-.3.2-.3s.2-.1.2-.2c0 0 .1-.1 0-.2h-.2l-.1-.1v-.1c-.1 0-.1 0-.2-.1-.1 0-.2 0-.2-.1-.1-.1-.3-.3-.4-.3h-.4l-.2-.1c-.1 0 0 .1-.3 0v-.1h-.1c-.2-.1-.1-.2-.2-.4H28c0-.1-.1-.2-.1-.2l.3-.1v-.1c0-.1 0-.2.1-.2l-.2-.1s0-.1.1-.1c.1-.3.3-.1.5-.4 0 0 .1-.1.1-.2h.1s.1 0 .1-.1h.1c.3-.1.2-.2.4-.3 0 0 .2 0 .2-.1.1 0 .2.1.3.2l.5.1c.1 0 .1.1.1.2.2.1.1-.1.2 0l.5.2h.1l.4-.1h.1l.1-.1c.1 0 .1.1.3.1 0 0 .1-.4.2-.5l.2.1c.1 0 0-.1 0-.1l-.1-.3h.1l.3-.1.1-.2v-.1l.1-.1c.1-.1.1-.1.1-.2.3 0 .4-.2.6-.3h.1l.1.1.2.1.1-.1c.1 0 .2-.1.2-.1V28l.2-.2h.2s0 .1.1.1h.2c-.8-.8-.8-.9-.8-.9z"/><path fill="#fff" d="M49.3 10.6 51.5 9h-2.7l-.9-2.5-.8 2.5h-2.7l2.2 1.6-.8 2.6 2.1-1.6 2.2 1.6zm8.5 1.5 2.2-1.6h-2.7L56.4 8l-.8 2.5h-2.7l2.2 1.6-.8 2.6 2.1-1.6 2.2 1.6zm8.1 3 2.2-1.6h-2.7l-.8-2.6-.9 2.6H61l2.2 1.6-.8 2.5 2.2-1.5 2.2 1.5zm-25.3-4.5L42.8 9h-2.7l-.8-2.5-.8 2.5h-2.7l2.1 1.6-.8 2.6 2.2-1.6 2.2 1.6zm-8.5 1.5 2.2-1.6h-2.7L30.8 8l-.9 2.5h-2.7l2.2 1.6-.8 2.6 2.2-1.6 2.2 1.6zm-8.1 3 2.2-1.6h-2.7l-.8-2.6-.9 2.6h-2.7l2.2 1.6-.8 2.5 2.2-1.5 2.1 1.5z"/></svg>
