<svg xmlns="http://www.w3.org/2000/svg" width="85" height="57"><path fill="#C1282D" d="M-.02.153h85.04v56.693H-.02z"/><path fill="#036334" d="M51.598 25.532h-7.012L42.5 19.114l-2.11 6.418h-6.986l5.636 4.103-2.188 6.65 5.648-4.13 5.582 4.13-2.154-6.626 5.67-4.128zM47.16 27l-1.7 1.224L45.065 27h2.096zm-2.86 2.06-1.833 1.32-1.772-1.286.68-2.094h2.256l.67 2.06zm-1.8-5.54.654 2.013h-1.306l.652-2.014zM37.807 27h2.1l-.404 1.23L37.807 27zm1.776 5.53.654-2.023 1.042.758-1.697 1.264zm5.843 0-1.723-1.252 1.064-.774.66 2.025z"/></svg>
