<svg xmlns="http://www.w3.org/2000/svg" width="85" height="57"><path fill="#FFF" d="M-.02.153h85.04v56.692H-.02z"/><path d="M42.5.154h42.52v4.05H42.5zm0 8.099h42.52v4.05H42.5zm0 8.1h42.52v4.05H42.5zm0 8.097h42.52v4.05H42.5zm-42.52 8.1h85.04v4.05H-.02zm0 8.098h85.04v4.05H-.02zm0 8.1h85.04v4.05H-.02z" fill="#CB2026"/><path fill="#21205F" d="M-.02.154H42.5v32.383H-.02z"/><path fill="#FFCD05" d="M20.12 26.33c-5.48 0-9.92-4.44-9.92-9.92 0-5.476 4.44-9.915 9.92-9.915.99 0 1.948.15 2.85.42a11.046 11.046 0 0 0-5.737-1.61c-6.135 0-11.107 4.974-11.107 11.106 0 6.136 4.973 11.11 11.107 11.11 2.102 0 4.06-.596 5.734-1.61a9.855 9.855 0 0 1-2.848.42zm8.114-18.81.98 4.517 2.847-3.645-1.078 4.497 4.145-2.052-2.92 3.585 4.623-.05-4.187 1.962 4.187 1.96-4.623-.048 2.92 3.585-4.145-2.05 1.08 4.496-2.847-3.645-.98 4.518-.98-4.517-2.845 3.645 1.076-4.497-4.144 2.052 2.922-3.585-4.625.05 4.186-1.962-4.187-1.96 4.624.048-2.922-3.585 4.144 2.05-1.076-4.496 2.844 3.645"/></svg>
