<svg xmlns="http://www.w3.org/2000/svg" width="87" height="57"><path fill="#CE2028" d="M-3.8-1h93.5v58.1H-3.8z"/><path fill="#fff" d="M-3.8-1h62.3v58.1H-3.8z"/><path fill="#006948" d="M-3.8-1h31.2v58.1H-3.8z"/><g fill="#FCCB3E" stroke="#AA8C30"><path d="M48.1 35.8v.7l.2-.2-.2-.5z"/><circle cx="48.1" cy="35.6" r=".2"/><path d="m48.9 36.8-.5-.5-.2.2.7.3zm0 .3c-.1-.1 0-.2 0-.3.1-.1.2-.1.3 0 .1.1 0 .2 0 .3-.1.1-.2.1-.3 0zm3.7-7.1.5.5.1-.2-.6-.3z"/><circle cx="52.5" cy="29.8" r=".2"/><path d="m53.9 30.3-.7.2.1-.2h.6z"/><circle cx="54" cy="30.1" r=".2"/><path d="m51.4 33.9-.5-.7h.1l.5.6-.1.1z"/><circle cx="50.9" cy="33.1" r=".2"/><path d="m51.4 34 .6.1V34l-.5-.2-.1.2z"/><circle cx="52.2" cy="34.1" r=".2"/><path d="M37.8 35.6c0 .1-.1.2-.2.2s-.1-.1-.1-.2l.1-.2c.1 0 .2.1.2.2zm-.1.3.1.7-.2-.1-.1-.6h.2zm.2-.2c.1.1-.1.3-.2.3-.2 0-.3 0-.3-.2s.2-.1.3-.1c0 0 .1-.2.2 0z"/><circle cx="36.6" cy="36.8" r=".2"/><path d="M37 36.7h.7l-.1-.1H37v.1zm.1 0c.1.2.1.4-.1.4s-.2-.2-.2-.3c0-.1-.1-.2 0-.4.1-.1.2.1.3.3z"/><ellipse cx="34.8" cy="32.8" rx=".1" ry=".2"/><path d="M34.8 33.3v.7l-.2-.2v-.5h.2zm.3-.2c0 .2-.2.2-.4.2s-.3-.1-.3-.3c0-.1.2-.1.3-.1.1.1.3 0 .4.2z"/><ellipse cx="33.6" cy="33.9" rx=".2" ry=".1"/><path d="M34 33.9h.5l.2.2-.7-.1v-.1zm-.2-.3c.1 0 .2.2.2.3 0 .2-.2.3-.3.3-.1 0-.1-.1-.1-.2l.1-.1v-.2c0-.1.1-.1.1-.1zm-.4-4.1c-.1.1-.2.2-.2.1-.1 0 0-.2 0-.3.1-.1.2-.1.2-.1.1.1.1.2 0 .3zm-.6 1 .3-.7-.3.5v.2zm.2-.7c-.1-.1-.2-.2-.1-.3 0-.1.2 0 .2 0l.1.1c.1 0 .1 0 .2.1v.2c-.1 0-.2 0-.4-.1zm-1.2-.1c.1.1.2.2.1.2 0 .1-.2.1-.3 0-.1-.1-.2-.2-.1-.2h.3zm.3.3.6.3v.3l-.6-.6zm0 .1c-.1.1-.2.2-.3.1-.1-.1 0-.2 0-.2l.1-.1c0-.1 0-.1.1-.2h.2c0 .1 0 .3-.1.4z"/></g><path d="M48.3 35.8c-.1.1-.1.2-.1.2v-.2h.1zm0-.1s0 .1-.2.1c-.1 0-.2-.1-.2-.1v-.2c0-.1-.1.1-.1.1v.1l.1.1h.2l.2-.1zm.6 1.1h-.1c-.3-.1-.5-.3-.5-.3l.6.3zm.4.1s0 .1-.1.1H49s-.1-.1-.1-.2v.1l.1.1.1.1h.2l.1-.1-.1-.1zm3.5-6.9v.2l-.1-.2h.1zm-.1-.2c0 .1-.1.2-.2.2s-.2-.2-.1-.3v.2l.1.1h.1l.1-.1v-.1zm1.5.3c0 .1-.1.2-.2.2s-.2-.1-.2-.2v.1l.1.1.1.1h.1l.1-.1v-.2zm-.5.1c-.1.1-.3.2-.3.2l.4-.1v-.1h-.1zm-2.5 3.3v.2l-.2-.4h.1l.1.2zm-.1-.4c0 .1-.2.2-.3.1-.1 0-.1-.2-.1-.3h-.1v.2l.1.1h.2l.2-.1zm.8.8h-.3l.4.1-.1-.1zm.5.1c0 .1-.1.3-.2.2-.1 0-.2-.2-.1-.3v.2l.1.1h.2l.1-.1-.1-.1zm-14.5 1.7s0 .2-.2.3c-.2.1-.2 0-.3-.1v-.1.1l.1.1h.2l.1-.1.1-.1v-.1zm-.1.3c-.1.1-.1.2-.1.2V36h.1zm-.6.6c.1.1.2.1.2.1h-.3v-.1h.1zm-.1.2v.1c0 .1 0 .1-.1.1s-.1-.1-.1-.2v-.1.1l.1.1h.2-.1v-.1zm-.7 0s0 .1.2.1h.2-.3l-.1-.1zM35 33.1c0 .1-.1.2-.3.2-.2 0-.2-.1-.3-.1v-.1.1l.1.1.2.1h.3l.1-.1-.1-.2zm-.2.3-.1.1v-.2l.1.1zm-.7.5c.2.1.5.1.5.1H34l.1-.1zm-.1 0c-.1.1-.1.3-.3.3-.1 0-.1-.1-.1-.1v.2h.3l.1-.1v-.3zm-.3 0h-.3v.1h.2l.1-.1zm-.3-4.2v.1c-.1 0-.2.1-.3 0-.1 0-.2-.2-.2-.2l.1.1.1.1h.2l.1-.1zm-.4.2v.3-.3zm-.8.2.4.4-.5-.4h.1zm-.2.1h-.1c-.1 0-.2 0-.2-.1V30v.2h.3zm-.2-.2c-.2 0-.3-.1-.3-.1l.1.1h.2z" fill="#AA8C30"/><path fill="#9CA168" d="M54.6 28.6c0 .6-.6.8-.9 1.1-.3.2-.4.5-.4.5l-.1.3v1.2l.4-.3.3-.1h.1s-.3.3-.4.6c-.1.3-.4 1.1-.8 1.3-.4.2-.7.1-.8.3-.1.1-.1.2-.1.2l-.2.2-.3.1-.1.1-.1.1v.2c0 .2-.1.3-.1.3s.1-.1.2-.1h.2s-.1.1-.1.2 0 .7-.5 1c-.6.3-2 .3-2 .3l-.3.1-.2.2-.2.2v.1l-.3.3c-.1.1-.4.3-.4.3h.3c.1 0 .5.2.5.2s-.3 0-.5.1-1.2.6-1.7.6l-1.2-.7-.3-.2h-1.2v-.2h.6c.3 0 .4.1.6.2h.5c.1 0 .9-.7.9-.7l.9-.3h.5s0 .1-.1.2l-.2.1.1.1.5-.1h.3s0-.1.1-.2l.5-.4c.1-.1.2-.1.2-.1l.2-.5v-.2l.6-.6.4-.4.2-.5v-.1s.1.1.1.5c0 .3-.1.4-.1.4s.4-.3.6-.4c.2-.1.3-.1.3-.1.1 0 .2-.1.3-.3.1-.2.1-.2.1-.3V32l.4-.8.5-.5.1-.1v.4s.3-.4.4-.4h.1s.1-.1.1-.3v-.9l-.1-.2-.2-.6v-.8l-.2-.2s.2 0 .4.3l.3.7.5-1.5s.1.2.2.5l.1.5.2-.4v.1c0 .1.3.2.3.8zm-9.8 9.5s-.1-.2-.6-.5c-.5-.2-.8-.3-.8-.3v.2l.7.3.4.3h.3z"/><path fill="#727832" d="M48.1 36.7c0-.1.4-.4.6-.5.2-.1.5-.1.5-.1.3-.1.3 0 1-.4.6-.4.8-.8.9-.9.1-.1.3-.1.3-.1s-.3.3-.5.6-.5.4-.8.7c-.4.2-1.1.3-1.1.3-.3.1-.4.1-.6.3l-.3.3s-.1-.2 0-.2zm1.7-1.9c-.6.5-.8 1-.8 1s.5-.5.8-.7c.3-.3.6-.4.8-.5.2-.2.2-.3.3-.4.1-.1.2-.1.2-.1s-.2-.2-1.3.7zm-1.2 1.3s.3-.1.3-.3l.1-.4s.6-.6.8-.9c.4-.5.2-.8.2-.8s0 .2-.1.4c-.2.2-1 .7-1.1 1.1l-.1.5c.1.3-.1.4-.1.4zm-.4 1.5s-.3-.2-.7-.2c-.7 0-1.3.5-1.8.5s-.7-.2-1-.5c-.4-.3-1.3-.2-1.3-.2s.7 0 .9.1c.5.1.8.7 1.4.7.8 0 1.4-.5 1.8-.5.6 0 .7.1.7.1zm-3.5-.3s.5.1 1-.2c.4-.3.9-.7 1.2-.8.3 0 .6.1.6.1s-.4-.2-.6-.2c-.3 0-.6 0-.8.2l-.7.6c-.4.2-.7.3-.7.3zm-.1.7h-.2s-.2-.2-.4-.3c-.2-.1-.6-.2-.6-.2.1 0 .4.1.6.2.2.1.4.3.4.3s.1.1.2.1l.2-.1h-.2zm.4-.5s.2.1.6.1c.8 0 1.3-.5 1.8-.7.5-.2.8 0 .8 0-.1-.1-.3-.2-.6-.2-.8 0-1.6.5-2 .7-.4 0-.6.1-.6.1zm8.1-5.8c-.3.3-.6 1.1-.8 1.4-.2.2-.4.3-.5.4l-.5.6-.1.1c.1 0 .1-.1.2-.2s.1-.2.3-.4l.8-.6.8-1.3c.2-.2.6-.4.6-.4s-.3-.1-.8.4zm-1.3 1.6s0-.2.2-.4.3-.2.4-.5c.2-.3.2-.7.3-1 .1-.4.3-.7.3-.7s-.2 0-.4.3-.5.8-.7 1.3c-.1.4-.1 1-.1 1zm-.2.3s.1 0 .1-.5c0-.4 0-1 .1-1.3.1-.3.8-1 .8-1s-.3.1-.6.4c-.4.3-.5.7-.5 1l.2.9c-.1.2-.1.5-.1.5zm1.5-3s.2-.6.2-.7c.1-.1.1-.2.4-.6.2-.2.4-.3.5-.6.1-.3.1-1.1.1-1.1l-.2.2-.1.9-.5 1v-.8c.1-.4.2-.5.3-.8.1-.3 0-1 0-1s-.2.2-.3.5c-.1.3-.2.7-.2 1.1 0 .4.1.7.1.9 0 .2 0 .3-.1.5s0 .1-.1.3c-.1.1-.1.3-.1.2zm-.5-3.1s.2.2.2.5-.1.7 0 .9l.3.5v.5s.1-.6 0-.8c0-.1-.1 0-.1-.2l-.1-1c-.1-.3-.3-.4-.3-.4z"/><path fill="#9CA168" d="M41 38s.1-.2.5-.4 1-.5 1.1-.4c.1 0 0 .3 0 .3l-.4.1-.3.2-.5.2H41zm1-1c-.5 0-.8.1-.9.2 0 0-.1.1-.2 0l-.2-.2-.1-.1v.4l-.7-.6-.1.3-.1.2-.7-.7v.5h-.2l-.5-.4-.2.1.2.3-.7.1s-.1 0-.1.1c-.1.1-.1.2-.1.2h.3c.1 0 .1-.1.1-.1s0 .2.1.2.4-.2.6-.1c.2.1-.3.3-.3.5.1.2.5.1.6 0 .1-.1.4-.4.5-.3.2.2-.4.4-.3.6.1.2.4.2.5.1.1-.1.5-.6.6-.5.1.2-.3.4-.2.5.1.2.3 0 .5-.1l.4-.5c.2-.1.2-.1.3-.1.1 0 .2-.2.2-.2l.5-.2h.2l.1.1h.3v-.2c.1 0-.2-.1-.4-.1zm-4 0 .1-.2-.1-.1s-.2-.1-.3-.3c-.2-.2-.2-.2-.3-.2-.1 0-.3-.2-.3-.2l-.1-.4-.1-.1-.2.1-.3-.9v-.2h-.1l-.2.5-.2-.3-.1-.7-.1.2-.2.2-.3-.7v.4c-.1-.1-.2-.2-.4-.3l-.4-.4-.3-.4.1-.3.1-.4-.3.1-.1-.8v-.3l-.4.6-.2-.2v-.5h-.1l-.2.2s-.2-.3-.2-.4v-.7c-.1-.3-.2-.5-.2-.7 0-.2.1-.3.1-.4 0-.1-.2.1-.1-.1.1-.1.6-.5.5-.6h-.5c.1-.3.6-.3.6-.7 0-.3-.4.2-.5 0 0-.1.3-.4.3-.6 0-.2.1-.2 0-.3-.1-.1-.4.3-.4.3l-.3-.1-.1.4-.1.4-.4-.2.1.5.1.4-.4-.1.2.4.3.3.2.2.1.1.2.2.1.2.1.3v1c-.1 0-.2-.1-.2 0l.2.3c-.1.1-.5-.1-.5 0s0 .3.3.4c.2.1.8.2.7.3-.1.1-.7-.3-.7 0s.2.4.4.5l.7.1c0 .1-.5 0-.5.2s.3.2.4.2c.1 0 .3 0 .4.1l.6.6c.2.2.6.4.7.5h-.4c0 .1.9.4.6.5-.3.1-.6-.3-.6 0-.1.2.2.4.3.5.1.1 1 0 .8.2-.2.2-.8-.1-.8.1s.4.6.6.6c.2 0 .4-.3.5-.2.1.2-.2.3 0 .3s.3-.2.6-.2c.2 0 .6.2.8.4l.4.4z"/><path fill="#727832" d="M41.2 37.9c.1 0 .2.1.2.1s.3-.2.5-.3c.2-.1.6-.2.6-.2s-.4.1-.6.2c-.2.2-.4.3-.5.3 0 0-.1.1-.2.1-.2.1-.2 0-.2-.1 0 0 .1-.1.2-.1zm1.3-.6h-.2c-.1-.1-.2-.1-.4-.1-.1 0-.4.1-.6.3l-.2.2c.1 0 .2-.1.3-.2.2-.1.4-.2.5-.2.2 0 .2.1.3.1.1 0 .3 0 .3-.1zm-7.4-3c0-.1-.1-.1-.3-.3-.2-.1-.7-.5-.7-.5l.4.4c.1.2.5.4.6.4zm5.2 3.7s.1-.1.2-.3c.1-.2.3-.3.3-.3s-.1-.1-.1-.2V37s0 .1.1.2l.2.1s.2 0 .2-.1v-.1H41c-.2-.1-.3-.4-.4-.4l-.1.3c-.2 0-.3-.6-.7-.7-.3 0-.3 0-.4.1 0 .1.4.5.2.5-.1.1-.5-.6-.8-.6-.3 0-.3.1-.3.2s.3.1.2.3c-.1.2-.4-.3-.6-.3-.3 0-.3 0-.3.1l.1.2s-.2 0-.3.1l-.3.3s.2-.2.4-.3h.8s-.1 0-.2-.1l-.2-.2s.1.1.3.2c.1.1.3.2.3.2s.2 0 .3.1c0 0 0 .1-.1.2l-.2.2s.2-.2.3-.2l.2-.2h.2s0-.1-.1-.2l-.2-.4.3.3c.2.2.1.3.2.3h.2c.1 0 0 .1-.1.2l-.2.4s.1-.2.2-.3c.1-.1.2-.3.2-.3h.2s0-.1-.1-.2c-.1-.2-.1-.4-.1-.4l.2.4c.1.2.2.3.2.3h.2c0 .1 0 .1-.1.3-.1.3-.1.5-.1.5zm-3.2-1.8.2.1s-.2-.1-.3-.3l-.1-.6-.3.3-.1-.9c-.1-.2-.4-.4-.4-.3-.1.1 0 .6-.2.5-.2-.1 0-.6 0-.8 0-.2-.2-.4-.3-.3l-.1.4-.2-.3h-.1c0-.1 0-.3-.1-.2-.1 0-.1.2 0 .3l.1.3c0 .1.2.1.1.2 0 0-.1.1-.2.1h-.3s.2.1.3.1h.3c0 .1.2.3.2.3s0-.1.1-.3v-.4s.1.2 0 .4c0 .1-.1.4-.1.4s.2.1.1.2h-.4c-.2 0-.5-.1-.5-.1s.3.1.4.1h.6l.3.3s.1-.2.1-.4v-.5s.1.2.1.4-.1.5-.1.6c0 0-.2.1-.3.1-.2 0-.5.1-.5.1h.5c.2-.1.3-.1.3-.1.1 0 .1.1.1.1s.1.1.2.1c0 0-.1.1-.2.1l-.2.1s.2-.1.3-.1l.2-.1h.1v-.5s.1.1.1.2v.2s.2.1.3.2zm-4.5-5.3s.1-.2.1-.5-.2-.7-.2-.8l-.1-.1.1-.2-.2.1s-.1 0-.2-.1l-.1-.1s.1.1.2.1h.1l-.1-.3s-.1 0-.3-.1c-.2-.1-.4-.3-.4-.3s.3.2.4.2c.1.1.2.1.2.1s.2 0 .2-.1c.1 0 .2-.2.2-.2s-.2.1-.3.1H32v-.3l-.2-.4s.1.2.2.2l.2.2s.1-.1.2-.1c.1-.1.4-.3.4-.3l-.4.2-.2.1v-.2c0-.1.1-.2.1-.2l-.1-.1c0-.1.1-.4.1-.4v.2c0 .1 0 .1.1.1s.5-.4.5-.5c0-.1.1-.3-.1-.2-.2.1-.2.3-.3.2 0 0-.1-.2-.2-.2-.1.1-.2.2-.2.3 0 .2 0 .4-.1.5l-.3-.2c-.2 0-.2.3-.2.4 0 .1.4.5.3.6-.1.1-.4-.4-.6-.1-.2.3.5.6.6.6l.1.2c.1.1.3.2.3.3.1.1.3.6.3.8.1.4.1.5.1.5zm1.7 2.5s-.2-.2-.1-.5.3-.8.2-.9l-.4.2c-.1-.1.1-.6 0-.8-.1-.2-.1-.4-.3-.3-.2 0-.3.6-.4.5v-.5c-.1-.1-.1-.2-.2-.2l-.2.3-.3-.3c-.1 0 .3.7.3.7s.1-.1.1-.2l.1-.2v.3c0 .1-.1.3-.1.3h-.3c-.2 0-.3-.1-.3-.1s.1.1.3.1c.2.1.4.1.4.1s0 .1.1.2l.2.2s.1-.1.1-.3c.1-.2.2-.5.2-.5s0 .4-.1.6c0 .2-.1.4-.1.4s-.2 0-.4-.1c-.2 0-.5-.1-.5-.1s.3.1.5.2c.3.1.4.1.4.1l.2.3s.1-.1.1-.2c.1-.1.1-.3.1-.3s0 .2-.1.3c.2.1.2.2.2.2h-.7s.2.1.4.1h.3s0 .1.1.2c.1.2.2.2.2.2z"/><path fill="#fff" d="m42.1 38.9-.2-.2c-.1-.1-.2 0-.2 0h-.1l.1-.3.8-.8.1-.8h.5v1.1l.1.1.9.5v.2l-.1.1c-.1 0-.1.1-.1.1h-.3l-.6-.4-.2-.3-.5.6-.2.1z"/><path fill="#016949" d="M42.7 36.8v1c0 .1-.5.3-.7.5-.2.2-.3.4-.3.4s-.1 0-.2.1l-.2.1s.1-.4.5-.7c.4-.4.6-.4.6-.5v-.8c0-.1.1-.1.1-.1h.2zm1.1 2.3s.1-.1.1-.2l.1-.1-.2-.1-.5-.2c-.2-.1-.3-.3-.3-.3l-.2.2s.1.2.2.3c.1.1.4.2.5.2.2.1.3.2.3.2z"/><path fill="#CE202B" d="M43.1 36.8h.3v.9c0 .2-.1.4-.2.4-.1.1-.4.4-.6.5-.2.2-.3.4-.3.4h-.1l-.1-.1s.2-.3.5-.5.5-.4.6-.7c0-.4-.1-.9-.1-.9zm1.6 2s-.1-.1-.3-.1h-.2l-.3-.3-.5-.2c-.2-.1-.3-.3-.3-.3l.1-.3s.2.2.3.4c.2.1.6.3.7.4.3.1.5.4.5.4z"/><path fill="#35C2DC" stroke="#0B72A7" stroke-width=".078" d="M46.6 35.3s-.5-.2-.5-.4l1.2-.5v-.3s-.2 0-.5.1-.8.2-1.3.2c-.3 0-.5 0-.6-.1l-4.2-.3h-.2c-.5 0-.9-.9-.9-.9h-.3s.1.4-.1.4c-.3.1-2-.9-2-.9l-.1.4s1.1.6 1 .8c0 .2-.4.2-.4.2l.1.3s1.8.1 1.8.6c0 .2-.4.3-.4.3l.1.2v.1s1 0 1.2.2l.7.5c.3.2 2.5.1 2.9 0 .4-.1.6-.6 1.3-.7.6-.2.8-.2.8-.2h.4z"/><circle fill="#fff" stroke="#0B72A7" stroke-width=".152" cx="37.7" cy="34.5" r=".3"/><circle fill="#fff" stroke="#0B72A7" stroke-width=".152" cx="39.5" cy="33.1" r=".3"/><circle fill="#fff" stroke="#0B72A7" stroke-width=".152" cx="46.8" cy="35.4" r=".3"/><path fill="#F9C93D" d="M36.4 32.6c-.1.2.3.7.6.7s.4 0 .5-.2c0-.1 0-.3-.1-.4-.2-.1-.9-.3-1-.1z"/><path fill="#fff" d="M37.2 33c0-.1-.2-.3-.4-.3-.1 0-.3 0-.3.1l.4.2s-.1.1-.1.2c.1.1.1 0 .2 0 .2-.1.2-.1.2-.2z"/><path fill="#F9C93D" d="M39.7 35.6c.1.2-.1.3-.3.4-.2.1-.6 0-.7-.1-.1-.2.2-.4.4-.5.2-.1.5 0 .6.2z"/><path fill="#fff" d="m39.2 35.7.2.1c.1 0 .1-.1.1-.2s-.2-.2-.3-.2c-.1 0-.5.3-.4.4 0 .1.1.1.2 0 .1.1.1-.1.2-.1z"/><path fill="#F9C93D" d="M47.2 34.6c.2.2.5 0 .6-.1.1-.1.4-.3.2-.4-.1-.2-.3-.1-.4-.1-.1 0-.4.2-.4.3-.1 0-.1.2 0 .3z"/><path fill="#fff" d="M47.2 34.4s0-.3.3-.3c.1 0 .1 0 .3.1.1.1.1-.1.1-.1s0 .2-.2.2l-.3-.1c-.1 0-.2.2-.2.2z"/><path fill="#F9AB52" stroke="#963321" stroke-width=".078" stroke-linecap="round" stroke-linejoin="round" d="m43.2 33.9-.1-.1h-.9l.5 1.4.6.9.2.1h.5l.1-.2-.2-1.4-.7-.7zm-1.7.1v-.2h.6s.3.4.5.7c.1.3.2.7.4 1 .1.3.5.7.5.7h-.6l-.3-.1-.8-1.3-.3-.8zm-.3-.2h.4s.4.4.6.8l.3.9c.2.4.5.7.5.7h-.9c-.3-.1-.4-.1-.5-.1-.1-.1-.3-.2-.3-.2H41l.1-.4-.1-1V34l.2-.2zm3.4.3-.5-.2-1-.1s0 .3.1.5c0 .2.2.8.4 1.1l.4.7c.1.1.7-.2.7-.2l.4-.1-.1-.4-.1-.1.1-1.2-.1-.1-.3.1zm-3.6 0c0 .1.1.1.2.1 0 0 .2-.1.2-.2 0-.2-.1-.3-.3-.3-.2 0-.4.3-.4.4 0 .2.2.3.2.3s-.2.2-.2.5l.2.5s-.3.2-.3.4.2.3.4.3.4-.1.4-.3c0-.2-.1-.2-.2-.2l-.2.1m3.8-1.6c0 .1-.1.1-.2.1s-.2 0-.2-.2.2-.2.3-.2c.1 0 .4.2.4.4l-.2.4s.1 0 .1.3l-.2.5s.2.1.2.4c0 .3-.2.4-.3.4-.1 0-.4-.1-.4-.3 0-.2.1-.3.2-.3s.2.1.2.2"/><path fill="#963321" d="m41.4 35.7.2.3c.1.1 1.1.1 1.3.1.3 0 1.1 0 1.3-.1.2-.1.2-.3.3-.3l.1-.1-.1.1v.2l.1.1s0 .1-.1.1c-.1.1-.2.1-.3.1H42c-.3 0-.3 0-.4-.1l-.1-.1v-.1l-.1-.2zm2.9-1.8.2.1s-.1 0-.2.3l-.1.4h-.8l-.1-.3 1-.5z"/><path fill="#231F20" d="M46.8 33.8s-.1 0-.2-.2c-.1-.1-.1-.3-.1-.3s.1.1.1.2l.2.3zm1.5-.4.1.2.2.1s-.2 0-.3-.1l-.2-.2h.2zm.5.2s-.1.1-.2 0c-.1 0-.2-.1-.2-.2h.1c.1.1.3.2.3.2zm.7-.7s-.1.1-.2.1-.2 0-.2-.1c0 0 .2-.1.2 0h.2zm-1.1-1.5-.2.1c-.1.1 0 .2 0 .2.1 0 .1-.1.1-.1 0-.1.1-.2.1-.2zm-.8.4-.2.2c0 .1-.1.2 0 .2s.1-.1.1-.2c.1-.1.1-.2.1-.2z"/><path fill="#8DBFBF" stroke="#07544F" stroke-width=".078" d="m46.2 32.7-.4.4s1 .5 1.7.5 1.6-.6 1.6-.7c.1-.1 0-.6-.1-.8-.1-.2-.6-.6-.8-.5-.2 0-.5.3-.9.6-.3.3-.3.6-.7.5h-.4z"/><path fill="#10858A" d="M46.1 32.9s1 .2 1.3-.1c.3-.3.6-.8.8-.9.2-.1.3-.1.3-.1s.2.1.2.2c.1.1.3.2.3.2l.1.5v.3l-.3.3-.6.3-.6.2h-.5l-1-.3-.1-.4-.1-.1.2-.1z"/><path fill="#07544F" d="M47.7 32.3c0-.1.1-.1.1-.1.1 0 .2 0 .2.1s-.1.2-.2.2c0 0-.1-.1-.1-.2zm.4.3c0-.1.1-.1.2-.1s.2.1.2.2-.1.1-.2.1l-.2-.2zm-.1.6c0-.1.1-.1.2-.1s.2 0 .2.1-.1.2-.2.2c-.2 0-.2-.1-.2-.2zm-.6-.2c0-.1.1-.1.2-.1s.2.1.2.2-.1.2-.2.2c-.1-.1-.2-.2-.2-.3zm-.8.1c0-.1.1-.2.2-.2s.2.1.2.2-.1.2-.2.2-.2-.1-.2-.2z"/><path fill="#8DBFBF" d="M48.1 32.6c0-.1.1-.1.2-.1l.1.1c0 .1 0 .1-.1.1l-.2-.1zm-.1.5c0-.1.1-.1.2-.1s.2 0 .2.1-.1.1-.2.1c-.1.1-.2 0-.2-.1zm-.6-.1c0-.1.1-.1.2-.1s.1.1.1.2 0 .2-.1.2l-.2-.3zm.3-.7c0-.1.1-.1.1-.1.1 0 .1 0 .1.1s0 .1-.1.1c0 .1-.1 0-.1-.1zm-1.1.7c0-.1.1-.2.2-.2s.2 0 .2.1-.1.3-.3.3c-.1 0-.1-.1-.1-.2z"/><path fill="#231F20" d="M47 32.9s-.1 0-.2.1-.1.2 0 .2l.1-.1c-.1-.1.1-.2.1-.2zm.7-.2-.2.2v.1s.1-.1 0-.2c.1 0 .2-.1.2-.1zm.1.1s-.1 0-.2.1c0 .1-.1.1-.1.1s.1 0 .1-.1c.1 0 .2-.1.2-.1zm.1-.7-.1.1s-.1.1 0 .2c0 0 .1 0 .1-.1v-.2zm.5.3s-.1 0-.2.1v.1c.1 0 .1 0 .1-.1.1 0 .1-.1.1-.1zm-.1.6s0 .1-.1.1h-.1c0-.1 0-.1.1-.1h.1z"/><path fill="#07544F" d="M49.2 32.6s.1.3-.2.4c-.2.1-.9.6-1.6.6-.7-.1-1.4-.4-1.4-.4h-.1l.2.1.5.2.6.2h.7l.6-.2.5-.3.3-.2.1-.1v-.1l-.2-.2z"/><path fill="#231F20" d="M36.3 28.9s.2.1.1.2c0 .1-.1.2-.1.1v-.3zm1.1 1s0 .2-.1.2l-.1-.1h.1c.1 0 .1-.1.1-.1zm-2.4.2s.1.1.2.1.1 0 .1-.1H35zm.4.8s.1.1.2.1l.2-.1h-.2c0 .1-.2 0-.2 0zm.8.7s.2 0 .2-.1.1-.1 0-.2c0-.1-.1.1-.1.1.1.1-.1.2-.1.2z"/><path fill="#8DBFBF" stroke="#07544F" stroke-width=".078" d="M37.5 31.1s.1-.9-.6-1.5-1.2-.5-1.4-.2c-.2.2-.5 1 .3 1.6.8.7 1.7.5 1.7.5v-.4z"/><path fill="#10858A" d="M35.3 30.1s0-.5.2-.6c.2-.1 1-.3 1.4.5.4.7.4 1.1.3 1.5h-.4l-.6-.3-.5-.4-.4-.7z"/><path fill="#07544F" d="M37.4 31.2s-.1.1-.4.1c-.3 0-1.5-.3-1.8-1.4v.3l.1.2.3.4.3.3.4.2.3.1.4.1h.2l.2-.3zm-.7-.3c0-.1 0-.1.1-.1s.1 0 .1.1l-.1.2s-.1-.1-.1-.2zm.1-.6c0-.1.1-.1.1-.1.1 0 .1.1.1.1 0 .1-.1.1-.1.1-.1 0-.1 0-.1-.1zm-.6.6c0-.1.1-.1.2-.1s.2 0 .2.1l-.2.1c-.2.1-.2 0-.2-.1zm0-.6c0-.1 0-.1.1-.1s.2 0 .2.1-.1.2-.2.2-.1-.1-.1-.2zm-.5.1c0-.1 0-.2.1-.2s.2.1.2.2-.1.1-.2.1c0 0-.1 0-.1-.1zm.1-.6c0-.1.1-.1.1-.1.1 0 .2 0 .2.1s-.1.2-.2.2-.1-.1-.1-.2zm.5-.1c0-.1.1 0 .1 0 .1 0 .2.1.2.1 0 .1-.1.2-.2.2s-.1-.2-.1-.3z"/><path fill="#8DBFBF" d="M35.8 29.8c0-.1 0-.1.1-.1s.1 0 .1.1l-.1.1c-.1 0-.1-.1-.1-.1zm-.1.6c0-.1 0-.1.1-.1s.1 0 .1.1l-.1.2c-.1-.1-.1-.2-.1-.2zm.6-.7c0-.1 0-.1.1-.1s.1 0 .1.1l-.1.1s-.1 0-.1-.1zm-.1.6c0 .1.1.1.1.1l.1-.1c0-.1-.1-.2-.2-.2v.2zm.6-.1c0 .1.1.1.1.1.1 0 .1-.1.1-.1 0-.1-.1-.1-.1-.1s-.1 0-.1.1zm-.6.7c0-.1.1-.1.1-.1.1 0 .1 0 .1.1s-.1.1-.2.1v-.1zm.5-.1c0-.1.1-.1.1-.1s.1 0 .1.1l-.1.1c0 .1-.1 0-.1-.1z"/><path fill="#231F20" d="M36.9 29.9s.1.1.1.2v.2s-.1 0-.1-.1v-.3zm-.5-.4s.1.1.1.2v.1-.1c-.1-.1-.1-.2-.1-.2zm-.5 0s.1.1.1.2v.1-.1c-.2-.1-.1-.2-.1-.2zm-.2.1s.1 0 .1.1c.1 0 .1.1.1.1h-.1c0-.1-.1-.2-.1-.2zm.4.6s.1 0 .2.1l.1.1s-.1 0-.1-.1c-.1 0-.2-.1-.2-.1zm-.5 0s.1 0 .1.1c0 0 .1.1 0 .1 0 0-.1 0-.1-.1v-.1zm1.2.4v.4s-.1-.1-.1-.2c.1-.1.1-.2.1-.2zm-.1.1s.1 0 .1.1v.1l-.1-.2zm-.6.1h.1v.2s-.1 0-.1-.1c.1 0 0-.1 0-.1z"/><path fill="#07544F" d="M35.9 29.1s-.5.1-.6.4c-.1.3-.1.7-.1.7l-.1-.4.1-.3.1-.2.2-.1.4-.1zm1.5 1.9s0-.1-.1-.5l-.4-.9.2.3.2.3.1.3.1.2-.1.3z"/><path fill="#231F20" d="M37.9 30.3s.2.1.2.2v.1l-.1-.1c-.1 0-.1-.2-.1-.2zm-.7 1.9.2-.2c.1-.1.2 0 .2 0l-.1.1c-.1.1-.3.1-.3.1zm1.2.5s.1-.1.2-.1c.1-.1.1-.1.1-.2 0 0-.1 0-.2.1-.1 0-.1.2-.1.2zm-.2-.1s0-.2.1-.2c0 0 .1-.1.1 0v.1l-.2.1z"/><path fill="#8DBFBF" stroke="#07544F" stroke-width=".078" d="M40.2 31.7s-.7-1.1-1.9-1.1c-.9 0-1.2.8-1.2 1 0 .2.4.8 1.6.9 1.2.1 1.4-.6 1.5-.6.1-.1 0-.2 0-.2z"/><path fill="#10858A" d="M39.3 30.9s.3.2.4.4c.1.2.2.3.1.3s-.7-.6-1.3-.7c-.5-.1-1 0-1.1.3-.1.3-.1.6.2.8.2.2 1.4.3 1.4.3l.5-.1.3-.2.1-.2.1-.2v-.1l-.3-.3-.4-.3z"/><path fill="#07544F" d="M38.4 31.1c0 .1-.1.1-.1.1-.1 0-.1 0-.1-.1l.1-.1s.1 0 .1.1zm-.6.2c0-.1.1-.1.2-.1l.1.1c0 .1-.1.2-.2.1-.1.1-.1 0-.1-.1zm.7.4c0-.1.1-.2.2-.2s.2.1.2.2-.1.2-.2.2c-.2 0-.2-.1-.2-.2z"/><path fill="#8DBFBF" d="M37.9 31.9c0-.1.1-.1.1-.1.1 0 .2.1.2.1 0 .1-.1.1-.2.1 0 .1-.1 0-.1-.1z"/><path fill="#07544F" d="M38.9 32.1c0-.1 0-.1.1-.1s.1 0 .1.1l-.1.1s-.1 0-.1-.1zm.4-.3c0-.1 0-.1.1-.1s.2 0 .2.1-.1.1-.2.1c0 .1-.1 0-.1-.1z"/><path fill="#8DBFBF" d="M38.4 31c-.1.1-.2.1-.2 0s0-.1.1-.1l.1.1zm-.4.3c0 .1-.1.1-.2.1s-.1 0-.1-.1 0-.1.1-.1.2 0 .2.1zm.2.6c0 .1 0 .1-.1.1s-.2 0-.2-.1 0-.1.1-.1.2 0 .2.1zm.6-.2c0 .1-.1.1-.2.1s-.1-.1-.1-.2l.1-.1c.1 0 .2.1.2.2zm.8.2c0 .1-.1.1-.2.1l-.1-.1c0-.1 0-.1.2-.1.1-.1.1 0 .1.1zm-.5.2c0 .1 0 .1-.1.1l-.1-.1c0-.1 0-.1.1-.1l.1.1z"/><path fill="#231F20" d="M39.2 31.8h.2c.1 0 .1 0 .1.1h-.1c-.1-.1-.2-.1-.2-.1zm-.5.4s.1-.1.2-.1.1 0 .1.1c0 0 0 .1-.1.1-.1-.1-.2-.1-.2-.1zm-.3-.7s.2.1.2.2v.1s-.1 0-.1-.1l-.1-.2zm-.1.2h.3-.3zm-.5 0s.2 0 .2.1v.1h-.1l-.1-.2zm0 .3.1-.1h.1l-.1.1h-.1zm-.1-.8h.2c.1 0 .1.1.1.1h-.1c-.2 0-.2-.1-.2-.1zm.3-.4s.2 0 .2.1c.1.1 0 .1 0 .1s-.1 0-.1-.1c0 .1-.1-.1-.1-.1z"/><path fill="#07544F" d="M40 32s-.4.3-1.1.3c-.8 0-1.5-.4-1.7-.7l.1.2.2.2.6.3.6.1h.5l.5-.1s.3-.2.4-.2c-.2.1-.1 0-.1-.1zm.1-.3s-.1-.2-.3-.3c-.2-.2-.9-.6-.9-.6l.6.3.4.3.2.3z"/><path fill="#231F20" d="m40.1 31 .2.1.1.1-.1.1c0-.1-.1-.1-.1-.1 0-.2-.1-.2-.1-.2zm.6-.4s.2.1.3.2c.1.1.1.2 0 .2l-.2-.1c0-.1-.1-.3-.1-.3zm.2 0s.2.1.2.2.1.1 0 .2l-.2-.1c.1-.1 0-.3 0-.3zm1 .2s.1 0 .2.2v.2l-.1-.1V31c0-.1-.1-.2-.1-.2zm.3.1s.1.1.1.2v.1c-.1 0-.1-.1-.1-.1v-.2zm-1.8 2.2h.2c.1 0 .1-.1.1-.1s-.1-.1-.1 0l-.1.1h-.1zm1 .3s.1 0 .2-.1l.1-.2c-.1 0-.1 0-.2.1l-.1.2zm.8 0s.1-.1.2-.1c.1-.1.1-.1.1-.2-.1-.1-.1 0-.1 0v.1l-.2.2zm.2 0s.1-.1.1-.2v-.1l-.1.1v.2z"/><path fill="#8DBFBF" stroke="#07544F" stroke-width=".078" d="M40 32.1c0-.4.5-1.2 1.1-1.2.2 0 .7.1 1.1.3.3.1.4.3.6.4.2.1.5 0 .5 0l.7-.1-.6.8-.2.2s-.2.4-.7.6c-.5.2-1.4.1-1.8 0-.3-.2-.7-.5-.7-1z"/><path fill="#07544F" d="m40 32.1.1-.3c.1-.2.2-.4.4-.5.2-.2.4-.3.6-.3.1 0 .3 0 .5.1l.6.2c.2.1.3.1.4.2.1.1.2.1.3.1h.6l.6-.1-.5.8-.2.2s-.2.3-.7.5c-.2.1-.4.1-.7.1-.4 0-.9-.1-1.1-.1-.2 0-.4-.2-.6-.3-.2-.2-.3-.4-.3-.6 0 .3.1.5.3.6.2.2.4.3.6.3.3.1.7.1 1.1.1.2 0 .5 0 .7-.1.5-.2.7-.6.7-.6l.2-.2.6-.9-.8.1h-.5l-.3-.1c-.1-.1-.2-.1-.4-.2l-.6-.1c-.2-.1-.4-.1-.5-.1-.2 0-.3.1-.4.1-.2.1-.4.3-.5.5-.2.2-.3.4-.2.6z"/><path fill="#10858A" d="M43.5 32.2h-.2c-.1 0-1.7-1-2.2-.9-.5 0-1 .3-1 .8s.1.5.2.7c.1.1 1.1.4 1.1.4h.6l.5-.1.4-.2.2-.2.2-.2.2-.3z"/><path fill="#07544F" d="M40.9 31.9c0 .1 0 .2-.1.2s-.2 0-.2-.1.1-.1.2-.1c.1-.1.1-.1.1 0zm.2-.4c0-.1.1-.1.2-.1s.2 0 .2.1-.1.1-.2.1-.2 0-.2-.1zm1 .2c0-.1.1-.1.1-.1.1 0 .1.1.1.1 0 .1-.1.1-.1.1-.1.1-.1 0-.1-.1zm.2.6c0-.1.1-.2.2-.2s.2 0 .2.1 0 .2-.1.2c-.2.1-.3 0-.3-.1zm-.5.4c0-.1.1-.1.2-.1l.2.1c0 .1-.1.1-.2.1-.1.1-.2 0-.2-.1zm-.9-.1c0-.1.1-.1.1-.1.1 0 .1.1.1.1 0 .1-.1.1-.1.1l-.1-.1z"/><path fill="#8DBFBF" d="M40.9 31.9c0 .1-.1.1-.2.1l-.2-.1c0-.1.1-.1.2-.1.2 0 .2 0 .2.1zm.5-.4c0 .1 0 .1-.1.1s-.2 0-.2-.1l.1-.1c.1-.1.2 0 .2.1zm.9.2c0 .1-.1.1-.1.1l-.1-.1c0-.1.1-.1.1-.1.1 0 .1 0 .1.1z"/><path fill="#07544F" d="M41.8 32.1c0 .1 0 .2-.1.2s-.2 0-.2-.1.1-.1.2-.1c.1-.1.1-.1.1 0z"/><path fill="#8DBFBF" d="M41.2 32.5c0 .1-.1.1-.2.1l-.2-.1c0-.1.1-.1.2-.1l.2.1zm.6-.4c0 .1-.1.1-.1.1-.1 0-.1-.1-.1-.1 0-.1.1-.1.1-.1.1-.1.1 0 .1.1zm.8.2c0 .1-.1.2-.1.2-.1 0-.2-.1-.2-.2s0-.1.1-.1.2 0 .2.1zm-.5.4c0 .1-.1.1-.1.1-.1 0-.2 0-.2-.1s.1-.1.2-.1c0 0 .1 0 .1.1z"/><path fill="#231F20" d="M42.2 32.2h.3v.1h-.1c-.1 0-.2-.1-.2-.1zm-.3-.8s.2 0 .3.1c.1.1.1.2 0 .2h-.1c-.1-.1-.2-.3-.2-.3zm-.5.4s.2.1.3.2v.1h-.1c-.1 0-.2-.3-.2-.3zm-.1.2s.2 0 .3.1c.1 0 .1 0 .1.1 0 0 0 .1-.1.1 0 0-.1-.1-.2-.1 0-.1-.1-.2-.1-.2zm-.3-.7s.2 0 .3.1c.1 0 .1.1 0 .2-.1 0-.1 0-.1-.1l-.2-.2zm-.5.3s.2.1.3.2v.1c-.1 0-.1-.1-.1-.1-.1 0-.2-.2-.2-.2zm-.1.3h.4c0 .1-.1.1-.1.1-.1 0-.3-.1-.3-.1zm1.3.8.2-.1c.1 0 .1 0 .1.1h-.1c0 .1-.2 0-.2 0zm-.9-.1.1-.1h.1l-.1.1h-.1z"/><path fill="#07544F" d="M43.3 32.5s-.2.3-.6.4c-.3.1-.6.2-1.1.2-.5 0-.7-.1-1-.3-.3-.2-.6-.4-.6-.5 0-.1.1.2.1.2l.3.4.3.2.5.1.5.1h.4l.4-.1.3-.1.2-.1.1-.1.2-.4zm-.5-.9s-.1 0-.4-.1c-.3-.2-.6-.4-1.3-.4-.7 0-.9.4-.9.5l.3-.4.3-.2h.4l.3.1.3.1.3.1.3.1.3.2h.1zm.9.2h-.5c-.1 0-.1 0-.1.1v.1l-.1-.3.5-.1.2.2z"/><path fill="#10858A" stroke="#07544F" stroke-width=".078" d="M43 34.5c0 .1.1.1.2.1h.7l.2-.2.1-.5.1-.2.5-.3.4-.1h.3l.4-.1.3-.1.1-.2.1-.3-.1-.4-.3-.4-.5-.2h-.4l-.5.2-.7.2s-.4.2-.6.5c-.2.3-.2.4-.2.9-.1.5-.1 1.1-.1 1.1z"/><path fill="#8DBFBF" d="m43.2 34.3.2-.6c.2-.3.4-.7.4-.7h.1c.1 0 .2-.1.2-.1s0-.2.1-.3c.1-.1.3-.3.4-.3h.1s-.1.1 0 .1.2 0 .2-.1v-.1s.1-.1.3-.1c.2 0 .2 0 .2.1l-.1.1v.1s0 .1.2.1c.1 0 .2-.1.2-.1v-.2s.2.3.3.2c.1-.1.1-.2 0-.3l-.3-.4-.4-.2h-.6l-.6.3-.5.3s0 .4-.1.4c-.1-.1-.2-.3-.3-.2 0 .1-.1.4-.2.5-.1.2-.2.6-.2.8.3.4.4.7.4.7zm.6-.7s-.1 0-.1.1v.1c0 .1.1.1.1.1h.2v-.1c0-.1 0-.1-.1-.1l-.1-.1zm.9-.8c-.1 0-.1 0-.1.1v.1s0 .1.1.1c0 0 .2.1.2 0l.1-.1c-.2-.1-.3-.1-.3-.2zm.7.2h-.1s-.1.1-.1.2.1.1.2.1V33zm-2.1.2s.1.1.2.1l.2-.1c0-.1-.1.1-.1.1l-.3-.1z"/><path fill="#07544F" d="M44 33.8s0 .1-.1.1h-.2v-.1s.1.1.2.1l.1-.1zm1.9-1.3s0 .1-.1.1h-.1s-.1 0-.1-.1c-.1-.1 0-.2 0-.2s.1.2.2.2c.1.1.1 0 .1 0zm-1.7.5s-.1.2-.2.2-.1 0-.1-.1h.1c.1 0 .2-.1.2-.1zm.3-.1v.2l.1.1s.1 0 .1-.1V33v.1h-.2c.1-.1 0-.2 0-.2zm.6-.6v.2c-.1.1-.2 0-.2 0h.2v-.2zm-1.9 2.3s.8 0 .8-.1c.1-.1-.1-.5.4-.8.5-.3.8-.3 1.1-.3.2 0 .8-.2.9-.7.1-.3-.3-.3-.5-.6-.1-.3-.5-.2-.5-.2s-.4 0-.6.2c-.1.1-.1.3-.2.3l-.6.1c-.1.1 0 .3 0 .3l-.2-.1v-.4l.6-.4.7-.4h.5s.5.2.5.3l.3.3s0 .1.1.3v.3c-.1.4-.5.7-1 .7-.4 0-.8.2-1 .4-.2.1-.3.8-.3.9-.1 0-1-.1-1-.1z"/><path fill="#231F20" d="M43.5 33.1h-.1v-.3s0 .1.1.3c-.1-.1 0-.1 0 0zm.5-.1v-.2c0-.1.2-.2.2-.2l-.1.2c0 .1-.1.2-.1.2zm-.2.8v-.1c0-.1.1-.2.1-.2s0 .1-.1.2c0-.1.1-.1 0 .1.1-.1 0-.1 0 0zm.3-.3-.1.1c-.1 0-.2.1-.2.1s0-.1.1-.1l.2-.1zm.7-.9s-.1.1-.1.2-.1.2 0 .2c0 0 .1-.1.1-.2v-.2zm.2.3s-.1-.1-.2-.1h-.2l-.1.1h.5zm-.1-.6s.1 0 .2-.1l.1-.2-.2.1c-.1.1-.1.2-.1.2zm1 0s-.1.1-.2.1l-.1.2s.1 0 .1-.1l.2-.2zm-.3.6s0 .1-.1.1c-.1.1-.2.1-.2.1V33h.1c.1 0 .2-.1.2-.1z"/><radialGradient id="a" cx="-1280.469" cy="340.595" r="2.878" gradientTransform="matrix(.176 .075 .073 -.177 240.276 186.688)" gradientUnits="userSpaceOnUse"><stop offset="0" stop-color="#fff"/><stop offset="1" stop-color="#F05971"/></radialGradient><path fill="url(#a)" d="M39.2 30.1c.2 0 .4.3.3.7-.1.3-.3.6-.5.6s-.4-.3-.3-.7c0-.4.2-.7.5-.6z"/><path d="m39.3 29.6-.2.6h.2v-.6zm.1-.3c-.1 0-.2.1-.2.2l.1.2c.1 0 .2-.1.2-.2.1-.1 0-.2-.1-.2zm10.8 1.6-.6.6.3.1.3-.7zm.3-.3c-.1-.1-.2 0-.3.1-.1.1 0 .2.1.3.1.1.2 0 .3-.1l-.1-.3zm-15.9-3.1.3.7.1-.2-.4-.5zm-.2-.3c-.1.1-.1.2 0 .3.1.1.2.1.3 0 .1-.1.1-.2 0-.3h-.3z" fill="#FCCB3E" stroke="#AA8C30"/><path d="M39.5 29.3c-.1 0-.2.1-.2.2l.1.2h-.1v-.3l.1-.1h.1zm-.1.5-.2.2.1-.3h.1v.1zm11.1.9c-.1 0-.3 0-.3.1-.1.1 0 .2.1.2l-.1-.1v-.2l.1-.1.1-.1h.1v.2zm-.4.4H50c-.1 0-.2.1-.2.1l.3-.3.1.1-.1.1zm-15.6-3.9c-.1.1-.1.2 0 .3.1.1.2.1.2 0l-.1.1h-.2l-.1-.1v-.1l.2-.2zm.2.5v.3l-.2-.4h.1l.1.1z" fill="#AA8C30"/><radialGradient id="b" cx="1922.835" cy="1180.903" r="2.879" gradientTransform="matrix(-.017 -.189 -.176 .017 276.176 373.117)" gradientUnits="userSpaceOnUse"><stop offset="0" stop-color="#fff"/><stop offset="1" stop-color="#F05971"/></radialGradient><path fill="url(#b)" d="M35.7 28.7c.2.3.1.7-.1.8-.2.1-.5-.1-.7-.4-.2-.3-.1-.7.1-.8.2-.1.5.1.7.4z"/><path d="M34.5 28.7h.2c.1 0 .1-.1.1-.1v-.1l-.1-.2h-.2v-.1s-.3.2-.2.3h.1v.2h.1zm.2-.4s.1.1.1.2h.2s.1-.1.1-.2V28H35v-.1s-.4.2-.3.2h.1c-.1 0-.1.2-.1.2zm.8-.1v-.3s-.1 0-.1-.1v-.1s-.4 0-.4.1h.1l-.1.1v.3h.1c.2.1.3.1.4 0zm3.2 1.9.1.1h.1s.1 0 .1-.1c0 0 .1-.2 0-.2l-.1-.1v-.1h-.3v.1l-.1.1c.2.1.2.2.2.2zm.4-.1v.2l.1.1h.2l.1-.1.1-.1V30l.1-.1-.3-.1v.1c-.2 0-.3 0-.3.1zm.5.4s.1-.1.1-.2v-.1h.1l-.2-.2v.1h-.1l-.1.1v.2s.1.1.2.1zm9.7.8s0 .1.1.2c0 .1.1.1.1.1h.1s.1-.1.1-.2v-.1s-.2-.2-.3-.1v.1h-.1zm.3.1-.1.1v.1l.1.1h.1s.1 0 .1-.1v-.1h.1l-.2-.2v.1c.1-.1 0-.1-.1 0zm.1.5h.2s0-.1.1-.1h.1v-.3.1l-.1-.1h-.2v.1c-.2.1-.2.3-.1.3z" fill="#E92A37"/><path d="M34.8 28.4v.2h-.2v-.1l.1-.1h.1zm0-.2v.1s.1.1.2 0l.1-.2H35c-.1 0-.2.1-.2.1zm.4-.2v.1l.1.1s.1-.1.1-.2h-.2zm3.8 2-.1.1s-.1-.1-.1-.2c0 0 0-.1.1-.1l.1.2zm.2 0c-.1.1 0 .2 0 .2l.2-.1V30c-.1 0-.2-.1-.2 0zm.3.1c-.1.1-.1.2 0 .2h.1v-.1l-.1-.1zm10 1.2h-.2v-.2h.1c.1 0 .2.1.1.2.1-.1.1 0 0 0zm.2 0c-.1.1-.1.2-.1.2h.2v-.1l-.1-.1zm.2.3c-.1 0-.1.1-.1.1l.1.1v-.2z" fill="#F7E200"/><radialGradient id="c" cx="-4252.447" cy="-1585.332" r="2.881" gradientTransform="matrix(.064 .076 .147 -.127 552.98 152.881)" gradientUnits="userSpaceOnUse"><stop offset="0" stop-color="#fff"/><stop offset="1" stop-color="#F05971"/></radialGradient><path fill="url(#c)" d="M49.7 31.5c.1.1 0 .4-.3.7-.3.2-.6.3-.7.2-.1-.1 0-.4.3-.7.3-.3.6-.4.7-.2z"/><path fill="#A9AC72" d="M37.9 22.6H37c-.4-.1-.3-1.1-.3-1.1s-.2-.3-.2-.5.8-.8.9-.8h.2l.2-.2c.1 0 .1.1.1.1s-.3.2-.3.3c0 .1 0 .2-.1.3-.1.1-.2.3-.2.3 0 .1-.1.2 0 .2s.3 0 .5-.1l.3-.2s-.1.3-.3.3c-.2.1-.4.2-.5.2 0 0-.1.3.3.3l.6-.1-.3 1zm-2.2 2.3s.3.1.3.4c0 .3-.3.6-.3 1.2s.1.6.9 1.2c0 0 .2.2.2.4s.2 1.3.9 1.3l.8-.5-.3-.5s-.3.1-.4 0c-.1 0-.3-.1-.3-.3l-.2-.8c-.3-.5-.9-.5-.9-1s.3-.5.2-1.1c-.1-.6-.8-.9-.8-.9l-.3-.1-.1.6.3.1z"/><path fill="#F1A821" d="M37.8 20.9c.2-.1.1-.7.1-.7l-.2.1s.1.1.1.3v.3z"/><path fill="#A9AC72" d="m38.2 27.3-.1-.1c-.1-.1-.5-.4-.4-1.3.1-1 1.6-1.6 1.7-2 .1-.5.5-.7-.8-1.6l-.3.3.5.4s.1-.1.1.1c0 .1-.1.3-.2.4l-.8.7c-.1.1-.4.3-.4.3s-.2.2-.4.6c-.2.4-.1.9-.1.9s0 1.1 1.2 1.3z"/><path fill="#78742F" d="m37.5 27.9.1.4-.2.1h-.2l-.2.2v-.3l.2.1h.2l.1-.2v-.3zm-.7.1-.1-.1s0-.1-.1-.1l.2-.1h.2v.2l-.2.1zm.4-.7.1.1c0 .1.1.2.1.2h-.3l-.2-.1.1-.2h.2zm-.1 1.8s-.1 0-.1-.1l-.1-.2h.2l.2.1h.1l-.1.1c0-.1-.2.1-.2.1zm.7-.6-.2-.1v-.1l-.1.2-.1.2h.2s.2-.1.2-.2zm-.7.7s.1 0 .2.1l.2.1.1-.1.1-.2h-.4l-.2.1zm.7-.2.4-.2v-.2l-.1-.1h-.2l-.1.3v.2zm-.3.4s.3.1.7-.1c.2-.1.2-.2.2-.2l-.2-.1-.2.2-.5.2zm-.4-3s0-.1-.1-.2V26l.1.1.2.1-.1.1-.1.1zm.3.6s-.1-.1-.1-.2c-.1-.1-.1-.2-.1-.2h.1l.2.1-.1.3z"/><path fill="#C6C7A6" d="M36.6 20.8c0 .1-.1.3.1.3.1 0 .3 0 .7-.4.2-.2.2-.3.2-.3l.1-.2s-.1-.1-.3 0c-.4.2-.8.6-.8.6z"/><circle fill="#1D2430" cx="37.4" cy="20.3" r=".1"/><path fill="#A9AC72" d="M37 20.4c-.1.1-.3.2-.3.2l.4-.2c.1-.1.3-.1.4-.1.1 0 0-.1 0-.1-.1 0-.2-.1-.2 0 0 0-.1.1-.3.2z"/><path fill="#78742F" d="M37.7 26.3v-.4l-.1.1-.1.2.2.1zm-.7-.4v-.3c0-.2.1-.5.1-.5l.1.2.2.4.1.1-.2.1H37zm.7-.1v-.2c0-.1.1-.2.1-.2l-.2.2-.1.1.2.1m-.6-.8s0-.1.1-.2l.2-.3.1.3.1.3v.1h-.1s-.2 0-.3-.1l-.1-.1zm.7.4.1-.1c.1-.1.1-.2.1-.2l-.5.1.1.2h.2zm-.2-1 .2-.1c.1-.1.2-.1.2-.1l.1.5-.2-.1-.3-.2zm.5.7.3-.3-.4-.1v.3l.1.1zm.2-.8v-.5s-.1 0-.2.1l-.1.2.1.1.2.1zm.5-.4v-.4s-.1.1-.1.2l-.1.1.1.1h.1zm.1.5.2-.2.2-.2h-.6v.2l.2.2zm-1.4-2v.3h.5l-.1-.2-.2-.1-.1-.1-.1.1zm1 2.3s.2-.1.2-.2c.1-.1.2-.1.2-.1l-.5-.1.1.4zm.9-.8s.1-.2 0-.4v-.3l-.4.2.1.2.1.1.2.2zm-.6-.5s.1-.1.1-.2v-.1h.5l-.1.2-.2.1h-.3zm.6-.3s-.1-.2-.2-.3c-.1-.1-.1-.2-.1-.2l-.1.4h.4v.1z"/><path fill="#fff" d="m35.9 26-.1.1s.2-.1.3-.1c.1 0 .3.2.3.2v-.1s-.2-.2-.3-.2c-.1-.1-.2.1-.2.1zm0-.9.3-.1c.2-.1.3 0 .3 0s0-.1-.1-.1-.2 0-.3.1c-.1-.1-.2.1-.2.1zm.7.7s-.1-.2-.2-.2c-.2 0-.4.1-.4.1v.1s.2-.1.4-.1c.2.1.2.2.2.2v-.1zm-.7-.8c0 .1 0-.1.1-.2l.2-.1h-.1l-.2.2v.1zm-.1-.3c0-.1.2-.1.2-.1h-.1s-.1-.1-.1.1c-.1.1-.1.3-.1.3h.1s-.1-.2 0-.3zm1.1-2.8c.1-.1.2-.1.2-.1s-.1.2-.1.4c-.1.2-.1.3-.1.3h.1s0-.2.1-.3c.1.2.3.3.3.3h.1s0-.2.1-.4c.2.2.3.2.3.2s-.2-.1-.3-.2c.1-.2.3-.2.3-.2l.1.1-.1-.1h-.1s-.2.1-.3.2c-.1-.1-.1-.2-.1-.2h-.1s-.2 0-.3.2c0-.2.2-.3.2-.3v-.1c.1 0-.1.1-.3.2-.2 0-.3.1-.3.1v.1l.3-.2zm.2.3c.1-.1.3-.2.3-.2s0 .1.1.2c-.1.1-.1.3-.1.3s-.1 0-.3-.3zM36 25.3v.1s.1-.1.3-.1c.2 0 .3.1.3.1v-.2s-.2-.1-.3-.1c-.1 0-.3.2-.3.2zm3.2-1.7s0-.1-.1-.2h.1c.1-.1.3-.2.3-.2l-.1-.1H39s0-.1.1-.2c0-.1.1-.2.1-.2l-.2-.1s0 .1-.1.1l-.4-.1v.1s.2.1.4.1h.2s-.1.1-.1.2v.2h.4s-.1.1-.3.2H39l-.1-.2v.1s.1.1.1.2h-.2l-.1.1v.4c-.1 0-.3-.1-.3-.1h-.1l-.1.1s-.1.2 0 .5l-.4-.2h-.1v.5c-.2 0-.4-.2-.4-.2l-.1.1s0 .4.1.6v.1h-.1c-.2 0-.3-.2-.3-.2l-.1.1s.1.4.3.6h.1c-.2.2-.4.2-.4.2v.1s.1.1.3.2c-.1.1-.2.1-.2.1v.1s.2-.1.3-.2c.1 0 .3.1.3.1v-.1h-.2c.1-.1.2-.3.2-.3V26s-.1 0-.2-.1c.3-.2.3-.3.3-.3l.1-.1s-.1 0-.2-.2c.2 0 .4-.1.4-.1s.1-.3.1-.5c.2.1.4.1.4.1l.1-.1s-.1-.2-.1-.4h.5s-.1-.3-.1-.4h.5v-.1c.1.1-.1-.1-.1-.2zm-1.6 2.3s-.1.1-.2.3h-.1c-.2-.1-.2-.2-.2-.2s.1 0 .4-.2l.1.1zm.2-.5-.3.3-.1-.1c-.1-.2-.3-.3-.3-.6 0 0 .1.2.3.2h.1c.2.2.3.2.3.2zm.2-.3s-.2.1-.4.1v-.1c-.1-.2-.1-.6-.1-.6l.4.2c.1.3.1.4.1.4zm0-.5v-.4s.1.1.3.2v.3s-.1 0-.3-.1zm.8-.3s-.1.1-.4 0v-.5s.2.1.3.1c.1.3.1.4.1.4zm0-.4v-.4h.2c0 .1 0 .1.1.2l.2.2h-.5zm-1.1 2.7c0-.1-.2 0-.2.1-.1 0-.3-.1-.3-.1v.1s.2.1.3.1c0 .1-.1.2-.1.2s0-.1.1-.2h.2v.1c0 .1-.1.2-.1.2h.4l-.1-.1h-.3s0-.1.1-.2v-.2h-.2.2zm-1.6-.2c.2 0 .3.1.3.1v-.1s-.1-.2-.3-.2c-.2 0-.4.2-.4.2v.2s.2-.2.4-.2zm1.9 2.8c-.2.1-.4.1-.4.1s.1-.1.1-.2c.4-.1.4-.4.4-.4v-.1s-.1.2-.4.4c.1-.2.1-.5.1-.5h-.1s-.1.2-.3.2c.1-.2.1-.4.1-.4v-.1s-.1.1-.3.1h-.1c.1-.1.2-.5.2-.5v-.1s-.1.3-.3.5v.1c-.1 0-.3-.1-.3-.1v.1s.1.1.3.1l-.2.2v.1s.2 0 .4.1l-.3.3.1.1s.2 0 .5-.1c-.1.2-.2.3-.2.3s.5 0 .7-.2c.2-.1.3-.2.3-.2h-.1s0 .1-.2.2zm-1-.6.2-.2h.3s0 .1-.1.3c-.2 0-.4-.1-.4-.1zm.2.5.2-.2c.2 0 .3-.2.3-.2s0 .2-.1.4h-.4zm-.3-1.5c.2 0 .5.1.5.1v-.1h-.5c.1-.2.3-.3.3-.3h-.1s-.1 0-.2.2v.1c-.3-.1-.4 0-.4 0v.1s.2-.1.4-.1c-.1.2-.2.3-.2.3v.1c.1.1.2-.2.2-.4zm-.4-.9v-.1s-.2-.1-.4 0l-.3.3.1.1s.1-.2.3-.3h.3zm.4.4-.1-.1s-.2.1-.3.2c-.1.1-.2.3-.1.4 0 .1.1.1.1.1s0-.2.2-.3c0-.2.2-.3.2-.3zm-.5-.1c.1-.1.3-.1.3-.1l-.1-.1s-.2 0-.3.1c-.2.1-.3.3-.3.3l.1.1c0 .1.2-.2.3-.3zm.7-6.5c.1-.2.2-.2.3-.1h.1l-.1.3c0 .2-.1.2-.2.3-.1.1-.2.3-.2.4 0 .1 0 .2.1.2l.1-.1h-.1v-.1l.1-.4c0-.1.1-.2.2-.3 0-.1.1-.4.1-.4h-.2c-.1 0-.2.1-.2.2-.1.1-.3.1-.3.1s.2 0 .3-.1z"/><path fill="#78742F" d="M37.8 21.9h-.4l.1.3.3-.3zm-.4 0-.1-.1-.1.1-.1.3.3-.3zm0 .7-.3-.4-.2.3h.3c.1.1.2.1.2.1zm1 6.6c-.1.1-.4.2-.7.2-.2 0-.3 0-.5-.1-.1-.1-.2-.2-.2-.3-.1-.2-.1-.4-.1-.6 0-.2-.1-.4-.2-.5-.1-.2-.3-.3-.5-.5s-.4-.4-.4-.8v-.1c0-.3.1-.5.2-.7.1-.2.2-.4.2-.5v-.1c0-.1-.1-.2-.2-.3-.1-.1-.2-.1-.2-.1h-.1.1s.1.1.2.1l.2.2v.1c0 .1-.1.3-.2.5s-.2.4-.2.7v.1c0 .4.2.6.4.8.2.2.4.3.5.5l.2.7.1.4.2.3c.2.1.4.1.5.1.4.1.8-.1.7-.1zm-.3-.8s-.1.1-.2.1-.2 0-.3-.1l-.2-.3c0-.1 0-.3-.1-.5s-.3-.4-.5-.5c-.2-.2-.4-.3-.4-.5v-.1c0-.1.1-.3.1-.5.1-.2.1-.4.1-.6v-.1c0-.3-.3-.5-.5-.7l-.4-.2c.1 0 .3.1.4.3.2.1.3.3.4.6v.1l-.1.6c-.1.2-.1.3-.1.5v.1c0 .2.2.4.4.5.2.2.4.3.5.5.1.2.1.3.1.5 0 .1.1.2.2.4.1.1.2.1.3.1.3-.1.3-.1.3-.2z"/><path fill="#A9AC72" d="M39.5 27.3s.3.1.2.3c0 .2-.1.5-.1.5l-.4-.3.2-.2.1-.1v-.2z"/><path fill="#F9C93D" stroke="#987D2E" stroke-width=".039" d="M35.1 24.8s-.3.1-.3 0c-.1-.1 0-.2 0-.2s-.2 0-.1-.2c0-.1.2-.1.2-.1s0-.2.2-.2c.1 0 .2.2.2.2l-.2.5zm.3.1s-.2.1-.3 0c-.1-.1 0-.2 0-.3 0 0-.2-.1-.1-.2 0-.1.2-.1.2-.1s.1-.2.2-.2l.2.1s-.2.6-.2.7zm.3.1s-.1.1-.2.1c-.2 0-.1-.2-.1-.3 0 0-.1-.1-.1-.2l.2-.1.2-.2c.1 0 .2.2.2.2s-.2.1-.2.2c-.1.1 0 .3 0 .3z"/><path fill="#AF7129" d="M39.1 27.3s-.2-.2-.3-.4c-.1-.2-.3-.4-.3-.4l-.3-.2-.3-.3v-.4l.1-.2.1-.2s-.7.2-.3 1.5c.1.5.5.6.5.6h.8z"/><path fill="#826D2B" d="M38.8 23c.1 0 .1 0 .1.1v.1c-.2.5-.7.7-1.1 1-.2.2-.4.3-.6.6-.1.2-.2.5-.2.9v.1c0 .7.3 1.1.6 1.4.3.2.6.2.8.2h1c.1 0 .1 0 .1.1v.1c0 .1 0 .1-.1.2 0 .1-.1.1-.1.1l.1-.1c.1-.1.1-.1.1-.2v-.1s-.1-.1-.2-.1h-1c-.1 0-.4 0-.7-.2-.3-.2-.6-.6-.6-1.3v-.1c0-.4.1-.7.2-.9.2-.3.5-.6.9-.8.3-.2.6-.4.8-.8v-.2c0-.1-.1-.2-.1-.1z"/><path fill="#fff" d="m39.7 27.5-.2.3s.1 0 .2.1v.1s-.2-.1-.3-.1v-.1s.1 0 .2-.1.1-.2.1-.3v.1z"/><path fill="#FCCB3E" d="m40.3 27.7-.4.1-.2-.1s0-.2-.1-.2c-.1-.1-.1-.1-.2-.1H39l-.7-.8h.3l.4-.1h.6l.2.1.1.1.1.1.1.2.1.2v.2l.1.3z"/><path fill="#AF7129" d="M40.3 27.7h-.6v.1c0 .1-.1.2-.1.2v.5l.4.1.2-.1.1-.5v-.3z"/><path fill="#FCCB3E" d="M40.2 27.5v.2h.1l-.1-.2zm-.3-4.4v-.3l-.1-.2-.2-.2-.2-.2-.1-.1V22h-.4l-.2.3s.6.4.8.8c.2.1.3.2.4.3v-.3z"/><path fill="#AF7129" d="M39.4 23.4c0 .3-.1.5-.1.6l.3-.3.2-.3c-.1-.1-.2-.2-.4-.3v.3z"/><path fill="#826D2B" d="m40 28.3-.2-.2c-.1-.1-.2-.1-.2-.1s.1.1.2.1l.1.1c.1 0 .1.1.1.1z"/><path fill="#705C25" d="M40.3 27.9s0 .1-.2.3c-.1.1-.3.2-.3.2l.4.2.3-.3-.2-.4z"/><path fill="#41421B" d="m40.3 28.2-.1.1-.1.1.1-.4.1.1v.1z"/><path stroke="#78742F" stroke-width=".033" d="M37.9 22.6H37c-.4-.1-.3-1.1-.3-1.1s-.2-.3-.2-.5.8-.8.9-.8h.2l.2-.2c.1 0 .1.1.1.1s-.3.2-.3.3c0 .1 0 .2-.1.3-.1.1-.2.3-.2.3 0 .1-.1.2 0 .2s.3 0 .5-.1l.3-.2s-.1.3-.3.3c-.2.1-.4.2-.5.2 0 0-.1.3.3.3l.6-.1-.3 1z" fill="none"/><path fill="#AB6E29" stroke="#4D2B18" stroke-width=".057" d="M42.7 18.4s-1-.2-1 .7c0 .3.1.4.3.4.2.1.7.1 1 .4.4.3.4.6.4.8 0 .2-.1.4-.1.4l.2 1.1.2.8.7-.4.4-1.2-.5-2.2-1.6-.8z"/><path fill="#4D2B18" d="M43.7 22.7s.4-.1.4-.4c0-.1-.4-.4-.4-.4s.2.1.3.2c.1.1.2.1.2.1s.2-.4.1-.5l-.3-.4c-.1-.1-.3-.1-.3-.1s.3-.1.4 0c.1.1.1.2.2.1 0 0 0-.4-.1-.5-.1-.1-.1-.2-.3-.2h-.3s.2-.1.4-.1l.2.1s-.1-.3-.1-.4c0-.1-.3-.3-.3-.3h-.4s.1-.1.3-.1c.2 0 .2.1.2.1l-.1-.1c-.1-.1-.6-.3-.6-.3h-.5s0-.1.1-.1h.2l-.4-.1h-.7s0-.1.1-.1l.2-.1c.2 0-.1-.2-.1-.2l.1-.2h.6l1.2.7.6.5.4.9-.1 1.6-.9.6s-.4.1-.4 0c.1 0 .1-.3.1-.3z"/><path fill="#D3A668" d="M42.7 18.8v-.4s-.4-.1-.7.2c-.3.2-.1.6-.1.6s.1-.1.3-.2c.2-.1.4 0 .4 0l-.2-.2h-.3s.1-.1.3-.1l.3.1z"/><path fill="#904720" d="m43.9 22.8-.3.1.2 1.1 1 1.8.5-.1.2-.3.1.1.4.5c.2.1.3 0 .4.2.2.1.7.9.7 1v-.4l-.2-.5-.2-.3v-.1h.3l.2.1.3.2.1.2.1.2v.2l.1.2.2.3.2.3.1-.1-.1-.5-.3-.9-.2-.3s.2.2.3.2c.1 0 .3.3.3.3l.1.3.1.3.1.3.1.3.2-.1v-.2l-.1-.6-.1-.7s.1 0 .2.1l.2.3.1.6.1.5.2.6.2.4.1.2v-.3l-.2-2.3v-.1l.1.1c.1.1.2.3.2.3l.1.4v.8l.1.5.2.6.1.3.1-.4-.1-2.5.1-.1.2.2c0 .1.1.2.1.2l.1.6.1 1.6.1.4.5-4.1.3-.1v-.1l-.2-.2-.5-.7-.3-.7-.6-1-1-1.2s-.6-.5-.7-.6c-.2-.1-.3-.2-.3-.2v-.1l.2-.3h-.4l-.3-.1-.6-.4-.7-.3-.4-.1-1-.2-1-.1h-.4l-.7-.3s-.2.1-.3.2c-.1.1-.1.2 0 .4 0 .2.1.3.4.4.3.1.9.5.9.5l.3.3.1.1v.1l.2 1.6-.4.9-.3.2z"/><path fill="#AB6E29" d="M44.9 25.4s.2.3.4.1c.2-.2-.1-.9-.1-.9l.1-.1.2.3s.1.2.1.5l-.3.5-.3-.1-.1-.3z"/><path fill="#4D2B18" d="m51 29.2-.2-.7s-.1-.4-.1-.5c0-.1 0-1.2-.1-1.4v-.5l-.2-.3-.1-.1h.1s.1.1.1 0c0 0 0-.3-.1-.6-.1-.4-.6-1.2-.6-1.2h.1l.1.1.3.2.6.2.3.1.2.4s.1.7.1 1.1c0 .4 0 .7-.2 1-.1.4-.2 1.5-.2 1.7 0 .3 0 .4-.1.5z"/><path fill="#904720" d="M51 27.3s.1-.1.2-.4c.1-.2.1-1.8-.1-2-.2-.2-.6-.4-.6-.3l.2.5s.1.1.1.2l.1.3c0 .1.1.5.2.9-.1.4-.1.8-.1.8z"/><path fill="#4D2B18" d="M50.1 28.3s.1-.8 0-1.3c0-.6-.1-.6-.1-.7-.1-.1-.2-.5-.4-.9-.1-.5-.2-.8-.3-.9-.1-.1-.3-.3-.3-.2v.2l-.2-.1-.1-.1.1-.2v-.3l.3.2.6.4.3 1.3.3.8V29l-.2-.7zm.4-3.6s.2.1.3.2l.2.1s-.2-.1-.3-.1c-.1-.1-.2-.1-.2-.1v-.1zM49.3 28s.1-.3.1-.6-.2-1.1-.2-1.3c-.1-.1-.3-.3-.5-.7-.2-.5-.2-.5-.3-.7-.1-.2-.3-.4-.3-.4v-.5l.5.3.2.1.3 1.3.2.4.1.5.1 1.2.1.9v.1l-.3-.6zm-.6-.6s0-.4-.1-.7c-.1-.3-.2-.6-.3-.7-.1-.1-.4-.4-.6-.7-.2-.4-.6-.7-.6-.7v-.5s.2.1.3.2c.1.1.3.2.3.2l.1.5.2.4.3.4.2.2.1.6.1.3.1.5v.2l-.1-.2zm-.4 0-.1-.1s.1-.1 0-.3c0-.2-.1-.4-.2-.5-.1-.2-.1-.3-.2-.3l-.6-.6c-.2-.1-.4-.4-.5-.5-.2-.1-.3-.1-.3-.1l-.1-.6s.2.3.3.3c.1 0 .3.1.3.1l.4.7.1.2.4.3.2.3.1.4.1.5.1.2zm-.9-.1s-.2-.3-.3-.5c0-.2 0-.2-.1-.4s-.3-.5-.5-.7c-.2-.2-.5-.4-.5-.5 0-.1.1-.1.1-.1l.1.1.7.7.2.4.2.5.1.2.1.3h-.1zm2.4-3.4s.4.6.6 0c.1-.2-.2-.7-.2-.7s-.4-.7-.6-.9c-.1-.2-.8-1.1-.8-1.1l-.5-.2.2.3s.4.4.9 1.2c.4.9.3 1.4.4 1.4zm-2.6-3.4s.9.8 1.5 1.6.8 1.4.7 1.5c-.1.1-.5-.1-.6-.3-.1-.2-.3-.6-.8-1.3-.5-.6-.8-.7-.8-.7l-.4-.6.4-.2zm-.5 1.9s.5.4.9.8c.3.4.5.6.5.6l.2.2s-.1-.2-.1-.3c.1-.1.2 0 .2 0l-1.7-1.8v.5zm-.1 0s.2.3.5.6l.6.6.1.4s-.8-.6-.8-.4c0 .1.2.4.2.4l-.2-.1-.3-.5-.3-.4-.2-.6h.4zm-2.3 1.8s.4.4.6 0c.2-.3 0-.7 0-.7s.6.8.7.1c0-.1-.3-.7-.3-.7l.1-.1.3.5s.3-.1.3-.5c0-.3-.3-.8-.3-.8l.3.3s.5 0 .5-.3l-.4-.6s.4 0 .4-.2-.5-.4-.5-.5c0-.1.1-.4.4-.2.2.1.5.2.6 0 .1-.2 0-.3 0-.3l-.3-.1-.5-.3-.4-.1-.4-.1.2.3.1.8v.4l.1.8-.2.7-.1.1-.1.1-.2.4-.2.3-.3.4-.4.3z"/><path fill="#AB6E29" d="M47.1 25.8s-.1-.2-.3-.4c-.2-.2-.6-.2-.6-.2l.6.6h.3zm.8.1s-.2-.4-.4-.6c-.2-.2-.4-.5-.4-.5H47l.1.5.4.4s.3.2.4.2zm.7 0s-.1-.4-.3-.9c-.2-.4-.5-.6-.5-.6l.1.5.2.4.3.4.2.2zm.6-.3s.2-.9 0-1.2c-.1-.3-.4-.3-.4-.3l-.1.1.1.6.2.5.2.3zm.5-1.5s.1.1.3.4c.2.3.4 1.2.4 1.3h-.1l-.6-.9v-.8z"/><path fill="#D3A668" d="M45.9 25.2s.3-.1.3-.2-.3-.3-.3-.5c0-.1.3 0 .3 0 0-.1-.3-.5-.2-.6.1-.1.4.5.4.5s.2.3.1.5c-.2.5-.6.3-.6.3zm.7-.7s.5.1.5 0l-.4-.4-.1-.2h.3l-.3-.5c0-.1.1 0 .1 0s.3.3.4.5c.1.2.3.4.2.7-.1.3-.8 0-.7-.1zm2-.6s-.1-.3 0-.3l.2-.1s-.2-.1-.3-.1h-.2l.2.3.1.2zm-1.4.2s.7.2.7.1l-.5-.6v-.1h.3c.1.1 0 .2 0 .2s.2.4.3.3v-.5s.3.2.3.3c.1 0 .4.3.5.2 0-.1.1-.2 0-.2 0-.1.1.4-.1.4-.2.1-.4-.1-.4-.1l-.2-.1s.1.4 0 .4h-.6l-.3-.3zm1.6-.5s.7.4.8.4l-.1-1.2c0-.1.6 1.2.3 1.3-.2.1-.3 0-.3 0l-.4-.1-.3-.4zm2 1.9s.1 0 .2.1h.1-.2c-.1 0-.1-.1-.1-.1zm-.7-2.4s.1 0 .1.1h.1-.2v-.1zm-.2-.4h.2l.1-.1s-.2 0-.2-.1c-.1 0 0-.1 0-.1h-.3l.2.3zm.6 2.1s.2.1.3.1c.1.1.2.1.2.1h-.4l-.1-.2zm-1.2-3.3h.2s0 .2-.1.2l-.1.1-.2-.3h.2zm-1-.9h.2c.1 0 .2.1.2.1.1 0 .1.5.1.6 0 .1-.5-.3-.5-.3l-.2-.4h.2zm-.5-.2s.4 0 .3-.2c0-.2-.2-.3-.2-.3l-.4.3.3.2zm-.9-.4s.1.1.2 0c.1 0 .4-.4.6-.4h.3v.3c0 .1-.6.3-.6.3h-.2c-.2-.1-.3-.1-.3-.2zm-.1-.7c-.1-.2-.2-.3-.3-.3-.1 0 .2.2.2.5v.5h.1v-.7zm-.9-.3c-.3-.3-.8-.5-.8-.5s.6.3.8.5c.1.3.1.6.1.7h.1v-.3l-.1-.2v-.1l-.1-.1zm-.8-.3c-.3-.3-1-.4-1.5-.5-.5 0-.8 0-.7.3.1.3.3.4.7.4h.8c.2.1.4.2.5.3l-.4-.4c-.2-.2-.4-.2-.4-.2s0-.1.3 0c.3 0 .7.2.8.5.1.2.1.4.1.4 0 .1.1 0 .1 0v-.3c-.1-.1-.1-.1-.2-.3l-.1-.2zm-1.4 4.2c.2 0 .7-.4.8-1 .1-.6-.3-1.7-.4-1.9-.1-.1.1-.1.2.1s.4.9.4 1.6c0 .6-.1.8-.4 1.1-.3.2-.6.2-.6.2v-.1zm.8 1.6s.1.1.2.1c.2-.1.6-.2.6-.6 0-.2-.3-.4-.3-.5v-.1l.2.1.1.3s.1.1.2.1.4-.2.3-.4c0-.2-.3-.4-.3-.5v-.2h.2l.1.3s.1.1.2.1.3-.3.3-.4c-.1-.1-.2-.4-.2-.4v-.1h.4c.2-.1.3-.2.3-.3l-.1-.3v-.1h.1l.1.2v.4l-.2.2-.2.1h-.1l.1.2v.3l-.2.2-.3.1v.3l-.1.3-.3.2h-.1v.2l-.2.3-.3.2h-.2l-.3-.3zm1.8-3s.6.2.5-.2c0-.2-.6-.7-.6-.7v-.2l.3.3s.4.1.5-.1c.1-.2 0-.3 0-.3h.3v.3l-.2.8s0 .3-.2.3l-.6-.2zm.6 4.3s0-.2-.1-.3c-.1-.1-.4-.2-.4-.2l.4.5h.1zm.8 0s-.3-.4-.3-.5c-.1-.1-.2-.4-.3-.4-.1 0 .1.4.1.4l.5.5zm.8 0s-.2-.5-.3-.6l-.3-.6c-.1-.1 0 .2 0 .2l.2.5.3.4.1.1zm.6-.3s0-.4-.1-.7c0-.3-.3-.5-.3-.5v.5l.4.7zm1.1.3s-.2-.5-.3-.7l-.3-.6.1.4.2.7.3.2zm1.1-1.3s-.2-.2-.6-.3c-.4-.2-.8-.2-.8-.2v.1l.2.2.4.2.5.1.3-.1z"/><path fill="#202020" d="M47 24.7s0 .3.2.6l.7.7c.1.1.2.5.3.9l.2.7c.1.1.2.3.1.2-.1 0-.2-.1-.2-.2-.1-.1 0-.1 0-.3 0-.2-.3-1.1-.4-1.2-.1-.1-.7-.6-.9-.9-.2-.3-.2-.4-.2-.4l.2-.1zm1 2.3c-.1-.3-.1-.5-.2-.6 0-.2-.5-.6-.6-.6h-.3c-.1-.1-.5-.6-.5-.6s-.1.1 0 .1l.7.7c.2.2.3.5.4.8.1.3.1.2.1.4 0 .1.1.2.2.2s.1 0 .1-.1c0 0-.2-.2-.3-.5-.1-.3-.2-.7-.4-.9h.2c.1 0 .6.4.6.6-.2 0-.2.1 0 .5.2.5.3.6.3.6s-.2-.3-.3-.6zm-.8-2.9s.4.2.5.3h.2s.1.6.3 1c.3.4.5.5.5.5s0 .7.2 1.2.2 1.1.2 1.2c0 .1-.2-.3-.3-.6-.1-.3-.2-.7-.3-.9-.1-.2-.3-.6-.4-.6-.1-.1 0-.1 0 0 .1.1.2.3.4.7.1.4.2.7.2.7.1 0 .1-.1.1-.1 0-.1-.1-.3-.1-.6-.1-.3-.1-.6-.2-.7-.1-.1-.1-.1-.4-.5l-.4-.8v-.2s-.1 0-.2-.1c-.2-.3-.3-.5-.3-.5zm.9-.1s.2.2.3.2c.1.1.3.1.3.1s0 .6.2 1l.5.6s0 .1.1 1c.1.8.1.9.1 1.2v1.5c-.2-.1 0-.8-.1-1.1-.1-.3-.2-.3-.4-1.1s-.1-.9-.2-1.2c-.1-.3-.3-.3-.3-.3s.2 0 .3.3c.1.2.1.9.2 1.2.2.7.4 1.1.4 1.1s-.1-.9-.1-1.4c-.1-.5-.1-.9-.2-1.1l-.4-.6c-.1-.3-.2-.8-.2-.9-.1-.1-.1-.1-.2-.1-.2-.2-.3-.4-.3-.4zm.7-.4s.2.2.5.4l.4.1s-.1.6.2 1.1c.3.5.4.5.4.6 0 .1.1 1.5.1 2s.1 2.2-.1 2.2 0-1.2-.1-1.5c-.2-.3-.2-.2-.3-.5-.1-.2-.1-1.1-.3-1.7-.1-.4-.2-.5-.2-.5s.2.1.3.4c.1.3.1 1.5.2 1.6.1.2.3.4.3.6 0 .2 0-2.1-.1-2.3 0-.1-.5-1-.5-1.4 0-.5-.1-.5-.1-.5s-.2 0-.4-.2c-.2-.1-.3-.4-.3-.4zm1 .3s.1.2.6.4c.4.2.8.1.9.2.1 0 .3.7.3 1.5s-.1.8-.3 1.5c-.1.7-.1 2.2-.2 2.4 0 .1-.1.1-.1.3 0 .1 0 .4-.1.4s-.1-.2-.1-.3c0-.1.1-.5.1-.9s-.1-.4-.1-.9c-.1-.5-.1-2-.1-2.1-.1-.1-.3-.5-.3-.5s.3.2.3.4c.1.2.1 1.9.1 2.2.1.3.1-.1.1-.3 0-.2.1-1 .1-1.4 0-.4-.2-1.4-.4-1.5 0 0 .1.1.2.3l.1.1c.1 0 .1.1.1.1h-.2l-.1-.1c.1.2.2.6.2 1.2 0 .7-.1 2.4 0 2.4s.1-.9.2-1.6c.1-.7.3-.8.2-1.5-.1-.6-.2-1.3-.3-1.3-.1-.1-.5-.1-.8-.3-.2-.4-.4-.7-.4-.7zm-5.2.8s.1.1.3 0c.1-.1.5-.4.5-.5V24s0 .1.1.1.4-.2.4-.4v-.5c0-.1.1.1.2 0s.4-.2.3-.4c0-.2-.2-.4-.2-.4h.2c.1 0 .4-.2.4-.4s-.1-.4-.3-.5h.3c.2-.1.2-.1.2-.3 0-.2-.3-.6-.4-.6-.1 0 .4.1.5 0 .1-.2.1-.3.1-.4 0-.1-.1-.1-.1-.1s.2 0 .4-.1.4-.3.6-.3c.1 0-.3.2-.4.4 0 .1.1.2.3.3.1.1.4.1.5.1h-.3c.3.2.6.4.8.8l.1.1h.2-.2l.5.7.1.1h.2-.2c.3.5.5.9.5.9s-.4-.8-1-1.4c-.5-.6-.7-.7-.7-.6l.6 1c.2.4.4.9.4.9s-.5-1.1-1.3-1.8l-.9-.8c-.1 0-.2.5-.1.6.1.1.6.5 1.1 1.1.5.6 1.1 1.5 1.1 1.5s-.4-.6-1.1-1.4c-.7-.8-1-1-1.1-.9-.1 0-.1.1-.1.3-.1.1-.3.1-.3.2l.7.7.3.1c.1.1.2.1.2.1s-.1 0-.2-.1h-.2s.5.6.6.7c.1 0 .1 0 .2.1.1 0 .3.2.3.2s-.2-.1-.3-.1h-.2l.4.5s-.6-.7-1.1-1.1c-.5-.4-.7-.5-.7-.5s0 .1-.1.2c-.1 0-.2.1-.2.1s.4.5.7.8c.3.3.6.7.6.7s-.3-.3-.7-.6c-.3-.3-.5-.4-.5-.4v.2s.7.8.6.8c0 0-.7-.9-.8-.9 0 0-.1.1-.1.2l-.3.1c0 .1 1 1.1 1 1.1s-.8-.7-.9-.7c0 0 .4.7.3.8l-.5-.7s0 .1-.2.2c-.1.1-.3.1-.3.1s.7.8.7.9c0 0-.7-.8-.7-.7v.1c.1.2.2.5.2.5s-.2-.5-.3-.4c-.1 0-.1.1-.2.2l-.2.1.2.2c.1.1.1.4.1.4s-.1-.2-.2-.3c-.1-.1-.2-.2-.3-.2-.1 0-.1.1-.1.1v-.6zm6.6-.2s.2 0 .3-.1c0 0-.1 0-.3-.2-.2-.2-.7-1.8-1.3-2.5-1-1.3-1.8-1.9-1.8-1.9s1.1.6 1.9 1.8c.8 1.2 1 2.2 1.3 2.4.2.3.5.3.4.4 0 .1-.1.1-.1.1-.2 0-.4.1-.4 0zm-7-.4c.1 0 .4-.3.4-.3s-.1 0-.2-.2c-.1-.1-.1-.3-.1-.3s.1.2.2.2c.1.1.2.1.3 0 0 0 .5-.4.4-.5 0 0-.1 0-.3-.1-.1-.1-.1-.3-.1-.3s.1.2.2.2c.1.1.2 0 .3 0 0 0 .3-.4.3-.5 0 0-.1 0-.3-.1-.1-.1-.2-.3-.2-.3s.1.2.3.2c.2 0 .3-.1.3-.2s.1-.5 0-.7c0 0-.2.1-.4 0-.1-.1-.2-.3-.2-.3s.1.2.3.2c.2 0 .2-.1.3-.1v-.4c-.1-.1-.2-.1-.2-.3 0 0-.1.1-.3.1-.2 0-.3-.2-.3-.2s.2.2.3.1c.2 0 .2-.2.2-.3l-.1-.3c0-.1-.1-.2-.1-.2s-.1.1-.3.1c-.2 0-.3-.2-.3-.2s.2.1.3.1c.1 0 .2-.1.2-.2s0-.2-.3-.5c-.3-.2-.5-.4-.5-.4s.4.2.6.4l.4.4s.3.1.3 0 0-.2-.1-.3c.1.2.1.3.1.4 0 0 .5.2.6.2.1-.1.1-.2 0-.3-.2-.1-.3-.2-.3-.2s.1.1.2.3c.1.1.1.3.1.3 0 .1-.1.1-.1.1s.2.1.3.2c.2.1.3.2.4.1v-.3c0-.2-.1-.4-.1-.4s.1.2.1.4v.3c0 .1.2.1.2.1s-.1.1-.3 0c-.2-.1-1.1-.5-1.2-.5 0 0 .4.3.6.5.2.2.3.4.3.4s-.2-.1-.3-.2c-.2-.1-.6-.3-.7-.3l.2.1s-.2.2-.2.3l.7.6c0 .1-.2.2-.2.2s-.4-.3-.4-.2l.2.2s-.1.1-.1.2l.4.5-.2.3c0 .1.2.3.2.3v-.3l-.2-.2s-.2.3-.1.4l.2.3v.3s-.2-.3-.3-.3c0 0-.1 0-.1.1l-.2.4s.2.1.2.3c0 .2-.1.3-.2.3l-.3-.4s-.3.3-.3.4l.2.2c0 .1-.2 0-.3 0-.1.2-.3.2-.4.1zm3.8-4.3s0-.1.1-.1l.2-.3h-.4c-.1 0-.2 0-.7-.3 0 0-1.4-.9-3.4-1.1-.7 0-1 .2-1 .3 0 0 .2-.3.8-.3.3 0 2.4.2 3.5 1 .1 0 .4.4.8.4.3 0 .4-.1.4 0l-.1.2c-.2.1-.2.2-.2.2zm-3.6.3c0-.1-.2-.3-.4-.5-.3-.3-1.1-.6-1.2-.6 0 0 .9.4 1.1.7.5.3.5.4.5.4z"/><path fill="#D3A668" d="m44.4 21.6-.2-.2-.4-.2.4.1c.1.1.2.3.2.3zm-.1-.8s-.1-.1-.3-.2l-.3-.1s.2-.1.4 0c.1.1.2.3.2.3zm-.2-.6s-.1-.1-.3-.2c-.2-.1-.4-.1-.4-.1s.2-.1.5 0c.2.1.2.3.2.3zm-.3-.5s-.1-.1-.5-.2l-.6-.1h.8c.2.1.3.3.3.3zm-.7-.4s-.3-.1-.5-.1H42s.7-.1.9-.1l.2.2z"/><path fill="#F9C93D" stroke="#987D2E" stroke-width=".039" d="M40.6 28.3s.1.2.4.2c.3 0 .5.4.5.4l-.3.3h-.7l-.2-.3.3-.6zm.1-.2s-.2-.5-.4-.6c-.2-.1.1.1 0 .2 0 .1-.1.2 0 .2 0 0 .1.2.1.3-.1.2.3-.1.3-.1zm-.2.7s.1.1.2 0c.1 0 .2-.1.2-.1"/><path fill="#F9C93D" stroke="#987D2E" stroke-width=".039" d="M40.4 28.6s.4-.3.3-.4c0-.1-.1-.1-.2-.1l-.3.2c.1 0 .2.3.2.3zm-.2.2s.1.2.2.2.3-.1.3-.2-.1-.2-.2-.2l-.3.1v.1zm.3-.3c0 .1-.3.2-.3.2-.1 0-.2-.2-.2-.2.1 0 .1 0 .2-.1.1 0 .1-.1.1-.1s.1 0 .2.1v.1zm-.2.2s-.4.5-.5.5c-.2 0 .1-.7.1-.7s.1 0 .2.1c0 0 .1 0 .2.1zm-.7-.4s.5.1.5.2-.2.2-.4.2c-.1 0-.1-.4-.1-.4z"/><path fill="#202220" d="M38.4 29.1s.1.2.3.2c.2 0 .4-.2.4-.2l-.5-.2-.2.2z"/><path fill="#4C423A" d="M38.4 29.1v.1c0 .1.1.1.2.1.2 0 .4-.2.4-.2l-.5-.2-.1.2.2-.2.5.2c-.1.1-.2.2-.3.2-.1 0-.2-.1-.2-.1l-.2-.1z"/><path fill="#202220" d="M38.5 29s.1.2.4.2c.3 0 .5-.2.5-.2l-.4-.3-.5.3z"/><path fill="#4C423A" d="M38.5 29s.1.2.4.2c.3 0 .5-.2.5-.2l-.4-.4-.5.4.4-.4.4.3s-.2.2-.5.2c0 .1-.1 0-.3-.1.1.1.1 0 0 0zm.1 0s.1.1.3.1h.3l-.2.1h-.2l-.2-.2z"/><path fill="#202220" d="M38.9 28.8s.1.3.4.3c.3 0 .3-.2.3-.2l-.3-.4-.4.3z"/><path fill="#4C423A" d="M38.9 28.8s0 .1.1.1c.1.1.1.1.3.1.1 0 .2-.1.2-.1v-.1l-.3-.4-.3.4.3-.3.3.4s0 .1-.2.2c-.1 0-.2-.1-.2-.1-.2-.1-.2-.1-.2-.2zm0 .1s.2.2.3.2c.1 0 .2-.1.2-.1H39l-.1-.1zm-.5.3s.1.1.2.1l.3-.1-.1.1h-.2l-.2-.1z"/><path fill="#F9C93D" stroke="#987D2E" stroke-width=".039" d="M39.6 28.3c.1 0 .4.3.4.5s-.1.4-.2.4-.4-.2-.4-.4c-.1-.1-.1-.2-.1-.3-.1 0 .3-.2.3-.2zm-1.2 0s-.2-.1-.3-.1c-.1.1-.1.3 0 .4.1.1.3-.1.3-.1v-.2zm0 .2s-.3 0-.3.1l.1.3.3-.1-.1-.3zm.1.2s-.3.1-.3.2.1.3.2.3l.2-.2c0-.1-.1-.3-.1-.3zm.1-.7s-.1-.1-.2 0c-.1 0-.2.2-.2.3 0 .2.1.3.1.3l.4-.1-.1-.5zm0 .3s-.3.1-.3.2.1.3.2.3l.4-.2-.3-.3zm.3.5s-.3.2-.4.2c0 0-.2-.2-.1-.3 0-.1.2-.2.3-.2.1 0 .2.3.2.3zm.3-1.2s-.1-.1-.3-.1c-.2 0-.3.3-.4.4 0 .1 0 .4.1.4l.5-.3.1-.4zm-.4 1c-.1 0-.3-.2-.2-.3 0-.1.3-.3.4-.3.1 0 .1.4.1.4s-.2.2-.3.2zm.4 0s-.1.2-.2.2c-.1.1-.2 0-.3-.1-.1-.1 0-.2.1-.2.1-.1.2-.1.2-.1l.2.2zm-.2-.4s-.2.1-.1.3c.1.1.2.2.3.2.1 0 .2 0 .3-.1.1-.1.2-.2.2-.3l-.1-.3c-.1-.1-.4 0-.6.2z"/><path fill="#202220" d="M39.4 27.5s-.2-.1-.3 0c-.1.1-.2.2-.2.4v.3s.2 0 .3-.1c.1-.1.1-.1.1-.2 0 0-.1-.1-.1-.2.1-.2.2-.2.2-.2z"/><path fill="#4C423A" d="M39.4 27.5h-.3c-.1.1-.2.1-.2.3v.2-.2c0-.1.1-.2.2-.3h.3z"/><path fill="#F9C93D" stroke="#987D2E" stroke-width=".039" d="M44.2 31s.1-.1.2-.1c.1-.1.3-.2.3-.2l.1.3-.3.2h-.2l-.1-.1V31zm-.4.1h.4l.1.2-.1.1H44l-.2-.1v-.2zm1.8-.1s0-.1-.1-.2l-.3-.3v.7h.3l.1-.2zm-1.8.1s0-.1-.2-.1c-.1 0-.3.1-.3.2s0 .4.1.4c.1.1.2.1.3 0 .2 0 .9-.5.9-.5h-.4s-.1.1-.2.1l-.2-.1zm.6.2s-.1 0-.2.1l-.2.1.1.2.3.1.2-.2v-.2l-.2-.1zm1.5-.1s-.1 0-.1-.1c-.1-.1-.2-.1-.2-.1l-.2.2v.2l.2.1h.1l.2-.1v-.2zm-1.1-.2s-.1.1-.2.1c-.1.1-.2.1-.2.2l.2.2h.2l.4-.3V31h-.4zm1.4.3s0-.1-.1-.1c-.1-.1-.1-.1-.2-.1l-.2.2v.1l.1.2.2.1.2-.2v-.2z"/><path fill="#F9C93D" stroke="#987D2E" stroke-width=".039" stroke-linecap="round" stroke-linejoin="round" d="M45.6 31.6h.2v.1h.1s0 .2.2.3c0 0 .2.1.3 0 .1-.1.1 0 .1 0l.3-.4s0-.1-.1-.1c0 0 .1-.2-.1-.3h-.3s-.1.3-.2.2c0 0-.1 0-.1-.1l-.1-.1h-.1c-.1 0-.1-.2-.1-.2s-.1 0-.1-.1l-.1-.1-.5.4s0 .1-.2.2l-.3.1s0 .2-.2.2l-.3-.2s-.1 0-.2.1-.1.1-.1.3c0 .1.1.3.1.3.1.1.2.2.4.1l.1-.3.1-.1c.1-.1.3-.2.4-.2"/><path fill="#F9C93D" stroke="#987D2E" stroke-width=".039" d="M45.2 30.1v.5s.1.4 0 .5c-.1.1-.4.1-.5 0v-.5l.5-.5z"/><path fill="#F9C93D" stroke="#987D2E" stroke-width=".039" stroke-linecap="round" stroke-linejoin="round" d="M44.9 31.6s-.1.1.1.1h.1c.1-.1 0-.1 0-.1s0 .2.2.2l.2-.2"/><path fill="#202220" d="M43.1 31.9s-.1-.2 0-.3c.1-.1.2 0 .3 0 .1 0 .1-.2 0-.3 0 0-.1-.1-.1-.2 0 0-.5 0-.5.3.1.5.3.5.3.5zm.7.8s-.2-.2-.1-.3c.1-.1.1-.1.2-.1 0 0 .1-.1 0-.2l-.2-.2c-.1 0-.3.2-.3.5.1.2.4.3.4.3zm2.7-.3s.5.2.5-.3c0-.3-.2-.5-.3-.5-.1 0-.1 0-.2.1s-.2.2-.1.2c0 0 .2 0 .3.1.1.4-.2.4-.2.4z"/><path fill="#4C423A" d="M43.8 32.7s-.4-.1-.4-.5c0-.3.3-.4.3-.4s-.3.1-.3.4c0 .4.4.5.4.5zm-.7-.8s-.2-.1-.3-.4c0-.3.5-.3.5-.3s-.5 0-.5.3c.1.4.3.4.3.4zm3.4.5h.2c.1 0 .3 0 .3-.2s0-.3-.1-.5c-.1-.1-.2-.1-.2-.1s.1 0 .2.1.2.2.1.5c-.1.2-.3.2-.4.2 0 .1-.1 0-.1 0z"/><path fill="#914821" d="M40.4 21.6v-.2l.3-.1h.6l.1.1.1.3-.6.3h-.1v-.1l-.1-.2-.3-.1z"/><path fill="#202020" d="M45.4 29.4v-.8l-2.2.7.8.7 1.4-.6z"/><path fill="#D3A668" d="m41.4 28-.2-.1s-.1-.1-.2-.1h-.2v.1l.2.2.3.2.1.1h.1l-.1-.4zm-.1.3h.1l.1.1.1.2.1.2v.1l-.2-.1-.7-.2.1-.2.1-.1h.3zm.5.6h.1l.1-.1v-1.1l-.6-.7-.1.4.2.7.1.4.2.4z"/><path fill="#AB6E29" d="M41.4 27.3v.3c0 .2.1.7.3 1.1l-.2-.3s-.3-.7-.3-1.2c.1-.5.2.1.2.1zm.4.5s-.1.2-.1.3v.3s0-.2.1-.2.1.3.1.4l.1-.7-.2-.1zm.1 1.4-.7-.2c-.3-.1-.5-.3-.5-.3 0-.1.6 0 .7 0 .1 0 .3.2.3.2h.1l.3-.1v.3l-.2.1zm-1.1-.1s.2.1.1.2c-.1 0-.3.1-.3 0-.1 0 .6.2.6.2l.1-.1c0-.1-.5-.3-.5-.3z"/><path fill="#D3A668" d="M40.6 28.9s0 .1.3.1h.3l.1.1h.1l-.1.2-.4-.1-.3-.3z"/><path fill="#AB6E29" d="m42.1 28.6.1.2.1-.4V28l-.3-.1.1.7z"/><path fill="#4D2B18" d="m41.4 28-.2-.3-.2-.5.2-.3.2.3s-.1.2 0 .4c-.1.2 0 .4 0 .4z"/><path fill="#D3A668" d="M40.1 29.2s.1-.1.3-.2h.3l.4.2.1.1-.7-.1h-.4z"/><path fill="#904720" d="M42 27.8v.6c0 .1.1.3.1.3 0 .1 0 .1-.1.1h-.3s.2 0 .2-.1c0 0-.1-.2-.1-.4V28l-.1.1s.1-.5.1-.6c.1 0 .2.3.2.3z"/><path fill="#AB6E29" d="m40.7 29-.1-.1s.1.2.5.2h.6s0 .2-.1.2l-.3.2-.1.1v-.3l-.5-.3z"/><path fill="#904720" d="M41.4 28s-.5-.5-.6-.8c-.2-.3-.1-.8-.1-.8l.4.6s-.1.1 0 .3c0 .2.3.7.3.7z"/><path fill="#AB6E29" d="M41.1 29.8s0-.1.1-.3c.3-.3 1-.6 1-.6v.4l-.9.4-.2.1z"/><path fill="#904720" d="M41.2 29.4s.2-.1.2-.2-.1-.1-.3-.1c-.2 0-.4-.1-.4-.1s.3.2.4.2c.1 0 .1.1.1.1-.1.1 0 .2 0 .1zm1.2.1s-.1-.2-.2-.3c0-.1 0-.3-.1-.3l-.1.1c-.1 0-.3.1-.3.1s.3 0 .3.1l-.4.2s.3-.1.3 0l-.4.2s-.3.1-.3.2c-.1 0-.1.1-.1.1h.2c.1 0 .4-.1.4-.1l.7-.3z"/><path fill="#AB6E29" d="M42.4 29.5s-.2-.1-.3-.7c-.1-.6-.1-.8-.1-.8l.3.2.2.4-.1.9z"/><path fill="#904720" d="M42.5 28.5s-.1.4-.1.6v.5l.3.3.1-.1V29l-.3-.5z"/><path fill="#202020" d="M42.8 29s.1.9-.2.9c-.1 0-.3-.3-.3-.4 0 0 .2.3.3.3.2 0 .2-.9.2-.8zm-.4.5-.1-.1c-.1-.1 0 .1-.5.3-.5.2-.7.1-.7.1s.2.1.7 0c.5-.2.4-.2.6-.3z"/><path fill="#AB6E29" d="m41.5 28.4.2.2c.1.2.2.3.2.3s-.1-.2-.1-.3c-.1-.1-.3-.5-.3-.5v.3z"/><path fill="#904720" d="M41.2 29.5s.1-.2 0-.2h-.4c-.3 0-.6-.1-.6-.1l.4.2c.2.1.5.1.5.1h.1z"/><path fill="#202020" d="M41.2 29.5c-.1-.1-.1-.1-.5-.2l-.5-.2s.1.1.5.2c.3.2.5.2.5.2z"/><path fill="#AB6E29" d="M41.3 28.3s-.3 0-.4.1c-.1.1-.2.3-.2.3h.2s0-.2.1-.3c.1-.1.2-.1.3-.1z"/><path fill="#904720" d="M40.8 27.7s.1.2.3.2c.1.1.3.1.3.2.1.1.1.3.1.3s-.4-.2-.5-.3c-.1-.1-.2-.4-.2-.4zm.4.1s0-.1-.2-.1c-.1-.1-.2 0-.2 0l.2.2h.1l-.2-.2c.1-.1.3.1.3.1z"/><path fill="#202020" d="m42.4 27.3 2.5-1.3 1.2 1.6-2.1.6-1.1.1-.5-.4v-.6z"/><path fill="#4D2B18" d="m45.7 28 3.1 2.7-.3.2-.7-.2-1.5-1.5-.6-.6V28zm3.9 2.1s-.8-.6-1.8-1.3c-1-.7-2.2-1.7-2.2-1.7l.1.8 2.5 2.3.8.4.4-.1.2-.2v-.2z"/><path fill="#81401E" d="M45.7 28.2s.9 1 1.6 1.5c.7.5 1.3 1.1 1.5 1 .1-.1.1-.2.1-.2L45.7 28v.2z"/><path fill="#4D2B18" d="m47.9 30.8-.4.2-.4-.1-1.9-1.9.1-.4h.3l2.3 2.2z"/><path fill="#202020" d="M49.6 30.1s-.2.5-.7.4c-.5-.1-3.2-2.7-3.2-2.7v.3s2.8 2.5 3.3 2.6c.5.1 1-.4.9-.4-.1 0-.3-.2-.3-.2z"/><path fill="#81401E" d="M45.4 28.6s.9 1.1 1.3 1.5c.5.4.9.7 1.1.7.2 0-.1-.3-.1-.3l-1.3-1.3-.7-.7-.3.1z"/><path fill="#202020" d="M45.6 28.6s2.2 2.3 2.4 2.3c.4.1.9-.3.9-.3l-.2-.1v.1s-.1.2-.6.1-2.4-2.2-2.5-2.1z"/><path fill="#4D2B18" d="m46.4 30.8-.8-.9-.2-.3v-.4l1.6 1.6-.2.2-.2-.1-.2-.1z"/><path fill="#202020" d="M47.9 30.8s-.2.3-.5.2c-.2 0-.4-.2-.4-.2l-1.6-1.5v-.2s1.7 1.8 2 1.9c.2.1.4-.2.4-.2h.1zm-.9 0s-.1.2-.3.2c-.2 0-.3-.1-.3-.1l-.9-1.1v-.3s1 1.4 1.2 1.4c.2 0 .3-.2.3-.1z"/><path fill="#B0732A" d="M46 27.8s.9.8 1 .8c.1 0 .4 0 .4.1h-.2s.5.4.5.5c.1 0 .5 0 .5.1 0 0-.3 0-.3.1s.4.4.5.4c.1 0 .6 0 .6.1 0 0-.4 0-.4.1s.7.5.6.6c0 .1-.8-.5-.8-.5s0 .2-.1.2v-.4c0-.1-.5-.5-.5-.4 0 0 0 .2-.1.2v-.3c0-.1-.5-.4-.5-.4l-.1.2s0-.2-.1-.3c0-.2-1-1-1-1.1z"/><path fill="#4D2B18" d="M44.4 30.4s0 .3-.1.4c-.2.1-.5-.6-.5-.6l-.1-.6.5.4.2.4zm1.3-.2v-.8l-.1-.2-.1-.2h-.1l-.2.2-.2.3.1.4.1.4.2.1.3-.2zm-.3.6c.1 0-.1-.5-.1-.5l-.3-.7v-.2l-.2-.1-.2.2v.3s.2.5.3.6c.1.1.4.4.5.4z"/><path fill="#202020" d="M45.1 29.3c.1.1.2.2.2.4 0 0 .2.5.2.6 0 .1-.1.1-.1.1s.3.3.3.2c.1 0 0-.3 0-.3l-.1-.1c0-.1-.1-.4-.1-.6v-.4c0-.1.2.4.2.7l.1.1s-.1-.4-.1-.5c0-.1-.1-.3-.1-.3v-.3l.1.1s.1-.1.1-.3v-.9l-1 1.3.3.2zm0-.1s0 .3.1.7c.1.4.2.4.2.4v.5s-.3-.6-.3-1c-.1-.3-.1-.4-.2-.5h-.1l.3-.1z"/><path fill="#4D2B18" d="M45 31.1v-.4l-.3-.7-.4-.3-.2-.3v.6s.3.6.5.8c.1-.1.4.3.4.3z"/><path fill="#202020" d="M43.6 29.5s.1.2.1.3v.2s.1.3.3.5c.1.2.2.5.4.4.1-.1.1-.2.2-.2 0 0-.1.2-.2.2s-.3-.9-.3-1l-.1-.1-.4-.3zm1 .7s-.2-.3-.3-.5c-.1-.1-.2-.3-.2-.3l-.1-.3s.1.2.2.3c.1.1.2.1.3.1v.3l.1.4z"/><path fill="#5D3B1E" d="m44 29.8.2.4c.1.2.3.4.3.4l-.4-.4c0-.2-.1-.4-.1-.4z"/><path fill="#202020" d="m44.7 29.5.1-.2h.2s-.1 0-.2-.1l-.2-.2s.1.2.1.3v.2zm-.1.1.4.8c.1.2.1.5.1.5s0-.2-.1-.4l-.3-.7c-.1-.1-.1-.2-.1-.2z"/><path fill="#4D2B18" d="m45 29.2.1-.9-.1-.3-.4-.9s0 .1-.1.1-.4-.1-.5-.3c0 0 .1.2 0 .4 0 .2-.1.3-.1.3l.8 1.4.3.2z"/><path fill="#8C451F" d="M43.5 29.8s.1.1.2.1v-.4c-.1-.2-1-1.4-1.2-1.5-.2-.1 1 1.8 1 1.8z"/><path fill="#8C451F" stroke="#5D3B1E" stroke-width=".008" d="M44.1 29.3c0 .1.1.5-.1.5-.2.1-1.3-1.4-1.4-1.6 0 0-.6-.4-.7-.5 0-.1.7.1.7.1l1.4 1.3s.1.1.1.2z"/><path fill="#202020" d="M43.5 29.8s-.1-.2-.1-.3l-.1-.3s-.8-1.1-.8-1.2c-.1-.1-.3-.2-.3-.2v.4s.2.5.6.8c.3.3.7.8.7.8z"/><path fill="#4D2B18" d="M44.6 29.6c.1-.1.1-.4 0-.5 0-.1-.7-1.4-.7-1.4l-.2.1-.3-.3-.2-.2s.1.3.1.5v.2l.5.9.8.7zm.7-.8.1-.2V28l-.4-1.4h-.2l-.2-.2.1.8.4 1.2v.3l.2.1z"/><path fill="#202020" d="M44 29.1s-.4-.4-.5-.7l-.2-.4H43l-.3-.3s-.1.2.5.8c.6.8.8.6.8.6z"/><path fill="#8C451F" d="M45 29.3c.2-.1.2-.8 0-1.3l-.4-.9s.3.8.4 1.1c.1.3 0 .5-.1.5s-.1-.2-.2-.5l-.2-.4s.5 1.3.3 1.3c-.1 0-.8-1.4-.8-1.5v.1s.6 1.8 1 1.6z"/><path fill="#4D2B18" d="m45.4 25.8.3.6.1.6v.5s0 1.1-.1 1.1l-.2-.1-.2-1.2-.3-1.1.1-.1v-.2l.3-.1z"/><path fill="#8C451F" d="M44.6 29.6c.1 0 0-.3 0-.3s-.1.1-.2 0l-.2-.5-.1-.2s-.1.2-.2.2l-.7-.9-.1.1c.2.1.9 1.7 1.5 1.6z"/><path fill="#202020" d="M44.2 28.9s.1-.2.1-.4l-.3-.7h-.2c-.1 0-.3-.2-.3-.2s.2.4.3.7c.1.2.4.6.4.6zm.5-.3s-.1-.5-.3-1c-.2-.5-.4-.6-.4-.6v.5s.2.1.4.4c.2.2.3.7.3.7zm.6-.9s0-.5-.1-.8c-.1-.3-.2-.7-.2-.7v-.1h.1c.1 0 .2.3.2.3v-.6h-.2v.2s-.1 0-.1-.1v.1s0 .2.1.3v.2s.1.3.2.5c-.1.3 0 .7 0 .7zm.5-.1s.1-.8-.1-1.3l-.3-.6-.1.1s.3.4.3.8l.2 1zm-.8.4s-.1-.6-.2-1l-.1-.5-.2-.2s.1.4.1.5v.2l.2.4c.1.2.2.6.2.6z"/><path fill="#914821" d="M45.4 29c.2 0 0-.9 0-1.1-.1-.2-.4-1.3-.4-1.3s.4 1.5.4 1.6l-.3-.4s.3 1 .2 1c-.1 0-.2-.2-.2-.2v.2s.1.2.3.2zm.2-.5c.1 0 0-.8-.1-1.2-.1-.4-.3-1.1-.3-1.1s.2.5.3 1.1c.1.6.2 1.3.1 1.3l-.2-.1v-.1l.2.1z"/><path fill="#312317" d="M44.2 29.5c0 .1 0 .3-.1.3-.2 0-.4-.3-.5-.4 0 0 .3.4.4.4.1 0 .1-.4.1-.5 0-.1.1.2.1.2z"/><path fill="#D3A668" d="M45 25.6s.2.1.4 0 .3-.3.3-.4c0-.1 0-.2-.1-.4-.1-.1.2.1.1.3 0 .2 0 .6-.4.7-.4.1-.2 0-.2 0l-.1-.2z"/><path fill="#904720" d="M44.7 24.9s.2.4.3.7c.1.3.1.5 0 .5s-.1 0-.1-.1l-.2-1.1z"/><path fill="#1F2121" d="m40.6 25.3 1.5 2.2 1.9-2.2-1.2-1.3-2.2 1.3z"/><path fill="#4D2B18" d="m42.5 24-.1.4.2.6.3.3.4.2.1-.3.1-.3h.1l.2.1.2-.2.3-.5-.1-.2-.1-.1-.4-.7-.1.3-.1.1-.2-.1-.3.2-.3-.2-.2.4z"/><path fill="#5D391A" d="M43.3 25.5s.1 0 .1-.2v-.9c0-.2-.2-.6-.2-.6s.2.5.2 1 0 .6-.1.7zm.1-.9s.3.4.4.2c.1-.1.1-.6 0-.8l-.2-.4.1-.1s.1.3.1.5.2.8 0 .9c-.1.1-.4-.2-.4-.3z"/><path fill="#904720" d="M42.6 24.8s.1-.1.2-.1h.1l.1.3.2.3.2.2-.1.1h-.1l-.4-.2-.1-.1-.1-.5z"/><path fill="#D3A668" d="M43.2 28c-.1.1-.4-.1-.6-.2-.2-.1-1-1-1-1l-.1-.5.3.1.6-.2.1-.2.7-.4.4-.2h.8l.2-.4s.3.5.3.7v.8l-.4-.2s.2.8 0 .9c-.2 0-.5-.3-.5-.3s.1.8 0 .8c-.2 0-.6-.2-.7-.4-.1 0 .1.6-.1.7z"/><path fill="#904720" d="M43.1 27s.1.2.2.3v.5c-.1.1-.2-.2-.3-.4 0 0-.3-.5-.3-.6l.4.2zm1.5-1.8s.3 1.2.1 1.2l-.6-.4c0-.1-.6-.9-.6-.9l-.1-.1v-.1l.2.1 1 .2zm-2 2.2c-.1 0-.2-.2-.2-.2-.1-.1-.2-.3-.4-.5s-.3-.3-.3-.4l-.1-.2.1-.1h.1s.8.6.8.7v.7zm1.2 0s-.6-.3-.8-.7c-.2-.3-.4-.6-.5-.7-.1-.1-.1-.3-.1-.3h.2c0 .1 1.2 1.7 1.2 1.7zm.2-.5s-.3-.1-.4-.3c-.1-.2-.1-.4-.1-.4l.5.7zm.3-.1c-.1 0-.4-.3-.6-.7-.2-.3-.2-.3-.3-.4-.1 0-.2-.1-.2-.1h.1l.1-.1.2-.2.6 1.2.1.3z"/><path fill="#AB6E29" d="M42.7 27.8s0 .1-.2.1-1-.5-1.4-1.1c-.4-.6-.4-.7-.4-.7l.2-.2 1.4 1.6.4.3z"/><path fill="#904720" d="M42.7 27.8c0 .1-.1.1-.2.1s-.4-.1-1-.8c-.6-.6-.8-1.1-.8-1.1v-.3l.2-.1 1 1.5.8.7z"/><path fill="#4D2B18" d="M43.6 27.2s-.3-.2-.5-.4-.6-.7-.6-.8c0-.1.2-.1.2-.1v-.4l.3.1.3.4.1.2s.2.5.2.6l-.4-.3c.1 0 .5.6.4.7zm-.5-.2s.1.1.1.2-.1.2-.2-.1c-.1-.2-.3-.4-.3-.4s0 .3-.1.3-.3-.3-.4-.5c-.1-.2-.4-.6-.4-.6v-.7.1c0 .1.1.1.1.1l.5.6.1-.1.3.6.3.5zm-2-.9s.4.7.8 1.1c.4.4.8.6.8.6l-1.2-1.4-.4-.3zm3.1.5s-.3-.3-.4-.5c-.2-.2-.3-.6-.3-.7 0-.1.1-.5.1-.5s.4.4.5.6c.1.2.3.5.2.5 0 0-.3-.2-.4-.1 0 0 .3.6.3.7zm.4-.5c-.1 0-.3-.2-.3-.4-.1-.2-.1-.5-.1-.5l-.2-.4v-.5h.2l.3.4s.1.2.1.6c0 .3.1.8 0 .8zm-3.2 1.2c-.4-.5-.6-.9-.6-.9l-.2-.4.1.1s.1.5.7 1c.6.6.7.6.7.6s.1.3.1.4c0 0-.5-.3-.8-.8z"/><path fill="#202020" d="M42 28s-.5-.4-.9-.9l-.6-1 .2-.2s.3.8.6 1.1c.1.3.7 1 .7 1zm.7-.2-.9-.9c-.3-.3-.5-.6-.5-.6l.2.1s.1.2.3.5c.3.2.9.9.9.9zm-.1-1s-.3-.4-.5-.6c-.1-.2-.3-.5-.3-.5s.4.5.5.5h.1s-.1.2 0 .3c.1.1.2.3.2.3zm.1-1.5s.1.3 0 .4c0 .2-.1.2-.1.2l.3.3.3.3s-.2-.3-.3-.5c-.1-.1-.2-.3-.1-.4 0-.1.3.1.4.2l.4.4s-.1-.4-.3-.5c-.2-.2-.6-.4-.6-.4zm1.2.8-.3-.6c-.1-.2-.2-.8-.2-.8v.4c0 .2-.1.4-.1.5h-.2c-.1 0 .1.1.1.1s.1 0 .2-.1l.1-.2c.1 0 .1.2.2.3.1.1.2.4.2.4zm-.4-1.4s.3.3.4.2c.1-.2.1-.6.1-.6s.2.1.2 0c.1 0 0-.2 0-.2s.3.5.5.8c.2.3.2.8.2.8s-.3-.4-.4-.8c-.1-.4-.3-.5-.3-.5s-.1.3 0 .4c0 .1.2.3.2.5.1.2.2.5.2.5s-.2-.2-.2-.4l-.2-.2c-.2-.1-.3-.2-.4-.2-.1 0-.3-.1-.3-.1v-.2z"/><path fill="#181818" d="M42.4 26.1s.2.3.3.5c.1.2.3.4.3.4l-.4-.4c-.1-.1-.2-.5-.2-.5z"/><path fill="#904720" d="M44.4 26.2h-.2c0 .1.1.2.2.4.1.1.1.1.2.1v-.5h-.2z"/><path fill="#D3A668" d="m40.9 24.1-.2.1-.2.4.1.8s.2.3.3.4c.1.2.5.6.6.6.1 0 .2-.3.2-.5v-.5s.1.2.3.3c.2.2.3.3.4.3.1 0 .3-.5.3-.5 0-.1-.6-1.5-.6-1.5h-.3l-.9.1z"/><path fill="#AB6E29" d="M42.2 25.3s.1.4.2.5c.1.2 0 .3 0 .3s.3-.4.3-.6c0-.2 0-.4-.1-.9-.1-.6 0-.7 0-.7l-.2-.1-.3.6.1.9zm-1.1-.4s.1.5.1.7c0 .2.1.5.2.5s.2-.5.2-.6c0 0-.1-.2-.1-.8 0-.6-.1-.6-.1-.6l-.3.8z"/><path fill="#463A2E" d="M40.4 23.8s-.5.7-.4 1c0 .4.1.3.2.6s.2.8.2.9c0 0 .1 0 .1-.1-.2 0-.1-2.4-.1-2.4z"/><path fill="#AB6E29" d="M40.4 23.9s-.4.6-.4 1c0 .3.1.3.2.6l.1.8s.1 0 .3-.1l.3-.3s0-.1-.1-.3c-.1-.2-.1-.3-.1-.3l-.1-.2v-.6l.1-.4v-.2h-.3z"/><path fill="#DCAE6C" d="M42.5 25s-.2 0-.3-.1c-.1 0-.1-.2-.1-.2v-.1l.4.4z"/><path fill="#D3A668" d="M40.4 24s-.3.6-.3 1l.3 1v-1.4l.1-.4V24h-.1z"/><path fill="#904720" d="M41.1 24.1v.3l-.2.3c-.1.1-.2.4-.2.4s.1-.2.2-.3c.1-.1.1-.2.2-.1 0 .1.1.3 0 .3 0 0-.1.1-.1.3-.1.2 0 .3 0 .3s0-.2.1-.3c0-.1.1-.1.1-.1l.2.3v-.3c0-.1.2-.3.2-.3s.1 0-.1-.1c-.1 0 0-.6 0-.6s.3 0 .2-.1c0-.1-.2-.3-.2-.3l-.4.3z"/><path fill="#DCAE6C" d="M42.5 25.4h-.2c-.1 0-.1-.1-.1-.1v-.1l.2.1.1.1z"/><path fill="#904720" d="m40.6 25.4-.1.2c0 .1-.1.2-.1.2s0-.3-.1-.5c0-.2 0-.3-.1-.3l-.1.1v-.3c0-.1.1-.3 0-.3 0 0-.1 0-.2.1 0 .1-.1.2-.1.2s0-.2.1-.3l.3-.4v-.2h.1s.2.1.2.2-.1.1-.2.1c0 0-.1 0-.2.5.4.6.6.5.5.7zm1.4-1.2v.4l-.2.3c-.1.1-.1.4-.1.4s0-.1.1-.2c0-.1.1-.1.1-.1s.1.1.1.2l.1.4v-.2h.1c.1 0 .1.1.1.1s0-.1-.1-.2l-.2-.2v-.3c0-.1.1 0 .1.1l.2.2-.1-.1v-.7c.1 0 .1-.2 0-.3.3-.2-.2.2-.2.2z"/><path fill="#1F2121" d="M43.6 23.6s0 .3.1.5c0 .2.2.6.2.6s-.2-.3-.2-.5c-.1-.2-.1-.5-.2-.5s-.1.1-.1.2.1.5.2.6c.1.1-.1-.2-.2-.3-.1-.2-.1-.3-.1-.3s-.1.1 0 .3c0 .2.2.4.2.4l-.1-.1c-.4-.2-.4-.3-.4-.3s0 .2.1.3l.2.2-.2-.2H43s0 .3.1.5l.2.4s-.2-.1-.3-.4c-.1-.3-.2-1.1-.1-1.2 0 0 .1-.2.2-.3.1-.1.2-.7.2-.7s.1.5.2.6c0 .2.1.2.1.2zm-1.3-.1s.1.1.1.2l.1.1-.3.3c-.2.1-.4.3-.5.2-.1-.1 0-.1 0-.1s.2-.1.3-.3c.2-.2.2-.2.2-.3l.1-.1zm-1.6.5s0 .3.2.3l.6-.4s.1-.1.1-.2v-.1s-.4.4-.6.5c-.2 0-.3-.1-.3-.1zm.1-.5s-.1.2 0 .3v.1s-.3.1-.4 0c-.1-.1 0-.2 0-.2h.2c.1 0 .2-.2.2-.2zm2.9-.4s.1.3.2.5c.1.1.2.4.2.4l-.3-.3c-.1-.1-.2-.1-.2-.1v-.2c.1-.1.1-.3.1-.3z"/><path fill="#DCAE6C" d="M40.3 23.7h.3l.1-.2s-.1.2 0 .4c0 .2.1.2.2.2 0 0 .2 0 .3-.2l.3-.3v.4c.1.2.2.2.3.1l.4-.4.1-.2.2-.1.1-.8-.1-.1-.2.1-.2-.1-.1-.1-.1.2-.1.1h-.3l-.1-.2v-.1h-.1l-.3.4h-.2l-.2.3-.1.2-.2.4z"/><path fill="#904720" d="M42 22.9s0 .2-.1.5l-.2.6s.4-.2.5-.6c.2-.4.1-.8.1-.8l-.3.3zm.5-.3v.4c0 .3-.1.6-.1.6s0 .1.1.2c0 .1.2.3.3.2.1 0 .2-.1.3-.3l.2-.4h.1s0 .2.1.3l.2.2c.1 0 .1-.1.1-.2l-.2-.6-.2-.6-.2-.4h-.4l-.3.6z"/><path fill="#AB6E29" d="M43.2 22s.1.3.1.5c0 .3-.1.6-.1.6v-.5c0-.2-.1-.3-.1-.4 0-.1.1-.2.1-.2z"/><path fill="#4D2B18" d="M43.7 23.1v.3c0 .1-.2-.1-.3-.4-.1-.4-.1-.4-.2-.6-.1-.2-.1-.3-.1-.3h.2l.4 1zm-1 .7s.4-.2.4-.9c0-.3-.2-.8-.2-.8s0 .5-.1.9l-.3.6s.1 0 .1-.1l.1-.2v.2c.1.1 0 .3 0 .3zm-.3-1.2s0 .1-.2.3c-.2.1-.5.3-.5.3s.2-.2.3-.4c.1-.2 0-.3 0-.3s0 .1-.1.2l-.2.1s0-.1.1-.2v-.1c0-.1.2-.3.2-.3s.1.2.2.3c.1 0 .2.1.2.1z"/><path fill="#1F2121" d="M43.6 21.8s.1.2.1.6v.7s-.2-.3-.3-.4c-.1-.1-.1-.3-.1-.4 0-.1-.1-.1-.2-.2H43s.1-.1.1-.2v-.2s.1 0 .2.1h.3zm-.9 1.4s.2-.3.3-.7c.1-.4 0-.5 0-.5s-.1 0-.2-.1l-.2-.3v.4c0 .2-.3.5-.3.5h.2c.2-.1.2-.4.2-.4v.3c.1.4 0 .8 0 .8z"/><path fill="#904720" d="M40.2 23.7s.1-.3.3-.5c.1-.2.3-.5.3-.5h.1c.1 0 .3-.1.4-.2.1-.1.1-.3.1-.4 0 0 0 .3.1.4.1.2.1.2.2.1 0 0 0 .2-.1.4l-.1.5V23c-.1-.1-.1 0-.1.1l-.2.2s.1-.2.1-.3c.1-.2 0-.2 0-.2l-.1.1-.1.1.1-.1.1-.3.1-.1v-.1s-.1 0-.2.2c-.2.2-.2.2-.2.3 0 0 0 .1-.1.4-.1.3-.1.4-.2.4l-.1.1s0-.2.1-.3c.1-.2.2-.5.1-.5h-.1s-.2.2-.3.4c-.1.2-.1.5-.2.5.1-.2 0-.2 0-.2z"/><path fill="#885021" d="M43.7 21.6s0 .2-.1.2c-.1.1-.3 0-.3 0v-.2h.4z"/><path fill="#B2722A" d="M40.9 22s0 .1-.1.3c-.1.2-.2.3-.2.3s.1.1.2.1c.1.1.1-.6.1-.7z"/><path fill="#DCAE6C" d="M42.7 21.7s-.1.9-.3.9c-.3 0-.4-.5-.4-.5s0 .6-.4.6c-.2 0-.3-.5-.3-.6 0 0-.1.3-.2.5-.3.2-.5.1-.5.1s.3-.3.3-.7l.1-.1c.1-.1.1-.2.2-.2l.5-.2.2-.3s0 .1.2 0l.2-.2.4.3v.4z"/><path fill="#B2722A" d="M41.7 20.8s.2.4.4.6l.1-.1c.1.1.1.1.1.2-.1.1-.2.3-.1.5v-.3c.1-.1.1-.2.1-.2l.1.9c.1 0 .1-.4.1-.7 0-.3.1 0 .1 0 0 .1.3.4.5.4.2-.1.2-.4.2-.5 0-.1-.1-.5-.1-.5l-.9-.6s0 .1-.1.2c-.1.2-.5.1-.5.1z"/><path fill="#904720" d="M42.9 20.7s.1 0 .1.3c.1.2.1.9 0 .9s-.3-.1-.4-.2c0-.1 0-.5-.1-.5-.1-.1-.2-.3-.2-.4v-.3l.2-.1.4.3z"/><path fill="#4D2B18" d="m42.9 20.5.4.6.3.5.2.1s-.2.2-.5.1c-.1-.1-.1-.3-.2-.7-.2-.4-.5-.5-.5-.5l.1-.1h.2z"/><path fill="#1F2121" d="M42.7 20.1s.3.2.5.5l.3.6c.1.2.3.3.3.3h-.2l-.2-.2-.4-.6-.3-.3s.1.1.2.3l.2.4s0-.1-.2-.3c-.1-.2-.4-.5-.4-.4 0 0 .1.3.2.4.1.1.2.5.2.5s-.1-.2-.3-.4c-.2-.2-.2-.2-.2-.3-.1-.1-.2-.3-.2-.3h.3c.1 0 .2-.2.2-.2z"/><path fill="#904720" d="M41.8 20.8s.2.1.3 0h.2s.1.1.1.2l-.1.3s0-.2-.1-.3c-.1 0-.4-.2-.4-.2z"/><path fill="#B2722A" d="M41.9 21.3s.1.2 0 .6c-.1.3-.2.7-.3.7 0 0 0-.4-.1-.6v-.1l-.1.2.1-.4v-.1l.2-.3h.2z"/><path fill="#904720" d="M41.5 21.6c-.1.1-.2.1-.3.1-.1 0-.1.2-.1.2s.1-.1.1 0c0 0 .1 0 0 .2l-.3.4s.3-.2.4-.4c.1-.1.1-.2.1-.3l.1-.2c.1.1.1.1.1.2l.1.4s.1-.3.1-.4v-.4h-.1c-.1 0-.2-.1-.2-.1s.1.2 0 .3z"/><path fill="#DCAE6C" d="M42.7 19.9s.1.2-.1.4l-.2.1c-.1 0-.3-.1-.3-.1l-.6-.2-.3-.1h-.1v-.2h.4l.5.2.2.1h.3l.2-.2z"/><path fill="#AB6E29" d="M42.7 19.9s0 .2-.1.2c0 0-.1.1-.3 0-.2 0-.3-.1-.5-.2s-.3-.1-.5-.1c-.1 0-.1-.1-.1-.1s.3 0 .6.1.4.2.6.2c.2 0 .3-.1.3-.1z"/><path fill="#4D2B18" d="M41.1 19.7h.2v.1s-.1 0-.2-.1z"/><path fill="#DCAE6C" d="M42.2 20.4s.2.2.1.4l-.3-.2-.6-.3H41v-.1l.1-.1V20l.4.1.4.1.3.2zm-.4.3s.4.5.3.6l-.8-.5-.3.5-.7-.3s.6-.4.6-.5l.1-.1.3.1.5.2z"/><path fill="#AB6E29" d="M41.6 20s.3.1.5.2l.4.1s-.1.1-.3.1c-.1 0-.2-.1-.3-.2-.1 0-.3-.1-.3-.2z"/><path fill="#4D2B18" d="M41.1 19.9s.2 0 .3.1c.1.1.1 0 .2 0s0 .1-.1.1-.1 0-.3-.1c-.1-.1-.2 0-.2 0l.1-.1z"/><path fill="#AB6E29" d="m42.3 20.7.1.1s-.1.1-.2.1h-.3c-.1 0-.1-.2-.4-.3-.2-.1-.3-.1-.4-.1h-.2l.1-.1.5.1.4.1.4.1zm-.9.3.1.4-.1.2-.1.1h-.1v-.1s.1-.1 0-.2l-.3-.2s.1-.2.2-.2l.1-.2.2.2z"/><path fill="#4D2B18" d="M41 20.2s.1.1.2.1.2 0 .3.1h.2l-.1.1.4.1c.2.1.3.2.3.2s-.1-.1-.3-.1c-.1-.1-.3-.1-.4-.1l-.6-.1.1-.1c-.1-.1-.1-.2-.1-.2z"/><path fill="#AB6E29" d="M42 21.2s.1.1 0 .1-.4 0-.5-.1c0 0 0-.1-.1-.2 0-.1-.2-.2-.3-.2-.1-.1 0-.1 0-.1s.4.1.5.2c.3.2.4.3.4.3z"/><path fill="#4D2B18" d="M42.1 21.2s-.2-.3-.7-.5h.2-.4l-.3-.1s-.1 0-.1.1c0 0-.1.2-.1.1 0 0 .2-.1.4 0 .2 0 .2.1.1.2 0 .1-.2.3-.2.3s.1-.2.3-.2c.1 0 .2.1.2.1v-.1s-.2-.2-.1-.2.2 0 .5.2c0 0 .1.1.2.1z"/><path fill="#DCAE6C" d="M41.2 20.8s.4.1.4.5-.3.4-.4.2c0-.2 0 .1.2.1.1 0 .2-.1.1-.3 0-.2 0-.2-.1-.3l-.2-.2z"/><path fill="#6D4019" d="m39.4 19.8-.1.3c-.1.3-.2.4-.4.6-.3.4-.5.4-.4.5 0 .2.2.1.2.1l.6-.9.1-.5v-.1z"/><path fill="#DCAE6C" d="M40.9 19.2s.2.3.1.7c-.1.5-.7.9-.7.9l-.9.6h-.5c-.1 0-.1-.1-.1-.1l-.1-.2.1-.2.3-.3.2-.3s.1-.2.1-.3v-.3l.1.1v.6l.2-.2.3-.1s.1 0 .2-.2.1-.4.1-.6V19l.1.2c0 .1.1.4.1.4l.1-.2s.1-.1.1-.2c.1.1.2 0 .2 0z"/><path fill="#914821" d="M41 21.6s.1.1 0 .2c0 .2-.2.3-.2.3v-.2l-.2-.2-.2-.1.3-.1.3.1z"/><path fill="#AB6E29" d="M40.8 21.6s.1.1.2 0c.1 0 .1-.2.1-.3l-.1.2-.2-.2c-.1 0-.2 0-.3.1 0 .1.1 0 .1 0l.2.2z"/><path fill="#914821" d="M39.5 20.9h.3c.1 0 .5-.2.5-.2s.1-.1.3-.2c.1-.1.5-.3.5-.8 0-.4-.1-.7-.1-.7s.5.6.1 1.2c-.3.4-.5.5-.5.5s.5-.1.5 0v.3s.3.1.3.2-.3-.1-.6 0l-.4.2s0-.1-.3-.1l-.5.1c-.1 0-.5-.1-.6-.2l.3-.3h.2z"/><path fill="#AB6E29" d="m40.5 19.8.3-.3c.1-.1.1-.3.1-.3s0 .2-.1.3c-.1.2-.3.3-.3.3z"/><path fill="#914821" d="M40.5 19.3s.2.6 0 .9c-.2.3-.9.6-.9.6s.6-.3.8-.7c.2-.4.2-.7.2-.7l-.1-.1z"/><path fill="#1F2121" d="M39.7 20.9s.2 0 .4-.1l.3-.3-.2.2c-.1 0-.1-.1-.1-.1s0 .1-.2.2c0 .1-.2.1-.2.1zm.6-.8s.2-.2.2-.7c0-.4-.2-.4-.2-.4s.1.1.1.4c0 .5-.1.7-.1.7zm.2.1s.2-.1.3-.2c.1-.1.1-.4.1-.4s0 .2-.1.3c0 .1-.3.3-.3.3zm-.1 1.4s.1-.2.3-.2c.2.1.2.2.2.2s-.1-.1-.2-.1c-.2 0-.3.1-.3.1zm-.4-.4s.3-.1.5-.1l.4-.2s-.2.2-.4.3c-.2.1-.5.1-.5.1s.5-.2.5-.3c.1.1-.4.2-.5.2z"/><path fill="#fff" d="M39.4 20.6c.2.1.2.4 0 .5-.1.1-.3.2-.5.1"/><path fill="#EF6F22" d="M39.4 20.7c.1.1.1.3 0 .5-.1.1-.3.1-.4.1"/><path fill="#010101" d="M39.3 20.9c.1 0 .1.1.1.2s-.1.1-.2.1c0 0-.1 0-.1-.1"/><path fill="#D6D4CB" d="M39.3 21.1z"/><path fill="#AB6E29" d="M39.5 20.4s.2-.2.3-.5c.1-.3 0-.5 0-.5l.1.1v.2l-.1.4.2-.1c.1-.1.2-.6.2-.9 0 0 .1.1 0 .6-.1.4-.2.5-.5.6-.2.1-.4.3-.6.6-.1.2-.3.4-.3.4s.2-.2.2-.4c.1-.3.3-.4.3-.4l.2-.1z"/><path fill="#914821" d="M39.4 20.6s.1-.3.1-.5l-.1-.3s.1 0 .2.3c0 .4-.1.4-.2.5z"/><path fill="#4D2B18" d="M39.9 20.2s.1-.3.1-.4c0-.2-.1-.3-.1-.3s.2 0 .2.3c-.1.3-.1.3-.2.4z"/><path fill="#AB6E29" d="M38.8 21.4s-.1-.1-.1-.2 0-.1.2-.3c.2-.2.3-.3.4-.5 0-.1.2-.4.1-.7 0 0 .1.3-.1.6s-.3.4-.5.5c-.2.1-.2.2-.2.3v.2c.1.1.2.1.2.1z"/><path fill="#6D431A" d="M40.8 22.1c.1-.1.1-.2 0-.3l-.3-.2h-.3l.2.2c.1 0 .2 0 .2.1.2 0 .2.2.2.2zm0 0s.2-.1.2-.3v-.2s0 .1.1.1h.1s-.1.4-.4.4z"/><path fill="#BF802C" d="m39.2 22 .1.1.1.1.5-.1.2-.2-.1-.2h-.4l-.4.3z"/><path fill="#FAC83A" stroke="#904720" stroke-width=".053" d="m40.5 21.9-.1-.1s0-.1-.1-.1h-.6s-.1.1-.2 0c-.1 0-.4-.1-.4-.1l-.3-.1-.2-.1-.2.2v.1h-.1s-.4.2-.5.6c-.1.4.7 1 1 .7 0 0-.4-.3-.3-.5.1-.3.3-.4.6-.4s.3-.1.5-.2c.1-.1.4-.2.6 0 .2.2-.7.4-.7.4l.1.1c-.1 0 1-.3.9-.5z"/><path fill="#FCF3D8" d="M38.4 22.8s-.5-.1-.4-.5c0-.4.4-.6.5-.6.1 0 .1-.2.1-.3.1 0 .2 0 .3.1.1.1.2.1.2.1s-.8.4-.8.8l.1.4z"/><path fill="#FCE9AE" d="M40.5 21.8c-.2-.2-.4-.2-.5-.2l-.5.1h-.3c-.2 0-.5-.3-.6-.2-.1 0-.1.1-.1.2 0 0-.1.1-.2 0 0 0 .1-.3.3-.3.4 0 .7.3.8.3.2 0 .2-.1.5-.1.4-.1.6 0 .6.2z"/><path fill="#513626" d="M39.3 22.1s.2 0 .3-.1c.1-.1.3-.1.3-.1s-.2.1-.3.2c-.1 0-.3.1-.3 0z"/><path fill="#FAC83A" d="M38.6 23.1s-.2 0-.4-.2c-.3-.2-.3-.5-.3-.5s-.1-.3.2-.6c.3-.3.3-.2.3-.2l-.2.2-.2.3-.1.2v.2l.1.2.4.2.2.2z"/><path fill="#8B5223" d="M38.5 21.5h-.1v.1s0 .1.1.1h.2-.1c-.2-.1-.2-.1-.1-.2z"/><path fill="#FAC83A" d="M39.3 21.9s-.5.2-.6.2h.6c.2-.1.6-.2.7-.1 0 .2-.6.3-.6.3v.1l.5-.1.3-.1.1-.1-.3-.2h-.7z"/><path fill="#904720" d="M38.5 22.6c0 .1.1.3.2.3 0 0-.1.1-.3 0-.2 0-.4-.1-.6-.6v.1l.1.2.2.2.3.2h.4l.1-.1-.2-.1-.2-.3v.1z"/><path fill="#FCCB3E" d="M40.3 27.5v.2h-.1l.1-.2zm-.7-5-.2-.2h-.1l.2.3.1-.1z"/><path fill="#826D2B" d="M40.3 27.9s-.1-.1-.2-.1c-.1-.1-.3-.1-.3-.1.1 0 .2 0 .3.1 0 0 .1.1.2.1zm0-.4h-.4c-.1 0-.2.1-.2.1s.1-.1.2-.1h.4zm-.1-.4s-.3.1-.4.2l-.2.2.1-.1s.1-.1.2-.1l.2-.1.1-.1zm-.2-.4v.2s0 .1-.1.1c-.1.1-.2.2-.2.3l-.1.1.2-.2.2-.2c0-.1.1-.1.1-.1-.1-.1-.1-.2-.1-.2zm-.3-.2v.3l-.1.3c0 .1-.1.1-.1.1v.1s.2-.3.2-.5v-.3zm-.3 0v.5l-.1.3c0 .1-.1.1-.1.1s.1-.3.2-.4v-.5zm-.3-.1v.5c0 .2-.1.4-.1.4V27c.2-.2.2-.5.1-.6zm-.2.1v.4c0 .1-.1.4-.1.4v-.5c.1-.2.1-.3.1-.3zm-.2 0v.3l-.1.3v.1s.1-.2.1-.4v-.3zm-.2 0c0 .2 0 .3-.1.4 0 .1-.1.2-.2.2l-.1.1s.3-.1.4-.3v-.4zm-.2 0-.1.3c0 .1-.1.1-.2.2 0 0-.1 0-.1.1 0 0 .2-.1.3-.2.1-.2.2-.4.1-.4zm-.2-.1s0 .1-.1.1c0 0 0 .1-.1.1l-.1.1c-.1 0-.1.1-.1.1l.1-.1c.1 0 .1-.1.1-.1l.1-.1.1-.1zm-.1-.2-.2.2s-.1 0-.1.1h-.1s.1 0 .1-.1c.2 0 .3-.1.3-.2zm-.1-.1-.2.1-.1.1h.1c.2 0 .3-.1.2-.2zm0-.1s-.1 0-.1.1h-.2.1c.1 0 .2 0 .2-.1zm0-.2c-.1.1-.2.1-.2.1 0 .1.1.1.2-.1zm0-.3-.2.2.1-.1s.1 0 .1-.1zm1.5-1.8h.2c-.1-.1-.2-.1-.2 0zm0-.2h.1l.1-.1h.1-.1l-.1.1h-.1zm0-.2h.1l.2-.1c.1 0 .1-.1.1-.1h-.1l-.2.1s-.1 0-.1.1zm-.1-.2c.1 0 .1-.1.2-.2s.2-.1.2-.2c-.1 0-.2.1-.2.2l-.2.2zm-.1-.2c.1-.1.4-.3.5-.3-.2 0-.4.1-.5.3zm-.2-.3.3-.2c.1-.1.2-.1.2-.1s-.1.1-.2.1c-.2.1-.3.1-.3.2zm-.2-.1.2-.2.2-.1c.1 0 .1-.1.1-.1s-.1 0-.1.1c-.2.1-.4.3-.4.3z"/><path fill="#78742F" d="m39.2 22 .4.4c.1.2.3.4.3.6v.1c0 .3-.2.5-.4.7l-1 .9c-.2.1-.3.3-.4.5-.1.2-.2.3-.2.5s.1.3.2.5c.1.1.3.3.5.3h.1l.8-.1c.2 0 .4.1.6.3.2.2.2.5.2.8 0 .2 0 .4-.1.6v.3s.1-.4.1-.9c0-.3-.1-.7-.3-.9-.2-.2-.4-.3-.7-.3-.3 0-.6.1-.8.1h-.1c-.2 0-.3-.1-.4-.3-.1-.1-.1-.3-.2-.5 0-.2.1-.4.3-.6l1-.9c.3-.3.6-.7.7-1.1v-.1c0-.3-.2-.5-.3-.7-.1-.1-.3-.2-.3-.2z"/><path fill="#A9AC72" d="M38.8 22.5h-.1.1zm.2.1z"/><path fill="#78742F" d="M39.2 22.9zm.1.2zm.1.2zm0 .2zm0 .2zm-1.7 2.1v-.1s-.1 0 0 .1z"/><path fill="#fff" d="M37.6 26z"/><path fill="#78742F" d="M37.6 26.2z"/><path fill="#fff" d="M37.7 26.4zm0 .2zm.1.2z"/><path fill="#A9AC72" d="M37.9 27.1zm.2.2zm1.4.1z"/><path fill="#fff" d="M39.7 27.5c-.1-.1-.1 0 0 0z"/><path fill="#A9AC72" d="M39.7 27.5zm0 .2z"/><path fill="#fff" d="M39.6 27.9zm-2.2-7.6c0 .2.1 0 0 0z"/><path fill="#FAC83A" d="M39.2 22z"/><path fill="#904720" d="M39.3 22c-.2.1-.1 0 0 0z"/><path fill="#987D2E" d="M40.1 28.4z"/></svg>
