<svg xmlns="http://www.w3.org/2000/svg" width="85" height="57"><path fill="#D12026" d="M-.02.153h85.04v56.693H-.02z"/><path fill="#FEE600" d="M41.053 18.387 36.773.153h11.36l-4.274 18.22c-.446-.06-.898-.1-1.36-.1-.492 0-.974.046-1.447.114zm-6.43 3.596L2.907.153H-.02v7.082L33.366 23.92c.35-.692.766-1.345 1.256-1.937zm7.877-1.726c-4.546 0-8.244 3.697-8.244 8.243 0 4.545 3.698 8.243 8.244 8.243 4.545 0 8.242-3.698 8.242-8.243 0-4.546-3.697-8.243-8.242-8.243zM32.27 28.5c0-.38.026-.755.067-1.124L-.02 24.162v8.563l32.343-3.21a10.66 10.66 0 0 1-.052-1.015zM82.094.153l-31.717 21.83c.49.592.907 1.245 1.255 1.938L85.02 7.236V.153h-2.927zM33.367 33.08-.02 49.764v7.082h2.927l31.716-21.83a10.376 10.376 0 0 1-1.256-1.938zm19.36-4.58c0 .342-.018.68-.05 1.014l32.343 3.21v-8.562l-32.357 3.214c.04.37.064.743.064 1.124zm-2.35 6.516 31.716 21.83h2.927v-7.08L51.63 33.078c-.347.69-.764 1.344-1.254 1.936zM42.5 38.728c-.492 0-.974-.047-1.447-.114l-4.278 18.233h11.36l-4.273-18.22c-.448.06-.9.1-1.362.1z"/></svg>
