<svg xmlns="http://www.w3.org/2000/svg" width="87" height="57"><path fill="#D3AE39" d="M0-.8h86.7V57H0z"/><path fill="#C32026" d="M2.9 2.1h80.9v52H2.9z"/><path fill="#B96C29" d="M56 27.6c.3-.1 1.5-.4 2.3-1.1.8-.7 1-1.2 1.1-1.5.1-.3.1-.5-.1-.4-.2.2-.9.7-1.3.9-.4.2-.8.4-1.1.4-.2.1-.4.1-.2 0s1-.4 1.6-.9c.6-.6 1-1.4 1-2 0-.5 0-.5-.2-.4-.2.1-.8.9-1.1 1.2-.3.3-.9.7-1.2.8-.3.2-.7.3-.1 0 .5-.4 1.6-1.2 2-2.4.4-1.1.3-1.8.3-1.9 0-.1-.1-.3-.2-.1-.1.2-.8 1.6-1.3 2.2l-.5.7c-.1.1-.3.3-.1-.1.3-.3.8-1.1 1.1-1.9.3-.8.4-1.5.4-2 0-.4-.2-1-.3-1.2-.1-.2-.2-.3-.2-.1 0 .2-.5 1.6-.7 2.2-.2.7-.7 1.4-.8 1.5-.1.1-.3.4-.1-.1.3-.5.8-1.9.8-3.3.1-1.4-.1-2.1-.3-2.5-.2-.4-.4-.5-.4-.5s0 .9-.2 2.3c-.3 1.3-.7 2.1-.7 2.1s-.2.2-.1-.1c.1-.2.2-.7.3-1.5.1-.9.1-1.8-.2-2.6-.3-.9-.7-1.4-.7-1.4-.1 1.3-.1 3-.6 4.3-.1-.1-.2-.2-.3.1-.1.4-.3 1.3-.8 2.3-.6 1.1-.8 1.2-.8 1.2s-.1-.3-.2-.4c-.1-.1-.1-.2-.2 0s-.4.9-1.1 1.8c-.7.8-1.1 1.2-1.1 1.8 0 .6.3.9.8 1.2.4.3.5.4.4.8-.1.3-.5.5-.8.5-.3 0-.8 0-.9.1-.2.1-.2.3-.3.5-.2.2-.2.2-.4.3h-.1c0-1.6.6-2.3.6-2.3L47.2 24l-.3.1-.1-.1c-.2-.3-.3-.6-.3-.9.1 0 .3.1.4 0 .2 0 0-.2 0-.3l-.1-.9v-.3s.3.3.4.3c.2 0 .1-.2.2-.3 0-.3.2-.6.4-.8 0 0 .3.2.6.2s.7-.1 1.1-.4c.3-.3.3-.4.3-.4s.6.2 1.1.2c.5 0 1-.1 1.3-.6.2-.5-.1-1-.1-1.1-.1-.1-.2-.1-.2 0s0 .5-.3.7c-.3.2-.5.2-.8.1-.3-.1-.7-.2-1.1-.1-.4.1-.5.1-.5.1s.4-.4.7-.5c.4-.1.6 0 .7.2s.2.4.3 0c.1-.3 0-.7-.1-1-.2-.2-.5-.4-.9-.4l-.5.1s-.2-.5-.6-.6c-.6-.1-1.2.1-1.7.4 0 0-.4.1-.8 0-.3-.1-.5-.2-.7-.3 0-.1.1-.4.1-.4s.1 0 .2-.1c.1 0 .1-.1.1-.2l-.2-.3s0-.3.4-.5l.3-.2h.3l.1-.1s.2-.1.2-.2c.1-.1.1-.3 0-.4 0-.1-.1-.1 0-.2s.1-.2.1-.3v-.1s.1 0 .1-.2-.1-.3-.2-.3H47s0-.1-.1-.3c-.1-.2-.2-.2-.2-.2s.1-.1 0-.2c0-.1-.1-.2-.2-.2h-.2s-.3-.2-.4-.3c-.1-.1-.2-.1-.2-.1s0-.1-.1-.2l-.2-.1h-.1s-.5-.1-.7-.2c-.2 0-.2-.1-.2-.1s-.5-.2-.6-.3c-.2 0-.2-.1-.2-.1s.2-.2.2-.5-.2-.5-.3-.6c-.1-.1-.2-.1-.2-.1v-.2h.3v-.5h-.3l.1-.3h-.7l.1.3h-.3v.5h.4v.2s-.1 0-.2.1c-.2.1-.3.3-.3.6l.2.5h-.2c-.2 0-.6.3-.6.3l-.2.1c-.2 0-.7.2-.7.2h-.1c-.1 0-.2 0-.2.1-.1.1-.1.2-.1.2l-.2.1c-.1.1-.4.3-.4.3h-.2c-.1 0-.2.1-.2.2v.2l-.2.2c-.1.2-.1.3-.1.3h-.1c-.1 0-.2.1-.2.3 0 .2.1.2.1.2v.1l.1.3c.1.1 0 .1 0 .2v.4l.2.2.1.1c.1.1.3 0 .3 0l.3.2c.4.2.4.5.4.5s-.2.2-.2.3c0 .1 0 .1.1.2.1 0 .2.1.2.1s.1.3.1.4c-.1.1-.4.3-.7.3-.4.1-.8 0-.8 0-.5-.3-1.1-.5-1.7-.4-.5.1-.6.6-.6.6s-.1-.1-.5-.1-.7.1-.9.4c-.2.2-.2.6-.1 1 .1.3.2.1.3 0 .1-.1.3-.3.7-.2.4.1.7.5.7.5s-.1 0-.5-.1-.8 0-1.1.1c-.3.1-.5.1-.8-.1-.3-.2-.3-.6-.3-.7 0-.1-.2-.1-.2 0s-.4.6-.1 1.1c.2.5.8.6 1.2.6.5 0 1.1-.2 1.1-.2s0 .1.3.4c.3.3.8.4 1.1.4.3 0 .6-.2.6-.2.2.2.3.5.4.8 0 .2 0 .3.2.3l.4-.3v.3c0 .2 0 .7-.1.9 0 .2-.2.3 0 .3h.4c0 .4-.1.6-.3.9v.1l-.3-.1-1.8 2.1s.6.7.6 2.4h-.1c-.1 0-.2-.1-.4-.3-.2-.2-.2-.4-.3-.5s-.6-.1-.9-.1c-.3 0-.7-.1-.8-.5-.1-.3 0-.5.4-.8.4-.3.8-.6.8-1.2s-.4-1-1.1-1.8c-.7-.8-1-1.6-1.1-1.8-.1-.2-.1-.1-.2 0l-.2.4s-.2-.1-.8-1.2c-.6-1.1-.8-1.9-.8-2.3 0-.3-.2-.2-.3-.1-.5-1.3-.4-3-.6-4.3 0 0-.5.5-.7 1.4.3.8.3 1.7.4 2.6.1.8.2 1.3.3 1.5.1.3-.1.1-.1.1s-.4-.7-.7-2.1c-.3-1.3-.2-2.3-.2-2.3s-.2.1-.4.5-.4 1.1-.3 2.5c.1 1.4.6 2.8.8 3.3.3.5 0 .2-.1.1s-.6-.9-.8-1.5c-.2-.7-.7-2-.7-2.2 0-.2-.1-.1-.2.1s-.3.8-.3 1.2c0 .4.1 1.2.4 2 .3.8.8 1.5 1.1 1.9.3.3.1.2-.1.1l-.5-.6c-.6-.6-1.2-2-1.3-2.2-.1-.2-.2 0-.2.1s-.1.8.3 1.9c.4 1.1 1.4 2 2 2.4.5.4.2.2-.1 0-.3-.2-.8-.5-1.2-.8-.3-.3-.9-1-1.1-1.2-.2-.1-.2-.2-.2.4 0 .5.5 1.4 1 2 .6.6 1.3.8 1.6.9h-.2l-1.1-.4c-.4-.2-1.1-.7-1.3-.9-.2-.2-.2.1-.1.4.1.3.2.8 1.1 1.5.8.7 2 1 2.3 1.1.3.1.1.1.1.1s-.1 0-.8-.2c-.7-.2-1.7-.7-2-.9-.3-.2-.3-.2-.3.1 0 .4.4 1.2 1.1 1.5s1.8.6 2.1.6c.3 0 .2.1.1.1s-.5 0-1-.1c-.4-.1-1.1-.3-1.3-.3 0-.1 0-.2-.1-.2 0-.1-.1-.1-.1-.1s-.1.1-.2.1c-.2.1-.2 0-.2-.1v-.4c0-.1-.1-.1-.1-.1-.1 0-.4.2-.6.2-.1.1 0 .2.1.3.1.1.2.3.2.3s-.3.1-.4.1c-.1 0-.1.1 0 .2l.2.5c0 .1.1 0 .1 0l.3-.2.1.4s-.2 0-.3.2c-.2.1-.1.3.1.3.2.1.4.2.7.6.3.5.3 1.3.5 2.6s1 2 1.1 2.1l.1.2s-.3.4-.2.7c.1.3.3.4.4.5.1 0 .1.2.1.2s-.1.3 0 .8.5 1.1.6 1.2c.1.1.1.2.1.2s-.1 0-.2.1l-.4.4c-.1.2-.1.3 0 .5 0 .3.4.5.4.5s-.1 0-.1.2.1.4.3.5c.2.1.5.2.5.2v.3c0 .1.2.2.4.3.1.1.4 0 .5 0 .1-.1.2 0 .3.1.1.1 0 .5 0 .7 0 .2-.1.3 0 .4.1.1.2 0 .4-.1s.2 0 .3.1c.1.1.4.2.4.2.1 0 0-.2 0-.3 0-.1 0-.4.1-.5 0 0 .3 0 .5-.1.1 0 .2-.1.2-.2s-.1-.1-.4-.2c-.3-.1-.3-.2-.5-.3-.2-.1-.1-.2-.1-.2s.1-.1.1-.2v-.2l.2-.2c.1-.1.2-.2.2-.3l.3-.6c.1-.1.3-.2.4-.4.1-.2.5-.4.7-.5.2-.1.7-.4.7-.4s0 .3.1.5.3-.1.9-.5c.6-.4 1-.6 1-.6s.1.2.3.4c.2.2.3 0 1-1 .6-.8 1.3-1.5 1.6-1.8.1 0 .1 0 .2.1v.1c-.1.2-.2.3-.3.6-.1.3-.4.4-.6.7-.2.4-.3.7-.3 1.1 0 .4.2.5.2.5s-.4.4-.5.6c-.1.3-.2.8-.2.8s-.1 0-.2.3-.4.3-.7.7c-.3.3-.7.5-.9.6-.2.1-.1.2-.1.4 0 .1.3.3.6.4.3.1.4.1.6.1.2 0 0 .1 0 .2-.1.1-.2.4-.2.7 0 .3.3.2.6.2l.6-.2v.5c0 .3 0 .4.1.4.1.1.2-.1.3-.1.1 0 .3-.1.6-.2l.4-.2s-.1.1-.1.3v.6c0 .2.2.3.3.5.2.2.2.1.4-.1.1-.2.4-.5.4-.5s0 .1.2.7l.8 1.1s.6-.5.8-1.1l.2-.7s.3.3.4.5c.1.2.2.3.4.1.2-.2.3-.4.3-.5v-.6c0-.2-.1-.3-.1-.3s.1.1.4.2c.3.1.4.2.6.2.1 0 .3.2.3.1.1-.1.1-.2.1-.4v-.5l.6.2s.5.1.6-.2c0-.3-.1-.6-.2-.7-.1-.1-.2-.2 0-.2s.3 0 .6-.1.5-.2.6-.4c0-.1.1-.2-.1-.4-.2-.1-.6-.3-.9-.6-.3-.3-.6-.4-.7-.7-.1-.3-.2-.3-.2-.3s-.3-.5-.4-.8c-.1-.3-.5-.6-.5-.6s.2-.1.2-.5-.1-.7-.3-1.1c-.2-.4-.5-.5-.6-.7-.1-.3-.2-.4-.3-.6v-.1l.2-.1c.3.3 1 1 1.6 1.8.7 1 .9 1.2 1 1 .2-.2.3-.4.3-.4s.5.2 1 .6c.6.4.8.7.9.5.1-.1.1-.2.1-.3 0 0 .3.1.7.2l.7.3c.5.2.6.3 1 .7.4.3 1 .3 1.5.1l2.6-.9c.6-.3 1-.5 1.1-.6.1-.1.1-.4.1-.6 0-.1-.1-.3-.2-.3v-.2c0-.1 0-.3-.1-.4-.1-.1-.1-.1-.1-.4 0-.6-.4-1.4-1-1.6 0 0 0-.1-.1-.1l-.1-.1v-.4c0-.1 0-.1.1 0 0 0 .1.1.2.1s.2 0 .2-.2l.1-.4c0-.1 0-.1-.1-.1h-.3c-.1 0-.1 0-.1-.1 0 0 0-.1.1-.2s0-.1-.1-.2c-.1 0-.5-.1-.6-.2-.1 0-.1.1-.1.1v.3c0 .1-.1.1-.1 0 0 0-.1-.1-.2-.1-.1-.1-.1 0-.2.1l-.1.5v.2h.4c.1 0 0 .1 0 .1s-.1.2-.2.3c0 .1-.1.1-.2.1h-.3s-.6 0-1.1.4c-.5.3-.6.6-.7.8-.1.2-.2.1-.2.2-.1.1-.3.3-.3.4 0 .1 0 .2-.2.3-.2.1-.4.7-.1 1 .3.3.4.6.5.7.1.1 0 .2-.1.2s-.2-.1-.3-.2c-.1-.1-.8-.6-1-.8-.3-.2-.1-.2-.1-.2s.1 0 .2-.1c.2-.1.2-.2 0-.2-.2-.1-.5-.2-.6-.3-.1-.1-.1-.2 0-.3.2-.1.5-.3.2-.4l-.9-.2c-.3-.1-.3-.2-.3-.2l.2-.3s.1-.2 0-.2c-.2 0-.6-.1-.9-.2-.7-.3-1.2-.9-1.4-1.5.1.3.5.8.9.8.7 0 .7-.2.6-.4-.2-.2-.3-.4-.4-.5 0-.1-.1-.2.1 0s.5.7 1.5.6c1-.1 1-.3 1-.3 0-.2-.2-.2-.3-.3-.1-.1-.1-.2.1-.1s.7.2 1.4 0c.3-.1 1-.4 1-.7 0 0-.4 0-.8-.2-.3-.1-.5-.2-.2-.2.3.1 1 .2 1.5 0 .3-.1.8-.4.8-.9 0 0-.6-.1-.8-.2-.2-.1-.3-.1-.3-.1s.9.3 1.7-.1c.8-.4.8-.9.8-1.1v-.2s-.7.2-1.3.2c-.5 0-.7-.1-.7-.1s1.5 0 2.3-.5c.8-.5.8-1.4.8-1.4s-.9.3-1.4.4c0 .2-.3.2-.5.2-.1 0-.2-.1.1-.1.3 0 1.4-.2 2.1-.6.6-.4 1-1.2 1.1-1.5 0-.4 0-.3-.3-.1-.3.2-1.3.7-2 .9-.7.1-.9.1-.8 0-.1.1-.3.1 0 0zm-27.1 1.8c-.1 0-.3.2-.3.2s-.1-.2-.2-.3v-.1h.3c.1 0 .2.1.2.2zm9.3 5.4c-.2.3-.7.7-1.1.9-.4.2-.8.2-.9.2-.2 0 0 .2 0 .2l.2.3s0 .1-.3.2l-.9.2c-.3.1.1.3.2.4.2.1.1.2 0 .3-.1.1-.4.3-.6.3-.2.1-.1.1 0 .2.2.1.6.2.6.2l-.3.2c-.3.2-.7.3-1 .4H32s0-.2-.1-.5c0-.3-.2-.7-.4-.9-.1-.2-.4-.6-.4-.6v-.2c0-.1 0-.2-.1-.4l-.4-.5v-.4c0-.2-.1-.9-.2-1.3-.1-.3-.7-1.3-.9-1.7-.3-.4-.4-1.1-.5-1.6-.1-.5 0-.7 0-.8 0-.1 0-.1.1-.2.1.1.2.3.4.4.8.5 2.3.5 2.3.5s-.2 0-.7.1l-1.3-.2v.2c0 .1 0 .7.8 1.1.8.4 1.7.1 1.7.1s-.1.1-.3.1c-.2.1-.8.2-.8.2 0 .5.4.8.8.9.6.2 1.2.1 1.5 0 .3-.1.1 0-.2.2-.3.1-.8.2-.8.2.1.4.8.7 1 .7.7.1 1.2.1 1.4 0 .2-.1.2 0 .1.1s-.3.1-.3.3c0 .1 0 .2 1 .3 1 .1 1.3-.5 1.5-.6.2-.2.2-.1.1 0 0 .1-.2.3-.4.5s-.1.4.6.4c.5 0 .8-.5.9-.8 0-.1-.1.2-.2.4zm8-21.5c-.1-.2-.1-.3-.1-.3s.4.2.6.4l.3.5v1c0 .1.1.1.1.1s-.2 0-.3.1c-.2.1-.4.1-.5 0-.3.1-.3 0-.2-.1.1-.1.3-.1.4-.6 0-.4-.2-.9-.3-1.1zm-2.1 1.3c.1-.2.1-.4.1-.9-.1-.4-.1-.7-.1-1.1 0 0 .3.1.7.4.4.4.5.7.5.9l-.1.6c0 .2.1.3.1.3s-.3.1-.4.2c-.1.1-.2.1-.4.1s-.3-.1-.4-.2c-.1-.1-.2-.1-.2-.1s.2 0 .2-.2zM42.2 13c.4-.4.7-.4.7-.4l-.1 1.1c-.1.4 0 .6.1.9.1.2.3.3.3.3s-.1 0-.2.1-.2.2-.4.2-.3 0-.4-.1c-.1-.1-.3-.2-.3-.2s.1-.2.1-.3l-.1-.6c-.2-.2-.1-.6.3-1zm-1.4 2.2c-.1.1-.3 0-.5 0-.2-.1-.3-.1-.3-.1l.1-.1v-.4c0-.2-.1-.4 0-.6 0-.1 0-.3.3-.5.2-.3.6-.4.6-.4s0 .1-.1.3c-.1.2-.3.6-.3 1.1 0 .5.3.5.4.6l-.2.1zm5.3 3.9c-.4.2-.6.2-.6.3 0 .2.4.3.4.3l-.6.6c-.3.2-.6.3-.6.3s-.1 0 0 .2.2.3.3.3c.1 0 .1.1.1.1l-.7.7c-.4.1-.5.1-.7.2-.2.1-.1.4 0 .5 0 .1.2.3.3.3.1 0 .1.1 0 .3-.1.1-.4.5-.5.7l-.5-.7c-.1-.2-.1-.2 0-.3.1 0 .2-.2.3-.3 0-.1.1-.4 0-.5-.3-.1-.4-.1-.6-.3l-.7-.7.1-.1c.1 0 .2-.2.3-.3.1-.2 0-.2 0-.2s-.3-.1-.6-.3c-.3-.2-.6-.6-.6-.6s.4-.1.4-.3c0-.2-.2-.1-.6-.3l-.5-.5s.5-.2.7-.6c.1-.2.1-.3.1-.4.7.2 1.6.3 2.3.3.8 0 1.6-.1 2.3-.3 0 .1 0 .3.1.4.2.5.7.6.7.6l-.6.6z"/><path fill="#D4AF38" d="M48.4 27.8c0-1.2.6-2 .6-2L47.5 24c-1.5.6-2.8.6-4 0-1.2.6-2.5.6-4 0L38 25.8s.6.8.6 2-.2 2.1-.4 2.7c-.1.6-.3 1.7.1 2.5.3.8.7 1.5 2 2.1s2.1.9 2.5 1.3c.5.4.7.7.7.7s.2-.3.7-.7c.5-.4 1.2-.7 2.5-1.3 1.4-.6 1.7-1.3 2-2.1.3-.8.2-1.9.1-2.5-.1-.5-.4-1.4-.4-2.7z"/><path fill="#B96C29" d="M47.9 28.3c-.2-1.2.5-2.2.5-2.2l-1.3-1.5c-1 .6-2.4.5-3.6-.1-1.2.6-2.6.6-3.6.1l-1.3 1.5s.7 1 .5 2.2c-.2 1.2-.6 3-.5 3.8.1.8.6 1.6 1.2 2.1.5.5 1.4.8 1.9 1.1.6.2 1.1.6 1.4.8.3.2.4.4.4.4l.4-.4s.8-.6 1.4-.8c.6-.2 1.4-.6 1.9-1.1.5-.5 1.1-1.3 1.2-2.1.2-.7-.3-2.6-.5-3.8z"/><path fill="#1F5F92" d="M47.8 28.5c-.2-1.3.4-2.3.4-2.3L47 24.9c-1 .5-2.2.4-3.5-.1-1.3.5-2.5.6-3.5.1l-1.2 1.3s.6 1 .4 2.3c-.2 1.3-.5 2.7-.4 3.5v.2h1.1s.1-.1.2-.1c.1-.1.2-.1.2-.1s0-.2.2-.3h.2c.1 0 .1 0 .2-.1s.2-.2.3-.4c.1-.2.1-.3.1-.4 0-.1.1-.4.1-.4s0-.1-.1 0c-.1 0-.1-.1-.1-.2s0-.3.1-.4l.1-.1v-.2s-.7.1-.8-.4c-.1-.5-.1-.8-.2-.8 0-.1 0-.1-.1-.1s-.3-.1-.4-.3c-.1-.3-.1-.4-.1-.5 0-.1.1-.1.1 0 0 0 .2.3.3.2.1-.1 0-.1-.1-.3-.1-.2-.1-.3-.1-.4v-.3c0-.1.1-.1.1-.1.1 0 .1.1.1.1s0 .1.1.1v-.3c0-.1.1-.1.2-.1.1.1.1.1.1.2v.1s.1-.1.1-.2 0-.2.1-.1.1.2.1.3v.3l-.1.5c0 .2 0 .3.1.5s.2.5.3.5h.2s.2-.3.3-.4c.1-.1.3-.1.5-.1.1 0 .2-.1.2-.1l-.2-.1c-.2 0-.3-.1-.3-.2s0-.2-.1-.2-.4-.1-.5-.3c-.1-.2-.1-.2-.1-.3 0-.1.1-.3.2-.1.1.2.1.2.2.2s.2.1.1-.1l-.1-.3c0-.1.1-.1.1-.1l.4-.1h.1s0-.1.2-.1.2-.1.4-.1c.1 0 .2 0 .3-.1.1-.1.3-.1.3-.1.1 0 .2 0 .2.1.1 0 0 .1 0 .2s0 .1.1.1h.3c.1 0 .2.1.1.2l-.1.2-.1.1v.1c.1 0 .1.1.1.1.1.1.2.2.1.3-.1.1-.3.2-.3.2s-.1.1 0 .1l.3.3c.1 0 .1.1.1.1v.1s-.1.1-.2.1l-.3.1c-.1 0-.1 0-.1.1l.1.2v.1h1.5c.3 0 .3 0 .4.1.1 0 .2.1.2.1s.4 0 .7-.1c.2-.1.3-.2.3-.3 0-.1 0-.2-.4-.3l-.9-.1c-.3-.1-.8-.2-.9-.6-.1-.4.2-.6.4-.7l.7-.3c.2-.1.5-.1.8-.1.3 0 .5.1.6.1.1-.1.2 0 .2.1s-.1.3-.5.5c-.4.1-.8.1-1 .1-.2-.1-.4-.2-.6-.1-.1.1-.3.2-.1.4.2.2.9.3 1.2.3.2 0 1 0 1.2.4.2.4 0 .8-.2.9-.3.1-.5.2-.7.2h-.2s.1.2.1.3c0 .1 0 .2.1.3.1.1.2.1.4.1s.4.1.4.2.1.4.1.7v.5s0 .1-.1.2c0 .1-.2.5-.2.5h1.2v-.2c-.1-.6-.4-2.1-.6-3.3z"/><path fill="#6D8C3D" d="M38.8 32.8c.2.6.7 1.3 1.4 1.7 1 .6 1.4.5 2.3 1.1.9.6.9.7.9.7s0-.1.9-.7l2.3-1.1c.7-.4 1.2-1.1 1.4-1.7h-9.2z"/><path fill="#D4AF38" d="M39.7 27.8c.1.1.2.1.3.1.2 0 .2.1.2.2s0 .4.1.7c.1.3.5.3.5.3 0-.1.1-.3.1-.5 0 0 .1-.2-.1-.2l-.2-.2c-.1-.1-.2-.5-.3-.7 0-.2 0-.6.1-.7v-.2h-.1v.1l-.1-.1c0-.1-.1-.1-.1-.1-.1 0-.1.1 0 .1v.2H40c-.1 0-.2 0-.2.1s0 .2.2.3c.1.1.1.3.1.4 0 .1-.2.1-.2 0 0 0-.1-.1-.1 0-.2 0-.3.1-.1.2zm-.1-.3-.2-.2v.1s.1.1.2.1zm.2-.8c0-.1 0-.2-.1-.2h-.1l.2.2zm.3-.2c.1 0 .1-.1 0 0 .1-.1 0-.2 0-.2v.2zm.4 0v-.1.1zm.7 2.9c.1.2.3-.1.5-.3.2-.2.2-.1.2.1s.1.4.1.5c.1.1.1.1.2 0l.1-.4c.1-.1.1 0 .1.1s.1.3.2.4c.1.1.1 0 .2-.2l.1-.4c0-.1.1 0 .1 0l.2.2c.1.1.1-.1.2-.2v-.3s.1 0 .3.1c.2.1.2-.1.1-.2 0-.1-.1-.3-.2-.4-.1-.1-.2-.2-.1-.3 0-.1.2 0 .3 0h.2c.1 0 .1-.1.1-.1l-.2-.2c-.1-.1-.2-.2-.3-.2h-.4l-.1.1c-.1 0-.1.1-.1.1v-.1s.1-.1.1-.2c.1-.1.1-.2 0-.3-.1-.1-.2 0-.3 0h-.1.2c.1 0 .2-.1.2-.2s.1-.1.1 0c.1.1.1 0 .1 0s.1-.1.1-.2c.1-.1.1-.2 0-.3-.1-.1-.2-.1-.3 0-.1-.2-.1-.1-.1 0s-.1.1-.1 0-.1-.1 0-.2v-.1s0-.1-.1-.1h-.4c-.1 0-.1.1-.1.1h-.2l-.3.1c-.1 0-.1 0-.1.1v.1h.1v.1c-.1 0-.1 0-.1.1s0 .1.1.1.2 0 .3.1c.1.1.2.2.1.2 0 .1-.2.1-.3.1s-.1 0-.1.1l.1.1h.3c.2 0 .2.1.3.2.1.1 0 .1 0 .1s-.1.1-.2.1l-.2.1c-.1 0-.2 0-.5.1l-.4.5.2-.1.4-.2c.2-.1.2 0 .1.2-.1.1.1.1.1.1l.2-.2c.1-.1.1 0 .1 0s0 .1-.1.3c0 .2.2 0 .3-.1.1-.1.1 0 .1.2-.1.2-.2.3-.3.3l-.2-.1v-.2c-.1 0-.2 0-.3.1-.1.1-.1 0-.2 0v-.1h-.1s-.1.1-.3.2c-.2.1-.2.2-.2.3s.1 0 .2.2zm1.9-3.2.1-.1h.2c.1 0 .1-.1.1-.1s-.1-.1-.2-.1c-.2.1-.2.1-.3.1h-.1l.1.1c0 .1 0 .1.1.1zm.4.5c.1 0 .1-.1 0 0 .1 0 .2-.1.2-.1.1 0 .1 0 .1-.1s0-.1-.2-.1c-.1 0-.2 0-.2.1.1-.1.1 0 .1.2zm0 .1c-.1 0-.3.2-.3.2v.1s0 .1.1.2v.2h.1c.1 0 .1 0 .2-.1s.1-.1.2-.1.1 0 .3-.1c.1-.1-.1-.2-.2-.3-.2-.1-.3-.1-.4-.1zm-1.7.4c.1 0 .1-.1.1-.1 0-.1-.1-.1-.2-.1-.3 0-.6-.1-.7-.4 0 0-.1.2.1.4.3.2.6.2.7.2zm-1.1 4.9.5.1c.1 0 .1-.1.1-.2s.1-.2.1-.6c.1-.3.2-.5.2-.7 0-.1 0-.2-.1-.3l-.1-.3c0-.1-.1-.1-.2-.1s-.1.1-.1.2-.1.4-.1.6c0 .2-.3.6-.4.6-.1.1-.1.1-.2.1h-.2c-.1 0-.1.1-.1.2l.1.1.1-.1s.1-.1.2-.1.1 0 .1.1c.1.3.1.3.1.4zm-.7 0 .2.1v-.1H40zm.4 0-.1.1h.3v-.1c0-.1-.1 0-.2 0zm3-.1s-.1 0-.1.1c-.1 0-.1.1-.1.1h.1c0-.1 0-.1.1-.2zm.2.1c-.1-.1-.1 0-.2 0l-.1.1.3-.1zm1.3-1.5c.1-.1.1-.1.1-.2v-.1s-.2-.1-.3-.1c-.1 0-.4 0-.5.1-.2 0-.2.3-.2.4s0 .2.1.2l.1-.1s.1.2.2.3c.1.1 0 .2 0 .3 0 .1-.2.3-.3.4-.1.1-.2 0-.3 0-.1 0-.2 0-.3.1-.1.1 0 .1 0 .1s.1 0 .2.1v.2h.6c.1 0 .2-.2.2-.3l.2-.3c.1-.1.1-.1.1-.2s0-.2-.1-.3l-.1-.3c.1-.2.2-.3.3-.3zm-1-1.6c.1.1 0 .1-.1.1h-.3c-.1 0-.1 0-.1.1s0 .2-.1.3c-.1.1-.2.1-.2 0H43l-.1.2c-.2.3-.2.3-.3.3l-.1-.1-.2-.2c-.1-.1-.1 0-.2.1 0 .1-.1.2-.2.2s-.2-.2-.2-.3c-.1-.1-.1-.2-.2-.2l-.3.2h-.1c0-.1-.1 0-.1.1-.1.1 0 .2.1.3l.3-.1c.1-.1.1 0 .2 0s.1.2.1.4l.2.3.2-.1c.1-.2.1-.4.2-.4s.1 0 .2.2c.1.1.2.2.2.1.1-.1.1-.3.2-.3.1-.2.1-.2.1-.1-.1.1-.1.2 0 .2s.7-.3.9-.3c0 0 .3 0 .6-.1h.5c.1 0 .1 0 .1-.1s-.1-.1-.3-.1c-.2 0-.4 0-.5.1h-.2s.1-.1.2-.1c.2 0 .5 0 .7-.1.2 0 .1.1.1.2v.4c0 .1 0 .2.1.3.1.2.5.3.6.3.1.1.1 0 .1-.1s.1-.1.2 0 .2.1.3.1c.1 0 .1 0 .1.1v.5c0 .1-.2.3-.2.3H46c-.2 0-.2.1-.3.2v.2s0-.1.1-.1h.5c.1 0 .1.1.1.2h.4c.1-.1.2-.4.2-.5l.1-.3v-1c0-.2 0-.3-.3-.3s-.4-.1-.5-.2c-.1-.1-.1-.3-.2-.6s-.3-.3-.6-.4c-.3-.1-.6-.1-.8-.1-.3 0-.6.1-.7 0-.2 0-.1.1-.1.2zm1.7 3.1.2.1v-.1h-.2zm.5 0c-.1 0-.1.1 0 0l.2.1c0-.1-.1-.1-.2-.1zm-7.4.2c0 .1 0 .2.1.3h9.4c0-.1 0-.2.1-.3h-9.6zm6.3-4.5c.3.2 1.2.2 1.7.3.4.1.4.4.3.6-.1.2-.8.2-.9.2.1 0 .2.2.2.2h.3c.2 0 .5-.1.7-.2.2-.2.2-.5 0-.7-.2-.2-.5-.2-.9-.3-.3 0-.6-.1-1-.1-.4-.1-.6-.2-.6-.4s.2-.3.3-.4c.1 0 .4-.1.6 0 .2.1.5.1.9 0l.5-.3h-.3c-.2 0-.4-.1-.7-.1-.4 0-.5.1-.7.2-.2.1-.6.1-.8.4 0 .3.1.4.4.6z"/><circle fill="#B96C29" cx="42.6" cy="26.4" r=".2"/><path fill="#B96C29" d="M46.4 26.7h-.5.5c.2 0 .4-.1.4-.1s-.2.1-.4.1z"/><path fill="#1F5F92" d="M44.1 31.1c0-.1 0-.1-.1-.1-.1.1-.1-.1-.1-.3v-.5s-.3.1-.5.1c-.2.1-.3.1-.5.1s-.2.1-.3 0h-.4s-.1 0-.2.1-.2.2-.3.4c-.1.2-.1.4-.2.7 0 .2-.1.3-.1.4H43s0-.1.1-.1c0-.1.1-.1.2-.2.1 0 .1 0 .1-.1l.2-.2h.3c.1 0 .2 0 .2-.1 0 0 .1-.1.1-.2.1-.1 0-.2 0-.2s0 .3-.1.2zm2.4 0c0-.1 0-.1-.1-.1 0 0-.1 0-.2-.1-.1 0-.1.2-.1.2h-.4c-.2 0-.4-.2-.5-.3l-.2-.2-.1.1c-.1 0-.1.2-.1.3 0 .1.1.3.2.4 0 .1-.1.4-.2.5l-.1.3h.7s0-.1.1-.1c.1-.1.2-.1.2-.1v-.1c0-.1.1-.1.3-.2.2-.1.4-.1.4-.1s.1-.1.1-.2c.1-.1 0-.2 0-.3z"/><path fill="#D4AF38" d="M40.6 38.9c.1 0 .4-.1.5-.2l.3-.5.2-.2s0 .2-.1.5-.1.7-.1.8c.1.3.3.4.4.3.1 0 .2-.2.4-.4 0-.1.1-.2.1-.2l.2-.4c.1 0 0 .2 0 .3-.1.2-.2.6-.2.8 0 .2 0 .6.2.6s.3-.2.5-.6c.1-.4.1-.6.2-.6s.1.3.1.4v.3c0 .2.1.5.2.6.1.1.2.1.2.1s.1 0 .2-.1.2-.8.2-.9 0-.4.1-.4.1.1.2.6c.1.4.2.6.5.6.2 0 .2-.4.2-.6 0-.2-.1-.6-.2-.8-.1-.2 0-.2.2.1l.2.3c.1.2.2.3.3.3.1 0 .3 0 .4-.3.1-.3-.2-1.3-.2-1.3l.1.2c.1.1.1.4.3.5.1.1.4.2.5.2.1 0 .1-.3.1-.7-.1-.4-.5-.7-.8-1-.3-.3-.5-.9-.5-1-.4.2-.7.4-.9.7-.6.6-.7.8-.7.8s-.1-.2-.7-.8c-.3-.3-.6-.5-1-.7 0 .1-.3.6-.5.9-.1.2-.3.3-.4.4l-.3.6c-.5.5-.5.8-.4.8zm0 1.5c.2-.1.3-.2.3-.2s.1-.1.1.1l-.1.8c0 .2.1.3.3.2.2-.1.3-.2.4-.3.1-.1.2-.2.2 0s-.1.4-.1.8c0 .3.2.4.4.1.2-.3.4-.6.4-.7.1-.1.2-.3.2 0 0 .6.1 1.4.8 1.6.6-.2.8-1.1.8-1.6 0-.3.1-.1.2 0l.4.7c.2.3.4.2.4-.1 0-.3 0-.6-.1-.8s.1-.1.2 0 .2.2.4.3c.2.1.2 0 .3-.2 0-.2 0-.6-.1-.8 0-.2.1-.1.1-.1s.1.1.3.2l.4.2s.1-.6-.1-1l-.3-.5s-.1 0-.3-.1c-.1 0-.2-.1-.2-.1v.3l.4.4c.1.1.2.2 0 .1l-.4-.3s0 .3-.1.4c-.1.1-.2.1-.3.1h-.1v.1s.2.4.2.5c0 .1 0 .1-.1-.1s-.3-.4-.3-.6c-.1-.1-.2-.2-.2-.1 0 .2-.1.5-.1.6l-.1.1s.1.4.1.5c0 .1 0 .2-.1.1l-.3-.5s-.3 0-.3-.1c-.1-.1-.2-.3-.2-.3s-.1.4-.2.5c-.1.1-.3.2-.3.2v.7c0 .1 0 .2-.1.2 0 0-.1 0-.1-.2v-.7s-.2-.1-.3-.2c-.1-.1-.2-.5-.2-.5s-.1.3-.2.3c-.1.1-.3.1-.3.1s-.2.4-.3.5c-.1.1-.1 0-.1-.1l.1-.5-.1-.1c.2 0 .1-.3.1-.5s-.1-.1-.2.1c-.1.1-.2.4-.3.6-.1.2-.1.2-.1.1l.2-.5V40h-.1c-.1 0-.2 0-.3-.1-.1-.1-.1-.4-.1-.4s-.2.1-.4.3c-.2.1-.1 0 0-.1l.4-.4V39s-.1.1-.2.1l-.3.1s-.1.1-.3.5c-.3.4-.1 1-.1 1s.2-.2.4-.3zm3.1 4c-.2-.2-.2-.3-.2-.3s-.1.1-.2.3l-.5.5s0 .5.2.8l.5.6c.2-.2.4-.4.5-.6.2-.3.2-.8.2-.8l-.5-.5z"/><path fill="#B96C29" d="M43.4 45c0 .1 0 .4.1.4s.1-.3.1-.4v-.4h-.2v.4z"/><path fill="#D4AF38" d="M43.5 17.4c-.7 0-1.5-.1-1.9-.2l-.5.1c.7.3 1.3.4 2.4.4 1.1 0 1.7-.1 2.4-.4l-.5-.1c-.5.2-1.3.2-1.9.2zm2.4-.5c-.1 0-.4-.3-.4-.3-.1 0 0-.1 0-.2 0 0 .4-.1.6-.2.2 0 .2-.1.2-.1s-.1-.1-.8-.2c-.7-.1-1.9-.1-1.9-.1s-1.2 0-1.9.1l-.8.2.2.1c.2 0 .5.1.6.2 0 0 .1.2 0 .2l-.4.3c-.1 0-.1.1 0 .1h.3c.7-.1 1.4-.2 2.1-.2.7 0 1.4.1 2.1.2h.3l-.2-.1zm-.8.3c-.5-.1-.8-.1-1.7-.1-.9 0-1.2.1-1.7.1.3.1.8.2 1.7.2 1-.1 1.4-.1 1.7-.2zm-1-7.2h-.5l.1-.3h-.4v.3h-.4v.3l.4-.1v.4l.4-.1v-.3l.3.1zm0 1.1h-.5v-.4h-.2v.4h-.5v.3h1.3v-.1c-.1-.1-.1-.2-.1-.2z"/><path fill="#1F5F92" d="M43.5 11.9c.3 0 .5-.2.6-.4h-1.3c.1.2.4.4.7.4zm.3-1.2v.3h.3l-.3-.3zm-.6 0c-.1.1-.3.2-.3.3h.3v-.3z"/><path fill="#B96C29" d="M43.9 16.1c-.1-.1-.4-.2-.4-.2s-.3.1-.4.2c-.1.1-.1 0-.2.2 0 .1 0 .1.1.2.1 0 .5.3.5.3s.4-.2.5-.3c.1 0 .1-.1.1-.2-.1-.1-.1-.2-.2-.2z"/><path fill="#D4AF38" d="m43 16.2.5.2.4-.2-.4-.2zm.5-1.7s0 .2-.1.2l-.1.2c0 .1.1.1.2.1l.2-.1c0-.1 0-.1-.1-.2-.1 0-.1-.2-.1-.2z"/><circle fill="#D4AF38" cx="43.5" cy="15.2" r=".1"/><path fill="#D4AF38" d="M43.2 14.8s.1-.2.2-.3c.1-.1.1-.2.1-.2s0 .1.1.2l.2.3s.2-.1.3-.5c.1-.4 0-.8-.1-1.2-.1-.4-.1-1.2-.1-1.2-.2.1-.3.1-.4.1-.1 0-.3 0-.4-.1 0 0 0 .7-.1 1.2-.1.4-.2.8-.1 1.2.1.4.3.5.3.5z"/><circle fill="#B96C29" cx="43.5" cy="13.9" r=".3"/><circle fill="#B96C29" cx="43.5" cy="13.2" r=".3"/><circle fill="#B96C29" cx="43.5" cy="12.4" r=".3"/><circle fill="#D4AF38" cx="43.5" cy="13.9" r=".2"/><circle fill="#D4AF38" cx="43.5" cy="13.1" r=".2"/><ellipse fill="#D4AF38" cx="43.5" cy="12.4" rx=".2" ry=".1"/><path fill="#B96C29" d="M43.5 39.7V39c0-.1 0-.1-.1-.1 0 0-.1.1-.1.2.1.1.1.4.2.6z"/><path fill="#D4AF38" d="M39.9 42.4c.2-.1.3-.2.6-.4l.5-.5h-.1c-.1 0-.1-.1-.1-.2v-.9s-.1.1-.4.3c-.2.1-.3.1-.3.1l-.1-.3-.2.4c-.1.2-.5.5-.8.7-.3.2-.6.4-.8.5-.2.1-.1.2-.1.2s.2.2.8.3c.6.2.9-.1 1-.2zm2-.2c-.2 0-.3-.1-.4-.3v-.7l-.1.1c-.1.1-.2.1-.2.1s0 .1-.1.2-.2.3-.4.4l-.6.4c-.1.1-.3.3-.5.4-.2.1-.4.3-.4.6-.1.3 0 .4.2.4s.2 0 .6-.1c.4-.1.9-.5 1.2-.7.4-.3.7-.8.7-.8zm1 .4s-.2-.2-.2-.4c-.1-.2-.2-.6-.2-.6s-.1.1-.2.4c-.1.3-.3.3-.3.3s0 .1-.2.3c-.2.2-.4.4-.7.6-.3.2-.6.4-.8.6-.2.3-.2.5-.1.6.1.1.2 0 .4-.1s.7-.2 1.3-.5c.7-.4 1-1.2 1-1.2zm.3 1.5c.2-.3.2-1 .2-1s-.1 0-.2-.1l-.3-.3s-.1.2-.2.5c-.1.2-.2.3-.4.5-.3.2-.6.5-.7.7-.1.2-.1.7 0 .9.1.2.2.1.4 0l.4-.4.8-.8z"/><path fill="#B96C29" d="M40.9 38.4c.1-.2.2-.5.3-.6.1-.1.2-.3.2-.3s-.2.2-.3.4c-.1.2-.2.3-.2.5zm1 .2c0-.1.1-.2.1-.2v-.1s-.1.1-.2.3c-.1.2-.2.5-.2.6.1-.1.3-.5.3-.6zm.8.6c0-.1.1-.4.1-.4 0-.1 0-.1-.1 0s-.1.2 0 .4c-.1 0-.1.2-.1.2s0-.1.1-.2zm-2.4 2.3-.1-.1s-.1.1-.1.2c-.1.1-.2.1-.2.2l-.3.3-.2.1h.1l.2-.1.4-.3.2-.3zm.8.9c.1-.1.1-.1.1-.2H41c-.1.1-.3.2-.3.3-.1.1-.2.1-.2.2-.1.1-.3.2-.4.2-.1.1 0 .1 0 .1s.1 0 .1-.1c.1 0 .3-.1.3-.1s.1 0 .2-.1c.2 0 .4-.2.4-.3zm1 .7c.1-.1 0-.1-.1 0l-.5.4-.4.2H41h.1l.2-.1h.1l.3-.2c.2-.1.3-.2.4-.3zm.4.9c-.2.1-.5.3-.5.5-.1.2-.1.3-.1.3s.1 0 .1-.1l.1-.2.4-.4s.3-.3.3-.4v-.2s-.1.4-.3.5z"/><path fill="#C52328" d="M38 19.7c-.2-.1-.6-.3-1-.3s-.8 0-1.1.1c-.3.1-.5.1-.7 0-.3-.1-.6-.4-.6-.7 0 0-.3.4 0 .8.1.2.3.3.5.4.6.1 1.2-.3 1.7-.3l.9.3s.1.1.3 0c.2-.2.2-.2 0-.3z"/><path fill="#D4AF38" d="M36.3 37.4h-.1c-.1 0-.3-.1-.3-.1h-.2c-.1.1-.5.3-.5.3h.7c.2.1.4-.2.4-.2zm2-.1-.1-.3-.2.2c-.1.1-.3.4-.4.4-.1.2-.3.3-.1.1.1-.2.2-.4.3-.5l.2-.3s-.1 0-.4-.1c-.3 0-.5-.2-.6-.2-.1-.1-.4-.2-.4-.2s-.5.2-.7.3c-.2 0-.3.1-.1.2.2.1.4.1.4.2.1.1.4.2.6.2.2 0 .5 0 .4.1l-.4.7c-.1.4-.1.7-.1.8v.3s.2-.2.8-.6c.6-.4.8-.5.9-.5.1 0 .2 0 .1-.2s-.2-.5-.2-.6zm2.2-1.7h-.1c-.1 0-.4.3-.6.5-.1.2-.3.2-.1 0 .2-.2.3-.4.4-.5l.1-.1c-.3-.1-.6-.3-.9-.5 0 .1-.1.2-.2.3-.1.1-.4.2-.4.2s.2-.2.3-.4l.1-.3c-.2-.2-.4-.3-.6-.6 0 .1-.2.5-.5.9-.5.5-1.4.8-1.4.8s-.3 0-.1.1.4.2.9.1.5-.1.6-.1c.1 0 .2 0 0 .1s-.8.2-1.1.2c-.2 0-.5-.1-.2.1s.5.2.6.2l.5.1c.2 0 .2 0 .4-.1.1 0 .2 0 .2.1s-.2.2-.2.6c0 .4 0 .6.1.7 0 .1.1.3.2.4.1.1.1.2.1 0 .1-.2.2-.5.2-.7 0-.2.1-.2.1-.3 0-.1.1-.2.1 0l-.2.6v.2c.2-.3.8-.9.9-1.1l.3-.3c.1-.1.3-.2.4-.4l.5-.5c0-.2-.2-.2-.4-.3zM32.2 20c0 .4.4 1.1.7 1.5.2.4.3.5.3.6 0 0-.1-.2-.3-.3-.1-.2-.4-.6-.6-.9l-.6-1.1c0-.1-.1-.1-.2 0s-.3.9-.1 1.4c.2.5.6.9.8 1.1.2.2.4.5.3.5 0 0-.1 0-.3-.2-.2-.2-.5-.5-.7-.8-.2-.2-.4-.6-.5-.7 0-.1-.1 0-.1 0-.1.1-.2.2-.1.6.1.6.4.9.6 1.2.3.3.5.5.5.6 0 0-.3-.2-.5-.4s-.7-.6-.8-.8c-.1-.1-.3-.1-.2.4 0 .5.6 1 .8 1.3.2.3.5.5.5.5 0 .1-.3-.1-.4-.2-.2-.1-.7-.5-.8-.6-.1-.1-.2.1 0 .6.1.5.6.9.8 1 .2.2.7.4.6.5 0 .1-.2 0-.4-.1l-.7-.3c-.2-.1-.2.1-.2.1s0 .4.3.7c.3.3.6.5 1 .5.3.1.4.1.4.1s0 .1-.1.1h-.6c-.3 0-.4.1-.4.2s0 .3.4.6.9.3 1.1.4c.2 0 .2.1.2.1l-.4.1c-.3 0-.5.2-.5.2 0 .1 0 .3.3.5.2.2.6.2 1.1.2h.6c0 .1-.1.1-.4.1-.2 0-.4 0-.6.2-.1.1 0 .3.2.5s.8.2 1.1.2c.2 0 .6-.1.6 0s-.2.2-.4.3c-.2.1-.3.1-.4.3 0 .1 0 .2.3.3.3.1.7.1 1 0 .2-.1.3-.1.4-.1v.1c0 .1-.2.2-.5.3-.2.1-.3.1-.4.3-.1.2.1.4.6.4s1.1-.2 1.2-.3c.2-.1.3-.1.3-.1s0 .1-.1.1c-.4 0-.7.2-.9.2-.2 0-.2.2-.2.3 0 .1 0 .3.4.4.4.1.9 0 1.3-.3l.3-.3v-1c-.1 0-.2 0-.4-.1l-.4-.4c-.1-.1-.1-.1-.2-.1l-.3.1c-.1 0-.4-.1-.6-.3-.2-.3-.2-.5-.2-.6 0-.1-.2 0-.3 0-.1 0-.4 0-.6-.2-.3-.2-.3-.4-.3-.5 0-.1-.1-.2-.2-.2l-.4-.2s-.2-.4-.2-.5c0-.1-.1-.1-.5-.3s-.3-.6-.3-.7c0-.2.2-.3.2-.3 0-.1-.1-.1-.2-.1-.1-.1-.4-.2-.4-.6 0-.5.3-.5.3-.5s-.1 0-.2-.1-.5-.3-.5-.6.1-.4.2-.5c.1-.1.3-.1.3-.1s-.2-.1-.2-.3c-.1-.2-.1-.5.1-.7.2-.2.4-.2.5-.2.1 0 .3.1.3 0 0 0 .1-.1 0-.2 0-.1-.1-.4 0-.5 0-.1 0-.3.4-.4.3-.1.7.1.8.2.1.1.1-.1.1-.2s-.2-.4-.5-.8-.4-.6-.7-1.2c-.3-.6-.5-1.4-.5-1.6 0-.2-.1-.1-.1-.1s-.1 0-.3.5c-.3.4-.4.9-.3 1.2zm6 8.3c-.2 0-.5-.1-.7-.4-.2-.3-.5-.4-1.1-.4-.5 0-.8-.2-.9-.6-.1-.4 0-.8.6-1.1.5-.3.8-.6.8-1 0-.5-.5-1-1.1-1.7l-1-1.6s-.2.2-.2.4.1.4 0 .5l-.4-.2c-.3-.1-.6-.2-.8.1-.2.2 0 .7.2.9.2.2.3.3.3.4-.1.1-.3-.1-.4-.2-.1-.1-.3-.3-.6-.3s-.4.1-.5.4c0 .3.3.5.5.6.2.1.3.2.2.2h-.2c-.1 0-.4-.1-.5 0-.2.1-.4.3-.2.6s.8.4.9.4c.1 0 .2 0 .2.1s-.2.1-.5.1-.4.3-.3.5c0 .2.5.4.8.5.3 0 .4 0 .4.1s0 .1-.2.1c-.1 0-.4.1-.5.3-.1.2-.1.3.2.5.2.2.6.2.7.1.1 0 .2-.1.3 0 .1.1-.1.2-.3.3-.2.1-.2.4.1.5.3.2.6.1.7.1.1 0 .3-.2.4-.1.1.1-.3.2-.4.3-.1.2-.1.5.2.6.3.2.8.1.9 0 .1-.1.2-.1.2 0 .1.1 0 .2-.1.4-.1.1-.2.6.3.7.4.2.8-.2.9-.3.1-.1.1-.1.2-.1v.2c-.1.1-.2.4.1.6.2.1.4.1.6.1.1-.2.1-.5.2-.9h-.1v.1l-.1.1c-.1 0-.1.1-.1.1l.1-.1s.1-.1.1-.2 0-.1.1-.1l.1-.1c.1-.2.1-.5.1-.9 0-.2 0-.5.1-.7l-.3.1zm-8.8-6.5c.5.9 1.1 1.5 1.1 1.5s-.1-.2-.1-.4v-.3s-.2-.2-.5-.7c-.3-.5-.5-1.2-.5-1.2s.3.7.5 1.1c.2.4.5.7.5.7s.1-.3.2-.3.1 0 .2.1l.1.1s-.1-.2-.2-.3l-.2-.3c-.2-.3-.5-.8-.7-1.3-.2-.5-.6-1.8-.7-2.2-.1-.4-.1-.2-.2.1-.1.3-.2.7-.1 1.3 0 .4.1 1.2.6 2.1zm.6 2.5c.2.1.4.3.4.3s0-.1-.1-.2v-.3l-.3-.3-.7-.7c-.4-.4-.1-.2.2.1l.8.8v-.1c0-.1 0-.2.1-.2.1-.1 0-.1-.3-.3-.3-.2-1.1-1.1-1.4-1.7-.3-.5-.7-1.3-.7-1.3s-.2 1.1.5 2.3c.6 1.1 1.3 1.5 1.5 1.6zm3.4 6.8c.4-.1.3-.5.3-.5s-.2.1-.4.1c-.3.1-.8.3-1 .3-.2 0-.2 0-.2-.1 0 0 .2 0 .4-.1.3-.1.8-.3.9-.4.1-.1.1-.1-.1-.1l-.3-.1s-.2 0-.5.1-1 .2-1.5.2-1-.1-1.1-.1c-.1 0-.2 0 .1.4.2.4 1.1.6 1.7.6.7.2 1.3-.2 1.7-.3zm-1.6-.9c.6 0 .9-.2.9-.2l-.1-.2c-.1-.1-.1-.3-.1-.3s-.1 0-.4.1c-.3 0-.6.1-.9 0-.3-.1-.2-.1.1-.1.3 0 .8-.1.9-.1.2-.1.1-.1 0-.1l-.4-.2s-.8.1-1.5 0-1.2-.3-1.3-.3h-.1s0 .1.2.4c.2.4.7.6 1.1.8.4.2 1 .2 1.6.2zm-.2-1.4-.1-.2c0-.1.1-.2.1-.2s-.1 0-.6-.1-.5-.1-.8-.2c-.3-.1-.5-.1-.5-.2 0 0 .1 0 .3.1.2.1.9.1 1.2.2.3 0 .5.1.5 0 .1 0 .2-.1.2-.1s-.1 0-.3-.1c-.2 0-.3-.1-.4-.2-.1-.1-.1-.1-.5-.1l-1.4-.4c-.7-.3-1.2-.5-1.3-.7-.1-.1-.1 0-.1.1s0 .3.4.7c.3.4.5.6 1.4.9.9.5 1.9.5 1.9.5zm-2.5-2.1c.8.5 1.7.7 1.9.8v-.3c0-.1.1-.1.3-.1s-.1 0-.4-.1c-.3-.1-.6-.1-1-.3-.4-.2-.6-.3-.5-.3l.6.3c.4.1.8.2 1.1.3.2.1 0-.1-.1-.1l-.3-.3s-.3 0-.7-.2c-.5-.1-.8-.3-1.2-.5l-.4-.3c-.3-.2-.5-.4-.6-.4-.2-.1-.1 0-.1 0 0 .1.1.4.4.7.1.1.2.2 1 .8zm-.2-1.6c.8.6 1.4.8 1.5.8.1 0 .1 0 .1-.1v-.3s-.3-.2-.6-.3l-.9-.6c-.2-.2-.1-.1 0-.1l.7.4c.3.2.8.5.8.5s0-.1.1-.2h.2s-.1-.1-.1-.2-.3-.2-.6-.3c-.3-.1-.8-.5-1.2-.8-.4-.3-1.1-1.1-1.1-1.2 0-.1-.1-.1-.1 0v.5c.1.6.5 1.3 1.2 1.9zm2.7-5.7c.1.2.2.3.2.4.1.2.2.3.2.3v-.9c0-.1 0-.2-.1-.2 0-.1-.1-.5-.2-.9-.1-.3-.1-.8-.1-1.2 0-.4.1-.2.1 0s0 .5.1.9c.1.5.3 1.1.3 1.1s0-.1.1-.3c.1-.2.2-.3.2-.5.1-.2 0-.2 0-.2s-.3-1.3-.3-1.9c-.1-.6-.2-2.2-.2-2.2-.4.4-.7 1.4-.7 2.4 0 .7.1 1.4.1 1.7.1.8.2 1.3.3 1.5zm-.9 2.1c0-.3.1-.5.3-.6 0 0-.2-.3-.3-.7-.1-.3-.2-.6-.2-.9-.1-.7-.2-1.4 0-.2l.4 1.6.3.5c0-.2-.1-.4 0-.6 0-.2 0-.5.1-.8 0 0-.4-.7-.6-1.6-.2-.9-.4-1.6-.4-2.1v-.6s-.4.3-.5 1.7c-.1 1.4.2 2.7.4 3.2.3.4.5 1.1.5 1.1zm4 10.6s-.1 0-.2-.2c-.2-.1-.1-.4-.1-.4l-.2.1-.4.3s-.3.1-.4.2c-.1 0-.1 0 0-.1s.1-.1.4-.2c.2-.1.7-.5.7-.5h-.3c-.2 0-.4-.1-.4-.1s-.2.2-1 .5l-1.4.4s.1.4.5.5c.3.1.7.2 1.6 0 .7-.1 1.2-.5 1.2-.5zm1.1.8c.1-.3-.1-.6-.1-.6l-.2.1c-.1.1-.3.3-.6.5s-.4.2-.1 0c.3-.2.8-.6.8-.6h-.1c-.1 0-.3 0-1.2.6-.9.5-1.4.5-1.4.5s.4.5 1.4.4c1-.1 1.4-.6 1.5-.9zm2-.4s-.1.2-.3.3c-.2.1-.6.2-.6.2l-.1.2-.4.5c-.2.1-.5.2-.5.2s.2-.1.3-.2c.2-.1.3-.3.5-.5.1-.1-.1-.1-.1-.1h-.4c-.2-.1-.2-.1-.2 0-.1.1-.1.2-.3.4-.2.2-.4.4-.5.6-.1.1 0 .2 0 .2s.1.1.5.1c.3 0 .6 0 .9-.2.2-.1.4-.3.6-.5.6-.7.6-1.2.6-1.2zm.2 1.3c-.1.2-.2.2-.2.2l.2-.4.1-.2-.2-.6c-.1.2-.2.7-.4 1-.2.4-.5.5-.3.6.1.1.4.1.7 0 .3-.1.4-.4.4-.6-.1-.1-.1-.2-.1-.3-.1.2-.1.2-.2.3z"/><circle fill="#D4AF38" cx="37.9" cy="18.3" r=".2"/><path fill="#D4AF38" d="m37.5 17.9.5-.1c.3 0 .6.2 1 .4.3.1.8.2 1.2.1.1 0 .2-.1.3-.2.5-.3.4-.9.4-.9-.4.3-.8.4-1.3.4l.1.1.2.2s-.2-.1-.4-.3c-.2-.1-.4-.3-.8-.4-.4-.1-.8-.1-1.1 0-.3.2-.3.4-.3.5.1.2.1.2.2.2zm5.5 4.2c-.1 0-.2 0-.5-.2l-.8-.8c-.1-.1 0-.2.1-.2l.2-.2s-.3-.1-.5-.3c-.2-.1-.7-.6-.8-.7-.1-.1 0-.1.1-.2.1 0 .1-.1.1-.1s-.2-.1-.4-.3c-.2-.2-.5-.4-.5-.4-.3.1-.8.1-1.1 0-.5-.1-.8-.3-.8-.3s0 .1-.1.2-.3.2-.5.1l-.2-.4s-.2-.1-.5-.2-.6-.1-.9 0c-.3.1-.4.5-.4.8 0 .3.2.2.2.1 0 0 .1-.3.5-.3.4-.1.7.1 1.1.5.4.3.5.4.7.6.2.2 0 .3-.3.4s-.6-.2-.7-.2c-.1 0 .2.3.5.5.3.1.7 0 1-.1.2-.1.2 0 .3.1.3.4.4.7.5 1.1.2-.1.3-.2.3-.4 0-.1 0-.2.1-.1s.2.7.2 1l-.1.6h.1s.1-.1.3-.1c.1-.1.1 0 .1.2s0 .4.2.9l.5.7s.1-.1.1-.3c.1-.2.1-.6.1-.9V22s.4.5.8.6c.4.1.9 0 1-.2.3-.2.1-.3 0-.3zm-2.8 1.3s-.1.3-.2.4l-.1.1s.1.1.3.2c.2.1.4.1.4.1s-.2-.3-.3-.5c-.1-.2-.1-.3-.1-.3zm2.6-.1c-.1-.2-.1-.3-.1-.3-.3.1-.8-.1-1-.2 0 0 .2.4.4.5l.2.1s-.2 0-.5-.2c-.3-.3-.4-.6-.4-.6s.1.7 0 1.1c-.1.4-.1.5-.1.5s.6.1 1.2-.1l.7-.2s.1 0 0-.2c-.2 0-.3-.3-.4-.4z"/><path fill="#B96C29" d="M41.7 21.7c-.2-.2-.2-.3-.2-.3s-.1.1 0 .2.3.3.5.4c.2.1.4.1.4.1-.1.1-.5-.2-.7-.4zm-.8 1.5v-1c0-.1-.1-.1-.1-.1h-.1s.2 1.1.2 1.3c0 .1.1.1.1.1-.1 0-.1-.3-.1-.3zm-1.2-3.8c-.1-.1-.2-.1 0 0 .1.2.3.4.3.6.1.2.1.4 0 .4s-.2 0-.3-.1l-.4-.3c-.1 0-.2 0-.1.1s.2.3.5.4c.2.2.4.2.5.3l.2.2s-.1-.7-.3-1c-.1-.4-.3-.5-.4-.6zm-3.8 11.9c-.1.1-.3.2-.3.2h-.1.2c.1 0 .3-.1.3-.2.1 0 .1-.1.1-.2l-.2.2zm1.2.7-.3.2s-.1 0-.2.1c-.1 0-.1.1-.1.1h.1c.2-.1.4-.2.5-.4zm-5-9c0 .1.1.1.1.1l-.1-.1v-.1s-.1-.1-.1-.2c0 .2 0 .3.1.3zm-.4.9.2.2.1.1s-.1-.1-.1-.2c-.1-.1-.2-.2-.2-.1l-.2-.2.2.2zm.1 1.3c.1.1.2.1.3.1 0 0 0-.1-.1-.1s-.2-.1-.3-.2l-.2-.1-.1-.1s.1.2.2.2l.2.2zm.3 1.1c-.1-.1-.3-.1-.3-.1s-.2-.1-.2 0c0 0 .1.1.2.1h.3zm.1 1.2h-.3s.1.1.2.1h.4c.1 0 .1 0 .1-.1h-.4zm1.4 1.3h-.2c-.1 0-.2.1-.3 0h-.4.8c0 .1.1 0 .1 0zm.5.9h-.7.4c.1 0 .2 0 .3-.1.1 0 .2-.1.1-.1.1.1 0 .2-.1.2zm1.1.7c-.1.1-.3.2-.3.2l-.1.1c-.1 0-.1.1-.1.1s.1 0 .1-.1c0 0 .2-.1.3-.2.1 0 .2-.1.1-.1zm-1.8-9 .2.3c.2.2.1 0 0 0 0-.1-.3-.4-.4-.5-.1-.1-.1-.1-.1 0 .1 0 .3.2.3.2zm-.4 1.2s0-.1-.1-.2l-.3-.4-.1-.1s.1.2.2.3c.1.1.2.3.3.3-.1.1 0 .1 0 .1zm.5 2.2c0-.1-.2-.1-.3-.1-.1 0-.3-.1-.3-.1h-.2l.1.1.4.1c.2.1.3.1.3 0zm-.5-1.2c.1.1.2.2.3.2l.2.1s0-.1-.2-.1c-.1-.1-.2-.1-.2-.1s0-.1-.1-.1c0-.1-.1-.1 0 0zm1.2-.8c-.1-.1-.2-.1-.2-.1l-.1-.1c0 .1.1.2.3.2 0 .1.1.2.1.2.1 0 0-.1-.1-.2zm-.8 3.1h-.2c-.1 0-.1.1.1.1s.2 0 .3-.1c.1 0 .2 0 .2-.1h-.1c-.1.1-.3.1-.3.1zm.2 1.1h.2l.3-.1c.1 0 .1 0 .1-.1H34c-.1.1-.3.2-.4.2zm1.5.7.1-.1c-.1 0-.1 0-.1.1-.1 0-.3.1-.3.1s-.1 0-.1.1c-.1 0-.1.1-.1.1s.1 0 .2-.1c0 0 .2-.1.3-.2zm.6.9.2-.1c.1 0 .1-.2 0-.2 0 0-.1 0-.2.1l-.4.3h-.1c-.1 0 0 .1 0 .1.1 0 .1 0 .2-.1.3 0 .3 0 .3-.1zm1.1.9c.1 0 .2-.1.3-.2.1-.1.1-.1.1-.2 0 0-.1 0-.2.1s-.3.2-.2.3c-.1 0-.1 0-.2.1s.1-.1.2-.1z"/><path fill="#D4AF38" d="m40.9 16.7.4-.3-.5-.1-.3.2z"/><circle fill="#B96C29" cx="42.2" cy="16.3" r=".4"/><circle fill="#D4AF38" cx="42.2" cy="16.2" r=".2"/><path fill="#D4AF38" d="M41.4 15h.2s0-.2-.1-.3c-.1-.1-.2-.1-.2-.2l-.1-.1v.2c0 .3.1.4.2.4z"/><circle fill="#D4AF38" cx="41.6" cy="15.2" r=".1"/><path fill="#D4AF38" d="m41 15.2-.1.1h.1l.2.1c.1 0 .1-.1.1-.1 0-.1-.1-.1-.2-.2l-.1.1zm.3.4c-.2 0-.6-.2-.6-.2 0 .2-.2.3-.4.4 0 0 .2.1.4.1h.3l.4-.1c.1-.1.1-.3.1-.3s0 .1-.2.1zm-.9-.2-.3-.1c-.1 0-.2 0-.1.1 0 .1.1.2.2.2l.2-.2zm-.8-.4c-.1-.1-.2-.1-.2-.1s-.1.2 0 .3c0 .1.1.1.2.1s.3-.1.2-.1c0-.1-.1-.2-.2-.2z"/><circle fill="#D4AF38" cx="39.7" cy="15.5" r=".1"/><path fill="#D4AF38" d="M39.9 14.5c-.1-.3-.1-.7.2-1.1.3-.4.8-.6.8-.6l.2-.2c.2-.2.5-.4.5-.4s-.4.1-.6.2c0 .2-.1.3-.3.3h-.2c-.1 0-.5.3-.6.4v.1c0 .2-.1.3-.3.3h-.1v.1c-.1.2-.1.3-.2.4.1 0 .1.1.1.2 0 .2-.1.3-.2.3v.2c0 .1 0 .1.2.2.2 0 .4.3.4.3.1-.1.2-.3.1-.7zm1-2c.1 0 .1-.1 0-.2h-.2c-.1 0-.1.1 0 .2h.2zm-1 .7c.1-.1.1-.1 0-.2h-.2c-.1.1-.1.1 0 .2h.2z"/><circle fill="#D4AF38" cx="39.3" cy="14" r=".2"/><path fill="#D4AF38" d="m42.7 11.9-.5.2c.2 0 .3.1.3.2s-.1.3-.3.3-.3-.1-.3-.3v-.1l-.2.1c-.5.3-.6.5-.9 1-.2.5-.3 1-.2 1.3.1.3.5.4.5.4l-.1-.1v-.4s.1 0 .1.1l.2.2.2.2s.1-.1.1-.2-.1-.3-.1-.5.1-.7.3-1c.2-.3.7-.6.8-.7l.2-.2v-.2c.1-.4 0-.4-.1-.3zm-.5.5c.1 0 .2-.1.2-.2s-.1-.1-.2-.1l-.2.1c0 .1.1.2.2.2zm.7 2.9h.3c.1 0 .1-.2 0-.2-.1-.1-.2-.1-.3 0-.1 0-.2.2-.2.2h.2zm.4.2c0 .1-.1.1-.2.1s-.3 0-.4-.1c-.1-.1-.1-.2-.1-.2h-.2s0 .2-.1.3c-.1.1-.3.1-.4 0l-.2-.2s0 .1.1.2.2.1.3.1h1s.2 0 .3-.1c0-.1 0-.2-.1-.1.1-.1 0-.1 0 0zm-1.5-.2c.1.1.2 0 .3 0l.1-.1s-.1 0-.2-.1l-.2-.1h-.1s0 .2.1.3z"/><circle fill="#B96C29" cx="41.1" cy="13.9" r=".3"/><path fill="#B96C29" d="M41.7 12.8c-.1-.1-.3-.1-.4.1-.1.1-.1.3 0 .4.1.1.3.1.4-.1.1-.1.1-.3 0-.4z"/><circle fill="#D4AF38" cx="41.1" cy="13.8" r=".2"/><path fill="#D4AF38" d="M41.6 12.8c-.1 0-.2 0-.2.1s0 .2.1.2.2-.2.1-.3zm-4.9 24.8s-.5.2-.7.3h-.2s-.3.3-.6.5-.6.3-.9.3h-1.9c-.5 0-.8.1-1 .3-.2.2-.3.6 0 .8s.5.1.6 0c.1-.2 0-.4 0-.4 0-.1.1-.1.2-.1h.6c.2 0 .6.2.7.2.2.1.1.1 0 .1s-.2-.1-.4-.1c-.2-.1-.4-.1-.5-.1-.1 0-.1.1-.1.1s.1.1.1.2v.2l.1.1s.1-.1.1-.2v-.2c0-.1.1-.1.2 0s.2.2.2.4v.4l.1.1v.3s.1 0 .1-.1c.1-.1.1-.4.2-.4 0-.1.1-.2.2-.1s.2.2.2.3v.1l.3-.3s.2-.3.4-.5.6-.5.7-.6c.2-.1.6-.4.8-.4.1-.1.2-.1.2-.3 0-.2.1-.4.2-.6.1-.2.1-.3.1-.3zm-7.9-8.9s-.1-.2-.1-.3c0-.1-.1 0-.1 0s-.2.1-.3.1c-.1 0-.1 0-.1-.1s0-.3-.1-.4c0-.1 0-.1-.1-.1 0 0-.2.1-.3.1-.1 0-.1.1 0 .1 0 .1.1.3.2.4.1.1 0 .1-.1.1s-.1 0-.3.1c-.1 0-.1.1-.1.1s.1.2.1.3c0 .1.1 0 .1 0l.2-.2c.1-.1.1 0 .1 0l.2.6c0 .1.1.1.1 0 .1 0 .1 0 .2-.1.1 0 .1-.1.1-.1s-.2-.4-.3-.5c-.1-.1 0-.1 0-.1s.2 0 .3-.1c.3.3.3.2.3.1zm2.6 11.7c0-.1 0-.2-.1-.3-.1-.1-.2-.2-.2-.4v-.3c0-.1-.1-.1-.2 0s-.2.2-.2.4.1.5.4.6c.4.1.4.1.3 0zm.4-.1c-.1.1-.1.1 0 .2s.1.2.2.2c.1.1 0-.1 0-.1v-.3h-.2zm.4 1.1c.1-.1.1-.1.3-.2s.4-.1.5-.1c.1 0 .3-.2.3-.4s-.2-.3-.3-.3h-.3c0 .1-.1.1-.2.2l-.2.1-.1.1c-.1.1-.2 0-.3 0-.1 0-.1 0-.2-.1h-.5c-.1 0-.1 0-.1.1s0 .3.1.3c.1.1.3.1.5.2l.4.1h.1zm1.4.1c.1-.1.1-.2 0-.3 0-.1-.2-.1-.3-.1h-.2s-.1.1-.2.1l-.4.2-.3.2h-.3s0 .1.1.2.2.1.4.1h.2c.1 0 .1-.1.2-.2s.3-.1.5-.1c0 0 .2 0 .3-.1zm0-.6c.1 0 .1.1.2 0l.1-.3c-.1-.1-.1-.2-.1-.2s-.1.3-.1.4l-.1.1zm-.5-.8c0-.2-.1-.4-.1-.4s0 .1-.1.3c-.1.1-.1.2-.1.2h.2c.1.1.1.1.1-.1zm-.9.3c.2 0 .3-.1.3-.2.1-.1.1-.2.1-.3 0-.1-.2-.2-.2-.2h-.1s0 .2-.1.2c-.1.1-.1.1-.1.2 0 .3 0 .4.1.3zm.4-.7c0-.1 0-.2-.1-.2l-.1-.1v.3l.1.1.1-.1zm-2.1-4.3.1-.7c-.1-.7-.5-1.4-.8-1.9-.3-.5-.6-1.2-.7-1.6-.1-.4-.2-.9-.2-1.2 0-.3.1-.4.1-.4s.1-.1 0-.1c0 0-.1 0-.2.1s-.2.2-.2.3v.1h-.4c-.2 0-.4 0-.4.1s0 .1.2.2.3.1.4.2c.1.1.3.6.4.9.1.3.2.9.3 1.5.1.5.2 1.2.5 1.7 0 .1.5.9.9.8zm.4 1.2c-.2.1-.2.8-.1 1.1.1.4.4.8.5.9.1.1.1.1.2.1h.1s.1 0 .3-.1c.1-.1.1-.3 0-.5 0-.2-.2-.6-.4-1-.3-.5-.4-.6-.6-.5zm.2-.5c0-.2-.2-.4-.4-.4-.1 0-.2 0-.3.1-.2.2-.1.7.2.7.1 0 .3 0 .3-.1.2-.1.2-.2.2-.3zm3.2 6.3c-.1 0-.1-.1-.3-.1l-.4-.4c0-.1 0-.1-.2-.1H33c-.1 0 0 .2.1.3.1.1.1.6.1.6v.2s.1 0 .2-.1l.3-.4h.7-.1zm-.6.4h-.1s-.1.1-.1.2v.1l.1.1.1.1c.1 0 .1-.1.1-.1V43c.1-.2 0-.2-.1-.2z"/><path fill="#1F5F92" d="M57.3 38.2c-.2 0-.2-.1-.2-.1s-.1 0-.1.1l-.2.2s-.3.1-.3.3c0 .2.1.3.2.2.1 0 .4-.1.6-.3.1-.2.2-.3.2-.3l-.2-.1zm.4-1.4c-.1-.4-.4-.9-.9-1.2 0 0-.2.7-.3.9-.1.2-.1.2.1.3.2 0 .7.2.8.2.2-.1.4 0 .3-.2zm-2.4-.4c.1 0 .1 0 .2-.2 0-.2.3-1 .3-1s-.5 0-1 .2c-.6.2-.8.6-.8.6s.1.1.4.1c.3.1.7.2.9.3zM54 37.5c-.2 0-.3-.1-.3-.1s.1.5.3.7c.2.3.4.4.8.4s.7-.2.8-.4c.1-.2.1-.3.1-.3s-.8-.1-1.1-.2l-.6-.1z"/><path fill="#D4AF38" d="M53.9 37.2c.2 0 1.7.3 1.9.4.1 0 .2.1.3 0 0 0 .1-.1.2-.1.1-.1.1-.2.1-.2s0-.1.1-.3c0-.1.1-.2.2 0 .2.2.2.4.2.6 0 .2.4.3.5.3.1 0 .2 0 .3-.2.1-.1.1-.4.1-.6 0-.2 0-.2-.2-.2s-1-.2-1.1-.3c-.1 0-.1-.1-.1-.2l.3-1.1c-.2-.1-.5-.2-.9-.3 0 0-.2 1-.3 1.2 0 .2-.1.2-.3.1-.2 0-1.4-.3-1.4-.3l-.1.2c-.1.2-.1.5-.1.6s.1.4.3.4zm4 .9c-.2-.1-.3-.1-.4.1-.1.2-.1.5-.3.7-.2.2-.5.4-.8.4-.3 0-.5-.1-.4-.4.1-.3.5-.4.6-.6.1-.2.1-.4-.1-.5-.2-.1-.4-.2-.4-.1-.1 0-.2.2-.3.4-.1.2-.1.4-.3.6-.2.2-.7.3-1.1.2-.4-.1-.5-.2-.7-.6-.1-.4-.3-1-.4-1.1-.1-.1-.2-.1-.3 0-.2.1-.2.3-.2.4 0 .1 0 .3.2.5s.3.4.4.6c.1.2.2.5 0 .5-.3 0-.4 0-.6-.2l-1.2-.9-.2-.1c-.4 0-.7-.2-1.1-.4 0 0 .2.5.2.7v.3s.8.4 1.1.6l1.2.7c.3.2.6.5 1.1.4.5-.1 1.6-.4 2-.5.4-.1 1.3-.3 1.7-.6.4-.2.4-.2.5-.5.1-.3 0-.5-.2-.6zm-2-3.7h.3c.2 0 .1.2.1.2 0 .1-.1.2-.2.3-.1.1 0 .1.1.2.1 0 .1 0 .3.1.1 0 .1-.1.1-.1v-.5c0-.1.1-.1.1-.1s.1.1.2.1h.1s.1-.1.1-.2 0-.1-.1-.1h-.3c-.1 0 0-.1 0-.1s.1-.1.2-.3c.1-.1 0-.1 0-.1-.1 0-.3-.1-.3-.1h-.1v.3c0 .1 0 .1-.1.1l-.3-.1c-.1-.1-.1-.1-.1 0-.1 0-.2.3-.1.4zm.6 2.6v.3c0 .1-.1.2 0 .2l.2.1c.1 0 0-.1 0-.2-.1-.1-.1-.2-.2-.4zm1.2.9c0 .1.1.1.1.1s.1 0 .1-.1 0-.2-.1-.3c-.1-.1-.1-.1-.1 0v.3zm-4.4-.9.2.1v-.3c0-.1.1-.2 0-.2s-.1 0-.1.1l-.2.2c0 .1.1.1.1.1z"/><circle fill="#B96C29" cx="54.2" cy="36.7" r=".3"/><circle fill="#B96C29" cx="55" cy="36.9" r=".3"/><circle fill="#B96C29" cx="57.3" cy="37.4" r=".3"/><circle fill="#B96C29" cx="55.8" cy="37.1" r=".3"/><circle fill="#B96C29" cx="56" cy="36.4" r=".3"/><circle fill="#B96C29" cx="56.2" cy="35.7" r=".3"/><circle fill="#D4AF38" cx="54.2" cy="36.7" r=".1"/><circle fill="#D4AF38" cx="55" cy="36.8" r=".1"/><circle fill="#D4AF38" cx="57.3" cy="37.3" r=".1"/><circle fill="#D4AF38" cx="55.8" cy="37" r=".1"/><circle fill="#D4AF38" cx="56" cy="36.3" r=".1"/><circle fill="#D4AF38" cx="56.2" cy="35.6" r=".1"/><path fill="#D4AF38" d="M47 42.4c-.2-.1-.3-.2-.6-.4l-.5-.5h.1c.1 0 .1-.1.1-.2v-.9s.1.1.4.3c.2.1.3.1.3.1l.1-.2.2.4c.1.2.5.5.8.7.3.2.6.4.8.5.2.1.1.2.1.2s-.2.2-.8.3c-.6.1-.8-.2-1-.3zm-1.9-.2c.2 0 .3-.1.4-.3v-.7l.1.1c.1.1.2.1.2.1s0 .1.1.2.2.3.4.4l.6.4c.1.1.3.3.5.4.2.1.4.3.4.6.1.3 0 .4-.2.4s-.2 0-.6-.1c-.4-.1-.9-.5-1.2-.7-.5-.3-.7-.8-.7-.8zm-1 .4s.2-.2.2-.4c.1-.2.2-.6.2-.6s.1.1.2.4c.1.3.3.3.3.3s0 .1.2.3c.2.2.4.4.7.6.3.2.6.4.8.6.2.3.2.5.1.6-.1.1-.2 0-.4-.1s-.7-.2-1.3-.5c-.8-.4-1-1.2-1-1.2zm-.3 1.5c-.2-.3-.2-1-.2-1s.1 0 .2-.1l.3-.3s.1.2.2.5c.1.2.2.3.4.5.3.2.6.5.7.7.1.2.1.7 0 .9-.1.2-.2.1-.4 0l-.4-.4c-.3-.3-.6-.5-.8-.8z"/><path fill="#B96C29" d="M46 38.4c-.1-.2-.2-.5-.3-.6-.1-.1-.2-.3-.2-.3s.2.2.3.4c.2.2.2.3.2.5zm-1 .2c0-.1-.1-.2-.1-.2v-.1s.1.1.2.3c.1.2.2.5.2.6 0-.1-.2-.5-.3-.6zm-.7.6c0-.1-.1-.4-.1-.4 0-.1 0-.1.1 0v.4c.1 0 .1.2.1.2s-.1-.1-.1-.2zm2.3 2.3.1-.1s.1.1.1.2c.1.1.2.1.2.2l.3.3.2.1h-.1l-.2-.1-.4-.3c0-.1-.2-.3-.2-.3zm-.8.9c-.1-.1-.1-.1-.1-.2h.2c.1.1.3.2.3.3.1.1.2.1.2.2.1.1.3.2.4.2.1.1 0 .1 0 .1s-.1 0-.1-.1c-.1 0-.3-.1-.3-.1s-.1 0-.2-.1c-.2 0-.3-.2-.4-.3zm-.9.7c-.1-.1 0-.1.1 0l.5.4.4.2.1.1h-.1l-.2-.1h-.1l-.3-.2c-.3-.2-.4-.3-.4-.4zm-.5.9c.2.1.5.3.5.5.1.2.1.3.1.3s-.1 0-.1-.1l-.1-.2-.4-.4s-.3-.3-.3-.4v-.2s.2.4.3.5z"/><path fill="#C52328" d="M48.9 19.7c.2-.1.6-.3 1-.3s.8 0 1.1.1c.3.1.5.1.7 0 .3-.1.6-.4.6-.7 0 0 .3.4 0 .8-.1.2-.3.3-.5.4-.6.1-1.2-.3-1.7-.3l-.9.3s-.1.1-.3 0c-.1-.2-.2-.2 0-.3z"/><path fill="#D4AF38" d="M50.6 37.4h.1c.1 0 .3-.1.3-.1h.2c.1.1.5.3.5.3H51c-.2.1-.4-.2-.4-.2zm-2-.1.1-.3.2.2c.1.1.3.4.4.4.1.2.3.3.1.1-.1-.2-.2-.4-.3-.5l-.2-.3s.1 0 .4-.1c.3 0 .5-.2.6-.2.1-.1.4-.2.4-.2s.5.2.7.3c.2 0 .3.1.1.2-.1.1-.2.1-.3.1-.1.1-.4.2-.6.2-.2 0-.5 0-.4.1l.4.7c.1.4.1.7.1.8v.3s-.2-.2-.8-.6c-.6-.4-.8-.5-.9-.5-.1 0-.2 0-.1-.2l.1-.5zm-2.2-1.7h.1c.1 0 .4.3.6.5.1.2.3.2.1 0-.2-.2-.3-.4-.4-.5l-.1-.1c.3-.1.6-.3.9-.5 0 .1.1.2.2.3.1.1.4.2.4.2s-.2-.2-.3-.4l-.1-.3c.2-.2.4-.3.6-.6 0 .1.2.5.5.9.5.5 1.4.8 1.4.8s.3 0 .1.1c-.3.1-.4.2-.9.1s-.5-.1-.6-.1c-.1 0-.2 0 0 .1s.8.2 1.1.2c.2 0 .5-.1.2.1s-.5.2-.6.2l-.5.1c-.2 0-.2 0-.4-.1-.1 0-.2 0-.2.1s.2.2.2.6c0 .4 0 .6-.1.7 0 .1-.1.3-.2.4-.1.1-.1.2-.1 0-.1-.2-.2-.5-.2-.7 0-.2-.1-.2-.1-.3 0-.1-.1-.2-.1 0l.2.6v.2c-.2-.3-.8-.9-.9-1.1l-.3-.3c-.1-.1-.3-.2-.4-.4l-.5-.5c0-.2.2-.2.4-.3zM54.8 20c0 .4-.4 1.1-.7 1.5-.2.4-.3.5-.3.6 0 0 .1-.2.3-.3.1-.2.4-.6.6-.9s.5-1 .6-1.1c0-.1.1-.1.2 0s.3.9.1 1.4c-.2.5-.6.9-.8 1.1-.2.2-.4.5-.3.5 0 0 .1 0 .3-.2.2-.2.5-.5.7-.8.2-.2.4-.6.5-.7 0-.1.1 0 .1 0 .1.1.2.2.1.6-.1.6-.4.9-.6 1.2-.3.3-.5.5-.5.6 0 0 .3-.2.5-.4s.7-.6.8-.8c.1-.1.3-.1.2.4 0 .5-.6 1-.8 1.3-.2.3-.5.5-.5.5 0 .1.3-.1.4-.2.2-.1.7-.5.8-.6.1-.1.2.1 0 .6-.1.5-.6.9-.8 1-.2.2-.7.4-.6.5 0 .1.2 0 .4-.1l.7-.3c.2-.1.2.1.2.1s0 .4-.3.7c-.3.3-.6.5-1 .5-.3.1-.4.1-.4.1s0 .1.1.1h.6s.4.1.4.2 0 .3-.4.6-.9.3-1.1.4c-.2 0-.2.1-.2.1l.4.1c.3 0 .5.2.5.2 0 .1 0 .3-.3.5-.2.2-.6.2-1.1.2H53c0 .1.1.1.4.1.2 0 .4 0 .6.2.1.1 0 .3-.2.5s-.8.2-1.1.2c-.2 0-.6-.1-.6 0s.2.2.4.3c.2.1.3.1.4.3 0 .1 0 .2-.3.3-.3.1-.7.1-1 0-.2-.1-.3-.1-.4-.1v.1c0 .1.2.2.5.3.2.1.3.1.4.3.1.2-.1.4-.6.4s-1.1-.2-1.2-.3c-.2-.1-.3-.1-.3-.1s0 .1.1.1c.1.1.4.3.6.3.2 0 .2.2.2.3 0 .1 0 .3-.4.4-.4.1-.9 0-1.3-.3l-.3-.3v-1c.1 0 .2 0 .4-.1l.4-.4c.1-.1.1-.1.2-.1l.3.1c.1 0 .4-.1.6-.3.2-.3.2-.5.2-.6 0-.1.2 0 .3 0 .1 0 .4 0 .6-.2.3-.2.3-.4.3-.5 0-.1.1-.2.2-.2l.4-.2s.2-.4.2-.5c0-.1.1-.1.5-.3s.3-.6.3-.7c0-.2-.2-.3-.2-.3 0-.1.1-.1.2-.1.1-.1.4-.2.4-.6 0-.5-.3-.5-.3-.5s.1 0 .2-.1.5-.3.5-.6-.1-.4-.2-.5c-.1-.1-.3-.1-.3-.1s.2-.1.2-.3c.1-.2.1-.5-.1-.7.2-.4 0-.4-.2-.4s-.3.1-.3 0c0 0-.1-.1 0-.2 0-.1.1-.4 0-.5 0-.1 0-.3-.4-.4-.3-.1-.7.1-.8.2-.1.1-.1-.1-.1-.2s.2-.4.5-.8.4-.6.7-1.2c.3-.6.5-1.4.5-1.6 0-.2.1-.1.1-.1s.1 0 .3.5c.3.5.3 1 .3 1.3zm-6.1 8.3c.2 0 .5-.1.7-.4.2-.3.5-.4 1.1-.4.5 0 .8-.2.9-.6.1-.4 0-.8-.6-1.1-.5-.3-.8-.6-.8-1 0-.5.5-1 1.1-1.7l1-1.6s.2.2.2.4-.1.4 0 .5l.4-.2c.3-.1.6-.2.8.1.2.2 0 .7-.2.9-.2.2-.3.3-.3.4s.3-.1.4-.2c.1-.1.3-.3.6-.3s.4.1.5.4c0 .3-.3.5-.5.6-.2.1-.3.2-.2.2h.2c.1 0 .4-.1.5 0 .2.1.4.3.2.6s-.8.4-.9.4c-.1 0-.2 0-.2.1s.2.1.5.1.4.3.3.5c0 .2-.5.4-.8.5-.3 0-.4 0-.4.1s0 .1.2.1c.1 0 .4.1.5.3.1.2.1.3-.2.5-.2.2-.6.2-.7.1-.1 0-.2-.1-.3 0-.1.1.1.2.3.3.2.1.2.4-.1.5-.3.2-.6.1-.7.1s-.3-.2-.4-.1c-.1.1.3.2.4.3.1.2.1.5-.2.6-.3.2-.8.1-.9 0-.1-.1-.2-.1-.2 0-.1.1 0 .2.1.4.1.1.2.6-.3.7-.4.2-.8-.2-.9-.3-.1-.1-.1-.1-.2-.1v.2c.1.1.2.4-.1.6-.1.2-.3.2-.5.1-.1-.2-.1-.5-.2-.9h.1v.1l.1.1c.1 0 .1.1.1.1l-.1-.1s-.1-.1-.1-.2 0-.1-.1-.1l-.1-.1c-.1-.2-.1-.5-.1-.9 0-.2 0-.5-.1-.7l.2.1zm8.9-6.5c-.5.9-1.1 1.5-1.1 1.5s.1-.2.1-.4v-.3s.2-.2.5-.7c.3-.5.5-1.2.5-1.2s-.3.7-.5 1.1c-.2.4-.5.7-.5.7s-.1-.3-.2-.3-.1 0-.2.1l-.1.1s.1-.2.2-.3l.2-.3c.2-.3.5-.8.7-1.3.2-.5.6-1.8.7-2.2.1-.4.1-.2.2.1.1.3.2.7.1 1.3 0 .4-.2 1.2-.6 2.1zm-.6 2.5c-.2.1-.4.3-.4.3s0-.1.1-.2v-.3l.3-.3.7-.7c.4-.4.1-.2-.2.1l-.8.8v-.1c0-.1 0-.2-.1-.2-.1-.1 0-.1.3-.3.3-.2 1.1-1.1 1.4-1.7.3-.5.7-1.3.7-1.3s.2 1.1-.5 2.3c-.7 1.1-1.4 1.5-1.5 1.6zm-3.5 6.8c-.4-.1-.3-.5-.3-.5s.2.1.4.1c.2.1.7.2.9.2.2 0 .2 0 .2-.1 0 0-.2 0-.4-.1-.3-.1-.8-.3-.9-.4-.1-.1-.1-.1.1-.1l.3-.1s.2 0 .5.1 1 .2 1.5.2 1-.1 1.1-.1c.1 0 .2 0-.1.4-.2.4-1.1.6-1.7.6-.6.3-1.2-.1-1.6-.2zm1.6-.9c-.6 0-.9-.2-.9-.2l.1-.2c.1-.1.1-.3.1-.3s.1 0 .4.1c.3 0 .6.1.9 0 .3-.1.2-.1-.1-.1-.3 0-.8-.1-.9-.1-.2-.1-.1-.1 0-.1l.4-.2s.8.1 1.5 0 1.2-.3 1.3-.3h.1s0 .1-.2.4c-.2.4-.7.6-1.1.8-.4.2-.9.2-1.6.2zm.2-1.4.1-.2c0-.1-.1-.2-.1-.2s.1 0 .6-.1.5-.1.8-.2c.3-.1.5-.1.5-.2 0 0-.1 0-.3.1-.2.1-.9.1-1.2.2-.3 0-.5.1-.5 0-.1 0-.2-.1-.2-.1s.1 0 .3-.1c.2 0 .3-.1.4-.2.1-.1.1-.1.5-.1l1.4-.4c.7-.3 1.2-.5 1.3-.7.1-.1.1 0 .1.1s0 .3-.4.7c-.3.4-.5.6-1.4.9-.9.5-1.9.5-1.9.5zm2.6-2.1c-.8.5-1.7.7-1.9.8v-.3c0-.1-.1-.1-.3-.1 0 0 .1 0 .4-.1.3-.1.6-.1 1-.3.4-.2.6-.3.5-.3l-.6.3c-.4.1-.8.2-1.1.3-.2.1 0-.1.1-.1l.3-.3s.3 0 .7-.2c.5-.1.8-.3 1.2-.5l.4-.3c.3-.2.5-.4.6-.4.2-.1.1 0 .1 0 0 .1-.1.4-.4.7-.2.1-.3.2-1 .8zm.1-1.6c-.8.6-1.4.8-1.5.8-.1 0-.1 0-.1-.1v-.3s.3-.2.6-.3l.9-.6c.2-.2.1-.1 0-.1l-.7.4c-.3.2-.8.5-.8.5s0-.1-.1-.2h-.2s.1-.1.1-.2.3-.2.6-.3c.3-.1.8-.5 1.2-.8.4-.3 1.1-1.1 1.1-1.2 0-.1.1-.1.1 0v.5c-.1.6-.4 1.3-1.2 1.9zm-2.7-5.7c-.1.2-.2.3-.2.4-.1.2-.2.3-.2.3v-.9c0-.1 0-.2.1-.2 0-.1.1-.5.2-.9.1-.3.1-.8.1-1.2 0-.4-.1-.2-.1 0s0 .5-.1.9c-.1.5-.3 1.1-.3 1.1s0-.1-.1-.3c-.1-.2-.2-.3-.2-.5-.1-.2 0-.2 0-.2s.3-1.3.3-1.9c.1-.6.2-2.2.2-2.2.4.4.7 1.4.7 2.4 0 .7-.1 1.4-.1 1.7 0 .8-.1 1.3-.3 1.5zm.9 2.1c0-.3-.1-.5-.3-.6 0 0 .2-.3.3-.7.1-.3.2-.6.2-.9.1-.7.2-1.4 0-.2l-.4 1.6-.3.5c0-.2.1-.4 0-.6 0-.2 0-.5-.1-.8 0 0 .4-.7.6-1.6.2-.9.4-1.6.4-2.1v-.6s.4.3.5 1.7c.1 1.4-.2 2.7-.4 3.2-.2.4-.5 1.1-.5 1.1zm-4 10.6s.1 0 .2-.2c.2-.1.1-.4.1-.4l.2.1.4.3c.2.1.3.1.4.2.1 0 .1 0 0-.1s-.1-.1-.4-.2c-.2-.1-.7-.5-.7-.5h.3l.4-.1s.2.2 1 .5l1.4.4s-.1.4-.5.5c-.3.1-.7.2-1.6 0-.7-.1-1.2-.5-1.2-.5zm-1 .8c-.1-.3.1-.6.1-.6l.2.1c.1.1.3.3.6.5s.4.2.1 0c-.3-.2-.8-.6-.8-.6h.1c.1 0 .3 0 1.2.6.9.5 1.4.5 1.4.5s-.4.5-1.4.4c-1.1-.1-1.5-.6-1.5-.9zm-2-.4s.1.2.3.3c.1.1.5.2.5.2l.1.2.4.5c.2.1.5.2.5.2s-.2-.1-.3-.2c-.2-.1-.3-.3-.5-.5-.1-.2.1-.2.1-.2h.4c.2 0 .2 0 .2.1.1.1.1.2.3.4.2.2.4.4.5.6.1.1 0 .2 0 .2s-.1.1-.5.1c-.3 0-.6 0-.9-.2-.2-.1-.4-.3-.6-.5-.6-.7-.5-1.2-.5-1.2zm-.3 1.3c.1.2.2.2.2.2s-.1-.2-.1-.3l-.1-.2.2-.6c.1.2.2.7.4 1 .2.4.5.5.3.6-.1.1-.4.1-.7 0-.3-.1-.4-.4-.4-.6.1-.1.1-.2.1-.3l.1.2z"/><circle fill="#D4AF38" cx="49" cy="18.3" r=".2"/><path fill="#D4AF38" d="m49.5 17.9-.5-.1c-.3 0-.6.2-1 .4-.3.1-.8.2-1.2.1-.1 0-.2-.1-.3-.2-.5-.3-.4-.9-.4-.9.4.3.8.4 1.3.4l-.1.1-.3.3s.2-.1.4-.3c.2-.1.4-.3.8-.4.4-.1.8-.1 1.1 0 .3.2.3.4.3.5 0 .1-.1.1-.1.1zm-5.6 4.2c.1 0 .2 0 .5-.2l.8-.8c.1-.1 0-.2-.1-.2l-.2-.2s.3-.1.5-.3c.2-.1.7-.6.8-.7s0-.1-.1-.2c-.1 0-.1-.1-.1-.1s.2-.1.4-.3c.2-.2.5-.4.5-.4.3.1.8.1 1.1 0 .5-.1.8-.3.8-.3s0 .1.1.2.3.2.5.1l.2-.4s.2-.1.5-.2.6-.1.9 0c.3.1.4.5.4.8 0 .3-.2.2-.2.1 0 0-.1-.3-.5-.3-.4-.1-.7.1-1.1.5-.4.3-.5.4-.7.6-.2.2 0 .3.3.4l.8-.1c.1 0-.2.3-.5.5-.3.1-.7 0-1-.1-.2-.1-.2 0-.3.1-.3.4-.4.7-.5 1.1-.2-.1-.3-.2-.3-.4 0-.1 0-.2-.1-.1s-.2.7-.2 1l.1.6h-.1s-.1-.1-.3-.1c-.1-.1-.1 0-.1.2s0 .4-.2.9l-.5.7s-.1-.1-.1-.3c-.1-.2-.1-.6-.1-.9l.1-1.1s-.4.5-.8.6c-.4.1-.9 0-1-.2-.5-.4-.3-.5-.2-.5zm2.8 1.3s.1.3.2.4l.1.1s-.1.1-.3.2c-.2.1-.4.1-.4.1s.2-.3.3-.5c.1-.2.1-.3.1-.3zm-2.6-.1c.1-.2.1-.3.1-.3.3.1.8-.1 1-.2 0 0-.2.4-.4.5l-.2.1s.2 0 .5-.2c.3-.3.4-.6.4-.6s-.1.7 0 1.1c.1.4.1.5.1.5s-.6.1-1.2-.1l-.7-.2s-.1 0 0-.2c.2 0 .4-.3.4-.4z"/><path fill="#B96C29" d="M45.3 21.7c.2-.2.2-.3.2-.3s.1.1 0 .2-.3.3-.5.4c-.2.1-.4.1-.4.1 0 .1.5-.2.7-.4zm.7 1.5v-1c0-.1.1-.1.1-.1h.1s-.2 1.1-.2 1.3c0 .1-.1.1-.1.1.1 0 .1-.3.1-.3zm1.2-3.8c.1-.1.2-.1 0 0-.1.2-.3.4-.3.6-.1.2-.1.4 0 .4s.2 0 .3-.1l.4-.3c.1 0 .2 0 .1.1s-.2.3-.5.4c-.2.2-.4.2-.5.3l-.2.2s.1-.7.3-1c.2-.4.3-.5.4-.6zm3.9 11.9c.1.1.3.2.3.2h.1-.2c-.1 0-.3-.1-.3-.2-.1 0-.1-.1-.1-.2 0 0 0 .1.2.2zm-1.3.7.3.2s.1 0 .2.1c.1 0 .1.1.1.1h-.1c-.1-.1-.4-.2-.5-.4zm5.1-9c0 .1-.1.1-.1.1-.1 0-.1 0 .1-.1v-.1s.1-.1.1-.2c0 .2-.1.3-.1.3zm.3.9-.2.2-.1.1s.1-.1.1-.2c.1-.1.2-.2.2-.1l.2-.2-.2.2zm-.1 1.3c-.1.1-.2.1-.3.1 0 0 0-.1.1-.1s.2-.1.3-.2l.2-.1.1-.1s-.1.2-.2.2c0 .1-.1.1-.2.2zm-.3 1.1c.1-.1.3-.1.3-.1s.2-.1.2 0c0 0-.1.1-.2.1h-.3c.1.1 0 .1 0 0zm-.1 1.2h.3s-.1.1-.2.1h-.4c-.1 0-.1 0-.1-.1h.4zm-1.3 1.3h.2c.1 0 .2.1.3 0h.4-.8c-.1.1-.1 0-.1 0zm-.6.9h.7-.4c-.1 0-.2 0-.3-.1-.1 0-.2-.1-.1-.1-.1.1 0 .2.1.2zm-1 .7c.1.1.3.2.3.2l.1.1c.1 0 .1.1.1.1s-.1 0-.1-.1c0 0-.2-.1-.3-.2-.2 0-.3-.1-.1-.1zm1.7-9-.2.3c-.2.2-.1 0 0 0 0-.1.3-.4.4-.5.1-.1.1-.1.1 0-.1 0-.3.2-.3.2zm.4 1.2s0-.1.1-.2l.3-.4.1-.1s-.1.2-.2.3c-.1.1-.2.3-.3.3s.1.1 0 .1zm-.5 2.2c0-.1.2-.1.3-.1.1 0 .3-.1.3-.1h.2l-.1.1-.4.1c-.2.1-.3.1-.3 0zm.5-1.2c-.1.1-.2.2-.3.2l-.2.1s0-.1.2-.1c.1-.1.2-.1.2-.1s0-.1.1-.1c.1-.1.2-.1 0 0zm-1.2-.8c.1-.1.2-.1.2-.1l.1-.1c0 .1-.1.2-.3.2 0 .1-.1.2-.1.2-.1 0 0-.1.1-.2zm.8 3.1h.2s.1.1-.1.1c-.1 0-.2 0-.3-.1-.1 0-.2 0-.2-.1h.1c.2.1.3.1.3.1zm-.2 1.1h-.2l-.3-.1c-.1 0-.1 0-.1-.1h.2c.2.1.3.2.4.2zm-1.4.7-.1-.1.1.1c.1 0 .3.1.3.1s.1 0 .1.1c.1 0 .1.1.1.1s-.1 0-.2-.1c-.1 0-.2-.1-.3-.2zm-.7.9-.2-.1c-.1 0-.1-.2 0-.2 0 0 .1 0 .2.1l.4.3h.1c.1 0 0 .1 0 .1-.1 0-.1 0-.2-.1-.2 0-.3 0-.3-.1zm-1 .9c-.1 0-.2-.1-.3-.2-.1-.1-.1-.1-.1-.2 0 0 .1 0 .2.1l.2.3c.1 0 .1 0 .2.1-.1-.1-.1-.1-.2-.1z"/><path fill="#D4AF38" d="m46.1 16.7-.4-.3.4-.1.3.2z"/><circle fill="#B96C29" cx="44.8" cy="16.3" r=".4"/><circle fill="#D4AF38" cx="44.8" cy="16.2" r=".2"/><path fill="#D4AF38" d="M45.6 15h-.2s0-.2.1-.3c.1-.1.2-.1.2-.2l.1-.1v.2c-.1.3-.1.4-.2.4z"/><circle fill="#D4AF38" cx="45.4" cy="15.2" r=".1"/><path fill="#D4AF38" d="m45.9 15.2.1.1h-.1l-.2.1c-.1 0-.1-.1-.1-.1 0-.1.1-.1.2-.2 0 0 .1 0 .1.1zm-.3.4c.2 0 .6-.2.6-.2 0 .2.2.3.4.4 0 0-.2.1-.4.1h-.3l-.4-.1c-.1-.1-.1-.3-.1-.3s0 .1.2.1zm1-.2.3-.1c.1 0 .2 0 .1.1 0 .1-.1.2-.2.2-.1-.1-.2-.1-.2-.2zm.7-.4c.1-.1.2-.1.2-.1s.1.2 0 .3c0 .1-.1.1-.2.1s-.3-.1-.2-.1c.1-.1.1-.2.2-.2z"/><circle fill="#D4AF38" cx="47.2" cy="15.5" r=".1"/><path fill="#D4AF38" d="M47 14.5c.1-.3.1-.7-.2-1.1-.3-.4-.8-.6-.8-.6l-.2-.2c-.2-.2-.5-.4-.5-.4s.4.1.6.2c0 .2.1.3.3.3h.2c.1 0 .5.3.6.4v.1c0 .2.1.3.3.3h.1v.1c.1.2.1.3.2.4-.1 0-.1.1-.1.2 0 .2.1.3.2.3v.2c0 .1 0 .1-.2.2-.2 0-.4.3-.4.3-.1-.1-.2-.3-.1-.7zm-1-2c-.1 0-.1-.1 0-.2h.2c.1 0 .1.1 0 .2H46zm1.1.7c-.1-.1-.1-.2-.1-.2.1-.1.1 0 .2 0 .1.1.1.1 0 .2h-.1z"/><circle fill="#D4AF38" cx="47.7" cy="14" r=".2"/><path fill="#D4AF38" d="m44.3 11.9.5.2c-.2 0-.3.1-.3.2s.1.3.3.3.3-.1.3-.3v-.1l.2.1c.5.3.6.5.9 1 .2.5.3 1 .2 1.3-.1.3-.5.4-.5.4l.1-.1v-.4s-.1 0-.1.1l-.2.2-.2.2s-.1-.1-.1-.2.1-.3.1-.5-.1-.7-.3-1c-.2-.3-.7-.6-.8-.7l-.2-.2v-.2c-.2-.4-.1-.4.1-.3zm.5.5c-.1 0-.2-.1-.2-.2s.1-.1.2-.1l.2.1c-.1.1-.1.2-.2.2zm-.8 2.9h-.3c-.1 0-.1-.2 0-.2.1-.1.2-.1.3 0 .1 0 .2.2.2.2H44zm-.4.2c0 .1.1.1.2.1s.3 0 .4-.1c.1-.1.1-.2.1-.2h.2s0 .2.1.3c.1.1.3.1.4 0l.2-.2s0 .1-.1.2-.2.1-.3.1h-1s-.2 0-.3-.1c0-.1 0-.2.1-.1zm1.5-.2c-.1.1-.2 0-.3 0l-.1-.1s.1 0 .2-.1l.2-.1h.1s0 .2-.1.3z"/><circle fill="#B96C29" cx="45.8" cy="13.9" r=".3"/><path fill="#B96C29" d="M45.2 12.8c.1-.1.3-.1.4.1.1.1.1.3 0 .4-.1.1-.3.1-.4-.1-.1-.1-.1-.3 0-.4z"/><circle fill="#D4AF38" cx="45.8" cy="13.8" r=".2"/><path fill="#D4AF38" d="M45.4 12.8c.1 0 .2 0 .2.1s0 .2-.1.2c-.2 0-.3-.2-.1-.3z"/></svg>
