<svg xmlns="http://www.w3.org/2000/svg" width="85" height="57"><path fill="#FFF" d="M-.02 0h85.04v56.69H-.02z"/><path fill="#3E9745" d="m17.758 56.69 67.262-46v46"/><path fill="#204291" d="M67.242 0-.02 46.002V0"/><path fill="#DC2D27" d="M73.027 0-.02 49.85v6.84H11.7L85.02 6.524V0"/><path fill="#FFDE00" d="m22.053 18.592 1.824-.713 2.24-.876-2.24-.877-1.822-.71 1.23-1.52L24.8 12.03l-2.382.345-2.018.3.297-2.02.35-2.38-1.87 1.512-1.522 1.232-.71-1.825-.876-2.24-.876 2.24-.71 1.822-1.52-1.232-1.87-1.512.348 2.38.297 2.02-2.02-.3-2.38-.35 1.512 1.87 1.232 1.522-1.824.712-2.24.877 2.24.875 1.822.71-1.232 1.517-1.514 1.87 2.38-.35 2.02-.294-.298 2.018-.35 2.382 1.87-1.514 1.522-1.23.713 1.824.875 2.24.877-2.24.71-1.822 1.52 1.23 1.868 1.514-.348-2.38-.3-2.02 2.02.298 2.382.35-1.512-1.87-1.232-1.52zm-5.987 4.392a5.98 5.98 0 1 1 5.982-5.98 5.98 5.98 0 0 1-5.982 5.98zm4.782-5.98a4.78 4.78 0 1 1-9.56 0 4.78 4.78 0 0 1 9.56 0z"/></svg>
