<svg xmlns="http://www.w3.org/2000/svg" width="87" height="57"><path fill="#DA1F26" d="M-1 0h114.6v57.3H-1z"/><path fill="#fff" d="M27.6 0h85.9v19.1H27.6z"/><path fill="#0F8140" d="M27.6 38.2h85.9v19.1H27.6z"/><g fill="#fff" stroke="#DA1F26"><path d="M5.6 9.8h3.1c.1 0 .3.1.3.3v1.5c0 .2-.1.3-.3.3H5.6c-.2 0-.3-.1-.3-.3v-1.5c0-.2.1-.3.3-.3zm.1.1h2.9c.2 0 .3.1.3.3v1.3c0 .1-.1.3-.3.3H5.7c-.2 0-.3-.1-.3-.3v-1.3c0-.2.1-.3.3-.3zm1.3.5h.2v.1l.1.1.1-.1.1.1-.1.1v.1h.2v.1h-.1v.1l.1.1-.1.1-.1-.1h-.2v.1H7v-.1l-.2-.1-.1.1-.1-.1h.1l-.1-.1h-.2v-.2h.1l.1-.1-.1-.1.1-.1.1.1.3-.1z"/><circle cx="7.1" cy="10.8" r=".2"/><path d="m5.9 10-.3.3M6 10l-.3.3m.5-.3-.2.2m.4-.2-.3.3m.5-.3-.3.3m.5-.3-.3.3M7 10l-.3.3m.5-.3-.3.3m.5-.3-.3.3m.5-.3-.3.3m.5-.3-.3.3m.4-.3-.3.3m-.4-.3-.3.3m1.2-.3-.3.3m.5-.3-.3.2m.5-.2-.3.3m.5-.3-.3.3m0-.3.3.3m-.5-.3.3.3M8 10l.3.3m-.5-.3.3.3m-.4-.3.3.3m-.5-.3.3.3m-.5-.3.3.3m-.5-.3.3.3m-.5-.3.3.3m-.5-.3.3.2m-.5-.2.3.3m-.5-.3.3.3m.5-.3.3.3M6.1 10l.3.3M6 10l.3.3m-.5-.3.2.2m-.4-.2.3.3m0 1.1-.3.3m.4-.3-.3.3m.5-.3-.2.3m.4-.3-.3.3m.5-.3-.3.3m.5-.3-.3.3m.5-.3-.3.3m.5-.3-.3.3m.5-.3-.3.3m.5-.3-.3.3m.5-.3-.3.3m.4-.3-.3.3m-.4-.3-.3.3m1.2-.3-.3.3m.5-.3-.3.3m.5-.3-.3.3m.5-.3-.3.3m0-.3.3.3m-.5-.3.3.3m-.5-.3.3.3m-.5-.3.3.3m-.4-.3.3.3m-.5-.3.3.3m-.5-.3.3.3m-.5-.3.3.3m-.5-.3.3.3m-.5-.3.3.3m-.5-.3.3.3m-.5-.3.3.3m.5-.3.3.3m-1.3-.3.3.3m-.4-.3.3.3m-.5-.3.2.3m-.4-.3.3.3"/></g><g fill="#fff" stroke="#DA1F26" transform="scale(-1 1)"><path d="M21.1 9.8H18c-.2 0-.3.1-.3.3v1.5c0 .2.1.3.3.3h3.1c.2 0 .3-.1.3-.3v-1.5c0-.2-.2-.3-.3-.3zm-.1.1h-2.9c-.2 0-.3.1-.3.3v1.3c0 .1.1.3.3.3H21c.2 0 .3-.1.3-.3v-1.3c0-.2-.2-.3-.3-.3zm-1.4.5h-.2v.1l-.1.1-.1-.1-.1.1.1.1v.1H19v.1h.1l.1.1-.2.1.1.1.1-.1h.2v.1h.2v-.1l.2-.1.1.1.1-.1.1-.1h.1v-.2h-.1l-.1-.1.1-.1-.1-.1-.1.1-.3-.1z"/><circle cx="19.6" cy="10.8" r=".2"/><path d="m20.8 10 .3.3m-.5-.3.3.3m-.5-.3.3.3m-.5-.3.3.3M20 10l.3.3m-.5-.3.3.3m-.4-.3.3.3m-.5-.3.3.3m-.5-.3.3.3m-.5-.3.3.3m-.5-.3.3.3m-.5-.3.3.3m.5-.3.3.3m-1.3-.3.3.3m-.5-.3.3.3m-.5-.3.3.3M18 10l.3.3m-.1-.3-.2.2m.4-.2-.3.3m.5-.3-.3.3m.5-.3-.3.3m.5-.3-.3.3m.5-.3-.3.3m.5-.3-.3.3m.5-.3-.3.3m.5-.3-.3.3m.4-.3-.3.3m.5-.3-.3.3m.5-.3-.3.2m-.4-.2-.3.3m1.2-.3-.3.3m.5-.3-.3.3m.5-.3-.3.3m.5-.3-.3.3m0 1.1.3.3m-.5-.3.3.3m-.5-.3.3.3m-.5-.3.3.3m-.5-.3.3.3m-.5-.3.3.3m-.4-.3.3.3m-.5-.3.3.3m-.5-.3.3.3m-.5-.3.3.3m-.5-.3.3.3m-.5-.3.3.3m.5-.3.3.3m-1.3-.3.3.3m-.5-.3.3.3m-.5-.3.3.3m-.4-.3.3.3m-.1-.3-.2.3m.4-.3-.3.3m.5-.3-.3.3m.5-.3-.3.3m.5-.3-.3.3m.5-.3-.3.3m.5-.3-.3.3m.5-.3-.3.3m.5-.3-.3.3m.4-.3-.3.3m.5-.3-.3.3m.5-.3-.3.3m-.4-.3-.3.3m1.2-.3-.3.3m.5-.3-.3.3m.5-.3-.3.3m.5-.3-.3.3"/></g><path fill="#fff" stroke="#DA1F26" stroke-width=".081" d="M11.1 14c-4.6 4.5-6.6 5.1-5.6 5.4s3.9-2 7-5c3.1-3.1 5-5.8 4-6.2-1-.3-.5 1.1-5.4 5.8z"/><path fill="#fff" stroke="#DA1F26" stroke-width=".063" d="m7.2 17.3 1.6.4c-1.5 1.4-3.2 2-3.7 1.8-.4-.2.9-.8 2.1-2.2zm0 .2 1.3.3c-1.5 1.4-2.9 1.8-3.3 1.6l2-1.9z"/><path stroke="#DA1F26" stroke-width=".063" d="M12.2 13.9v.3s0 .1-.1.1l-.1.1s-.1 0-.1.1h-.1l-.1-.1v-.1.2m0 .1c-.1-.1-.2-.1-.2-.1h-.4s-.1 0-.1.1c0 0-.1 0-.1.1l-.1.1-.1.1h.1-.4m.7.2h-.2s-.1 0-.1-.1v.1c0 .1 0 .1-.1.1 0 0-.1 0-.1.1 0 0-.1 0-.1.1 0 0-.1 0-.1.1 0 0 0 .1-.1.1v.1s0 .1.1.1c0 0 .1.1 0 .1h-.1m0-.1s-.1 0-.2-.1h-.2l-.1.1-.1.1v.2s0 .1.1.1m0 .3-.1.1h-.1l-.1-.1v-.1l-.1-.1h.1v.3l-.1.1-.1.1H9s-.1 0-.1-.1l-.1-.1h-.1l-.1.1h-.1m.4.2.1.1v.1c0 .1 0 .1-.1.1l-.1.1h-.3s-.1 0-.1-.1l-.1-.1s0-.1-.1-.1c0 0 0 .1.1.1v.3m-1 .4c0 .1.1.1.2.1l.2-.1c.1 0 .1 0 .2.1.1 0 .1 0 .1.1v.1l-.2.1h-.2c-.1 0-.1.1-.1.2v.1h-.2s0-.1-.1-.2c0-.1 0-.1-.1-.2L7 18s-.1 0-.1-.1c.1 0 .1.1.1.1h-.2c-.1 0-.1 0-.2-.1 0 .1 0 .1-.1.2 0 0 0 .1-.1.1 0 .1 0 .1.1.2 0 .1 0 .1.1.1h.1-.2l-.1-.1-.2-.1H6l-.1.1v.3s-.1.1-.2.1h-.2" fill="none"/><path fill="#fff" stroke="#DA1F26" stroke-width=".064" d="M16.3 10c2-3.5 3.4-6.5 3-6.7C19 3.1 17 5.9 15 9.4l1.3.6z"/><path fill="#fff" stroke="#DA1F26" stroke-width=".056" d="M16.2 9.9c2-3.4 3.3-6.3 3-6.4-.3-.1-2.1 2.5-4.1 5.9"/><path fill="#fff" stroke="#DA1F26" stroke-width=".064" d="m15.9 8.2-.7 1.3 1.1.5.7-1.3c-.1 0-1.1-.5-1.1-.5zm0 .1c-.2.4-.4.7-.7 1.1l.8.4c.2-.4.4-.7.7-1.1.1 0-.8-.4-.8-.4zm.6.5-.5-.3-.5.8.6.3zm0 0-1 .6m.6.2L16 8.5m3-3.9-.5-.2"/><ellipse transform="rotate(-104.41 18.923 4.032)" fill="#DA1F26" stroke="#DA1F26" stroke-width=".191" cx="18.9" cy="4" rx=".1" ry=".2"/><g stroke="#DA1F26"><path fill="#fff" d="M15.6 14c4.6 4.5 6.6 5.1 5.6 5.4s-3.9-2-7-5c-3.1-3.1-5-5.8-4-6.2.9-.3.5 1.1 5.4 5.8zm3.8 3.3-1.6.4c1.5 1.4 3.2 2 3.7 1.8.5-.2-.8-.8-2.1-2.2zm0 .2-1.3.3c1.5 1.4 2.9 1.8 3.3 1.6l-2-1.9z"/><path d="M14.5 13.9v.3s0 .1.1.1l.1.1s.1 0 .1.1h.1l.1-.1v-.1.2m-.1.1c.1-.1.2-.1.2-.1h.4s.1 0 .1.1c0 0 .1 0 .1.1l.1.1.1.1h-.1.4m-.6.2h.2s.1 0 .1-.1v.1c0 .1 0 .1.1.1 0 0 .1 0 .1.1 0 0 .1 0 .1.1 0 0 .1 0 .1.1 0 0 0 .1.1.1v.1s0 .1-.1.1c0 0-.1.1 0 .1h.1m-.1-.1s.1 0 .2-.1h.3l.1.1.1.1v.2s0 .1-.1.1m0 .3.1.1h.1l.1-.1v-.1l.1-.1h-.1v.3l.1.1.1.1h.3s.1 0 .1-.1l.1-.1h.1l.1.1h.1m-.4.2-.1.1v.1c0 .1 0 .1.1.1l.1.1h.3s.1 0 .1-.1l.1-.1s0-.1.1-.1c0 0 0 .1-.1.1v.3m.9.4c0 .1-.1.1-.2.1l-.2-.1c-.1 0-.1 0-.2.1-.1 0-.1 0-.1.1v.1l.2.1h.2c.1 0 .1.1.1.2v.1h.2s0-.1.1-.2c0-.1 0-.1.1-.2l.1-.1s.1 0 .1-.1c-.1 0-.1.1-.1.1h.2c.1 0 .1 0 .2-.1 0 .1 0 .1.1.2 0 0 0 .1.1.1 0 .1 0 .1-.1.2 0 .1 0 .1-.1.1h-.1.2l.1-.1.2-.1h.2l.1.1v.3s.1.1.2.1h.2" fill="none"/><path fill="#fff" d="M10.3 10c-2-3.5-3.4-6.5-3-6.7.4-.2 2.3 2.5 4.4 6.1l-1.4.6zm.2-.1c-2-3.4-3.3-6.3-3-6.4.2-.1 2.1 2.5 4 5.9m-.7-1.2.7 1.2-1.1.5-.7-1.3c0 .1 1.1-.4 1.1-.4zm-.1.1c.2.4.4.7.7 1.1l-.8.4c-.2-.4-.4-.7-.7-1.1l.8-.4zm-.6.5.6-.3.4.8-.5.3zm0 0 1 .6m-.5.2.1-1.1m-3-3.9.5-.2"/><ellipse transform="rotate(-75.59 7.716 4.034)" fill="#DA1F26" cx="7.7" cy="4" rx=".1" ry=".2"/></g><path fill="#fff" stroke="#DA1F26" stroke-width=".058" d="M11.9 8.1c0 3 0 4.1-.2 4.2-.2.2-6 0-6 .8s4.7 1.7 6.2 1.7c1.9 0 2.8-.8 2.8-2.5V8.1h-2.8z"/><path fill="#fff" stroke="#DA1F26" stroke-width=".05" d="M11.9 9v.4c.9.1 1.9.1 2.8 0V9c-.9.1-1.8.1-2.8 0zm0-.9v.4c.9.1 1.9.1 2.8 0v-.4c-.9.2-1.8.2-2.8 0zm0 .4V9c.9.1 1.9.1 2.8 0v-.5c-.9.2-1.8.2-2.8 0zm0 .9v.4c.9.1 1.9.1 2.8 0v-.4c-.9.1-1.8.1-2.8 0z"/><circle fill="#fff" stroke="#DA1F26" stroke-width=".852" cx="12" cy="8.8" r=".1"/><circle fill="#fff" stroke="#DA1F26" stroke-width=".852" cx="12.6" cy="8.8" r=".1"/><circle fill="#fff" stroke="#DA1F26" stroke-width=".852" cx="13.1" cy="8.9" r=".1"/><circle fill="#fff" stroke="#DA1F26" stroke-width=".852" cx="13.6" cy="8.9" r=".1"/><circle fill="#fff" stroke="#DA1F26" stroke-width=".852" cx="14.1" cy="8.8" r=".1"/><circle fill="#fff" stroke="#DA1F26" stroke-width=".852" cx="14.6" cy="8.8" r=".1"/><path d="m11.9 10.2 2.8 2.3m-2.5-2.3 2.6 2m-2.2-1.9 2.2 1.7m-1.9-1.7 1.9 1.4m-1.7-1.4 1.6 1.2m-1.3-1.2 1.3.9m-1-.9 1 .7m-.7-.7.8.5m-.5-.5.5.3m-.2-.3.2.2m-2.9 0 2.8 2.3m.1-2.6-3.1 2.5m2.8-2.5-2.7 2.2m2.3-2.1L11.9 12m1.9-1.7-1.9 1.4m1.6-1.4-1.6 1.2m1.3-1.2-1.3.9m1.1-.9-1 .7m.7-.7-.8.5m.5-.5-.5.3m.2-.3-.2.2m2.9 0L11.6 13m3.2-2.3-3.1 2.5m3.1-2.2-3.1 2.5m3.1-2.3-3.1 2.5m3.1-2.2L11.6 14m3.2-2.3-3.1 2.5m3.1-2.2-3.1 2.5m3.1-2.2-3.1 2.5m3.1-2.3-2.9 2.4m2.9-2.1-2.7 2.1m2.6-1.8-2.1 1.7m2-1.4-1.7 1.4m1.5-.9-.9.7m-1.6-3.9 2.7 2.2M11.9 11l2.7 2.2m-2.7-2 2.7 2.1m-2.7-1.8 2.7 2.1m-2.7-1.9 2.6 2m-2.7-1.8 2.6 2m-2.6-1.7 2.4 1.9m-2.5-1.8 2.4 1.9m-2.5-1.7 2.3 1.8m-2.3-1.5 2.2 1.7M11.6 13l1.9 1.5m-1.6-4.7v.4c.9.1 1.9.1 2.8 0v-.4c-.9.1-1.8.1-2.8 0zm-.3 3.5 1.7 1.4m-1.7-1.2 1.5 1.2m-1.5-.9 1.3 1m-1.3-.8.9.8m-.9-.5.8.6m-.8-.4.5.3" fill="#fff" stroke="#DA1F26" stroke-width=".05"/><circle fill="#fff" stroke="#DA1F26" stroke-width=".852" cx="12" cy="10" r=".1"/><circle fill="#fff" stroke="#DA1F26" stroke-width=".852" cx="12.6" cy="10.1" r=".1"/><circle fill="#fff" stroke="#DA1F26" stroke-width=".852" cx="13.1" cy="10.1" r=".1"/><circle fill="#fff" stroke="#DA1F26" stroke-width=".852" cx="13.6" cy="10.1" r=".1"/><circle fill="#fff" stroke="#DA1F26" stroke-width=".852" cx="14.1" cy="10.1" r=".1"/><circle fill="#fff" stroke="#DA1F26" stroke-width=".852" cx="14.6" cy="10" r=".1"/><path d="m7.8 14.2 3.4-1.8m-3.5 1.7 3.2-1.7m-3.3 1.5 2.9-1.5m-3 1.4 2.6-1.4m-2.8 1.2 2.4-1.2m-2.3.9 1.6-.8m-1.7.7 1.2-.7m-1.2.4.9-.4m-.1 1.8 3.2-1.7m-2.9 1.8 3-1.6m-2.7 1.6 2.8-1.5M9 14.5l2.4-1.3m-2 1.3 2.1-1.1m-1.9 1.2 1.8-.9m-1.5 1 1.4-.8m-1 .8 1.1-.6m-.7.7.8-.4m-.4.4.5-.3m.1-2.2h-.5c-.2.8-.2 1.7 0 2.5h.5c-.1-.8-.1-1.6 0-2.5zm-5.6 1.2 1.1-.8m-1.1.2 1.1 1" fill="#fff" stroke="#DA1F26" stroke-width=".05"/><path fill="#fff" stroke="#DA1F26" stroke-width=".036" d="m7.8 12.5-.6.1c-.1.5-.1 1 0 1.5l.6.2c-.1-.6-.1-1.3 0-1.8z"/><path fill="#fff" stroke="#DA1F26" stroke-width=".062" d="M14.8 8.3v-.4c-.4 0-.7-.2-.7-.5h-1.4c0 .3-.3.5-.7.5v.4h2.8z"/><path fill="#fff" stroke="#DA1F26" stroke-width=".052" d="M12.7 6.8h1.2v.5h-1.2zm.1-.5h1v.5h-1zm0-.5h1v.5h-1zm.1-.6h.8v.7h-.8z"/><path fill="#fff" stroke="#DA1F26" stroke-width=".054" d="M12.9 4.6h.9v.6h-.9z"/><ellipse fill="#fff" stroke="#DA1F26" stroke-width=".191" cx="13.4" cy="4" rx="1.2" ry=".8"/><path fill="#fff" stroke="#DA1F26" stroke-width=".051" d="M14 4c0 .2.3.6.3.6-.2.1-.6.3-.9.3s-.7-.1-.9-.3c0 0 .3-.4.3-.6 0-.2-.3-.5-.3-.5.2-.1.6-.3.9-.3s.7.1.9.3c0 0-.3.3-.3.5zm-.2 0c0 .2.3.7.3.7-.2.1-.4.2-.7.2s-.5 0-.7-.2c0 0 .3-.5.3-.7 0-.2-.3-.6-.3-.6.2-.1.4-.2.7-.2s.5 0 .7.2c0 0-.3.4-.3.6z"/><circle fill="#fff" stroke="#DA1F26" stroke-width=".191" cx="12.2" cy="4.1" r=".3"/><circle fill="#fff" stroke="#DA1F26" stroke-width=".191" cx="14.6" cy="4.1" r=".3"/><circle fill="#fff" stroke="#DA1F26" stroke-width=".191" cx="13.4" cy="4.1" r=".3"/><circle fill="#fff" stroke="#DA1F26" stroke-width=".191" cx="13.4" cy="3.2" r=".3"/><circle fill="#fff" stroke="#DA1F26" stroke-width=".191" cx="12.5" cy="8" r=".3"/><circle fill="#fff" stroke="#DA1F26" stroke-width=".191" cx="14.1" cy="8" r=".3"/><path fill="#fff" stroke="#DA1F26" stroke-width=".052" d="M12.6 7.4H14l-.7.8c0-.1-.7-.8-.7-.8z"/><ellipse fill="#fff" stroke="#DA1F26" stroke-width=".191" cx="13.3" cy="7.9" rx=".4" ry=".3"/><path fill="#fff" stroke="#DA1F26" stroke-width=".063" d="M11.9 10.5h1.9c.1 0 .1 0 .1.1v.3l-.1.1h-1.9c-.1 0-.1 0-.1-.1v-.3c0-.1 0-.1.1-.1zm2.7-.4c-.3 0-.5.2-.5.4v.4c0 .2.2.4.5.4s.5-.2.5-.4v-.4c0-.2-.2-.4-.5-.4zm0 .1c-.2 0-.3.2-.3.4v.2c0 .2.1.4.3.4s.3-.2.3-.4v-.2c0-.2-.1-.4-.3-.4zm-2.4-.1c-.2 0-.3.2-.3.4v.4c0 .2.1.4.3.4s.3-.2.3-.4v-.4c-.1-.2-.2-.4-.3-.4zm0-.1c-.3 0-.5.2-.5.4v.6c0 .2.2.4.5.4s.5-.2.5-.4v-.6c-.1-.2-.3-.4-.5-.4zm-.8.3c-.2 0-.3.2-.3.4v.1c0 .2.1.4.3.4s.3-.2.3-.4v-.1c0-.2-.1-.4-.3-.4zm0-.2c-.3 0-.5.2-.5.4v.3c0 .2.2.4.5.4s.5-.2.5-.4v-.3c0-.2-.2-.4-.5-.4zm-1.1 0c-.3 0-.5.2-.5.4v.4c0 .2.2.4.5.4s.5-.2.5-.4v-.4c0-.2-.3-.4-.5-.4zm0-.2c-.5 0-.9.2-.9.5v.6c0 .3.4.5.9.5s.9-.2.9-.5v-.6c-.1-.3-.5-.5-.9-.5zm6.1.3c-.3 0-.5.2-.5.4v.4c0 .2.2.4.5.4s.5-.2.5-.4v-.4c0-.3-.2-.4-.5-.4zm0-.2c-.5 0-.9.2-.9.5v.6c0 .3.4.5.9.5s.9-.2.9-.5v-.6c0-.3-.4-.5-.9-.5zm-1.5.5h1s.1 0 .1.1v.3s0 .1-.1.1h-1s-.1 0-.1-.1l.1-.4zm-1.1-.1h.6v.7h-.6v-.7zm-3.1 0h.6v.7h-.6v-.5c-.1-.2 0-.2 0-.2zm-2.1-.1h1.2l.1.1v.6c0 .1 0 .1-.1.1H8.6l-.1-.1v-.5c.1-.1.1-.2.1-.2zm8.3.1H18l.1.1v.5c0 .1 0 .1-.1.1h-1.1l-.1-.1v-.5s0-.1.1-.1z"/></svg>
