<svg xmlns="http://www.w3.org/2000/svg" width="85" height="57"><path fill="#0B4120" d="M21.643.153h63.305v56.693H21.643z"/><path fill="#FFF" d="M.053.153h21.59v56.693H.053zM57.79 40.146c-8.526 0-15.44-6.912-15.44-15.438 0-5.047 2.423-9.53 6.17-12.346-6.956 2.137-12.013 8.61-12.013 16.266 0 9.398 7.617 17.014 17.014 17.014 7.15 0 13.27-4.41 15.788-10.66a15.388 15.388 0 0 1-11.52 5.164zm1.565-24.356 2.795 3.05 3.932-1.73-2.162 3.737 2.746 3.035-4.066-.73-2.207 3.494-.39-4.075-4.19-.938L59.75 19.9"/></svg>
