<svg xmlns="http://www.w3.org/2000/svg" width="87" height="57"><path fill="#1D439B" d="M-9 0H95v57.2H-9z"/><path fill="#fff" d="M-9 0H95v38.1H-9z"/><path fill="#D42E27" d="M-9 0H95v19.1H-9z"/><g stroke="#010101" fill="none"><circle cx="43" cy="28.6" r="7.3"/><circle cx="43" cy="28.6" r="6"/><circle cx="43" cy="28.6" r="4.6"/></g><path d="m39.1 31.4-.8.5-.3-.4-.1-.2v-.1l.1-.1h.2s.1 0 .1.1v-.3l.2-.3.2.3-.2.3v.2l.3-.2.3.2zm-.7.1-.1-.1-.1-.1H38v.2l.1.1.3-.1zm-.8-.7-.2-.8.2-.1.2.5h.1l-.1-.5.2-.1.1.5.2-.1-.2-.5.2-.1.3.8-1 .4zm-.3-1.1-.1-.5c0-.1 0-.2.1-.3 0-.1.1-.1.2-.1s.2 0 .2.1c.1.1.1.1.1.3v.2h.4v.3h-.9zm.4-.4c0-.1 0-.2-.1-.2h-.2v.2h.3zm-.4-1.5v-.3l.6.1h.2l.1.1.1.1v.4c0 .1 0 .1-.1.1l-.1.1s-.1 0-.1.1h-.2l-.6-.1v-.3l.6.1h.1l.1-.1V28l-.1-.1-.6-.1zm.1-.7.2-.5c0-.1.1-.2.1-.2h.2c.1 0 .1.1.1.1v.1c0-.1.1-.1.1-.1h.2s.1 0 .1.1l.1.1v.2l-.2.5-.9-.3zm.5-.2v-.2h-.2l-.1.1v.1h.3zm.3.1.1-.1v-.1l-.1-.1h-.1l-.1.1.1.2h.1zm-.3-1.1.2-.3.6.4.2-.4.2.1-.4.7-.8-.5zm.6-.9.2-.2.8.6-.2.2-.8-.6zm1.3-.5.3-.1.1.2v.2l-.1.2h-.6c-.1 0-.2-.1-.3-.2-.1-.1-.2-.2-.1-.4 0-.1.1-.2.2-.3.1-.1.2-.1.3-.1.1 0 .2 0 .3.1l-.2.2h-.3c-.1 0-.1.1-.1.2 0 0 0 .1.1.2s.1.1.2.1h.1l.1-.1v-.2zm1-.4-.3.2v.2l-.3.1-.1-1 .3-.2.8.7-.2.1-.2-.1zm-.1-.2-.3-.3.1.4.2-.1zm.9-1 .4-.1h.2c.1 0 .1 0 .2.1l.1.1c0 .1 0 .1.1.2v.2c0 .1 0 .1-.1.2l-.1.1c-.1 0-.1 0-.2.1l-.4.1-.2-1zm.4.2.1.5h.2v-.3c0-.1 0-.2-.1-.2H42zm.9-.3h.8v.2h-.5v.2h.5v.2h-.5v.2h.5v.2h-.8v-1zm1.2.1.3.1-.2.7.5.1-.1.2-.8-.2.3-.9zm1.6.5.4.3c.1.1.2.1.2.2v.2l-.2.2c-.1 0-.2 0-.3-.1l-.1-.1-.2.3-.3-.2.5-.8zm0 .5c.1.1.2.1.2.1h.1v-.1s0-.1-.1-.1h-.1l-.1.1zm.9 1.1-.3-.2-.1.1-.2-.2.9-.5.2.2-.4 1-.2-.2.1-.2zm.1-.2.2-.3-.3.2.1.1zm.1.7.8-.6.3.4c.1.1.1.1.1.2v.2l-.1.1s-.1 0-.1.1h-.1s-.1 0-.1-.1v.3l-.2.3-.3-.4.2-.3v-.2l-.3.3-.2-.3zm.6-.1.1.1.1.1h.2v-.2l-.1-.1-.3.1zm.3 1.5-.1-.3h-.2l-.1-.3h1.1l.1.3-.8.7-.1-.3.1-.1zm.2-.1.3-.2h-.4l.1.2zm.3 1h.2l.1.5H48c-.1-.1-.1-.2-.2-.2l-.1-.2v-.3c0-.1.1-.1.2-.2s.2-.1.3-.1h.3c.1 0 .2.1.2.2s.1.1.1.3v.2c0 .1 0 .1-.1.1l-.1.1-.1-.2s.1 0 .1-.1v-.1c0-.1 0-.1-.1-.1h-.2c-.1 0-.2 0-.2.1 0 0-.1.1 0 .2v.1s0 .1.1.1h.1l-.1-.4zm.6 1.5v.3l-.6-.1H48l-.1-.1-.1-.1v-.4c0-.1 0-.1.1-.1l.1-.1s.1 0 .1-.1h.2l.6.1v.3l-.6-.1h-.1l-.1.1v.1l.1.1.6.1zm-1.1 1 .1-.3-.1-.1.1-.3.8.7-.1.3h-1.1l.1-.3h.2zm.3 0h.4l-.4-.2v.2zm.3.8-.2.3h-.4l.2.3-.1.3-.3-.6-.4-.2.2-.3.4.2h.6z" fill="#010101"/><g fill="#0A9C49" stroke="#010101" stroke-width=".017"><path d="M44 25.2s2.8 1.2 2.3 3.7-2 2.5-2.6 2.7c-.6.3-1 .7-1.3.6-.2-.1-.6-.2-.6-.2s0 .4.5.5c.5.1 1.1-.6 1.4-.7.3-.1 2.2-.3 2.7-2.8.5-2.8-2.4-3.7-2.4-3.8zm1.4.5c.1.2.1.4 0 .4l-.2-.4s-.1-.4 0-.4l.2.4zm-.1 0c.1.2.1.4.1.4s-.2-.1-.3-.3c-.1-.2-.1-.4-.1-.4.1 0 .2.1.3.3zm-.3.2c.2.1.4.1.3.2 0 .1-.2 0-.4 0-.2-.1-.4-.1-.3-.2h.4zm0-.1c.2.1.3.3.3.3s-.2 0-.4-.1l-.3-.3c.1-.1.3 0 .4.1zm.2 0c.2.2.2.3.2.3s-.2-.1-.3-.2c-.2-.2-.2-.3-.2-.3 0-.1.1 0 .3.2zm.2.3-.1.1h-.1c-.1 0-.1.1-.1.1s0 .1.1 0c.1 0 .1-.1.1-.1l.1-.1.1-.1.2-.2v-.1s-.1.1-.1.2v.2c-.2-.1-.2 0-.2 0zm.8.3c0 .3 0 .6-.1.5-.1 0-.1-.3-.1-.6s0-.6.1-.5c0 0 .1.3.1.6zm-.1 0c.1.3.1.6 0 .6s-.2-.3-.2-.6c-.1-.3-.1-.6 0-.6l.2.6zm-.5.1c.3.2.4.4.4.4 0 .1-.2 0-.5-.2l-.4-.4s.3.1.5.2zm.1-.1c.2.3.3.5.3.6 0 .1-.2-.1-.5-.4-.2-.3-.3-.5-.3-.6.1 0 .3.2.5.4zm.2 0c.2.3.2.6.2.6-.1 0-.2-.2-.4-.5l-.2-.6c.1 0 .2.2.4.5zm.1.6h-.2s-.1-.1-.2-.1l-.2.1s0 .1.1.1l.3-.1h.2l.2-.2.3-.2c.1-.1.1-.2 0-.2s-.2.1-.2.2l-.1.2c0 .1-.1.2-.2.2zm.7.6c-.1.3-.1.5-.2.5s-.1-.3 0-.6.1-.5.2-.5v.6zm-.2-.1c0 .3 0 .6-.1.6s-.1-.3-.1-.6 0-.6.1-.6.1.3.1.6zm-.4.1c.2.2.4.4.3.5s-.2-.1-.5-.3c-.2-.2-.4-.4-.3-.5 0-.1.2.1.5.3zm.1-.1c.2.3.2.6.2.6-.1 0-.2-.2-.4-.4-.2-.3-.2-.6-.2-.6 0-.1.2.1.4.4zm.2 0c.1.3.1.6.1.6-.1 0-.2-.2-.3-.5-.2-.4-.2-.6-.1-.7 0 0 .1.3.3.6zm0 .6h-.2s-.1-.1-.2-.1l-.3.1s0 .1.1.1l.3-.1h.3l.2-.1c.1 0 .3-.1.4-.2.1-.1.1-.2 0-.2l-.3.1c-.1.1-.1.2-.1.2l-.2.2m.3.7c-.2.3-.3.4-.4.4 0-.1 0-.3.2-.6s.3-.4.4-.4c.1.1 0 .4-.2.6m-.1 0c-.1.3-.3.5-.3.5-.1 0 0-.3.1-.6l.3-.5c.1 0 0 .2-.1.6m-.5-.2c.1.3.2.6.1.6s-.2-.2-.3-.4c-.1-.3-.2-.6-.1-.6.1-.1.2.1.3.4m.2 0c0 .3 0 .6-.1.6s-.1-.2-.2-.6c0-.3 0-.6.1-.6s.2.2.2.6m.1.1c0 .3-.1.6-.2.6s-.1-.3-.1-.6.1-.6.2-.6c.2-.1.2.2.1.6m-.2.5-.2-.1s0-.1-.1-.1h-.3c-.1 0 0 .1.1.1.1.1.2 0 .3 0 .1.1.2.1.2.1h.7c.1 0 .2-.1.1-.1h-.3l-.2.1h-.3m.2 1c-.3.2-.5.4-.6.3 0-.1.2-.3.4-.6.3-.2.5-.4.6-.3 0 .1-.2.3-.4.6m-.1-.2c-.2.3-.5.5-.5.4-.1-.1.1-.4.3-.7.2-.3.5-.5.5-.4s-.1.4-.3.7m-.5-.3c0 .4 0 .7-.1.7s-.2-.2-.2-.6c0-.4 0-.7.1-.7s.2.2.2.6m.2 0c-.1.4-.2.7-.3.7-.1 0-.1-.3 0-.7.1-.4.2-.7.3-.7s.1.3 0 .7m.1.1c-.1.4-.3.6-.4.6-.1 0 0-.3.1-.7.1-.4.3-.6.4-.6.1.1.1.4-.1.7m-.4.6s-.2-.1-.2-.2c0 0 0-.1-.1-.2s-.2-.1-.3-.1c-.1 0-.1.1 0 .2s.2.1.3.1c.2.1.3.2.3.2s.2.1.3.1l.4.1c.1 0 .2-.1.1-.1-.1-.1-.2-.1-.3-.1l-.3.1c0-.1-.2-.1-.2-.1m-.2.9c-.4.1-.7 0-.7-.1s.3-.2.7-.3c.4-.1.7 0 .7.1s-.3.2-.7.3m-.1-.2c-.4.1-.7.2-.7.1s.3-.3.7-.4c.4-.1.7-.2.7-.1s-.3.3-.7.4m-.2-.5c-.2.4-.4.6-.5.6-.1 0 0-.3.1-.7.2-.4.4-.6.5-.6s.1.3-.1.7m.2.1c-.3.3-.6.5-.6.5-.1 0 .1-.3.4-.7l.6-.5s-.2.3-.4.7m0 .2c-.3.3-.7.4-.7.3-.1-.1.2-.3.5-.6s.7-.4.7-.3c.1.1-.1.3-.5.6m-.7.3s-.1-.2-.1-.3c0 0 .1-.1 0-.2 0-.1-.1-.2-.2-.3-.1 0-.1 0-.1.2s.2.2.2.3c.1.1.2.2.2.3 0 .1.2.2.2.2l.3.4c.1.1.2.1.2 0s-.1-.2-.2-.3l-.3-.1c0-.1-.2-.2-.2-.2m-.4.7c-.4 0-.7-.1-.7-.2s.3-.2.7-.2c.4 0 .7.1.7.2s-.3.2-.7.2m-.1-.6c-.3.3-.5.5-.6.5-.1-.1.1-.4.3-.7.3-.3.5-.5.6-.5.1 0-.1.3-.3.7m.1.3c-.4.2-.7.2-.8.1 0-.1.2-.3.6-.5.4-.2.7-.2.8-.1 0 .1-.2.4-.6.5m.2-6.4c.2.2.3.3.2.3 0 0-.2-.1-.4-.3-.2 0-.3-.2-.2-.2l.4.2m-.2.2c.3 0 .5.1.5.2s-.2.1-.4 0c-.3 0-.5-.1-.5-.2h.4m.1-.1c.2.1.4.3.4.3s-.2 0-.5-.1c-.2-.1-.4-.3-.4-.3 0-.1.2 0 .5.1m-3.3 5.9s.6.1 1.1.3c.5.2 1.3.9 1.6.9.2 0 .6-.1.7-.4-.4.1-.6.3-1 .1-.1 0-.5-.4-1-.6l-1.4-.5v.2m.6-5.5.7-.4-.8.2-.1.1.2.1m.7.2c-.3 0-.7-.1-1-.2l.6-.8c-.1.2-.3.5-.3.7l.7.3m-.8-.2.6-.5-.7.3-.1.2h.2m.7.1-1-.2.6-.8c-.1.2-.3.5-.3.7.1.2.4.3.7.3m-.8 0 .7-.3-.8.1-.1.1.2.1m.7.1-1-.1c.2-.2.4-.6.5-.9-.1.2-.2.5-.2.7.1.1.4.2.7.3m-.8-.1.5-.6-.6.5v.2l.1-.1m.8.1h-1l.4-1c-.1.2-.2.6-.2.8.2.1.5.1.8.2m-.9 0 .6-.6-.7.4-.1.2h.2m.7 0h-1.1l.7-1.1-.4.9c.2.1.6.2.8.2m-.9.1.8-.7-.9.5-.1.2h.2m.8-.1c-.3 0-.8.1-1.1.2.2-.3.4-.8.5-1.2-.1.3-.2.7-.2.9.2.1.6.1.8.1m-.9.2.6-.8-.7.7v.2l.1-.1m.7-.1-1.1.1.6-1.1c-.1.3-.2.7-.3.9.2.1.6.1.8.1m-.8.2.8-.7-.9.5-.1.2h.2m.7-.1c-.3.1-.8.2-1.1.2.1-.3.3-.8.5-1.2-.1.3-.2.7-.2.9.2.1.6.1.8.1m-.8.1.5-.9-.7.8v.2l.2-.1m.8-.1-1.2.3c.1-.4.3-1 .4-1.3 0 .3-.1.8-.1 1 .3.1.7 0 .9 0m-.9.3.6-.9-.8.7v.2h.2m.8-.2-1.2.4c.1-.4.2-1 .3-1.3 0 .3-.1.8 0 1l.9-.1m-1 .3.5-1-.7.9v.2l.2-.1m.9-.1-1.2.3.4-1.3-.1 1h.9m-1 .2.8-.8-.9.6-.1.2h.2m.8-.1c-.3 0-.9.1-1.2.2.2-.4.4-.9.5-1.3-.1.3-.2.7-.2 1 .3.1.7.1.9.1m-.9.1.5-1-.7.8v.2h.2m1-.2L40 27c.1-.4.2-1.1.3-1.6 0 .4-.1.9 0 1.2.2 0 .7-.2 1-.2m-1.1.5.6-1.1-.8.9v.3l.2-.1m.9-.4-1.3.6c.1-.4.2-1.1.2-1.6v1.2c.4 0 .8-.1 1.1-.2m-1 .5.5-1.2-.7 1.1v.3l.2-.2m.9-.4-1.3.6c.1-.4.2-1.1.2-1.6v1.2c.4 0 .8-.1 1.1-.2m-1 .6.7-1.1-.9.9v.3l.2-.1m.9-.6-1.1.9c0-.4-.1-1.1-.1-1.6L40 27c.3 0 .7-.3.9-.4m-.9.6.1-1.3-.3 1.2.1.2.1-.1m.8-.5-1.1.9c0-.4-.1-1.1-.1-1.6l.3 1.1c.3 0 .7-.3.9-.4m-.9.7.3-1.2-.6 1.1v.3l.3-.2m.9-.7c-.3.3-.8.7-1.1 1.1 0-.5-.2-1.2-.3-1.6l.4 1.1c.4-.1.7-.4 1-.6m-.9.9.1-1.3-.3 1.3.1.2.1-.2m.8-.7-1.1 1c0-.5-.1-1.2-.1-1.6.1.4.2.9.3 1.2.2-.2.6-.4.9-.6m-.9.9.5-1.2-.7 1.1v.3l.2-.2m.9-.9c-.3.3-.8.8-1 1.1 0-.5-.2-1.2-.3-1.6.1.4.2.9.4 1.1.3-.1.6-.4.9-.6m-.8.9-.1-1.3-.2 1.3.1.2.2-.2m.7-.8-1 1.1c-.1-.5-.2-1.2-.3-1.6.1.4.3.9.4 1.1.3-.1.6-.4.9-.6m-.8.9.1-1.3-.4 1.3.1.3.2-.3m.7-.8c-.3.3-.7.8-.9 1.2l-.4-1.6.5 1.1c.3-.2.6-.5.8-.7m-.7 1-.1-1.3-.2 1.3.1.2.2-.2m.7-.9c-.2.4-.6.9-.8 1.2l-.5-1.6.6 1.1c.2-.2.4-.5.7-.7m-.6 1 .1-1.3-.4 1.3.1.3.2-.3m.5-.9-.7 1.4c-.2-.4-.5-1.1-.6-1.5.2.3.4.8.7 1 .2-.3.4-.7.6-.9m-.6 1-.4-1.3.1 1.3.2.2.1-.2m.6-.9c-.2.4-.6 1-.7 1.3-.2-.4-.5-1.1-.6-1.5.2.3.5.8.7 1 .1-.1.4-.5.6-.8m-.6 1.1-.1-1.3-.1 1.3.1.2.1-.2m.6-1-.8 1.3-.6-1.5c.2.3.4.8.6 1 .3-.1.6-.5.8-.8m-.6 1.2-.2-1.3v1.4l.2.2v-.3m.5-1-.8 1.3-.5-1.5c.2.3.4.8.6 1 .2-.2.5-.5.7-.8m-.6 1.1.1-1.3-.4 1.3.1.3.2-.3m.7-1-.7 1.4c-.2-.4-.5-1.1-.7-1.4l.7 1c.2-.4.4-.8.7-1m-.7 1.1-.4-1.3.2 1.3.2.2v-.2m.6-1-.5 1.5c-.2-.4-.6-.9-.9-1.3.3.2.6.6.8.8l.6-1M40 29l-.4-1.2.2 1.3.2.2V29m.3-1-.5 1.5c-.2-.4-.6-.9-.9-1.3.3.2.6.6.8.8.2-.2.4-.7.6-1m-.3 1.2-.6-1.2.3 1.3.2.1.1-.2m.3-1.1c-.1.4-.2 1.1-.3 1.6l-1-1.1.9.7c.1-.4.2-.9.4-1.2m-.2 1.3-.3-1.3.1 1.3.2.2v-.2m.2-1.2c0 .5-.1 1.2-.2 1.6l-1.1-1c.3.2.7.4 1 .5.1-.2.2-.7.3-1.1m-.2 1.3-.8-.9.6 1.1.2.1v-.3m.2-1.1c0 .5-.1 1.2-.2 1.6L39 29c.3.2.7.4 1 .5.1-.2.2-.7.3-1.1m-.1 1.3-.6-1.1.4 1.3.2.1v-.3m.1-1.1c0 .5-.1 1.2-.1 1.6-.3-.3-.8-.7-1.2-.9.3.2.7.4 1 .5.2-.3.2-.8.3-1.2m0 1.3-.8-1 .6 1.2.2.1v-.3m0-1.1c0 .5-.1 1.2-.1 1.6-.3-.3-.8-.7-1.2-.9l1 .5c.2-.3.2-.8.3-1.2m0 1.3-.5-1.2.3 1.3.2.2v-.3m0-1.2c0 .5 0 1.2.1 1.6l-1.2-.7c.3.1.7.3 1 .3.1-.3.1-.8.1-1.2m.1 1.2-1-.7.8.9h.2v-.2m0-1.1c0 .5.1 1.2.2 1.6l-1.3-.7c.3.1.8.3 1 .3l.1-1.2m.1 1.3-.8-1 .6 1.1.2.1v-.2m0-1.1c.1.5.1 1.2.2 1.6-.4-.2-1-.5-1.3-.6.3.1.8.2 1.1.2 0-.4-.1-.9 0-1.2m.2 1.3-1-.7.8.9h.2v-.2m-.2-1.1c.1.5.2 1.2.3 1.6-.4-.2-1-.4-1.3-.5l1.1.1c0-.4-.1-.9-.1-1.2m.3 1.2-.8-1 .6 1.2.2.1v-.3m-.3-1.1c.1.4.3 1.1.5 1.5l-1.4-.3h1.1c0-.3-.1-.8-.2-1.2m.3 1.1-1.1-.2 1.1.5.2-.1-.2-.2m-.2-1c.1.4.3 1.1.5 1.5l-1.4-.3h1.1c0-.3-.1-.8-.2-1.2m.4 1.1-1.1-.5 1 .8h.2l-.1-.3m-.4-1c.2.4.5 1 .8 1.4H40c.3-.1.8-.1 1-.2l-.4-1.2m.6 1.2-1.1-.3 1.1.6.2-.1-.2-.2m-.5-1c.2.4.5 1 .8 1.4h-1.4c.3-.1.8-.1 1-.3l-.4-1.1m.6 1-1.1-.6.9.9h.2v-.3m-.5-.9c.3.4.6 1 .9 1.3-.4 0-1 .1-1.4.2.3-.1.7-.2 1-.4-.1-.4-.4-.8-.5-1.1m.6 1h-1.1l1.1.3.2-.1-.2-.2m.7-5.5.8-.1H42l.1.1m.4.2c-.2-.1-.6-.2-.8-.2l.9-.4-.6.4c.1 0 .4.1.5.2m-.4-.2.8-.2-.9.1-.1.1h.2m.5.2-1-.1.7-.7-.4.6c.2.1.5.2.7.2m-.8-.1.8-.1h-.8l-.2.1h.2m.6.2c-.3 0-.6-.1-.9-.2.2-.1.6-.3.8-.5-.2.1-.4.3-.5.4.1.1.4.2.6.3m-.7-.2.7-.3-.8.2-.1.1h.2m.6.2-.7-.3c.2-.2.4-.4.5-.6-.1.2-.2.4-.3.5.2.2.4.3.5.4m-.6-.2.6-.2-.6.1-.1.1h.1m-.4 5.3h-1.2l1.2.3.2-.1-.2-.2m.2.1-1.2-.3 1.1.6.2-.1-.1-.2m.2.1-1.2-.1 1.2.4.2-.1-.2-.2m-.8-.8 1.1 1.2-1.4.3c.3-.1.7-.3.9-.5-.1-.3-.4-.7-.6-1m.9.8-1.2-.4 1.1.7h.2l-.1-.3m-.8-.8c.3.3.8.8 1.2 1.1-.4.1-.9.3-1.3.5.3-.2.7-.4.9-.6-.2-.3-.5-.7-.8-1m.9.9-1.1.2 1.2.1.2-.2-.3-.1m-.2 0-1.2.1 1.2.2.2-.1-.2-.2"/><path d="m41.9 31.2-1.2-.2 1.2.5.2-.1-.2-.2zm.2.1h-1.2l1.2.3.2-.1-.2-.2zm-.8-.8c.3.3.8.8 1.2 1.1-.4.1-1 .3-1.3.4.3-.2.7-.3.9-.5l-.8-1zm1 .8-1.2-.3 1.2.6.2-.1-.2-.2zm-.9-.7 1.3 1c-.4.1-.9.4-1.3.6.3-.2.6-.4.8-.7-.2-.3-.5-.7-.8-.9zm1 .8-1.1.3h1.2l.2-.2-.3-.1z"/></g><path fill="#FDDF00" stroke="#010101" stroke-width=".052" d="m43.9 29.7-.9-.6-.9.6.3-1-.8-.6h1l.3-1 .3 1h1l-.8.6.5 1z"/></svg>
