<svg xmlns="http://www.w3.org/2000/svg" width="85" height="57"><path fill="#CE2028" d="M-.02 28.5h85.04v28.347H-.02z"/><path fill="#1D439B" d="M-.02.153h85.04v28.35H-.02z"/><path fill="#FFF" d="M48.23 28.5-.02 56.848V.153"/><path fill="#FBD118" d="m4.095 46.053.95 2.105 2.39-.236-1.798 1.61.928 2.087-2.032-1.097-1.78 1.47.506-2.23-2.06-1.226 2.387-.234M2.81 5.003 4.536 6.54 6.62 5.35l-.985 2.2 1.7 1.528-2.303-.17-1.024 2.066-.448-2.242-2.38-.28 2.083-1.187M37.66 26.634l2.213.664 1.39-1.957.033 2.413 2.186.668-2.16.818-.057 2.307-1.353-1.846-2.276.75 1.388-1.956m-10.064.821.73-.774-.73-.773-5.728.38-.037-.363 5.188-.63-.667-.708-4.578.968a5.616 5.616 0 0 0-.826-1.99l3.924-2.553-.028-.97-4.115 3.222-.23-.285 4.32-3.78-.03-1.064-1.064-.03-3.782 4.32-.285-.23 3.224-4.116-.972-.03-2.553 3.927a5.545 5.545 0 0 0-1.99-.827l.97-4.578-.707-.668-.632 5.19-.363-.038.38-5.73-.772-.73-.773.73.38 5.73-.362.036-.632-5.19-.706.67.97 4.575a5.642 5.642 0 0 0-1.99.827l-2.553-3.924-.97.03 3.222 4.114-.285.23-3.78-4.32-1.063.03-.035 1.063 4.32 3.78-.232.286L9.004 21.9l-.03.97 3.925 2.554a5.584 5.584 0 0 0-.827 1.99l-4.577-.97-.667.708 5.187.63-.037.364-5.73-.38-.73.772.73.774 5.73-.38.036.365-5.188.632.667.707 4.577-.97a5.59 5.59 0 0 0 .826 1.988L8.974 34.21l.03.974 4.112-3.223.23.286-4.318 3.78.03 1.062 1.064.03 3.78-4.317.284.23-3.222 4.114.972.03 2.553-3.925c.593.394 1.265.68 1.988.825l-.97 4.578.708.666.63-5.19.365.038-.38 5.73.773.73.773-.73-.38-5.73.363-.037.63 5.19.707-.667-.97-4.578a5.585 5.585 0 0 0 1.99-.826l2.553 3.923.972-.03-3.223-4.112.283-.23 3.78 4.32 1.064-.032.03-1.063-4.32-3.78.23-.284 4.116 3.224.03-.973-3.925-2.552c.394-.594.68-1.266.826-1.988l4.577.97.668-.708-5.188-.633.037-.365 5.734.38z"/></svg>
