<svg xmlns="http://www.w3.org/2000/svg" width="87" height="57"><path fill="#010101" d="M0-4h86.7v65H0z"/><path fill="#CE2028" d="M0-4h86.7v65L0-4z"/><path fill="#FBD118" d="M53.7 14.9c-.6.8-2.2-.8-4-.9-1.8 0-3.1 1.7-3.6 2.3-.5.6-2.2 3.8-2.2 4.1 0 .3 1.1-.9 1.4-1.2 0 .5-.4 1-.3 1.1.1.2 1.3-.9 1.7-.9.1.3-.2.6-.1 1.1l1.3-.9c.1.3-.4 1-.2 1.4.2 0 1.3-1.3 1.7-1.4.4-.2-.2 1.2 0 1.4l1.7-1.6c.3-.2 0 1.5.1 1.5.4-.3 1.5-1.7 1.6-2 .1-.2-.1 2.2 1.1 3.5 1.2 1.3 2.9 2.8 3.1 2.8.2-.4-.1-1.3.1-1.2.5.6 1.5 1.4 1.7 1.4.2 0-.2-.9.2-.9.6.6 2.3 2.8 5.7 3.8-.2-.6-.7-1.2-.8-1.5l1.2.4c.2 0-1.7-2.3-1.5-2.6.4 0 .6.2.8 0-.2-.3-1.8-2.1-1.8-2.5 0-.4.5.1.6 0 .2-.1-.6-1.7-.5-1.9.2-.2 1.8 1 2.2 1 .4 0 .1-1.5.3-1.5.2-.1 1.6.8 1.9.8s.3-.6.4-.6 3.4 3.4 2.3 7.2c-1.1 2.8-3.4 4.2-6.7 3 .2.3 2 1.8 3.9 1.2 1.9-.5 4.3-2 4-5.8-.3-3.8-1.5-4.3-1.7-4.9-.2-.6.3.2.7.3.4.2-.1-.8-.2-1.2-.1-.4 1.2.9 1.6 1 .3.1-.8-3.1-1.1-3.3-.3-.2.3.1.6.2.2.1-2.1-3.5-2.6-3.5s.4-.2.7-.2c.3 0-2.6-2.3-3.1-2.3s1.1-.6 1.2-.6c.3 0-3.4-1.9-6.6 0-.2-.2 1.5-1.3 1.6-1.9 0-.1-.6-.4-.6-.6 0-.2.9-.6.9-.9-.2-.3-.6-.2-.9-.3l.7-1.3c-.1-.2-.7-.2-.8-.1-.2.1.4-.8.3-1.1-.1-.1-.4 0-.7 0-.2 0 1-1.7.8-1.9-.2-.2-3.4 1.7-4.6 3.8-1.2 2.1-.3 3.8-.4 4.5s-.3 1.4-.8 1.4-1.6-.8-2-1.1c-.4-.4-.5-.6-1-.8-.5-.2-1.7.3-2.2.3-.5 0-2.2-.3-2.3-.2-.1.1 1.7.8 2.2 1 .4.2.5.5.8.7.2.4 3.1 1.2 2.2 2.4zm11 5.3c.9.9 7 5 7 10S67.3 35 66 34.9c1.4 1.2 6.9 1 6.9-4.7 0-5-7-10-7.9-10.4s-1.2-.5-.3.4z"/><path fill="#fff" d="m24.9 43.2 1.3-4.2 1.3 4.2-3.5-2.5h4.2l-3.3 2.5zm-3.2-27.1-2.6 8.3 6.8-5.1h-8.4l6.8 5.2-2.6-8.4zm-9.9 12.7-2.6 8.3L16 32H7.6l6.8 5.2-2.6-8.4zm19.8-.9L29 36.3l6.8-5.1h-8.4l6.8 5.2-2.6-8.5zM21.7 46l-2.6 8.3 6.8-5.1h-8.4l6.8 5.2-2.6-8.4z"/></svg>
