<svg xmlns="http://www.w3.org/2000/svg" width="85" height="57"><path fill="#CE2028" d="M0 .154h85.038v56.692H0z"/><path fill="#263779" d="M0 .154h42.52V28.5H0z"/><path d="m21.292 19.87.947 2.8h3.07l-2.49 1.82.92 2.777-2.446-1.65-2.45 1.65.92-2.776-2.47-1.82h3.07m.941-21.301.742 2.192h2.4L22.5 4.987l.72 2.173-1.914-1.29-1.918 1.29.718-2.173-1.93-1.425h2.403m9.571 3.762.69 2.03h2.223l-1.804 1.32.667 2.014-1.774-1.196-1.777 1.196.666-2.014-1.79-1.32h2.227m-16.864-.892.748 2.213h2.424l-1.965 1.438.728 2.193-1.932-1.303-1.937 1.303.725-2.193-1.95-1.438h2.427m13.746 3.875.47 1.385h1.516l-1.228.9.453 1.373-1.212-.815-1.21.815.454-1.373-1.22-.9h1.52" fill="#FFF"/></svg>
