<svg xmlns="http://www.w3.org/2000/svg" width="85" height="57"><path fill="#2857A7" d="M-.02 54.037 80.69.154H-.02"/><path fill="#235C34" d="M4.284 56.846 85.02 3.036v53.81"/><path fill="#FBD118" d="M85.02.153h-4.33L-.02 54.038v2.81h4.304L85.02 3.036"/><path fill="#FFF" d="m9.35 4.043 1.167 3.444h3.775l-3.06 2.24 1.13 3.413-3.01-2.03-3.015 2.03 1.135-3.414-3.037-2.24h3.777m10.186 4.949 1.166 3.444h3.775l-3.06 2.24 1.13 3.413-3.01-2.03-3.014 2.03 1.133-3.414-3.04-2.24h3.78M27.495 4.295 28.66 7.74h3.777l-3.06 2.24 1.13 3.413-3.012-2.03-3.014 2.03 1.134-3.414-3.037-2.24h3.777M9.35 20.772l1.167 3.443h3.775l-3.06 2.24 1.13 3.414-3.01-2.03-3.015 2.03 1.135-3.414-3.037-2.24h3.777m19.283-3.19 1.166 3.443h3.777l-3.06 2.24 1.13 3.415-3.012-2.03-3.014 2.03 1.134-3.415-3.037-2.24h3.777"/></svg>
