<svg xmlns="http://www.w3.org/2000/svg" width="85" height="57"><path fill="#FFF" d="M-.02 16.376h85.04v24.247H-.02z"/><path fill="#166734" d="M-.02 40.623h85.04v16.224H-.02z"/><path fill="#CB2026" d="M-.02.153h85.04v16.223H-.02z"/><path fill="#F6C315" d="M43.958 35.65a1.547 1.547 0 0 0-.725-.187l-.14.02a1.544 1.544 0 0 0-.59-1.074 1.553 1.553 0 0 0-.588 1.072l-.14-.02c-.263 0-.507.072-.725.187.228.582.79.996 1.453.996s1.227-.414 1.455-.997zm-6.114 1.448a1.555 1.555 0 0 0 1.28-1.21 1.583 1.583 0 0 0-.743-.07l-.136.04a1.55 1.55 0 0 0-.747-.97c-.285.304-.44.715-.416 1.152l-.14.003c-.26.04-.49.148-.688.296.315.537.936.862 1.592.758zm-3.388 1.246.406 1.12c3.97-1.447 10.984-1.456 15.318-.023l.373-1.13c-4.622-1.528-11.845-1.512-16.097.034zm14.302-2.004c-.2-.148-.43-.256-.688-.297l-.14-.003a1.549 1.549 0 0 0-.417-1.15 1.54 1.54 0 0 0-.747.968l-.137-.04c-.26-.04-.51-.007-.745.07a1.557 1.557 0 0 0 2.873.45zm-.691-3.69c-1.766 1.55-4.393.908-5.18-1.844v-2.508c0-.587.475-1.063 1.064-1.063.373 0 .684.2.874.487l.028-.008v-.784a2.349 2.349 0 1 0-4.698 0v.784l.028.01c.19-.288.5-.49.873-.49.59 0 1.064.478 1.064 1.064v2.48c-.777 2.776-3.417 3.425-5.188 1.87-.96 2.11-3.256 2.517-4.84 1.423.77 3.246 5.35 2.064 4.89-1.18 1.026 3.396 5.054 2.226 5.48-.794h.07c.43 3.02 4.456 4.19 5.48.793-.458 3.243 4.12 4.426 4.893 1.18-1.582 1.096-3.88.69-4.838-1.42zm-5.562-5.22a1.69 1.69 0 0 0-1.447-.818l-.252.02a1.725 1.725 0 0 1 3.398.001l-.252-.02a1.685 1.685 0 0 0-1.447.818zM31.91 31.152l1.165-.853h-1.438l-.447-1.318-.434 1.317h-1.44l1.158.852-.43 1.3 1.147-.77 1.15.77m-.798-5.65 1.148-.773 1.15.773-.43-1.3 1.165-.854h-1.438l-.447-1.317-.434 1.316h-1.44l1.158.853M51.2 26.8l1.148-.773 1.147.773-.43-1.3 1.166-.854h-1.437l-.446-1.317-.435 1.316h-1.44l1.158.853M35.7 22.644l1.148-.773 1.147.774-.43-1.3 1.166-.855h-1.437l-.446-1.317-.435 1.316h-1.44l1.158.853m10.943 1.302 1.15-.773 1.146.774-.43-1.3 1.166-.855h-1.438l-.446-1.317-.435 1.316h-1.44l1.158.853m-6.155-.23 1.147-.772 1.148.772-.43-1.3 1.166-.854h-1.438l-.446-1.316-.434 1.316h-1.44l1.157.854M54.262 30.3l-.447-1.318-.434 1.317h-1.44l1.16.852-.432 1.3 1.148-.77 1.148.77-.43-1.3L55.7 30.3"/></svg>
