<svg xmlns="http://www.w3.org/2000/svg" width="87" height="57"><path fill="#29AE66" d="M0-.6h87v58H0z"/><path fill="#fff" d="M43.2 5.8c2.6 1.1 4.4 3.7 4.4 6.6 0 4-3.2 7.2-7.2 7.2-1.8 0-3.4-.6-4.7-1.7.8.3 1.6.5 2.5.6 4 .2 7.4-2.9 7.5-6.9.1-2.3-.9-4.4-2.5-5.8zm-6.9 5.4.8-2.5-2.1 1.5h2.6l-2.1-1.6.8 2.6zm0-3.8.8-2.5L35 6.5h2.6l-2.1-1.6.8 2.5zM40 9.3l.8-2.5-2.1 1.6h2.6l-2.1-1.6.8 2.5zM32.6 13l.8-2.5-2.1 1.5H34l-2.1-1.6.7 2.6zm3.7 1.9.8-2.5-2.1 1.5h2.6l-2.1-1.6.8 2.6z"/><path fill="#CA3946" d="M10.4-.6h15.7v58H10.4z"/><path fill="#393839" d="M10.4-4.4v.6l.9.8-.3.3.6.6-.3.3v-.4h-.5v.4L12-.7h.6l.1-.4h-.4l.4-.4 1 .9-1 .9-.4-.4h.4l-.1-.4H12L10.8.6V1h.5V.7l.4.3-.7.6.3.3-.9.8v.6l1.5-1.4-.3-.3.7-.6-.5-.5.4-.3.7.6 1.5-1.4L12.8-2l-.7.6-.4-.3.5-.5-.6-.6.3-.2-1.5-1.4zm0 2.7V.4l.3-.4v-.4h.4l.3-.3-.3-.3h-.4v-.4l-.3-.3zm2.6.8-.1.3.1.3.3-.3-.3-.3z"/><path fill="#F9AE28" d="M10.4-4.4v.5l1 .9-.3.3.6.6-.4.4v-.4h-.5v.4L12-.6h.6l.1-.3h-.4l.5-.5 1 .9-1 .9-.5-.5h.4l-.1-.3H12L10.8.7v.4h.5V.6l.4.4-.6.6.3.3-.9.9v.5L11.9 2l-.3-.3.6-.7-.5-.5.4-.4.7.6 1.4-1.3-1.4-1.3-.7.6-.4-.4.5-.5-.6-.6.3-.2-1.5-1.4zm0 2.8v2l.3-.3v-.4h.4l.3-.3-.3-.3h-.4v-.4l-.3-.3zm2.6.8v.4l.2-.2-.2-.2z"/><path fill="#393839" d="M10.4 6.1v.6l.9.8-.3.3.6.6-.3.3v-.4h-.5v.4L12 9.8h.6l.1-.4h-.4l.4-.4 1 .9-1 .9-.4-.4h.4l-.1-.4H12l-1.2 1.1v.4h.5v-.4l.3.3-.6.7.3.3-.9.8v.6l1.5-1.4-.3-.3.6-.6-.5-.5.4-.3.7.6 1.5-1.4-1.5-1.4-.7.6-.4-.3.5-.5-.6-.6.3-.3-1.5-1.3zm0 2.8V11l.3-.4v-.4h.4l.3-.3-.3-.3h-.4v-.3l-.3-.4zm2.6.8-.1.3.1.3.3-.3-.3-.3z"/><path fill="#F9AE28" d="M10.4 6.2v.5l.9.9-.3.3.6.6-.4.4v-.6h-.5v.4l1.2 1.1h.6l.1-.3h-.4l.6-.5 1 .9-1 .9-.5-.5h.4l-.1-.3H12l-1.2 1.1v.4h.5v-.4l.4.4-.6.6.3.3-.9.9v.5l1.4-1.3-.3-.3.6-.6-.5-.6.4-.4.7.6 1.4-1.3-1.4-1.3-.7.6-.4-.4.5-.5-.6-.6.3-.3-1.5-1.2zm0 2.8v2l.3-.3v-.4h.4l.3-.3-.3-.3h-.4v-.4l-.3-.3zm2.6.7v.4l.2-.2-.2-.2z"/><path fill="#393839" d="M10.4 17v.6l.9.8-.3.3.6.6-.3.3v-.4h-.5v.4l1.2 1.1h.6l.1-.4h-.4l.4-.4 1 .9-1 .9-.4-.4h.4V21h-.6l-1.2 1.1v.4h.5v-.4l.3.3-.7.6.3.3-.9.8v.6l1.5-1.4-.3-.3.6-.6-.5-.4.4-.3.7.6 1.5-1.4-1.5-1.4-.7.6-.4-.3.5-.5-.6-.6.3-.3-1.5-1.4zm0 2.8v2.1l.3-.4v-.4h.4l.3-.3-.3-.3h-.4v-.4l-.3-.3zm2.6.8-.1.3.1.3.3-.3-.3-.3z"/><path fill="#F9AE28" d="M10.4 17.1v.5l.9.9-.3.3.6.6-.4.4v-.4h-.5v.4l1.2 1.1h.6l.1-.3h-.4l.5-.5 1 .9-1 .9-.5-.5h.4V21H12l-1.2 1.1v.4h.5v-.4l.4.4-.6.5.3.3-.9.9v.5l1.4-1.3-.3-.4.6-.6-.5-.4.4-.4.7.6 1.4-1.3-1.4-1.3-.7.6-.4-.4.5-.5-.6-.6.3-.3-1.5-1.3zm0 2.8v2l.3-.3v-.4h.4l.3-.3-.3-.3h-.4v-.4l-.3-.3zm2.6.7v.4l.2-.2-.2-.2z"/><path fill="#393839" d="M10.4 27.9v.6l.9.8-.3.3.6.6-.3.3v-.4h-.5v.4l1.2 1.1h.6l.1-.4h-.4l.4-.4 1 .9-1 .9-.4-.4h.4l-.1-.4H12L10.8 33v.4h.5V33l.3.3-.6.6.3.3-.9.8v.6l1.5-1.4-.3-.3.6-.6-.5-.5.4-.3.7.6 1.5-1.4-1.5-1.4-.7.7-.4-.3.5-.5-.6-.6.3-.3-1.5-1.4zm0 2.8v2.1l.3-.4V32h.4l.3-.3-.3-.3h-.4V31l-.3-.3zm2.6.8-.1.3.1.3.3-.3-.3-.3z"/><path fill="#F9AE28" d="M10.4 28v.5l.9.9-.3.3.6.6-.4.4v-.4h-.5v.4l1.2 1.1h.6l.1-.3h-.4l.5-.5 1 .9-1 .9-.5-.5h.4l-.1-.3h-.6l-1 1v.4h.5V33l.4.4-.6.6.3.3-.9.9v.5l1.4-1.3-.3-.3.6-.6-.5-.5.4-.4.7.6 1.4-1.3-1.4-1.3-.7.6-.4-.4.5-.5-.6-.6.3-.3-1.6-1.4zm0 2.8v2l.3-.3V32h.4l.3-.3-.3-.3h-.4V31l-.3-.2zm2.6.7v.4l.2-.2-.2-.2z"/><path fill="#393839" d="M10.4 38.9v.6l.9.8-.3.2.6.6-.3.3V41h-.5v.4l1.2 1.1h.6l.1-.4h-.4l.4-.4 1 .9-1 .9-.4-.4h.4l-.1-.4H12l-1.2 1.1v.4h.5V44l.3.3-.6.5.3.3-.9.8v.6l1.5-1.4-.3-.3.6-.6-.5-.5.4-.3.7.6 1.5-1.4-1.5-1.4-.7.6-.4-.3.5-.5-.6-.6.3-.3-1.5-1.2zm0 2.7v2.1l.3-.4V43h.4l.3-.3-.3-.3h-.4V42l-.3-.4zm2.6.8-.1.3.1.3.3-.3-.3-.3z"/><path fill="#F9AE28" d="M10.4 38.9v.5l.9.9-.3.3.6.6-.4.4V41h-.5v.4l1.2 1.1h.6l.1-.3h-.4l.5-.5 1 .9-1 .9-.5-.5h.4l-.1-.3h-.6l-1 1.3v.4h.5V44l.4.4-.6.6.3.3-1.1.7v.5l1.4-1.3-.3-.3.6-.6-.5-.5.4-.4.7.6 1.4-1.3-1.4-1.3-.6.6-.4-.4.5-.5-.6-.6.3-.3-1.5-1.3zm0 2.8v2l.3-.3V43h.4l.3-.3-.3-.3h-.4V42l-.3-.3zm2.6.8v.4l.2-.2-.2-.2z"/><path fill="#393839" d="M26.1-4.4v.6l-.9.8.3.3-.6.6.3.3v-.4h.5v.4L24.5-.7h-.6l-.1-.4h.4l-.4-.4-1 .9 1 .9.4-.4h-.4l.1-.4h.6L25.7.6V1h-.5V.7l-.3.3.6.6-.3.3.9.8v.6l-1.5-1.4.3-.3-.6-.6.5-.5-.4-.3-.7.6-1.5-1.4L23.8-2l.7.6.4-.3-.5-.5.6-.6-.4-.2 1.5-1.4zm0 2.7V.4l-.3-.4v-.4h-.4l-.3-.3.3-.3h.4v-.4l.3-.3zm-2.5.8.1.3-.1.3-.3-.3.3-.3z"/><path fill="#F9AE28" d="M26.1-4.4v.5l-.9.9.3.3-.6.6.4.4v-.4h.5v.4L24.6-.6H24l-.1-.3h.4l-.5-.5-1 .9 1 .9.5-.5h-.4l.1-.3h.6L25.8.7v.4h-.5V.6l-.5.4.6.6-.3.3.9.9v.5L24.6 2l.4-.4-.7-.6.5-.5-.4-.4-.7.6-1.4-1.3 1.4-1.3.7.6.4-.4-.5-.5.7-.5-.3-.3 1.4-1.4zm0 2.8v2l-.3-.3v-.4h-.4l-.3-.3.3-.3h.4v-.4l.3-.3zm-2.6.8v.4l-.2-.2.2-.2z"/><path fill="#393839" d="M26.1 6.1v.6l-.9.8.3.3-.6.6.3.3v-.4h.5v.4l-1.2 1.1h-.6l-.1-.4h.4l-.4-.4-1 .9 1 .9.4-.4h-.4l.1-.4h.6l1.2 1.1v.4h-.5v-.4l-.3.3.6.6-.3.3.9.8v.6l-1.5-1.4.3-.3-.6-.6.5-.5-.4-.3-.7.6-1.4-1.2 1.5-1.4.7.6.4-.3-.5-.5.6-.6-.3-.3 1.4-1.4zm0 2.8V11l-.3-.4v-.4h-.4l-.3-.2.3-.3h.4v-.4l.3-.4zm-2.5.8.1.3-.1.3-.4-.3.4-.3z"/><path fill="#F9AE28" d="M26.1 6.2v.5l-.9.9.3.3-.6.6.4.4v-.6h.5v.4l-1.2 1.1H24l-.1-.3h.4l-.5-.5-1 .9 1 .9.5-.5h-.4l.1-.3h.6l1.2 1.1v.4h-.5v-.4l-.4.4.6.6-.3.3.9.9v.5l-1.4-1.3.3-.3-.6-.6.5-.5-.4-.4-.7.6-1.5-1.3 1.4-1.3.7.6.4-.4-.5-.5.7-.6-.3-.3 1.4-1.3zm0 2.8v2l-.3-.3v-.4h-.4l-.3-.3.3-.3h.4v-.4l.3-.3zm-2.6.7v.4l-.2-.1.2-.3z"/><path fill="#393839" d="M26.1 17v.6l-.9.8.3.3-.6.6.3.3v-.4h.5v.4l-1.2 1.1h-.6l-.1-.4h.4l-.4-.3-1 .9 1 .9.4-.4h-.4l.1-.4h.6l1.2 1.1v.4h-.5v-.4l-.3.3.6.6-.3.3.9.8v.6l-1.5-1.4.3-.3-.6-.6.5-.5-.4-.3-.7.6-1.5-1.4 1.5-1.4.7.6.4-.3-.5-.5.6-.6-.3-.3 1.5-1.3zm0 2.8v2.1l-.3-.4v-.4h-.4l-.3-.3.3-.3h.4v-.4l.3-.3zm-2.5.8.1.3-.1.3-.3-.3.3-.3z"/><path fill="#F9AE28" d="M26.1 17.1v.5l-.9.9.3.3-.6.6.4.4v-.4h.5v.4l-1.2 1.1H24l-.1-.3h.4l-.5-.5-1 .9 1 .9.5-.5h-.4l.1-.3h.6l1.2 1.1v.4h-.5v-.4l-.4.4.6.6-.3.3.9.9v.5l-1.4-1.3.3-.6-.6-.6.5-.5-.4-.4-.7.6-1.4-1.3 1.4-1.3.7.6.4-.4-.5-.5.6-.6-.3-.3 1.4-1.2zm0 2.8v2l-.3-.3v-.4h-.4l-.3-.3.3-.3h.4v-.4l.3-.3zm-2.6.7v.4l-.2-.2.2-.2z"/><path fill="#393839" d="M26.1 27.9v.6l-.9.8.3.3-.6.6.3.3v-.4h.5v.4l-1.2 1.1h-.6l-.1-.4h.4l-.4-.4-1 .9 1 .9.4-.4h-.4l.1-.4h.6l1.2 1.1v.4h-.5v-.4l-.3.3.6.6-.3.3.9.8v.6l-1.5-1.4.3-.3-.6-.6.5-.5-.4-.3-.7.6-1.5-1.4 1.5-1.4.7.6.4-.3-.5-.5.6-.6-.3-.3 1.5-1.2zm0 2.8v2.1l-.3-.4V32h-.4l-.3-.3.3-.3h.4V31l.3-.3zm-2.5.8.1.3-.1.3-.3-.3.3-.3z"/><path fill="#F9AE28" d="M26.1 28v.5l-.9.9.3.3-.6.6.4.4v-.4h.5v.4l-1.2 1.1H24l-.1-.3h.4l-.5-.5-1 .9 1 .9.5-.5h-.4l.1-.3h.6l1.2 1.1v.4h-.5V33l-.4.4.6.6-.3.3.9.9v.5l-1.4-1.3.3-.3-.6-.6.5-.5-.4-.4-.7.6-1.4-1.3 1.4-1.3.7.6.4-.4-.5-.5.6-.6-.3-.3 1.4-1.4zm0 2.8v2l-.3-.3V32h-.4l-.3-.3.3-.3h.4V31l.3-.2zm-2.6.7v.4l-.2-.2.2-.2z"/><path fill="#393839" d="M351.896 38.9v.6l.9.8-.3.3.6.6-.3.3V41h-.5v.4l1.2 1.1h.6l.1-.4h-.4l.4-.4 1 .9-1 .9-.4-.4h.4l-.1-.4h-.6l-1.2 1.1v.4h.5V44l.3.3-.6.6.3.3-.9.8v.6l1.5-1.4-.3-.3.6-.6-.5-.5.4-.3.7.6 1.5-1.4-1.5-1.4-.7.6-.4-.3.5-.5-.6-.6.3-.3-1.5-1.3zm0 2.7v2.1l.3-.4V43h.4l.3-.3-.3-.3h-.4V42l-.3-.4zm2.5.8-.1.3.1.3.3-.3-.3-.3z"/><path fill="#F9AE28" d="M351.896 38.9v.5l.9.9-.3.3.6.6-.4.4V41h-.5v.4l1.2 1.1h.6l.1-.3h-.4l.5-.5 1 .9-1 .9-.5-.5h.4l-.1-.3h-.6l-1.2 1.1v.4h.5v-.4l.4.4-.6.6.3.3-.9.9v.5l1.4-1.3-.3-.3.6-.6-.5-.5.4-.4.7.6 1.4-1.3-1.4-1.3-.7.6-.4-.4.5-.5-.6-.6.3-.3-1.4-1.3zm0 2.8v2l.3-.3V43h.4l.3-.3-.3-.3h-.4V42l-.3-.3zm2.6.8v.4l.2-.2-.2-.2zM11.7 50.7l.4.9c.1-.4.2-.7.2-1-.1-.3-.3-.5-.3-.8-.3.3-.4.6-.3.9zm-.1 1.4c.2.3.5.5.9.7-.1-.3.1-.5.2-.7.2-.2.2-.5.1-.8l-.2.4-.3.6c-.2-.1-.2-.3-.3-.5-.1-.3-.4-.5-.6-.6 0 .4.1.7.2.9zm1.3.9-.1.5c-.1-.2-.3-.3-.5-.4-.2-.2-.5-.3-.7-.6 0 .4.2.6.5.8.3.2.7.3 1 .6 0-.3.1-.6.2-.9.1-.3 0-.6-.2-.8-.1.4-.2.6-.2.8zm.6 1.1c.1.2.2.4.4.7l-.9-.4c-.3-.2-.7-.3-1-.6.2.6.5.9 1.1 1.1.4.1.7.1 1.2.2-.1-.3-.1-.7-.3-.9l-.3-.6c-.2.1-.2.3-.2.5zm1.2.8.4.5-1.3-.3-.8.1c.3.2.7.4 1.1.5.5.1 1-.1 1.6 0-.3-.2-.4-.4-.6-.7-.2-.3-.4-.6-.8-.6.2.1.3.3.4.5zm1.6.8c-.8.1-1.6.3-2.4.3.9.3 1.8.4 2.7 0 .5-.2.9-.3 1.2-.2.5 0 1.2.3 1.9 1l.3-.2c-1-.9-2.3-1.1-3.7-.9zm336.936-5 .4.9c.1-.4.2-.7.2-1-.1-.3-.3-.5-.3-.8-.4.3-.4.6-.3.9zm-.1 1.4c.2.3.5.5.9.7-.1-.3.1-.5.2-.7.2-.2.2-.5.1-.8l-.2.4-.3.6c-.2-.1-.2-.3-.3-.5-.1-.3-.4-.5-.6-.6 0 .4 0 .7.2.9zm1.2.9-.1.5c-.1-.2-.3-.3-.5-.4-.2-.2-.5-.3-.7-.6 0 .4.2.6.5.8.3.2.7.3 1 .6 0-.3.1-.6.2-.9.1-.3 0-.6-.2-.8 0 .4-.1.6-.2.8zm.7 1.1c.1.2.2.4.4.7l-.9-.4c-.3-.2-.7-.3-1-.6.2.6.5.9 1.1 1.1.4.1.7.1 1.2.2-.1-.3-.1-.7-.3-.9l-.3-.6c-.2.1-.3.3-.2.5zm1.2.8.4.5-1.3-.3-.8.1c.3.2.7.4 1.1.5.5.1 1-.1 1.6 0-.3-.2-.4-.4-.6-.7-.2-.3-.4-.6-.8-.6.1.1.2.3.4.5zm1.6.8c-.8.1-1.6.3-2.4.3.9.3 1.8.4 2.7 0 .5-.2.9-.3 1.2-.2.5 0 1.2.3 1.9 1l.3-.2c-1-.9-2.4-1.1-3.7-.9z"/><path fill="#393839" d="m12.4 6.2-1.3-.8V3.6l1.3-.8v-1l1.2-.7h.9l1.8-1h3.9l1.8 1h1l1.2.7v1l1.3.8v1.8l-1.3.8v1l-1.2.7h-1l-1.8 1h-3.9l-1.8-1h-.9l-1.2-.7v-1z"/><path fill="#29AE66" d="m16.3.2-1.8 1h-.9l-1.2.7v1l-1.3.8v1.8l1.3.8v1l1.2.7h.9l1.8 1h3.9L22 8h.9l1.2-.7v-1l1.3-.8V3.6l-1.3-.8v-1l-1.2-.7H22l-1.8-1c0 .1-3.9.1-3.9.1zm.2.3h3.6l1.8 1h.9l.9.5v1l1.3.8v1.4l-1.3.8v1l-.9.5h-.9l-1.8 1h-3.6l-1.8-1h-.9l-1-.5V6l-1.3-.8V3.8l1.3-.8V2l.9-.5h.9c0 .1 1.9-1 1.9-1z"/><path fill="#F9AE28" d="M18.2 4.5v-4h-1.8l-1.8 1h-.9l-.9.5v1l-1.3.8v.7h6.7v3.9H20l1.8-1h.9l.9-.5V6l1.3-.8v-.7h-6.7z"/><path fill="#fff" d="M11.6 4.5v.7l1.3.8v1l.9.5h.9l1.8 1h1.8v-4H25v-.7L23.7 3V2l-.9-.5h-.9l-1.8-1h-1.8v4h-6.7z"/><path fill="#393839" d="m14.3 2-.3-.3-.3.2.3.2-.4.2h.9l.7.7.2-.3-.7-.7v-.3l-.4.3zm1.5-.2-.3-.3-.3.2.3.3-.4.2h.9l.7.8.3-.3-.8-.7v-.4l-.4.2zm-1.6 1-.3-.3-.3.2.3.3-.4.2h.9l.7.7.2-.3-.6-.6v-.5l-.5.3zM18.3.5h-.8l-.4.4h-.8l-.6.3.1.3.5-.3h.2l.8.9.9-.5.1-1.1z"/><path fill="#CA3946" d="m14 1.7.3.3-.2.1-.3-.3.2-.1zm.7.1v.4l.7.7-.1.1-.7-.7h-.7l.8-.5zm.8-.2.3.3-.3.1-.3-.3.3-.1zm.7 0V2l.7.7-.2.2-.7-.7h-.7l.9-.6zm-2.3.9.3.3-.2.1-.3-.3.2-.1zm.7.1V3l.7.7-.2.2-.7-.7h-.7l.9-.6zm3.6-2h-.7l-.4.4h-.8l-.5.3.1.3.5-.3h.3l.8.9.9-.5-.2-1.1z"/><path fill="#393839" d="m14.3 98.523-.3-.3-.3.2.3.3-.4.2h.9l.7.7.2-.3-.7-.7v-.5l-.4.4zm1.5-.1-.3-.3-.3.2.3.3-.4.2h.9l.7.7.3-.2-.8-.7v-.5l-.4.3zm-1.6.9-.3-.3-.3.2.3.3-.4.2h.9l.7.7.2-.3-.7-.7v-.5l-.4.4zm4.1-2.2h-.8l-.4.4h-.8l-.6.3.1.3.5-.3h.2l.8.9.9-.5.1-1.1z"/><path fill="#CA3946" d="m14 98.323.3.3-.2.1-.3-.3.2-.1zm.7 0v.4l.7.7-.1.2-.7-.7h-.7l.8-.6zm.8-.1.3.3-.3.1-.3-.3.3-.1zm.7 0v.4l.7.7-.2.2-.7-.7h-.7l.9-.6zm-2.3.9.3.3-.2.1-.3-.3.2-.1zm.7.1v.4l.7.7-.2.2-.7-.7h-.7l.9-.6zm3.6-2.1h-.7l-.4.4h-.8l-.5.3.1.3.5-.3h.3l.8.9.9-.5-.2-1.1z"/><path fill="#393839" d="m13.8 3.3-.4-.1-.4.3v.1l-.8 1 .8 1v.1l.5.3.4-.1-.2-.2v-.4l.1-.1h.4V3.8h-.4l-.1-.1v-.3l.1-.1z"/><path fill="#CA3946" d="m13 3.5.5-.3.3.1-.2.1v.3l.1.1h.4v1.4h-.4l-.1.1v.3l.2.1-.3.1-.5-.2v-.1l-.8-1 .8-1z"/><path fill="#393839" d="m22.2 2 .3-.3.3.2-.3.3.4.2H22l-.7.7-.3-.3.7-.7v-.4l.5.3zm-1.5-.2.3-.3.3.2-.3.3.4.2h-.9l-.7.8-.2-.3.7-.7v-.4l.4.2zm1.6 1 .3-.3.3.2-.3.3.4.2h-.9l-.7.7-.2-.3.7-.6v-.5l.4.3zm-4-2.3h.8l.4.4h.8l.6.3-.1.3-.5-.3H20l-.8.9-.9-.5V.5z"/><path fill="#CA3946" d="m22.5 1.7-.3.3.2.1.3-.3-.2-.1zm-.7.1v.4l-.7.7.2.1.7-.7h.7l-.9-.5zm-.8-.2-.3.3.3.1.3-.3-.3-.1zm-.7 0V2l-.7.7.2.2.7-.7h.7l-.9-.6zm2.3.9-.3.3.2.1.3-.3-.2-.1zm-.7.1V3l-.7.7.2.2.7-.7h.7l-.9-.6zm-3.6-2h.7l.4.4h.8l.5.3-.1.3-.5-.3h-.3l-.8.9-.9-.5.2-1.1z"/><path fill="#393839" d="m355.794 7.1-.3.3-.3-.2.3-.3-.4-.2h.9l.7-.7.3.2-.7.7v.5l-.5-.3zm1.5.1-.3.3-.3-.2.3-.3-.4-.2h.9l.7-.7.2.3-.7.6v.5l-.4-.3zm-1.6-.9-.3.3-.3-.2.3-.3-.4-.3h.9l.7-.7.2.3-.7.7v.5l-.4-.3zm4 2.2h-.8l-.4-.4h-.8l-.6-.3.1-.3.5.3h.3l.8-.9.9.5v1.1z"/><path fill="#CA3946" d="m355.494 7.3.3-.3-.2-.1-.3.3.2.1zm.7 0v-.4l.7-.7-.2-.2-.7.7h-.7l.9.6zm.8.1.3-.3-.3-.1-.3.3.3.1zm.7 0V7l.7-.7-.2-.2-.7.7h-.7l.9.6zm-2.3-.9.3-.3-.2-.1-.3.3.2.1zm.7-.1V6l.7-.7-.2-.2-.7.7h-.7l.9.6zm3.6 2.1h-.7l-.4-.4h-.8l-.5-.3.1-.3.5.3h.3l.8-.9.9.5-.2 1.1z"/><path fill="#393839" d="m22.7 3.3.4-.1.5.3v.1l.8 1-.8 1v.1l-.5.3-.4-.1.2-.2v-.4l-.1-.1h-.4V3.8h.4l.1-.1v-.3l-.2-.1z"/><path fill="#CA3946" d="m23.5 3.5-.5-.3-.3.1.3.1v.3l-.1.1h-.4v1.4h.4l.1.1v.3l-.2.1.3.1.5-.3v-.1l.8-1-.9-.9z"/><path fill="#393839" d="m13.2 5.3-.2-.1v-.1l-.5-.5.5-.6v-.1l.2-.2.3.3h-.2l.3.3h.7l.7-.4V2.7h1.4l1.7-1v-.3l-.3-.2h-.1l-.3.2v.1l-.2-.3.4-.4h.1l.5-.4h.2l.5.4h.1l.4.4-.2.3v-.1l-.3-.2h-.1l-.3.2v.3l1.7 1h1.4v1.2l.6.5h.7l.3-.4H23l.4-.3.2.2V4l.4.5-.5.5v.1l-.2.2L23 5h.2l-.3-.3h-.7l-.6.5v1.2h-1.4l-1.7 1v.3l.3.2h.1l.3-.2v-.1l.2.3-.4.4h-.1l-.5.4h-.2l-.5-.4h-.1l-.4-.4.2-.3v.1l.3.2h.1l.3-.2v-.3l-1.7-1H15V5.2l-.6-.5h-.7l-.4.3h.2l-.3.3z"/><path fill="#F9AE28" d="m18.3 7.9.2.1-.2.1v-.2zm-.6.2.5.4h.1v-.3L18 8l.3-.2v-.5l-1.8-1.1h-1.3V5.1l-.7-.5h-1l-.3.3-.3-.3h-.3l.4.5v.1l.2.1.3-.2h-.2V5l.4-.4h.8l.5.5v1.2h1.4l1.7 1v.3l-.3.2h-.1l-.3-.2v-.1l-.1.2.4.4zm-4.6-3.8.2.2h-.4l.2-.2zM18.2.9l-.1.1.2.1V.9zm5 3.6.2.2.2-.2h-.4zM18.8.9l-.5-.4h-.1v.3l.3.2-.3.2v.5L20 2.8h1.3V4l.7.5h1l.3-.3.3.3h.4l-.5-.5v-.1l-.2-.1-.2.2h.2l-.4.4h-.8l-.6-.5V2.7h-1.4l-1.7-1v-.3l.3-.2h.1l.3.2v.1l.1-.2-.4-.4z"/><path fill="#fff" d="m18.2 8.1-.1-.1.2-.1v.2zm-4.9-3.6-.2.2-.2-.2h.4zm5.5 3.6-.5.4h-.1v-.3l.3-.2-.3-.2v-.5L20 6.2h1.3V5.1l.7-.5h1l.3.3.3-.3h.3l-.4.5v.1l-.2.1-.3-.2h.2V5l-.4-.4H22l-.6.5v1.2H20l-1.7 1v.3l.3.2h.1l.3-.2v-.1l.1.2-.3.4zm4.6-3.8-.2.2h.4l-.2-.2zM17.7.9l.5-.4h.1v.3L18 1l.3.2v.5l-1.8 1.1h-1.3V4l-.7.5h-1l-.3-.3-.3.3h-.3L13 4v-.1l.2-.1.2.2h-.2l.4.4h.8l.6-.5V2.7h1.4l1.7-1v-.3l-.3-.2h-.1l-.3.2v.1l-.1-.2.4-.4zm.6.3.2-.2-.2-.1v.3z"/><path fill="#29AE66" d="M18.2 4.5V1.8l-1.8 1.1h-1.3V4l-.7.5h3.8v2.7L20 6.1h1.3v-1l.7-.6h-3.8z"/><path fill="#CA3946" d="m14.5 4.5.7.5v1.1h1.3l1.8 1.1V4.5h3.8l-.7-.5V2.9h-1.3l-1.8-1.1v2.7h-3.8z"/><path fill="#393839" d="m16.3 3.2-.3-.3-.3.2.3.3-.4.2h.9l.7.7.2-.3-.7-.7v-.4l-.4.3zm3.9 2.6.3.3.3-.2-.3-.3.4-.2H20l-.7-.7-.3.3.7.7v.5l.5-.4zm-3.9 0-.3.3-.3-.2.3-.2-.4-.2h.9l.7-.7.3.2-.7.7v.5l-.5-.4zm3.9-2.6.3-.3.3.2-.3.3.4.2H20l-.7.7-.3-.2.7-.7v-.5l.5.3z"/><path fill="#CA3946" d="m20.5 6.1-.3-.3.2-.1.3.3-.2.1zm-.7-.1v-.4l-.7-.6.2-.2.7.7h.7l-.9.5zM16 3l.3.3-.2.1-.3-.3.2-.1zm.7 0v.4l.7.7-.2.2-.7-.7h-.7l.9-.6z"/><path fill="#29AE66" d="m20.5 3-.3.3.2.1.3-.3-.2-.1zm-.7 0v.4l-.7.7.2.2.7-.7h.7l-.9-.6zM16 6.1l.3-.3-.2-.1-.3.3.2.1zm.7-.1v-.4l.7-.6-.2-.2-.7.7h-.7l.9.5z"/><path fill="#393839" d="m20.2 4.5-1.9 1.3-1.9-1.3 1.9-1.3 1.9 1.3z"/><path fill="#fff" d="m18.2 3.3-1.8 1.2H20l-1.8-1.2v2.4L20 4.5h-3.6l1.8 1.2V3.3z"/><path fill="#393839" d="M18.8 5v.4h-1V5h-.7v-.9h.7v-.4h1v.4h.7V5h-.7z"/><path fill="#CA3946" d="M17.8 3.8v.4h-.7v.4h1.1v-.8h-.4zm.5.7h1.1v-.4h-.7v-.3h-.5v.7h.1zm-1.2 0v.4h.7v.4h.5v-.8h-1.2zm1.2.8h.5v-.4h.7v-.4h-1.1v.8h-.1z"/><path fill="#393839" d="M21.5 19.1v-.6H23V18h1.5v-5.1H23v-.6h-1.5v-.6H20v-.6h-3.5v.6H15v.6h-1.5v.6H12V18h1.5v.6H15v.6h1.5v.6H20v-.6h1.5z"/><path fill="#CA3946" d="M16.6 11.2v.6H15v.6h-1.5v.6H12v5h1.5v.6H15v.6h1.5v.6H20v-.6h1.5v-.6H23V18h1.5v-5H23v-.6h-1.5v-.6H20v-.6h-3.4zm.4.4h2.6v.6h1.5v.6h1.5v.6h1.5v4.2h-1.5v.6h-1.5v.6h-1.5v.6H17v-.6h-1.5v-.6H14v-.6h-1.5v-4.2H14v-.6h1.5v-.6H17v-.6zm-1.5 7V18H14v-.6h-1.5v-4.1H14v-.6h1.5v-.6H17v-.6h2.5v.6H21v.6h1.5v.6H24v4.1h-1.5v.6H21v.6h-1.5v.6H17v-.6h-1.5z"/><path fill="#393839" d="m15.8 12.7-.4-.3v.6l-.4.2v-.4l-.4.3-.4-.3v.4l-.4-.3v.5l-.3.2v-.3l-.4.3-.4-.3v.3l-.4-.3v1.6h-.5v.7h.5v1.6l.4-.3v.3l.4-.3.4.3v-.3l.3.2v.5l.4-.3v.4l.4-.3.4.3v-.4l.4.2v.6l.4-.3v.4l.4-.4.4.4v-.4l.4.3v.6l.5-.5v.6l.7-.5.7.5v-.6l.5.5v-.6l.4-.3v.4l.4-.4.4.4v-.4l.4.3v-.6l.4-.2v.4l.4-.3.4.3v-.4l.4.3v-.5l.3-.2v.3l.4-.3.4.3v-.3l.4.3v-1.6h.5v-.7h-.5v-1.6l-.4.3v-.3l-.4.3-.3-.2v.3l-.3-.2V13l-.4.3v-.4l-.4.3-.4-.3v.4l-.4-.2v-.6l-.4.3v-.4l-.4.4-.4-.4v.4l-.4-.3v-.6l-.5.4v-.6l-.7.5-.7-.5v.6l-.6-.5v.6l-.4.3v-.4l-.4.4-.4-.4v.4z"/><path d="M12.8 13.8v-.3l.4.3.4-.3v.3l.4-.3v3.8l-.4-.3v.3l-.4-.3-.4.3V17l-.4.3v-1.6h-.5V15h.5v-1.6l.4.4zm3.1-1.5.4.3.4-.3v.4l.4-.3v6l-.4-.3v.4l-.4-.3-.4.3v-.4l-.4.3v-6l.4.3v-.4zm4.8 0-.4.3-.4-.3v.4l-.4-.3v6l.4-.3v.4l.4-.3.4.3v-.4l.4.3v-6l-.4.3v-.4zm3.1 1.5v-.3l-.4.3-.4-.4v.3l-.4-.3v3.8l.4-.3v.3l.4-.3.4.3v-.3l.4.3v-1.6h.5v-.7h-.5v-1.6l-.4.5z" fill="#29AE66"/><path d="m14.4 12.9.3.3.3-.3v.3l.4-.3v4.9l-.4-.2v.3l-.3-.3-.3.3v-.3l-.4.3V13l.4.3v-.4zm3.2-.5-.6-.5V19l.5-.5v.6l.7-.5.7.5v-.6l.5.5v-7.1l-.4.5v-.6l-.7.5-.7-.5v.6zm4.6.5-.3.3-.3-.3v.3l-.5-.2v4.9l.4-.3v.3l.3-.3.3.3v-.3l.4.3V13l-.4.3.1-.4z" fill="#F9AE28"/><path fill="#393839" d="M13 14.7s.1.1.2.1.1 0 .2-.1.2-.4.2-.6l-.2.2-.1-.2-.1.2-.2-.2c-.2.2-.2.5 0 .6zm1.6-.4-.1-.1V14l-.3.3.5.5.5-.5-.3-.3v.2l-.1.1v-.4l.2-.2-.3-.3-.3.3.2.2v.4zm1.5-.5-.1-.1v-.2l-.3.3.5.5.5-.5-.3-.3v.2l-.1.1v-.4l.2-.2-.3-.3-.3.3.2.2v.4z"/><path fill="#fff" d="m13.1 14.2.1.2.2-.2c0 .2-.1.4-.1.5l-.1.1c-.1 0-.1 0-.1-.1-.1-.1-.1-.3-.1-.5 0 .1.2.2.2.2-.1-.1-.1-.1-.1-.2zm3.2-.8v.6l.2-.2v-.2l.2.2-.4.4-.4-.4.2-.2v.2l.2.2v-.6l-.3-.2.3-.2.3.2-.3.2z"/><path fill="#CA3946" d="M14.8 13.9v.6l.2-.2V14l.2.2-.4.4-.4-.4.2-.2v.2l.2.2v-.6l-.2-.2.3-.2.3.2-.4.3z"/><path fill="#393839" d="M354.396 14.7s.1.1.2.1.1 0 .2-.1.2-.4.2-.6l-.2.2-.1-.2-.1.2-.2-.2c-.1.2-.1.5 0 .6zm1.7-.4-.1-.1V14l-.3.3.5.5.5-.5-.3-.3v.2l-.1.1v-.4l.2-.2-.3-.3-.3.3.2.2v.4zm1.5-.5-.1-.1v-.2l-.3.3.5.5.5-.5-.3-.3v.2l-.1.1v-.4l.2-.2-.3-.3-.3.3.2.2v.4z"/><path fill="#fff" d="m354.596 14.2.1.2.2-.2c0 .2-.1.4-.1.5l-.1.1c-.1 0-.1 0-.1-.1-.1-.1-.1-.3-.1-.5 0 .1.2.2.2.2-.2-.1-.1-.1-.1-.2zm3.2-.8v.6l.2-.3v-.2l.2.2-.4.4-.4-.4.2-.2v.2l.2.2v-.6l-.2-.2.1-.1.3.2-.2.2z"/><path fill="#CA3946" d="M356.196 13.9v.6l.2-.2V14l.2.2-.4.4-.4-.4.1-.2v.2l.2.2v-.6l-.2-.2.3-.2.3.2-.3.3z"/><path fill="#393839" d="m18.9 14-.2-.2.4-.4-.4-.3v.2l-.2.1V13l.4-.3-.7-.5-.7.5.5.3v.4l-.2-.1v-.2l-.4.3.4.4-.1.2h1.2z"/><path fill="#CA3946" d="m17.7 14 .1-.2-.4-.4.3-.2v.2l.2.2V13l-.3-.3.6-.4.6.4-.3.3v.5l.2-.2v-.2l.3.2-.4.4.1.2h-1z"/><path fill="#393839" d="m18 12.7.3.2.3-.2-.3-.2-.3.2z"/><path fill="#29AE66" d="m18.3 12.6.2.2-.2.2-.2-.2c0-.1.1-.2.2-.2z"/><path fill="#393839" d="M13 16.1s.1-.1.2-.1.1 0 .2.1.2.4.2.6l-.2-.2-.1.2-.1-.2-.2.2c-.2-.2-.2-.4 0-.6zm1.6.4-.1.1v.2l-.3-.3.5-.5.5.5-.3.3v-.2l-.1-.1v.5l.2.2-.3.3-.3-.3.2-.2v-.5zm1.5.5-.1.2v.2l-.3-.3.5-.5.5.5-.3.3v-.2l-.1-.2v.4l.2.2-.3.3-.3-.3.2-.2V17z"/><path fill="#fff" d="m13.1 16.6.1-.2.2.2c0-.2-.1-.4-.1-.5l-.1-.1c-.1 0-.1 0-.1.1-.1.1-.1.3-.1.5 0-.1.2-.2.2-.2-.1.1-.1.2-.1.2zm3.2.9v-.6l.2.2v.2l.2-.2-.4-.4-.4.4.2.2v-.2l.2-.2v.6l-.3.2.3.2.3-.2-.3-.2z"/><path fill="#CA3946" d="M14.8 17v-.6l.2.2v.2l.2-.2-.4-.4-.4.4.2.2v-.2l.2-.2v.6l-.2.2.3.2.3-.2-.4-.2z"/><path fill="#393839" d="M23.6 315.116s-.1.1-.2.1-.1 0-.2-.1-.2-.4-.2-.6l.2.2.1-.2.1.2.2-.2c.1.2.1.4 0 .6zm-1.7-.4.1-.1v-.2l.3.3-.5.5-.5-.5.3-.3v.2l.1.1v-.5l-.2-.2.3-.3.3.3-.2.2v.5zm-1.5-.5.1-.1v-.2l.3.3-.5.5-.5-.5.3-.3v.2l.1.1v-.4l-.2-.3.3-.3.3.3-.2.2v.5z"/><path fill="#fff" d="m23.4 314.616-.1.2-.2-.2c0 .2.1.4.1.5l.1.1c.1 0 .1 0 .1-.1.1-.1.1-.3.1-.5 0 .1-.2.2-.2.2.2-.1.1-.2.1-.2zm-3.2-.9v.6l-.2-.2v-.2l-.2.2.4.4.4-.4-.2-.2v.2l-.2.2v-.6l.2-.2-.3-.2-.1.2.2.2z"/><path fill="#CA3946" d="M21.8 314.216v.6l-.2-.2v-.2l-.2.2.4.4.4-.4-.2-.2v.2l-.2.2v-.6l.2-.2-.3-.2-.3.2.4.2z"/><path fill="#393839" d="m18.9 16.8-.2.2.4.4-.4.3v-.2l-.2-.1v.4l.4.3-.7.5-.7-.5.4-.3v-.4l-.2.1v.2l-.4-.3.4-.4-.2-.2h1.4z"/><path fill="#CA3946" d="m17.7 16.9.1.2-.4.4.3.2v-.2l.2-.2v.5l-.3.3.6.4.6-.4-.3-.3v-.5l.2.2v.2l.3-.2-.4-.4.1-.2h-1z"/><path fill="#393839" d="m18 18.1.3-.2.3.2-.3.2-.3-.2z"/><path fill="#29AE66" d="m18.3 18.3.2-.2-.2-.2-.2.2s.1.2.2.2z"/><path fill="#393839" d="M23.8 15.2h-.7v-.3H21l-1.4-1H17l-1.4 1h-2.1v.3h-.7v.5h.7v.3h2.1l1.4 1h2.6l1.4-1h2.1v-.3h.7v-.5z"/><path fill="#CA3946" d="m17 14-1.5 1h-2v.3h-.7v.4h.7v.3h2l1.4 1h2.6l1.4-1H23v-.3h.7v-.4H23V15h-2l-1.4-1H17zm0 .1h2.5l1.3.9v.1h1.5v.6h-1.5v.1l-1.3.9H17l-1.3-.9v-.1h-1.5v-.6h1.5V15l1.3-.9zm2.5.1 1.3.8v.2h1.5v.5h-1.5v.2l-1.3.8H17l-1.3-.8v-.2h-1.5v-.5h1.5V15l1.3-.8h2.5z"/><path fill="#393839" d="m16.4 15.9.6.4.4-.3-.2-.2-.3.2-.1-.1 2.1-1.6h-.4l-2.1 1.6zm1.2.6h.4l2.1-1.6-.6-.4-.4.3.2.2.2-.1.1.1-2 1.5zm.9 0h.4l-2.1-1.6.1-.1.2.1.2-.2-.4-.3-.6.4 2.2 1.7zm1.2-.6-.1.1-.2-.1-.2.2.4.3.6-.4-2.2-1.7h-.4l2.1 1.6zm-3.7-.5.4.2.4-.2-.4-.2-.4.2zm1.9 0 .4.2.4-.2-.4-.2-.4.2zm2.7 0-.4.2-.4-.2.4-.2.4.2z"/><path fill="#F9AE28" d="m20.1 15.9-.5.4-.3-.2.1-.1.2.1.2-.2-2.1-1.5h.3l2.1 1.5zm-1.3.6h-.3L16.4 15l.5-.4.3.2-.1.1-.2-.1-.2.2 2.1 1.5zm-.8 0h-.3l2.1-1.5-.2-.2-.2.1-.1-.1.3-.2.5.4-2.1 1.5zm.5-2.1h.3l-2.1 1.5.2.2.2-.1.1.1-.3.2-.5-.4 2.1-1.5z"/><path fill="#29AE66" d="m16.3 15.2.3.2-.3.2-.3-.2.3-.2zm2 0 .3.2-.3.2-.3-.2.3-.2zm1.9 0-.3.2.3.2.3-.2-.3-.2z"/><path d="m11.6 25.9-.1.2.3.2-.3.2.1.2h.3l.3-.2.8.5v-.4l-.5-.3.5-.3v-.4l-.7.5-.3-.2h-.4zm0-1.3-.1.2.3.2-.3.2.1.2h.3l.3-.2.7.5v-.4l-.4-.3.5-.3v-.4l-.7.5-.3-.3-.4.1zm0 3.5-.1-.2.3-.2-.3-.2.1-.2h.3l.3.2.8-.5v.4l-.5.3.5.3v.4l-.7-.5-.3.2h-.4zm13.3-2.2.1.2-.3.2.3.2-.1.2h-.3l-.3-.2-.8.5v-.4l.5-.3-.5-.3v-.4l.7.5.3-.2h.4zm0-1.3.1.2-.2.2.3.2-.1.2h-.3l-.3-.2-.7.5v-.4l.3-.3-.5-.3v-.4l.7.5.3-.2h.4zm0 3.5.1-.2-.3-.2.3-.2-.1-.2h-.3l-.3.2-.8-.5v.4l.5.3-.5.3v.4l.7-.5.3.2h.4zm-3-5.9v.6h.4v.2h.4v-.5h-.4v-.4h-.4zm1.2.9v.6h.4v.3h.4v-.5h-.4v-.4h-.4zm-8.5-.9v.6h-.4v.2h-.4v-.5h.4v-.4h.4zm7.3 8.3v-.6h.4v-.3h.4v.5h-.4v.4h-.4zm-7.3 0v-.6h-.4v-.3h-.4v.5h.4v.4h.4zm8.5-.9V29h.4v-.3h.4v.5h-.4v.4h-.4zm-9.7-6.5v.6H13v.3h-.4v-.5h.4v-.4h.4zm0 6.5V29H13v-.3h-.4v.5h.4v.4h.4zm6.4-7.4-.3-.3-.3.3.3.3-.3.3h.5l.2-.2.2.2h.5l-.3-.3.3-.3-.3-.3c-.3.1-.4.2-.5.3zm-1.5 0-.3-.3-.3.3.3.3-.3.3h.5l.2-.2.2.2h.4l-.3-.3.3-.3-.3-.3c-.2.1-.3.2-.4.3zm-1.6 0 .3-.3.3.3-.3.3.3.3h-.5l-.2-.2-.2.2H16l.3-.3-.3-.3.3-.3c.2.1.3.2.4.3zm3.1 8.3-.3.3-.3-.3.3-.3-.3-.3h.5l.2.2.2-.2h.5l-.3.3.3.3-.3.3c-.3-.1-.4-.2-.5-.3zm-1.5 0-.3.3-.3-.3.3-.3-.3-.3h.5l.2.2.2-.2h.4l-.3.3.3.3-.3.3c-.2-.1-.3-.2-.4-.3zm-1.6 0 .3.3.3-.3-.3-.3.3-.3h-.5l-.2.2-.2-.2H16l.3.3-.3.3.3.3c.2-.1.3-.2.4-.3z" fill="#393839"/><path d="M13 26.6v.3l-.7-.4-.3.2h-.3l-.1-.2.3-.2-.3-.2.1-.2h.3l.3.2.7-.4v.3l-.5.3.5.3zm0-1.3v.3l-.7-.4-.3.2h-.3l-.1-.2.3-.2-.3-.2.1-.2h.3l.3.2.7-.4v.3l-.5.3.5.3zm0 2.1v-.3l-.7.4-.3-.2h-.3l-.1.2.3.2-.3.2.1.2h.3l.3-.2.7.4V28l-.5-.3.5-.3zm10.6-.8v.3l.7-.4.3.2h.3l.1-.2-.3-.2.3-.2-.1-.1h-.3l-.3.2-.7-.4v.2l.5.3-.5.3zm0-1.3v.3l.7-.4.3.2h.3l.1-.2-.3-.2.3-.2-.1-.2h-.3l-.3.2-.7-.4v.3l.5.3-.5.3zm0 2.1v-.3l.7.4.3-.2h.3l.1.2-.3.2.3.2-.1.2h-.3l-.3-.2-.7.4V28l.5-.3-.5-.3zm-1.3-5.2v.4h.4v.4h-.3v-.3H22v-.5h.3zm1.2.9v.4h.4v.4h-.3v-.3h-.4v-.5h.3zm-9.3-.9v.4h-.4v.4h.3v-.3h.4v-.5h-.3zm8.1 8.2V30h.4v-.4h-.3v.3H22v.5h.3zm-8.1 0V30h-.4v-.4h.3v.3h.4v.5h-.3zm9.3-.9v-.4h.4v-.4h-.3v.3h-.4v.5h.3zM13 23.1v.4h-.4v.4h.4v-.3h.4v-.5H13zm0 6.4v-.4h-.4v-.4h.4v.3h.4v.5H13zm6.5-7.6.3.3.3-.3.2.2-.3.3.3.3H20l-.2-.2-.2.2h-.4l.3-.3-.3-.3c.1 0 .3-.1.3-.2zm-1.5 0 .3.3.3-.3.2.2-.3.3.3.3h-.4l-.2-.2-.2.2h-.4l.3-.3-.3-.3c.1 0 .3-.1.4-.2zm-.9 0-.3.3-.3-.3-.2.2.3.3-.3.3h.4l.2-.2.2.2h.4l-.5-.3.3-.3s-.2-.1-.2-.2zm2.4 8.8.3-.3.3.3.2-.2-.3-.3.3-.3H20l-.2.2-.2-.2h-.4l.3.3-.3.3c.1 0 .3.2.3.2zm-1.5 0 .3-.3.3.3.2-.2-.3-.3.3-.3h-.4l-.2.2-.2-.2h-.4l.3.3-.3.3.4.2zm-.9 0-.3-.3-.3.3-.2-.2.3-.3-.3-.3h.4l.2.2.2-.2h.4l-.5.3.3.3-.2.2z" fill="#29AE66"/><path fill="#393839" d="M14.2 29v.9h8.2V29h1.2v-5.4h-1.2v-.9h-8.2v.9H13V29h1.2z"/><path fill="#CA3946" d="M14.2 22.8v.9H13V29h1.2v.9h8.1V29h1.2v-5.3h-1.2v-.9h-8.1zm.5.3h7.1v.9l.3.2h1.1v4.3h-1.1l-.3.2v.9h-7.1v-.9l-.3-.2h-1.1v-4.3h1.1l.3-.2v-.9zm.1.1v.8l1.1-.8h-1.1zm5.9 0 1.1.8v-.8h-1.1zm-7.3 1v.8l1-.7h-1v-.1zm8.7 0 1 .7v-.7h-1zm1.1 3.5-1 .7h1v-.7zm-9.8 0v.7h1l-1-.7zm1.4 1v.8h1.1l-1.1-.8zm7 0-1.1.8h1.1v-.8z"/><path fill="#29AE66" d="m20.6 23.2 2.5 1.9v2.6l-2.5 1.9h-4.7l-2.5-1.9V25l2.5-1.9h4.7v.1z"/><path fill="#393839" d="m14 27.9-.3-.3.3-.3-.3-.3.3-.3-.3-.3.3-.4-.3-.3.3-.3-.3-.3.3-.3h8.6l.3.3-.3.3.3.3-.3.3.3.3-.3.3.3.3-.3.3.3.3-.3.3H14zm5.9-4.3-.3-.3-.3.3-.3-.3-.3.3-.3-.3-.4.2-.3-.3-.3.3-.4-.2-.3.3v5.5l.3.3.3-.3.3.3.3-.3.3.3.3-.3.3.3.3-.3.3.3.3-.3v-5.5z"/><path d="m19.2 23.6-.3-.3-.3.3v5.5l.3.3.3-.3v-5.5zm-1.3 0-.3-.3-.3.3v5.5l.3.3.3-.3v-5.5zM14 27.9l-.3-.3.3-.3h8.5l.3.3-.3.3H14zm8.5-1.9.3.3-.3.3H14l-.3-.3.3-.3h8.5zm0-.6.3-.3-.3-.3H14l-.3.3.3.3h8.5z" fill="#F9AE28"/><path d="m19.8 23.6-.3-.3-.3.3v5.5l.3.3.3-.3v-5.5zm-2.5 0-.3-.3-.3.3v5.5l.3.3.3-.3v-5.5zM14 27.3l-.3-.3.3-.3h8.5l.3.3-.3.3H14zm0-1.3-.3-.3.3-.3h8.5l.3.3-.3.3H14zm4.6 3.1-.3.3-.3-.3v-5.5l.3-.3.3.3v5.5z" fill="#CA3946"/><path fill="#393839" d="M21.1 23.7h-5.7v.5h-.7v4.4h.7v.4h5.8v-.5h.7v-4.4h-.7l-.1-.4z"/><path fill="#CA3946" d="M15.4 23.7v.5h-.7v4.3h.7v.5h.6l-1.2-1v-3.2l1.2-1-.6-.1zm5.1 0 1.2 1v3.2l-1.2 1h.6v-.5h.7v-4.3h-.7v-.5l-.6.1z"/><path d="m16.1 23.7-1.2 1v3.1l1.2 1h4.3l1.2-1v-3.1l-1.2-1h-4.3zm.1.2h4.2l1.1.9v3l-1.1.9h-4.2l-1.2-.9v-3l1.2-.9zm1.1 4 .2.1v.2l-.2.2.3.3h-.3l-.3-.2-.2.2h-.3l.3-.3-.2-.2V28l.2-.1.2.2.3-.2zm1.2 0 .2.1v.2l-.2.2.3.3h-.3l-.2-.2-.3.2h-.3l.3-.3-.2-.2V28l.2-.1.2.2.3-.2zm.8 0-.2.1v.2l.2.2-.3.3h.3l.2-.2.2.2h.3l-.3-.3.2-.2V28l-.2-.1-.2.2-.2-.2zm-2-3.1.2-.1v-.2l-.2-.2.3-.3h-.3l-.3.2-.2-.2h-.3l.3.3-.2.2v.2l.2.1.2-.2.3.2zm1.2 0 .2-.1v-.2l-.2-.2.3-.3h-.3l-.2.2-.3-.3h-.3l.3.3-.2.2v.2l.2.1.2-.2.3.3zm.8 0-.2-.1v-.2l.2-.2-.3-.3h.3l.2.2.2-.2h.3l-.3.3.2.2v.2l-.2.1-.2-.2-.2.2zm2.2.3-.2.2.2.2v.3l-.3-.2-.2.2h-.2l-.1-.1.2-.2-.2-.2.1-.1h.2l.2.2.3-.2v-.1zm0 1.1-.2.2.2.2v.3l-.3-.2-.2.2h-.2l-.1-.1.2-.2-.2-.2.1-.1h.2l.2.2.3-.2v-.1zm0 1.3-.2-.2.2-.2v-.3l-.3.2-.2-.2h-.2l-.1.1.2.2-.2.2.1.1h.2l.2-.2.3.2v.1zm-6.4-2.4.2.2-.2.2v.3l.3-.2.2.2h.2l.1-.1-.2-.2.2-.2-.1-.1h-.2l-.2.2-.3-.2v-.1zm0 1.1.2.2-.2.2v.3l.3-.2.2.2h.2l.1-.1-.2-.2.2-.2-.1-.1h-.2l-.2.2-.3-.2v-.1zm0 1.3.2-.2-.2-.2v-.3l.3.2.2-.2h.2l.1.1-.2.2.2.2-.1.1h-.2l-.2-.2-.3.2v.1z" fill="#29AE66"/><path fill="#CA3946" d="M16.2 23.9s-1 .9-1.1.9c.1.1.2.2.3.2l.2-.2h.3l.1.2-.2.2.2.2-.1.2h-.3l-.2-.2-.3.2v.1c.1.1.2.2.3.2l.2-.2h.3l.1.2-.2.2.2.2-.1.2h-.3l-.2-.2-.3.2v.1l.3.2.2-.2h.3l.1.2-.2.2.2.2-.1.2h-.3l-.2-.2c-.1.1-.2.2-.3.2l1.1.9h.2l.3-.3-.2-.2v-.3l.2-.1.3.6.2-.2.2.1v.3l-.2.2.3.3.3-.3-.2-.2v-.3l.2-.1.2.2.2-.2.2.1v.3l-.2.2.3.3.3-.3.2-.2v-.3l.2-.1.2.2.2-.2.2.1v.3l-.2.2.3.3h.2s1-.9 1.1-.9l-.3-.2-.2.2h-.3l-.1-.2.2-.2-.2-.2.1-.2h.3l.2.2.3-.2v-.1l-.3-.2-.2.2h-.3l-.1-.2.2-.2-.2-.2.1-.2h.3l.2.2c.1-.1.2-.2.3-.2V26l-.3-.2-.2.2h-.3l-.1-.2.2-.2-.2-.2.1-.2h.3l.2.2.3-.2-1.1-.9h-.2l-.3.3.2.2v.3l-.2.1-.2-.2-.2.2-.2-.5v-.3l.2-.2-.3-.2-.3.3.2.2v.3l-.2.1-.2-.2-.4.1-.2-.1v-.3l.2-.2-.3-.2-.3.3.2.2v.3l-.2.1-.4-.2-.2.2-.2-.1v-.3l.2-.2-.3-.3-.3-.1zm-1.1 2.3v.2l.1-.1-.1-.1z"/><path d="m17 28.5-.2.2h.4l-.2-.2zm1.3 0-.2.2h.4l-.2-.2zm1.2 0-.2.2h.4l-.2-.2zm-2.6-4.6.2.2.2-.2h-.4zm1.2 0 .2.2.2-.2h-.4zm1.2 0 .2.2.2-.2h-.4zm2.1 1.3-.1.1.1.1v-.2zm0 1-.1.1.1.1v-.2zm0 1.1-.1.1.1.1v-.2zm-6.3-2.1v.2l.1-.1-.1-.1zm0 1v.2l.1-.1-.1-.1zm0 1v.2l.1-.1-.1-.1z" fill="#fff"/><path fill="#393839" d="M19.3 26v-.4H19v-.4h-1.4v.4h-.4v.4h-.5v.7h.5v.3h.4v.4H19V27h.4v-.4h.5V26h-.6z"/><path fill="#F9AE28" d="M18.2 25.3v.4l-.5.3v.3h-.9V26h.5v-.4h.4v-.4h.5zm.1 2.1V27l.6-.3v-.3h.9v.3h-.5v.3h-.4v.4h-.6z"/><path fill="#fff" d="M18.9 26.3V26l-.6-.3v-.4h.6v.4h.4v.3h.5v.3h-.9zm-2.2 0h.9v.3l.6.3v.4h-.6V27h-.4v-.4h-.5v-.3z"/><path fill="#CA3946" d="M17.7 26.3v.3l.5.3v-.6h-.5z"/><path fill="#29AE66" d="m18.2 25.7-.5.3v.3h.5v-.6z"/><path fill="#CA3946" d="M18.8 26.3V26l-.5-.3v.6h.5z"/><path fill="#29AE66" d="m18.3 26.9.5-.3v-.3h-.5v.6z"/><path fill="#393839" d="M13.3 33.6v1.1h-1.1v1h-1.1v2.9h1.1v1h1.1v1.1h3.9l.7.4-.3.2h-1.4l-.1-.1h1.3L17 41h-1.8l.8.9h1.7l.6-.3.6.3h1.7l.8-.9h-1.8l-.4.4h1.3l-.1.1H19l-.3-.2.7-.4h3.9v-1.1h1.1v-1h1.1v-2.9h-1.1v-1h-1.1v-1.1h-3.9l-.7-.4.3-.4h1.4l.1.1h-1.3l.4.4h1.8l-.8-.9h-1.7l-.6.4-.6-.3H16l-.8.9H17l.4-.4h-1.3l.1-.1h1.4l.3.2-.7.4h-3.9z"/><path fill="#CA3946" d="M19.3 40.8h3.9v-1.1h1.1v-1h1.1v-2.8h-1.1v-1h-1.1v-1.1h-3.9l-1.6-1H16l-.7.8H17l.3-.3H16l.2-.2h1.4l1.8 1.1h3.3v1.1h1.1v1H25v2h-1.1v1h-1.1v1.1h-3.3l-1.8 1.1h-1.4l-.3-.2h1.3L17 41h-1.7l.7.8h1.7l1.6-1zm-2.2-.4h-3.3v-1.1h-1.1v-1h-1.1v-2h1.1v-1h1.1v-1.1h3.3l1.8-1.1h1.4l.2.2h-1.3l.3.3h1.7l-.7-.8h-1.7l-1.6 1h-3.9v1.1h-1.1v1h-1.1v2.8h1.1v1h1.1v1.1h3.9l1.6 1h1.7l.7-.8h-1.7l-.3.3h1.3l-.2.2h-1.4l-1.8-1.1z"/><path fill="#F9AE28" d="m18.3 33.4-1.2.7h-3.3v1.1h-1.1v1h-1.1v1.9h1.1v1h1.1v1.1h3.3l1.2.7 1.2-.7h3.3v-1.1h1.1v-1H25v-1.9h-1.1v-1h-1.1v-1.1h-3.3l-1.2-.7zm0 .3 1.1.7h3.1v1.1h1.1v1h1.1V38h-1.1v1h-1.1v1.1h-3.1l-1.1.7-1.1-.7H14V39h-1v-1h-1.1v-1.5H13v-1h1v-1.1h3.1l1.2-.7z"/><path fill="#29AE66" d="M22.5 38.9V40h-3.1l-1.1.6-1.1-.6h-3.1v-1.1H13v-1h-1.1v-1.4H13v-1h1.1v-1.1h3.1l1.1-.6 1.1.6h3.1v1.1h1.1v1h1.1v1.4h-1.1v1h-1.1z"/><path fill="#393839" d="M14.5 38.6v1.1h1.7l-1.7-1.1zm0-2.7v-1.1h1.7l-1.7 1.1zm7.6 2.7v1.1h-1.7l1.7-1.1zm0-2.7v-1.1h-1.7l1.7 1.1z"/><path fill="#CA3946" d="m14.5 38.6 1.5 1h-1.5v-1zm0-2.7c.1 0 1.4-.9 1.5-1h-1.5v1zm7.5 2.7c-.1 0-1.4.9-1.5 1H22v-1zm0-2.7c-.1 0-1.4-.9-1.5-1H22v1z"/><path fill="#393839" d="M16.7 36.9v-.6h-.2l-.9-.6-.9.6h-.2v.6H14v.6h.4v.6h.2l.9.6.9-.6h.2v-.6h.7v-.6h-.6z"/><path fill="#CA3946" d="m15.6 35.8.8.5h-1.7l.9-.5zm.8 2.3-.8.5-.8-.5h1.6zm-.2-1.1v.5h-1V37h1z"/><path d="M16.6 37.5v.5h-1v-.5h1zm-1.1 0v.5h-1v-.5h1zm1.8-.5v.5h-1V37h1zm-2.2 0v.5h-1V37h1zm1.5-.6v.5h-1v-.5h1zm-1.1 0v.5h-1v-.5h1z" fill="#F9AE28"/><path d="M14.8 37.1v.3h-.5v-.3h.5zm.5-.6v.3h-.5v-.3h.5zm1 0v.3h-.5v-.3h.5zm-.4.6v.3h-.5v-.3h.5zm1.1 0v.3h-.5v-.3h.5zm-.7.5v.3h-.5v-.3h.5zm-1 0v.3h-.5v-.3h.5z" fill="#393839"/><path d="M14.8 37.1h-.4v.2h.4v-.2zm.4-.5h-.4v.2h.4v-.2zm1.1 0h-.4v.2h.4v-.2zm-.4.5h-.4v.2h.4v-.2zm1.1 0h-.4v.2h.4v-.2zm-.7.6h-.4v.2h.4v-.2zm-1.1 0h-.4v.2h.4v-.2z" fill="#fff"/><path fill="#393839" d="M358.095 36.9v-.6h-.2l-.9-.6-.9.6h-.2v.6h-.4v.6h.4v.6h.2l.9.6.9-.6h.2v-.6h.7v-.6h-.7z"/><path fill="#CA3946" d="m356.995 35.8.8.5h-1.7l.9-.5zm.9 2.3-.8.5-.8-.5h1.6zm-.2-1.1v.5h-1V37h1z"/><path d="M358.095 37.5v.5h-1v-.5h1zm-1.1 0v.5h-1v-.5h1zm1.7-.5v.5h-1V37h1zm-2.1 0v.5h-1V37h1zm1.5-.6v.5h-1v-.5h1zm-1.1 0v.5h-1v-.5h1z" fill="#F9AE28"/><path d="M356.295 37.1v.3h-.5v-.3h.5zm.4-.6v.3h-.5v-.3h.5zm1.1 0v.3h-.5v-.3h.5zm-.4.6v.3h-.5v-.3h.5zm1.1 0v.3h-.5v-.3h.5zm-.7.5v.3h-.5v-.3h.5zm-1.1 0v.3h-.5v-.3h.5z" fill="#393839"/><path d="M356.195 37.1h-.4v.2h.4v-.2zm.5-.5h-.4v.2h.4v-.2zm1.1 0h-.4v.2h.4v-.2zm-.5.5h-.4v.2h.4v-.2zm1.1 0h-.4v.2h.4v-.2zm-.6.6h-.4v.2h.4v-.2zm-1.1 0h-.4v.2h.4v-.2z" fill="#fff"/><path fill="#393839" d="M19.4 36v.6h-.2l-.9.6-.9-.6h-.2V36h-.5v-.6h.5v-.6h.2l.9-.6.9.6h.2v.6h.5v.6h-.5z"/><path fill="#F9AE28" d="m18.3 37.1.8-.5h-1.7l.9.5zm.8-2.3-.8-.5-.8.5h1.6z"/><path d="M19.3 35.4v-.5h-1v.5h1zm-1.1 0v-.5h-1v.5h1zm1.7.6v-.5h-1v.5h1zm-1.1 0v-.5h-1v.5h1zm-1.1 0v-.5h-1v.5h1zm1.6.5V36h-1v.5h1zm-1.1 0V36h-1v.5h1z" fill="#CA3946"/><path d="M18 35v.3h-.5V35h.5zm1 0v.3h-.5V35h.5zm-1.6.6v.3h-.5v-.3h.5zm1.1 0v.3H18v-.3h.5zm1.1 0v.3h-.5v-.3h.5zm-1.6.5v.3h-.5v-.3h.5zm1 0v.3h-.5v-.3h.5z" fill="#393839"/><path d="M17.9 35h-.4v.2h.4V35zm1.1 0h-.4v.2h.4V35zm-1.6.6H17v.2h.4v-.2zm1.1 0h-.4v.2h.4v-.2zm1 0h-.4v.2h.4v-.2zm-1.6.6h-.4v.2h.4v-.2zm1.1 0h-.4v.2h.4v-.2z" fill="#fff"/><path fill="#393839" d="M19.4 39.1v.6h-.2l-.9.6-.9-.6h-.2v-.6h-.5v-.6h.5v-.6h.2l.9-.6.9.6h.2v.6h.5v.6h-.5z"/><path fill="#F9AE28" d="m18.3 40.2.8-.5h-1.7l.9.5zm.8-2.3-.8-.5-.8.5h1.6z"/><path d="M19.3 38.5V38h-1v.5h1zm-1.1 0V38h-1v.5h1zm1.7.5v-.5h-1v.5h1zm-1.1 0v-.5h-1v.5h1zm-1.1 0v-.5h-1v.5h1zm1.6.6v-.5h-1v.5h1zm-1.1 0v-.5h-1v.5h1z" fill="#CA3946"/><path d="M18 38.1v.3h-.5v-.3h.5zm1 0v.3h-.5v-.3h.5zm-1.6.5v.3h-.5v-.3h.5zm1.1 0v.3H18v-.3h.5zm1.1 0v.3h-.5v-.3h.5zm-1.6.6v.3h-.5v-.3h.5zm1 0v.3h-.5v-.3h.5z" fill="#393839"/><path d="M17.9 38.1h-.4v.2h.4v-.2zm1.1 0h-.4v.2h.4v-.2zm-1.6.6H17v.2h.4v-.2zm1.1 0h-.4v.2h.4v-.2zm1 0h-.4v.2h.4v-.2zm-1.6.5h-.4v.2h.4v-.2zm1.1 0h-.4v.2h.4v-.2z" fill="#fff"/><path fill="#393839" d="m12.3 45.8 4.1-2.2h3.7l4.1 2.2v3.6l-4.1 2.2h-3.7l-4.1-2.2v-3.6z"/><path fill="#29AE66" d="m16.4 43.6-4 2.2v3.6l4 2.2h3.7l4-2.2v-3.6l-4-2.2h-3.7zm.1.3h3.6l3.8 2.1v3.2l-3.8 2.1h-3.6l-3.8-2.1V46l3.8-2.1z"/><path fill="#F9AE28" d="M18.3 47.5v3.6H20l3.8-2v-1.6h-5.5v-3.6h-1.7l-3.8 2v1.6h5.5z"/><path fill="#fff" d="M18.2 47.5v3.6h-1.7l-3.8-2v-1.6h5.5v-3.6H20l3.8 2v1.6h-5.6z"/><path fill="#393839" d="M18.6 51v-1.1l-.3.2-.3-.2V51h-1.1l.7-.5v-.7l-1.1-.8h-.8v-2.9h.8l1.1-.7v-.7l-.7-.5H18v1.1l.3-.2.3.2v-1.1h1.1l-.7.5v.7l1.1.7h.8V49H20l-1 .7v.7l.7.5h-1.1z"/><path fill="#F9AE28" d="M18.7 44.2v1.1l-.4-.3v.3l1.7 1.1h.5v1.1h.3v-1.4H20l-1.1-.7v-.8l.6-.5h-.8zm-2.9 3.4V49h.7l1.1.7v.8l-.6.4h.9v-1.1l.4.2v-.3l-1.7-1H16v-1.1h-.2z"/><path fill="#fff" d="m17 44.2.6.5v.8l-1.1.7h-.7v1.4h.2v-1.1h.5l1.7-1.1V45l-.4.2v-1.1l-.8.1zm3.5 3.4v1.1H20l-1.7 1v.3l.4-.2v1.1h.9l-.6-.5v-.8l1-.6h.7v-1.4h-.2z"/><path fill="#CA3946" d="M16.1 48.7h.5l1.7 1.1 1.7-1.1h.5v-2.2H20l-1.7-1.1-1.7 1.1h-.5v2.2z"/><path fill="#393839" d="M19.4 48.1h.4v-.2h-.3v-.3h.6v.8h-.6v.5h-1.1v-.8h.5v.3h-.2v.2h.5v-.3L17.1 47h-.4v.2h.3v.3h-.6v-.8h.6v-.5h1.1v.8h-.5v-.3h.2v-.2h-.5v.3l2.1 1.3zm-.2-1.3v-.3h-.5v.2h.2v.3h-.5v-.8h1.1v.5h.6v.8h-.6v-.3h.3V47h-.4l-2.1 1.3v.3h.5v-.2h-.2v-.3h.5v.8H17v-.5h-.6v-.8h.6v.3h-.3v.2h.4l2.1-1.3z"/><path fill="#fff" d="M19.3 48.3v.4h-.6v-.2h.2v-.2h-.4v.7h1.1v-.5h.4v-.7h-.5v.2h.3v.3h-.4L17.2 47v-.4h.6v.2h-.2v.2h.4v-.7h-1v.5h-.6v.7h.6v-.2h-.3V47h.4l2.2 1.3zm.1-1.3h.4v.3h-.3v.2h.5v-.7h-.6v-.5h-1.1v.7h.4v-.2h-.2v-.2h.6v.4l-2.2 1.3h-.4V48h.5v-.2h-.5v.7h.5v.5h1.1v-.7h-.4v.2h.2v.2h-.6v-.4l2.1-1.3z"/><path d="M23 47.7v1.1h-.5v-.4H22v.4h-.5v-1.1h.5v.4h.5v-.4h.5zm-1.7 1.5v1.1h-.5V50h-.5v.4h-.5v-1.1h.5v.4h.5v-.4h.5zm1.7-1.8v-1.1h-.5v.4H22v-.4h-.5v1.1h.5V47h.5v.4h.5zm-9.5.3v1.1h.5v-.4h.5v.4h.5v-1.1h-.5v.4H14v-.4h-.5zm0-.3v-1.1h.5v.4h.5v-.4h.5v1.1h-.5V47H14v.4h-.5zm7.8-1.5v-1.1h-.5v.4h-.5v-.4h-.5v1.1h.5v-.4h.5v.4h.5zm-6 3.3v1.1h.5V50h.5v.4h.5v-1.1h-.5v.4h-.5v-.4h-.5zm0-3.3v-1.1h.5v.4h.5v-.4h.5v1.1h-.5v-.4h-.5v.4h-.5zm6.3-.8v.9h1.6l-1.6-.9zM15 50v-.9h-1.6l1.6.9zm0-4.9v.9h-1.6l1.6-.9zm6.6 4.9v-.9h1.6l-1.6.9z" fill="#393839"/><path d="M22.6 48.4v.4h.4v-1.1h-.4v.4H22v-.4h-.4v1.1h.4v-.4h.6zm-1.8 1.5v.4h.4v-1.1h-.4v.4h-.6v-.4h-.4v1.1h.4v-.4h.6zm1.8-3.2v-.4h.4v1.1h-.4V47H22v.4h-.4v-1.1h.4v.4h.6zM14 48.4v.4h-.4v-1.1h.4v.4h.6v-.4h.4v1.1h-.4v-.4H14zm0-1.7v-.4h-.4v1.1h.4V47h.6v.4h.4v-1.1h-.4v.4H14zm6.8-1.5v-.4h.4v1.1h-.4v-.4h-.6v.4h-.4v-1.1h.4v.4h.6zm-5.1 4.7v.4h-.4v-1.1h.4v.4h.6v-.4h.4v1.1h-.4v-.4h-.6zm0-4.7v-.4h-.4v1.1h.4v-.4h.6v.4h.4v-1.1h-.4v.4h-.6z" fill="#CA3946"/><path fill="#F9AE28" d="M21.6 45.1v.8H23l-1.4-.8zm-8.1 4.1 1.4.8v-.8h-1.4z"/><path fill="#fff" d="m14.9 45.1-1.4.8h1.4v-.8zm6.7 4.1v.8l1.4-.8h-1.4z"/></svg>
