<svg xmlns="http://www.w3.org/2000/svg" width="85" height="57"><path fill="#DC2D27" d="M-.02.153h85.039v56.693H-.02z"/><circle fill="#fff" cx="42.499" cy="28.501" r="14.458"/><path fill="#DC2D27" d="M45.863 36.94a8.708 8.708 0 0 1-8.711-8.709 8.708 8.708 0 0 1 8.711-8.711c.369 0 .729.031 1.086.074A9.676 9.676 0 0 0 42.5 18.51a9.72 9.72 0 1 0 0 19.44 9.663 9.663 0 0 0 4.449-1.084 8.648 8.648 0 0 1-1.086.074zm5.744-12.189-2.957 3.738 2.513 3.787-4.343-1.47-3 3.468.248-4.539-4.445-1.718 4.604-1.256.246-4.574 2.535 3.818z"/></svg>
