<svg xmlns="http://www.w3.org/2000/svg" width="85" height="57"><path fill="#0399B5" d="M-.008.153h85.016v18.18H-.008z"/><path fill="#2AB34B" d="M-.008 38.666h85.016v18.18H-.008z"/><path fill="#CE2028" d="M-.008 18.334h85.016v1.084H-.008zm0 19.248h85.016v1.084H-.008z"/><path fill="#FFF" d="M-.008 19.418h85.016v18.164H-.008zm19.955-6.098.32.95h1.042l-.847.618.31.942-.83-.56-.832.556.316-.94-.836-.62 1.04.002m5.788-.948.318.95h1.04l-.842.618.308.942-.83-.56-.83.556.314-.94-.835-.62 1.042.002m5.784-.948.32.95h1.04l-.845.618.31.942-.83-.56-.83.556.313-.94-.836-.62 1.04.002m5.788-.948.32.95h1.042l-.847.618.31.942-.83-.56-.832.556.316-.94-.836-.62 1.04.002m5.788-.948.318.95h1.042l-.844.618.308.942-.83-.56-.83.556.315-.94-.838-.62 1.04.002m-16.091-6.28.318.95 1.04.003-.842.617.308.942-.83-.562-.83.557.314-.94-.835-.62 1.042.003m5.784-.95.32.95 1.04.003-.845.617.31.942-.83-.562-.83.557.313-.94-.836-.62 1.04.003m5.788-.95.32.95 1.042.003-.847.617.31.942-.83-.562-.832.557.316-.94-.836-.62 1.04.003m5.788-.95.318.95 1.042.003-.844.617.308.942-.83-.562-.83.557.315-.94-.838-.62 1.04.003M30.887 2.343l.32.95 1.04.003-.845.616.31.942-.83-.56-.83.557.313-.94-.836-.62 1.04.003m5.788-.951.32.95 1.042.003-.847.616.31.942-.83-.56-.832.557.316-.94L35 3.29l1.04.003m5.788-.95.318.95 1.042.003-.844.616.308.942-.83-.56-.83.557.315-.94-.838-.62 1.04.003M11.348 9.245a6.897 6.897 0 0 1 5.82-6.81 6.957 6.957 0 0 0-1.078-.093 6.901 6.901 0 1 0 0 13.802 6.72 6.72 0 0 0 1.078-.095c-3.297-.518-5.82-3.363-5.82-6.805z"/></svg>
