<svg xmlns="http://www.w3.org/2000/svg" width="87" height="57"><path fill="#D31F36" d="M0-.3h95.7v28.7H0z"/><path fill="#069547" d="M0 28.4h95.7v28.7H0z"/><path fill="#010101" d="m0-.3 55.7 28.7L0 57.1V-.3zm0 23.6h95.7v10.3H0z"/><path fill="#FDCF16" d="m0 3.8 47.8 24.6L0 53V3.8zm0 23.1h95.7v3H0z"/><path fill="#010101" d="m0 7.2 41.2 21.2L0 49.6V7.2z"/><path fill="#FDCF16" d="M11.6 33.9v3.3c2.8 0 8.4-2.2 8.4-9.2s-6-8.3-7.7-8.3c-1.8 0-7.3 1.3-7.3 7s5.4 6.3 6.5 6.3 5.1-1 4.6-5.3c0 1.2-1.4 3.8-4.3 3.8s-4.7-2.2-4.7-4.3c0-2.1 1.8-5 4.8-5s5.3 2.7 5.3 5.5c0 2.7-2.1 6.2-5.6 6.2z"/><g fill="#FDCF16"><path stroke="#FDCF16" stroke-width=".159" d="m9.1 29.6.2.1s1.3-3.1 5-5.3c-.5.3-2.9 1.5-5.2 5.2z"/><path d="M9.5 29.1s-.4-.9 0-1.2c.4-.4.2 1 .2 1l.2-.2s-.2-1 0-1.3c.3-.2.1 1 .1 1l.2-.2s-.2-1 .1-1.2c.3-.2.1 1 .1 1l.2-.2s-.1-1 .2-1.2c.3-.2 0 .9 0 .9l.2-.2s-.1-.9.2-1.1c.3-.2 0 .8 0 .8l.2-.2s-.1-.8.2-1c.3-.2 0 .8 0 .8l.2-.2s0-.8.3-1c.3-.2-.1.8-.1.8l.2-.2s.1-1 .4-1.1c.3-.1-.1.9-.1.9l.2-.2s.1-.8.4-.9c.3-.1-.2.8-.2.8l.2-.2s.2-.8.5-.9c.3-.1-.3.8-.3.8l.2-.1s.3-.7.6-.8c.3 0-.3.6-.3.6l.2-.1s.4-.8.6-.5c.1.2-.6.6-.6.6l-.2.1s.9-.4 1-.2c.1.2-1.2.4-1.2.4l-.2-.2s.9-.2.8 0c-.1.2-1 .2-1 .2l-.2.2s.9-.2.8 0c-.1.2-1 .2-1 .2l-.2.2s.9-.2.8 0c-.2.2-1.2.2-1.2.2l-.2.2s.9-.3.9-.1c-.1.2-1.1.4-1.1.4l-.2.2s1-.3.7 0c-.3.3-1 .4-1 .4l-.3.3s1-.6.9-.3c-.1.3-1.1.6-1.1.6l-.5.3s.9-.5.8-.2c-.1.3-1 .6-1 .6l-.2.2s1.1-.6 1-.3c-.1.3-1.1.5-1.1.5l-.1.2s1-.6 1-.3l-1.1.5-.1-.1z"/></g><g fill="#FDCF16"><path stroke="#FDCF16" stroke-width=".159" d="m223.6 29.6.2.1s1.3-3.1 5-5.3c-.5.3-2.9 1.5-5.2 5.2z"/><path d="M224 29.1s-.4-.9 0-1.2c.4-.4.2 1 .2 1l.2-.2s-.2-1 0-1.3c.3-.2.1 1 .1 1l.2-.2s-.2-1 .1-1.2c.3-.2.1 1 .1 1l.2-.2s-.1-1 .2-1.2c.3-.2 0 .9 0 .9l.2-.2s-.1-.9.2-1.1c.3-.2 0 .8 0 .8l.2-.2s-.1-.8.2-1c.3-.2 0 .8 0 .8l.2-.2s0-.8.3-1c.3-.2-.1.8-.1.8l.2-.2s.1-1 .4-1.1c.3-.1-.1.9-.1.9l.2-.2s.1-.8.4-.9c.3-.1-.2.8-.2.8l.2-.2s.2-.8.5-.9c.4-.2-.2.6-.2.6l.2-.1s.3-.7.6-.8c.3 0-.3.6-.3.6l.2-.1s.4-.8.6-.5c.1.2-.6.6-.6.6l-.2.1s.9-.4 1-.2c.1.2-1.2.4-1.2.4l-.2.1s.9-.2.8 0c-.1.2-1 .2-1 .2l-.2.1s.9-.2.8 0c-.1.2-1 .2-1 .2l-.2.2s.9-.2.8 0c-.1.3-1.1.3-1.1.3l-.2.2s.9-.3.9-.1c-.1.2-1.1.4-1.1.4l-.2.2s1-.3.7 0c-.3.3-1 .4-1 .4l-.3.3s1-.6.9-.3c-.1.3-1.1.6-1.1.6l-.2.2s.9-.5.8-.2c-.1.3-1 .6-1 .6l-.2.2s1.1-.6 1-.3c-.1.3-1.1.5-1.1.5l-.1.2s1-.6 1-.3l-1.1.5-.6-.1z"/></g></svg>
