<svg xmlns="http://www.w3.org/2000/svg" width="85" height="57"><path fill="#273476" d="M-.02 19.052h85.04V37.95H-.02z"/><path fill="#D0202D" d="M-.02 37.95h85.04v18.896H-.02z"/><path fill="#FFCD05" d="M-.02.153h85.04v18.898H-.02z"/><path fill="#fff" d="m28.833 33.358-1.449 1.059.537 1.613-1.424-.959-1.426.959.535-1.613-1.436-1.059h1.785l.539-1.631.553 1.631h1.786zm6.724-9.91-1.496.844-1.322-1.201.354 1.75-1.482.836 1.699.248.412 1.666.686-1.555 1.785.189-1.322-1.199.686-1.578zm4.383-1.07L39.1 20.8l-.258 1.766-1.678.287 1.516.807-.176 1.707 1.17-1.23 1.617.779-.838-1.574 1.178-1.254-1.691.29zm-9.596 4.416-1.105 1.314-1.66-.664.941 1.518-1.096 1.301 1.68-.363.965 1.42.102-1.699 1.738-.445-1.658-.662.093-1.72zm30.484 6.564h-1.785l-.539-1.631-.553 1.631h-1.785l1.449 1.059-.537 1.613 1.424-.959 1.426.959-.535-1.613 1.435-1.059zm-8.922-8.517.354-1.75-1.322 1.201-1.496-.844.688 1.578-1.322 1.199 1.785-.189.686 1.555.412-1.666 1.699-.248-1.484-.836zm-5.75-2.276-.258-1.765-.84 1.578-1.691-.291 1.178 1.254-.838 1.574 1.617-.779 1.17 1.23-.176-1.707 1.516-.807-1.678-.287zm10.323 6.397.941-1.518-1.66.664-1.105-1.314.094 1.719-1.658.662 1.738.445.102 1.699.965-1.42 1.68.363-1.097-1.3z"/></svg>
