<svg xmlns="http://www.w3.org/2000/svg" width="87" height="57"><path fill="#349344" d="M0 0h114v57H0z"/><path fill="#FED208" d="M0 8.1h114v40.7H0z"/><path fill="#DD2726" d="M0 16.3h114v24.4H0z"/><path fill="#010101" d="M0 24.4h114v8.1H0zM2.1 0l38 28.5L2.1 57H0V0h2.1z"/><path fill="#fff" d="m0 0 38 28.5L0 57"/><path fill="#DD2726" d="m-.6-1.5-.2.4.3.1zm1.2 0-.2.4.3.1zm-1.2 0-.1.4.3.1zm1.2 0-.2.4.3.1zm.479.939L1.05-.972l-.38.124zM-1.45.58l.029-.411.411.029zM1.079-.561l-.124-.38-.285.093zM-12.41 81.567l3.956-12.174 9.13 2.967zM-1.3-2.3zm2.6 0zm-2.5 0h-.1zm3.523 3.455.081-.059zM-1.75-.25zm27.495 135.434z"/><path d="M-1.3-2.3h.1-.1m.043-.025" stroke="#010101" stroke-width=".024" fill="none"/></svg>
