<?xml version="1.0" encoding="UTF-8" standalone="no"?>
<!DOCTYPE svg PUBLIC "-//W3C//DTD SVG 1.1//EN" "http://www.w3.org/Graphics/SVG/1.1/DTD/svg11.dtd">
<svg width="100%" height="100%" viewBox="0 0 402 238" version="1.1" xmlns="http://www.w3.org/2000/svg" xmlns:xlink="http://www.w3.org/1999/xlink" xml:space="preserve" xmlns:serif="http://www.serif.com/" style="fill-rule:evenodd;clip-rule:evenodd;stroke-linejoin:round;stroke-miterlimit:2;">
    <g transform="matrix(1,0,0,1,-1275.59,-2676.7)">
        <g transform="matrix(1.87141,0,0,1.87141,-1111.57,-2332.51)">
            <g transform="matrix(4.16667,0,0,4.16667,1485.2,2766.16)">
                <path d="M0,-11.854C-1.129,-12.983 -2.844,-13.526 -5.645,-13.526L-10.747,-13.526L-11.695,-9.995C-9.492,-10.03 -7.227,-10.014 -4.909,-9.934C-3.977,-9.886 -3.269,-9.546 -3.08,-8.875C-2.888,-8.193 -3.23,-7.433 -3.93,-6.937C-4.398,-6.606 -4.933,-6.416 -5.86,-6.416C-6.34,-6.416 -11.359,-6.458 -12.653,-6.428L-14.829,1.672L-9.749,1.672L-8.641,-2.453L-6.492,-2.453C-1.672,-2.453 1.194,-4.993 1.194,-8.793C1.194,-9.987 0.803,-11.051 0,-11.854" style="fill-rule:nonzero;"/>
            </g>
            <g transform="matrix(2.66216,-3.20531,-3.20531,-2.66216,1361.88,2711.07)">
                <path d="M-3.076,-3.44C-5.568,-1.138 -8.273,1.22 -11.072,3.443L-3.076,4.178L0.201,0.233L-3.076,-3.44Z" style="fill-rule:nonzero;"/>
            </g>
            <g transform="matrix(4.16667,0,0,4.16667,1371.19,2744.25)">
                <path d="M0,6.93L-5.406,6.93L-5.736,4.27L-10.577,4.27L-12.31,6.93L-17.846,6.93L-16.03,4.27L-22.944,4.27C-16.206,2.248 -8.159,0.866 -1.042,0L0,6.93Z" style="fill-rule:nonzero;"/>
            </g>
            <g transform="matrix(-3.85235,1.5876,1.5876,3.85235,1405.74,2767.75)">
                <path d="M1.725,-7.388C-0.07,-6.84 -1.739,-6.303 -3.235,-5.795L1.725,0.685L6.423,-1.251L1.725,-7.388Z" style="fill-rule:nonzero;"/>
            </g>
            <g transform="matrix(-1.08094,4.02401,4.02401,1.08094,1405.01,2752.62)">
                <path d="M-11.831,4.432L-8.161,4.432C-7.251,1.313 -5.606,-3.6 -3.399,-9.072L-8.203,-9.073L-11.831,4.432Z" style="fill-rule:nonzero;"/>
            </g>
            <g transform="matrix(4.16667,0,0,4.16667,1428.56,2789.62)">
                <path d="M0,1.246L1.274,-0.76L1.445,1.246L0,1.246ZM1.976,-2.021L1.139,-2.021L-2.32,3.267L-1.283,3.267L-0.481,1.999L1.501,1.999L1.613,3.267L2.543,3.267L1.976,-2.021Z" style="fill-rule:nonzero;"/>
            </g>
            <g transform="matrix(4.16667,0,0,4.16667,1458.68,2786.33)">
                <path d="M0,2.828C0.462,3.166 0.939,3.343 1.4,3.343C1.977,3.343 2.396,3.036 2.436,2.575C2.521,1.606 0.498,1.79 0.631,0.269C0.712,-0.654 1.547,-1.322 2.7,-1.322C3.177,-1.322 3.681,-1.192 4.149,-0.923L3.92,-0.07C3.485,-0.37 3.06,-0.515 2.629,-0.515C2.076,-0.515 1.666,-0.223 1.629,0.207C1.548,1.129 3.578,0.953 3.441,2.513C3.358,3.466 2.506,4.15 1.33,4.15C0.807,4.15 0.277,3.998 -0.236,3.706L0,2.828Z" style="fill-rule:nonzero;"/>
            </g>
            <g transform="matrix(4.16667,0,0,4.16667,1403.98,2803.24)">
                <path d="M0,-5.288L0.822,-5.288L2.331,-1.575L3.328,-5.288L4.281,-5.288L2.861,0L1.997,0L0.498,-3.69L-0.493,0L-1.42,0L0,-5.288Z" style="fill-rule:nonzero;"/>
            </g>
            <g transform="matrix(4.16667,0,0,4.16667,1448.11,2803.24)">
                <path d="M0,-5.288L1.007,-5.288L-0.193,-0.822L1.831,-0.822L1.61,0L-1.42,0L0,-5.288Z" style="fill-rule:nonzero;"/>
            </g>
            <g transform="matrix(-1.0806,4.0241,4.0241,1.0806,1403.46,2795.91)">
                <path d="M-2.814,-3.13L2.661,-3.13L2.4,-2.158L-3.075,-2.158L-2.814,-3.13Z" style="fill-rule:nonzero;"/>
            </g>
            <g transform="matrix(4.16667,0,0,4.16667,1376.84,2803.24)">
                <path d="M0,-5.288L3.136,-5.288L2.915,-4.466L0.773,-4.466L0.359,-2.921L2.183,-2.921L1.962,-2.098L0.138,-2.098L-0.426,0L-1.42,0L0,-5.288Z" style="fill-rule:nonzero;"/>
            </g>
            <g transform="matrix(4.16667,0,0,4.16667,1388.29,2680.24)">
                <path d="M0,1.037L2.147,1.037L2.426,0.001L0.282,0L0,1.037Z" style="fill-rule:nonzero;"/>
            </g>
            <g transform="matrix(4.16667,0,0,4.16667,1414.53,2701.81)">
                <path d="M0,-4.667L-2.049,-4.667L-2.362,-3.506L-3.313,-3.506L-3.548,-2.636L-2.597,-2.636L-2.911,-1.476C-3.161,-0.539 -2.803,0 -1.285,0C-0.901,0 -0.508,0 -0.117,-0.015L0.109,-0.856L-0.264,-0.851C-0.664,-0.851 -0.745,-0.89 -0.832,-0.983C-0.969,-1.132 -0.867,-1.439 -0.835,-1.557L-0.545,-2.636L0.58,-2.636L0.814,-3.506L-0.311,-3.506L0,-4.667Z" style="fill-rule:nonzero;"/>
            </g>
            <g transform="matrix(4.16667,0,0,4.16667,1376.26,2701.73)">
                <path d="M0,-6.009L-1.182,-1.581L-2.102,-3.973C-2.487,-5.125 -3.13,-6.009 -5.034,-6.009L-7.022,-6.009L-7.031,-5.976C-6.559,-5.693 -6.391,-5.195 -6.542,-4.629L-7.788,0L-5.559,0L-4.381,-4.385L-3.373,-1.811C-2.869,-0.679 -2.354,0 -0.523,0L0.612,-0.002L2.229,-6.009L0,-6.009Z" style="fill-rule:nonzero;"/>
            </g>
            <g transform="matrix(4.16667,0,0,4.16667,1394.34,2691.29)">
                <path d="M0,1.54C-0.137,1.391 -0.035,1.084 -0.003,0.966L0.524,-0.983L-1.623,-0.983L-2.174,1.048C-2.425,1.984 -2.068,2.523 -0.55,2.523C-0.165,2.523 0.228,2.523 0.619,2.508L0.846,1.667L0.48,1.673C0.165,1.673 0.086,1.633 0,1.54" style="fill-rule:nonzero;"/>
            </g>
            <g transform="matrix(4.16667,0,0,4.16667,1431.09,2693.34)">
                <path d="M0,-0.605L1.125,-0.605L1.359,-1.475L0.233,-1.475L0.545,-2.636L-1.503,-2.636L-1.817,-1.475L-2.768,-1.475L-3.003,-0.605L-2.052,-0.605L-2.365,0.556C-2.616,1.492 -2.26,2.031 -0.741,2.031C-0.356,2.031 0.038,2.031 0.427,2.016L0.654,1.176L0.282,1.181C-0.12,1.181 -0.201,1.141 -0.287,1.048C-0.424,0.899 -0.322,0.593 -0.291,0.474L0,-0.605Z" style="fill-rule:nonzero;"/>
            </g>
            <g transform="matrix(4.16667,0,0,4.16667,1454.15,2694.39)">
                <path d="M0,-0.013C-0.164,0.604 -0.562,1.117 -1.332,1.117C-1.758,1.117 -1.962,0.986 -2.063,0.742C-2.151,0.528 -2.14,0.25 -2.067,-0.021C-1.902,-0.637 -1.52,-1.13 -0.74,-1.13C0.051,-1.13 0.167,-0.631 0,-0.013M-0.549,-1.844C-1.589,-1.844 -2.431,-1.671 -3.08,-1.338C-3.684,-1.026 -4.116,-0.554 -4.242,-0.013C-4.516,1.165 -3.476,1.831 -1.468,1.831C0.581,1.831 1.922,1.165 2.198,-0.021C2.468,-1.178 1.437,-1.844 -0.549,-1.844" style="fill-rule:nonzero;"/>
            </g>
        </g>
    </g>
</svg>
