<?xml version="1.0" encoding="UTF-8" standalone="no"?>
<!DOCTYPE svg PUBLIC "-//W3C//DTD SVG 1.1//EN" "http://www.w3.org/Graphics/SVG/1.1/DTD/svg11.dtd">
<svg width="100%" height="100%" viewBox="0 0 112 53" version="1.1" xmlns="http://www.w3.org/2000/svg" xmlns:xlink="http://www.w3.org/1999/xlink" xml:space="preserve" xmlns:serif="http://www.serif.com/" style="fill-rule:evenodd;clip-rule:evenodd;stroke-linejoin:round;stroke-miterlimit:2;">
    <g id="Group_1950">
    </g>
    <g id="Group_1952">
        <g transform="matrix(36.9243,6.51076,6.51076,-36.9243,7.44363,37.7789)">
            <path d="M0.897,0.107C0.902,0.059 0.963,0.076 0.966,0.046C0.967,0.031 0.956,0.019 0.938,0.016C0.924,0.014 0.908,0.017 0.892,0.025L0.889,-0.004C0.907,-0.01 0.924,-0.012 0.94,-0.009C0.977,-0.003 0.999,0.023 0.997,0.053C0.993,0.102 0.93,0.086 0.928,0.115C0.927,0.128 0.938,0.14 0.955,0.143C0.968,0.145 0.982,0.143 0.998,0.136L1,0.164C0.984,0.169 0.968,0.171 0.953,0.168C0.917,0.162 0.895,0.137 0.897,0.107ZM0.348,0.011C0.352,-0.037 0.414,-0.021 0.416,-0.051C0.418,-0.066 0.406,-0.078 0.388,-0.081C0.374,-0.083 0.358,-0.08 0.342,-0.072L0.34,-0.101C0.357,-0.107 0.374,-0.109 0.391,-0.106C0.427,-0.1 0.45,-0.074 0.447,-0.044C0.443,0.005 0.381,-0.011 0.378,0.018C0.377,0.031 0.388,0.043 0.405,0.046C0.419,0.048 0.433,0.046 0.448,0.039L0.45,0.067C0.434,0.073 0.418,0.074 0.403,0.071C0.367,0.065 0.345,0.04 0.348,0.011ZM0.762,0.132L0.747,-0.04L0.777,-0.035L0.783,0.029L0.81,0.034L0.84,-0.024L0.872,-0.018L0.84,0.043C0.864,0.056 0.879,0.081 0.877,0.106C0.874,0.134 0.854,0.148 0.824,0.142L0.762,0.132ZM0.79,0.111L0.818,0.116C0.834,0.119 0.844,0.112 0.845,0.098C0.847,0.08 0.834,0.063 0.813,0.06L0.785,0.055L0.79,0.111ZM0.629,0.108L0.614,-0.064L0.712,-0.047L0.715,-0.02L0.647,-0.032L0.652,0.016L0.708,0.026L0.71,0.052L0.654,0.042L0.658,0.087L0.724,0.098L0.726,0.125L0.629,0.108ZM0.473,0.081L0.471,0.054L0.52,0.063L0.507,-0.083L0.539,-0.077L0.551,0.068L0.6,0.077L0.603,0.103L0.473,0.081ZM0.255,0.042L0.176,-0.141L0.208,-0.135L0.226,-0.092L0.288,-0.081L0.298,-0.119L0.327,-0.114L0.281,0.047L0.255,0.042ZM0.266,0.004L0.282,-0.058L0.237,-0.066L0.266,0.004ZM0.139,0.022L0.083,-0.063L0.041,0.004L0.015,-0L0,-0.172L0.029,-0.167L0.039,-0.047L0.073,-0.101L0.091,-0.098L0.135,-0.031L0.124,-0.15L0.154,-0.145L0.169,0.027L0.139,0.022Z" style="fill:url(#_Linear1);fill-rule:nonzero;"/>
        </g>
        <g transform="matrix(43.2766,7.63082,7.63082,-43.2766,48.1379,40.27)">
            <path d="M0.75,-0.017C0.757,-0.095 0.799,-0.135 0.863,-0.123C0.952,-0.108 1.01,0.002 0.999,0.132C0.992,0.21 0.95,0.25 0.886,0.238C0.797,0.223 0.739,0.112 0.75,-0.017ZM0.813,-0C0.805,0.092 0.837,0.174 0.885,0.183C0.912,0.188 0.933,0.162 0.937,0.115C0.945,0.023 0.912,-0.06 0.864,-0.068C0.837,-0.073 0.817,-0.047 0.813,-0ZM0.467,-0.067C0.474,-0.145 0.516,-0.185 0.58,-0.173C0.669,-0.158 0.727,-0.048 0.715,0.082C0.709,0.16 0.667,0.2 0.603,0.188C0.514,0.173 0.456,0.062 0.467,-0.067ZM0.53,-0.05C0.521,0.042 0.554,0.124 0.602,0.133C0.629,0.138 0.649,0.112 0.654,0.065C0.662,-0.027 0.629,-0.11 0.581,-0.118C0.554,-0.123 0.534,-0.097 0.53,-0.05ZM0.184,-0.117C0.191,-0.195 0.233,-0.235 0.297,-0.223C0.385,-0.208 0.444,-0.097 0.432,0.032C0.425,0.11 0.383,0.15 0.32,0.138C0.231,0.123 0.173,0.013 0.184,-0.117ZM0.246,-0.1C0.238,-0.008 0.271,0.075 0.318,0.083C0.346,0.088 0.366,0.062 0.37,0.015C0.379,-0.077 0.346,-0.159 0.298,-0.168C0.271,-0.173 0.251,-0.147 0.246,-0.1ZM0.115,0.096L0.005,0.026L0,-0.036L0.085,0.019L0.061,-0.259L0.126,-0.247L0.156,0.104L0.115,0.096Z" style="fill:url(#_Linear2);fill-rule:nonzero;"/>
        </g>
        <g transform="matrix(0.277778,0,0,0.277778,-488.783,-519.563)">
            <path d="M2036.15,1883.77L2029.52,1908.46C2044.92,1908.2 2060.75,1908.32 2076.96,1908.88C2083.47,1909.21 2088.42,1911.6 2089.74,1916.29C2091.08,1921.06 2088.69,1926.36 2083.8,1929.83C2080.53,1932.14 2076.79,1933.47 2070.31,1933.47C2066.95,1933.47 2031.87,1933.18 2022.82,1933.39L2007.62,1990.01L2043.12,1990.01L2050.87,1961.17L2065.89,1961.17C2099.58,1961.17 2119.62,1943.42 2119.62,1916.86C2119.62,1908.51 2116.89,1901.07 2111.27,1895.45C2103.38,1887.57 2091.39,1883.77 2071.81,1883.77L2036.15,1883.77Z" style="fill-rule:nonzero;"/>
        </g>
        <g transform="matrix(-0.15721,0.22901,-0.22901,-0.15721,776.285,-109.538)">
            <path d="M1856.3,1983.75L1912.44,1983.75C1894.37,1966.48 1877.05,1948.35 1861.17,1930.73L1836.02,1954.2L1856.3,1983.75Z" style="fill-rule:nonzero;"/>
        </g>
        <g transform="matrix(0.277778,0,0,0.277778,-488.783,-503.508)">
            <path d="M1759.62,1913.61L1807.94,1913.61L1795.25,1932.21L1833.95,1932.21L1846.06,1913.61L1879.9,1913.61L1882.21,1932.21L1920.01,1932.21L1912.72,1883.77C1862.97,1889.82 1806.71,1899.48 1759.62,1913.61Z" style="fill-rule:nonzero;"/>
        </g>
        <g transform="matrix(-0.0720638,0.268267,-0.268267,-0.0720638,709.048,-362.04)">
            <path d="M1937.38,1928.47L1991.41,1928.47L1982.19,1894.17L1925.14,1894.17C1928.69,1904.63 1932.79,1916.18 1937.38,1928.47Z" style="fill-rule:nonzero;"/>
        </g>
        <g transform="matrix(-0.0720226,0.268278,-0.268278,-0.0720226,731.56,-379.451)">
            <path d="M1970.77,2021L2004.36,2021C1988.93,1982.74 1977.43,1948.4 1971.08,1926.59L1945.43,1926.59L1970.77,2021Z" style="fill-rule:nonzero;"/>
        </g>
        <g transform="matrix(1.16117,0,0,1.16117,87.072,31.9791)">
            <path d="M0,-0.01L0.169,-0.01C0.309,-0.01 0.399,-0.105 0.399,-0.224C0.399,-0.349 0.309,-0.438 0.169,-0.438L0,-0.438L0,-0.01ZM-0.189,-0.588L0.199,-0.588C0.433,-0.588 0.593,-0.438 0.593,-0.224C0.593,-0.065 0.498,0.06 0.344,0.115L0.628,0.578L0.423,0.578L0.159,0.14L0,0.14L0,0.578L-0.189,0.578L-0.189,-0.588ZM0.164,0.897C0.693,0.897 1.066,0.523 1.066,-0.005C1.066,-0.533 0.693,-0.907 0.164,-0.907C-0.364,-0.907 -0.737,-0.533 -0.737,-0.005C-0.737,0.523 -0.364,0.897 0.164,0.897M0.164,-1.076C0.792,-1.076 1.236,-0.633 1.236,-0.005C1.236,0.623 0.792,1.066 0.164,1.066C-0.463,1.066 -0.907,0.623 -0.907,-0.005C-0.907,-0.633 -0.463,-1.076 0.164,-1.076" style="fill:rgb(184,133,46);fill-rule:nonzero;"/>
        </g>
    </g>
    <defs>
        <linearGradient id="_Linear1" x1="0" y1="0" x2="1" y2="0" gradientUnits="userSpaceOnUse" gradientTransform="matrix(1,0,0,-1,0,-0.00132555)"><stop offset="0" style="stop-color:rgb(184,133,46);stop-opacity:1"/><stop offset="0.5" style="stop-color:rgb(217,181,68);stop-opacity:1"/><stop offset="1" style="stop-color:rgb(203,153,55);stop-opacity:1"/></linearGradient>
        <linearGradient id="_Linear2" x1="0" y1="0" x2="1" y2="0" gradientUnits="userSpaceOnUse" gradientTransform="matrix(1,0,0,-1,0,-0.00938392)"><stop offset="0" style="stop-color:rgb(184,133,46);stop-opacity:1"/><stop offset="0.42" style="stop-color:rgb(237,201,90);stop-opacity:1"/><stop offset="1" style="stop-color:rgb(184,133,46);stop-opacity:1"/></linearGradient>
    </defs>
</svg>
