<?xml version="1.0" encoding="UTF-8" standalone="no"?>
<!DOCTYPE svg PUBLIC "-//W3C//DTD SVG 1.1//EN" "http://www.w3.org/Graphics/SVG/1.1/DTD/svg11.dtd">
<svg width="100%" height="100%" viewBox="0 0 101 49" version="1.1" xmlns="http://www.w3.org/2000/svg" xmlns:xlink="http://www.w3.org/1999/xlink" xml:space="preserve" xmlns:serif="http://www.serif.com/" style="fill-rule:evenodd;clip-rule:evenodd;stroke-linejoin:round;stroke-miterlimit:2;">
    <g transform="matrix(6.63918e-17,1.08426,-1.08426,6.63918e-17,71.2064,3.24627)">
        <path d="M0,-24.418C-2.022,-22.396 -2.994,-19.325 -2.994,-14.309L-2.994,-5.172L3.33,-3.474C3.266,-7.42 3.294,-11.475 3.438,-15.627C3.524,-17.296 4.134,-18.564 5.335,-18.901C6.558,-19.246 7.917,-18.633 8.805,-17.381C9.399,-16.543 9.738,-15.583 9.738,-13.923C9.738,-13.063 9.663,-4.076 9.718,-1.758L24.223,2.138L24.223,-6.959L16.836,-8.944L16.836,-12.792C16.836,-21.424 12.286,-26.556 5.482,-26.556C3.344,-26.556 1.438,-25.856 0,-24.418" style="fill-rule:nonzero;"/>
    </g>
    <g transform="matrix(0.692719,-0.834124,-0.834124,-0.692719,25.5934,-2.35104)">
        <path d="M1.02,-18.265C-3.442,-14.141 -8.286,-9.92 -13.3,-5.936L1.02,-4.624L6.888,-11.689L1.02,-18.265Z" style="fill-rule:nonzero;"/>
    </g>
    <g transform="matrix(6.63918e-17,1.08426,-1.08426,6.63918e-17,3.16291e-16,29.5102)">
        <path d="M0,-41.089L0,-31.408L-4.764,-30.816L-4.764,-22.147L0,-19.044L0,-9.129L-4.764,-12.381L-4.764,0C-8.385,-12.066 -10.861,-26.477 -12.41,-39.223L0,-41.089Z" style="fill-rule:nonzero;"/>
    </g>
    <g transform="matrix(-1.00249,0.413085,0.413085,1.00249,60.328,16.3895)">
        <path d="M6.545,-4.066C3.33,-3.087 0.341,-2.123 -2.339,-1.216L6.545,10.391L14.957,6.925L6.545,-4.066Z" style="fill-rule:nonzero;"/>
    </g>
    <g transform="matrix(-0.281335,1.04713,1.04713,0.281335,75.2474,3.99127)">
        <path d="M-3.396,-1.545L3.175,-1.545C4.806,-7.131 7.753,-15.929 11.705,-25.731L3.102,-25.731L-3.396,-1.545Z" style="fill-rule:nonzero;"/>
    </g>
    <g transform="matrix(6.63918e-17,1.08426,-1.08426,6.63918e-17,68.59,46.3187)">
        <path d="M0,10.52C-3.068,5.679 -5.956,2.639 -8.061,2.454C-9.265,2.349 -10.008,3.047 -10.008,4.209C-10.008,5.353 -9.594,6.56 -8.792,7.793L-11.271,7.128C-11.953,5.825 -12.273,4.513 -12.273,3.31C-12.273,0.963 -10.828,-0.474 -8.683,-0.287C-6.177,-0.068 -3.389,2.422 -0.44,6.671L-0.44,1.718L1.765,2.311L1.765,10.994L0,10.52Z" style="fill-rule:nonzero;"/>
    </g>
    <g transform="matrix(6.63918e-17,1.08426,-1.08426,6.63918e-17,69.1175,35.6637)">
        <path d="M0,-10.006L0,-5.012L3.029,-4.186C2.988,-4.55 2.969,-4.873 2.969,-5.194C2.969,-7.54 4.553,-9.066 6.779,-8.871C9.707,-8.615 11.833,-6.043 11.833,-2.733C11.833,-1.571 11.522,-0.453 10.879,0.614L8.544,-0.013C9.245,-0.934 9.626,-1.944 9.626,-2.927C9.626,-4.672 8.544,-6.07 7.039,-6.201C5.775,-6.312 4.893,-5.347 4.893,-3.823C4.893,-3.04 5,-2.272 5.201,-1.351L-2.205,-3.34L-2.205,-10.62L0,-10.006Z" style="fill-rule:nonzero;"/>
    </g>
    <g transform="matrix(6.63918e-17,1.08426,-1.08426,6.63918e-17,87.824,46.1004)">
        <path d="M0,2.588C0,0.623 -3.048,-1.268 -6.797,-1.596C-8.703,-1.763 -9.865,-1.123 -9.865,-0C-9.865,1.965 -6.818,3.837 -3.068,4.164C-1.163,4.331 0,3.71 0,2.588M-12.072,-0.433C-12.072,-3.061 -10.187,-4.46 -7.038,-4.184C-1.785,-3.724 2.207,-0.628 2.207,3.021C2.207,5.649 0.321,7.048 -2.847,6.771C-8.081,6.313 -12.072,3.216 -12.072,-0.433" style="fill-rule:nonzero;"/>
    </g>
    <g transform="matrix(6.63918e-17,1.08426,-1.08426,6.63918e-17,87.454,28.2606)">
        <g>
            <g>
                <g>
                    <path d="M0,0.352L0,0.17C0,0.021 -0.101,-0.075 -0.229,-0.075C-0.363,-0.075 -0.459,0.021 -0.459,0.17L-0.459,0.352L0,0.352ZM-0.619,0.555L-0.619,0.139C-0.619,-0.112 -0.459,-0.283 -0.229,-0.283C-0.059,-0.283 0.074,-0.181 0.133,-0.016L0.629,-0.32L0.629,-0.102L0.16,0.181L0.16,0.352L0.629,0.352L0.629,0.555L-0.619,0.555ZM0.971,0.176C0.971,-0.39 0.571,-0.79 0.005,-0.79C-0.56,-0.79 -0.96,-0.39 -0.96,0.176C-0.96,0.741 -0.56,1.141 0.005,1.141C0.571,1.141 0.971,0.741 0.971,0.176M-1.142,0.176C-1.142,-0.496 -0.667,-0.971 0.005,-0.971C0.677,-0.971 1.153,-0.496 1.153,0.176C1.153,0.848 0.677,1.323 0.005,1.323C-0.667,1.323 -1.142,0.848 -1.142,0.176" style="fill-rule:nonzero;"/>
                </g>
            </g>
        </g>
    </g>
</svg>
