<?xml version="1.0" encoding="UTF-8" standalone="no"?>
<!DOCTYPE svg PUBLIC "-//W3C//DTD SVG 1.1//EN" "http://www.w3.org/Graphics/SVG/1.1/DTD/svg11.dtd">
<svg width="100%" height="100%" viewBox="0 0 2500 1247" version="1.1" xmlns="http://www.w3.org/2000/svg" xmlns:xlink="http://www.w3.org/1999/xlink" xml:space="preserve" xmlns:serif="http://www.serif.com/" style="fill-rule:evenodd;clip-rule:evenodd;stroke-linejoin:round;stroke-miterlimit:2;">
    <g transform="matrix(28.7327,0,0,28.7327,0.126728,0)">
        <path d="M65.4,31.1C60.2,31.1 56,26.9 56,21.6C56,16.4 60.2,12.1 65.4,12.1C70.6,12.1 74.8,16.3 74.8,21.6C74.8,26.9 70.6,31.1 65.4,31.1M65.5,0C53.6,0 44,9.7 44,21.7C44,33.7 53.6,43.4 65.5,43.4C77.4,43.4 87,33.7 87,21.7C86.9,9.7 77.3,0 65.5,0M25,1L18.1,1L0,42.5L13.4,42.5L21.6,21L29.7,42.5L43.1,42.5L25,1Z" style="fill:#1991d0;fill-rule:nonzero;"/>
    </g>
</svg>
