<svg version="1.1" id="Group_1953" xmlns="http://www.w3.org/2000/svg" xmlns:xlink="http://www.w3.org/1999/xlink" x="0px" y="0px" viewBox="0 0 111.7 52.2" style="enable-background:new 0 0 111.7 52.2;" xml:space="preserve">
<style type="text/css">
	.st0{clip-path:url(#SVGID_00000183927848564816367830000012802357988993072041_);}
	.st1{fill:#051224;}
	.st2{clip-path:url(#SVGID_00000059267629813719685870000012434387500412911270_);}
</style>
<g id="Group_1950" transform="translate(9.906 39.1)">
	<g>
		<defs>
			<path id="SVGID_1_" d="M3.9-3.4l-4.4,5.6l-2.2-5.6H-4L-5.8,5h1.5l1.2-5.6L-1.2,4h0.7l3.7-4.6L2,5h1.5l1.8-8.4L3.9-3.4z M21.4-3.4
				l-0.3,1.3h2.8L22.4,5H24l1.5-7.1h2.8l0.3-1.3H21.4z M28.9-3.4L27.1,5h6.4l0.3-1.3H29l0.5-2.3h4.1l0.3-1.3h-4.1l0.5-2.2h4.6
				l0.3-1.3L28.9-3.4z M10-1.9l0.8,3.7H7.6L10-1.9z M9.5-3.4L3.9,5h1.7L6.9,3h4.3L11.5,5h1.6l-2-8.4H9.5z M37.2-2.1H39
				c1.2,0,1.8,0.4,1.8,1.4c0,1.3-0.9,2-2.4,2h-1.9L37.2-2.1z M35.9-3.4L34.1,5h1.6l0.5-2.5h2.1L39.7,5h1.7l-1.5-2.7
				c1.5-0.3,2.6-1.7,2.5-3.2c0-1.6-1.2-2.5-3.2-2.5L35.9-3.4z M51.7-3.5L51.1-1h3.5l-2.9,13.9h3.1l3.5-16.4L51.7-3.5z M14.4-0.9
				c0,2.7,4.3,1.9,4.2,3.4c0,0.7-0.8,1.2-2,1.2c-1,0-2-0.3-2.8-0.9l-0.7,1.2c1,0.7,2.1,1,3.3,1c2.2,0,3.7-1.1,3.8-2.7
				C20.3-0.2,16,0.6,16-1c0-0.7,0.8-1.2,2.1-1.2c0.8,0,1.6,0.2,2.3,0.6L21-2.9c-0.9-0.5-1.8-0.7-2.8-0.7C16-3.6,14.5-2.5,14.4-0.9
				 M43.1-0.9c0,2.7,4.3,1.9,4.2,3.4c0,0.7-0.8,1.2-2,1.2c-1,0-2-0.3-2.8-0.9l-0.7,1.2c1,0.7,2.1,1,3.3,1c2.2,0,3.7-1.1,3.8-2.7
				c0-2.6-4.3-1.8-4.2-3.4c0-0.7,0.8-1.2,2.1-1.2c0.8,0,1.6,0.2,2.3,0.6l0.6-1.2c-0.9-0.5-1.8-0.7-2.8-0.7
				C44.6-3.6,43.1-2.5,43.1-0.9 M61.2,6.9c0-3.4,1.9-8,5.2-8c1.8,0,2.9,1.2,2.9,3.5c0,3.4-1.9,8-5.2,8C62.2,10.5,61.1,9.3,61.2,6.9
				 M58.1,7c0,3.8,2.1,6.1,5.7,6.1c5.1,0,8.5-4.9,8.6-10.8c0-3.8-2.1-6.1-5.7-6.1C61.5-3.8,58.1,1.2,58.1,7 M75.8,6.9
				c0-3.4,1.9-8,5.2-8c1.8,0,2.9,1.2,2.9,3.5c0,3.4-1.9,8-5.2,8C76.9,10.5,75.8,9.3,75.8,6.9 M72.8,7c0,3.8,2.1,6.1,5.7,6.1
				c5.1,0,8.5-4.9,8.6-10.8c0-3.8-2.1-6.1-5.7-6.1C76.2-3.8,72.8,1.2,72.8,7 M90.5,6.9c0-3.4,1.9-8,5.2-8c1.8,0,2.9,1.2,2.9,3.5
				c0,3.4-1.9,8-5.2,8C91.6,10.5,90.5,9.3,90.5,6.9 M87.5,7c0,3.8,2.1,6.1,5.7,6.1c5.1,0,8.5-4.9,8.6-10.8c0-3.8-2.1-6.1-5.7-6.1
				C90.9-3.8,87.5,1.2,87.5,7 M97.5-8.2l-0.1,0.3h0.5l-0.3,1.4h0.4l0.3-1.4h0.5l0.1-0.3H97.5z M100.7-8.2l-0.8,1l-0.4-1h-0.3
				l-0.3,1.7h0.4l0.2-1l0.3,0.8h0.2l0.6-0.8l-0.2,1h0.4l0.3-1.7H100.7z"></path>
		</defs>
		<clipPath id="SVGID_00000002346094458046464090000001075479568348816547_">
			<use xlink:href="#SVGID_1_" style="overflow:visible;"></use>
		</clipPath>
		<g id="Group_1949" style="clip-path:url(#SVGID_00000002346094458046464090000001075479568348816547_);">
			<rect id="Rectangle_59" x="-8.7" y="-10.5" class="st1" width="118.2" height="29.4"></rect>
		</g>
	</g>
</g>
<g id="Group_1952">
	<g>
		<defs>
			<rect id="SVGID_00000127754549347306942100000006967460097115241384_" x="-5.8" y="-8.2" width="129.8" height="65.1"></rect>
		</defs>
		<clipPath id="SVGID_00000008131315948131074990000012330798419853843125_">
			<use xlink:href="#SVGID_00000127754549347306942100000006967460097115241384_" style="overflow:visible;"></use>
		</clipPath>
		<g id="Group_1951" style="clip-path:url(#SVGID_00000008131315948131074990000012330798419853843125_);">
			<path id="Path_93" class="st1" d="M37.8,0l6.8,32.6h-9.8l-1.5-7H21.5l-4.2,7H6.4l4.5-7L0,25.6l32.2-5.8l-1-4.7l-0.9-4.2l-1.8,3
				l2.1,0.8l-12.5,0L27.5,0L37.8,0z M99.4,0H75.6c0.1,0.1,0.2,0.2,0.2,0.3C75.9,0.6,76,0.9,76,1.2c0.1,0.5,0.2,0.5,0.1,0.9
				c-0.1,0.7-0.2,0.6-0.5,1.1c-0.2,0.3-0.3,0.7-0.4,1c0,0,0,0,0,0c0,0,0,0,0,0c0.1,0,0.2,0,0.2,0.3c-0.1,0.4-0.2,0.8-0.5,1.1
				C75,5.8,74.8,6,74.6,6.2c-0.3,0.2-0.4,0.1-0.5,0.2s-0.4,0.7-0.4,0.9c-0.1,0.2-0.1,0.5-0.1,0.7c0,0,0,0.1,0,0.1
				C74.2,8.3,76,9,76.4,9.7l-6,2c0.8-0.1,1.8-0.2,2.6-0.3c1.1-0.1,2.9-0.3,3.5-0.3c0.5,0,1,0.1,1.5,0.2c0.7,0.1,1.3,0.1,2.1,0.3
				c0.4,0.1,0.8,0.2,1.1,0.5c0,0,0.2,0.1,0.2,0.1c0.9-0.1,2.4-0.2,2.7-0.2c0.2,0,0.5,0,0.5,0c2.9-0.4,4.5-1.8,5.9-2.6
				c1.7-1,3.5-1.6,5.5-1.7c2.1-0.1,3.7,0.3,4.7,1.2c1.1,1,1.5,2.6,1,4c-0.2,1.4-1,2.7-2.3,3.4c-1.3,0.8-2.9,1.1-4.5,0.9
				c-2.9-0.3-5.4-2-6.4-2.6c-1-0.6-2.2-1-3.4-1.1c-0.3,0-0.5,0-0.8,0c-0.1,0-1.2,0.1-1.9,0.1c0.1,0.2,0.1,0.3,0.1,0.5
				c0,0.3-0.2,0.5-0.4,0.5c-0.3-0.1-0.6-0.4-0.8-0.7c0,0-0.1,0-0.1,0s0,0.1,0,0.2c0,0.1-0.1,0.4-0.3,0.4c-0.2,0-0.5,0-0.6-0.2
				c0,0-0.1,0-0.1,0c0,0,0,0,0,0c-0.1,0.2-0.1,0.3-0.5,0.3c-0.3,0-0.2,0.1-0.4,0.1c-0.4,0.1-0.6-0.1-1-0.3s-0.2-0.5-0.6-0.5
				c-0.1,0-0.2,0-0.2,0c0.2,0.8,0.4,1.6,0.5,2.4c0,0,0,0.1,0,0.1c0,0,0,0,0,0l-0.3,0c0,0-0.1,0,0,0.1c0,0,0,0,0,0
				c0.1,0.6,0.3,1.2,0.3,1.9c0.1,0.6,0.1,1.3,0,2c0,0,0,0.1,0,0.1c0,0,0,0,0,0c0.1,0,0.3-0.1,0.4-0.2c0-0.2,0.1-0.4,0.1-0.6
				c0,0,0.1-0.1,0.1-0.1c0,0,0.1-0.1,0.1-0.1l0.1-0.3c0,0,0-0.1,0.1-0.1l0.5-0.8c0,0,0.1-0.2,0.3-0.2c0.2,0.1,0.3,0.3,0.3,0.5
				c0,0.3-0.1,0.5-0.2,0.7l0.2,0.3c0.2,0.1,0.5,0,0.7-0.1c0.1-0.1,0.2-0.1,0.3-0.2c-0.1-0.2,0.1-0.5,0.7-0.4c0.2,0.1,0.8,0.5,0.1,1
				c0,0,0,0,0,0c0,0,0,0,0,0c0.8,0,0.7,0.9,0.2,1.2c0,0-0.1,0.1,0,0.1c0,0,0,0,0,0c0.1,0.1,0.2,0.3,0.2,0.5c0,0,0,0.2-0.7,0.5
				c0,0-0.2,0.1-0.1,0.3c0.1,0,0.2,0.1,0.3,0.1c0,0,0.7,0.2,0.5,0.5c0,0-0.1,0.3-0.7,0.1c-0.2,0-0.4,0-0.6,0
				c-0.4,0.1-0.8,0.2-1.2,0.3c-0.1,0-0.3,0.1-0.3,0.2l0,0c-0.6,0.6-1.4,1-2.2,1.1c-0.6,0-0.7-0.5-1.2-1c-0.7-0.9-1.2-2.1-1.2-3.2
				c0,0,0-0.1-0.1-0.1c0,0-0.1,0-0.1,0.1c-0.2,1.3-0.2,2.6-1,3.2c-0.7,0.5-1.5,0.9-2.3,1c-4.4,1-9.1,3.7-8.6,4.3
				c0.2,0.2,0.7-0.2,1.6-0.6c2.8-1.2,5.8-1.8,8.9-1.7c0.1,0,0.2,0.1,0.2,0.2c0,0.3,0.1,0.6,0.2,1c0.1,0.6,0.3,1.1,0.7,1.6
				c0.8,0.8,0.7,1,0.5,2.1c-0.1,0.7,0.8,1.2,0.8,1.3h9.4l1.4-7h9.6c9.8,0,14.1-4.5,15.8-13C112.2,8.6,112.2,0,99.4,0 M57.4,32.6
				c0.1-0.1,0.3-0.3,0.5-0.5c0.4-0.4,0.1-1.5,0.2-1.9c0.1-0.5,1-0.8,1.2-1.3c0.2-0.7-1.2-0.6-0.5-1.4c0.4-0.5,1-0.3,1-0.8
				c-0.1-0.8,0.7-1.3,1-1.5c1.9-1.3,4-2.4,6.2-3.2c1.9-0.6-0.7-0.5-2.9,0.3c-2,0.7,2.6-2.1,6.2-3c2.6-0.6-1.9-0.8-6,1
				c-0.9,0.4-1.7,0.8-2.6,1.3c0,0,0,0,0,0c0,0,0,0,0,0c0.4-0.6,0.5-1.2,0.5-1.9c-0.1-0.5,0-1,0.2-1.4c0.2-0.3,0.1-1.1,0.2-1.5
				c0,0,0.1,0,0.1,0l2.2,0.7l8.7-3l-8.3,1.2l-2.9-2.4c-0.5-0.8-0.7-1.8-0.4-2.8c0.4-0.7,0.9-1.3,1.5-1.8c0.7-0.3,1.4-0.6,2.2-0.8
				c0.7-0.3,1.2-0.1,1.6-0.2c0.5-0.1,1-0.3,1.5-0.5c0,0,0,0,0,0c0-0.2,0-0.4,0-0.6c-0.1-0.5-0.2-1.1-0.2-1.6c0-0.5,0.5-1,0.5-1.3
				s-0.2-0.7,0-1c0.2-0.4,0.3-0.8,0.4-1.2c-0.1-0.4-0.3-0.5-0.1-0.9c0.1-0.2,0.3-0.5,0.3-0.7H39.5l1.7,8.3h11.9l-1.3,6.3h9
				l-18.3,3.3l8.6,0l-3,14.7L57.4,32.6z M89.2,13.7c0.2,0.1,0.3,0,0.4-0.2c0,0,0-0.1,0-0.1c0-0.6,0.1-1.3,0.3-1.9
				c0.1-0.3-0.2-0.5-0.4-0.4c-0.9,0.5-1.9,0.9-2.9,1.1c-0.1,0-0.2,0.1-0.2,0.2c0,0.1,0,0.2,0.1,0.2C87.6,13,88.4,13.3,89.2,13.7"></path>
		</g>
	</g>
</g>
</svg>
