<svg viewBox="0 0 131 34" fill="none" xmlns="http://www.w3.org/2000/svg">
<g clip-path="url(#clip0_289_14566)">
<path d="M39.1409 26.287L40.7069 33.787H38.4429L38.1089 32.18H35.3829L34.4209 33.787H31.9209L32.9599 32.18H30.4509L37.8449 30.84L37.6119 29.76L37.4119 28.792L37.0009 29.478L37.4749 29.651H34.5929L36.7649 26.293L39.1409 26.287ZM53.2929 26.287H47.8219C47.8427 26.3105 47.8596 26.3371 47.8719 26.366C47.8931 26.4268 47.9068 26.4899 47.9129 26.554C47.9319 26.664 47.9539 26.68 47.9409 26.763C47.9149 26.926 47.8859 26.909 47.8409 27.005C47.8028 27.0818 47.7723 27.1622 47.7499 27.245C47.7496 27.2459 47.7495 27.2469 47.7496 27.2479C47.7498 27.2489 47.7502 27.2498 47.7508 27.2506C47.7514 27.2514 47.7522 27.252 47.7531 27.2524C47.7539 27.2529 47.7549 27.253 47.7559 27.253C47.7739 27.253 47.811 27.253 47.812 27.312C47.7957 27.4028 47.7617 27.4894 47.7119 27.567C47.681 27.6248 47.6393 27.6761 47.5889 27.718C47.5109 27.763 47.4889 27.737 47.4769 27.76C47.4649 27.783 47.3869 27.93 47.3769 27.97C47.3631 28.0213 47.3547 28.0739 47.3519 28.127C47.3516 28.1305 47.3524 28.134 47.3542 28.1371C47.356 28.1401 47.3587 28.1425 47.3619 28.144C47.5199 28.206 47.9279 28.35 48.0259 28.517L46.6449 28.966C46.8369 28.943 47.0499 28.916 47.2369 28.895C47.4939 28.865 47.9109 28.819 48.0459 28.82C48.1614 28.8261 48.2763 28.8402 48.3899 28.862C48.5519 28.883 48.6959 28.889 48.8719 28.924C48.9671 28.9378 49.0561 28.9791 49.1279 29.043L49.1699 29.077L49.7829 29.035L49.9059 29.027C50.3979 28.9422 50.8608 28.736 51.2529 28.427C51.6359 28.1987 52.0664 28.0618 52.5109 28.027C52.8924 27.9783 53.2779 28.0798 53.5859 28.31C53.7089 28.4246 53.7962 28.5723 53.8373 28.7353C53.8785 28.8983 53.8717 29.0697 53.8179 29.229C53.7978 29.392 53.7398 29.5481 53.6487 29.6847C53.5575 29.8213 53.4357 29.9348 53.2929 30.016C52.9838 30.2011 52.621 30.2759 52.2639 30.228C51.7336 30.1396 51.2295 29.9347 50.7879 29.628C50.5493 29.4854 50.283 29.3954 50.0069 29.364C49.947 29.3601 49.8868 29.3601 49.8269 29.364L49.3959 29.395C49.4087 29.4331 49.4154 29.4729 49.4159 29.513C49.4159 29.593 49.3669 29.632 49.3159 29.625C49.2359 29.5954 49.1687 29.5388 49.1259 29.465C49.1259 29.459 49.1119 29.455 49.1119 29.465C49.1126 29.4773 49.1126 29.4897 49.1119 29.502C49.1119 29.524 49.096 29.591 49.049 29.602C49.0237 29.6074 48.9975 29.6071 48.9724 29.601C48.9473 29.595 48.9239 29.5834 48.9039 29.567C48.9009 29.5648 48.8974 29.5632 48.8937 29.5626C48.89 29.5619 48.8862 29.5621 48.8826 29.5632C48.879 29.5642 48.8758 29.5661 48.873 29.5687C48.8703 29.5713 48.8682 29.5745 48.8669 29.578C48.8489 29.627 48.8389 29.656 48.7469 29.637C48.6839 29.631 48.6969 29.655 48.6569 29.663C48.5569 29.681 48.5109 29.629 48.4329 29.593C48.3549 29.557 48.3809 29.483 48.3039 29.47C48.2889 29.47 48.2639 29.462 48.2489 29.461C48.3048 29.6451 48.346 29.8333 48.3719 30.024C48.3723 30.0274 48.3713 30.0308 48.3693 30.0336C48.3672 30.0363 48.3643 30.0383 48.3609 30.039L48.2799 30.049C48.2781 30.0491 48.2764 30.0496 48.2748 30.0504C48.2733 30.0513 48.2719 30.0525 48.2709 30.0539C48.2698 30.0553 48.2691 30.057 48.2687 30.0587C48.2684 30.0605 48.2685 30.0622 48.2689 30.064C48.3033 30.2068 48.33 30.3513 48.3489 30.497C48.3675 30.6464 48.3675 30.7976 48.3489 30.947C48.3485 30.949 48.3486 30.9511 48.3492 30.9531C48.3499 30.955 48.351 30.9568 48.3525 30.9582C48.354 30.9596 48.3558 30.9606 48.3578 30.9611C48.3599 30.9616 48.362 30.9616 48.364 30.961C48.3961 30.9547 48.4268 30.9429 48.4549 30.926C48.4573 30.8762 48.4667 30.8271 48.4829 30.78C48.4907 30.7692 48.4991 30.7589 48.5079 30.749C48.5151 30.7423 48.52 30.7336 48.5219 30.724L48.5429 30.651C48.5459 30.6402 48.5503 30.6297 48.5559 30.62L48.6649 30.42C48.6649 30.42 48.6899 30.366 48.7339 30.378C48.7544 30.3894 48.7715 30.4059 48.7838 30.4258C48.796 30.4458 48.8029 30.4686 48.8039 30.492C48.7976 30.5499 48.7799 30.606 48.7519 30.657L48.7979 30.731C48.8259 30.7384 48.8552 30.7393 48.8836 30.7338C48.912 30.7282 48.9388 30.7163 48.9619 30.699C48.986 30.6831 49.0091 30.6658 49.0309 30.647C49.0109 30.593 49.0589 30.523 49.1909 30.547C49.2359 30.566 49.3639 30.669 49.2039 30.775C49.2026 30.7755 49.2015 30.7764 49.2007 30.7776C49.2 30.7787 49.1995 30.7801 49.1995 30.7815C49.1995 30.7829 49.2 30.7842 49.2007 30.7854C49.2015 30.7866 49.2026 30.7874 49.2039 30.788C49.3789 30.777 49.358 30.988 49.239 31.053C49.2364 31.0544 49.2341 31.0564 49.2324 31.0587C49.2307 31.0611 49.2295 31.0637 49.2289 31.0666C49.2284 31.0694 49.2284 31.0724 49.2291 31.0753C49.2298 31.0781 49.2311 31.0807 49.2329 31.083C49.258 31.1154 49.272 31.155 49.2729 31.196C49.2729 31.196 49.2729 31.252 49.1029 31.311C49.1029 31.311 49.0509 31.332 49.0719 31.37L49.1419 31.394C49.1419 31.394 49.2959 31.429 49.2669 31.515C49.2669 31.515 49.2409 31.587 49.0949 31.539C49.047 31.5435 48.9988 31.5435 48.9509 31.539C48.8593 31.5684 48.7657 31.5914 48.6709 31.608C48.6403 31.6144 48.6128 31.6309 48.5929 31.655C48.4499 31.7895 48.2711 31.8798 48.0779 31.915C47.9339 31.915 47.9149 31.806 47.8109 31.696C47.6397 31.4863 47.5449 31.2247 47.5419 30.954C47.5419 30.95 47.5403 30.9462 47.5375 30.9434C47.5347 30.9405 47.5309 30.939 47.5269 30.939C47.5229 30.939 47.5191 30.9405 47.5163 30.9434C47.5135 30.9462 47.5119 30.95 47.5119 30.954C47.5233 31.2194 47.444 31.4808 47.2869 31.695C47.1299 31.8132 46.9468 31.8917 46.7529 31.924C45.7459 32.163 44.6619 32.782 44.7839 32.924C44.8329 32.979 44.9469 32.868 45.1459 32.777C45.7894 32.5056 46.4827 32.3727 47.1809 32.387C47.1919 32.3878 47.2022 32.3925 47.21 32.4002C47.2179 32.4079 47.2228 32.4181 47.2239 32.429C47.2337 32.5042 47.2497 32.5785 47.2719 32.651C47.293 32.7851 47.3488 32.9112 47.4339 33.017C47.6209 33.192 47.5939 33.257 47.5509 33.492C47.5229 33.645 47.7329 33.773 47.7379 33.779H49.9029L50.2359 32.172H52.4359C52.8728 32.2269 53.3162 32.192 53.7391 32.0694C54.1619 31.9468 54.5554 31.7391 54.8951 31.459C55.2348 31.179 55.5137 30.8324 55.7147 30.4407C55.9157 30.0489 56.0345 29.6203 56.0639 29.181C56.2409 28.268 56.235 26.281 53.299 26.281M43.6409 33.781C43.6709 33.748 43.7059 33.71 43.7479 33.668C43.8429 33.568 43.7689 33.325 43.7869 33.23C43.8119 33.106 44.0239 33.041 44.0579 32.92C44.1039 32.755 43.7769 32.783 43.9329 32.609C44.0329 32.5 44.1719 32.538 44.1629 32.431C44.1469 32.257 44.3169 32.139 44.3879 32.085C44.8281 31.7748 45.3098 31.5284 45.8189 31.353C46.2619 31.224 45.6509 31.236 45.1469 31.421C44.6879 31.589 45.741 30.93 46.575 30.721C47.168 30.572 46.1389 30.543 45.1889 30.96C44.9853 31.0427 44.7881 31.1402 44.5989 31.252C44.5979 31.2524 44.5968 31.2525 44.5957 31.2523C44.5946 31.2521 44.5937 31.2516 44.5928 31.2509C44.592 31.2502 44.5914 31.2493 44.5911 31.2482C44.5907 31.2472 44.5907 31.2461 44.5909 31.245C44.6743 31.1172 44.7152 30.9664 44.7079 30.814C44.6877 30.7057 44.7017 30.5939 44.7479 30.494C44.7829 30.426 44.7609 30.243 44.8009 30.148C44.8024 30.1445 44.8053 30.1417 44.8088 30.1402C44.8124 30.1387 44.8164 30.1387 44.8199 30.14L45.3299 30.299L47.3219 29.621L45.4219 29.902L44.7639 29.34C44.702 29.2483 44.6615 29.144 44.6454 29.0346C44.6293 28.9252 44.638 28.8136 44.6709 28.708C44.7698 28.5573 44.8845 28.4175 45.0129 28.291C45.1749 28.2188 45.3421 28.1586 45.5129 28.111C45.6619 28.035 45.7819 28.086 45.8909 28.069C46.0083 28.0404 46.1239 28.0047 46.2369 27.962C46.2377 27.961 46.238 27.9598 46.238 27.9585C46.238 27.9572 46.2377 27.956 46.2369 27.955C46.2366 27.9111 46.2329 27.8673 46.226 27.824C46.1969 27.7049 46.1844 27.5825 46.1889 27.46C46.2009 27.341 46.3039 27.238 46.3079 27.16C46.3119 27.082 46.2559 27 46.2999 26.924C46.3433 26.8356 46.3768 26.7427 46.3999 26.647C46.3869 26.557 46.3309 26.525 46.3719 26.434C46.3949 26.386 46.4309 26.318 46.4469 26.283H39.5129L39.9129 28.183H42.6439L42.3439 29.642H44.4019L40.2019 30.403H42.1889L41.489 33.783L43.6409 33.781ZM50.9569 29.438C50.9682 29.4425 50.9805 29.4441 50.9926 29.4427C51.0047 29.4412 51.0163 29.4368 51.0262 29.4297C51.0362 29.4227 51.0442 29.4132 51.0496 29.4023C51.0549 29.3913 51.0575 29.3792 51.0569 29.367C51.0599 29.2216 51.0856 29.0775 51.1329 28.94C51.1499 28.879 51.0979 28.831 51.0469 28.859C50.8393 28.9767 50.6166 29.0655 50.3849 29.123C50.3742 29.1258 50.3645 29.1319 50.3575 29.1406C50.3505 29.1492 50.3465 29.1599 50.3459 29.171C50.345 29.181 50.3474 29.1909 50.3528 29.1992C50.3583 29.2076 50.3664 29.2139 50.3759 29.217C50.5775 29.2674 50.7722 29.3419 50.9559 29.439" fill="#111111"></path>
<path d="M51.0419 28.8618C50.8344 28.9796 50.6116 29.0685 50.3799 29.1258C50.3695 29.1287 50.3602 29.1348 50.3534 29.1432C50.3466 29.1517 50.3426 29.162 50.3419 29.1728C50.3407 29.1826 50.3429 29.1926 50.3482 29.201C50.3535 29.2094 50.3615 29.2157 50.3709 29.2188C50.5726 29.2702 50.7676 29.3451 50.9519 29.4418C50.9632 29.4464 50.9756 29.4479 50.9877 29.4465C50.9998 29.445 51.0113 29.4406 51.0212 29.4335C51.0312 29.4265 51.0392 29.417 51.0446 29.4061C51.0499 29.3951 51.0525 29.383 51.0519 29.3708C51.0553 29.2253 51.0812 29.0813 51.1289 28.9438C51.1325 28.9342 51.1338 28.9239 51.1328 28.9137C51.1317 28.9035 51.1282 28.8936 51.1227 28.885C51.1171 28.8764 51.1097 28.8692 51.1009 28.864C51.0921 28.8587 51.0821 28.8555 51.0719 28.8548C51.0614 28.8548 51.0511 28.8566 51.0419 28.8618ZM36.7629 26.2868L34.5909 29.6458H37.4729L36.9989 29.4718L37.4099 28.7858L37.6099 29.7548L37.8419 30.8348L30.45 32.1748H32.9579L31.9189 33.7828H34.4189L35.3809 32.1748H38.1109L38.4449 33.7828H40.7089L39.1419 26.2828L36.7629 26.2868ZM39.5139 26.2868L39.9139 28.1868H42.6459L42.3459 29.6468H44.4039L40.2039 30.4078H42.1909L41.4909 33.7878H43.6379C43.6679 33.7548 43.7019 33.7168 43.7449 33.6748C43.8389 33.5748 43.7649 33.3318 43.7839 33.2368C43.8069 33.1138 44.0219 33.0478 44.0549 32.9268C44.1009 32.7618 43.7739 32.7908 43.9299 32.6168C44.0299 32.5078 44.1689 32.5458 44.1599 32.4388C44.1439 32.2638 44.3129 32.1468 44.3849 32.0918C44.8257 31.7822 45.3077 31.5361 45.8169 31.3608C46.2599 31.2318 45.6489 31.2438 45.1439 31.4298C44.6849 31.5978 45.7389 30.9378 46.5709 30.7298C47.1639 30.5808 46.1349 30.5518 45.1859 30.9688C44.9821 31.0509 44.7849 31.1485 44.5959 31.2608C44.5948 31.2613 44.5936 31.2615 44.5923 31.2613C44.5911 31.2611 44.59 31.2605 44.5891 31.2596C44.5882 31.2588 44.5876 31.2576 44.5874 31.2564C44.5872 31.2552 44.5874 31.2539 44.588 31.2528C44.6706 31.1251 44.7114 30.9748 44.7049 30.8228C44.684 30.7148 44.6973 30.6029 44.7429 30.5028C44.7799 30.4348 44.7579 30.2518 44.7969 30.1568C44.7987 30.1534 44.8015 30.1508 44.805 30.1494C44.8085 30.1479 44.8123 30.1477 44.8159 30.1488L45.3259 30.3078L47.3179 29.6298L45.4179 29.9108L44.7599 29.3488C44.6977 29.2574 44.657 29.153 44.6409 29.0435C44.6248 28.9341 44.6337 28.8223 44.6669 28.7168C44.7651 28.5658 44.8794 28.426 45.0079 28.2998C45.17 28.2277 45.3371 28.1676 45.5079 28.1198C45.5891 28.0822 45.6792 28.0684 45.7679 28.0798C45.8075 28.0837 45.8473 28.0837 45.8869 28.0798C46.0044 28.0511 46.12 28.015 46.2329 27.9718C46.2329 27.9718 46.2379 27.9718 46.2379 27.9658C46.2372 27.9216 46.2335 27.8775 46.2269 27.8338C46.1979 27.7148 46.1854 27.5922 46.1899 27.4698C46.2019 27.3518 46.3049 27.2488 46.3099 27.1698C46.3149 27.0908 46.2579 27.0098 46.3019 26.9338C46.3451 26.845 46.3786 26.7518 46.4019 26.6558C46.3889 26.5668 46.3329 26.5348 46.3739 26.4438C46.3949 26.3958 46.4329 26.3278 46.4479 26.2928L39.5139 26.2868ZM47.8219 26.2868C47.8426 26.3104 47.8595 26.337 47.8719 26.3658C47.8932 26.4266 47.9069 26.4897 47.9129 26.5538C47.9309 26.6638 47.9529 26.6798 47.9399 26.7628C47.9149 26.9258 47.8859 26.9088 47.8399 27.0048C47.8021 27.0817 47.772 27.1621 47.7499 27.2448C47.7499 27.2448 47.7499 27.2528 47.7569 27.2528C47.7639 27.2528 47.8109 27.2528 47.8129 27.3118C47.7947 27.403 47.7587 27.4896 47.7069 27.5668C47.6765 27.6244 47.6351 27.6753 47.5849 27.7168C47.5069 27.7628 47.4849 27.7358 47.4709 27.7588C47.4569 27.7818 47.3809 27.9288 47.3709 27.9688C47.3579 28.0203 47.3495 28.0728 47.3459 28.1258C47.3457 28.1294 47.3467 28.133 47.3486 28.1361C47.3506 28.1392 47.3535 28.1415 47.3569 28.1428C47.5139 28.2048 47.9219 28.3488 48.0209 28.5158L46.6399 28.9648L47.2329 28.8938C47.4899 28.8648 47.9069 28.8178 48.0409 28.8198C48.1564 28.8259 48.2714 28.84 48.3849 28.8618C48.5479 28.8828 48.6909 28.8888 48.8659 28.9238C48.9614 28.9373 49.0509 28.9786 49.1229 29.0428C49.1309 29.0428 49.1649 29.0768 49.1649 29.0768L49.7789 29.0348C49.8139 29.0348 49.8879 29.0278 49.9019 29.0258C50.3939 28.9413 50.857 28.735 51.2489 28.4258C51.6314 28.1972 52.0617 28.0604 52.5059 28.0258C52.8874 27.9767 53.2731 28.0782 53.5809 28.3088C53.704 28.4234 53.7913 28.5711 53.8323 28.7341C53.8733 28.8972 53.8663 29.0686 53.812 29.2278C53.7924 29.3908 53.7348 29.5471 53.6437 29.6838C53.5527 29.8205 53.4308 29.9339 53.2879 30.0148C52.9783 30.1995 52.6153 30.2742 52.2579 30.2268C51.728 30.1383 51.2242 29.9334 50.7829 29.6268C50.544 29.4841 50.2774 29.394 50.0009 29.3628C49.941 29.3591 49.8809 29.3591 49.8209 29.3628L49.3899 29.3938C49.4024 29.4316 49.4095 29.471 49.4109 29.5108C49.4109 29.5918 49.3619 29.6298 49.3109 29.6228C49.2311 29.5934 49.1639 29.5372 49.1209 29.4638C49.1209 29.4568 49.1079 29.4538 49.1079 29.4638C49.1086 29.4761 49.1086 29.4885 49.1079 29.5008C49.1079 29.5228 49.0919 29.5898 49.0439 29.6008C49.0188 29.6065 48.9926 29.6063 48.9675 29.6004C48.9424 29.5945 48.919 29.5831 48.8989 29.5668C48.8959 29.5644 48.8924 29.5626 48.8885 29.5618C48.8847 29.561 48.8808 29.5612 48.877 29.5623C48.8733 29.5634 48.8699 29.5654 48.8671 29.5681C48.8643 29.5708 48.8621 29.5741 48.8609 29.5778C48.8439 29.6258 48.8339 29.6558 48.7419 29.6378C48.6779 29.6308 48.6909 29.6558 48.6509 29.6628C48.5509 29.6808 48.5059 29.6288 48.4279 29.5928C48.3499 29.5568 48.3759 29.4828 48.2979 29.4698L48.2429 29.4598C48.2988 29.644 48.3403 29.8322 48.3669 30.0228C48.3673 30.0262 48.3663 30.0296 48.3643 30.0324C48.3622 30.0352 48.3592 30.0371 48.3559 30.0378L48.2759 30.0468C48.2741 30.047 48.2724 30.0476 48.2708 30.0486C48.2692 30.0495 48.2679 30.0509 48.2668 30.0524C48.2658 30.0539 48.2651 30.0556 48.2648 30.0574C48.2644 30.0592 48.2645 30.061 48.2649 30.0628C48.2997 30.2055 48.3265 30.3501 48.3449 30.4958C48.3643 30.6452 48.3643 30.7964 48.3449 30.9458C48.3447 30.9479 48.345 30.95 48.3458 30.9519C48.3465 30.9538 48.3477 30.9556 48.3493 30.957C48.3509 30.9583 48.3527 30.9593 48.3547 30.9598C48.3568 30.9603 48.3589 30.9603 48.3609 30.9598C48.3936 30.9541 48.425 30.9418 48.4529 30.9238C48.4548 30.874 48.4642 30.8248 48.4809 30.7778C48.4885 30.7666 48.4968 30.7559 48.5059 30.7458C48.5125 30.7387 48.5173 30.7302 48.5199 30.7208L48.5409 30.6488C48.5436 30.6379 48.548 30.6274 48.5539 30.6178L48.6629 30.4178C48.6629 30.4178 48.6879 30.3648 48.7319 30.3768C48.7523 30.3883 48.7694 30.4048 48.7817 30.4247C48.7939 30.4447 48.8009 30.4674 48.8019 30.4908C48.7957 30.5487 48.778 30.6048 48.7499 30.6558L48.7949 30.7298C48.8231 30.7373 48.8525 30.7383 48.8811 30.7327C48.9097 30.7272 48.9366 30.7152 48.9599 30.6978C48.9838 30.6817 49.0069 30.6644 49.0289 30.6458C49.0079 30.5918 49.0569 30.5218 49.1879 30.5458C49.2339 30.5648 49.3619 30.6678 49.2019 30.7728C49.2006 30.7733 49.1995 30.7742 49.1987 30.7754C49.1979 30.7765 49.1975 30.7779 49.1975 30.7793C49.1975 30.7807 49.1979 30.7821 49.1987 30.7833C49.1995 30.7844 49.2006 30.7853 49.2019 30.7858C49.3769 30.7748 49.3559 30.9858 49.2369 31.0508C49.2344 31.0522 49.2321 31.0542 49.2304 31.0565C49.2287 31.0589 49.2275 31.0615 49.2269 31.0644C49.2264 31.0672 49.2264 31.0702 49.2271 31.0731C49.2278 31.0759 49.2291 31.0785 49.2309 31.0808C49.2562 31.1131 49.2703 31.1528 49.2709 31.1938C49.2709 31.1938 49.271 31.2498 49.101 31.3088C49.101 31.3088 49.0479 31.3298 49.0689 31.3678L49.1389 31.3918C49.1389 31.3918 49.2939 31.4268 49.2629 31.5128C49.2629 31.5128 49.2379 31.5848 49.0909 31.5368C49.043 31.5413 48.9948 31.5413 48.9469 31.5368C48.8554 31.5654 48.7622 31.5885 48.6679 31.6058C48.637 31.6121 48.6092 31.6287 48.5889 31.6528C48.4462 31.7878 48.2672 31.8781 48.0739 31.9128C47.9309 31.9128 47.9119 31.8038 47.8079 31.6938C47.6366 31.4842 47.5417 31.2225 47.5389 30.9518C47.5389 30.9478 47.5374 30.944 47.5345 30.9412C47.5317 30.9384 47.5279 30.9368 47.5239 30.9368C47.5199 30.9368 47.5161 30.9384 47.5133 30.9412C47.5105 30.944 47.5089 30.9478 47.5089 30.9518C47.5208 31.2174 47.441 31.479 47.2829 31.6928C47.126 31.8111 46.9428 31.8897 46.7489 31.9218C45.7419 32.1598 44.6579 32.7788 44.7809 32.9218C44.8289 32.9778 44.9429 32.8668 45.1419 32.7758C45.7857 32.5044 46.4794 32.3715 47.1779 32.3858C47.1888 32.3867 47.1989 32.3914 47.2066 32.3991C47.2143 32.4068 47.219 32.417 47.2199 32.4278C47.2301 32.5029 47.2462 32.5771 47.2679 32.6498C47.2894 32.7837 47.3452 32.9099 47.4299 33.0158C47.6169 33.1908 47.5909 33.2558 47.5469 33.4908C47.5189 33.6438 47.7289 33.7718 47.7339 33.7778H49.8989L50.2329 32.1698H52.4329C52.8698 32.2249 53.3133 32.1901 53.7363 32.0676C54.1592 31.945 54.5526 31.7373 54.8923 31.4572C55.2321 31.1771 55.511 30.8305 55.712 30.4387C55.9129 30.0469 56.0317 29.6182 56.0609 29.1788C56.2379 28.2658 56.2329 26.2788 53.2969 26.2788L47.8219 26.2868Z" fill="#111111"></path>
<mask id="mask0_289_14566" style="mask-type:luminance" maskUnits="userSpaceOnUse" x="30" y="26" width="27" height="8">
<path d="M51.0419 28.8618C50.8344 28.9796 50.6116 29.0685 50.3799 29.1258C50.3695 29.1287 50.3602 29.1348 50.3534 29.1432C50.3466 29.1517 50.3426 29.162 50.3419 29.1728C50.3407 29.1826 50.3429 29.1926 50.3482 29.201C50.3535 29.2094 50.3615 29.2157 50.3709 29.2188C50.5726 29.2702 50.7676 29.3451 50.9519 29.4418C50.9632 29.4464 50.9756 29.4479 50.9877 29.4465C50.9998 29.445 51.0113 29.4406 51.0212 29.4335C51.0312 29.4265 51.0392 29.417 51.0446 29.4061C51.0499 29.3951 51.0525 29.383 51.0519 29.3708C51.0553 29.2253 51.0812 29.0813 51.1289 28.9438C51.1325 28.9342 51.1338 28.9239 51.1328 28.9137C51.1317 28.9035 51.1282 28.8936 51.1227 28.885C51.1171 28.8764 51.1097 28.8692 51.1009 28.864C51.0921 28.8587 51.0821 28.8555 51.0719 28.8548C51.0614 28.8548 51.0511 28.8566 51.0419 28.8618ZM36.7629 26.2868L34.5909 29.6458H37.4729L36.9989 29.4718L37.4099 28.7858L37.6099 29.7548L37.8419 30.8348L30.45 32.1748H32.9579L31.9189 33.7828H34.4189L35.3809 32.1748H38.1109L38.4449 33.7828H40.7089L39.1419 26.2828L36.7629 26.2868ZM39.5139 26.2868L39.9139 28.1868H42.6459L42.3459 29.6468H44.4039L40.2039 30.4078H42.1909L41.4909 33.7878H43.6379C43.6679 33.7548 43.7019 33.7168 43.7449 33.6748C43.8389 33.5748 43.7649 33.3318 43.7839 33.2368C43.8069 33.1138 44.0219 33.0478 44.0549 32.9268C44.1009 32.7618 43.7739 32.7908 43.9299 32.6168C44.0299 32.5078 44.1689 32.5458 44.1599 32.4388C44.1439 32.2638 44.3129 32.1468 44.3849 32.0918C44.8257 31.7822 45.3077 31.5361 45.8169 31.3608C46.2599 31.2318 45.6489 31.2438 45.1439 31.4298C44.6849 31.5978 45.7389 30.9378 46.5709 30.7298C47.1639 30.5808 46.1349 30.5518 45.1859 30.9688C44.9821 31.0509 44.7849 31.1485 44.5959 31.2608C44.5948 31.2613 44.5936 31.2615 44.5923 31.2613C44.5911 31.2611 44.59 31.2605 44.5891 31.2596C44.5882 31.2588 44.5876 31.2576 44.5874 31.2564C44.5872 31.2552 44.5874 31.2539 44.588 31.2528C44.6706 31.1251 44.7114 30.9748 44.7049 30.8228C44.684 30.7148 44.6973 30.6029 44.7429 30.5028C44.7799 30.4348 44.7579 30.2518 44.7969 30.1568C44.7987 30.1534 44.8015 30.1508 44.805 30.1494C44.8085 30.1479 44.8123 30.1477 44.8159 30.1488L45.3259 30.3078L47.3179 29.6298L45.4179 29.9108L44.7599 29.3488C44.6977 29.2574 44.657 29.153 44.6409 29.0435C44.6248 28.9341 44.6337 28.8223 44.6669 28.7168C44.7651 28.5658 44.8794 28.426 45.0079 28.2998C45.17 28.2277 45.3371 28.1676 45.5079 28.1198C45.5891 28.0822 45.6792 28.0684 45.7679 28.0798C45.8075 28.0837 45.8473 28.0837 45.8869 28.0798C46.0044 28.0511 46.12 28.015 46.2329 27.9718C46.2329 27.9718 46.2379 27.9718 46.2379 27.9658C46.2372 27.9216 46.2335 27.8775 46.2269 27.8338C46.1979 27.7148 46.1854 27.5922 46.1899 27.4698C46.2019 27.3518 46.3049 27.2488 46.3099 27.1698C46.3149 27.0908 46.2579 27.0098 46.3019 26.9338C46.3451 26.845 46.3786 26.7518 46.4019 26.6558C46.3889 26.5668 46.3329 26.5348 46.3739 26.4438C46.3949 26.3958 46.4329 26.3278 46.4479 26.2928L39.5139 26.2868ZM47.8219 26.2868C47.8426 26.3104 47.8595 26.337 47.8719 26.3658C47.8932 26.4266 47.9069 26.4897 47.9129 26.5538C47.9309 26.6638 47.9529 26.6798 47.9399 26.7628C47.9149 26.9258 47.8859 26.9088 47.8399 27.0048C47.8021 27.0817 47.772 27.1621 47.7499 27.2448C47.7499 27.2448 47.7499 27.2528 47.7569 27.2528C47.7639 27.2528 47.8109 27.2528 47.8129 27.3118C47.7947 27.403 47.7587 27.4896 47.7069 27.5668C47.6765 27.6244 47.6351 27.6753 47.5849 27.7168C47.5069 27.7628 47.4849 27.7358 47.4709 27.7588C47.4569 27.7818 47.3809 27.9288 47.3709 27.9688C47.3579 28.0203 47.3495 28.0728 47.3459 28.1258C47.3457 28.1294 47.3467 28.133 47.3486 28.1361C47.3506 28.1392 47.3535 28.1415 47.3569 28.1428C47.5139 28.2048 47.9219 28.3488 48.0209 28.5158L46.6399 28.9648L47.2329 28.8938C47.4899 28.8648 47.9069 28.8178 48.0409 28.8198C48.1564 28.8259 48.2714 28.84 48.3849 28.8618C48.5479 28.8828 48.6909 28.8888 48.8659 28.9238C48.9614 28.9373 49.0509 28.9786 49.1229 29.0428C49.1309 29.0428 49.1649 29.0768 49.1649 29.0768L49.7789 29.0348C49.8139 29.0348 49.8879 29.0278 49.9019 29.0258C50.3939 28.9413 50.857 28.735 51.2489 28.4258C51.6314 28.1972 52.0617 28.0604 52.5059 28.0258C52.8874 27.9767 53.2731 28.0782 53.5809 28.3088C53.704 28.4234 53.7913 28.5711 53.8323 28.7341C53.8733 28.8972 53.8663 29.0686 53.812 29.2278C53.7924 29.3908 53.7348 29.5471 53.6437 29.6838C53.5527 29.8205 53.4308 29.9339 53.2879 30.0148C52.9783 30.1995 52.6153 30.2742 52.2579 30.2268C51.728 30.1383 51.2242 29.9334 50.7829 29.6268C50.544 29.4841 50.2774 29.394 50.0009 29.3628C49.941 29.3591 49.8809 29.3591 49.8209 29.3628L49.3899 29.3938C49.4024 29.4316 49.4095 29.471 49.4109 29.5108C49.4109 29.5918 49.3619 29.6298 49.3109 29.6228C49.2311 29.5934 49.1639 29.5372 49.1209 29.4638C49.1209 29.4568 49.1079 29.4538 49.1079 29.4638C49.1086 29.4761 49.1086 29.4885 49.1079 29.5008C49.1079 29.5228 49.0919 29.5898 49.0439 29.6008C49.0188 29.6065 48.9926 29.6063 48.9675 29.6004C48.9424 29.5945 48.919 29.5831 48.8989 29.5668C48.8959 29.5644 48.8924 29.5626 48.8885 29.5618C48.8847 29.561 48.8808 29.5612 48.877 29.5623C48.8733 29.5634 48.8699 29.5654 48.8671 29.5681C48.8643 29.5708 48.8621 29.5741 48.8609 29.5778C48.8439 29.6258 48.8339 29.6558 48.7419 29.6378C48.6779 29.6308 48.6909 29.6558 48.6509 29.6628C48.5509 29.6808 48.5059 29.6288 48.4279 29.5928C48.3499 29.5568 48.3759 29.4828 48.2979 29.4698L48.2429 29.4598C48.2988 29.644 48.3403 29.8322 48.3669 30.0228C48.3673 30.0262 48.3663 30.0296 48.3643 30.0324C48.3622 30.0352 48.3592 30.0371 48.3559 30.0378L48.2759 30.0468C48.2741 30.047 48.2724 30.0476 48.2708 30.0486C48.2692 30.0495 48.2679 30.0509 48.2668 30.0524C48.2658 30.0539 48.2651 30.0556 48.2648 30.0574C48.2644 30.0592 48.2645 30.061 48.2649 30.0628C48.2997 30.2055 48.3265 30.3501 48.3449 30.4958C48.3643 30.6452 48.3643 30.7964 48.3449 30.9458C48.3447 30.9479 48.345 30.95 48.3458 30.9519C48.3465 30.9538 48.3477 30.9556 48.3493 30.957C48.3509 30.9583 48.3527 30.9593 48.3547 30.9598C48.3568 30.9603 48.3589 30.9603 48.3609 30.9598C48.3936 30.9541 48.425 30.9418 48.4529 30.9238C48.4548 30.874 48.4642 30.8248 48.4809 30.7778C48.4885 30.7666 48.4968 30.7559 48.5059 30.7458C48.5125 30.7387 48.5173 30.7302 48.5199 30.7208L48.5409 30.6488C48.5436 30.6379 48.548 30.6274 48.5539 30.6178L48.6629 30.4178C48.6629 30.4178 48.6879 30.3648 48.7319 30.3768C48.7523 30.3883 48.7694 30.4048 48.7817 30.4247C48.7939 30.4447 48.8009 30.4674 48.8019 30.4908C48.7957 30.5487 48.778 30.6048 48.7499 30.6558L48.7949 30.7298C48.8231 30.7373 48.8525 30.7383 48.8811 30.7327C48.9097 30.7272 48.9366 30.7152 48.9599 30.6978C48.9838 30.6817 49.0069 30.6644 49.0289 30.6458C49.0079 30.5918 49.0569 30.5218 49.1879 30.5458C49.2339 30.5648 49.3619 30.6678 49.2019 30.7728C49.2006 30.7733 49.1995 30.7742 49.1987 30.7754C49.1979 30.7765 49.1975 30.7779 49.1975 30.7793C49.1975 30.7807 49.1979 30.7821 49.1987 30.7833C49.1995 30.7844 49.2006 30.7853 49.2019 30.7858C49.3769 30.7748 49.3559 30.9858 49.2369 31.0508C49.2344 31.0522 49.2321 31.0542 49.2304 31.0565C49.2287 31.0589 49.2275 31.0615 49.2269 31.0644C49.2264 31.0672 49.2264 31.0702 49.2271 31.0731C49.2278 31.0759 49.2291 31.0785 49.2309 31.0808C49.2562 31.1131 49.2703 31.1528 49.2709 31.1938C49.2709 31.1938 49.271 31.2498 49.101 31.3088C49.101 31.3088 49.0479 31.3298 49.0689 31.3678L49.1389 31.3918C49.1389 31.3918 49.2939 31.4268 49.2629 31.5128C49.2629 31.5128 49.2379 31.5848 49.0909 31.5368C49.043 31.5413 48.9948 31.5413 48.9469 31.5368C48.8554 31.5654 48.7622 31.5885 48.6679 31.6058C48.637 31.6121 48.6092 31.6287 48.5889 31.6528C48.4462 31.7878 48.2672 31.8781 48.0739 31.9128C47.9309 31.9128 47.9119 31.8038 47.8079 31.6938C47.6366 31.4842 47.5417 31.2225 47.5389 30.9518C47.5389 30.9478 47.5374 30.944 47.5345 30.9412C47.5317 30.9384 47.5279 30.9368 47.5239 30.9368C47.5199 30.9368 47.5161 30.9384 47.5133 30.9412C47.5105 30.944 47.5089 30.9478 47.5089 30.9518C47.5208 31.2174 47.441 31.479 47.2829 31.6928C47.126 31.8111 46.9428 31.8897 46.7489 31.9218C45.7419 32.1598 44.6579 32.7788 44.7809 32.9218C44.8289 32.9778 44.9429 32.8668 45.1419 32.7758C45.7857 32.5044 46.4794 32.3715 47.1779 32.3858C47.1888 32.3867 47.1989 32.3914 47.2066 32.3991C47.2143 32.4068 47.219 32.417 47.2199 32.4278C47.2301 32.5029 47.2462 32.5771 47.2679 32.6498C47.2894 32.7837 47.3452 32.9099 47.4299 33.0158C47.6169 33.1908 47.5909 33.2558 47.5469 33.4908C47.5189 33.6438 47.7289 33.7718 47.7339 33.7778H49.8989L50.2329 32.1698H52.4329C52.8698 32.2249 53.3133 32.1901 53.7363 32.0676C54.1592 31.945 54.5526 31.7373 54.8923 31.4572C55.2321 31.1771 55.511 30.8305 55.712 30.4387C55.9129 30.0469 56.0317 29.6182 56.0609 29.1788C56.2379 28.2658 56.2329 26.2788 53.2969 26.2788L47.8219 26.2868Z" fill="white"></path>
</mask>
<g mask="url(#mask0_289_14566)">
<path d="M56.7209 25.5327H30.1409V33.7837H56.7209V25.5327Z" fill="#111111"></path>
</g>
<path d="M55.2261 33.4709H55.1021L55.1181 33.3979H55.4541L55.4391 33.4709H55.3161L55.2531 33.785H55.1631L55.2261 33.4709ZM55.9371 33.3979L55.86 33.785H55.7771L55.8221 33.555L55.6741 33.744H55.6351L55.5551 33.553L55.5091 33.785H55.425L55.5021 33.3979H55.576L55.6761 33.639L55.8651 33.3979H55.9371Z" fill="#111111"></path>
<path d="M55.1181 33.3979L55.1021 33.4709H55.2261L55.1641 33.7859H55.2531L55.3161 33.4709H55.4391L55.4541 33.3979H55.1181ZM55.8611 33.3979L55.6721 33.639L55.5721 33.3979H55.498L55.4211 33.7859H55.5041L55.5511 33.553L55.6311 33.744H55.67L55.8181 33.555L55.7721 33.7859H55.8561L55.933 33.3979H55.8611Z" fill="#111111"></path>
<mask id="mask1_289_14566" style="mask-type:luminance" maskUnits="userSpaceOnUse" x="55" y="33" width="1" height="1">
<path d="M55.1181 33.3979L55.1021 33.4709H55.2261L55.1641 33.7859H55.2531L55.3161 33.4709H55.4391L55.4541 33.3979H55.1181ZM55.8611 33.3979L55.6721 33.639L55.5721 33.3979H55.498L55.4211 33.7859H55.5041L55.5511 33.553L55.6311 33.744H55.67L55.8181 33.555L55.7721 33.7859H55.8561L55.933 33.3979H55.8611Z" fill="white"></path>
</mask>
<g mask="url(#mask1_289_14566)">
<path d="M55.971 33.1431H54.832V33.9071H55.971V33.1431Z" fill="#111111"></path>
</g>
<path d="M0.000976562 0.000976562V28.887H29.4739L30.0079 26.293H2.59497V2.59296H127.926V26.293H101.046L100.512 28.887H130.521V0.000976562H0.000976562Z" fill="#111111"></path>
<path d="M61.101 27.4449L60.611 29.735H64.265L64.017 30.9189H60.373L59.764 33.804H58.364L59.945 26.2679H65.453L65.211 27.4449H61.101ZM66.383 26.271H67.783L66.201 33.8069H64.801L66.383 26.271ZM75.653 26.271L74.072 33.8069H72.918L69.875 28.5309L68.768 33.8069H67.377L68.958 26.271H70.111L73.165 31.546L74.265 26.271H75.653ZM81.009 32.063H77.211L76.106 33.8069H74.611L79.587 26.271H80.978L82.778 33.8069H81.388L81.009 32.063ZM80.761 30.963L80.027 27.647L77.914 30.963H80.761ZM84.902 26.269H86.302L84.969 32.621H88.915L88.6671 33.805H83.321L84.902 26.269ZM90.308 33.6689C89.8547 33.5436 89.4315 33.3276 89.064 33.034L89.664 31.934C89.9998 32.1978 90.3792 32.4009 90.785 32.534C91.2128 32.6803 91.6619 32.7549 92.114 32.7549C92.5724 32.7763 93.0284 32.6778 93.437 32.469C93.5847 32.3981 93.7097 32.2874 93.798 32.1495C93.8863 32.0115 93.9344 31.8518 93.937 31.688C93.9391 31.6001 93.9223 31.5127 93.8878 31.4318C93.8533 31.3509 93.8019 31.2784 93.737 31.219C93.5934 31.0864 93.4257 30.9825 93.243 30.913C93.0464 30.8336 92.7727 30.744 92.422 30.644C92.0196 30.5309 91.6248 30.3922 91.2401 30.2289C90.9379 30.0949 90.6731 29.8889 90.469 29.629C90.2461 29.3323 90.1352 28.9664 90.156 28.5959C90.1522 28.1331 90.3024 27.6821 90.583 27.314C90.888 26.9304 91.2913 26.6366 91.75 26.464C92.2977 26.2545 92.8807 26.1526 93.467 26.1639C93.9352 26.1617 94.4018 26.2178 94.856 26.331C95.2543 26.4257 95.6348 26.5837 95.983 26.799L95.423 27.908C95.1325 27.7158 94.8136 27.5704 94.478 27.477C94.1202 27.3755 93.75 27.3247 93.3781 27.326C92.9135 27.3022 92.4515 27.4085 92.044 27.633C91.8955 27.711 91.7707 27.8276 91.6827 27.9705C91.5948 28.1133 91.5468 28.2772 91.544 28.4449C91.5407 28.5354 91.5568 28.6256 91.5913 28.7092C91.6258 28.7929 91.6779 28.8682 91.744 28.93C91.8868 29.0635 92.0542 29.1678 92.237 29.237C92.4303 29.3117 92.7133 29.4066 93.086 29.522C93.4803 29.632 93.8677 29.7656 94.246 29.922C94.5432 30.0486 94.8058 30.2444 95.012 30.493C95.2303 30.771 95.3398 31.1191 95.32 31.472C95.325 31.9381 95.1748 32.3926 94.893 32.764C94.5845 33.1508 94.1751 33.445 93.71 33.614C93.1528 33.8229 92.561 33.9247 91.966 33.9139C91.4007 33.9163 90.8384 33.833 90.298 33.667" fill="#111111"></path>
<path d="M93.312 12.7471H105.596L104.943 16.0151H92.658M93.877 9.92206H106.162L106.803 6.65405H94.53M92.093 18.842L91.417 22.2211L103.692 22.269L104.378 18.842H92.093Z" fill="#111111"></path>
<path d="M26.2391 12.725H38.9341L38.2591 16.1021H25.5621M26.8221 9.802H39.5161L40.1791 6.42505H27.4971M24.9781 19.018L24.2781 22.509L36.9621 22.559L37.6701 19.018H24.9781Z" fill="#111111"></path>
<path d="M119.625 6.76294L118.292 13.4809L119.992 18.4679L117.947 15.2169L117.401 14.3169L116.662 13.1019L112.824 6.76489H109.224L106.133 22.2199H110.417L112.117 13.7419L117.217 22.2199H120.817L123.909 6.76489L119.625 6.76294Z" fill="#111111"></path>
<path d="M58.7289 6.45508L57.9939 10.0551H62.9309L60.4309 22.5231H64.9779L67.3299 10.8051L63.8009 10.0561H72.3949L73.1299 6.45605L58.7289 6.45508Z" fill="#111111"></path>
<path d="M52.5508 6.45508L49.2878 10.1411L51.1299 13.623L57.6819 6.45508H52.5508Z" fill="#111111"></path>
<path d="M49.8259 22.5249L47.8899 18.6899L50.8379 15.3479L54.7229 22.5249H49.8259Z" fill="#111111"></path>
<path d="M86.0681 17.5459H87.6881C86.9909 18.0539 86.2135 18.4413 85.3881 18.6919C85.0698 18.7842 84.7433 18.8448 84.4131 18.8729C84.2131 18.8919 84.0131 18.9029 83.8131 18.9029C82.7581 18.9687 81.7172 18.6332 80.8991 17.9639C80.5523 17.6438 80.2797 17.2518 80.1004 16.8153C79.9211 16.3787 79.8395 15.9083 79.8611 15.4369C79.8441 14.4783 80.0639 13.5302 80.5011 12.6769C80.9149 11.8806 81.5464 11.2182 82.3221 10.7669C83.1581 10.2888 84.1082 10.0469 85.0711 10.0669C85.8035 10.0503 86.5318 10.1819 87.2121 10.4539C87.8639 10.7488 88.4327 11.2002 88.8681 11.7679L92.0031 9.29487C90.5751 7.39554 88.3304 6.44587 85.2691 6.44587C83.4891 6.41123 81.7286 6.82128 80.1471 7.63887C78.7047 8.39146 77.5035 9.53518 76.6811 10.9389C75.8442 12.3911 75.4167 14.043 75.4441 15.7189C75.4201 16.9708 75.7535 18.2037 76.4051 19.2729C77.059 20.3186 78.0021 21.1522 79.1201 21.6729C80.4044 22.2642 81.8066 22.5549 83.2201 22.5229C84.345 22.5283 85.4646 22.3686 86.5431 22.0489C87.5422 21.7591 88.4809 21.2916 89.3141 20.6689L90.6141 14.1559H86.7501L86.0681 17.5459Z" fill="#111111"></path>
<path d="M50.345 14.4681L43.1299 22.5581H37.667L47.825 11.8301L44.8539 13.2921L41.217 6.42407H46.08L50.345 14.4681Z" fill="#111111"></path>
<path d="M20.8199 6.45605L19.434 13.4411L21.16 18.5571L19.077 15.2461L18.509 14.3081L17.741 13.0441L13.749 6.45508H10.007L6.79297 22.5251H11.246L13.014 13.7101L18.314 22.5251H22.0569L25.2709 6.45508L20.8199 6.45605Z" fill="#111111"></path>
</g>
<defs>
<clipPath id="clip0_289_14566">
<rect width="130.52" height="33.911" fill="white"></rect>
</clipPath>
</defs>
</svg>
