<?xml version="1.0" encoding="UTF-8" standalone="no"?>
<!DOCTYPE svg PUBLIC "-//W3C//DTD SVG 1.1//EN" "http://www.w3.org/Graphics/SVG/1.1/DTD/svg11.dtd">
<svg width="100%" height="100%" viewBox="0 0 627 314" version="1.1" xmlns="http://www.w3.org/2000/svg" xmlns:xlink="http://www.w3.org/1999/xlink" xml:space="preserve" xmlns:serif="http://www.serif.com/" style="fill-rule:evenodd;clip-rule:evenodd;stroke-linejoin:round;stroke-miterlimit:2;">
    <g transform="matrix(1,0,0,1,-16.8647,-120)">
        <g transform="matrix(1.06462,-6.51892e-17,-6.71883e-17,-1.09727,292.681,416.305)">
            <g>
                <path d="M0,60.627L-26.373,60.627L-22.697,74.313L46.729,74.313L43.053,60.627L16.758,60.627L-3.202,-13.686L-19.96,-13.686L0,60.627Z" style="fill-rule:nonzero;"/>
            </g>
        </g>
        <g transform="matrix(1.06462,-6.51892e-17,-6.71883e-17,-1.09727,364.759,348.518)">
            <g>
                <path d="M0,-62.929C16.628,-62.929 31.72,-45.405 33.668,-23.148C34.899,-9.077 27.891,0 15.867,0C-0.636,0 -15.853,-17.524 -17.801,-39.781C-19.022,-53.722 -12.024,-62.929 0,-62.929M18.63,14.071C39.866,14.071 52.938,-0.255 51.059,-21.742C48.238,-53.977 25.629,-77 -2.768,-77C-23.999,-77 -36.937,-62.544 -35.067,-41.187C-32.246,-8.952 -9.767,14.071 18.63,14.071" style="fill-rule:nonzero;"/>
            </g>
        </g>
        <g transform="matrix(1.06462,-6.51892e-17,-6.71883e-17,-1.09727,502.271,369.712)">
            <g>
                <path d="M0,-25.835C-5.296,-45.41 -22.272,-57.685 -43.378,-57.685C-61.923,-57.685 -73.855,-46.046 -72.411,-29.543C-72.176,-26.856 -71.681,-24.174 -70.909,-21.231L-56.652,31.85L-39.894,31.85L-54.151,-21.231C-54.727,-23.403 -55.147,-25.324 -55.315,-27.241C-56.155,-36.838 -50.588,-43.614 -40.611,-43.614C-29.227,-43.614 -19.461,-35.813 -16.243,-23.918L-1.264,31.85L15.494,31.85L0,-25.835Z" style="fill-rule:nonzero;"/>
            </g>
        </g>
        <g transform="matrix(1.06462,-6.51892e-17,-6.71883e-17,-1.09727,541.583,385.146)">
            <g>
                <path d="M0,3.833L14.946,3.833C26.33,3.833 34.514,11.124 35.354,20.721C36.003,28.141 31.149,32.615 22.577,32.615L7.731,32.615L0,3.833ZM11.225,-9.468L-3.572,-9.468L-12.333,-42.083L-28.683,-42.083L-5.047,45.916L28.095,45.916C44.208,45.916 53.648,36.838 52.383,22.387C51.185,8.696 41.084,-2.943 27.284,-7.166L38.431,-42.083L21.162,-42.083L11.225,-9.468Z" style="fill-rule:nonzero;"/>
            </g>
        </g>
        <g transform="matrix(1.06462,-6.51892e-17,-6.71883e-17,-1.09727,628.614,289.526)">
            <g>
                <path d="M0,135.403C-12.897,148.298 -32.487,154.498 -64.478,154.498L-122.756,154.498L-133.589,114.165C-108.422,114.572 -82.553,114.388 -56.075,113.475C-45.429,112.929 -37.34,109.035 -35.184,101.374C-32.992,93.58 -36.899,84.905 -44.888,79.241C-50.231,75.452 -56.352,73.289 -66.936,73.289C-72.421,73.289 -129.745,73.767 -144.532,73.423L-169.381,-19.095L-111.357,-19.095L-98.701,28.023L-74.15,28.023C-19.096,28.023 13.64,57.038 13.64,100.436C13.64,114.076 9.176,126.227 0,135.403" style="fill-rule:nonzero;"/>
            </g>
        </g>
        <g transform="matrix(-0.680222,0.844086,-0.818971,-0.701082,158.741,199.181)">
            <g>
                <path d="M-83.712,-74.851C-55.25,-48.549 -24.349,-21.633 7.631,3.774L-83.712,12.153L-121.136,-32.903L-83.712,-74.851Z" style="fill-rule:nonzero;"/>
            </g>
        </g>
        <g transform="matrix(1.06462,-6.51892e-17,-6.71883e-17,-1.09727,295.874,223.625)">
            <g>
                <path d="M0,-79.155L-61.75,-79.155L-65.521,-48.767L-120.82,-48.767L-140.611,-79.155L-203.848,-79.155L-183.107,-48.767L-262.074,-48.767C-185.118,-25.675 -93.199,-9.883 -11.901,0L0,-79.155Z" style="fill-rule:nonzero;"/>
            </g>
        </g>
        <g transform="matrix(0.984328,-0.418043,0.405604,1.01451,328.212,227.868)">
            <g>
                <path d="M16.704,-3.902C37.205,2.345 56.272,8.491 73.366,14.28L16.704,88.312L-36.951,66.202L16.704,-3.902Z" style="fill-rule:nonzero;"/>
            </g>
        </g>
        <g transform="matrix(-0.276165,1.05971,-1.02818,-0.284634,394.583,248.795)">
            <g>
                <path d="M-135.139,-50.636L-93.227,-50.636C-82.83,-15.003 -64.034,41.11 -38.83,103.631L-93.703,103.631L-135.139,-50.636Z" style="fill-rule:nonzero;"/>
            </g>
        </g>
        <g transform="matrix(1.06462,-6.51892e-17,-6.71883e-17,-1.09727,562.17,302.489)">
            <g>
                <path d="M0,0.069L1.157,0.069C2.11,0.069 2.722,0.716 2.722,1.532C2.722,2.383 2.11,2.996 1.157,2.996L0,2.996L0,0.069ZM-1.293,4.016L1.361,4.016C2.961,4.016 4.05,2.996 4.05,1.532C4.05,0.443 3.403,-0.407 2.348,-0.782L4.288,-3.947L2.893,-3.947L1.089,-0.952L0,-0.952L0,-3.947L-1.293,-3.947L-1.293,4.016ZM1.123,-6.125C4.73,-6.125 7.282,-3.572 7.282,0.035C7.282,3.642 4.73,6.194 1.123,6.194C-2.484,6.194 -5.037,3.642 -5.037,0.035C-5.037,-3.572 -2.484,-6.125 1.123,-6.125M1.123,7.351C5.411,7.351 8.44,4.323 8.44,0.035C8.44,-4.253 5.411,-7.282 1.123,-7.282C-3.165,-7.282 -6.194,-4.253 -6.194,0.035C-6.194,4.323 -3.165,7.351 1.123,7.351" style="fill-rule:nonzero;"/>
            </g>
        </g>
    </g>
</svg>
