<svg xmlns="http://www.w3.org/2000/svg" xmlns:xlink="http://www.w3.org/1999/xlink" viewBox="0 0 112.116 52.522">

  <defs>

    <clipPath id="clip-path">

      <path id="Path_97" data-name="Path 97" d="M185.272,92.153l-2.724,9.041h4.277c2.685,0,3.722.854,3.709,2.23-.017,1.827-1.5,2.9-4.091,2.9a6.485,6.485,0,0,1-4.593-1.661l-1.567,2.349A8.518,8.518,0,0,0,186.228,109c4.372,0,7.388-2.35,7.422-5.909.027-2.753-1.953-4.509-6.206-4.509h-1.259l1.2-3.844h7.1l.547-2.587Zm-16.644,2.516L170.7,96.33a5.422,5.422,0,0,1,3.961-1.78c1.925,0,2.844.83,2.832,2.112-.011,1.21-.639,2.207-2.722,3.844l-7.9,6.194-.423,2.064h12.237l.572-2.61h-7.651l5.218-4.058c2.921-2.254,3.792-3.915,3.811-5.862.024-2.515-2.05-4.319-5.519-4.319a8.466,8.466,0,0,0-6.49,2.753m29.858,8.068c.033-3.488,1.907-8.139,5.257-8.139,1.83,0,2.935,1.186,2.912,3.584-.033,3.488-1.884,8.139-5.21,8.139-1.876,0-2.982-1.187-2.959-3.583m-3.09.071c-.037,3.892,2.151,6.194,5.762,6.194,5.133,0,8.555-5.007,8.611-10.892.037-3.892-2.151-6.194-5.739-6.194-5.156,0-8.578,5.007-8.634,10.892" transform="translate(-166.451 -91.916)" fill="currentColor"></path>

    </clipPath>

    <clipPath id="clip-path-2">

      <path id="Path_98" data-name="Path 98" d="M93.1,19.051A11.348,11.348,0,0,1,90.207,20.2a.229.229,0,0,0-.17.209.193.193,0,0,0,.129.2,11.438,11.438,0,0,1,2.532.971.317.317,0,0,0,.444-.311,6.153,6.153,0,0,1,.335-1.864.289.289,0,0,0-.246-.391.277.277,0,0,0-.132.035M30.745,7.8,21.26,22.471l12.584.008-2.07-.758,1.793-2.995.853,4.229,1.013,4.718L3.153,33.521l10.954.009L9.569,40.547H20.5l4.2-7.017H36.627l1.456,7.017h9.883L41.128,7.8Zm12.012,0,1.73,8.3H56.413L55.1,22.478l8.987,0L45.739,25.806l8.679-.018L51.378,40.547h9.374c.132-.145.284-.308.466-.494.413-.423.09-1.5.17-1.909.1-.541,1.038-.826,1.184-1.355.2-.72-1.224-.6-.546-1.358.424-.476,1.045-.31,1-.778-.069-.759.673-1.275.985-1.512a24.944,24.944,0,0,1,6.25-3.194c1.935-.564-.732-.511-2.938.3-2,.735,2.593-2.146,6.232-3.059,2.592-.65-1.9-.776-6.047,1.045A19.057,19.057,0,0,0,64.935,29.5a.025.025,0,0,1-.037-.032,3.185,3.185,0,0,0,.509-1.88,2.306,2.306,0,0,1,.169-1.4c.159-.3.062-1.1.236-1.512a.067.067,0,0,1,.083-.036l2.226.7,8.7-2.963-8.284,1.228-2.873-2.456a3.2,3.2,0,0,1-.4-2.76,10.911,10.911,0,0,1,1.492-1.822,16,16,0,0,1,2.176-.787,2.05,2.05,0,0,1,1.135-.177,2.425,2.425,0,0,0,.52-.005,13.25,13.25,0,0,0,1.512-.469.029.029,0,0,0,.02-.029,4.372,4.372,0,0,0-.049-.573,5.692,5.692,0,0,1-.162-1.59c.049-.516.5-.967.522-1.311s-.228-.7-.037-1.031a5.821,5.821,0,0,0,.425-1.211c-.05-.389-.3-.528-.119-.927.094-.211.256-.508.326-.656Zm36.276,0a1.209,1.209,0,0,1,.22.345,3.556,3.556,0,0,1,.18.819c.081.479.177.549.119.915-.112.708-.241.64-.457,1.057a5.731,5.731,0,0,0-.4,1.048.029.029,0,0,0,.031.035c.078,0,.237.015.244.255a3.086,3.086,0,0,1-.461,1.114,2.153,2.153,0,0,1-.534.657c-.34.2-.446.084-.5.185s-.391.741-.442.916a3.417,3.417,0,0,0-.11.686.071.071,0,0,0,.046.072c.685.268,2.47.9,2.9,1.631L73.84,19.5c.844-.1,1.772-.215,2.593-.309,1.124-.128,2.943-.332,3.528-.326a11.086,11.086,0,0,1,1.506.183c.707.095,1.337.12,2.1.273a2.162,2.162,0,0,1,1.121.522c.032.022.185.148.185.148.932-.066,2.372-.157,2.677-.182.156-.013.475-.029.536-.037,2.905-.369,4.5-1.76,5.883-2.6a12.665,12.665,0,0,1,5.491-1.742c2.134-.056,3.669.305,4.692,1.235a3.81,3.81,0,0,1,1.009,4.016,4.581,4.581,0,0,1-2.287,3.434,6.948,6.948,0,0,1-4.5.926c-2.867-.263-5.429-2.053-6.442-2.636a8.5,8.5,0,0,0-3.414-1.152,5.981,5.981,0,0,0-.79,0c-.091.008-1.186.083-1.877.134a1.872,1.872,0,0,1,.091.514c-.021.351-.215.519-.43.492a1.6,1.6,0,0,1-.831-.7c-.014-.03-.058-.043-.058,0s.006.111,0,.163c-.01.1-.068.39-.276.449a.757.757,0,0,1-.633-.15.1.1,0,0,0-.165.045c-.075.213-.118.34-.521.261-.276-.029-.218.078-.395.112-.429.082-.637-.146-.977-.3s-.227-.481-.565-.539c-.066-.011-.179-.033-.243-.04a15.463,15.463,0,0,1,.539,2.457.059.059,0,0,1-.051.066L81,24.255a.055.055,0,0,0-.049.065,18.033,18.033,0,0,1,.35,1.889,7.82,7.82,0,0,1,0,1.964.055.055,0,0,0,.065.063,1.155,1.155,0,0,0,.4-.156,2.317,2.317,0,0,1,.124-.637A1.6,1.6,0,0,1,82,27.305a.269.269,0,0,0,.062-.108l.09-.316a.639.639,0,0,1,.057-.137l.474-.852s.11-.233.3-.181a.6.6,0,0,1,.306.5,1.947,1.947,0,0,1-.225.724l.2.321a.845.845,0,0,0,.716-.139,3.059,3.059,0,0,0,.3-.225c-.088-.237.123-.54.7-.431.2.084.761.531.058.993a.031.031,0,0,0,.019.057c.767-.046.67.88.15,1.159a.088.088,0,0,0-.027.128.791.791,0,0,1,.174.5s0,.244-.742.5c0,0-.228.092-.137.26.091.033.19.068.307.1,0,0,.675.154.543.527,0,0-.108.316-.749.107a3.364,3.364,0,0,1-.631-.021,8.995,8.995,0,0,1-1.22.3.606.606,0,0,0-.345.207l0,.005a4.424,4.424,0,0,1-2.245,1.136c-.629.008-.708-.478-1.166-.958a5.21,5.21,0,0,1-1.174-3.241.065.065,0,0,0-.129,0c-.159,1.351-.238,2.567-.986,3.234a5.3,5.3,0,0,1-2.331,1c-4.4,1.043-9.131,3.743-8.6,4.357.212.242.709-.242,1.578-.641a21.752,21.752,0,0,1,8.891-1.7.2.2,0,0,1,.186.187,6.144,6.144,0,0,0,.211.968,3.407,3.407,0,0,0,.7,1.6c.817.765.7,1.048.513,2.073-.126.671.792,1.229.816,1.254H88.1l1.456-7.017h9.6c9.813,0,14.174-4.479,15.839-13.06.774-3.989.75-12.666-12.072-12.666Z" transform="translate(-3.153 -7.803)" fill="currentColor"></path>

    </clipPath>

  </defs>

  <g id="Group_1964" data-name="Group 1964" transform="translate(-3.153 -7.803)">

    <g id="Group_1961" data-name="Group 1961" transform="translate(71.95 43.24)">

      <g id="Group_1960" data-name="Group 1960" clip-path="url(#clip-path)">

        <rect id="Rectangle_63" data-name="Rectangle 63" width="48.265" height="22.173" transform="translate(-3.103 -2.639)" fill="currentColor"></rect>

      </g>

    </g>

    <g id="Group_1963" data-name="Group 1963" transform="translate(3.153 7.803)">

      <g id="Group_1962" data-name="Group 1962" clip-path="url(#clip-path-2)">

        <rect id="Rectangle_64" data-name="Rectangle 64" width="116.072" height="36.031" transform="translate(-1.328 -3.287)" fill="currentColor"></rect>

      </g>

    </g>

  </g>

</svg>

