<?xml version="1.0" encoding="UTF-8" standalone="no"?>
<!DOCTYPE svg PUBLIC "-//W3C//DTD SVG 1.1//EN" "http://www.w3.org/Graphics/SVG/1.1/DTD/svg11.dtd">
<svg width="100%" height="100%" viewBox="0 0 1000 296" version="1.1" xmlns="http://www.w3.org/2000/svg" xmlns:xlink="http://www.w3.org/1999/xlink" xml:space="preserve" xmlns:serif="http://www.serif.com/" style="fill-rule:evenodd;clip-rule:evenodd;stroke-linejoin:round;stroke-miterlimit:2;">
    <g id="b">
        <path id="c" d="M999.9,92C999.9,18.2 921.6,0 867.2,0L768.1,0L749.7,68.6C792.5,67.9 836.5,68.2 881.5,69.8C899.6,70.7 913.3,77.3 917,90.4C920.7,103.6 914.1,118.4 900.5,128C891.4,134.4 881,138.1 863,138.1C845,138.1 756.2,137.3 731.1,137.9L688.9,295.2L787.5,295.2L809,215.1L850.7,215.1C944.3,215.1 999.9,165.8 999.9,92Z" style="fill:rgb(4,1,79);fill-rule:nonzero;"/>
        <path id="d" d="M415.3,94.5C350,103.2 281.2,114.3 213.3,128.6L301.6,0L401.2,0L415.4,94.5L415.3,94.5Z" style="fill:rgb(4,1,79);fill-rule:nonzero;"/>
        <path id="e" d="M445.5,295.1L340.5,295.1L334.1,243.4L240.1,243.4L206.5,295.1L99,295.1L134.3,243.4L0,243.4C130.8,204.1 287.1,177.3 425.3,160.5L445.5,295.1Z" style="fill:rgb(4,1,79);fill-rule:nonzero;"/>
        <path id="f" d="M520.9,150.2C557.2,146.7 591.1,144.1 621.7,142.1L580.6,295.2L482,295.2L520.9,150.3L520.9,150.2Z" style="fill:rgb(4,1,79);fill-rule:nonzero;"/>
        <path id="g" d="M745.8,0L727.3,68.8C664.2,70.2 563.8,76.3 450,90.1L474.3,0L745.8,0Z" style="fill:rgb(4,1,79);fill-rule:nonzero;"/>
    </g>
</svg>
