<?xml version="1.0" encoding="UTF-8" standalone="no"?>
<!DOCTYPE svg PUBLIC "-//W3C//DTD SVG 1.1//EN" "http://www.w3.org/Graphics/SVG/1.1/DTD/svg11.dtd">
<svg width="100%" height="100%" viewBox="0 0 100 49" version="1.1" xmlns="http://www.w3.org/2000/svg" xmlns:xlink="http://www.w3.org/1999/xlink" xml:space="preserve" xmlns:serif="http://www.serif.com/" style="fill-rule:evenodd;clip-rule:evenodd;stroke-linejoin:round;stroke-miterlimit:2;">
    <g transform="matrix(6.66203e-17,1.08799,-1.08799,6.66203e-17,71.2063,3.24675)">
        <g>
            <path d="M0,-24.334C-2.015,-22.319 -2.984,-19.258 -2.984,-14.259L-2.984,-5.154L3.319,-3.461C3.255,-7.394 3.284,-11.435 3.426,-15.573C3.512,-17.236 4.12,-18.5 5.317,-18.837C6.534,-19.179 7.89,-18.568 8.775,-17.321C9.367,-16.486 9.705,-15.529 9.705,-13.875C9.705,-13.019 9.63,-4.062 9.684,-1.752L24.14,2.131L24.14,-6.935L16.777,-8.912L16.777,-12.748C16.777,-21.35 12.244,-26.465 5.463,-26.465C3.332,-26.465 1.434,-25.768 0,-24.334" style="fill-rule:nonzero;"/>
        </g>
    </g>
    <g transform="matrix(0.695184,-0.836926,-0.836926,-0.695184,25.5942,-2.35127)">
        <g>
            <path d="M1.017,-18.202C-3.431,-14.092 -8.258,-9.886 -13.255,-5.917L1.017,-4.608L6.865,-11.647L1.017,-18.202Z" style="fill-rule:nonzero;"/>
        </g>
    </g>
    <g transform="matrix(6.66203e-17,1.08799,-1.08799,6.66203e-17,3.163e-16,29.5105)">
        <g>
            <path d="M0,-40.948L0,-31.3L-4.748,-30.71L-4.748,-22.07L0,-18.978L0,-9.097L-4.748,-12.338L-4.748,0C-8.356,-12.024 -10.823,-26.386 -12.368,-39.088L0,-40.948Z" style="fill-rule:nonzero;"/>
        </g>
    </g>
    <g transform="matrix(-1.00594,0.414503,0.414503,1.00594,60.3283,16.3897)">
        <g>
            <path d="M6.523,-4.052C3.319,-3.076 0.34,-2.117 -2.331,-1.211L6.523,10.355L14.906,6.901L6.523,-4.052Z" style="fill-rule:nonzero;"/>
        </g>
    </g>
    <g transform="matrix(-0.282289,1.05073,1.05073,0.282289,75.247,3.99145)">
        <g>
            <path d="M-3.385,-1.54L3.164,-1.54C4.789,-7.107 7.726,-15.874 11.665,-25.642L3.091,-25.643L-3.385,-1.54Z" style="fill-rule:nonzero;"/>
        </g>
    </g>
    <g transform="matrix(6.66203e-17,1.08799,-1.08799,6.66203e-17,87.8248,46.1007)">
        <g>
            <path d="M0,2.58C0,0.621 -3.038,-1.263 -6.774,-1.59C-8.673,-1.756 -9.832,-1.118 -9.832,0.001C-9.832,1.96 -6.795,3.824 -3.057,4.151C-1.158,4.317 0,3.699 0,2.58M-12.03,-0.432C-12.03,-3.049 -10.152,-4.444 -7.014,-4.169C-1.778,-3.711 2.199,-0.625 2.199,3.012C2.199,5.63 0.319,7.024 -2.837,6.749C-8.053,6.292 -12.03,3.206 -12.03,-0.432" style="fill-rule:nonzero;"/>
        </g>
    </g>
    <g transform="matrix(6.66203e-17,1.08799,-1.08799,6.66203e-17,75.1886,46.1007)">
        <g>
            <path d="M0,2.579C0,0.621 -3.038,-1.264 -6.774,-1.591C-8.673,-1.757 -9.832,-1.119 -9.832,-0C-9.832,1.959 -6.795,3.823 -3.057,4.15C-1.158,4.316 0,3.698 0,2.579M-12.03,-0.433C-12.03,-3.05 -10.152,-4.445 -7.014,-4.17C-1.778,-3.712 2.199,-0.626 2.199,3.011C2.199,5.629 0.319,7.024 -2.837,6.748C-8.053,6.291 -12.03,3.205 -12.03,-0.433" style="fill-rule:nonzero;"/>
        </g>
    </g>
    <g transform="matrix(6.66203e-17,1.08799,-1.08799,6.66203e-17,56.5225,35.664)">
        <g>
            <path d="M0,-9.973L0,-4.996L3.018,-4.173C2.978,-4.536 2.958,-4.857 2.958,-5.178C2.958,-7.516 4.537,-9.036 6.755,-8.842C9.674,-8.587 11.791,-6.023 11.791,-2.725C11.791,-1.566 11.483,-0.452 10.842,0.611L8.514,-0.014C9.214,-0.932 9.592,-1.939 9.592,-2.918C9.592,-4.657 8.514,-6.05 7.015,-6.182C5.756,-6.292 4.876,-5.329 4.876,-3.81C4.876,-3.031 4.983,-2.264 5.183,-1.347L-2.198,-3.33L-2.198,-10.584L0,-9.973Z" style="fill-rule:nonzero;"/>
        </g>
    </g>
    <g transform="matrix(6.66203e-17,1.08799,-1.08799,6.66203e-17,87.4539,28.261)">
        <g>
            <path d="M0,0.351L0,0.17C0,0.022 -0.101,-0.074 -0.228,-0.074C-0.362,-0.074 -0.457,0.022 -0.457,0.17L-0.457,0.351L0,0.351ZM-0.617,0.553L-0.617,0.138C-0.617,-0.112 -0.457,-0.282 -0.228,-0.282C-0.058,-0.282 0.074,-0.181 0.133,-0.016L0.627,-0.319L0.627,-0.101L0.159,0.181L0.159,0.351L0.627,0.351L0.627,0.553L-0.617,0.553ZM0.967,0.176C0.967,-0.388 0.569,-0.787 0.005,-0.787C-0.559,-0.787 -0.957,-0.388 -0.957,0.176C-0.957,0.739 -0.559,1.138 0.005,1.138C0.569,1.138 0.967,0.739 0.967,0.176M-1.138,0.176C-1.138,-0.495 -0.665,-0.967 0.005,-0.967C0.676,-0.967 1.148,-0.495 1.148,0.176C1.148,0.846 0.676,1.318 0.005,1.318C-0.665,1.318 -1.138,0.846 -1.138,0.176" style="fill-rule:nonzero;"/>
        </g>
    </g>
</svg>
