<?xml version="1.0" encoding="UTF-8"?>
<!-- Generated by Pixelmator Pro 3.5.7 -->
<svg width="605" height="181" viewBox="0 0 605 181" xmlns="http://www.w3.org/2000/svg">
    <path id="Path" fill="#000000" stroke="none" d="M 205.699997 2.899994 L 242.299988 178.200012 L 189.399994 178.200012 L 181.600006 140.600006 L 117.800003 140.600006 L 95.300003 178.200012 L 36.800003 178.200012 L 61.099998 140.600006 L 2.5 140.5 L 175.300003 109.200012 L 169.800003 84 L 169.800003 84 L 165.199997 61.399994 L 155.600006 77.399994 L 166.699997 81.5 L 99.300003 81.5 L 150.100006 3 L 205.699997 2.899994 Z M 536.400024 2.899994 L 408.600006 2.899994 C 409.100006 3.399994 409.5 4.100006 409.799988 4.700012 C 410.299988 6.100006 410.600006 7.600006 410.799988 9.100006 C 411.200012 11.700012 411.700012 12 411.399994 14 C 410.799988 17.799988 410.100006 17.399994 409 19.700012 C 408.100006 21.5 407.399994 23.399994 406.899994 25.299988 C 406.899994 25.399994 406.899994 25.5 407 25.5 C 407 25.5 407 25.5 407.100006 25.5 C 407.5 25.5 408.399994 25.600006 408.399994 26.899994 C 408.5 28.600006 406.5 31.899994 405.899994 32.899994 C 405.299988 33.899994 404.100006 35.799988 403 36.399994 C 401.200012 37.5 400.600006 36.799988 400.399994 37.399994 C 400.200012 38 398.299988 41.399994 398 42.299988 C 397.700012 43.5 397.5 44.700012 397.399994 46 C 397.399994 46.200012 397.5 46.299988 397.600006 46.399994 C 401.299988 47.799988 410.799988 51.200012 413.100006 55.100006 L 380.799988 65.600006 C 385.299988 65.100006 390.299988 64.5 394.700012 63.899994 C 400.700012 63.200012 410.399994 62.100006 413.600006 62.200012 C 416.299988 62.299988 419 62.700012 421.700012 63.200012 C 425.5 63.700012 428.799988 63.799988 432.899994 64.700012 C 435.100006 65 437.200012 66 438.899994 67.5 C 439.100006 67.600006 439.899994 68.299988 439.899994 68.299988 C 444.899994 67.899994 452.600006 67.5 454.200012 67.299988 C 455 67.200012 456.700012 67.100006 457.100006 67.100006 C 472.600006 65.100006 481.200012 57.700012 488.600006 53.200012 C 496.799988 48.200012 509.200012 44.100006 518 43.899994 C 529.400024 43.600006 537.599976 45.600006 543.099976 50.5 C 548.599976 55.399994 550.700012 62.100006 548.5 72 C 546.400024 81.600006 543.299988 86 536.299988 90.399994 C 529.299988 94.799988 521.400024 96.200012 512.200012 95.399994 C 496.899994 94 483.100006 84.399994 477.700012 81.299988 C 473 78.600006 466.600006 75.799988 459.399994 75.100006 C 458 75 456.600006 75 455.200012 75.100006 C 454.700012 75.100006 448.899994 75.5 445.200012 75.799988 C 445.5 76.700012 445.600006 77.600006 445.700012 78.5 C 445.600006 80.399994 444.5 81.299988 443.399994 81.100006 C 442.200012 81 439.700012 79 438.899994 77.399994 C 438.799988 77.200012 438.600006 77.200012 438.600006 77.399994 C 438.600006 77.600006 438.600006 78 438.600006 78.200012 C 438.5 78.700012 438.200012 80.299988 437.100006 80.600006 C 435.899994 80.799988 434.700012 80.5 433.700012 79.799988 C 433.399994 79.600006 433.100006 79.700012 432.899994 79.899994 C 432.899994 79.899994 432.899994 80 432.799988 80 C 432.399994 81.100006 432.200012 81.799988 430 81.399994 C 428.5 81.200012 428.799988 81.799988 427.899994 82 C 425.600006 82.399994 424.5 81.200012 422.700012 80.399994 C 420.899994 79.600006 421.5 77.799988 419.700012 77.5 C 419.299988 77.399994 418.700012 77.299988 418.399994 77.299988 C 419.700012 81.600006 420.700012 86 421.299988 90.5 C 421.299988 90.700012 421.200012 90.799988 421 90.799988 C 421 90.799988 421 90.799988 421 90.799988 L 419.100006 91 C 418.899994 91 418.799988 91.100006 418.799988 91.299988 C 418.799988 91.299988 418.799988 91.299988 418.799988 91.299988 C 419.299988 93.700012 420.399994 98.200012 420.700012 101.399994 C 421.200012 107.200012 421.100006 109 420.700012 111.899994 C 420.700012 112.100006 420.799988 112.200012 421 112.200012 C 421 112.200012 421.100006 112.200012 421.100006 112.200012 C 421.899994 112.100006 422.600006 111.799988 423.200012 111.399994 C 423.299988 110.200012 423.5 109.100006 423.899994 108 C 424.100006 107.700012 424.299988 107.5 424.5 107.299988 C 424.700012 107.100006 424.799988 106.899994 424.799988 106.700012 L 425.299988 105 C 425.399994 104.700012 425.5 104.5 425.600006 104.299988 L 428.100006 99.700012 C 428.100006 99.700012 428.700012 98.5 429.700012 98.700012 C 430.700012 99.200012 431.299988 100.200012 431.399994 101.399994 C 431.299988 102.799988 430.799988 104.100006 430.200012 105.299988 L 431.299988 107 C 432.600006 107.299988 434 107.100006 435.100006 106.299988 C 435.700012 105.899994 436.200012 105.5 436.700012 105.100006 C 436.200012 103.799988 437.399994 102.200012 440.399994 102.799988 C 441.5 103.200012 444.5 105.600006 440.700012 108.100006 C 440.600006 108.100006 440.600006 108.200012 440.600006 108.299988 C 440.600006 108.399994 440.700012 108.399994 440.799988 108.399994 C 444.899994 108.100006 444.399994 113.100006 441.600006 114.600006 C 441.399994 114.700012 441.299988 115 441.399994 115.200012 C 441.399994 115.200012 441.399994 115.200012 441.399994 115.299988 C 442 116.100006 442.299988 117 442.299988 118 C 442.299988 118 442.299988 119.299988 438.299988 120.700012 C 438.299988 120.700012 437.100006 121.200012 437.600006 122.100006 C 438.100006 122.299988 438.600006 122.5 439.299988 122.700012 C 439.299988 122.700012 442.899994 123.5 442.200012 125.5 C 442.200012 125.5 441.600006 127.200012 438.200012 126.100006 C 437.100006 126.200012 436 126.100006 434.899994 126 C 432.799988 126.700012 430.600006 127.200012 428.399994 127.600006 C 427.700012 127.700012 427 128.100006 426.600006 128.700012 L 426.600006 128.700012 C 424.399994 131.200012 417.600006 134.700012 414.600006 134.799988 C 411.299988 134.799988 410.799988 132.200012 408.399994 129.700012 C 403.600006 124.700012 402.799988 118.5 402.100006 112.299988 C 402.100006 112.100006 401.899994 112 401.700012 112 C 401.5 112 401.399994 112.100006 401.399994 112.299988 C 400.600006 119.5 400.100006 126 396.100006 129.600006 C 393.700012 131.799988 389.799988 133.5 383.600006 135 C 360.100006 140.600006 334.700012 155 337.600006 158.299988 C 338.700012 159.600006 341.399994 157 346 154.899994 C 363.5 146.799988 386.299988 145.200012 393.600006 145.799988 C 394.100006 145.799988 394.600006 146.299988 394.600006 146.799988 C 394.799988 148.600006 395.200012 150.299988 395.700012 152 C 396.299988 154.299988 397.100006 158.299988 399.5 160.600006 C 403.899994 164.700012 403.299988 166.200012 402.200012 171.700012 C 401.5 175.299988 406.399994 178.299988 406.600006 178.399994 L 457.200012 178.399994 L 464.799988 141 L 516.200012 141 C 568.700012 141 592 117 601 71.100006 C 605.200012 49.299988 605 2.899994 536.400024 2.899994 Z M 310.700012 178.100006 C 311.399994 177.299988 312.200012 176.399994 313.200012 175.5 C 315.399994 173.200012 313.700012 167.5 314.100006 165.299988 C 314.700012 162.399994 319.700012 160.899994 320.399994 158.100006 C 321.5 154.200012 313.799988 154.899994 317.5 150.799988 C 319.799988 148.299988 323.100006 149.100006 322.899994 146.600006 C 322.5 142.5 326.5 139.799988 328.200012 138.5 C 335.5 133 351.799988 124.299988 361.700012 121.399994 C 372.100006 118.399994 357.799988 118.700012 346 123 C 335.299988 126.899994 359.899994 111.5 379.399994 106.600006 C 393.299988 103.100006 369.200012 102.399994 347 112.200012 C 340 115.299988 336 117.200012 333.200012 119 C 333.100006 119 333.100006 119 333 119 C 333 119 333 118.899994 333 118.899994 C 334.100006 116.700012 336.399994 112.799988 335.700012 108.799988 C 335.200012 106.299988 335.5 103.600006 336.600006 101.299988 C 337.399994 99.700012 336.899994 95.5 337.899994 93.200012 C 338 93 338.200012 93 338.399994 93 L 350.299988 96.700012 L 396.899994 80.799988 L 352.600006 87.399994 L 337 74.299988 C 334.799988 72 332.600006 62.899994 334.799988 59.5 C 337.100006 56 339.799988 52.700012 342.799988 49.700012 C 344.899994 47.899994 351.299988 47.100006 354.399994 45.5 C 357.899994 43.700012 360.700012 44.899994 363.299988 44.5 C 366 43.799988 368.700012 43 371.399994 42 C 371.5 42 371.5 41.899994 371.5 41.799988 C 371.5 40.799988 371.399994 39.700012 371.200012 38.700012 C 370.5 35.899994 370.200012 33.100006 370.399994 30.200012 C 370.700012 27.399994 373.100006 25 373.200012 23.200012 C 373.299988 21.399994 372 19.5 373 17.700012 C 373.899994 16 374.200012 14.700012 375.299988 11.200012 C 375 9.100006 373.700012 8.399994 374.700012 6.200012 C 375.200012 5.100006 376.100006 3.5 376.399994 2.700012 L 214.399994 2.700012 L 223.699997 47.100006 L 287.5 47.100006 L 280.5 81.200012 L 328.600006 81.200012 L 230.399994 99 L 276.799988 98.899994 L 260.600006 177.899994 L 310.700012 177.899994 Z M 481.700012 76.600006 C 482.5 77 483.5 76.600006 483.899994 75.799988 C 484 75.5 484.100006 75.200012 484.100006 74.899994 C 484.200012 70.5 484.899994 68.5 485.899994 64.899994 C 486.299988 63.5 485.100006 62.299988 483.899994 63 C 476.799988 66.899994 471.5 68.5 468.399994 69.200012 C 467.899994 69.299988 467.5 69.799988 467.5 70.299988 C 467.5 70.799988 467.700012 71.200012 468.200012 71.399994 C 472.799988 72.600006 477.399994 74.399994 481.700012 76.600006 Z"/>
</svg>
