<?xml version="1.0" encoding="UTF-8" standalone="no"?>
<!DOCTYPE svg PUBLIC "-//W3C//DTD SVG 1.1//EN" "http://www.w3.org/Graphics/SVG/1.1/DTD/svg11.dtd">
<svg width="100%" height="100%" viewBox="0 0 800 132" version="1.1" xmlns="http://www.w3.org/2000/svg" xmlns:xlink="http://www.w3.org/1999/xlink" xml:space="preserve" xmlns:serif="http://www.serif.com/" style="fill-rule:evenodd;clip-rule:evenodd;stroke-linejoin:round;stroke-miterlimit:2;">
    <ellipse cx="67.37" cy="65.59" rx="67.367" ry="65.598" style="fill:white;"/>
    <g>
        <path d="M9.39,98.73L9.022,98.159L9.39,98.73Z" style="fill:rgb(37,146,113);"/>
        <path d="M67.38,0C44.098,0 23.564,11.504 11.478,28.988C66.239,31.709 118.058,42.703 117.288,65.59C118.067,88.477 65.627,99.696 11.478,102.214C23.591,119.692 44.097,131.196 67.38,131.196C104.575,131.196 134.737,101.808 134.737,65.59C134.737,29.372 104.575,0 67.38,0ZM80.426,65.596C80.426,50.296 43.879,36.488 9.624,31.797C-3.184,52.477 -3.184,78.731 9.624,99.411C43.884,94.715 80.426,80.907 80.426,65.596Z" style="fill:rgb(37,146,113);"/>
        <path d="M624.52,91.25L624.52,83.334C617.822,90.685 606.378,94.948 595.719,94.926C577.149,94.882 564.208,83.932 564.208,65.126C564.208,46.309 577.16,35.754 595.752,35.754C607.602,35.754 615.842,39.879 622.957,48.196L621.756,33.181C613.011,31.211 605.682,29.664 595.572,29.664C581.298,29.664 567.725,33.543 558.882,41.931C551.898,48.449 547.795,57.198 547.795,65.394C547.795,73.579 551.898,82.324 558.882,88.846C567.423,96.916 580.332,101.299 592.697,101.266C605.095,101.271 616.835,97.519 624.521,91.249L624.52,91.25ZM251.36,46.199C242.862,37.367 227.496,31.211 203.912,31.211L177.212,31.211C181.727,33.005 183.038,35.32 183.038,42.358L183.038,99.763L206.287,99.763C227.397,99.763 241.677,94.716 250.778,85.867C256.346,80.447 259.578,73.299 259.578,65.454C259.578,58.531 256.78,51.832 251.36,46.198L251.36,46.199ZM227.962,90.482C221.785,93.373 205.925,94.02 196.851,93.406L196.851,37.575C207.916,36.5 220.133,38.414 226.135,41.503C232.361,44.668 242.774,52.25 242.774,67.254C242.774,77.869 237.376,86.054 227.962,90.482L227.962,90.482ZM413.392,31.212C417.923,33.006 419.24,35.321 419.24,42.359L419.24,99.764L433.043,99.764L433.043,31.212L413.392,31.212ZM773.642,36.402C768.03,32.951 759.466,31.212 747.156,31.212L718.645,31.212C723.165,33.006 724.471,35.321 724.471,42.359L724.471,99.764L738.296,99.764L738.296,70.178C746.569,71.056 761.726,70.436 767.525,68.455C778.914,64.577 782.354,57.258 782.354,51.257C782.354,45.404 779.644,40.093 773.642,36.401L773.642,36.402ZM748.697,64.369C746.201,64.369 739.695,64.253 738.296,64.089L738.296,37.35C741.95,36.96 750.524,37.103 754.183,37.816C762.176,39.363 767.113,43.955 767.113,51.3C767.118,56.073 764.738,64.368 748.697,64.368L748.697,64.369ZM468.037,51.384C463.226,46.627 464.263,35.733 479.854,35.733C493.322,35.733 500.47,43.27 500.47,43.27L499.537,32.018C499.537,32.018 490.409,29.605 479.705,29.605C462.21,29.605 454.217,39.309 454.217,48.197C454.217,68.062 480.835,68.928 490.035,78.282C494.912,83.197 494.644,95.102 477.928,95.102C461.794,95.102 451.914,84.366 451.914,84.366L452.891,96.43C452.891,96.43 465.322,101.329 477.912,101.329C494.787,101.329 505.029,92.908 505.029,80.735C505.024,62.615 477.78,61.007 468.037,51.385L468.037,51.384ZM704.007,70.777C704.007,81.31 701.972,86.944 697.769,91.64C691.867,98.217 682.545,101.273 673.68,101.295C668.329,101.308 663.021,100.331 658.023,98.415C646.892,94.086 641.241,85.589 641.241,71.49L641.241,42.36C641.241,35.321 639.947,33.006 635.415,31.213L655.055,31.213L655.055,71.145C655.055,80.597 656.537,84.454 659.675,87.965C663.405,92.167 669.308,93.868 675.337,93.868C681.519,93.868 687.702,92.206 691.894,87.773C694.949,84.481 696.661,80.142 696.661,70.437L696.661,31.212L704.001,31.212L704.007,70.777ZM353.107,39.118L373.142,79.401L394.85,31.207L402.942,31.207L369.917,103.155C369.917,103.155 341.5,48.23 338.439,42.354C334.807,35.315 332.289,33 326.836,31.207L349.581,31.207C350.321,33.461 351.512,36.193 353.108,39.117L353.107,39.118ZM322.386,99.76L338.52,99.76C327.312,77.098 304.375,31.235 304.364,31.208L287.352,31.208C288.795,31.619 289.865,33.15 290.194,34.28C290.978,37.05 290.166,41.033 288.005,45.844L263.971,99.76L271.986,99.76L280.632,80.219L312.648,80.219L322.386,99.76ZM295.697,45.147L309.297,73.882L283.162,73.882L295.697,45.147ZM793.397,32.112C796.612,32.112 798.971,34.619 798.971,37.828C798.971,41.005 796.612,43.512 793.397,43.512C790.215,43.512 787.845,41.004 787.845,37.828C787.845,34.619 790.215,32.112 793.397,32.112ZM793.397,31.157C789.699,31.157 786.841,34.081 786.841,37.834C786.841,41.564 789.699,44.483 793.397,44.483C797.078,44.523 800.065,41.514 799.997,37.834C799.997,34.081 797.133,31.157 793.397,31.157ZM791.971,38.267L793.556,38.267L795.679,41.674L796.782,41.674L794.511,38.267C795.531,38.097 796.442,37.461 796.442,36.1C796.442,34.723 795.668,33.971 793.957,33.971L791,33.971L791,41.668L791.976,41.668L791.976,38.267L791.971,38.267ZM791.971,37.461L791.971,34.767L793.677,34.767C794.609,34.767 795.465,35.03 795.465,36.1C795.465,37.417 794.352,37.461 793.205,37.461L791.971,37.461Z"/>
    </g>
</svg>
