<?xml version="1.0" encoding="UTF-8"?>
<svg width="800" height="131.2" version="1.1" viewBox="0 0 800 131.2" xmlns="http://www.w3.org/2000/svg">
 <ellipse cx="67.37" cy="65.59" rx="67.367" ry="65.598" fill="#fff" style="paint-order:stroke fill markers"/>
 <g clip-rule="evenodd" fill-rule="evenodd" stroke-width="5.486">
  <path d="m9.39 98.73-0.36757-0.57053z" fill="#259271"/>
  <path d="m67.38 0c-23.282 0-43.816 11.504-55.902 28.988 54.761 2.721 106.58 13.715 105.81 36.602 0.779 22.887-51.661 34.106-105.81 36.624 12.113 17.478 32.619 28.982 55.902 28.982 37.195 0 67.357-29.388 67.357-65.606s-30.162-65.59-67.357-65.59zm13.046 65.596c0-15.3-36.547-29.108-70.802-33.799a64.208 64.208 0 0 0 0 67.614c34.26-4.696 70.802-18.504 70.802-33.815z" fill="#259271"/>
  <path d="m624.52 91.25v-7.9162c-6.6984 7.3512-18.142 11.614-28.801 11.592-18.57-0.044-31.511-10.994-31.511-29.8 0-18.817 12.952-29.372 31.544-29.372 11.85 0 20.09 4.1254 27.205 12.442l-1.2014-15.015c-8.7446-1.9695-16.074-3.5165-26.184-3.5165-14.274 0-27.847 3.8786-36.69 12.267-6.9836 6.5173-11.087 15.267-11.087 23.463 0 8.185 4.1035 16.93 11.087 23.452 8.5416 8.0698 21.45 12.453 33.815 12.42 12.398 5e-3 24.138-3.7469 31.824-10.017zm-373.16-45.051c-8.4978-8.8324-23.864-14.988-47.448-14.988h-26.7c4.515 1.7939 5.8261 4.109 5.8261 11.147v57.405h23.249c21.11 0 35.39-5.0471 44.491-13.896 5.5682-5.4201 8.7995-12.568 8.7995-20.413 0-6.9233-2.7978-13.622-8.218-19.256zm-23.398 44.283c-6.1772 2.8911-22.037 3.5384-31.111 2.924v-55.831c11.065-1.0752 23.282 0.83935 29.284 3.9279 6.2265 3.1654 16.639 10.747 16.639 25.751 0 10.615-5.3982 18.8-14.812 23.228zm185.43-59.27c4.5314 1.7939 5.848 4.109 5.848 11.147v57.405h13.803v-68.552zm360.25 5.1897c-5.6121-3.4507-14.176-5.1897-26.486-5.1897h-28.511c4.5204 1.7939 5.8261 4.109 5.8261 11.147v57.405h13.825v-29.586c8.2728 0.87776 23.43 0.25785 29.229-1.7226 11.389-3.8786 14.829-11.197 14.829-17.198 0-5.8535-2.7101-11.164-8.7117-14.856zm-24.945 27.967c-2.4961 0-9.0024-0.11526-10.401-0.27978v-26.739c3.6536-0.38952 12.228-0.24689 15.887 0.46629 7.993 1.547 12.93 6.1388 12.93 13.484 5e-3 4.7728-2.3754 13.068-18.416 13.068zm-280.66-12.985c-4.8112-4.7563-3.7743-15.651 11.817-15.651 13.468 0 20.616 7.5377 20.616 7.5377l-0.93261-11.252s-9.1286-2.4138-19.832-2.4138c-17.495 0-25.488 9.7046-25.488 18.592 0 19.865 26.618 20.731 35.818 30.085 4.877 4.9154 4.6082 16.82-12.107 16.82-16.134 0-26.014-10.736-26.014-10.736l0.9765 12.064s12.431 4.899 25.021 4.899c16.875 0 27.117-8.4209 27.117-20.594-5e-3 -18.12-27.249-19.728-36.992-29.35zm235.97 19.393c0 10.533-2.0353 16.167-6.2375 20.863-5.9029 6.5777-15.224 9.6333-24.089 9.6553-5.3518 0.0128-10.66-0.96375-15.657-2.8801-11.131-4.3284-16.782-12.826-16.782-26.925v-29.13c0-7.0385-1.2947-9.3536-5.8261-11.147h19.64v39.932c0 9.4523 1.4812 13.309 4.6192 16.82 3.7305 4.2022 9.6333 5.9029 15.662 5.9029 6.1827 0 12.365-1.6622 16.557-6.0949 3.0557-3.2916 4.7673-7.631 4.7673-17.336v-39.225h7.3402zm-350.9-31.659 20.035 40.283 21.708-48.194h8.0918l-33.025 71.948s-28.417-54.925-31.478-60.801c-3.6317-7.0385-6.1498-9.3536-11.603-11.147h22.745c0.74061 2.2547 1.9311 4.9867 3.5275 7.9108zm-30.721 60.642h16.134c-11.208-22.662-34.145-68.525-34.156-68.552h-17.012c1.4428 0.41145 2.5126 1.942 2.8417 3.0721 0.78449 2.7704-0.0275 6.7532-2.1889 11.564l-24.034 53.916h8.015l8.6459-19.541h32.016zm-26.689-54.613 13.6 28.735h-26.135zm497.7-13.035c3.2148 0 5.5737 2.5071 5.5737 5.7164 0 3.1764-2.359 5.6834-5.5737 5.6834-3.1819 0-5.5518-2.5071-5.5518-5.6834 0-3.2093 2.3699-5.7164 5.5518-5.7164zm0-0.95455c-3.6975 0-6.5557 2.924-6.5557 6.6764 0 3.7305 2.8582 6.649 6.5557 6.649 3.681 0.0409 6.6679-2.9683 6.5996-6.649 0-3.7524-2.8637-6.6764-6.5996-6.6764zm-1.4264 7.1098h1.5854l2.1231 3.4068h1.1027l-2.2712-3.4068c1.0204-0.17006 1.9311-0.80643 1.9311-2.167 0-1.377-0.77353-2.1285-2.4851-2.1285h-2.9569v7.6968h0.97651v-3.4013zm0-0.80643v-2.6936h1.7062c0.93261 0 1.7884 0.26334 1.7884 1.3331 0 1.3166-1.1136 1.3605-2.2602 1.3605z"/>
 </g>
</svg>
