<?xml version="1.0" encoding="UTF-8" standalone="no"?>
<!DOCTYPE svg PUBLIC "-//W3C//DTD SVG 1.1//EN" "http://www.w3.org/Graphics/SVG/1.1/DTD/svg11.dtd">
<svg width="100%" height="100%" viewBox="0 0 399 118" version="1.1" xmlns="http://www.w3.org/2000/svg" xmlns:xlink="http://www.w3.org/1999/xlink" xml:space="preserve" xmlns:serif="http://www.serif.com/" style="fill-rule:evenodd;clip-rule:evenodd;stroke-linejoin:round;stroke-miterlimit:2;">
    <g transform="matrix(1,0,0,1,-1302.56,-2252.65)">
        <g transform="matrix(1,0,0,1,155.593,-89.6012)">
            <g transform="matrix(1,0,0,1,0,-2.80381)">
                <g transform="matrix(4.16667,0,0,4.16667,1308.9,2403.02)">
                    <path d="M0,0.613C0,1.233 -0.129,1.694 -0.386,1.997C-0.643,2.3 -1.032,2.451 -1.553,2.451C-2.074,2.451 -2.463,2.3 -2.72,1.997C-2.978,1.694 -3.106,1.233 -3.106,0.613L-3.106,-3.307L-4.649,-3.307L-4.649,0.645C-4.649,1.673 -4.399,2.476 -3.898,3.053C-3.398,3.631 -2.617,3.92 -1.553,3.92C-0.497,3.92 0.283,3.631 0.787,3.053C1.291,2.476 1.543,1.673 1.543,0.645L1.543,-3.307L0,-3.307L0,0.613Z" style="fill-rule:nonzero;"/>
                </g>
                <g transform="matrix(4.16667,0,0,4.16667,1342.03,2397.04)">
                    <path d="M0,3.359L-2.81,-1.458C-2.923,-1.656 -3.071,-1.798 -3.254,-1.886C-3.437,-1.974 -3.645,-2.018 -3.877,-2.018C-4.067,-2.018 -4.247,-1.974 -4.416,-1.886C-4.585,-1.798 -4.721,-1.67 -4.823,-1.501C-4.925,-1.331 -4.976,-1.131 -4.976,-0.899L-4.976,5.24L-3.508,5.24L-3.508,-0.021L-0.697,4.828C-0.585,5.018 -0.433,5.157 -0.243,5.245C-0.053,5.333 0.155,5.377 0.38,5.377C0.563,5.377 0.738,5.335 0.903,5.25C1.069,5.166 1.203,5.041 1.305,4.875C1.407,4.71 1.458,4.507 1.458,4.268L1.458,-1.87L0,-1.87L0,3.359Z" style="fill-rule:nonzero;"/>
                </g>
                <g transform="matrix(4.16667,0,0,4.16667,-60.99,278.379)">
                    <rect x="339.693" y="506.608" width="1.542" height="7.11"/>
                </g>
                <g transform="matrix(4.16667,0,0,4.16667,1379.24,2389.25)">
                    <path d="M0,7.11L0,1.426L2.092,1.426L2.092,0L-3.634,0L-3.634,1.426L-1.543,1.426L-1.543,7.11L0,7.11Z" style="fill-rule:nonzero;"/>
                </g>
                <g transform="matrix(4.16667,0,0,4.16667,1412.44,2389.25)">
                    <path d="M0,7.11L0,5.726L-3.645,5.726L-3.645,4.247L-0.285,4.247L-0.285,2.863L-3.645,2.863L-3.645,1.384L-0.063,1.384L-0.063,0L-3.825,0C-4.311,0 -4.659,0.12 -4.871,0.359C-5.082,0.599 -5.187,0.923 -5.187,1.331L-5.187,5.789C-5.187,6.191 -5.082,6.511 -4.871,6.751C-4.659,6.99 -4.311,7.11 -3.825,7.11L0,7.11Z" style="fill-rule:nonzero;"/>
                </g>
                <g transform="matrix(4.16667,0,0,4.16667,1437.78,2400.3)">
                    <path d="M0,1.806C-0.109,2.074 -0.268,2.301 -0.476,2.488C-0.683,2.674 -0.925,2.819 -1.199,2.921C-1.474,3.023 -1.78,3.074 -2.118,3.074L-3.196,3.074L-3.196,-1.226L-2.087,-1.226C-1.636,-1.226 -1.241,-1.136 -0.903,-0.957C-0.565,-0.777 -0.303,-0.529 -0.116,-0.212C0.07,0.105 0.164,0.479 0.164,0.908C0.164,1.239 0.109,1.538 0,1.806M1.463,2.376C1.653,1.94 1.748,1.45 1.748,0.908C1.748,0.189 1.588,-0.435 1.268,-0.967C0.947,-1.499 0.5,-1.913 -0.074,-2.209C-0.648,-2.504 -1.319,-2.652 -2.087,-2.652L-4.738,-2.652L-4.738,4.458L-2.118,4.458C-1.555,4.458 -1.039,4.375 -0.57,4.209C-0.102,4.044 0.306,3.807 0.655,3.496C1.004,3.187 1.273,2.814 1.463,2.376" style="fill-rule:nonzero;"/>
                </g>
            </g>
            <g transform="matrix(1,0,0,1,134.627,-40.4176)">
                <g transform="matrix(4.16667,0,0,4.16667,1333.01,2447.75)">
                    <path d="M0,-3.201C0.183,-3.402 0.4,-3.557 0.65,-3.666C0.9,-3.775 1.173,-3.83 1.469,-3.83C1.898,-3.83 2.254,-3.74 2.536,-3.56C2.817,-3.381 3.046,-3.136 3.222,-2.826L4.479,-3.534C4.31,-3.907 4.073,-4.224 3.766,-4.485C3.46,-4.745 3.113,-4.946 2.726,-5.087C2.338,-5.228 1.94,-5.298 1.532,-5.298C1.011,-5.298 0.528,-5.203 0.084,-5.013C-0.359,-4.823 -0.75,-4.558 -1.088,-4.221C-1.426,-3.882 -1.689,-3.492 -1.875,-3.048C-2.062,-2.604 -2.155,-2.122 -2.155,-1.6C-2.155,-1.086 -2.062,-0.605 -1.875,-0.158C-1.689,0.289 -1.426,0.682 -1.088,1.02C-0.75,1.358 -0.359,1.622 0.084,1.812C0.528,2.002 1.011,2.097 1.532,2.097C1.94,2.097 2.338,2.027 2.726,1.886C3.113,1.745 3.46,1.544 3.766,1.284C4.073,1.023 4.31,0.706 4.479,0.333L3.222,-0.375C3.053,-0.072 2.826,0.171 2.541,0.354C2.256,0.538 1.898,0.629 1.469,0.629C1.173,0.629 0.898,0.574 0.644,0.465C0.391,0.356 0.174,0.201 -0.005,-0C-0.185,-0.201 -0.324,-0.438 -0.423,-0.713C-0.521,-0.987 -0.571,-1.283 -0.571,-1.6C-0.571,-1.924 -0.521,-2.222 -0.423,-2.493C-0.324,-2.764 -0.183,-3 0,-3.201" style="fill-rule:nonzero;"/>
                </g>
                <g transform="matrix(4.16667,0,0,4.16667,1374.22,2440.02)">
                    <path d="M0,0.613C0,1.233 -0.129,1.694 -0.386,1.997C-0.643,2.3 -1.032,2.451 -1.553,2.451C-2.074,2.451 -2.463,2.3 -2.72,1.997C-2.978,1.694 -3.106,1.233 -3.106,0.613L-3.106,-3.307L-4.648,-3.307L-4.648,0.645C-4.648,1.673 -4.399,2.476 -3.898,3.053C-3.398,3.631 -2.617,3.92 -1.553,3.92C-0.497,3.92 0.283,3.631 0.787,3.053C1.291,2.476 1.542,1.673 1.542,0.645L1.542,-3.307L0,-3.307L0,0.613Z" style="fill-rule:nonzero;"/>
                </g>
                <g transform="matrix(4.16667,0,0,4.16667,1403.15,2442.24)">
                    <path d="M0,-0.57C-0.13,-0.39 -0.315,-0.256 -0.555,-0.169C-0.794,-0.08 -1.087,-0.036 -1.432,-0.036L-2.435,-0.036L-2.435,-2.414L-1.432,-2.414C-1.093,-2.414 -0.803,-2.371 -0.56,-2.287C-0.317,-2.202 -0.13,-2.074 0,-1.901C0.13,-1.728 0.195,-1.512 0.195,-1.252C0.195,-0.977 0.13,-0.75 0,-0.57M1.384,-2.657C1.12,-3.037 0.747,-3.329 0.264,-3.533C-0.218,-3.738 -0.798,-3.84 -1.474,-3.84L-3.978,-3.84L-3.978,3.27L-2.435,3.26L-2.435,1.39L-1.389,1.39C-0.734,1.39 -0.171,1.288 0.301,1.083C0.773,0.879 1.137,0.581 1.395,0.191C1.652,-0.2 1.78,-0.681 1.78,-1.252C1.78,-1.808 1.648,-2.276 1.384,-2.657" style="fill-rule:nonzero;"/>
                </g>
            </g>
        </g>
        <g>
            <g transform="matrix(-60.6146,0,0,-60.6146,1442.05,2310.87)">
                <path d="M0.461,0.548C0.461,0.322 0.559,0.118 0.714,-0.023C0.533,-0.559 0.715,-0.855 0.879,-0.916C0.876,-0.915 0.867,-0.912 0.865,-0.911C0.858,-0.909 0.851,-0.906 0.844,-0.903C0.84,-0.902 0.826,-0.896 0.823,-0.895C0.818,-0.893 0.805,-0.887 0.803,-0.886C0.798,-0.884 0.785,-0.878 0.784,-0.878C0.767,-0.869 0.749,-0.861 0.732,-0.851C0.731,-0.851 0.731,-0.851 0.73,-0.85C0.719,-0.844 0.707,-0.838 0.696,-0.832C0.695,-0.831 0.694,-0.831 0.694,-0.83C0.684,-0.824 0.674,-0.818 0.664,-0.812C0.663,-0.811 0.661,-0.81 0.66,-0.81C0.65,-0.803 0.641,-0.797 0.632,-0.791C0.629,-0.789 0.626,-0.787 0.623,-0.784C0.616,-0.78 0.61,-0.775 0.603,-0.771C0.597,-0.767 0.592,-0.762 0.586,-0.758C0.581,-0.754 0.576,-0.75 0.571,-0.747C0.566,-0.742 0.552,-0.73 0.55,-0.729C0.394,-0.599 0.276,-0.427 0.214,-0.229C0.213,-0.226 0.209,-0.212 0.208,-0.208C0.207,-0.204 0.206,-0.2 0.205,-0.197C0.204,-0.194 0.203,-0.191 0.202,-0.188C0.2,-0.178 0.197,-0.168 0.195,-0.158C0.194,-0.157 0.194,-0.156 0.194,-0.155C0.193,-0.149 0.189,-0.134 0.189,-0.132C0.188,-0.127 0.184,-0.111 0.184,-0.108C0.183,-0.103 0.182,-0.099 0.181,-0.095C0.18,-0.087 0.177,-0.07 0.177,-0.069C0.169,-0.016 0.165,0.037 0.165,0.092C0.165,0.183 0.177,0.272 0.199,0.357C0.199,0.359 0.206,0.385 0.207,0.388C0.208,0.391 0.209,0.394 0.209,0.397C0.255,0.549 0.334,0.688 0.439,0.805C0.467,0.836 0.496,0.866 0.528,0.893L0.528,0.894C0.537,0.901 0.546,0.909 0.555,0.916C0.495,0.807 0.461,0.681 0.461,0.548Z" style="fill:url(#_Linear1);fill-rule:nonzero;"/>
            </g>
            <g transform="matrix(70.6475,0,0,70.6475,1283.64,2310.93)">
                <path d="M0.503,-0.692C0.381,-0.556 0.3,-0.385 0.276,-0.2C0.275,-0.196 0.274,-0.182 0.273,-0.179C0.273,-0.176 0.273,-0.173 0.272,-0.17C0.272,-0.164 0.271,-0.151 0.271,-0.15C0.27,-0.142 0.269,-0.126 0.269,-0.125C0.269,-0.118 0.268,-0.103 0.268,-0.102C0.268,-0.094 0.268,-0.079 0.268,-0.079C0.268,-0.073 0.268,-0.066 0.268,-0.06C0.268,-0.056 0.269,-0.044 0.269,-0.042C0.27,-0.002 0.275,0.039 0.282,0.08C0.297,0.167 0.325,0.25 0.362,0.326C0.363,0.327 0.372,0.344 0.372,0.345C0.377,0.354 0.381,0.362 0.386,0.37C0.387,0.372 0.388,0.374 0.389,0.375C0.393,0.383 0.398,0.391 0.403,0.399C0.405,0.403 0.407,0.406 0.409,0.41C0.413,0.415 0.416,0.42 0.419,0.425C0.423,0.431 0.427,0.436 0.431,0.442C0.434,0.446 0.437,0.45 0.439,0.454C0.443,0.458 0.446,0.463 0.449,0.467C0.452,0.471 0.455,0.475 0.458,0.479C0.463,0.485 0.468,0.491 0.472,0.497C0.475,0.501 0.488,0.516 0.491,0.519C0.496,0.525 0.502,0.532 0.507,0.538C0.51,0.541 0.513,0.544 0.516,0.547C0.52,0.552 0.533,0.565 0.536,0.568C0.542,0.574 0.549,0.581 0.556,0.587C0.558,0.589 0.56,0.591 0.561,0.592C0.577,0.607 0.593,0.621 0.61,0.634C0.61,0.635 0.61,0.635 0.611,0.635C0.655,0.671 0.703,0.702 0.753,0.729C0.795,0.752 0.839,0.771 0.885,0.787C0.743,0.737 0.582,0.483 0.739,0.019C0.606,-0.102 0.522,-0.277 0.522,-0.471C0.522,-0.585 0.551,-0.693 0.602,-0.787C0.567,-0.758 0.533,-0.726 0.503,-0.692Z" style="fill:url(#_Linear2);fill-rule:nonzero;"/>
            </g>
            <g transform="matrix(36.6362,0,0,36.6362,1378.69,2282.45)">
                <path d="M0.534,0.773C0.534,0.774 0.534,0.774 0.534,0.775C0.539,0.788 0.543,0.801 0.548,0.814C0.805,0.58 0.966,0.243 0.966,-0.131C0.966,-0.352 0.91,-0.559 0.812,-0.74C0.809,-0.742 0.806,-0.745 0.803,-0.747C0.803,-0.747 0.802,-0.748 0.802,-0.748C0.748,-0.792 0.694,-0.813 0.642,-0.813C0.372,-0.813 0.183,-0.223 0.534,0.773Z" style="fill:url(#_Linear3);fill-rule:nonzero;"/>
            </g>
            <g transform="matrix(45.5156,0,0,45.5156,1304.65,2282.45)">
                <path d="M0.48,-0.602C0.478,-0.6 0.475,-0.597 0.473,-0.595C0.394,-0.45 0.349,-0.283 0.349,-0.106C0.349,0.196 0.479,0.467 0.686,0.655C0.689,0.645 0.693,0.634 0.696,0.624C0.697,0.623 0.697,0.623 0.697,0.622C0.979,-0.179 0.827,-0.655 0.61,-0.655C0.568,-0.655 0.524,-0.638 0.48,-0.602Z" style="fill:url(#_Linear4);fill-rule:nonzero;"/>
            </g>
            <g transform="matrix(122.97,0,0,122.97,1308.6,2341.15)">
                <path d="M0.477,-0.136C0.379,-0.136 0.289,-0.174 0.222,-0.235C0.132,0.032 0.224,0.178 0.305,0.206C0.305,0.206 0.303,0.205 0.302,0.205C0.303,0.205 0.303,0.205 0.303,0.205C0.357,0.224 0.416,0.235 0.477,0.235C0.539,0.235 0.597,0.225 0.652,0.205C0.733,0.175 0.822,0.029 0.733,-0.235C0.666,-0.174 0.576,-0.136 0.477,-0.136ZM0.302,0.205C0.302,0.205 0.302,0.205 0.302,0.205C0.302,0.205 0.302,0.205 0.302,0.205Z" style="fill:url(#_Linear5);fill-rule:nonzero;"/>
            </g>
        </g>
    </g>
    <defs>
        <linearGradient id="_Linear1" x1="0" y1="0" x2="1" y2="0" gradientUnits="userSpaceOnUse" gradientTransform="matrix(1,0,0,-1,0,1.64977e-05)"><stop offset="0" style="stop-color:rgb(141,12,255);stop-opacity:1"/><stop offset="1" style="stop-color:rgb(79,5,183);stop-opacity:1"/></linearGradient>
        <linearGradient id="_Linear2" x1="0" y1="0" x2="1" y2="0" gradientUnits="userSpaceOnUse" gradientTransform="matrix(1,0,0,-1,0,4.36439e-07)"><stop offset="0" style="stop-color:rgb(0,66,242);stop-opacity:1"/><stop offset="1" style="stop-color:rgb(0,112,255);stop-opacity:1"/></linearGradient>
        <linearGradient id="_Linear3" x1="0" y1="0" x2="1" y2="0" gradientUnits="userSpaceOnUse" gradientTransform="matrix(1,0,0,-1,0,0.000104087)"><stop offset="0" style="stop-color:rgb(79,5,183);stop-opacity:1"/><stop offset="1" style="stop-color:rgb(141,12,255);stop-opacity:1"/></linearGradient>
        <linearGradient id="_Linear4" x1="0" y1="0" x2="1" y2="0" gradientUnits="userSpaceOnUse" gradientTransform="matrix(1,0,0,-1,0,5.73796e-05)"><stop offset="0" style="stop-color:rgb(0,112,255);stop-opacity:1"/><stop offset="1" style="stop-color:rgb(0,66,242);stop-opacity:1"/></linearGradient>
        <linearGradient id="_Linear5" x1="0" y1="0" x2="1" y2="0" gradientUnits="userSpaceOnUse" gradientTransform="matrix(1,0,0,-1,0,-1.3079e-05)"><stop offset="0" style="stop-color:rgb(16,48,255);stop-opacity:1"/><stop offset="0.2" style="stop-color:rgb(16,48,255);stop-opacity:1"/><stop offset="0.87" style="stop-color:rgb(141,12,255);stop-opacity:1"/><stop offset="1" style="stop-color:rgb(141,12,255);stop-opacity:1"/></linearGradient>
    </defs>
</svg>
